<svg width="305" height="305" viewBox="0 0 305 305" fill="none" xmlns="http://www.w3.org/2000/svg">
<g opacity="0.1">
<path fillRule="evenodd" clipRule="evenodd" d="M-2.98579e-06 68.3069L305 68.3069V69.0581L-3.01862e-06 69.0581L-2.98579e-06 68.3069Z" fill="url(#paint0_linear_1813_428)"/>
<path fillRule="evenodd" clipRule="evenodd" d="M-1.94423e-06 44.4788L305 44.4788L305 45.2299L-1.97706e-06 45.2299L-1.94423e-06 44.4788Z" fill="url(#paint1_linear_1813_428)"/>
<path fillRule="evenodd" clipRule="evenodd" d="M-9.02668e-07 20.6506L305 20.6506V21.4018L-9.35504e-07 21.4018L-9.02668e-07 20.6506Z" fill="url(#paint2_linear_1813_428)"/>
<path fillRule="evenodd" clipRule="evenodd" d="M92.7708 305L92.7708 -9.21116e-06L93.522 -9.244e-06L93.522 305L92.7708 305Z" fill="url(#paint3_linear_1813_428)"/>
<path fillRule="evenodd" clipRule="evenodd" d="M68.9427 305L68.9427 -1.02527e-05L69.6938 -1.02856e-05L69.6939 305L68.9427 305Z" fill="url(#paint4_linear_1813_428)"/>
<path fillRule="evenodd" clipRule="evenodd" d="M45.1146 305L45.1145 -1.12943e-05L45.8657 -1.13271e-05L45.8657 305L45.1146 305Z" fill="url(#paint5_linear_1813_428)"/>
<path fillRule="evenodd" clipRule="evenodd" d="M21.2863 305L21.2863 -1.23359e-05L22.0374 -1.23687e-05L22.0375 305L21.2863 305Z" fill="url(#paint6_linear_1813_428)"/>
<path fillRule="evenodd" clipRule="evenodd" d="M-4.02735e-06 92.135L305 92.135L305 92.8862L-4.06019e-06 92.8862L-4.02735e-06 92.135Z" fill="url(#paint7_linear_1813_428)"/>
<path fillRule="evenodd" clipRule="evenodd" d="M116.599 305L116.599 -8.1696e-06L117.35 -8.20244e-06L117.35 305L116.599 305Z" fill="url(#paint8_linear_1813_428)"/>
<path fillRule="evenodd" clipRule="evenodd" d="M-5.06891e-06 115.963L305 115.963L305 116.714L-5.10175e-06 116.714L-5.06891e-06 115.963Z" fill="url(#paint9_linear_1813_428)"/>
<path fillRule="evenodd" clipRule="evenodd" d="M140.427 305L140.427 -7.12804e-06L141.178 -7.16087e-06L141.178 305L140.427 305Z" fill="url(#paint10_linear_1813_428)"/>
<path fillRule="evenodd" clipRule="evenodd" d="M-6.11047e-06 139.791L305 139.791V140.542L-6.14331e-06 140.542L-6.11047e-06 139.791Z" fill="url(#paint11_linear_1813_428)"/>
<path fillRule="evenodd" clipRule="evenodd" d="M164.255 305L164.255 -6.08648e-06L165.006 -6.11932e-06L165.006 305L164.255 305Z" fill="url(#paint12_linear_1813_428)"/>
<path fillRule="evenodd" clipRule="evenodd" d="M-7.15203e-06 163.619L305 163.619V164.371L-7.18487e-06 164.371L-7.15203e-06 163.619Z" fill="url(#paint13_linear_1813_428)"/>
<path fillRule="evenodd" clipRule="evenodd" d="M188.083 305L188.083 -5.04492e-06L188.834 -5.07776e-06L188.834 305L188.083 305Z" fill="url(#paint14_linear_1813_428)"/>
<path fillRule="evenodd" clipRule="evenodd" d="M-8.19359e-06 187.448L305 187.448L305 188.199L-8.22643e-06 188.199L-8.19359e-06 187.448Z" fill="url(#paint15_linear_1813_428)"/>
<path fillRule="evenodd" clipRule="evenodd" d="M211.911 305L211.911 -4.00336e-06L212.663 -4.0362e-06L212.663 305L211.911 305Z" fill="url(#paint16_linear_1813_428)"/>
<path fillRule="evenodd" clipRule="evenodd" d="M-9.23515e-06 211.276L305 211.276L305 212.027L-9.26799e-06 212.027L-9.23515e-06 211.276Z" fill="url(#paint17_linear_1813_428)"/>
<path fillRule="evenodd" clipRule="evenodd" d="M235.74 305L235.74 -2.9618e-06L236.491 -2.99464e-06L236.491 305L235.74 305Z" fill="url(#paint18_linear_1813_428)"/>
<path fillRule="evenodd" clipRule="evenodd" d="M-1.02767e-05 235.104L305 235.104L305 235.855L-1.03095e-05 235.855L-1.02767e-05 235.104Z" fill="url(#paint19_linear_1813_428)"/>
<path fillRule="evenodd" clipRule="evenodd" d="M259.568 305L259.568 -1.92024e-06L260.319 -1.95308e-06L260.319 305L259.568 305Z" fill="url(#paint20_linear_1813_428)"/>
<path fillRule="evenodd" clipRule="evenodd" d="M-1.13183e-05 258.932L305 258.932L305 259.683L-1.13511e-05 259.683L-1.13183e-05 258.932Z" fill="url(#paint21_linear_1813_428)"/>
<path fillRule="evenodd" clipRule="evenodd" d="M283.396 305L283.396 -8.7868e-07L284.147 -9.11515e-07L284.147 305L283.396 305Z" fill="url(#paint22_linear_1813_428)"/>
<path d="M47.974 235.104C46.6493 235.594 45.6048 236.639 45.1146 237.963C44.6244 236.639 43.58 235.594 42.2552 235.104C43.58 234.614 44.6244 233.569 45.1146 232.245C45.6048 233.569 46.6493 234.614 47.974 235.104Z" fill="url(#paint23_linear_1813_428)"/>
<path d="M47.974 258.932C46.6493 259.422 45.6048 260.467 45.1146 261.791C44.6244 260.467 43.58 259.422 42.2552 258.932C43.58 258.442 44.6244 257.397 45.1146 256.073C45.6048 257.397 46.6493 258.442 47.974 258.932Z" fill="url(#paint24_linear_1813_428)"/>
<path d="M47.974 211.276C46.6493 211.766 45.6048 212.81 45.1146 214.135C44.6244 212.81 43.58 211.766 42.2552 211.276C43.58 210.786 44.6244 209.741 45.1146 208.416C45.6048 209.741 46.6493 210.786 47.974 211.276Z" fill="url(#paint25_linear_1813_428)"/>
<path d="M47.974 187.448C46.6493 187.938 45.6048 188.982 45.1146 190.307C44.6244 188.982 43.58 187.938 42.2552 187.448C43.58 186.957 44.6244 185.913 45.1146 184.588C45.6048 185.913 46.6493 186.957 47.974 187.448Z" fill="url(#paint26_linear_1813_428)"/>
<path d="M47.974 163.62C46.6493 164.11 45.6048 165.154 45.1146 166.479C44.6244 165.154 43.58 164.11 42.2552 163.62C43.58 163.129 44.6244 162.085 45.1146 160.76C45.6048 162.085 46.6493 163.129 47.974 163.62Z" fill="url(#paint27_linear_1813_428)"/>
<path d="M47.974 139.791C46.6493 140.282 45.6048 141.326 45.1146 142.651C44.6244 141.326 43.58 140.282 42.2552 139.791C43.58 139.301 44.6244 138.257 45.1146 136.932C45.6048 138.257 46.6493 139.301 47.974 139.791Z" fill="url(#paint28_linear_1813_428)"/>
<path d="M47.974 92.1352C46.6493 92.6254 45.6048 93.6698 45.1146 94.9945C44.6244 93.6698 43.58 92.6254 42.2552 92.1352C43.58 91.645 44.6244 90.6005 45.1146 89.2758C45.6048 90.6005 46.6493 91.645 47.974 92.1352Z" fill="url(#paint29_linear_1813_428)"/>
<path d="M47.974 115.963C46.6493 116.453 45.6048 117.498 45.1146 118.823C44.6244 117.498 43.58 116.453 42.2552 115.963C43.58 115.473 44.6244 114.429 45.1146 113.104C45.6048 114.429 46.6493 115.473 47.974 115.963Z" fill="url(#paint30_linear_1813_428)"/>
<path d="M47.974 68.307C46.6493 68.7972 45.6048 69.8417 45.1146 71.1664C44.6244 69.8417 43.58 68.7972 42.2552 68.307C43.58 67.8169 44.6244 66.7724 45.1146 65.4477C45.6048 66.7724 46.6493 67.8169 47.974 68.307Z" fill="url(#paint31_linear_1813_428)"/>
<path d="M47.974 44.4789C46.6493 44.9691 45.6048 46.0136 45.1146 47.3383C44.6244 46.0136 43.58 44.9691 42.2552 44.4789C43.58 43.9887 44.6244 42.9443 45.1146 41.6195C45.6048 42.9443 46.6493 43.9887 47.974 44.4789Z" fill="url(#paint32_linear_1813_428)"/>
<path d="M47.9741 20.6506C46.6493 21.1408 45.6049 22.1853 45.1147 23.51C44.6245 22.1853 43.58 21.1408 42.2553 20.6506C43.58 20.1604 44.6245 19.116 45.1147 17.7912C45.6049 19.116 46.6493 20.1604 47.9741 20.6506Z" fill="url(#paint33_linear_1813_428)"/>
<path d="M24.1459 235.104C22.8212 235.594 21.7767 236.639 21.2865 237.963C20.7963 236.639 19.7519 235.594 18.4271 235.104C19.7519 234.614 20.7963 233.569 21.2865 232.245C21.7767 233.569 22.8212 234.614 24.1459 235.104Z" fill="url(#paint34_linear_1813_428)"/>
<path d="M24.1459 258.932C22.8212 259.422 21.7767 260.467 21.2865 261.791C20.7963 260.467 19.7519 259.422 18.4271 258.932C19.7519 258.442 20.7963 257.397 21.2865 256.073C21.7767 257.397 22.8212 258.442 24.1459 258.932Z" fill="url(#paint35_linear_1813_428)"/>
<path d="M24.1459 211.276C22.8212 211.766 21.7767 212.81 21.2865 214.135C20.7963 212.81 19.7519 211.766 18.4271 211.276C19.7519 210.786 20.7963 209.741 21.2865 208.416C21.7767 209.741 22.8212 210.786 24.1459 211.276Z" fill="url(#paint36_linear_1813_428)"/>
<path d="M24.1459 187.448C22.8212 187.938 21.7767 188.982 21.2865 190.307C20.7963 188.982 19.7519 187.938 18.4271 187.448C19.7519 186.957 20.7963 185.913 21.2865 184.588C21.7767 185.913 22.8212 186.957 24.1459 187.448Z" fill="url(#paint37_linear_1813_428)"/>
<path d="M24.1459 163.62C22.8212 164.11 21.7767 165.154 21.2865 166.479C20.7963 165.154 19.7519 164.11 18.4271 163.62C19.7519 163.129 20.7963 162.085 21.2865 160.76C21.7767 162.085 22.8212 163.129 24.1459 163.62Z" fill="url(#paint38_linear_1813_428)"/>
<path d="M24.1459 139.791C22.8212 140.282 21.7767 141.326 21.2865 142.651C20.7963 141.326 19.7519 140.282 18.4271 139.791C19.7519 139.301 20.7963 138.257 21.2865 136.932C21.7767 138.257 22.8212 139.301 24.1459 139.791Z" fill="url(#paint39_linear_1813_428)"/>
<path d="M24.1459 92.1352C22.8212 92.6254 21.7767 93.6698 21.2865 94.9945C20.7963 93.6698 19.7519 92.6254 18.4271 92.1352C19.7519 91.645 20.7963 90.6005 21.2865 89.2758C21.7767 90.6005 22.8212 91.645 24.1459 92.1352Z" fill="url(#paint40_linear_1813_428)"/>
<path d="M24.1459 115.963C22.8212 116.453 21.7767 117.498 21.2865 118.823C20.7963 117.498 19.7519 116.453 18.4271 115.963C19.7519 115.473 20.7963 114.429 21.2865 113.104C21.7767 114.429 22.8212 115.473 24.1459 115.963Z" fill="url(#paint41_linear_1813_428)"/>
<path d="M24.1459 68.307C22.8212 68.7972 21.7767 69.8417 21.2865 71.1664C20.7963 69.8417 19.7519 68.7972 18.4271 68.307C19.7519 67.8169 20.7963 66.7724 21.2865 65.4477C21.7767 66.7724 22.8212 67.8169 24.1459 68.307Z" fill="url(#paint42_linear_1813_428)"/>
<path d="M24.1459 44.4789C22.8212 44.9691 21.7767 46.0136 21.2865 47.3383C20.7963 46.0136 19.7519 44.9691 18.4271 44.4789C19.7519 43.9887 20.7963 42.9443 21.2865 41.6195C21.7767 42.9443 22.8212 43.9887 24.1459 44.4789Z" fill="url(#paint43_linear_1813_428)"/>
<path d="M24.1459 20.6506C22.8212 21.1408 21.7767 22.1853 21.2866 23.51C20.7964 22.1853 19.7519 21.1408 18.4272 20.6506C19.7519 20.1604 20.7964 19.116 21.2866 17.7912C21.7767 19.116 22.8212 20.1604 24.1459 20.6506Z" fill="url(#paint44_linear_1813_428)"/>
<path d="M71.8021 235.104C70.4774 235.594 69.4329 236.639 68.9428 237.963C68.4526 236.639 67.4081 235.594 66.0834 235.104C67.4081 234.614 68.4526 233.569 68.9428 232.245C69.4329 233.569 70.4774 234.614 71.8021 235.104Z" fill="url(#paint45_linear_1813_428)"/>
<path d="M71.8021 258.932C70.4774 259.422 69.4329 260.467 68.9428 261.791C68.4525 260.467 67.4081 259.422 66.0834 258.932C67.4081 258.442 68.4525 257.397 68.9428 256.073C69.4329 257.397 70.4774 258.442 71.8021 258.932Z" fill="url(#paint46_linear_1813_428)"/>
<path d="M71.8021 211.276C70.4774 211.766 69.4329 212.81 68.9428 214.135C68.4526 212.81 67.4081 211.766 66.0834 211.276C67.4081 210.786 68.4526 209.741 68.9428 208.416C69.4329 209.741 70.4774 210.786 71.8021 211.276Z" fill="url(#paint47_linear_1813_428)"/>
<path d="M71.8021 187.448C70.4774 187.938 69.4329 188.982 68.9428 190.307C68.4526 188.982 67.4081 187.938 66.0834 187.448C67.4081 186.957 68.4526 185.913 68.9428 184.588C69.4329 185.913 70.4774 186.957 71.8021 187.448Z" fill="url(#paint48_linear_1813_428)"/>
<path d="M71.8021 163.62C70.4774 164.11 69.4329 165.154 68.9428 166.479C68.4526 165.154 67.4081 164.11 66.0834 163.62C67.4081 163.129 68.4526 162.085 68.9428 160.76C69.4329 162.085 70.4774 163.129 71.8021 163.62Z" fill="url(#paint49_linear_1813_428)"/>
<path d="M71.8021 139.791C70.4774 140.282 69.4329 141.326 68.9428 142.651C68.4526 141.326 67.4081 140.282 66.0834 139.791C67.4081 139.301 68.4526 138.257 68.9428 136.932C69.4329 138.257 70.4774 139.301 71.8021 139.791Z" fill="url(#paint50_linear_1813_428)"/>
<path d="M71.8021 92.1352C70.4774 92.6254 69.4329 93.6698 68.9428 94.9945C68.4526 93.6698 67.4081 92.6254 66.0834 92.1352C67.4081 91.645 68.4526 90.6005 68.9428 89.2758C69.4329 90.6005 70.4774 91.645 71.8021 92.1352Z" fill="url(#paint51_linear_1813_428)"/>
<path d="M71.8021 115.963C70.4774 116.453 69.4329 117.498 68.9428 118.823C68.4526 117.498 67.4081 116.453 66.0834 115.963C67.4081 115.473 68.4526 114.429 68.9428 113.104C69.4329 114.429 70.4774 115.473 71.8021 115.963Z" fill="url(#paint52_linear_1813_428)"/>
<path d="M71.8021 68.307C70.4774 68.7972 69.4329 69.8417 68.9428 71.1664C68.4526 69.8417 67.4081 68.7972 66.0834 68.307C67.4081 67.8169 68.4526 66.7724 68.9428 65.4477C69.4329 66.7724 70.4774 67.8169 71.8021 68.307Z" fill="url(#paint53_linear_1813_428)"/>
<path d="M71.8021 44.4789C70.4774 44.9691 69.433 46.0136 68.9428 47.3383C68.4526 46.0136 67.4081 44.9691 66.0834 44.4789C67.4081 43.9887 68.4526 42.9443 68.9428 41.6195C69.433 42.9443 70.4774 43.9887 71.8021 44.4789Z" fill="url(#paint54_linear_1813_428)"/>
<path d="M71.8022 20.6506C70.4774 21.1408 69.433 22.1853 68.9428 23.51C68.4526 22.1853 67.4082 21.1408 66.0834 20.6506C67.4082 20.1604 68.4526 19.116 68.9428 17.7912C69.433 19.116 70.4774 20.1604 71.8022 20.6506Z" fill="url(#paint55_linear_1813_428)"/>
<path d="M95.6302 235.104C94.3055 235.594 93.2611 236.639 92.7709 237.963C92.2807 236.639 91.2362 235.594 89.9115 235.104C91.2362 234.614 92.2807 233.569 92.7709 232.245C93.2611 233.569 94.3055 234.614 95.6302 235.104Z" fill="url(#paint56_linear_1813_428)"/>
<path d="M95.6302 258.932C94.3055 259.422 93.2611 260.467 92.7709 261.791C92.2807 260.467 91.2362 259.422 89.9115 258.932C91.2362 258.442 92.2807 257.397 92.7709 256.073C93.2611 257.397 94.3055 258.442 95.6302 258.932Z" fill="url(#paint57_linear_1813_428)"/>
<path d="M95.6302 211.276C94.3055 211.766 93.2611 212.81 92.7709 214.135C92.2807 212.81 91.2362 211.766 89.9115 211.276C91.2362 210.786 92.2807 209.741 92.7709 208.416C93.2611 209.741 94.3055 210.786 95.6302 211.276Z" fill="url(#paint58_linear_1813_428)"/>
<path d="M95.6302 187.448C94.3055 187.938 93.2611 188.982 92.7709 190.307C92.2807 188.982 91.2362 187.938 89.9115 187.448C91.2362 186.957 92.2807 185.913 92.7709 184.588C93.2611 185.913 94.3055 186.957 95.6302 187.448Z" fill="url(#paint59_linear_1813_428)"/>
<path d="M95.6302 163.62C94.3055 164.11 93.2611 165.154 92.7709 166.479C92.2807 165.154 91.2362 164.11 89.9115 163.62C91.2362 163.129 92.2807 162.085 92.7709 160.76C93.2611 162.085 94.3055 163.129 95.6302 163.62Z" fill="url(#paint60_linear_1813_428)"/>
<path d="M95.6302 139.791C94.3055 140.282 93.2611 141.326 92.7709 142.651C92.2807 141.326 91.2362 140.282 89.9115 139.791C91.2362 139.301 92.2807 138.257 92.7709 136.932C93.2611 138.257 94.3055 139.301 95.6302 139.791Z" fill="url(#paint61_linear_1813_428)"/>
<path d="M95.6302 92.1352C94.3055 92.6254 93.2611 93.6698 92.7709 94.9945C92.2807 93.6698 91.2362 92.6254 89.9115 92.1352C91.2362 91.645 92.2807 90.6005 92.7709 89.2758C93.2611 90.6005 94.3055 91.645 95.6302 92.1352Z" fill="url(#paint62_linear_1813_428)"/>
<path d="M95.6302 115.963C94.3055 116.453 93.2611 117.498 92.7709 118.823C92.2807 117.498 91.2362 116.453 89.9115 115.963C91.2362 115.473 92.2807 114.429 92.7709 113.104C93.2611 114.429 94.3055 115.473 95.6302 115.963Z" fill="url(#paint63_linear_1813_428)"/>
<path d="M95.6302 68.307C94.3055 68.7972 93.2611 69.8417 92.7709 71.1664C92.2807 69.8417 91.2362 68.7972 89.9115 68.307C91.2362 67.8169 92.2807 66.7724 92.7709 65.4477C93.2611 66.7724 94.3055 67.8169 95.6302 68.307Z" fill="url(#paint64_linear_1813_428)"/>
<path d="M95.6302 44.4789C94.3055 44.9691 93.2611 46.0136 92.7709 47.3383C92.2807 46.0136 91.2362 44.9691 89.9115 44.4789C91.2362 43.9887 92.2807 42.9443 92.7709 41.6195C93.2611 42.9443 94.3055 43.9887 95.6302 44.4789Z" fill="url(#paint65_linear_1813_428)"/>
<path d="M95.6303 20.6506C94.3056 21.1408 93.2611 22.1853 92.7709 23.51C92.2807 22.1853 91.2363 21.1408 89.9116 20.6506C91.2363 20.1604 92.2807 19.116 92.7709 17.7912C93.2611 19.116 94.3056 20.1604 95.6303 20.6506Z" fill="url(#paint66_linear_1813_428)"/>
<path d="M119.458 235.104C118.134 235.594 117.089 236.639 116.599 237.963C116.109 236.639 115.064 235.594 113.74 235.104C115.064 234.614 116.109 233.569 116.599 232.245C117.089 233.569 118.134 234.614 119.458 235.104Z" fill="url(#paint67_linear_1813_428)"/>
<path d="M119.458 258.932C118.134 259.422 117.089 260.467 116.599 261.791C116.109 260.467 115.064 259.422 113.74 258.932C115.064 258.442 116.109 257.397 116.599 256.073C117.089 257.397 118.134 258.442 119.458 258.932Z" fill="url(#paint68_linear_1813_428)"/>
<path d="M119.458 211.276C118.134 211.766 117.089 212.81 116.599 214.135C116.109 212.81 115.064 211.766 113.74 211.276C115.064 210.786 116.109 209.741 116.599 208.416C117.089 209.741 118.134 210.786 119.458 211.276Z" fill="url(#paint69_linear_1813_428)"/>
<path d="M119.458 187.448C118.134 187.938 117.089 188.982 116.599 190.307C116.109 188.982 115.064 187.938 113.74 187.448C115.064 186.957 116.109 185.913 116.599 184.588C117.089 185.913 118.134 186.957 119.458 187.448Z" fill="url(#paint70_linear_1813_428)"/>
<path d="M119.458 163.62C118.134 164.11 117.089 165.154 116.599 166.479C116.109 165.154 115.064 164.11 113.74 163.62C115.064 163.129 116.109 162.085 116.599 160.76C117.089 162.085 118.134 163.129 119.458 163.62Z" fill="url(#paint71_linear_1813_428)"/>
<path d="M119.458 139.791C118.134 140.282 117.089 141.326 116.599 142.651C116.109 141.326 115.064 140.282 113.74 139.791C115.064 139.301 116.109 138.257 116.599 136.932C117.089 138.257 118.134 139.301 119.458 139.791Z" fill="url(#paint72_linear_1813_428)"/>
<path d="M119.458 92.1352C118.134 92.6254 117.089 93.6698 116.599 94.9945C116.109 93.6698 115.064 92.6254 113.74 92.1352C115.064 91.645 116.109 90.6005 116.599 89.2758C117.089 90.6005 118.134 91.645 119.458 92.1352Z" fill="url(#paint73_linear_1813_428)"/>
<path d="M119.458 115.963C118.134 116.453 117.089 117.498 116.599 118.823C116.109 117.498 115.064 116.453 113.74 115.963C115.064 115.473 116.109 114.429 116.599 113.104C117.089 114.429 118.134 115.473 119.458 115.963Z" fill="url(#paint74_linear_1813_428)"/>
<path d="M119.458 68.307C118.134 68.7972 117.089 69.8417 116.599 71.1664C116.109 69.8417 115.064 68.7972 113.74 68.307C115.064 67.8169 116.109 66.7724 116.599 65.4477C117.089 66.7724 118.134 67.8169 119.458 68.307Z" fill="url(#paint75_linear_1813_428)"/>
<path d="M119.458 44.4789C118.134 44.9691 117.089 46.0136 116.599 47.3383C116.109 46.0136 115.064 44.9691 113.74 44.4789C115.064 43.9887 116.109 42.9443 116.599 41.6195C117.089 42.9443 118.134 43.9887 119.458 44.4789Z" fill="url(#paint76_linear_1813_428)"/>
<path d="M119.458 20.6506C118.134 21.1408 117.089 22.1853 116.599 23.51C116.109 22.1853 115.064 21.1408 113.74 20.6506C115.064 20.1604 116.109 19.116 116.599 17.7912C117.089 19.116 118.134 20.1604 119.458 20.6506Z" fill="url(#paint77_linear_1813_428)"/>
<path d="M143.287 235.104C141.962 235.594 140.917 236.639 140.427 237.963C139.937 236.639 138.892 235.594 137.568 235.104C138.892 234.614 139.937 233.569 140.427 232.245C140.917 233.569 141.962 234.614 143.287 235.104Z" fill="url(#paint78_linear_1813_428)"/>
<path d="M143.287 258.932C141.962 259.422 140.917 260.467 140.427 261.791C139.937 260.467 138.892 259.422 137.568 258.932C138.892 258.442 139.937 257.397 140.427 256.073C140.917 257.397 141.962 258.442 143.287 258.932Z" fill="url(#paint79_linear_1813_428)"/>
<path d="M143.287 211.276C141.962 211.766 140.917 212.81 140.427 214.135C139.937 212.81 138.892 211.766 137.568 211.276C138.892 210.786 139.937 209.741 140.427 208.416C140.917 209.741 141.962 210.786 143.287 211.276Z" fill="url(#paint80_linear_1813_428)"/>
<path d="M143.287 187.448C141.962 187.938 140.917 188.982 140.427 190.307C139.937 188.982 138.892 187.938 137.568 187.448C138.892 186.957 139.937 185.913 140.427 184.588C140.917 185.913 141.962 186.957 143.287 187.448Z" fill="url(#paint81_linear_1813_428)"/>
<path d="M143.287 163.62C141.962 164.11 140.917 165.154 140.427 166.479C139.937 165.154 138.892 164.11 137.568 163.62C138.892 163.129 139.937 162.085 140.427 160.76C140.917 162.085 141.962 163.129 143.287 163.62Z" fill="url(#paint82_linear_1813_428)"/>
<path d="M143.287 139.791C141.962 140.282 140.917 141.326 140.427 142.651C139.937 141.326 138.892 140.282 137.568 139.791C138.892 139.301 139.937 138.257 140.427 136.932C140.917 138.257 141.962 139.301 143.287 139.791Z" fill="url(#paint83_linear_1813_428)"/>
<path d="M143.287 92.1352C141.962 92.6254 140.917 93.6698 140.427 94.9945C139.937 93.6698 138.892 92.6254 137.568 92.1352C138.892 91.645 139.937 90.6005 140.427 89.2758C140.917 90.6005 141.962 91.645 143.287 92.1352Z" fill="url(#paint84_linear_1813_428)"/>
<path d="M143.287 115.963C141.962 116.453 140.917 117.498 140.427 118.823C139.937 117.498 138.892 116.453 137.568 115.963C138.892 115.473 139.937 114.429 140.427 113.104C140.917 114.429 141.962 115.473 143.287 115.963Z" fill="url(#paint85_linear_1813_428)"/>
<path d="M143.287 68.307C141.962 68.7972 140.917 69.8417 140.427 71.1664C139.937 69.8417 138.892 68.7972 137.568 68.307C138.892 67.8169 139.937 66.7724 140.427 65.4477C140.917 66.7724 141.962 67.8169 143.287 68.307Z" fill="url(#paint86_linear_1813_428)"/>
<path d="M143.287 44.4789C141.962 44.9691 140.917 46.0136 140.427 47.3383C139.937 46.0136 138.892 44.9691 137.568 44.4789C138.892 43.9887 139.937 42.9443 140.427 41.6195C140.917 42.9443 141.962 43.9887 143.287 44.4789Z" fill="url(#paint87_linear_1813_428)"/>
<path d="M143.287 20.6506C141.962 21.1408 140.917 22.1853 140.427 23.51C139.937 22.1853 138.893 21.1408 137.568 20.6506C138.893 20.1604 139.937 19.116 140.427 17.7913C140.917 19.116 141.962 20.1604 143.287 20.6506Z" fill="url(#paint88_linear_1813_428)"/>
<path d="M167.115 235.104C165.79 235.594 164.745 236.639 164.255 237.963C163.765 236.639 162.721 235.594 161.396 235.104C162.721 234.614 163.765 233.569 164.255 232.245C164.745 233.569 165.79 234.614 167.115 235.104Z" fill="url(#paint89_linear_1813_428)"/>
<path d="M167.115 258.932C165.79 259.422 164.745 260.467 164.255 261.791C163.765 260.467 162.721 259.422 161.396 258.932C162.721 258.442 163.765 257.397 164.255 256.073C164.745 257.397 165.79 258.442 167.115 258.932Z" fill="url(#paint90_linear_1813_428)"/>
<path d="M167.115 211.276C165.79 211.766 164.745 212.81 164.255 214.135C163.765 212.81 162.721 211.766 161.396 211.276C162.721 210.786 163.765 209.741 164.255 208.416C164.745 209.741 165.79 210.786 167.115 211.276Z" fill="url(#paint91_linear_1813_428)"/>
<path d="M167.115 187.448C165.79 187.938 164.745 188.982 164.255 190.307C163.765 188.982 162.721 187.938 161.396 187.448C162.721 186.957 163.765 185.913 164.255 184.588C164.745 185.913 165.79 186.957 167.115 187.448Z" fill="url(#paint92_linear_1813_428)"/>
<path d="M167.115 163.62C165.79 164.11 164.745 165.154 164.255 166.479C163.765 165.154 162.721 164.11 161.396 163.62C162.721 163.129 163.765 162.085 164.255 160.76C164.745 162.085 165.79 163.129 167.115 163.62Z" fill="url(#paint93_linear_1813_428)"/>
<path d="M167.115 139.791C165.79 140.282 164.745 141.326 164.255 142.651C163.765 141.326 162.721 140.282 161.396 139.791C162.721 139.301 163.765 138.257 164.255 136.932C164.745 138.257 165.79 139.301 167.115 139.791Z" fill="url(#paint94_linear_1813_428)"/>
<path d="M167.115 92.1352C165.79 92.6254 164.745 93.6698 164.255 94.9945C163.765 93.6698 162.721 92.6254 161.396 92.1352C162.721 91.645 163.765 90.6005 164.255 89.2758C164.745 90.6005 165.79 91.645 167.115 92.1352Z" fill="url(#paint95_linear_1813_428)"/>
<path d="M167.115 115.963C165.79 116.453 164.745 117.498 164.255 118.823C163.765 117.498 162.721 116.453 161.396 115.963C162.721 115.473 163.765 114.429 164.255 113.104C164.745 114.429 165.79 115.473 167.115 115.963Z" fill="url(#paint96_linear_1813_428)"/>
<path d="M167.115 68.307C165.79 68.7972 164.745 69.8417 164.255 71.1664C163.765 69.8417 162.721 68.7972 161.396 68.307C162.721 67.8169 163.765 66.7724 164.255 65.4477C164.745 66.7724 165.79 67.8169 167.115 68.307Z" fill="url(#paint97_linear_1813_428)"/>
<path d="M167.115 44.4789C165.79 44.9691 164.745 46.0136 164.255 47.3383C163.765 46.0136 162.721 44.9691 161.396 44.4789C162.721 43.9887 163.765 42.9443 164.255 41.6196C164.745 42.9443 165.79 43.9887 167.115 44.4789Z" fill="url(#paint98_linear_1813_428)"/>
<path d="M167.115 20.6506C165.79 21.1408 164.746 22.1853 164.255 23.51C163.765 22.1853 162.721 21.1408 161.396 20.6506C162.721 20.1604 163.765 19.116 164.255 17.7913C164.746 19.116 165.79 20.1604 167.115 20.6506Z" fill="url(#paint99_linear_1813_428)"/>
<path d="M190.943 235.104C189.618 235.594 188.574 236.639 188.083 237.963C187.593 236.639 186.549 235.594 185.224 235.104C186.549 234.614 187.593 233.569 188.083 232.245C188.574 233.569 189.618 234.614 190.943 235.104Z" fill="url(#paint100_linear_1813_428)"/>
<path d="M190.943 258.932C189.618 259.422 188.574 260.467 188.083 261.791C187.593 260.467 186.549 259.422 185.224 258.932C186.549 258.442 187.593 257.397 188.083 256.073C188.574 257.397 189.618 258.442 190.943 258.932Z" fill="url(#paint101_linear_1813_428)"/>
<path d="M190.943 211.276C189.618 211.766 188.574 212.81 188.083 214.135C187.593 212.81 186.549 211.766 185.224 211.276C186.549 210.786 187.593 209.741 188.083 208.416C188.574 209.741 189.618 210.786 190.943 211.276Z" fill="url(#paint102_linear_1813_428)"/>
<path d="M190.943 187.448C189.618 187.938 188.574 188.982 188.083 190.307C187.593 188.982 186.549 187.938 185.224 187.448C186.549 186.957 187.593 185.913 188.083 184.588C188.574 185.913 189.618 186.957 190.943 187.448Z" fill="url(#paint103_linear_1813_428)"/>
<path d="M190.943 163.62C189.618 164.11 188.574 165.154 188.083 166.479C187.593 165.154 186.549 164.11 185.224 163.62C186.549 163.129 187.593 162.085 188.083 160.76C188.574 162.085 189.618 163.129 190.943 163.62Z" fill="url(#paint104_linear_1813_428)"/>
<path d="M190.943 139.791C189.618 140.282 188.574 141.326 188.083 142.651C187.593 141.326 186.549 140.282 185.224 139.791C186.549 139.301 187.593 138.257 188.083 136.932C188.574 138.257 189.618 139.301 190.943 139.791Z" fill="url(#paint105_linear_1813_428)"/>
<path d="M190.943 92.1352C189.618 92.6254 188.574 93.6698 188.083 94.9945C187.593 93.6698 186.549 92.6254 185.224 92.1352C186.549 91.645 187.593 90.6005 188.083 89.2758C188.574 90.6005 189.618 91.645 190.943 92.1352Z" fill="url(#paint106_linear_1813_428)"/>
<path d="M190.943 115.963C189.618 116.453 188.574 117.498 188.083 118.823C187.593 117.498 186.549 116.453 185.224 115.963C186.549 115.473 187.593 114.429 188.083 113.104C188.574 114.429 189.618 115.473 190.943 115.963Z" fill="url(#paint107_linear_1813_428)"/>
<path d="M190.943 68.307C189.618 68.7972 188.574 69.8417 188.083 71.1664C187.593 69.8417 186.549 68.7972 185.224 68.307C186.549 67.8169 187.593 66.7724 188.083 65.4477C188.574 66.7724 189.618 67.8169 190.943 68.307Z" fill="url(#paint108_linear_1813_428)"/>
<path d="M190.943 44.4789C189.618 44.9691 188.574 46.0136 188.083 47.3383C187.593 46.0136 186.549 44.9691 185.224 44.4789C186.549 43.9887 187.593 42.9443 188.083 41.6196C188.574 42.9443 189.618 43.9887 190.943 44.4789Z" fill="url(#paint109_linear_1813_428)"/>
<path d="M190.943 20.6506C189.618 21.1408 188.574 22.1853 188.083 23.51C187.593 22.1853 186.549 21.1408 185.224 20.6506C186.549 20.1604 187.593 19.116 188.083 17.7913C188.574 19.116 189.618 20.1604 190.943 20.6506Z" fill="url(#paint110_linear_1813_428)"/>
<path d="M214.771 235.104C213.446 235.594 212.402 236.639 211.912 237.963C211.421 236.639 210.377 235.594 209.052 235.104C210.377 234.614 211.421 233.569 211.912 232.245C212.402 233.569 213.446 234.614 214.771 235.104Z" fill="url(#paint111_linear_1813_428)"/>
<path d="M214.771 258.932C213.446 259.422 212.402 260.467 211.912 261.791C211.421 260.467 210.377 259.422 209.052 258.932C210.377 258.442 211.421 257.397 211.912 256.073C212.402 257.397 213.446 258.442 214.771 258.932Z" fill="url(#paint112_linear_1813_428)"/>
<path d="M214.771 211.276C213.446 211.766 212.402 212.81 211.912 214.135C211.421 212.81 210.377 211.766 209.052 211.276C210.377 210.786 211.421 209.741 211.912 208.416C212.402 209.741 213.446 210.786 214.771 211.276Z" fill="url(#paint113_linear_1813_428)"/>
<path d="M214.771 187.448C213.446 187.938 212.402 188.982 211.912 190.307C211.421 188.982 210.377 187.938 209.052 187.448C210.377 186.957 211.421 185.913 211.912 184.588C212.402 185.913 213.446 186.957 214.771 187.448Z" fill="url(#paint114_linear_1813_428)"/>
<path d="M214.771 163.62C213.446 164.11 212.402 165.154 211.912 166.479C211.421 165.154 210.377 164.11 209.052 163.62C210.377 163.129 211.421 162.085 211.912 160.76C212.402 162.085 213.446 163.129 214.771 163.62Z" fill="url(#paint115_linear_1813_428)"/>
<path d="M214.771 139.791C213.446 140.282 212.402 141.326 211.912 142.651C211.421 141.326 210.377 140.282 209.052 139.791C210.377 139.301 211.421 138.257 211.912 136.932C212.402 138.257 213.446 139.301 214.771 139.791Z" fill="url(#paint116_linear_1813_428)"/>
<path d="M214.771 92.1352C213.446 92.6254 212.402 93.6698 211.912 94.9945C211.421 93.6698 210.377 92.6254 209.052 92.1352C210.377 91.645 211.421 90.6005 211.912 89.2758C212.402 90.6005 213.446 91.645 214.771 92.1352Z" fill="url(#paint117_linear_1813_428)"/>
<path d="M214.771 115.963C213.446 116.453 212.402 117.498 211.912 118.823C211.421 117.498 210.377 116.453 209.052 115.963C210.377 115.473 211.421 114.429 211.912 113.104C212.402 114.429 213.446 115.473 214.771 115.963Z" fill="url(#paint118_linear_1813_428)"/>
<path d="M214.771 68.307C213.446 68.7972 212.402 69.8417 211.912 71.1664C211.421 69.8417 210.377 68.7972 209.052 68.307C210.377 67.8169 211.421 66.7724 211.912 65.4477C212.402 66.7724 213.446 67.8169 214.771 68.307Z" fill="url(#paint119_linear_1813_428)"/>
<path d="M214.771 44.4789C213.446 44.9691 212.402 46.0136 211.912 47.3383C211.421 46.0136 210.377 44.9691 209.052 44.4789C210.377 43.9887 211.421 42.9443 211.912 41.6196C212.402 42.9443 213.446 43.9887 214.771 44.4789Z" fill="url(#paint120_linear_1813_428)"/>
<path d="M214.771 20.6506C213.446 21.1408 212.402 22.1853 211.912 23.51C211.421 22.1853 210.377 21.1408 209.052 20.6506C210.377 20.1604 211.421 19.116 211.912 17.7913C212.402 19.116 213.446 20.1604 214.771 20.6506Z" fill="url(#paint121_linear_1813_428)"/>
<path d="M238.599 235.104C237.274 235.594 236.23 236.639 235.74 237.963C235.249 236.639 234.205 235.594 232.88 235.104C234.205 234.614 235.249 233.569 235.74 232.245C236.23 233.569 237.274 234.614 238.599 235.104Z" fill="url(#paint122_linear_1813_428)"/>
<path d="M238.599 258.932C237.274 259.422 236.23 260.467 235.74 261.791C235.249 260.467 234.205 259.422 232.88 258.932C234.205 258.442 235.249 257.397 235.74 256.073C236.23 257.397 237.274 258.442 238.599 258.932Z" fill="url(#paint123_linear_1813_428)"/>
<path d="M238.599 211.276C237.274 211.766 236.23 212.81 235.74 214.135C235.249 212.81 234.205 211.766 232.88 211.276C234.205 210.786 235.249 209.741 235.74 208.416C236.23 209.741 237.274 210.786 238.599 211.276Z" fill="url(#paint124_linear_1813_428)"/>
<path d="M238.599 187.448C237.274 187.938 236.23 188.982 235.74 190.307C235.249 188.982 234.205 187.938 232.88 187.448C234.205 186.957 235.249 185.913 235.74 184.588C236.23 185.913 237.274 186.957 238.599 187.448Z" fill="url(#paint125_linear_1813_428)"/>
<path d="M238.599 163.62C237.274 164.11 236.23 165.154 235.74 166.479C235.249 165.154 234.205 164.11 232.88 163.62C234.205 163.129 235.249 162.085 235.74 160.76C236.23 162.085 237.274 163.129 238.599 163.62Z" fill="url(#paint126_linear_1813_428)"/>
<path d="M238.599 139.791C237.274 140.282 236.23 141.326 235.74 142.651C235.249 141.326 234.205 140.282 232.88 139.791C234.205 139.301 235.249 138.257 235.74 136.932C236.23 138.257 237.274 139.301 238.599 139.791Z" fill="url(#paint127_linear_1813_428)"/>
<path d="M238.599 92.1352C237.274 92.6254 236.23 93.6698 235.74 94.9945C235.249 93.6698 234.205 92.6254 232.88 92.1352C234.205 91.645 235.249 90.6005 235.74 89.2758C236.23 90.6005 237.274 91.645 238.599 92.1352Z" fill="url(#paint128_linear_1813_428)"/>
<path d="M238.599 115.963C237.274 116.453 236.23 117.498 235.74 118.823C235.249 117.498 234.205 116.453 232.88 115.963C234.205 115.473 235.249 114.429 235.74 113.104C236.23 114.429 237.274 115.473 238.599 115.963Z" fill="url(#paint129_linear_1813_428)"/>
<path d="M238.599 68.307C237.274 68.7972 236.23 69.8417 235.74 71.1664C235.249 69.8417 234.205 68.7972 232.88 68.307C234.205 67.8169 235.249 66.7724 235.74 65.4477C236.23 66.7724 237.274 67.8169 238.599 68.307Z" fill="url(#paint130_linear_1813_428)"/>
<path d="M238.599 44.4789C237.274 44.9691 236.23 46.0136 235.74 47.3383C235.249 46.0136 234.205 44.9691 232.88 44.4789C234.205 43.9887 235.249 42.9443 235.74 41.6196C236.23 42.9443 237.274 43.9887 238.599 44.4789Z" fill="url(#paint131_linear_1813_428)"/>
<path d="M238.599 20.6506C237.274 21.1408 236.23 22.1853 235.74 23.51C235.249 22.1853 234.205 21.1408 232.88 20.6506C234.205 20.1604 235.249 19.116 235.74 17.7913C236.23 19.116 237.274 20.1604 238.599 20.6506Z" fill="url(#paint132_linear_1813_428)"/>
<path d="M262.427 235.104C261.102 235.594 260.058 236.639 259.568 237.963C259.078 236.639 258.033 235.594 256.708 235.104C258.033 234.614 259.078 233.569 259.568 232.245C260.058 233.569 261.102 234.614 262.427 235.104Z" fill="url(#paint133_linear_1813_428)"/>
<path d="M262.427 258.932C261.102 259.422 260.058 260.467 259.568 261.791C259.078 260.467 258.033 259.422 256.708 258.932C258.033 258.442 259.078 257.397 259.568 256.073C260.058 257.397 261.102 258.442 262.427 258.932Z" fill="url(#paint134_linear_1813_428)"/>
<path d="M262.427 211.276C261.102 211.766 260.058 212.81 259.568 214.135C259.078 212.81 258.033 211.766 256.708 211.276C258.033 210.786 259.078 209.741 259.568 208.416C260.058 209.741 261.102 210.786 262.427 211.276Z" fill="url(#paint135_linear_1813_428)"/>
<path d="M262.427 187.448C261.102 187.938 260.058 188.982 259.568 190.307C259.078 188.982 258.033 187.938 256.708 187.448C258.033 186.957 259.078 185.913 259.568 184.588C260.058 185.913 261.102 186.957 262.427 187.448Z" fill="url(#paint136_linear_1813_428)"/>
<path d="M262.427 163.62C261.102 164.11 260.058 165.154 259.568 166.479C259.078 165.154 258.033 164.11 256.708 163.62C258.033 163.129 259.078 162.085 259.568 160.76C260.058 162.085 261.102 163.129 262.427 163.62Z" fill="url(#paint137_linear_1813_428)"/>
<path d="M262.427 139.791C261.102 140.282 260.058 141.326 259.568 142.651C259.078 141.326 258.033 140.282 256.708 139.791C258.033 139.301 259.078 138.257 259.568 136.932C260.058 138.257 261.102 139.301 262.427 139.791Z" fill="url(#paint138_linear_1813_428)"/>
<path d="M262.427 92.1352C261.102 92.6254 260.058 93.6698 259.568 94.9946C259.078 93.6698 258.033 92.6254 256.708 92.1352C258.033 91.645 259.078 90.6005 259.568 89.2758C260.058 90.6005 261.102 91.645 262.427 92.1352Z" fill="url(#paint139_linear_1813_428)"/>
<path d="M262.427 115.963C261.102 116.453 260.058 117.498 259.568 118.823C259.078 117.498 258.033 116.453 256.708 115.963C258.033 115.473 259.078 114.429 259.568 113.104C260.058 114.429 261.102 115.473 262.427 115.963Z" fill="url(#paint140_linear_1813_428)"/>
<path d="M262.427 68.3071C261.102 68.7972 260.058 69.8417 259.568 71.1664C259.078 69.8417 258.033 68.7972 256.708 68.3071C258.033 67.8169 259.078 66.7724 259.568 65.4477C260.058 66.7724 261.102 67.8169 262.427 68.3071Z" fill="url(#paint141_linear_1813_428)"/>
<path d="M262.427 44.4789C261.102 44.9691 260.058 46.0136 259.568 47.3383C259.078 46.0136 258.033 44.9691 256.708 44.4789C258.033 43.9887 259.078 42.9443 259.568 41.6196C260.058 42.9443 261.102 43.9887 262.427 44.4789Z" fill="url(#paint142_linear_1813_428)"/>
<path d="M262.427 20.6506C261.102 21.1408 260.058 22.1853 259.568 23.51C259.078 22.1853 258.033 21.1408 256.708 20.6506C258.033 20.1604 259.078 19.116 259.568 17.7913C260.058 19.116 261.102 20.1604 262.427 20.6506Z" fill="url(#paint143_linear_1813_428)"/>
<path d="M286.255 235.104C284.931 235.594 283.886 236.639 283.396 237.963C282.906 236.639 281.861 235.594 280.537 235.104C281.861 234.614 282.906 233.569 283.396 232.245C283.886 233.569 284.931 234.614 286.255 235.104Z" fill="url(#paint144_linear_1813_428)"/>
<path d="M286.255 258.932C284.931 259.422 283.886 260.467 283.396 261.791C282.906 260.467 281.861 259.422 280.537 258.932C281.861 258.442 282.906 257.397 283.396 256.073C283.886 257.397 284.931 258.442 286.255 258.932Z" fill="url(#paint145_linear_1813_428)"/>
<path d="M286.255 211.276C284.931 211.766 283.886 212.81 283.396 214.135C282.906 212.81 281.861 211.766 280.537 211.276C281.861 210.786 282.906 209.741 283.396 208.416C283.886 209.741 284.931 210.786 286.255 211.276Z" fill="url(#paint146_linear_1813_428)"/>
<path d="M286.255 187.448C284.931 187.938 283.886 188.982 283.396 190.307C282.906 188.982 281.861 187.938 280.537 187.448C281.861 186.957 282.906 185.913 283.396 184.588C283.886 185.913 284.931 186.957 286.255 187.448Z" fill="url(#paint147_linear_1813_428)"/>
<path d="M286.255 163.62C284.931 164.11 283.886 165.154 283.396 166.479C282.906 165.154 281.861 164.11 280.537 163.62C281.861 163.129 282.906 162.085 283.396 160.76C283.886 162.085 284.931 163.129 286.255 163.62Z" fill="url(#paint148_linear_1813_428)"/>
<path d="M286.255 139.791C284.931 140.282 283.886 141.326 283.396 142.651C282.906 141.326 281.861 140.282 280.537 139.791C281.861 139.301 282.906 138.257 283.396 136.932C283.886 138.257 284.931 139.301 286.255 139.791Z" fill="url(#paint149_linear_1813_428)"/>
<path d="M286.255 92.1352C284.931 92.6254 283.886 93.6698 283.396 94.9946C282.906 93.6698 281.861 92.6254 280.537 92.1352C281.861 91.645 282.906 90.6005 283.396 89.2758C283.886 90.6005 284.931 91.645 286.255 92.1352Z" fill="url(#paint150_linear_1813_428)"/>
<path d="M286.255 115.963C284.931 116.453 283.886 117.498 283.396 118.823C282.906 117.498 281.861 116.453 280.537 115.963C281.861 115.473 282.906 114.429 283.396 113.104C283.886 114.429 284.931 115.473 286.255 115.963Z" fill="url(#paint151_linear_1813_428)"/>
<path d="M286.255 68.3071C284.931 68.7972 283.886 69.8417 283.396 71.1664C282.906 69.8417 281.861 68.7972 280.537 68.3071C281.861 67.8169 282.906 66.7724 283.396 65.4477C283.886 66.7724 284.931 67.8169 286.255 68.3071Z" fill="url(#paint152_linear_1813_428)"/>
<path d="M286.255 44.4789C284.931 44.9691 283.886 46.0136 283.396 47.3383C282.906 46.0136 281.861 44.9691 280.537 44.4789C281.861 43.9887 282.906 42.9443 283.396 41.6196C283.886 42.9443 284.931 43.9887 286.255 44.4789Z" fill="url(#paint153_linear_1813_428)"/>
<path d="M286.255 20.6506C284.931 21.1408 283.886 22.1853 283.396 23.51C282.906 22.1853 281.861 21.1408 280.537 20.6506C281.861 20.1604 282.906 19.116 283.396 17.7913C283.886 19.116 284.931 20.1604 286.255 20.6506Z" fill="url(#paint154_linear_1813_428)"/>
</g>
<defs>
<linearGradient id="paint0_linear_1813_428" x1="300.133" y1="8.51728" x2="163.045" y2="152.5" gradientUnits="userSpaceOnUse">
<stop stop-color="white"/>
<stop offset="1" stop-color="white" stop-opacity="0"/>
</linearGradient>
<linearGradient id="paint1_linear_1813_428" x1="300.133" y1="8.51728" x2="163.045" y2="152.5" gradientUnits="userSpaceOnUse">
<stop stop-color="white"/>
<stop offset="1" stop-color="white" stop-opacity="0"/>
</linearGradient>
<linearGradient id="paint2_linear_1813_428" x1="300.133" y1="8.51728" x2="163.045" y2="152.5" gradientUnits="userSpaceOnUse">
<stop stop-color="white"/>
<stop offset="1" stop-color="white" stop-opacity="0"/>
</linearGradient>
<linearGradient id="paint3_linear_1813_428" x1="300.133" y1="8.51728" x2="163.045" y2="152.5" gradientUnits="userSpaceOnUse">
<stop stop-color="white"/>
<stop offset="1" stop-color="white" stop-opacity="0"/>
</linearGradient>
<linearGradient id="paint4_linear_1813_428" x1="300.133" y1="8.51728" x2="163.045" y2="152.5" gradientUnits="userSpaceOnUse">
<stop stop-color="white"/>
<stop offset="1" stop-color="white" stop-opacity="0"/>
</linearGradient>
<linearGradient id="paint5_linear_1813_428" x1="300.133" y1="8.51728" x2="163.045" y2="152.5" gradientUnits="userSpaceOnUse">
<stop stop-color="white"/>
<stop offset="1" stop-color="white" stop-opacity="0"/>
</linearGradient>
<linearGradient id="paint6_linear_1813_428" x1="300.133" y1="8.51728" x2="163.045" y2="152.5" gradientUnits="userSpaceOnUse">
<stop stop-color="white"/>
<stop offset="1" stop-color="white" stop-opacity="0"/>
</linearGradient>
<linearGradient id="paint7_linear_1813_428" x1="300.133" y1="8.51728" x2="163.045" y2="152.5" gradientUnits="userSpaceOnUse">
<stop stop-color="white"/>
<stop offset="1" stop-color="white" stop-opacity="0"/>
</linearGradient>
<linearGradient id="paint8_linear_1813_428" x1="300.133" y1="8.51728" x2="163.045" y2="152.5" gradientUnits="userSpaceOnUse">
<stop stop-color="white"/>
<stop offset="1" stop-color="white" stop-opacity="0"/>
</linearGradient>
<linearGradient id="paint9_linear_1813_428" x1="300.133" y1="8.51728" x2="163.045" y2="152.5" gradientUnits="userSpaceOnUse">
<stop stop-color="white"/>
<stop offset="1" stop-color="white" stop-opacity="0"/>
</linearGradient>
<linearGradient id="paint10_linear_1813_428" x1="300.133" y1="8.51728" x2="163.045" y2="152.5" gradientUnits="userSpaceOnUse">
<stop stop-color="white"/>
<stop offset="1" stop-color="white" stop-opacity="0"/>
</linearGradient>
<linearGradient id="paint11_linear_1813_428" x1="300.133" y1="8.51728" x2="163.045" y2="152.5" gradientUnits="userSpaceOnUse">
<stop stop-color="white"/>
<stop offset="1" stop-color="white" stop-opacity="0"/>
</linearGradient>
<linearGradient id="paint12_linear_1813_428" x1="300.133" y1="8.51728" x2="163.045" y2="152.5" gradientUnits="userSpaceOnUse">
<stop stop-color="white"/>
<stop offset="1" stop-color="white" stop-opacity="0"/>
</linearGradient>
<linearGradient id="paint13_linear_1813_428" x1="300.133" y1="8.51728" x2="163.045" y2="152.5" gradientUnits="userSpaceOnUse">
<stop stop-color="white"/>
<stop offset="1" stop-color="white" stop-opacity="0"/>
</linearGradient>
<linearGradient id="paint14_linear_1813_428" x1="300.133" y1="8.51728" x2="163.045" y2="152.5" gradientUnits="userSpaceOnUse">
<stop stop-color="white"/>
<stop offset="1" stop-color="white" stop-opacity="0"/>
</linearGradient>
<linearGradient id="paint15_linear_1813_428" x1="300.133" y1="8.51728" x2="163.045" y2="152.5" gradientUnits="userSpaceOnUse">
<stop stop-color="white"/>
<stop offset="1" stop-color="white" stop-opacity="0"/>
</linearGradient>
<linearGradient id="paint16_linear_1813_428" x1="300.133" y1="8.51728" x2="163.045" y2="152.5" gradientUnits="userSpaceOnUse">
<stop stop-color="white"/>
<stop offset="1" stop-color="white" stop-opacity="0"/>
</linearGradient>
<linearGradient id="paint17_linear_1813_428" x1="300.133" y1="8.51728" x2="163.045" y2="152.5" gradientUnits="userSpaceOnUse">
<stop stop-color="white"/>
<stop offset="1" stop-color="white" stop-opacity="0"/>
</linearGradient>
<linearGradient id="paint18_linear_1813_428" x1="300.133" y1="8.51728" x2="163.045" y2="152.5" gradientUnits="userSpaceOnUse">
<stop stop-color="white"/>
<stop offset="1" stop-color="white" stop-opacity="0"/>
</linearGradient>
<linearGradient id="paint19_linear_1813_428" x1="300.133" y1="8.51728" x2="163.045" y2="152.5" gradientUnits="userSpaceOnUse">
<stop stop-color="white"/>
<stop offset="1" stop-color="white" stop-opacity="0"/>
</linearGradient>
<linearGradient id="paint20_linear_1813_428" x1="300.133" y1="8.51728" x2="163.045" y2="152.5" gradientUnits="userSpaceOnUse">
<stop stop-color="white"/>
<stop offset="1" stop-color="white" stop-opacity="0"/>
</linearGradient>
<linearGradient id="paint21_linear_1813_428" x1="300.133" y1="8.51728" x2="163.045" y2="152.5" gradientUnits="userSpaceOnUse">
<stop stop-color="white"/>
<stop offset="1" stop-color="white" stop-opacity="0"/>
</linearGradient>
<linearGradient id="paint22_linear_1813_428" x1="300.133" y1="8.51728" x2="163.045" y2="152.5" gradientUnits="userSpaceOnUse">
<stop stop-color="white"/>
<stop offset="1" stop-color="white" stop-opacity="0"/>
</linearGradient>
<linearGradient id="paint23_linear_1813_428" x1="300.133" y1="8.51728" x2="163.045" y2="152.5" gradientUnits="userSpaceOnUse">
<stop stop-color="white"/>
<stop offset="1" stop-color="white" stop-opacity="0"/>
</linearGradient>
<linearGradient id="paint24_linear_1813_428" x1="300.133" y1="8.51728" x2="163.045" y2="152.5" gradientUnits="userSpaceOnUse">
<stop stop-color="white"/>
<stop offset="1" stop-color="white" stop-opacity="0"/>
</linearGradient>
<linearGradient id="paint25_linear_1813_428" x1="300.133" y1="8.51728" x2="163.045" y2="152.5" gradientUnits="userSpaceOnUse">
<stop stop-color="white"/>
<stop offset="1" stop-color="white" stop-opacity="0"/>
</linearGradient>
<linearGradient id="paint26_linear_1813_428" x1="300.133" y1="8.51728" x2="163.045" y2="152.5" gradientUnits="userSpaceOnUse">
<stop stop-color="white"/>
<stop offset="1" stop-color="white" stop-opacity="0"/>
</linearGradient>
<linearGradient id="paint27_linear_1813_428" x1="300.133" y1="8.51728" x2="163.045" y2="152.5" gradientUnits="userSpaceOnUse">
<stop stop-color="white"/>
<stop offset="1" stop-color="white" stop-opacity="0"/>
</linearGradient>
<linearGradient id="paint28_linear_1813_428" x1="300.133" y1="8.51728" x2="163.045" y2="152.5" gradientUnits="userSpaceOnUse">
<stop stop-color="white"/>
<stop offset="1" stop-color="white" stop-opacity="0"/>
</linearGradient>
<linearGradient id="paint29_linear_1813_428" x1="300.133" y1="8.51728" x2="163.045" y2="152.5" gradientUnits="userSpaceOnUse">
<stop stop-color="white"/>
<stop offset="1" stop-color="white" stop-opacity="0"/>
</linearGradient>
<linearGradient id="paint30_linear_1813_428" x1="300.133" y1="8.51728" x2="163.045" y2="152.5" gradientUnits="userSpaceOnUse">
<stop stop-color="white"/>
<stop offset="1" stop-color="white" stop-opacity="0"/>
</linearGradient>
<linearGradient id="paint31_linear_1813_428" x1="300.133" y1="8.51728" x2="163.045" y2="152.5" gradientUnits="userSpaceOnUse">
<stop stop-color="white"/>
<stop offset="1" stop-color="white" stop-opacity="0"/>
</linearGradient>
<linearGradient id="paint32_linear_1813_428" x1="300.133" y1="8.51728" x2="163.045" y2="152.5" gradientUnits="userSpaceOnUse">
<stop stop-color="white"/>
<stop offset="1" stop-color="white" stop-opacity="0"/>
</linearGradient>
<linearGradient id="paint33_linear_1813_428" x1="300.133" y1="8.51728" x2="163.045" y2="152.5" gradientUnits="userSpaceOnUse">
<stop stop-color="white"/>
<stop offset="1" stop-color="white" stop-opacity="0"/>
</linearGradient>
<linearGradient id="paint34_linear_1813_428" x1="300.133" y1="8.51728" x2="163.045" y2="152.5" gradientUnits="userSpaceOnUse">
<stop stop-color="white"/>
<stop offset="1" stop-color="white" stop-opacity="0"/>
</linearGradient>
<linearGradient id="paint35_linear_1813_428" x1="300.133" y1="8.51728" x2="163.045" y2="152.5" gradientUnits="userSpaceOnUse">
<stop stop-color="white"/>
<stop offset="1" stop-color="white" stop-opacity="0"/>
</linearGradient>
<linearGradient id="paint36_linear_1813_428" x1="300.133" y1="8.51728" x2="163.045" y2="152.5" gradientUnits="userSpaceOnUse">
<stop stop-color="white"/>
<stop offset="1" stop-color="white" stop-opacity="0"/>
</linearGradient>
<linearGradient id="paint37_linear_1813_428" x1="300.133" y1="8.51728" x2="163.045" y2="152.5" gradientUnits="userSpaceOnUse">
<stop stop-color="white"/>
<stop offset="1" stop-color="white" stop-opacity="0"/>
</linearGradient>
<linearGradient id="paint38_linear_1813_428" x1="300.133" y1="8.51728" x2="163.045" y2="152.5" gradientUnits="userSpaceOnUse">
<stop stop-color="white"/>
<stop offset="1" stop-color="white" stop-opacity="0"/>
</linearGradient>
<linearGradient id="paint39_linear_1813_428" x1="300.133" y1="8.51728" x2="163.045" y2="152.5" gradientUnits="userSpaceOnUse">
<stop stop-color="white"/>
<stop offset="1" stop-color="white" stop-opacity="0"/>
</linearGradient>
<linearGradient id="paint40_linear_1813_428" x1="300.133" y1="8.51728" x2="163.045" y2="152.5" gradientUnits="userSpaceOnUse">
<stop stop-color="white"/>
<stop offset="1" stop-color="white" stop-opacity="0"/>
</linearGradient>
<linearGradient id="paint41_linear_1813_428" x1="300.133" y1="8.51728" x2="163.045" y2="152.5" gradientUnits="userSpaceOnUse">
<stop stop-color="white"/>
<stop offset="1" stop-color="white" stop-opacity="0"/>
</linearGradient>
<linearGradient id="paint42_linear_1813_428" x1="300.133" y1="8.51728" x2="163.045" y2="152.5" gradientUnits="userSpaceOnUse">
<stop stop-color="white"/>
<stop offset="1" stop-color="white" stop-opacity="0"/>
</linearGradient>
<linearGradient id="paint43_linear_1813_428" x1="300.133" y1="8.51728" x2="163.045" y2="152.5" gradientUnits="userSpaceOnUse">
<stop stop-color="white"/>
<stop offset="1" stop-color="white" stop-opacity="0"/>
</linearGradient>
<linearGradient id="paint44_linear_1813_428" x1="300.133" y1="8.51728" x2="163.045" y2="152.5" gradientUnits="userSpaceOnUse">
<stop stop-color="white"/>
<stop offset="1" stop-color="white" stop-opacity="0"/>
</linearGradient>
<linearGradient id="paint45_linear_1813_428" x1="300.133" y1="8.51728" x2="163.045" y2="152.5" gradientUnits="userSpaceOnUse">
<stop stop-color="white"/>
<stop offset="1" stop-color="white" stop-opacity="0"/>
</linearGradient>
<linearGradient id="paint46_linear_1813_428" x1="300.133" y1="8.51728" x2="163.045" y2="152.5" gradientUnits="userSpaceOnUse">
<stop stop-color="white"/>
<stop offset="1" stop-color="white" stop-opacity="0"/>
</linearGradient>
<linearGradient id="paint47_linear_1813_428" x1="300.133" y1="8.51728" x2="163.045" y2="152.5" gradientUnits="userSpaceOnUse">
<stop stop-color="white"/>
<stop offset="1" stop-color="white" stop-opacity="0"/>
</linearGradient>
<linearGradient id="paint48_linear_1813_428" x1="300.133" y1="8.51728" x2="163.045" y2="152.5" gradientUnits="userSpaceOnUse">
<stop stop-color="white"/>
<stop offset="1" stop-color="white" stop-opacity="0"/>
</linearGradient>
<linearGradient id="paint49_linear_1813_428" x1="300.133" y1="8.51728" x2="163.045" y2="152.5" gradientUnits="userSpaceOnUse">
<stop stop-color="white"/>
<stop offset="1" stop-color="white" stop-opacity="0"/>
</linearGradient>
<linearGradient id="paint50_linear_1813_428" x1="300.133" y1="8.51728" x2="163.045" y2="152.5" gradientUnits="userSpaceOnUse">
<stop stop-color="white"/>
<stop offset="1" stop-color="white" stop-opacity="0"/>
</linearGradient>
<linearGradient id="paint51_linear_1813_428" x1="300.133" y1="8.51728" x2="163.045" y2="152.5" gradientUnits="userSpaceOnUse">
<stop stop-color="white"/>
<stop offset="1" stop-color="white" stop-opacity="0"/>
</linearGradient>
<linearGradient id="paint52_linear_1813_428" x1="300.133" y1="8.51728" x2="163.045" y2="152.5" gradientUnits="userSpaceOnUse">
<stop stop-color="white"/>
<stop offset="1" stop-color="white" stop-opacity="0"/>
</linearGradient>
<linearGradient id="paint53_linear_1813_428" x1="300.133" y1="8.51728" x2="163.045" y2="152.5" gradientUnits="userSpaceOnUse">
<stop stop-color="white"/>
<stop offset="1" stop-color="white" stop-opacity="0"/>
</linearGradient>
<linearGradient id="paint54_linear_1813_428" x1="300.133" y1="8.51728" x2="163.045" y2="152.5" gradientUnits="userSpaceOnUse">
<stop stop-color="white"/>
<stop offset="1" stop-color="white" stop-opacity="0"/>
</linearGradient>
<linearGradient id="paint55_linear_1813_428" x1="300.133" y1="8.51728" x2="163.045" y2="152.5" gradientUnits="userSpaceOnUse">
<stop stop-color="white"/>
<stop offset="1" stop-color="white" stop-opacity="0"/>
</linearGradient>
<linearGradient id="paint56_linear_1813_428" x1="300.133" y1="8.51728" x2="163.045" y2="152.5" gradientUnits="userSpaceOnUse">
<stop stop-color="white"/>
<stop offset="1" stop-color="white" stop-opacity="0"/>
</linearGradient>
<linearGradient id="paint57_linear_1813_428" x1="300.133" y1="8.51728" x2="163.045" y2="152.5" gradientUnits="userSpaceOnUse">
<stop stop-color="white"/>
<stop offset="1" stop-color="white" stop-opacity="0"/>
</linearGradient>
<linearGradient id="paint58_linear_1813_428" x1="300.133" y1="8.51728" x2="163.045" y2="152.5" gradientUnits="userSpaceOnUse">
<stop stop-color="white"/>
<stop offset="1" stop-color="white" stop-opacity="0"/>
</linearGradient>
<linearGradient id="paint59_linear_1813_428" x1="300.133" y1="8.51728" x2="163.045" y2="152.5" gradientUnits="userSpaceOnUse">
<stop stop-color="white"/>
<stop offset="1" stop-color="white" stop-opacity="0"/>
</linearGradient>
<linearGradient id="paint60_linear_1813_428" x1="300.133" y1="8.51728" x2="163.045" y2="152.5" gradientUnits="userSpaceOnUse">
<stop stop-color="white"/>
<stop offset="1" stop-color="white" stop-opacity="0"/>
</linearGradient>
<linearGradient id="paint61_linear_1813_428" x1="300.133" y1="8.51728" x2="163.045" y2="152.5" gradientUnits="userSpaceOnUse">
<stop stop-color="white"/>
<stop offset="1" stop-color="white" stop-opacity="0"/>
</linearGradient>
<linearGradient id="paint62_linear_1813_428" x1="300.133" y1="8.51728" x2="163.045" y2="152.5" gradientUnits="userSpaceOnUse">
<stop stop-color="white"/>
<stop offset="1" stop-color="white" stop-opacity="0"/>
</linearGradient>
<linearGradient id="paint63_linear_1813_428" x1="300.133" y1="8.51728" x2="163.045" y2="152.5" gradientUnits="userSpaceOnUse">
<stop stop-color="white"/>
<stop offset="1" stop-color="white" stop-opacity="0"/>
</linearGradient>
<linearGradient id="paint64_linear_1813_428" x1="300.133" y1="8.51728" x2="163.045" y2="152.5" gradientUnits="userSpaceOnUse">
<stop stop-color="white"/>
<stop offset="1" stop-color="white" stop-opacity="0"/>
</linearGradient>
<linearGradient id="paint65_linear_1813_428" x1="300.133" y1="8.51728" x2="163.045" y2="152.5" gradientUnits="userSpaceOnUse">
<stop stop-color="white"/>
<stop offset="1" stop-color="white" stop-opacity="0"/>
</linearGradient>
<linearGradient id="paint66_linear_1813_428" x1="300.133" y1="8.51728" x2="163.045" y2="152.5" gradientUnits="userSpaceOnUse">
<stop stop-color="white"/>
<stop offset="1" stop-color="white" stop-opacity="0"/>
</linearGradient>
<linearGradient id="paint67_linear_1813_428" x1="300.133" y1="8.51728" x2="163.045" y2="152.5" gradientUnits="userSpaceOnUse">
<stop stop-color="white"/>
<stop offset="1" stop-color="white" stop-opacity="0"/>
</linearGradient>
<linearGradient id="paint68_linear_1813_428" x1="300.133" y1="8.51728" x2="163.045" y2="152.5" gradientUnits="userSpaceOnUse">
<stop stop-color="white"/>
<stop offset="1" stop-color="white" stop-opacity="0"/>
</linearGradient>
<linearGradient id="paint69_linear_1813_428" x1="300.133" y1="8.51728" x2="163.045" y2="152.5" gradientUnits="userSpaceOnUse">
<stop stop-color="white"/>
<stop offset="1" stop-color="white" stop-opacity="0"/>
</linearGradient>
<linearGradient id="paint70_linear_1813_428" x1="300.133" y1="8.51728" x2="163.045" y2="152.5" gradientUnits="userSpaceOnUse">
<stop stop-color="white"/>
<stop offset="1" stop-color="white" stop-opacity="0"/>
</linearGradient>
<linearGradient id="paint71_linear_1813_428" x1="300.133" y1="8.51728" x2="163.045" y2="152.5" gradientUnits="userSpaceOnUse">
<stop stop-color="white"/>
<stop offset="1" stop-color="white" stop-opacity="0"/>
</linearGradient>
<linearGradient id="paint72_linear_1813_428" x1="300.133" y1="8.51728" x2="163.045" y2="152.5" gradientUnits="userSpaceOnUse">
<stop stop-color="white"/>
<stop offset="1" stop-color="white" stop-opacity="0"/>
</linearGradient>
<linearGradient id="paint73_linear_1813_428" x1="300.133" y1="8.51728" x2="163.045" y2="152.5" gradientUnits="userSpaceOnUse">
<stop stop-color="white"/>
<stop offset="1" stop-color="white" stop-opacity="0"/>
</linearGradient>
<linearGradient id="paint74_linear_1813_428" x1="300.133" y1="8.51728" x2="163.045" y2="152.5" gradientUnits="userSpaceOnUse">
<stop stop-color="white"/>
<stop offset="1" stop-color="white" stop-opacity="0"/>
</linearGradient>
<linearGradient id="paint75_linear_1813_428" x1="300.133" y1="8.51728" x2="163.045" y2="152.5" gradientUnits="userSpaceOnUse">
<stop stop-color="white"/>
<stop offset="1" stop-color="white" stop-opacity="0"/>
</linearGradient>
<linearGradient id="paint76_linear_1813_428" x1="300.133" y1="8.51728" x2="163.045" y2="152.5" gradientUnits="userSpaceOnUse">
<stop stop-color="white"/>
<stop offset="1" stop-color="white" stop-opacity="0"/>
</linearGradient>
<linearGradient id="paint77_linear_1813_428" x1="300.133" y1="8.51728" x2="163.045" y2="152.5" gradientUnits="userSpaceOnUse">
<stop stop-color="white"/>
<stop offset="1" stop-color="white" stop-opacity="0"/>
</linearGradient>
<linearGradient id="paint78_linear_1813_428" x1="300.133" y1="8.51728" x2="163.045" y2="152.5" gradientUnits="userSpaceOnUse">
<stop stop-color="white"/>
<stop offset="1" stop-color="white" stop-opacity="0"/>
</linearGradient>
<linearGradient id="paint79_linear_1813_428" x1="300.133" y1="8.51728" x2="163.045" y2="152.5" gradientUnits="userSpaceOnUse">
<stop stop-color="white"/>
<stop offset="1" stop-color="white" stop-opacity="0"/>
</linearGradient>
<linearGradient id="paint80_linear_1813_428" x1="300.133" y1="8.51728" x2="163.045" y2="152.5" gradientUnits="userSpaceOnUse">
<stop stop-color="white"/>
<stop offset="1" stop-color="white" stop-opacity="0"/>
</linearGradient>
<linearGradient id="paint81_linear_1813_428" x1="300.133" y1="8.51728" x2="163.045" y2="152.5" gradientUnits="userSpaceOnUse">
<stop stop-color="white"/>
<stop offset="1" stop-color="white" stop-opacity="0"/>
</linearGradient>
<linearGradient id="paint82_linear_1813_428" x1="300.133" y1="8.51728" x2="163.045" y2="152.5" gradientUnits="userSpaceOnUse">
<stop stop-color="white"/>
<stop offset="1" stop-color="white" stop-opacity="0"/>
</linearGradient>
<linearGradient id="paint83_linear_1813_428" x1="300.133" y1="8.51728" x2="163.045" y2="152.5" gradientUnits="userSpaceOnUse">
<stop stop-color="white"/>
<stop offset="1" stop-color="white" stop-opacity="0"/>
</linearGradient>
<linearGradient id="paint84_linear_1813_428" x1="300.133" y1="8.51728" x2="163.045" y2="152.5" gradientUnits="userSpaceOnUse">
<stop stop-color="white"/>
<stop offset="1" stop-color="white" stop-opacity="0"/>
</linearGradient>
<linearGradient id="paint85_linear_1813_428" x1="300.133" y1="8.51728" x2="163.045" y2="152.5" gradientUnits="userSpaceOnUse">
<stop stop-color="white"/>
<stop offset="1" stop-color="white" stop-opacity="0"/>
</linearGradient>
<linearGradient id="paint86_linear_1813_428" x1="300.133" y1="8.51728" x2="163.045" y2="152.5" gradientUnits="userSpaceOnUse">
<stop stop-color="white"/>
<stop offset="1" stop-color="white" stop-opacity="0"/>
</linearGradient>
<linearGradient id="paint87_linear_1813_428" x1="300.133" y1="8.51728" x2="163.045" y2="152.5" gradientUnits="userSpaceOnUse">
<stop stop-color="white"/>
<stop offset="1" stop-color="white" stop-opacity="0"/>
</linearGradient>
<linearGradient id="paint88_linear_1813_428" x1="300.133" y1="8.51728" x2="163.045" y2="152.5" gradientUnits="userSpaceOnUse">
<stop stop-color="white"/>
<stop offset="1" stop-color="white" stop-opacity="0"/>
</linearGradient>
<linearGradient id="paint89_linear_1813_428" x1="300.133" y1="8.51728" x2="163.045" y2="152.5" gradientUnits="userSpaceOnUse">
<stop stop-color="white"/>
<stop offset="1" stop-color="white" stop-opacity="0"/>
</linearGradient>
<linearGradient id="paint90_linear_1813_428" x1="300.133" y1="8.51728" x2="163.045" y2="152.5" gradientUnits="userSpaceOnUse">
<stop stop-color="white"/>
<stop offset="1" stop-color="white" stop-opacity="0"/>
</linearGradient>
<linearGradient id="paint91_linear_1813_428" x1="300.133" y1="8.51728" x2="163.045" y2="152.5" gradientUnits="userSpaceOnUse">
<stop stop-color="white"/>
<stop offset="1" stop-color="white" stop-opacity="0"/>
</linearGradient>
<linearGradient id="paint92_linear_1813_428" x1="300.133" y1="8.51728" x2="163.045" y2="152.5" gradientUnits="userSpaceOnUse">
<stop stop-color="white"/>
<stop offset="1" stop-color="white" stop-opacity="0"/>
</linearGradient>
<linearGradient id="paint93_linear_1813_428" x1="300.133" y1="8.51728" x2="163.045" y2="152.5" gradientUnits="userSpaceOnUse">
<stop stop-color="white"/>
<stop offset="1" stop-color="white" stop-opacity="0"/>
</linearGradient>
<linearGradient id="paint94_linear_1813_428" x1="300.133" y1="8.51728" x2="163.045" y2="152.5" gradientUnits="userSpaceOnUse">
<stop stop-color="white"/>
<stop offset="1" stop-color="white" stop-opacity="0"/>
</linearGradient>
<linearGradient id="paint95_linear_1813_428" x1="300.133" y1="8.51728" x2="163.045" y2="152.5" gradientUnits="userSpaceOnUse">
<stop stop-color="white"/>
<stop offset="1" stop-color="white" stop-opacity="0"/>
</linearGradient>
<linearGradient id="paint96_linear_1813_428" x1="300.133" y1="8.51728" x2="163.045" y2="152.5" gradientUnits="userSpaceOnUse">
<stop stop-color="white"/>
<stop offset="1" stop-color="white" stop-opacity="0"/>
</linearGradient>
<linearGradient id="paint97_linear_1813_428" x1="300.133" y1="8.51728" x2="163.045" y2="152.5" gradientUnits="userSpaceOnUse">
<stop stop-color="white"/>
<stop offset="1" stop-color="white" stop-opacity="0"/>
</linearGradient>
<linearGradient id="paint98_linear_1813_428" x1="300.133" y1="8.51728" x2="163.045" y2="152.5" gradientUnits="userSpaceOnUse">
<stop stop-color="white"/>
<stop offset="1" stop-color="white" stop-opacity="0"/>
</linearGradient>
<linearGradient id="paint99_linear_1813_428" x1="300.133" y1="8.51728" x2="163.045" y2="152.5" gradientUnits="userSpaceOnUse">
<stop stop-color="white"/>
<stop offset="1" stop-color="white" stop-opacity="0"/>
</linearGradient>
<linearGradient id="paint100_linear_1813_428" x1="300.133" y1="8.51728" x2="163.045" y2="152.5" gradientUnits="userSpaceOnUse">
<stop stop-color="white"/>
<stop offset="1" stop-color="white" stop-opacity="0"/>
</linearGradient>
<linearGradient id="paint101_linear_1813_428" x1="300.133" y1="8.51728" x2="163.045" y2="152.5" gradientUnits="userSpaceOnUse">
<stop stop-color="white"/>
<stop offset="1" stop-color="white" stop-opacity="0"/>
</linearGradient>
<linearGradient id="paint102_linear_1813_428" x1="300.133" y1="8.51728" x2="163.045" y2="152.5" gradientUnits="userSpaceOnUse">
<stop stop-color="white"/>
<stop offset="1" stop-color="white" stop-opacity="0"/>
</linearGradient>
<linearGradient id="paint103_linear_1813_428" x1="300.133" y1="8.51728" x2="163.045" y2="152.5" gradientUnits="userSpaceOnUse">
<stop stop-color="white"/>
<stop offset="1" stop-color="white" stop-opacity="0"/>
</linearGradient>
<linearGradient id="paint104_linear_1813_428" x1="300.133" y1="8.51728" x2="163.045" y2="152.5" gradientUnits="userSpaceOnUse">
<stop stop-color="white"/>
<stop offset="1" stop-color="white" stop-opacity="0"/>
</linearGradient>
<linearGradient id="paint105_linear_1813_428" x1="300.133" y1="8.51728" x2="163.045" y2="152.5" gradientUnits="userSpaceOnUse">
<stop stop-color="white"/>
<stop offset="1" stop-color="white" stop-opacity="0"/>
</linearGradient>
<linearGradient id="paint106_linear_1813_428" x1="300.133" y1="8.51728" x2="163.045" y2="152.5" gradientUnits="userSpaceOnUse">
<stop stop-color="white"/>
<stop offset="1" stop-color="white" stop-opacity="0"/>
</linearGradient>
<linearGradient id="paint107_linear_1813_428" x1="300.133" y1="8.51728" x2="163.045" y2="152.5" gradientUnits="userSpaceOnUse">
<stop stop-color="white"/>
<stop offset="1" stop-color="white" stop-opacity="0"/>
</linearGradient>
<linearGradient id="paint108_linear_1813_428" x1="300.133" y1="8.51728" x2="163.045" y2="152.5" gradientUnits="userSpaceOnUse">
<stop stop-color="white"/>
<stop offset="1" stop-color="white" stop-opacity="0"/>
</linearGradient>
<linearGradient id="paint109_linear_1813_428" x1="300.133" y1="8.51728" x2="163.045" y2="152.5" gradientUnits="userSpaceOnUse">
<stop stop-color="white"/>
<stop offset="1" stop-color="white" stop-opacity="0"/>
</linearGradient>
<linearGradient id="paint110_linear_1813_428" x1="300.133" y1="8.51728" x2="163.045" y2="152.5" gradientUnits="userSpaceOnUse">
<stop stop-color="white"/>
<stop offset="1" stop-color="white" stop-opacity="0"/>
</linearGradient>
<linearGradient id="paint111_linear_1813_428" x1="300.133" y1="8.51728" x2="163.045" y2="152.5" gradientUnits="userSpaceOnUse">
<stop stop-color="white"/>
<stop offset="1" stop-color="white" stop-opacity="0"/>
</linearGradient>
<linearGradient id="paint112_linear_1813_428" x1="300.133" y1="8.51728" x2="163.045" y2="152.5" gradientUnits="userSpaceOnUse">
<stop stop-color="white"/>
<stop offset="1" stop-color="white" stop-opacity="0"/>
</linearGradient>
<linearGradient id="paint113_linear_1813_428" x1="300.133" y1="8.51728" x2="163.045" y2="152.5" gradientUnits="userSpaceOnUse">
<stop stop-color="white"/>
<stop offset="1" stop-color="white" stop-opacity="0"/>
</linearGradient>
<linearGradient id="paint114_linear_1813_428" x1="300.133" y1="8.51728" x2="163.045" y2="152.5" gradientUnits="userSpaceOnUse">
<stop stop-color="white"/>
<stop offset="1" stop-color="white" stop-opacity="0"/>
</linearGradient>
<linearGradient id="paint115_linear_1813_428" x1="300.133" y1="8.51728" x2="163.045" y2="152.5" gradientUnits="userSpaceOnUse">
<stop stop-color="white"/>
<stop offset="1" stop-color="white" stop-opacity="0"/>
</linearGradient>
<linearGradient id="paint116_linear_1813_428" x1="300.133" y1="8.51728" x2="163.045" y2="152.5" gradientUnits="userSpaceOnUse">
<stop stop-color="white"/>
<stop offset="1" stop-color="white" stop-opacity="0"/>
</linearGradient>
<linearGradient id="paint117_linear_1813_428" x1="300.133" y1="8.51728" x2="163.045" y2="152.5" gradientUnits="userSpaceOnUse">
<stop stop-color="white"/>
<stop offset="1" stop-color="white" stop-opacity="0"/>
</linearGradient>
<linearGradient id="paint118_linear_1813_428" x1="300.133" y1="8.51728" x2="163.045" y2="152.5" gradientUnits="userSpaceOnUse">
<stop stop-color="white"/>
<stop offset="1" stop-color="white" stop-opacity="0"/>
</linearGradient>
<linearGradient id="paint119_linear_1813_428" x1="300.133" y1="8.51728" x2="163.045" y2="152.5" gradientUnits="userSpaceOnUse">
<stop stop-color="white"/>
<stop offset="1" stop-color="white" stop-opacity="0"/>
</linearGradient>
<linearGradient id="paint120_linear_1813_428" x1="300.133" y1="8.51728" x2="163.045" y2="152.5" gradientUnits="userSpaceOnUse">
<stop stop-color="white"/>
<stop offset="1" stop-color="white" stop-opacity="0"/>
</linearGradient>
<linearGradient id="paint121_linear_1813_428" x1="300.133" y1="8.51728" x2="163.045" y2="152.5" gradientUnits="userSpaceOnUse">
<stop stop-color="white"/>
<stop offset="1" stop-color="white" stop-opacity="0"/>
</linearGradient>
<linearGradient id="paint122_linear_1813_428" x1="300.133" y1="8.51728" x2="163.045" y2="152.5" gradientUnits="userSpaceOnUse">
<stop stop-color="white"/>
<stop offset="1" stop-color="white" stop-opacity="0"/>
</linearGradient>
<linearGradient id="paint123_linear_1813_428" x1="300.133" y1="8.51728" x2="163.045" y2="152.5" gradientUnits="userSpaceOnUse">
<stop stop-color="white"/>
<stop offset="1" stop-color="white" stop-opacity="0"/>
</linearGradient>
<linearGradient id="paint124_linear_1813_428" x1="300.133" y1="8.51728" x2="163.045" y2="152.5" gradientUnits="userSpaceOnUse">
<stop stop-color="white"/>
<stop offset="1" stop-color="white" stop-opacity="0"/>
</linearGradient>
<linearGradient id="paint125_linear_1813_428" x1="300.133" y1="8.51728" x2="163.045" y2="152.5" gradientUnits="userSpaceOnUse">
<stop stop-color="white"/>
<stop offset="1" stop-color="white" stop-opacity="0"/>
</linearGradient>
<linearGradient id="paint126_linear_1813_428" x1="300.133" y1="8.51728" x2="163.045" y2="152.5" gradientUnits="userSpaceOnUse">
<stop stop-color="white"/>
<stop offset="1" stop-color="white" stop-opacity="0"/>
</linearGradient>
<linearGradient id="paint127_linear_1813_428" x1="300.133" y1="8.51728" x2="163.045" y2="152.5" gradientUnits="userSpaceOnUse">
<stop stop-color="white"/>
<stop offset="1" stop-color="white" stop-opacity="0"/>
</linearGradient>
<linearGradient id="paint128_linear_1813_428" x1="300.133" y1="8.51728" x2="163.045" y2="152.5" gradientUnits="userSpaceOnUse">
<stop stop-color="white"/>
<stop offset="1" stop-color="white" stop-opacity="0"/>
</linearGradient>
<linearGradient id="paint129_linear_1813_428" x1="300.133" y1="8.51728" x2="163.045" y2="152.5" gradientUnits="userSpaceOnUse">
<stop stop-color="white"/>
<stop offset="1" stop-color="white" stop-opacity="0"/>
</linearGradient>
<linearGradient id="paint130_linear_1813_428" x1="300.133" y1="8.51728" x2="163.045" y2="152.5" gradientUnits="userSpaceOnUse">
<stop stop-color="white"/>
<stop offset="1" stop-color="white" stop-opacity="0"/>
</linearGradient>
<linearGradient id="paint131_linear_1813_428" x1="300.133" y1="8.51728" x2="163.045" y2="152.5" gradientUnits="userSpaceOnUse">
<stop stop-color="white"/>
<stop offset="1" stop-color="white" stop-opacity="0"/>
</linearGradient>
<linearGradient id="paint132_linear_1813_428" x1="300.133" y1="8.51728" x2="163.045" y2="152.5" gradientUnits="userSpaceOnUse">
<stop stop-color="white"/>
<stop offset="1" stop-color="white" stop-opacity="0"/>
</linearGradient>
<linearGradient id="paint133_linear_1813_428" x1="300.133" y1="8.51728" x2="163.045" y2="152.5" gradientUnits="userSpaceOnUse">
<stop stop-color="white"/>
<stop offset="1" stop-color="white" stop-opacity="0"/>
</linearGradient>
<linearGradient id="paint134_linear_1813_428" x1="300.133" y1="8.51728" x2="163.045" y2="152.5" gradientUnits="userSpaceOnUse">
<stop stop-color="white"/>
<stop offset="1" stop-color="white" stop-opacity="0"/>
</linearGradient>
<linearGradient id="paint135_linear_1813_428" x1="300.133" y1="8.51728" x2="163.045" y2="152.5" gradientUnits="userSpaceOnUse">
<stop stop-color="white"/>
<stop offset="1" stop-color="white" stop-opacity="0"/>
</linearGradient>
<linearGradient id="paint136_linear_1813_428" x1="300.133" y1="8.51728" x2="163.045" y2="152.5" gradientUnits="userSpaceOnUse">
<stop stop-color="white"/>
<stop offset="1" stop-color="white" stop-opacity="0"/>
</linearGradient>
<linearGradient id="paint137_linear_1813_428" x1="300.133" y1="8.51728" x2="163.045" y2="152.5" gradientUnits="userSpaceOnUse">
<stop stop-color="white"/>
<stop offset="1" stop-color="white" stop-opacity="0"/>
</linearGradient>
<linearGradient id="paint138_linear_1813_428" x1="300.133" y1="8.51728" x2="163.045" y2="152.5" gradientUnits="userSpaceOnUse">
<stop stop-color="white"/>
<stop offset="1" stop-color="white" stop-opacity="0"/>
</linearGradient>
<linearGradient id="paint139_linear_1813_428" x1="300.133" y1="8.51728" x2="163.045" y2="152.5" gradientUnits="userSpaceOnUse">
<stop stop-color="white"/>
<stop offset="1" stop-color="white" stop-opacity="0"/>
</linearGradient>
<linearGradient id="paint140_linear_1813_428" x1="300.133" y1="8.51728" x2="163.045" y2="152.5" gradientUnits="userSpaceOnUse">
<stop stop-color="white"/>
<stop offset="1" stop-color="white" stop-opacity="0"/>
</linearGradient>
<linearGradient id="paint141_linear_1813_428" x1="300.133" y1="8.51728" x2="163.045" y2="152.5" gradientUnits="userSpaceOnUse">
<stop stop-color="white"/>
<stop offset="1" stop-color="white" stop-opacity="0"/>
</linearGradient>
<linearGradient id="paint142_linear_1813_428" x1="300.133" y1="8.51728" x2="163.045" y2="152.5" gradientUnits="userSpaceOnUse">
<stop stop-color="white"/>
<stop offset="1" stop-color="white" stop-opacity="0"/>
</linearGradient>
<linearGradient id="paint143_linear_1813_428" x1="300.133" y1="8.51728" x2="163.045" y2="152.5" gradientUnits="userSpaceOnUse">
<stop stop-color="white"/>
<stop offset="1" stop-color="white" stop-opacity="0"/>
</linearGradient>
<linearGradient id="paint144_linear_1813_428" x1="300.133" y1="8.51728" x2="163.045" y2="152.5" gradientUnits="userSpaceOnUse">
<stop stop-color="white"/>
<stop offset="1" stop-color="white" stop-opacity="0"/>
</linearGradient>
<linearGradient id="paint145_linear_1813_428" x1="300.133" y1="8.51728" x2="163.045" y2="152.5" gradientUnits="userSpaceOnUse">
<stop stop-color="white"/>
<stop offset="1" stop-color="white" stop-opacity="0"/>
</linearGradient>
<linearGradient id="paint146_linear_1813_428" x1="300.133" y1="8.51728" x2="163.045" y2="152.5" gradientUnits="userSpaceOnUse">
<stop stop-color="white"/>
<stop offset="1" stop-color="white" stop-opacity="0"/>
</linearGradient>
<linearGradient id="paint147_linear_1813_428" x1="300.133" y1="8.51728" x2="163.045" y2="152.5" gradientUnits="userSpaceOnUse">
<stop stop-color="white"/>
<stop offset="1" stop-color="white" stop-opacity="0"/>
</linearGradient>
<linearGradient id="paint148_linear_1813_428" x1="300.133" y1="8.51728" x2="163.045" y2="152.5" gradientUnits="userSpaceOnUse">
<stop stop-color="white"/>
<stop offset="1" stop-color="white" stop-opacity="0"/>
</linearGradient>
<linearGradient id="paint149_linear_1813_428" x1="300.133" y1="8.51728" x2="163.045" y2="152.5" gradientUnits="userSpaceOnUse">
<stop stop-color="white"/>
<stop offset="1" stop-color="white" stop-opacity="0"/>
</linearGradient>
<linearGradient id="paint150_linear_1813_428" x1="300.133" y1="8.51728" x2="163.045" y2="152.5" gradientUnits="userSpaceOnUse">
<stop stop-color="white"/>
<stop offset="1" stop-color="white" stop-opacity="0"/>
</linearGradient>
<linearGradient id="paint151_linear_1813_428" x1="300.133" y1="8.51728" x2="163.045" y2="152.5" gradientUnits="userSpaceOnUse">
<stop stop-color="white"/>
<stop offset="1" stop-color="white" stop-opacity="0"/>
</linearGradient>
<linearGradient id="paint152_linear_1813_428" x1="300.133" y1="8.51728" x2="163.045" y2="152.5" gradientUnits="userSpaceOnUse">
<stop stop-color="white"/>
<stop offset="1" stop-color="white" stop-opacity="0"/>
</linearGradient>
<linearGradient id="paint153_linear_1813_428" x1="300.133" y1="8.51728" x2="163.045" y2="152.5" gradientUnits="userSpaceOnUse">
<stop stop-color="white"/>
<stop offset="1" stop-color="white" stop-opacity="0"/>
</linearGradient>
<linearGradient id="paint154_linear_1813_428" x1="300.133" y1="8.51728" x2="163.045" y2="152.5" gradientUnits="userSpaceOnUse">
<stop stop-color="white"/>
<stop offset="1" stop-color="white" stop-opacity="0"/>
</linearGradient>
</defs>
</svg>
