<svg width="305" height="305" viewBox="0 0 305 305" fill="none" xmlns="http://www.w3.org/2000/svg">
<g opacity="0.1">
<path fillRule="evenodd" clipRule="evenodd" d="M305 236.693L-2.95295e-06 236.693L-3.01862e-06 235.942L305 235.942L305 236.693Z" fill="url(#paint0_linear_1813_429)"/>
<path fillRule="evenodd" clipRule="evenodd" d="M305 260.521L-1.91139e-06 260.521L-1.97706e-06 259.77L305 259.77L305 260.521Z" fill="url(#paint1_linear_1813_429)"/>
<path fillRule="evenodd" clipRule="evenodd" d="M305 284.349L-8.69833e-07 284.349L-9.35503e-07 283.598L305 283.598L305 284.349Z" fill="url(#paint2_linear_1813_429)"/>
<path fillRule="evenodd" clipRule="evenodd" d="M212.229 -9.27683e-06L212.229 305L211.478 305L211.478 -9.244e-06L212.229 -9.27683e-06Z" fill="url(#paint3_linear_1813_429)"/>
<path fillRule="evenodd" clipRule="evenodd" d="M236.057 -1.03184e-05L236.057 305L235.306 305L235.306 -1.02856e-05L236.057 -1.03184e-05Z" fill="url(#paint4_linear_1813_429)"/>
<path fillRule="evenodd" clipRule="evenodd" d="M259.885 -1.136e-05L259.885 305L259.134 305L259.134 -1.13271e-05L259.885 -1.136e-05Z" fill="url(#paint5_linear_1813_429)"/>
<path fillRule="evenodd" clipRule="evenodd" d="M283.714 -1.24015e-05L283.714 305L282.963 305L282.963 -1.23687e-05L283.714 -1.24015e-05Z" fill="url(#paint6_linear_1813_429)"/>
<path fillRule="evenodd" clipRule="evenodd" d="M305 212.865L-3.99451e-06 212.865L-4.06018e-06 212.114L305 212.114L305 212.865Z" fill="url(#paint7_linear_1813_429)"/>
<path fillRule="evenodd" clipRule="evenodd" d="M188.401 -8.23527e-06L188.401 305L187.65 305L187.65 -8.20244e-06L188.401 -8.23527e-06Z" fill="url(#paint8_linear_1813_429)"/>
<path fillRule="evenodd" clipRule="evenodd" d="M305 189.037L-5.03607e-06 189.037L-5.10174e-06 188.286L305 188.286L305 189.037Z" fill="url(#paint9_linear_1813_429)"/>
<path fillRule="evenodd" clipRule="evenodd" d="M164.573 -7.19371e-06L164.573 305L163.822 305L163.822 -7.16087e-06L164.573 -7.19371e-06Z" fill="url(#paint10_linear_1813_429)"/>
<path fillRule="evenodd" clipRule="evenodd" d="M305 165.209L-6.07764e-06 165.209L-6.1433e-06 164.458L305 164.458L305 165.209Z" fill="url(#paint11_linear_1813_429)"/>
<path fillRule="evenodd" clipRule="evenodd" d="M140.745 -6.15215e-06L140.745 305L139.994 305L139.994 -6.11932e-06L140.745 -6.15215e-06Z" fill="url(#paint12_linear_1813_429)"/>
<path fillRule="evenodd" clipRule="evenodd" d="M305 141.381L-7.1192e-06 141.381L-7.18487e-06 140.629L305 140.629L305 141.381Z" fill="url(#paint13_linear_1813_429)"/>
<path fillRule="evenodd" clipRule="evenodd" d="M116.917 -5.11059e-06L116.917 305L116.166 305L116.165 -5.07776e-06L116.917 -5.11059e-06Z" fill="url(#paint14_linear_1813_429)"/>
<path fillRule="evenodd" clipRule="evenodd" d="M305 117.552L-8.16076e-06 117.552L-8.22643e-06 116.801L305 116.801L305 117.552Z" fill="url(#paint15_linear_1813_429)"/>
<path fillRule="evenodd" clipRule="evenodd" d="M93.0886 -4.06903e-06L93.0886 305L92.3374 305L92.3374 -4.0362e-06L93.0886 -4.06903e-06Z" fill="url(#paint16_linear_1813_429)"/>
<path fillRule="evenodd" clipRule="evenodd" d="M305 93.7243L-9.20232e-06 93.7244L-9.26799e-06 92.9732L305 92.9731L305 93.7243Z" fill="url(#paint17_linear_1813_429)"/>
<path fillRule="evenodd" clipRule="evenodd" d="M69.2604 -3.02747e-06L69.2605 305L68.5093 305L68.5093 -2.99464e-06L69.2604 -3.02747e-06Z" fill="url(#paint18_linear_1813_429)"/>
<path fillRule="evenodd" clipRule="evenodd" d="M305 69.8962L-1.02439e-05 69.8962L-1.03095e-05 69.1451L305 69.145L305 69.8962Z" fill="url(#paint19_linear_1813_429)"/>
<path fillRule="evenodd" clipRule="evenodd" d="M45.4323 -1.98591e-06L45.4323 305L44.6812 305L44.6811 -1.95307e-06L45.4323 -1.98591e-06Z" fill="url(#paint20_linear_1813_429)"/>
<path fillRule="evenodd" clipRule="evenodd" d="M305 46.0681L-1.12854e-05 46.0681L-1.13511e-05 45.3169L305 45.3169L305 46.0681Z" fill="url(#paint21_linear_1813_429)"/>
<path fillRule="evenodd" clipRule="evenodd" d="M21.6042 -9.44349e-07L21.6042 305L20.853 305L20.853 -9.11514e-07L21.6042 -9.44349e-07Z" fill="url(#paint22_linear_1813_429)"/>
<path d="M257.026 69.8961C258.351 69.4059 259.395 68.3614 259.885 67.0367C260.376 68.3614 261.42 69.4059 262.745 69.8961C261.42 70.3862 260.376 71.4307 259.885 72.7554C259.395 71.4307 258.351 70.3862 257.026 69.8961Z" fill="url(#paint23_linear_1813_429)"/>
<path d="M257.026 46.0679C258.351 45.5777 259.395 44.5333 259.885 43.2086C260.376 44.5333 261.42 45.5777 262.745 46.0679C261.42 46.5581 260.376 47.6026 259.885 48.9273C259.395 47.6026 258.351 46.5581 257.026 46.0679Z" fill="url(#paint24_linear_1813_429)"/>
<path d="M257.026 93.7242C258.351 93.234 259.395 92.1895 259.885 90.8648C260.376 92.1895 261.42 93.234 262.745 93.7242C261.42 94.2144 260.376 95.2588 259.885 96.5836C259.395 95.2588 258.351 94.2144 257.026 93.7242Z" fill="url(#paint25_linear_1813_429)"/>
<path d="M257.026 117.552C258.351 117.062 259.395 116.018 259.885 114.693C260.376 116.018 261.42 117.062 262.745 117.552C261.42 118.042 260.376 119.087 259.885 120.412C259.395 119.087 258.351 118.042 257.026 117.552Z" fill="url(#paint26_linear_1813_429)"/>
<path d="M257.026 141.38C258.351 140.89 259.395 139.846 259.885 138.521C260.376 139.846 261.42 140.89 262.745 141.38C261.42 141.871 260.376 142.915 259.885 144.24C259.395 142.915 258.351 141.871 257.026 141.38Z" fill="url(#paint27_linear_1813_429)"/>
<path d="M257.026 165.209C258.351 164.718 259.395 163.674 259.885 162.349C260.376 163.674 261.42 164.718 262.745 165.209C261.42 165.699 260.376 166.743 259.885 168.068C259.395 166.743 258.351 165.699 257.026 165.209Z" fill="url(#paint28_linear_1813_429)"/>
<path d="M257.026 212.865C258.351 212.375 259.395 211.33 259.885 210.005C260.376 211.33 261.42 212.375 262.745 212.865C261.42 213.355 260.376 214.399 259.885 215.724C259.395 214.399 258.351 213.355 257.026 212.865Z" fill="url(#paint29_linear_1813_429)"/>
<path d="M257.026 189.037C258.351 188.546 259.395 187.502 259.885 186.177C260.376 187.502 261.42 188.546 262.745 189.037C261.42 189.527 260.376 190.571 259.885 191.896C259.395 190.571 258.351 189.527 257.026 189.037Z" fill="url(#paint30_linear_1813_429)"/>
<path d="M257.026 236.693C258.351 236.203 259.395 235.158 259.885 233.834C260.376 235.158 261.42 236.203 262.745 236.693C261.42 237.183 260.376 238.228 259.885 239.552C259.395 238.228 258.351 237.183 257.026 236.693Z" fill="url(#paint31_linear_1813_429)"/>
<path d="M257.026 260.521C258.351 260.031 259.395 258.986 259.885 257.662C260.376 258.986 261.42 260.031 262.745 260.521C261.42 261.011 260.376 262.056 259.885 263.38C259.395 262.056 258.351 261.011 257.026 260.521Z" fill="url(#paint32_linear_1813_429)"/>
<path d="M257.026 284.349C258.351 283.859 259.395 282.815 259.885 281.49C260.376 282.815 261.42 283.859 262.745 284.349C261.42 284.84 260.376 285.884 259.885 287.209C259.395 285.884 258.351 284.84 257.026 284.349Z" fill="url(#paint33_linear_1813_429)"/>
<path d="M280.854 69.8961C282.179 69.4059 283.223 68.3614 283.713 67.0367C284.204 68.3614 285.248 69.4059 286.573 69.8961C285.248 70.3862 284.204 71.4307 283.713 72.7554C283.223 71.4307 282.179 70.3862 280.854 69.8961Z" fill="url(#paint34_linear_1813_429)"/>
<path d="M280.854 46.0679C282.179 45.5777 283.223 44.5333 283.713 43.2086C284.204 44.5333 285.248 45.5777 286.573 46.0679C285.248 46.5581 284.204 47.6026 283.713 48.9273C283.223 47.6026 282.179 46.5581 280.854 46.0679Z" fill="url(#paint35_linear_1813_429)"/>
<path d="M280.854 93.7242C282.179 93.234 283.223 92.1895 283.713 90.8648C284.204 92.1895 285.248 93.234 286.573 93.7242C285.248 94.2144 284.204 95.2588 283.713 96.5836C283.223 95.2588 282.179 94.2144 280.854 93.7242Z" fill="url(#paint36_linear_1813_429)"/>
<path d="M280.854 117.552C282.179 117.062 283.223 116.018 283.713 114.693C284.204 116.018 285.248 117.062 286.573 117.552C285.248 118.042 284.204 119.087 283.713 120.412C283.223 119.087 282.179 118.042 280.854 117.552Z" fill="url(#paint37_linear_1813_429)"/>
<path d="M280.854 141.38C282.179 140.89 283.223 139.846 283.713 138.521C284.204 139.846 285.248 140.89 286.573 141.38C285.248 141.871 284.204 142.915 283.713 144.24C283.223 142.915 282.179 141.871 280.854 141.38Z" fill="url(#paint38_linear_1813_429)"/>
<path d="M280.854 165.209C282.179 164.718 283.223 163.674 283.713 162.349C284.204 163.674 285.248 164.718 286.573 165.209C285.248 165.699 284.204 166.743 283.713 168.068C283.223 166.743 282.179 165.699 280.854 165.209Z" fill="url(#paint39_linear_1813_429)"/>
<path d="M280.854 212.865C282.179 212.375 283.223 211.33 283.713 210.005C284.204 211.33 285.248 212.375 286.573 212.865C285.248 213.355 284.204 214.399 283.713 215.724C283.223 214.399 282.179 213.355 280.854 212.865Z" fill="url(#paint40_linear_1813_429)"/>
<path d="M280.854 189.037C282.179 188.546 283.223 187.502 283.713 186.177C284.204 187.502 285.248 188.546 286.573 189.037C285.248 189.527 284.204 190.571 283.713 191.896C283.223 190.571 282.179 189.527 280.854 189.037Z" fill="url(#paint41_linear_1813_429)"/>
<path d="M280.854 236.693C282.179 236.203 283.223 235.158 283.713 233.834C284.204 235.158 285.248 236.203 286.573 236.693C285.248 237.183 284.204 238.228 283.713 239.552C283.223 238.228 282.179 237.183 280.854 236.693Z" fill="url(#paint42_linear_1813_429)"/>
<path d="M280.854 260.521C282.179 260.031 283.223 258.986 283.713 257.662C284.204 258.986 285.248 260.031 286.573 260.521C285.248 261.011 284.204 262.056 283.713 263.38C283.223 262.056 282.179 261.011 280.854 260.521Z" fill="url(#paint43_linear_1813_429)"/>
<path d="M280.854 284.349C282.179 283.859 283.223 282.815 283.713 281.49C284.204 282.815 285.248 283.859 286.573 284.349C285.248 284.84 284.204 285.884 283.713 287.209C283.223 285.884 282.179 284.84 280.854 284.349Z" fill="url(#paint44_linear_1813_429)"/>
<path d="M233.198 69.8961C234.523 69.4059 235.567 68.3614 236.057 67.0367C236.547 68.3614 237.592 69.4059 238.917 69.8961C237.592 70.3863 236.547 71.4307 236.057 72.7554C235.567 71.4307 234.523 70.3863 233.198 69.8961Z" fill="url(#paint45_linear_1813_429)"/>
<path d="M233.198 46.0679C234.523 45.5777 235.567 44.5333 236.057 43.2086C236.547 44.5333 237.592 45.5777 238.917 46.0679C237.592 46.5581 236.547 47.6026 236.057 48.9273C235.567 47.6026 234.523 46.5581 233.198 46.0679Z" fill="url(#paint46_linear_1813_429)"/>
<path d="M233.198 93.7242C234.523 93.234 235.567 92.1895 236.057 90.8648C236.547 92.1895 237.592 93.234 238.917 93.7242C237.592 94.2144 236.547 95.2588 236.057 96.5836C235.567 95.2588 234.523 94.2144 233.198 93.7242Z" fill="url(#paint47_linear_1813_429)"/>
<path d="M233.198 117.552C234.523 117.062 235.567 116.018 236.057 114.693C236.547 116.018 237.592 117.062 238.917 117.552C237.592 118.043 236.547 119.087 236.057 120.412C235.567 119.087 234.523 118.043 233.198 117.552Z" fill="url(#paint48_linear_1813_429)"/>
<path d="M233.198 141.38C234.523 140.89 235.567 139.846 236.057 138.521C236.547 139.846 237.592 140.89 238.917 141.38C237.592 141.871 236.547 142.915 236.057 144.24C235.567 142.915 234.523 141.871 233.198 141.38Z" fill="url(#paint49_linear_1813_429)"/>
<path d="M233.198 165.209C234.523 164.718 235.567 163.674 236.057 162.349C236.547 163.674 237.592 164.718 238.917 165.209C237.592 165.699 236.547 166.743 236.057 168.068C235.567 166.743 234.523 165.699 233.198 165.209Z" fill="url(#paint50_linear_1813_429)"/>
<path d="M233.198 212.865C234.523 212.375 235.567 211.33 236.057 210.005C236.547 211.33 237.592 212.375 238.917 212.865C237.592 213.355 236.547 214.399 236.057 215.724C235.567 214.399 234.523 213.355 233.198 212.865Z" fill="url(#paint51_linear_1813_429)"/>
<path d="M233.198 189.037C234.523 188.546 235.567 187.502 236.057 186.177C236.547 187.502 237.592 188.546 238.917 189.037C237.592 189.527 236.547 190.571 236.057 191.896C235.567 190.571 234.523 189.527 233.198 189.037Z" fill="url(#paint52_linear_1813_429)"/>
<path d="M233.198 236.693C234.523 236.203 235.567 235.158 236.057 233.834C236.547 235.158 237.592 236.203 238.917 236.693C237.592 237.183 236.547 238.228 236.057 239.552C235.567 238.228 234.523 237.183 233.198 236.693Z" fill="url(#paint53_linear_1813_429)"/>
<path d="M233.198 260.521C234.523 260.031 235.567 258.986 236.057 257.662C236.547 258.986 237.592 260.031 238.917 260.521C237.592 261.011 236.547 262.056 236.057 263.38C235.567 262.056 234.523 261.011 233.198 260.521Z" fill="url(#paint54_linear_1813_429)"/>
<path d="M233.198 284.349C234.523 283.859 235.567 282.815 236.057 281.49C236.547 282.815 237.592 283.859 238.917 284.349C237.592 284.84 236.547 285.884 236.057 287.209C235.567 285.884 234.523 284.84 233.198 284.349Z" fill="url(#paint55_linear_1813_429)"/>
<path d="M209.37 69.8961C210.694 69.4059 211.739 68.3614 212.229 67.0367C212.719 68.3614 213.764 69.4059 215.088 69.8961C213.764 70.3863 212.719 71.4307 212.229 72.7554C211.739 71.4307 210.694 70.3863 209.37 69.8961Z" fill="url(#paint56_linear_1813_429)"/>
<path d="M209.37 46.0679C210.694 45.5777 211.739 44.5333 212.229 43.2086C212.719 44.5333 213.764 45.5777 215.088 46.0679C213.764 46.5581 212.719 47.6026 212.229 48.9273C211.739 47.6026 210.694 46.5581 209.37 46.0679Z" fill="url(#paint57_linear_1813_429)"/>
<path d="M209.37 93.7242C210.694 93.234 211.739 92.1895 212.229 90.8648C212.719 92.1895 213.764 93.234 215.088 93.7242C213.764 94.2144 212.719 95.2588 212.229 96.5836C211.739 95.2588 210.694 94.2144 209.37 93.7242Z" fill="url(#paint58_linear_1813_429)"/>
<path d="M209.37 117.552C210.694 117.062 211.739 116.018 212.229 114.693C212.719 116.018 213.764 117.062 215.088 117.552C213.764 118.043 212.719 119.087 212.229 120.412C211.739 119.087 210.694 118.043 209.37 117.552Z" fill="url(#paint59_linear_1813_429)"/>
<path d="M209.37 141.38C210.694 140.89 211.739 139.846 212.229 138.521C212.719 139.846 213.764 140.89 215.088 141.38C213.764 141.871 212.719 142.915 212.229 144.24C211.739 142.915 210.694 141.871 209.37 141.38Z" fill="url(#paint60_linear_1813_429)"/>
<path d="M209.37 165.209C210.694 164.718 211.739 163.674 212.229 162.349C212.719 163.674 213.764 164.718 215.088 165.209C213.764 165.699 212.719 166.743 212.229 168.068C211.739 166.743 210.694 165.699 209.37 165.209Z" fill="url(#paint61_linear_1813_429)"/>
<path d="M209.37 212.865C210.694 212.375 211.739 211.33 212.229 210.005C212.719 211.33 213.764 212.375 215.088 212.865C213.764 213.355 212.719 214.399 212.229 215.724C211.739 214.399 210.694 213.355 209.37 212.865Z" fill="url(#paint62_linear_1813_429)"/>
<path d="M209.37 189.037C210.694 188.546 211.739 187.502 212.229 186.177C212.719 187.502 213.764 188.546 215.088 189.037C213.764 189.527 212.719 190.571 212.229 191.896C211.739 190.571 210.694 189.527 209.37 189.037Z" fill="url(#paint63_linear_1813_429)"/>
<path d="M209.37 236.693C210.694 236.203 211.739 235.158 212.229 233.834C212.719 235.158 213.764 236.203 215.088 236.693C213.764 237.183 212.719 238.228 212.229 239.552C211.739 238.228 210.694 237.183 209.37 236.693Z" fill="url(#paint64_linear_1813_429)"/>
<path d="M209.37 260.521C210.694 260.031 211.739 258.986 212.229 257.662C212.719 258.986 213.764 260.031 215.088 260.521C213.764 261.011 212.719 262.056 212.229 263.38C211.739 262.056 210.694 261.011 209.37 260.521Z" fill="url(#paint65_linear_1813_429)"/>
<path d="M209.37 284.349C210.694 283.859 211.739 282.815 212.229 281.49C212.719 282.815 213.764 283.859 215.088 284.349C213.764 284.84 212.719 285.884 212.229 287.209C211.739 285.884 210.694 284.84 209.37 284.349Z" fill="url(#paint66_linear_1813_429)"/>
<path d="M185.542 69.8961C186.866 69.4059 187.911 68.3614 188.401 67.0367C188.891 68.3614 189.936 69.4059 191.26 69.8961C189.936 70.3863 188.891 71.4307 188.401 72.7554C187.911 71.4307 186.866 70.3863 185.542 69.8961Z" fill="url(#paint67_linear_1813_429)"/>
<path d="M185.542 46.0679C186.866 45.5778 187.911 44.5333 188.401 43.2086C188.891 44.5333 189.936 45.5778 191.26 46.0679C189.936 46.5581 188.891 47.6026 188.401 48.9273C187.911 47.6026 186.866 46.5581 185.542 46.0679Z" fill="url(#paint68_linear_1813_429)"/>
<path d="M185.542 93.7242C186.866 93.234 187.911 92.1895 188.401 90.8648C188.891 92.1895 189.936 93.234 191.26 93.7242C189.936 94.2144 188.891 95.2588 188.401 96.5836C187.911 95.2588 186.866 94.2144 185.542 93.7242Z" fill="url(#paint69_linear_1813_429)"/>
<path d="M185.542 117.552C186.866 117.062 187.911 116.018 188.401 114.693C188.891 116.018 189.936 117.062 191.26 117.552C189.936 118.043 188.891 119.087 188.401 120.412C187.911 119.087 186.866 118.043 185.542 117.552Z" fill="url(#paint70_linear_1813_429)"/>
<path d="M185.542 141.38C186.866 140.89 187.911 139.846 188.401 138.521C188.891 139.846 189.936 140.89 191.26 141.38C189.936 141.871 188.891 142.915 188.401 144.24C187.911 142.915 186.866 141.871 185.542 141.38Z" fill="url(#paint71_linear_1813_429)"/>
<path d="M185.542 165.209C186.866 164.718 187.911 163.674 188.401 162.349C188.891 163.674 189.936 164.718 191.26 165.209C189.936 165.699 188.891 166.743 188.401 168.068C187.911 166.743 186.866 165.699 185.542 165.209Z" fill="url(#paint72_linear_1813_429)"/>
<path d="M185.542 212.865C186.866 212.375 187.911 211.33 188.401 210.005C188.891 211.33 189.936 212.375 191.26 212.865C189.936 213.355 188.891 214.399 188.401 215.724C187.911 214.399 186.866 213.355 185.542 212.865Z" fill="url(#paint73_linear_1813_429)"/>
<path d="M185.542 189.037C186.866 188.547 187.911 187.502 188.401 186.177C188.891 187.502 189.936 188.547 191.26 189.037C189.936 189.527 188.891 190.571 188.401 191.896C187.911 190.571 186.866 189.527 185.542 189.037Z" fill="url(#paint74_linear_1813_429)"/>
<path d="M185.542 236.693C186.866 236.203 187.911 235.158 188.401 233.834C188.891 235.158 189.936 236.203 191.26 236.693C189.936 237.183 188.891 238.228 188.401 239.552C187.911 238.228 186.866 237.183 185.542 236.693Z" fill="url(#paint75_linear_1813_429)"/>
<path d="M185.542 260.521C186.866 260.031 187.911 258.986 188.401 257.662C188.891 258.986 189.936 260.031 191.26 260.521C189.936 261.011 188.891 262.056 188.401 263.38C187.911 262.056 186.866 261.011 185.542 260.521Z" fill="url(#paint76_linear_1813_429)"/>
<path d="M185.542 284.349C186.866 283.859 187.911 282.815 188.401 281.49C188.891 282.815 189.936 283.859 191.26 284.349C189.936 284.84 188.891 285.884 188.401 287.209C187.911 285.884 186.866 284.84 185.542 284.349Z" fill="url(#paint77_linear_1813_429)"/>
<path d="M161.713 69.8961C163.038 69.4059 164.083 68.3614 164.573 67.0367C165.063 68.3614 166.107 69.4059 167.432 69.8961C166.107 70.3863 165.063 71.4307 164.573 72.7554C164.083 71.4307 163.038 70.3863 161.713 69.8961Z" fill="url(#paint78_linear_1813_429)"/>
<path d="M161.713 46.0679C163.038 45.5778 164.083 44.5333 164.573 43.2086C165.063 44.5333 166.107 45.5778 167.432 46.0679C166.107 46.5581 165.063 47.6026 164.573 48.9273C164.083 47.6026 163.038 46.5581 161.713 46.0679Z" fill="url(#paint79_linear_1813_429)"/>
<path d="M161.713 93.7242C163.038 93.234 164.083 92.1895 164.573 90.8648C165.063 92.1895 166.107 93.234 167.432 93.7242C166.107 94.2144 165.063 95.2588 164.573 96.5836C164.083 95.2588 163.038 94.2144 161.713 93.7242Z" fill="url(#paint80_linear_1813_429)"/>
<path d="M161.713 117.552C163.038 117.062 164.083 116.018 164.573 114.693C165.063 116.018 166.107 117.062 167.432 117.552C166.107 118.043 165.063 119.087 164.573 120.412C164.083 119.087 163.038 118.043 161.713 117.552Z" fill="url(#paint81_linear_1813_429)"/>
<path d="M161.713 141.38C163.038 140.89 164.083 139.846 164.573 138.521C165.063 139.846 166.107 140.89 167.432 141.38C166.107 141.871 165.063 142.915 164.573 144.24C164.083 142.915 163.038 141.871 161.713 141.38Z" fill="url(#paint82_linear_1813_429)"/>
<path d="M161.713 165.209C163.038 164.718 164.083 163.674 164.573 162.349C165.063 163.674 166.107 164.718 167.432 165.209C166.107 165.699 165.063 166.743 164.573 168.068C164.083 166.743 163.038 165.699 161.713 165.209Z" fill="url(#paint83_linear_1813_429)"/>
<path d="M161.713 212.865C163.038 212.375 164.083 211.33 164.573 210.005C165.063 211.33 166.107 212.375 167.432 212.865C166.107 213.355 165.063 214.399 164.573 215.724C164.083 214.399 163.038 213.355 161.713 212.865Z" fill="url(#paint84_linear_1813_429)"/>
<path d="M161.713 189.037C163.038 188.547 164.083 187.502 164.573 186.177C165.063 187.502 166.107 188.547 167.432 189.037C166.107 189.527 165.063 190.571 164.573 191.896C164.083 190.571 163.038 189.527 161.713 189.037Z" fill="url(#paint85_linear_1813_429)"/>
<path d="M161.713 236.693C163.038 236.203 164.083 235.158 164.573 233.834C165.063 235.158 166.107 236.203 167.432 236.693C166.107 237.183 165.063 238.228 164.573 239.552C164.083 238.228 163.038 237.183 161.713 236.693Z" fill="url(#paint86_linear_1813_429)"/>
<path d="M161.713 260.521C163.038 260.031 164.083 258.986 164.573 257.662C165.063 258.986 166.107 260.031 167.432 260.521C166.107 261.011 165.063 262.056 164.573 263.38C164.083 262.056 163.038 261.011 161.713 260.521Z" fill="url(#paint87_linear_1813_429)"/>
<path d="M161.713 284.349C163.038 283.859 164.083 282.815 164.573 281.49C165.063 282.815 166.107 283.859 167.432 284.349C166.107 284.84 165.063 285.884 164.573 287.209C164.083 285.884 163.038 284.84 161.713 284.349Z" fill="url(#paint88_linear_1813_429)"/>
<path d="M137.885 69.8961C139.21 69.4059 140.255 68.3614 140.745 67.0367C141.235 68.3614 142.279 69.4059 143.604 69.8961C142.279 70.3863 141.235 71.4307 140.745 72.7554C140.255 71.4307 139.21 70.3863 137.885 69.8961Z" fill="url(#paint89_linear_1813_429)"/>
<path d="M137.885 46.0679C139.21 45.5778 140.255 44.5333 140.745 43.2086C141.235 44.5333 142.279 45.5778 143.604 46.0679C142.279 46.5581 141.235 47.6026 140.745 48.9273C140.255 47.6026 139.21 46.5581 137.885 46.0679Z" fill="url(#paint90_linear_1813_429)"/>
<path d="M137.885 93.7242C139.21 93.234 140.255 92.1895 140.745 90.8648C141.235 92.1895 142.279 93.234 143.604 93.7242C142.279 94.2144 141.235 95.2588 140.745 96.5836C140.255 95.2588 139.21 94.2144 137.885 93.7242Z" fill="url(#paint91_linear_1813_429)"/>
<path d="M137.885 117.552C139.21 117.062 140.255 116.018 140.745 114.693C141.235 116.018 142.279 117.062 143.604 117.552C142.279 118.043 141.235 119.087 140.745 120.412C140.255 119.087 139.21 118.043 137.885 117.552Z" fill="url(#paint92_linear_1813_429)"/>
<path d="M137.885 141.38C139.21 140.89 140.255 139.846 140.745 138.521C141.235 139.846 142.279 140.89 143.604 141.38C142.279 141.871 141.235 142.915 140.745 144.24C140.255 142.915 139.21 141.871 137.885 141.38Z" fill="url(#paint93_linear_1813_429)"/>
<path d="M137.885 165.209C139.21 164.718 140.255 163.674 140.745 162.349C141.235 163.674 142.279 164.718 143.604 165.209C142.279 165.699 141.235 166.743 140.745 168.068C140.255 166.743 139.21 165.699 137.885 165.209Z" fill="url(#paint94_linear_1813_429)"/>
<path d="M137.885 212.865C139.21 212.375 140.255 211.33 140.745 210.005C141.235 211.33 142.279 212.375 143.604 212.865C142.279 213.355 141.235 214.399 140.745 215.724C140.255 214.399 139.21 213.355 137.885 212.865Z" fill="url(#paint95_linear_1813_429)"/>
<path d="M137.885 189.037C139.21 188.547 140.255 187.502 140.745 186.177C141.235 187.502 142.279 188.547 143.604 189.037C142.279 189.527 141.235 190.571 140.745 191.896C140.255 190.571 139.21 189.527 137.885 189.037Z" fill="url(#paint96_linear_1813_429)"/>
<path d="M137.885 236.693C139.21 236.203 140.255 235.158 140.745 233.834C141.235 235.158 142.279 236.203 143.604 236.693C142.279 237.183 141.235 238.228 140.745 239.552C140.255 238.228 139.21 237.183 137.885 236.693Z" fill="url(#paint97_linear_1813_429)"/>
<path d="M137.885 260.521C139.21 260.031 140.255 258.986 140.745 257.662C141.235 258.986 142.279 260.031 143.604 260.521C142.279 261.011 141.235 262.056 140.745 263.38C140.255 262.056 139.21 261.011 137.885 260.521Z" fill="url(#paint98_linear_1813_429)"/>
<path d="M137.885 284.349C139.21 283.859 140.254 282.815 140.745 281.49C141.235 282.815 142.279 283.859 143.604 284.349C142.279 284.84 141.235 285.884 140.745 287.209C140.254 285.884 139.21 284.84 137.885 284.349Z" fill="url(#paint99_linear_1813_429)"/>
<path d="M114.057 69.8961C115.382 69.4059 116.426 68.3614 116.917 67.0367C117.407 68.3614 118.451 69.4059 119.776 69.8961C118.451 70.3863 117.407 71.4307 116.917 72.7554C116.426 71.4307 115.382 70.3863 114.057 69.8961Z" fill="url(#paint100_linear_1813_429)"/>
<path d="M114.057 46.0679C115.382 45.5778 116.426 44.5333 116.917 43.2086C117.407 44.5333 118.451 45.5778 119.776 46.0679C118.451 46.5581 117.407 47.6026 116.917 48.9273C116.426 47.6026 115.382 46.5581 114.057 46.0679Z" fill="url(#paint101_linear_1813_429)"/>
<path d="M114.057 93.7242C115.382 93.234 116.426 92.1895 116.917 90.8648C117.407 92.1895 118.451 93.234 119.776 93.7242C118.451 94.2144 117.407 95.2588 116.917 96.5836C116.426 95.2588 115.382 94.2144 114.057 93.7242Z" fill="url(#paint102_linear_1813_429)"/>
<path d="M114.057 117.552C115.382 117.062 116.426 116.018 116.917 114.693C117.407 116.018 118.451 117.062 119.776 117.552C118.451 118.043 117.407 119.087 116.917 120.412C116.426 119.087 115.382 118.043 114.057 117.552Z" fill="url(#paint103_linear_1813_429)"/>
<path d="M114.057 141.38C115.382 140.89 116.426 139.846 116.917 138.521C117.407 139.846 118.451 140.89 119.776 141.38C118.451 141.871 117.407 142.915 116.917 144.24C116.426 142.915 115.382 141.871 114.057 141.38Z" fill="url(#paint104_linear_1813_429)"/>
<path d="M114.057 165.209C115.382 164.718 116.426 163.674 116.917 162.349C117.407 163.674 118.451 164.718 119.776 165.209C118.451 165.699 117.407 166.743 116.917 168.068C116.426 166.743 115.382 165.699 114.057 165.209Z" fill="url(#paint105_linear_1813_429)"/>
<path d="M114.057 212.865C115.382 212.375 116.426 211.33 116.917 210.005C117.407 211.33 118.451 212.375 119.776 212.865C118.451 213.355 117.407 214.399 116.917 215.724C116.426 214.399 115.382 213.355 114.057 212.865Z" fill="url(#paint106_linear_1813_429)"/>
<path d="M114.057 189.037C115.382 188.547 116.426 187.502 116.917 186.177C117.407 187.502 118.451 188.547 119.776 189.037C118.451 189.527 117.407 190.571 116.917 191.896C116.426 190.571 115.382 189.527 114.057 189.037Z" fill="url(#paint107_linear_1813_429)"/>
<path d="M114.057 236.693C115.382 236.203 116.426 235.158 116.917 233.834C117.407 235.158 118.451 236.203 119.776 236.693C118.451 237.183 117.407 238.228 116.917 239.552C116.426 238.228 115.382 237.183 114.057 236.693Z" fill="url(#paint108_linear_1813_429)"/>
<path d="M114.057 260.521C115.382 260.031 116.426 258.986 116.917 257.662C117.407 258.986 118.451 260.031 119.776 260.521C118.451 261.011 117.407 262.056 116.917 263.38C116.426 262.056 115.382 261.011 114.057 260.521Z" fill="url(#paint109_linear_1813_429)"/>
<path d="M114.057 284.349C115.382 283.859 116.426 282.815 116.917 281.49C117.407 282.815 118.451 283.859 119.776 284.349C118.451 284.84 117.407 285.884 116.917 287.209C116.426 285.884 115.382 284.84 114.057 284.349Z" fill="url(#paint110_linear_1813_429)"/>
<path d="M90.2291 69.8961C91.5538 69.4059 92.5983 68.3614 93.0885 67.0367C93.5787 68.3614 94.6231 69.4059 95.9479 69.8961C94.6231 70.3863 93.5787 71.4307 93.0885 72.7554C92.5983 71.4307 91.5538 70.3863 90.2291 69.8961Z" fill="url(#paint111_linear_1813_429)"/>
<path d="M90.2291 46.0679C91.5538 45.5778 92.5983 44.5333 93.0885 43.2086C93.5787 44.5333 94.6231 45.5778 95.9478 46.0679C94.6231 46.5581 93.5787 47.6026 93.0885 48.9273C92.5983 47.6026 91.5538 46.5581 90.2291 46.0679Z" fill="url(#paint112_linear_1813_429)"/>
<path d="M90.2291 93.7242C91.5538 93.234 92.5983 92.1895 93.0885 90.8648C93.5787 92.1895 94.6231 93.234 95.9479 93.7242C94.6231 94.2144 93.5787 95.2588 93.0885 96.5836C92.5983 95.2588 91.5538 94.2144 90.2291 93.7242Z" fill="url(#paint113_linear_1813_429)"/>
<path d="M90.2291 117.552C91.5538 117.062 92.5983 116.018 93.0885 114.693C93.5787 116.018 94.6231 117.062 95.9479 117.552C94.6231 118.043 93.5787 119.087 93.0885 120.412C92.5983 119.087 91.5538 118.043 90.2291 117.552Z" fill="url(#paint114_linear_1813_429)"/>
<path d="M90.2291 141.38C91.5538 140.89 92.5983 139.846 93.0885 138.521C93.5787 139.846 94.6231 140.89 95.9479 141.38C94.6231 141.871 93.5787 142.915 93.0885 144.24C92.5983 142.915 91.5538 141.871 90.2291 141.38Z" fill="url(#paint115_linear_1813_429)"/>
<path d="M90.2291 165.209C91.5538 164.718 92.5983 163.674 93.0885 162.349C93.5787 163.674 94.6231 164.718 95.9479 165.209C94.6231 165.699 93.5787 166.743 93.0885 168.068C92.5983 166.743 91.5538 165.699 90.2291 165.209Z" fill="url(#paint116_linear_1813_429)"/>
<path d="M90.2291 212.865C91.5538 212.375 92.5983 211.33 93.0885 210.005C93.5787 211.33 94.6231 212.375 95.9479 212.865C94.6231 213.355 93.5787 214.399 93.0885 215.724C92.5983 214.399 91.5538 213.355 90.2291 212.865Z" fill="url(#paint117_linear_1813_429)"/>
<path d="M90.2291 189.037C91.5538 188.547 92.5983 187.502 93.0885 186.177C93.5787 187.502 94.6231 188.547 95.9479 189.037C94.6231 189.527 93.5787 190.571 93.0885 191.896C92.5983 190.571 91.5538 189.527 90.2291 189.037Z" fill="url(#paint118_linear_1813_429)"/>
<path d="M90.2291 236.693C91.5538 236.203 92.5983 235.158 93.0885 233.834C93.5787 235.158 94.6231 236.203 95.9479 236.693C94.6231 237.183 93.5787 238.228 93.0885 239.552C92.5983 238.228 91.5538 237.183 90.2291 236.693Z" fill="url(#paint119_linear_1813_429)"/>
<path d="M90.2291 260.521C91.5538 260.031 92.5983 258.986 93.0885 257.662C93.5787 258.986 94.6231 260.031 95.9479 260.521C94.6231 261.011 93.5787 262.056 93.0885 263.38C92.5983 262.056 91.5538 261.011 90.2291 260.521Z" fill="url(#paint120_linear_1813_429)"/>
<path d="M90.2291 284.349C91.5538 283.859 92.5983 282.815 93.0884 281.49C93.5786 282.815 94.6231 283.859 95.9478 284.349C94.6231 284.84 93.5786 285.884 93.0884 287.209C92.5983 285.884 91.5538 284.84 90.2291 284.349Z" fill="url(#paint121_linear_1813_429)"/>
<path d="M66.401 69.8961C67.7257 69.4059 68.7702 68.3614 69.2604 67.0367C69.7505 68.3614 70.795 69.4059 72.1197 69.8961C70.795 70.3863 69.7505 71.4307 69.2604 72.7554C68.7702 71.4307 67.7257 70.3863 66.401 69.8961Z" fill="url(#paint122_linear_1813_429)"/>
<path d="M66.401 46.0679C67.7257 45.5778 68.7702 44.5333 69.2603 43.2086C69.7505 44.5333 70.795 45.5778 72.1197 46.0679C70.795 46.5581 69.7505 47.6026 69.2603 48.9273C68.7702 47.6026 67.7257 46.5581 66.401 46.0679Z" fill="url(#paint123_linear_1813_429)"/>
<path d="M66.401 93.7242C67.7257 93.234 68.7702 92.1895 69.2604 90.8648C69.7505 92.1895 70.795 93.234 72.1197 93.7242C70.795 94.2144 69.7505 95.2588 69.2604 96.5836C68.7702 95.2588 67.7257 94.2144 66.401 93.7242Z" fill="url(#paint124_linear_1813_429)"/>
<path d="M66.401 117.552C67.7257 117.062 68.7702 116.018 69.2604 114.693C69.7505 116.018 70.795 117.062 72.1197 117.552C70.795 118.043 69.7505 119.087 69.2604 120.412C68.7702 119.087 67.7257 118.043 66.401 117.552Z" fill="url(#paint125_linear_1813_429)"/>
<path d="M66.401 141.38C67.7257 140.89 68.7702 139.846 69.2604 138.521C69.7505 139.846 70.795 140.89 72.1197 141.38C70.795 141.871 69.7505 142.915 69.2604 144.24C68.7702 142.915 67.7257 141.871 66.401 141.38Z" fill="url(#paint126_linear_1813_429)"/>
<path d="M66.401 165.209C67.7257 164.718 68.7702 163.674 69.2604 162.349C69.7505 163.674 70.795 164.718 72.1197 165.209C70.795 165.699 69.7505 166.743 69.2604 168.068C68.7702 166.743 67.7257 165.699 66.401 165.209Z" fill="url(#paint127_linear_1813_429)"/>
<path d="M66.401 212.865C67.7257 212.375 68.7702 211.33 69.2604 210.005C69.7505 211.33 70.795 212.375 72.1197 212.865C70.795 213.355 69.7505 214.399 69.2604 215.724C68.7702 214.399 67.7257 213.355 66.401 212.865Z" fill="url(#paint128_linear_1813_429)"/>
<path d="M66.401 189.037C67.7257 188.547 68.7702 187.502 69.2604 186.177C69.7505 187.502 70.795 188.547 72.1197 189.037C70.795 189.527 69.7505 190.571 69.2604 191.896C68.7702 190.571 67.7257 189.527 66.401 189.037Z" fill="url(#paint129_linear_1813_429)"/>
<path d="M66.401 236.693C67.7257 236.203 68.7702 235.158 69.2604 233.834C69.7505 235.158 70.795 236.203 72.1197 236.693C70.795 237.183 69.7505 238.228 69.2604 239.552C68.7702 238.228 67.7257 237.183 66.401 236.693Z" fill="url(#paint130_linear_1813_429)"/>
<path d="M66.401 260.521C67.7257 260.031 68.7702 258.986 69.2604 257.662C69.7505 258.986 70.795 260.031 72.1197 260.521C70.795 261.011 69.7505 262.056 69.2604 263.38C68.7702 262.056 67.7257 261.011 66.401 260.521Z" fill="url(#paint131_linear_1813_429)"/>
<path d="M66.4009 284.349C67.7257 283.859 68.7701 282.815 69.2603 281.49C69.7505 282.815 70.795 283.859 72.1197 284.349C70.795 284.84 69.7505 285.884 69.2603 287.209C68.7701 285.884 67.7257 284.84 66.4009 284.349Z" fill="url(#paint132_linear_1813_429)"/>
<path d="M42.5728 69.8961C43.8976 69.4059 44.942 68.3614 45.4322 67.0367C45.9224 68.3614 46.9669 69.4059 48.2916 69.8961C46.9669 70.3863 45.9224 71.4307 45.4322 72.7554C44.942 71.4307 43.8976 70.3863 42.5728 69.8961Z" fill="url(#paint133_linear_1813_429)"/>
<path d="M42.5728 46.0679C43.8976 45.5778 44.942 44.5333 45.4322 43.2086C45.9224 44.5333 46.9669 45.5778 48.2916 46.0679C46.9669 46.5581 45.9224 47.6026 45.4322 48.9273C44.942 47.6026 43.8976 46.5581 42.5728 46.0679Z" fill="url(#paint134_linear_1813_429)"/>
<path d="M42.5728 93.7242C43.8976 93.234 44.942 92.1895 45.4322 90.8648C45.9224 92.1895 46.9669 93.234 48.2916 93.7242C46.9669 94.2144 45.9224 95.2588 45.4322 96.5836C44.942 95.2588 43.8976 94.2144 42.5728 93.7242Z" fill="url(#paint135_linear_1813_429)"/>
<path d="M42.5728 117.552C43.8976 117.062 44.942 116.018 45.4322 114.693C45.9224 116.018 46.9669 117.062 48.2916 117.552C46.9669 118.043 45.9224 119.087 45.4322 120.412C44.942 119.087 43.8976 118.043 42.5728 117.552Z" fill="url(#paint136_linear_1813_429)"/>
<path d="M42.5728 141.38C43.8976 140.89 44.942 139.846 45.4322 138.521C45.9224 139.846 46.9669 140.89 48.2916 141.38C46.9669 141.871 45.9224 142.915 45.4322 144.24C44.942 142.915 43.8976 141.871 42.5728 141.38Z" fill="url(#paint137_linear_1813_429)"/>
<path d="M42.5729 165.209C43.8976 164.718 44.942 163.674 45.4322 162.349C45.9224 163.674 46.9669 164.718 48.2916 165.209C46.9669 165.699 45.9224 166.743 45.4322 168.068C44.942 166.743 43.8976 165.699 42.5729 165.209Z" fill="url(#paint138_linear_1813_429)"/>
<path d="M42.5729 212.865C43.8976 212.375 44.942 211.33 45.4322 210.005C45.9224 211.33 46.9669 212.375 48.2916 212.865C46.9669 213.355 45.9224 214.399 45.4322 215.724C44.942 214.399 43.8976 213.355 42.5729 212.865Z" fill="url(#paint139_linear_1813_429)"/>
<path d="M42.5729 189.037C43.8976 188.547 44.942 187.502 45.4322 186.177C45.9224 187.502 46.9669 188.547 48.2916 189.037C46.9669 189.527 45.9224 190.571 45.4322 191.896C44.942 190.571 43.8976 189.527 42.5729 189.037Z" fill="url(#paint140_linear_1813_429)"/>
<path d="M42.5729 236.693C43.8976 236.203 44.942 235.158 45.4322 233.834C45.9224 235.158 46.9669 236.203 48.2916 236.693C46.9669 237.183 45.9224 238.228 45.4322 239.552C44.942 238.228 43.8976 237.183 42.5729 236.693Z" fill="url(#paint141_linear_1813_429)"/>
<path d="M42.5729 260.521C43.8976 260.031 44.942 258.986 45.4322 257.662C45.9224 258.986 46.9669 260.031 48.2916 260.521C46.9669 261.011 45.9224 262.056 45.4322 263.38C44.942 262.056 43.8976 261.011 42.5729 260.521Z" fill="url(#paint142_linear_1813_429)"/>
<path d="M42.5728 284.349C43.8975 283.859 44.942 282.815 45.4322 281.49C45.9224 282.815 46.9668 283.859 48.2916 284.349C46.9668 284.84 45.9224 285.884 45.4322 287.209C44.942 285.884 43.8975 284.84 42.5728 284.349Z" fill="url(#paint143_linear_1813_429)"/>
<path d="M18.7447 69.8961C20.0694 69.4059 21.1139 68.3614 21.6041 67.0367C22.0943 68.3614 23.1387 69.4059 24.4635 69.8961C23.1387 70.3863 22.0943 71.4307 21.6041 72.7554C21.1139 71.4307 20.0694 70.3863 18.7447 69.8961Z" fill="url(#paint144_linear_1813_429)"/>
<path d="M18.7447 46.0679C20.0694 45.5778 21.1139 44.5333 21.6041 43.2086C22.0943 44.5333 23.1387 45.5778 24.4635 46.0679C23.1387 46.5581 22.0943 47.6026 21.6041 48.9273C21.1139 47.6026 20.0694 46.5581 18.7447 46.0679Z" fill="url(#paint145_linear_1813_429)"/>
<path d="M18.7447 93.7242C20.0694 93.234 21.1139 92.1895 21.6041 90.8648C22.0943 92.1895 23.1388 93.234 24.4635 93.7242C23.1388 94.2144 22.0943 95.2588 21.6041 96.5836C21.1139 95.2588 20.0694 94.2144 18.7447 93.7242Z" fill="url(#paint146_linear_1813_429)"/>
<path d="M18.7447 117.552C20.0694 117.062 21.1139 116.018 21.6041 114.693C22.0943 116.018 23.1388 117.062 24.4635 117.552C23.1388 118.043 22.0943 119.087 21.6041 120.412C21.1139 119.087 20.0694 118.043 18.7447 117.552Z" fill="url(#paint147_linear_1813_429)"/>
<path d="M18.7447 141.38C20.0694 140.89 21.1139 139.846 21.6041 138.521C22.0943 139.846 23.1388 140.89 24.4635 141.38C23.1388 141.871 22.0943 142.915 21.6041 144.24C21.1139 142.915 20.0694 141.871 18.7447 141.38Z" fill="url(#paint148_linear_1813_429)"/>
<path d="M18.7447 165.209C20.0694 164.718 21.1139 163.674 21.6041 162.349C22.0943 163.674 23.1388 164.718 24.4635 165.209C23.1388 165.699 22.0943 166.743 21.6041 168.068C21.1139 166.743 20.0695 165.699 18.7447 165.209Z" fill="url(#paint149_linear_1813_429)"/>
<path d="M18.7447 212.865C20.0695 212.375 21.1139 211.33 21.6041 210.005C22.0943 211.33 23.1388 212.375 24.4635 212.865C23.1388 213.355 22.0943 214.399 21.6041 215.724C21.1139 214.399 20.0695 213.355 18.7447 212.865Z" fill="url(#paint150_linear_1813_429)"/>
<path d="M18.7447 189.037C20.0695 188.547 21.1139 187.502 21.6041 186.177C22.0943 187.502 23.1388 188.547 24.4635 189.037C23.1388 189.527 22.0943 190.571 21.6041 191.896C21.1139 190.571 20.0695 189.527 18.7447 189.037Z" fill="url(#paint151_linear_1813_429)"/>
<path d="M18.7447 236.693C20.0695 236.203 21.1139 235.158 21.6041 233.834C22.0943 235.158 23.1388 236.203 24.4635 236.693C23.1388 237.183 22.0943 238.228 21.6041 239.552C21.1139 238.228 20.0695 237.183 18.7447 236.693Z" fill="url(#paint152_linear_1813_429)"/>
<path d="M18.7447 260.521C20.0695 260.031 21.1139 258.986 21.6041 257.662C22.0943 258.986 23.1388 260.031 24.4635 260.521C23.1388 261.011 22.0943 262.056 21.6041 263.38C21.1139 262.056 20.0695 261.011 18.7447 260.521Z" fill="url(#paint153_linear_1813_429)"/>
<path d="M18.7447 284.349C20.0694 283.859 21.1139 282.815 21.6041 281.49C22.0943 282.815 23.1387 283.859 24.4634 284.349C23.1387 284.84 22.0943 285.884 21.6041 287.209C21.1139 285.884 20.0694 284.84 18.7447 284.349Z" fill="url(#paint154_linear_1813_429)"/>
</g>
<defs>
<linearGradient id="paint0_linear_1813_429" x1="4.86702" y1="296.483" x2="141.955" y2="152.5" gradientUnits="userSpaceOnUse">
<stop stop-color="white"/>
<stop offset="1" stop-color="white" stop-opacity="0"/>
</linearGradient>
<linearGradient id="paint1_linear_1813_429" x1="4.86702" y1="296.483" x2="141.955" y2="152.5" gradientUnits="userSpaceOnUse">
<stop stop-color="white"/>
<stop offset="1" stop-color="white" stop-opacity="0"/>
</linearGradient>
<linearGradient id="paint2_linear_1813_429" x1="4.86702" y1="296.483" x2="141.955" y2="152.5" gradientUnits="userSpaceOnUse">
<stop stop-color="white"/>
<stop offset="1" stop-color="white" stop-opacity="0"/>
</linearGradient>
<linearGradient id="paint3_linear_1813_429" x1="4.86702" y1="296.483" x2="141.955" y2="152.5" gradientUnits="userSpaceOnUse">
<stop stop-color="white"/>
<stop offset="1" stop-color="white" stop-opacity="0"/>
</linearGradient>
<linearGradient id="paint4_linear_1813_429" x1="4.86702" y1="296.483" x2="141.955" y2="152.5" gradientUnits="userSpaceOnUse">
<stop stop-color="white"/>
<stop offset="1" stop-color="white" stop-opacity="0"/>
</linearGradient>
<linearGradient id="paint5_linear_1813_429" x1="4.86702" y1="296.483" x2="141.955" y2="152.5" gradientUnits="userSpaceOnUse">
<stop stop-color="white"/>
<stop offset="1" stop-color="white" stop-opacity="0"/>
</linearGradient>
<linearGradient id="paint6_linear_1813_429" x1="4.86702" y1="296.483" x2="141.955" y2="152.5" gradientUnits="userSpaceOnUse">
<stop stop-color="white"/>
<stop offset="1" stop-color="white" stop-opacity="0"/>
</linearGradient>
<linearGradient id="paint7_linear_1813_429" x1="4.86702" y1="296.483" x2="141.955" y2="152.5" gradientUnits="userSpaceOnUse">
<stop stop-color="white"/>
<stop offset="1" stop-color="white" stop-opacity="0"/>
</linearGradient>
<linearGradient id="paint8_linear_1813_429" x1="4.86702" y1="296.483" x2="141.955" y2="152.5" gradientUnits="userSpaceOnUse">
<stop stop-color="white"/>
<stop offset="1" stop-color="white" stop-opacity="0"/>
</linearGradient>
<linearGradient id="paint9_linear_1813_429" x1="4.86702" y1="296.483" x2="141.955" y2="152.5" gradientUnits="userSpaceOnUse">
<stop stop-color="white"/>
<stop offset="1" stop-color="white" stop-opacity="0"/>
</linearGradient>
<linearGradient id="paint10_linear_1813_429" x1="4.86702" y1="296.483" x2="141.955" y2="152.5" gradientUnits="userSpaceOnUse">
<stop stop-color="white"/>
<stop offset="1" stop-color="white" stop-opacity="0"/>
</linearGradient>
<linearGradient id="paint11_linear_1813_429" x1="4.86702" y1="296.483" x2="141.955" y2="152.5" gradientUnits="userSpaceOnUse">
<stop stop-color="white"/>
<stop offset="1" stop-color="white" stop-opacity="0"/>
</linearGradient>
<linearGradient id="paint12_linear_1813_429" x1="4.86702" y1="296.483" x2="141.955" y2="152.5" gradientUnits="userSpaceOnUse">
<stop stop-color="white"/>
<stop offset="1" stop-color="white" stop-opacity="0"/>
</linearGradient>
<linearGradient id="paint13_linear_1813_429" x1="4.86702" y1="296.483" x2="141.955" y2="152.5" gradientUnits="userSpaceOnUse">
<stop stop-color="white"/>
<stop offset="1" stop-color="white" stop-opacity="0"/>
</linearGradient>
<linearGradient id="paint14_linear_1813_429" x1="4.86702" y1="296.483" x2="141.955" y2="152.5" gradientUnits="userSpaceOnUse">
<stop stop-color="white"/>
<stop offset="1" stop-color="white" stop-opacity="0"/>
</linearGradient>
<linearGradient id="paint15_linear_1813_429" x1="4.86702" y1="296.483" x2="141.955" y2="152.5" gradientUnits="userSpaceOnUse">
<stop stop-color="white"/>
<stop offset="1" stop-color="white" stop-opacity="0"/>
</linearGradient>
<linearGradient id="paint16_linear_1813_429" x1="4.86702" y1="296.483" x2="141.955" y2="152.5" gradientUnits="userSpaceOnUse">
<stop stop-color="white"/>
<stop offset="1" stop-color="white" stop-opacity="0"/>
</linearGradient>
<linearGradient id="paint17_linear_1813_429" x1="4.86702" y1="296.483" x2="141.955" y2="152.5" gradientUnits="userSpaceOnUse">
<stop stop-color="white"/>
<stop offset="1" stop-color="white" stop-opacity="0"/>
</linearGradient>
<linearGradient id="paint18_linear_1813_429" x1="4.86702" y1="296.483" x2="141.955" y2="152.5" gradientUnits="userSpaceOnUse">
<stop stop-color="white"/>
<stop offset="1" stop-color="white" stop-opacity="0"/>
</linearGradient>
<linearGradient id="paint19_linear_1813_429" x1="4.86702" y1="296.483" x2="141.955" y2="152.5" gradientUnits="userSpaceOnUse">
<stop stop-color="white"/>
<stop offset="1" stop-color="white" stop-opacity="0"/>
</linearGradient>
<linearGradient id="paint20_linear_1813_429" x1="4.86702" y1="296.483" x2="141.955" y2="152.5" gradientUnits="userSpaceOnUse">
<stop stop-color="white"/>
<stop offset="1" stop-color="white" stop-opacity="0"/>
</linearGradient>
<linearGradient id="paint21_linear_1813_429" x1="4.86702" y1="296.483" x2="141.955" y2="152.5" gradientUnits="userSpaceOnUse">
<stop stop-color="white"/>
<stop offset="1" stop-color="white" stop-opacity="0"/>
</linearGradient>
<linearGradient id="paint22_linear_1813_429" x1="4.86702" y1="296.483" x2="141.955" y2="152.5" gradientUnits="userSpaceOnUse">
<stop stop-color="white"/>
<stop offset="1" stop-color="white" stop-opacity="0"/>
</linearGradient>
<linearGradient id="paint23_linear_1813_429" x1="4.86702" y1="296.483" x2="141.955" y2="152.5" gradientUnits="userSpaceOnUse">
<stop stop-color="white"/>
<stop offset="1" stop-color="white" stop-opacity="0"/>
</linearGradient>
<linearGradient id="paint24_linear_1813_429" x1="4.86702" y1="296.483" x2="141.955" y2="152.5" gradientUnits="userSpaceOnUse">
<stop stop-color="white"/>
<stop offset="1" stop-color="white" stop-opacity="0"/>
</linearGradient>
<linearGradient id="paint25_linear_1813_429" x1="4.86702" y1="296.483" x2="141.955" y2="152.5" gradientUnits="userSpaceOnUse">
<stop stop-color="white"/>
<stop offset="1" stop-color="white" stop-opacity="0"/>
</linearGradient>
<linearGradient id="paint26_linear_1813_429" x1="4.86702" y1="296.483" x2="141.955" y2="152.5" gradientUnits="userSpaceOnUse">
<stop stop-color="white"/>
<stop offset="1" stop-color="white" stop-opacity="0"/>
</linearGradient>
<linearGradient id="paint27_linear_1813_429" x1="4.86702" y1="296.483" x2="141.955" y2="152.5" gradientUnits="userSpaceOnUse">
<stop stop-color="white"/>
<stop offset="1" stop-color="white" stop-opacity="0"/>
</linearGradient>
<linearGradient id="paint28_linear_1813_429" x1="4.86702" y1="296.483" x2="141.955" y2="152.5" gradientUnits="userSpaceOnUse">
<stop stop-color="white"/>
<stop offset="1" stop-color="white" stop-opacity="0"/>
</linearGradient>
<linearGradient id="paint29_linear_1813_429" x1="4.86702" y1="296.483" x2="141.955" y2="152.5" gradientUnits="userSpaceOnUse">
<stop stop-color="white"/>
<stop offset="1" stop-color="white" stop-opacity="0"/>
</linearGradient>
<linearGradient id="paint30_linear_1813_429" x1="4.86702" y1="296.483" x2="141.955" y2="152.5" gradientUnits="userSpaceOnUse">
<stop stop-color="white"/>
<stop offset="1" stop-color="white" stop-opacity="0"/>
</linearGradient>
<linearGradient id="paint31_linear_1813_429" x1="4.86702" y1="296.483" x2="141.955" y2="152.5" gradientUnits="userSpaceOnUse">
<stop stop-color="white"/>
<stop offset="1" stop-color="white" stop-opacity="0"/>
</linearGradient>
<linearGradient id="paint32_linear_1813_429" x1="4.86702" y1="296.483" x2="141.955" y2="152.5" gradientUnits="userSpaceOnUse">
<stop stop-color="white"/>
<stop offset="1" stop-color="white" stop-opacity="0"/>
</linearGradient>
<linearGradient id="paint33_linear_1813_429" x1="4.86702" y1="296.483" x2="141.955" y2="152.5" gradientUnits="userSpaceOnUse">
<stop stop-color="white"/>
<stop offset="1" stop-color="white" stop-opacity="0"/>
</linearGradient>
<linearGradient id="paint34_linear_1813_429" x1="4.86702" y1="296.483" x2="141.955" y2="152.5" gradientUnits="userSpaceOnUse">
<stop stop-color="white"/>
<stop offset="1" stop-color="white" stop-opacity="0"/>
</linearGradient>
<linearGradient id="paint35_linear_1813_429" x1="4.86702" y1="296.483" x2="141.955" y2="152.5" gradientUnits="userSpaceOnUse">
<stop stop-color="white"/>
<stop offset="1" stop-color="white" stop-opacity="0"/>
</linearGradient>
<linearGradient id="paint36_linear_1813_429" x1="4.86702" y1="296.483" x2="141.955" y2="152.5" gradientUnits="userSpaceOnUse">
<stop stop-color="white"/>
<stop offset="1" stop-color="white" stop-opacity="0"/>
</linearGradient>
<linearGradient id="paint37_linear_1813_429" x1="4.86702" y1="296.483" x2="141.955" y2="152.5" gradientUnits="userSpaceOnUse">
<stop stop-color="white"/>
<stop offset="1" stop-color="white" stop-opacity="0"/>
</linearGradient>
<linearGradient id="paint38_linear_1813_429" x1="4.86702" y1="296.483" x2="141.955" y2="152.5" gradientUnits="userSpaceOnUse">
<stop stop-color="white"/>
<stop offset="1" stop-color="white" stop-opacity="0"/>
</linearGradient>
<linearGradient id="paint39_linear_1813_429" x1="4.86702" y1="296.483" x2="141.955" y2="152.5" gradientUnits="userSpaceOnUse">
<stop stop-color="white"/>
<stop offset="1" stop-color="white" stop-opacity="0"/>
</linearGradient>
<linearGradient id="paint40_linear_1813_429" x1="4.86702" y1="296.483" x2="141.955" y2="152.5" gradientUnits="userSpaceOnUse">
<stop stop-color="white"/>
<stop offset="1" stop-color="white" stop-opacity="0"/>
</linearGradient>
<linearGradient id="paint41_linear_1813_429" x1="4.86702" y1="296.483" x2="141.955" y2="152.5" gradientUnits="userSpaceOnUse">
<stop stop-color="white"/>
<stop offset="1" stop-color="white" stop-opacity="0"/>
</linearGradient>
<linearGradient id="paint42_linear_1813_429" x1="4.86702" y1="296.483" x2="141.955" y2="152.5" gradientUnits="userSpaceOnUse">
<stop stop-color="white"/>
<stop offset="1" stop-color="white" stop-opacity="0"/>
</linearGradient>
<linearGradient id="paint43_linear_1813_429" x1="4.86702" y1="296.483" x2="141.955" y2="152.5" gradientUnits="userSpaceOnUse">
<stop stop-color="white"/>
<stop offset="1" stop-color="white" stop-opacity="0"/>
</linearGradient>
<linearGradient id="paint44_linear_1813_429" x1="4.86702" y1="296.483" x2="141.955" y2="152.5" gradientUnits="userSpaceOnUse">
<stop stop-color="white"/>
<stop offset="1" stop-color="white" stop-opacity="0"/>
</linearGradient>
<linearGradient id="paint45_linear_1813_429" x1="4.86702" y1="296.483" x2="141.955" y2="152.5" gradientUnits="userSpaceOnUse">
<stop stop-color="white"/>
<stop offset="1" stop-color="white" stop-opacity="0"/>
</linearGradient>
<linearGradient id="paint46_linear_1813_429" x1="4.86702" y1="296.483" x2="141.955" y2="152.5" gradientUnits="userSpaceOnUse">
<stop stop-color="white"/>
<stop offset="1" stop-color="white" stop-opacity="0"/>
</linearGradient>
<linearGradient id="paint47_linear_1813_429" x1="4.86702" y1="296.483" x2="141.955" y2="152.5" gradientUnits="userSpaceOnUse">
<stop stop-color="white"/>
<stop offset="1" stop-color="white" stop-opacity="0"/>
</linearGradient>
<linearGradient id="paint48_linear_1813_429" x1="4.86702" y1="296.483" x2="141.955" y2="152.5" gradientUnits="userSpaceOnUse">
<stop stop-color="white"/>
<stop offset="1" stop-color="white" stop-opacity="0"/>
</linearGradient>
<linearGradient id="paint49_linear_1813_429" x1="4.86702" y1="296.483" x2="141.955" y2="152.5" gradientUnits="userSpaceOnUse">
<stop stop-color="white"/>
<stop offset="1" stop-color="white" stop-opacity="0"/>
</linearGradient>
<linearGradient id="paint50_linear_1813_429" x1="4.86702" y1="296.483" x2="141.955" y2="152.5" gradientUnits="userSpaceOnUse">
<stop stop-color="white"/>
<stop offset="1" stop-color="white" stop-opacity="0"/>
</linearGradient>
<linearGradient id="paint51_linear_1813_429" x1="4.86702" y1="296.483" x2="141.955" y2="152.5" gradientUnits="userSpaceOnUse">
<stop stop-color="white"/>
<stop offset="1" stop-color="white" stop-opacity="0"/>
</linearGradient>
<linearGradient id="paint52_linear_1813_429" x1="4.86702" y1="296.483" x2="141.955" y2="152.5" gradientUnits="userSpaceOnUse">
<stop stop-color="white"/>
<stop offset="1" stop-color="white" stop-opacity="0"/>
</linearGradient>
<linearGradient id="paint53_linear_1813_429" x1="4.86702" y1="296.483" x2="141.955" y2="152.5" gradientUnits="userSpaceOnUse">
<stop stop-color="white"/>
<stop offset="1" stop-color="white" stop-opacity="0"/>
</linearGradient>
<linearGradient id="paint54_linear_1813_429" x1="4.86702" y1="296.483" x2="141.955" y2="152.5" gradientUnits="userSpaceOnUse">
<stop stop-color="white"/>
<stop offset="1" stop-color="white" stop-opacity="0"/>
</linearGradient>
<linearGradient id="paint55_linear_1813_429" x1="4.86702" y1="296.483" x2="141.955" y2="152.5" gradientUnits="userSpaceOnUse">
<stop stop-color="white"/>
<stop offset="1" stop-color="white" stop-opacity="0"/>
</linearGradient>
<linearGradient id="paint56_linear_1813_429" x1="4.86702" y1="296.483" x2="141.955" y2="152.5" gradientUnits="userSpaceOnUse">
<stop stop-color="white"/>
<stop offset="1" stop-color="white" stop-opacity="0"/>
</linearGradient>
<linearGradient id="paint57_linear_1813_429" x1="4.86702" y1="296.483" x2="141.955" y2="152.5" gradientUnits="userSpaceOnUse">
<stop stop-color="white"/>
<stop offset="1" stop-color="white" stop-opacity="0"/>
</linearGradient>
<linearGradient id="paint58_linear_1813_429" x1="4.86702" y1="296.483" x2="141.955" y2="152.5" gradientUnits="userSpaceOnUse">
<stop stop-color="white"/>
<stop offset="1" stop-color="white" stop-opacity="0"/>
</linearGradient>
<linearGradient id="paint59_linear_1813_429" x1="4.86702" y1="296.483" x2="141.955" y2="152.5" gradientUnits="userSpaceOnUse">
<stop stop-color="white"/>
<stop offset="1" stop-color="white" stop-opacity="0"/>
</linearGradient>
<linearGradient id="paint60_linear_1813_429" x1="4.86702" y1="296.483" x2="141.955" y2="152.5" gradientUnits="userSpaceOnUse">
<stop stop-color="white"/>
<stop offset="1" stop-color="white" stop-opacity="0"/>
</linearGradient>
<linearGradient id="paint61_linear_1813_429" x1="4.86702" y1="296.483" x2="141.955" y2="152.5" gradientUnits="userSpaceOnUse">
<stop stop-color="white"/>
<stop offset="1" stop-color="white" stop-opacity="0"/>
</linearGradient>
<linearGradient id="paint62_linear_1813_429" x1="4.86702" y1="296.483" x2="141.955" y2="152.5" gradientUnits="userSpaceOnUse">
<stop stop-color="white"/>
<stop offset="1" stop-color="white" stop-opacity="0"/>
</linearGradient>
<linearGradient id="paint63_linear_1813_429" x1="4.86702" y1="296.483" x2="141.955" y2="152.5" gradientUnits="userSpaceOnUse">
<stop stop-color="white"/>
<stop offset="1" stop-color="white" stop-opacity="0"/>
</linearGradient>
<linearGradient id="paint64_linear_1813_429" x1="4.86702" y1="296.483" x2="141.955" y2="152.5" gradientUnits="userSpaceOnUse">
<stop stop-color="white"/>
<stop offset="1" stop-color="white" stop-opacity="0"/>
</linearGradient>
<linearGradient id="paint65_linear_1813_429" x1="4.86702" y1="296.483" x2="141.955" y2="152.5" gradientUnits="userSpaceOnUse">
<stop stop-color="white"/>
<stop offset="1" stop-color="white" stop-opacity="0"/>
</linearGradient>
<linearGradient id="paint66_linear_1813_429" x1="4.86702" y1="296.483" x2="141.955" y2="152.5" gradientUnits="userSpaceOnUse">
<stop stop-color="white"/>
<stop offset="1" stop-color="white" stop-opacity="0"/>
</linearGradient>
<linearGradient id="paint67_linear_1813_429" x1="4.86702" y1="296.483" x2="141.955" y2="152.5" gradientUnits="userSpaceOnUse">
<stop stop-color="white"/>
<stop offset="1" stop-color="white" stop-opacity="0"/>
</linearGradient>
<linearGradient id="paint68_linear_1813_429" x1="4.86702" y1="296.483" x2="141.955" y2="152.5" gradientUnits="userSpaceOnUse">
<stop stop-color="white"/>
<stop offset="1" stop-color="white" stop-opacity="0"/>
</linearGradient>
<linearGradient id="paint69_linear_1813_429" x1="4.86702" y1="296.483" x2="141.955" y2="152.5" gradientUnits="userSpaceOnUse">
<stop stop-color="white"/>
<stop offset="1" stop-color="white" stop-opacity="0"/>
</linearGradient>
<linearGradient id="paint70_linear_1813_429" x1="4.86702" y1="296.483" x2="141.955" y2="152.5" gradientUnits="userSpaceOnUse">
<stop stop-color="white"/>
<stop offset="1" stop-color="white" stop-opacity="0"/>
</linearGradient>
<linearGradient id="paint71_linear_1813_429" x1="4.86702" y1="296.483" x2="141.955" y2="152.5" gradientUnits="userSpaceOnUse">
<stop stop-color="white"/>
<stop offset="1" stop-color="white" stop-opacity="0"/>
</linearGradient>
<linearGradient id="paint72_linear_1813_429" x1="4.86702" y1="296.483" x2="141.955" y2="152.5" gradientUnits="userSpaceOnUse">
<stop stop-color="white"/>
<stop offset="1" stop-color="white" stop-opacity="0"/>
</linearGradient>
<linearGradient id="paint73_linear_1813_429" x1="4.86702" y1="296.483" x2="141.955" y2="152.5" gradientUnits="userSpaceOnUse">
<stop stop-color="white"/>
<stop offset="1" stop-color="white" stop-opacity="0"/>
</linearGradient>
<linearGradient id="paint74_linear_1813_429" x1="4.86702" y1="296.483" x2="141.955" y2="152.5" gradientUnits="userSpaceOnUse">
<stop stop-color="white"/>
<stop offset="1" stop-color="white" stop-opacity="0"/>
</linearGradient>
<linearGradient id="paint75_linear_1813_429" x1="4.86702" y1="296.483" x2="141.955" y2="152.5" gradientUnits="userSpaceOnUse">
<stop stop-color="white"/>
<stop offset="1" stop-color="white" stop-opacity="0"/>
</linearGradient>
<linearGradient id="paint76_linear_1813_429" x1="4.86702" y1="296.483" x2="141.955" y2="152.5" gradientUnits="userSpaceOnUse">
<stop stop-color="white"/>
<stop offset="1" stop-color="white" stop-opacity="0"/>
</linearGradient>
<linearGradient id="paint77_linear_1813_429" x1="4.86702" y1="296.483" x2="141.955" y2="152.5" gradientUnits="userSpaceOnUse">
<stop stop-color="white"/>
<stop offset="1" stop-color="white" stop-opacity="0"/>
</linearGradient>
<linearGradient id="paint78_linear_1813_429" x1="4.86702" y1="296.483" x2="141.955" y2="152.5" gradientUnits="userSpaceOnUse">
<stop stop-color="white"/>
<stop offset="1" stop-color="white" stop-opacity="0"/>
</linearGradient>
<linearGradient id="paint79_linear_1813_429" x1="4.86702" y1="296.483" x2="141.955" y2="152.5" gradientUnits="userSpaceOnUse">
<stop stop-color="white"/>
<stop offset="1" stop-color="white" stop-opacity="0"/>
</linearGradient>
<linearGradient id="paint80_linear_1813_429" x1="4.86702" y1="296.483" x2="141.955" y2="152.5" gradientUnits="userSpaceOnUse">
<stop stop-color="white"/>
<stop offset="1" stop-color="white" stop-opacity="0"/>
</linearGradient>
<linearGradient id="paint81_linear_1813_429" x1="4.86702" y1="296.483" x2="141.955" y2="152.5" gradientUnits="userSpaceOnUse">
<stop stop-color="white"/>
<stop offset="1" stop-color="white" stop-opacity="0"/>
</linearGradient>
<linearGradient id="paint82_linear_1813_429" x1="4.86702" y1="296.483" x2="141.955" y2="152.5" gradientUnits="userSpaceOnUse">
<stop stop-color="white"/>
<stop offset="1" stop-color="white" stop-opacity="0"/>
</linearGradient>
<linearGradient id="paint83_linear_1813_429" x1="4.86702" y1="296.483" x2="141.955" y2="152.5" gradientUnits="userSpaceOnUse">
<stop stop-color="white"/>
<stop offset="1" stop-color="white" stop-opacity="0"/>
</linearGradient>
<linearGradient id="paint84_linear_1813_429" x1="4.86702" y1="296.483" x2="141.955" y2="152.5" gradientUnits="userSpaceOnUse">
<stop stop-color="white"/>
<stop offset="1" stop-color="white" stop-opacity="0"/>
</linearGradient>
<linearGradient id="paint85_linear_1813_429" x1="4.86702" y1="296.483" x2="141.955" y2="152.5" gradientUnits="userSpaceOnUse">
<stop stop-color="white"/>
<stop offset="1" stop-color="white" stop-opacity="0"/>
</linearGradient>
<linearGradient id="paint86_linear_1813_429" x1="4.86702" y1="296.483" x2="141.955" y2="152.5" gradientUnits="userSpaceOnUse">
<stop stop-color="white"/>
<stop offset="1" stop-color="white" stop-opacity="0"/>
</linearGradient>
<linearGradient id="paint87_linear_1813_429" x1="4.86702" y1="296.483" x2="141.955" y2="152.5" gradientUnits="userSpaceOnUse">
<stop stop-color="white"/>
<stop offset="1" stop-color="white" stop-opacity="0"/>
</linearGradient>
<linearGradient id="paint88_linear_1813_429" x1="4.86702" y1="296.483" x2="141.955" y2="152.5" gradientUnits="userSpaceOnUse">
<stop stop-color="white"/>
<stop offset="1" stop-color="white" stop-opacity="0"/>
</linearGradient>
<linearGradient id="paint89_linear_1813_429" x1="4.86702" y1="296.483" x2="141.955" y2="152.5" gradientUnits="userSpaceOnUse">
<stop stop-color="white"/>
<stop offset="1" stop-color="white" stop-opacity="0"/>
</linearGradient>
<linearGradient id="paint90_linear_1813_429" x1="4.86702" y1="296.483" x2="141.955" y2="152.5" gradientUnits="userSpaceOnUse">
<stop stop-color="white"/>
<stop offset="1" stop-color="white" stop-opacity="0"/>
</linearGradient>
<linearGradient id="paint91_linear_1813_429" x1="4.86702" y1="296.483" x2="141.955" y2="152.5" gradientUnits="userSpaceOnUse">
<stop stop-color="white"/>
<stop offset="1" stop-color="white" stop-opacity="0"/>
</linearGradient>
<linearGradient id="paint92_linear_1813_429" x1="4.86702" y1="296.483" x2="141.955" y2="152.5" gradientUnits="userSpaceOnUse">
<stop stop-color="white"/>
<stop offset="1" stop-color="white" stop-opacity="0"/>
</linearGradient>
<linearGradient id="paint93_linear_1813_429" x1="4.86702" y1="296.483" x2="141.955" y2="152.5" gradientUnits="userSpaceOnUse">
<stop stop-color="white"/>
<stop offset="1" stop-color="white" stop-opacity="0"/>
</linearGradient>
<linearGradient id="paint94_linear_1813_429" x1="4.86702" y1="296.483" x2="141.955" y2="152.5" gradientUnits="userSpaceOnUse">
<stop stop-color="white"/>
<stop offset="1" stop-color="white" stop-opacity="0"/>
</linearGradient>
<linearGradient id="paint95_linear_1813_429" x1="4.86702" y1="296.483" x2="141.955" y2="152.5" gradientUnits="userSpaceOnUse">
<stop stop-color="white"/>
<stop offset="1" stop-color="white" stop-opacity="0"/>
</linearGradient>
<linearGradient id="paint96_linear_1813_429" x1="4.86702" y1="296.483" x2="141.955" y2="152.5" gradientUnits="userSpaceOnUse">
<stop stop-color="white"/>
<stop offset="1" stop-color="white" stop-opacity="0"/>
</linearGradient>
<linearGradient id="paint97_linear_1813_429" x1="4.86702" y1="296.483" x2="141.955" y2="152.5" gradientUnits="userSpaceOnUse">
<stop stop-color="white"/>
<stop offset="1" stop-color="white" stop-opacity="0"/>
</linearGradient>
<linearGradient id="paint98_linear_1813_429" x1="4.86702" y1="296.483" x2="141.955" y2="152.5" gradientUnits="userSpaceOnUse">
<stop stop-color="white"/>
<stop offset="1" stop-color="white" stop-opacity="0"/>
</linearGradient>
<linearGradient id="paint99_linear_1813_429" x1="4.86702" y1="296.483" x2="141.955" y2="152.5" gradientUnits="userSpaceOnUse">
<stop stop-color="white"/>
<stop offset="1" stop-color="white" stop-opacity="0"/>
</linearGradient>
<linearGradient id="paint100_linear_1813_429" x1="4.86702" y1="296.483" x2="141.955" y2="152.5" gradientUnits="userSpaceOnUse">
<stop stop-color="white"/>
<stop offset="1" stop-color="white" stop-opacity="0"/>
</linearGradient>
<linearGradient id="paint101_linear_1813_429" x1="4.86702" y1="296.483" x2="141.955" y2="152.5" gradientUnits="userSpaceOnUse">
<stop stop-color="white"/>
<stop offset="1" stop-color="white" stop-opacity="0"/>
</linearGradient>
<linearGradient id="paint102_linear_1813_429" x1="4.86702" y1="296.483" x2="141.955" y2="152.5" gradientUnits="userSpaceOnUse">
<stop stop-color="white"/>
<stop offset="1" stop-color="white" stop-opacity="0"/>
</linearGradient>
<linearGradient id="paint103_linear_1813_429" x1="4.86702" y1="296.483" x2="141.955" y2="152.5" gradientUnits="userSpaceOnUse">
<stop stop-color="white"/>
<stop offset="1" stop-color="white" stop-opacity="0"/>
</linearGradient>
<linearGradient id="paint104_linear_1813_429" x1="4.86702" y1="296.483" x2="141.955" y2="152.5" gradientUnits="userSpaceOnUse">
<stop stop-color="white"/>
<stop offset="1" stop-color="white" stop-opacity="0"/>
</linearGradient>
<linearGradient id="paint105_linear_1813_429" x1="4.86702" y1="296.483" x2="141.955" y2="152.5" gradientUnits="userSpaceOnUse">
<stop stop-color="white"/>
<stop offset="1" stop-color="white" stop-opacity="0"/>
</linearGradient>
<linearGradient id="paint106_linear_1813_429" x1="4.86702" y1="296.483" x2="141.955" y2="152.5" gradientUnits="userSpaceOnUse">
<stop stop-color="white"/>
<stop offset="1" stop-color="white" stop-opacity="0"/>
</linearGradient>
<linearGradient id="paint107_linear_1813_429" x1="4.86702" y1="296.483" x2="141.955" y2="152.5" gradientUnits="userSpaceOnUse">
<stop stop-color="white"/>
<stop offset="1" stop-color="white" stop-opacity="0"/>
</linearGradient>
<linearGradient id="paint108_linear_1813_429" x1="4.86702" y1="296.483" x2="141.955" y2="152.5" gradientUnits="userSpaceOnUse">
<stop stop-color="white"/>
<stop offset="1" stop-color="white" stop-opacity="0"/>
</linearGradient>
<linearGradient id="paint109_linear_1813_429" x1="4.86702" y1="296.483" x2="141.955" y2="152.5" gradientUnits="userSpaceOnUse">
<stop stop-color="white"/>
<stop offset="1" stop-color="white" stop-opacity="0"/>
</linearGradient>
<linearGradient id="paint110_linear_1813_429" x1="4.86702" y1="296.483" x2="141.955" y2="152.5" gradientUnits="userSpaceOnUse">
<stop stop-color="white"/>
<stop offset="1" stop-color="white" stop-opacity="0"/>
</linearGradient>
<linearGradient id="paint111_linear_1813_429" x1="4.86702" y1="296.483" x2="141.955" y2="152.5" gradientUnits="userSpaceOnUse">
<stop stop-color="white"/>
<stop offset="1" stop-color="white" stop-opacity="0"/>
</linearGradient>
<linearGradient id="paint112_linear_1813_429" x1="4.86702" y1="296.483" x2="141.955" y2="152.5" gradientUnits="userSpaceOnUse">
<stop stop-color="white"/>
<stop offset="1" stop-color="white" stop-opacity="0"/>
</linearGradient>
<linearGradient id="paint113_linear_1813_429" x1="4.86702" y1="296.483" x2="141.955" y2="152.5" gradientUnits="userSpaceOnUse">
<stop stop-color="white"/>
<stop offset="1" stop-color="white" stop-opacity="0"/>
</linearGradient>
<linearGradient id="paint114_linear_1813_429" x1="4.86702" y1="296.483" x2="141.955" y2="152.5" gradientUnits="userSpaceOnUse">
<stop stop-color="white"/>
<stop offset="1" stop-color="white" stop-opacity="0"/>
</linearGradient>
<linearGradient id="paint115_linear_1813_429" x1="4.86702" y1="296.483" x2="141.955" y2="152.5" gradientUnits="userSpaceOnUse">
<stop stop-color="white"/>
<stop offset="1" stop-color="white" stop-opacity="0"/>
</linearGradient>
<linearGradient id="paint116_linear_1813_429" x1="4.86702" y1="296.483" x2="141.955" y2="152.5" gradientUnits="userSpaceOnUse">
<stop stop-color="white"/>
<stop offset="1" stop-color="white" stop-opacity="0"/>
</linearGradient>
<linearGradient id="paint117_linear_1813_429" x1="4.86702" y1="296.483" x2="141.955" y2="152.5" gradientUnits="userSpaceOnUse">
<stop stop-color="white"/>
<stop offset="1" stop-color="white" stop-opacity="0"/>
</linearGradient>
<linearGradient id="paint118_linear_1813_429" x1="4.86702" y1="296.483" x2="141.955" y2="152.5" gradientUnits="userSpaceOnUse">
<stop stop-color="white"/>
<stop offset="1" stop-color="white" stop-opacity="0"/>
</linearGradient>
<linearGradient id="paint119_linear_1813_429" x1="4.86702" y1="296.483" x2="141.955" y2="152.5" gradientUnits="userSpaceOnUse">
<stop stop-color="white"/>
<stop offset="1" stop-color="white" stop-opacity="0"/>
</linearGradient>
<linearGradient id="paint120_linear_1813_429" x1="4.86702" y1="296.483" x2="141.955" y2="152.5" gradientUnits="userSpaceOnUse">
<stop stop-color="white"/>
<stop offset="1" stop-color="white" stop-opacity="0"/>
</linearGradient>
<linearGradient id="paint121_linear_1813_429" x1="4.86702" y1="296.483" x2="141.955" y2="152.5" gradientUnits="userSpaceOnUse">
<stop stop-color="white"/>
<stop offset="1" stop-color="white" stop-opacity="0"/>
</linearGradient>
<linearGradient id="paint122_linear_1813_429" x1="4.86702" y1="296.483" x2="141.955" y2="152.5" gradientUnits="userSpaceOnUse">
<stop stop-color="white"/>
<stop offset="1" stop-color="white" stop-opacity="0"/>
</linearGradient>
<linearGradient id="paint123_linear_1813_429" x1="4.86702" y1="296.483" x2="141.955" y2="152.5" gradientUnits="userSpaceOnUse">
<stop stop-color="white"/>
<stop offset="1" stop-color="white" stop-opacity="0"/>
</linearGradient>
<linearGradient id="paint124_linear_1813_429" x1="4.86702" y1="296.483" x2="141.955" y2="152.5" gradientUnits="userSpaceOnUse">
<stop stop-color="white"/>
<stop offset="1" stop-color="white" stop-opacity="0"/>
</linearGradient>
<linearGradient id="paint125_linear_1813_429" x1="4.86702" y1="296.483" x2="141.955" y2="152.5" gradientUnits="userSpaceOnUse">
<stop stop-color="white"/>
<stop offset="1" stop-color="white" stop-opacity="0"/>
</linearGradient>
<linearGradient id="paint126_linear_1813_429" x1="4.86702" y1="296.483" x2="141.955" y2="152.5" gradientUnits="userSpaceOnUse">
<stop stop-color="white"/>
<stop offset="1" stop-color="white" stop-opacity="0"/>
</linearGradient>
<linearGradient id="paint127_linear_1813_429" x1="4.86702" y1="296.483" x2="141.955" y2="152.5" gradientUnits="userSpaceOnUse">
<stop stop-color="white"/>
<stop offset="1" stop-color="white" stop-opacity="0"/>
</linearGradient>
<linearGradient id="paint128_linear_1813_429" x1="4.86702" y1="296.483" x2="141.955" y2="152.5" gradientUnits="userSpaceOnUse">
<stop stop-color="white"/>
<stop offset="1" stop-color="white" stop-opacity="0"/>
</linearGradient>
<linearGradient id="paint129_linear_1813_429" x1="4.86702" y1="296.483" x2="141.955" y2="152.5" gradientUnits="userSpaceOnUse">
<stop stop-color="white"/>
<stop offset="1" stop-color="white" stop-opacity="0"/>
</linearGradient>
<linearGradient id="paint130_linear_1813_429" x1="4.86702" y1="296.483" x2="141.955" y2="152.5" gradientUnits="userSpaceOnUse">
<stop stop-color="white"/>
<stop offset="1" stop-color="white" stop-opacity="0"/>
</linearGradient>
<linearGradient id="paint131_linear_1813_429" x1="4.86702" y1="296.483" x2="141.955" y2="152.5" gradientUnits="userSpaceOnUse">
<stop stop-color="white"/>
<stop offset="1" stop-color="white" stop-opacity="0"/>
</linearGradient>
<linearGradient id="paint132_linear_1813_429" x1="4.86702" y1="296.483" x2="141.955" y2="152.5" gradientUnits="userSpaceOnUse">
<stop stop-color="white"/>
<stop offset="1" stop-color="white" stop-opacity="0"/>
</linearGradient>
<linearGradient id="paint133_linear_1813_429" x1="4.86702" y1="296.483" x2="141.955" y2="152.5" gradientUnits="userSpaceOnUse">
<stop stop-color="white"/>
<stop offset="1" stop-color="white" stop-opacity="0"/>
</linearGradient>
<linearGradient id="paint134_linear_1813_429" x1="4.86702" y1="296.483" x2="141.955" y2="152.5" gradientUnits="userSpaceOnUse">
<stop stop-color="white"/>
<stop offset="1" stop-color="white" stop-opacity="0"/>
</linearGradient>
<linearGradient id="paint135_linear_1813_429" x1="4.86702" y1="296.483" x2="141.955" y2="152.5" gradientUnits="userSpaceOnUse">
<stop stop-color="white"/>
<stop offset="1" stop-color="white" stop-opacity="0"/>
</linearGradient>
<linearGradient id="paint136_linear_1813_429" x1="4.86702" y1="296.483" x2="141.955" y2="152.5" gradientUnits="userSpaceOnUse">
<stop stop-color="white"/>
<stop offset="1" stop-color="white" stop-opacity="0"/>
</linearGradient>
<linearGradient id="paint137_linear_1813_429" x1="4.86702" y1="296.483" x2="141.955" y2="152.5" gradientUnits="userSpaceOnUse">
<stop stop-color="white"/>
<stop offset="1" stop-color="white" stop-opacity="0"/>
</linearGradient>
<linearGradient id="paint138_linear_1813_429" x1="4.86702" y1="296.483" x2="141.955" y2="152.5" gradientUnits="userSpaceOnUse">
<stop stop-color="white"/>
<stop offset="1" stop-color="white" stop-opacity="0"/>
</linearGradient>
<linearGradient id="paint139_linear_1813_429" x1="4.86702" y1="296.483" x2="141.955" y2="152.5" gradientUnits="userSpaceOnUse">
<stop stop-color="white"/>
<stop offset="1" stop-color="white" stop-opacity="0"/>
</linearGradient>
<linearGradient id="paint140_linear_1813_429" x1="4.86702" y1="296.483" x2="141.955" y2="152.5" gradientUnits="userSpaceOnUse">
<stop stop-color="white"/>
<stop offset="1" stop-color="white" stop-opacity="0"/>
</linearGradient>
<linearGradient id="paint141_linear_1813_429" x1="4.86702" y1="296.483" x2="141.955" y2="152.5" gradientUnits="userSpaceOnUse">
<stop stop-color="white"/>
<stop offset="1" stop-color="white" stop-opacity="0"/>
</linearGradient>
<linearGradient id="paint142_linear_1813_429" x1="4.86702" y1="296.483" x2="141.955" y2="152.5" gradientUnits="userSpaceOnUse">
<stop stop-color="white"/>
<stop offset="1" stop-color="white" stop-opacity="0"/>
</linearGradient>
<linearGradient id="paint143_linear_1813_429" x1="4.86702" y1="296.483" x2="141.955" y2="152.5" gradientUnits="userSpaceOnUse">
<stop stop-color="white"/>
<stop offset="1" stop-color="white" stop-opacity="0"/>
</linearGradient>
<linearGradient id="paint144_linear_1813_429" x1="4.86702" y1="296.483" x2="141.955" y2="152.5" gradientUnits="userSpaceOnUse">
<stop stop-color="white"/>
<stop offset="1" stop-color="white" stop-opacity="0"/>
</linearGradient>
<linearGradient id="paint145_linear_1813_429" x1="4.86702" y1="296.483" x2="141.955" y2="152.5" gradientUnits="userSpaceOnUse">
<stop stop-color="white"/>
<stop offset="1" stop-color="white" stop-opacity="0"/>
</linearGradient>
<linearGradient id="paint146_linear_1813_429" x1="4.86702" y1="296.483" x2="141.955" y2="152.5" gradientUnits="userSpaceOnUse">
<stop stop-color="white"/>
<stop offset="1" stop-color="white" stop-opacity="0"/>
</linearGradient>
<linearGradient id="paint147_linear_1813_429" x1="4.86702" y1="296.483" x2="141.955" y2="152.5" gradientUnits="userSpaceOnUse">
<stop stop-color="white"/>
<stop offset="1" stop-color="white" stop-opacity="0"/>
</linearGradient>
<linearGradient id="paint148_linear_1813_429" x1="4.86702" y1="296.483" x2="141.955" y2="152.5" gradientUnits="userSpaceOnUse">
<stop stop-color="white"/>
<stop offset="1" stop-color="white" stop-opacity="0"/>
</linearGradient>
<linearGradient id="paint149_linear_1813_429" x1="4.86702" y1="296.483" x2="141.955" y2="152.5" gradientUnits="userSpaceOnUse">
<stop stop-color="white"/>
<stop offset="1" stop-color="white" stop-opacity="0"/>
</linearGradient>
<linearGradient id="paint150_linear_1813_429" x1="4.86702" y1="296.483" x2="141.955" y2="152.5" gradientUnits="userSpaceOnUse">
<stop stop-color="white"/>
<stop offset="1" stop-color="white" stop-opacity="0"/>
</linearGradient>
<linearGradient id="paint151_linear_1813_429" x1="4.86702" y1="296.483" x2="141.955" y2="152.5" gradientUnits="userSpaceOnUse">
<stop stop-color="white"/>
<stop offset="1" stop-color="white" stop-opacity="0"/>
</linearGradient>
<linearGradient id="paint152_linear_1813_429" x1="4.86702" y1="296.483" x2="141.955" y2="152.5" gradientUnits="userSpaceOnUse">
<stop stop-color="white"/>
<stop offset="1" stop-color="white" stop-opacity="0"/>
</linearGradient>
<linearGradient id="paint153_linear_1813_429" x1="4.86702" y1="296.483" x2="141.955" y2="152.5" gradientUnits="userSpaceOnUse">
<stop stop-color="white"/>
<stop offset="1" stop-color="white" stop-opacity="0"/>
</linearGradient>
<linearGradient id="paint154_linear_1813_429" x1="4.86702" y1="296.483" x2="141.955" y2="152.5" gradientUnits="userSpaceOnUse">
<stop stop-color="white"/>
<stop offset="1" stop-color="white" stop-opacity="0"/>
</linearGradient>
</defs>
</svg>
