<svg width="21" height="22" viewBox="0 0 21 22" fill="none" xmlns="http://www.w3.org/2000/svg">
<path fill-rule="evenodd" clip-rule="evenodd" d="M7.94513 0.250001H14.0549C15.4225 0.24998 16.5248 0.249963 17.3918 0.366524C18.2919 0.48754 19.0497 0.746434 19.6517 1.34835C20.2536 1.95027 20.5125 2.70814 20.6335 3.60825C20.75 4.47522 20.75 5.57754 20.75 6.94513V15.0549C20.75 16.4225 20.75 17.5248 20.6335 18.3918C20.5125 19.2919 20.2536 20.0497 19.6517 20.6517C19.0497 21.2536 18.2919 21.5125 17.3918 21.6335C16.5248 21.75 15.4225 21.75 14.0549 21.75H7.94513C7.63162 21.75 7.33204 21.75 7.04605 21.7486C7.03082 21.7495 7.01546 21.75 7 21.75C6.98169 21.75 6.96353 21.7493 6.94555 21.7481C6.02806 21.7424 5.25306 21.7202 4.60825 21.6335C3.70814 21.5125 2.95027 21.2536 2.34835 20.6517C1.74643 20.0497 1.48754 19.2919 1.36652 18.3918C1.2704 17.6768 1.25356 16.8018 1.25062 15.75H1C0.585786 15.75 0.25 15.4142 0.25 15C0.25 14.5858 0.585786 14.25 1 14.25H1.25V11.75H1C0.585786 11.75 0.25 11.4142 0.25 11C0.25 10.5858 0.585786 10.25 1 10.25H1.25V7.75H1C0.585786 7.75 0.25 7.41421 0.25 7C0.25 6.58579 0.585786 6.25 1 6.25H1.25062C1.25356 5.19818 1.2704 4.32319 1.36652 3.60825C1.48754 2.70814 1.74643 1.95027 2.34835 1.34835C2.95027 0.746434 3.70814 0.48754 4.60825 0.366524C5.47522 0.249963 6.57754 0.24998 7.94513 0.250001ZM2.75 7.75H3C3.41421 7.75 3.75 7.41421 3.75 7C3.75 6.58579 3.41421 6.25 3 6.25H2.75078C2.75398 5.2042 2.77029 4.42437 2.85315 3.80812C2.9518 3.07435 3.13225 2.68577 3.40901 2.40901C3.68577 2.13225 4.07434 1.9518 4.80812 1.85315C5.2098 1.79914 5.68097 1.77341 6.25 1.76115V20.2389C5.68097 20.2266 5.2098 20.2009 4.80812 20.1469C4.07434 20.0482 3.68577 19.8678 3.40901 19.591C3.13225 19.3142 2.9518 18.9257 2.85315 18.1919C2.77029 17.5756 2.75398 16.7958 2.75078 15.75H3C3.41421 15.75 3.75 15.4142 3.75 15C3.75 14.5858 3.41421 14.25 3 14.25H2.75V11.75H3C3.41421 11.75 3.75 11.4142 3.75 11C3.75 10.5858 3.41421 10.25 3 10.25H2.75V7.75ZM7.75 20.25C7.83184 20.25 7.91516 20.25 8 20.25H14C15.4354 20.25 16.4365 20.2484 17.1919 20.1469C17.9257 20.0482 18.3142 19.8678 18.591 19.591C18.8678 19.3142 19.0482 18.9257 19.1469 18.1919C19.2484 17.4365 19.25 16.4354 19.25 15V7C19.25 5.56458 19.2484 4.56347 19.1469 3.80812C19.0482 3.07435 18.8678 2.68577 18.591 2.40901C18.3142 2.13225 17.9257 1.9518 17.1919 1.85315C16.4365 1.75159 15.4354 1.75 14 1.75H8C7.91516 1.75 7.83184 1.75001 7.75 1.75004V20.25ZM9.75 5.5C9.75 5.08579 10.0858 4.75 10.5 4.75H15.5C15.9142 4.75 16.25 5.08579 16.25 5.5C16.25 5.91421 15.9142 6.25 15.5 6.25H10.5C10.0858 6.25 9.75 5.91421 9.75 5.5ZM9.75 9C9.75 8.58579 10.0858 8.25 10.5 8.25H15.5C15.9142 8.25 16.25 8.58579 16.25 9C16.25 9.41421 15.9142 9.75 15.5 9.75H10.5C10.0858 9.75 9.75 9.41421 9.75 9Z" fill="#1C274C"/>
</svg>
