<svg width="478" height="478" viewBox="0 0 478 478" fill="none" xmlns="http://www.w3.org/2000/svg">
<g opacity="0.1">
<path fillRule="evenodd" clipRule="evenodd" d="M5.63558e-05 107.051L478 107.051L478 108.229L5.63043e-05 108.229L5.63558e-05 107.051Z" fill="url(#paint0_linear_1709_1020)"/>
<path fillRule="evenodd" clipRule="evenodd" d="M5.79881e-05 69.7077L478 69.7077L478 70.8849L5.79367e-05 70.885L5.79881e-05 69.7077Z" fill="url(#paint1_linear_1709_1020)"/>
<path fillRule="evenodd" clipRule="evenodd" d="M5.96205e-05 32.3639L478 32.3639L478 33.5412L5.9569e-05 33.5412L5.96205e-05 32.3639Z" fill="url(#paint2_linear_1709_1020)"/>
<path fillRule="evenodd" clipRule="evenodd" d="M145.392 478L145.392 -1.44359e-05L146.569 -1.44873e-05L146.569 478L145.392 478Z" fill="url(#paint3_linear_1709_1020)"/>
<path fillRule="evenodd" clipRule="evenodd" d="M108.048 478L108.048 -1.60682e-05L109.225 -1.61197e-05L109.225 478L108.048 478Z" fill="url(#paint4_linear_1709_1020)"/>
<path fillRule="evenodd" clipRule="evenodd" d="M70.7042 478L70.7041 -1.77005e-05L71.8814 -1.7752e-05L71.8814 478L70.7042 478Z" fill="url(#paint5_linear_1709_1020)"/>
<path fillRule="evenodd" clipRule="evenodd" d="M33.3602 478L33.3601 -1.93329e-05L34.5374 -1.93844e-05L34.5375 478L33.3602 478Z" fill="url(#paint6_linear_1709_1020)"/>
<path fillRule="evenodd" clipRule="evenodd" d="M5.47234e-05 144.395L478 144.395L478 145.572L5.4672e-05 145.572L5.47234e-05 144.395Z" fill="url(#paint7_linear_1709_1020)"/>
<path fillRule="evenodd" clipRule="evenodd" d="M182.735 478L182.735 -1.28035e-05L183.913 -1.2855e-05L183.913 478L182.735 478Z" fill="url(#paint8_linear_1709_1020)"/>
<path fillRule="evenodd" clipRule="evenodd" d="M5.30911e-05 181.739L478 181.739L478 182.916L5.30396e-05 182.916L5.30911e-05 181.739Z" fill="url(#paint9_linear_1709_1020)"/>
<path fillRule="evenodd" clipRule="evenodd" d="M220.079 478L220.079 -1.11712e-05L221.257 -1.12226e-05L221.257 478L220.079 478Z" fill="url(#paint10_linear_1709_1020)"/>
<path fillRule="evenodd" clipRule="evenodd" d="M5.14587e-05 219.083L478 219.083L478 220.26L5.14073e-05 220.26L5.14587e-05 219.083Z" fill="url(#paint11_linear_1709_1020)"/>
<path fillRule="evenodd" clipRule="evenodd" d="M257.423 478L257.423 -9.53881e-06L258.6 -9.59027e-06L258.6 478L257.423 478Z" fill="url(#paint12_linear_1709_1020)"/>
<path fillRule="evenodd" clipRule="evenodd" d="M4.98264e-05 256.426L478 256.426L478 257.604L4.97749e-05 257.604L4.98264e-05 256.426Z" fill="url(#paint13_linear_1709_1020)"/>
<path fillRule="evenodd" clipRule="evenodd" d="M294.767 478L294.767 -7.90647e-06L295.944 -7.95793e-06L295.944 478L294.767 478Z" fill="url(#paint14_linear_1709_1020)"/>
<path fillRule="evenodd" clipRule="evenodd" d="M4.81941e-05 293.77L478 293.77L478 294.947L4.81426e-05 294.947L4.81941e-05 293.77Z" fill="url(#paint15_linear_1709_1020)"/>
<path fillRule="evenodd" clipRule="evenodd" d="M332.11 478L332.11 -6.27412e-06L333.288 -6.32558e-06L333.288 478L332.11 478Z" fill="url(#paint16_linear_1709_1020)"/>
<path fillRule="evenodd" clipRule="evenodd" d="M4.65617e-05 331.114L478 331.114L478 332.291L4.65102e-05 332.291L4.65617e-05 331.114Z" fill="url(#paint17_linear_1709_1020)"/>
<path fillRule="evenodd" clipRule="evenodd" d="M369.454 478L369.454 -4.64177e-06L370.631 -4.69323e-06L370.631 478L369.454 478Z" fill="url(#paint18_linear_1709_1020)"/>
<path fillRule="evenodd" clipRule="evenodd" d="M4.49294e-05 368.458L478 368.458L478 369.635L4.48779e-05 369.635L4.49294e-05 368.458Z" fill="url(#paint19_linear_1709_1020)"/>
<path fillRule="evenodd" clipRule="evenodd" d="M406.798 478L406.798 -3.00943e-06L407.975 -3.06089e-06L407.975 478L406.798 478Z" fill="url(#paint20_linear_1709_1020)"/>
<path fillRule="evenodd" clipRule="evenodd" d="M4.3297e-05 405.801L478 405.801L478 406.979L4.32455e-05 406.979L4.3297e-05 405.801Z" fill="url(#paint21_linear_1709_1020)"/>
<path fillRule="evenodd" clipRule="evenodd" d="M444.142 478L444.142 -1.37708e-06L445.319 -1.42854e-06L445.319 478L444.142 478Z" fill="url(#paint22_linear_1709_1020)"/>
<path d="M75.1855 368.458C73.1094 369.226 71.4725 370.863 70.7043 372.939C69.936 370.863 68.2991 369.226 66.223 368.458C68.2991 367.69 69.936 366.053 70.7043 363.977C71.4725 366.053 73.1094 367.69 75.1855 368.458Z" fill="url(#paint23_linear_1709_1020)"/>
<path d="M75.1855 405.802C73.1094 406.57 71.4725 408.207 70.7043 410.283C69.936 408.207 68.2991 406.57 66.223 405.802C68.2991 405.033 69.936 403.397 70.7043 401.32C71.4725 403.397 73.1094 405.033 75.1855 405.802Z" fill="url(#paint24_linear_1709_1020)"/>
<path d="M75.1855 331.114C73.1094 331.882 71.4725 333.519 70.7043 335.595C69.9361 333.519 68.2991 331.882 66.223 331.114C68.2991 330.346 69.9361 328.709 70.7043 326.633C71.4725 328.709 73.1094 330.346 75.1855 331.114Z" fill="url(#paint25_linear_1709_1020)"/>
<path d="M75.1855 293.77C73.1094 294.539 71.4725 296.176 70.7043 298.252C69.9361 296.176 68.2992 294.539 66.223 293.77C68.2992 293.002 69.9361 291.365 70.7043 289.289C71.4725 291.365 73.1094 293.002 75.1855 293.77Z" fill="url(#paint26_linear_1709_1020)"/>
<path d="M75.1855 256.427C73.1094 257.195 71.4725 258.832 70.7043 260.908C69.9361 258.832 68.2992 257.195 66.223 256.427C68.2992 255.658 69.9361 254.022 70.7043 251.945C71.4725 254.022 73.1094 255.658 75.1855 256.427Z" fill="url(#paint27_linear_1709_1020)"/>
<path d="M75.1855 219.083C73.1094 219.851 71.4725 221.488 70.7043 223.564C69.9361 221.488 68.2992 219.851 66.223 219.083C68.2992 218.315 69.9361 216.678 70.7043 214.602C71.4725 216.678 73.1094 218.315 75.1855 219.083Z" fill="url(#paint28_linear_1709_1020)"/>
<path d="M75.1855 144.395C73.1094 145.164 71.4725 146.801 70.7043 148.877C69.9361 146.801 68.2992 145.164 66.223 144.395C68.2992 143.627 69.9361 141.99 70.7043 139.914C71.4725 141.99 73.1094 143.627 75.1855 144.395Z" fill="url(#paint29_linear_1709_1020)"/>
<path d="M75.1855 181.739C73.1094 182.507 71.4725 184.144 70.7043 186.22C69.9361 184.144 68.2992 182.507 66.223 181.739C68.2992 180.971 69.9361 179.334 70.7043 177.258C71.4725 179.334 73.1094 180.971 75.1855 181.739Z" fill="url(#paint30_linear_1709_1020)"/>
<path d="M75.1855 107.052C73.1094 107.82 71.4725 109.457 70.7043 111.533C69.9361 109.457 68.2992 107.82 66.223 107.052C68.2992 106.283 69.9361 104.647 70.7043 102.57C71.4725 104.647 73.1094 106.283 75.1855 107.052Z" fill="url(#paint31_linear_1709_1020)"/>
<path d="M75.1855 69.708C73.1094 70.4762 71.4725 72.1131 70.7043 74.1892C69.9361 72.1131 68.2992 70.4762 66.223 69.708C68.2992 68.9397 69.9361 67.3028 70.7043 65.2267C71.4725 67.3028 73.1094 68.9397 75.1855 69.708Z" fill="url(#paint32_linear_1709_1020)"/>
<path d="M75.1856 32.3639C73.1095 33.1322 71.4726 34.7691 70.7044 36.8452C69.9361 34.7691 68.2993 33.1322 66.2231 32.3639C68.2993 31.5957 69.9361 29.9588 70.7044 27.8827C71.4726 29.9588 73.1095 31.5957 75.1856 32.3639Z" fill="url(#paint33_linear_1709_1020)"/>
<path d="M37.8418 368.458C35.7656 369.226 34.1288 370.863 33.3605 372.939C32.5923 370.863 30.9554 369.226 28.8793 368.458C30.9554 367.69 32.5923 366.053 33.3605 363.977C34.1288 366.053 35.7656 367.69 37.8418 368.458Z" fill="url(#paint34_linear_1709_1020)"/>
<path d="M37.8417 405.802C35.7656 406.57 34.1288 408.207 33.3605 410.283C32.5923 408.207 30.9554 406.57 28.8793 405.802C30.9554 405.033 32.5923 403.397 33.3605 401.32C34.1288 403.397 35.7656 405.033 37.8417 405.802Z" fill="url(#paint35_linear_1709_1020)"/>
<path d="M37.8418 331.114C35.7656 331.882 34.1288 333.519 33.3605 335.595C32.5923 333.519 30.9554 331.882 28.8793 331.114C30.9554 330.346 32.5923 328.709 33.3605 326.633C34.1288 328.709 35.7656 330.346 37.8418 331.114Z" fill="url(#paint36_linear_1709_1020)"/>
<path d="M37.8418 293.77C35.7656 294.539 34.1288 296.176 33.3605 298.252C32.5923 296.176 30.9554 294.539 28.8793 293.77C30.9554 293.002 32.5923 291.365 33.3605 289.289C34.1288 291.365 35.7656 293.002 37.8418 293.77Z" fill="url(#paint37_linear_1709_1020)"/>
<path d="M37.8418 256.427C35.7656 257.195 34.1288 258.832 33.3605 260.908C32.5923 258.832 30.9554 257.195 28.8793 256.427C30.9554 255.658 32.5923 254.022 33.3605 251.945C34.1288 254.022 35.7656 255.658 37.8418 256.427Z" fill="url(#paint38_linear_1709_1020)"/>
<path d="M37.8418 219.083C35.7656 219.851 34.1288 221.488 33.3605 223.564C32.5923 221.488 30.9554 219.851 28.8793 219.083C30.9554 218.315 32.5923 216.678 33.3605 214.602C34.1288 216.678 35.7656 218.315 37.8418 219.083Z" fill="url(#paint39_linear_1709_1020)"/>
<path d="M37.8418 144.395C35.7656 145.164 34.1288 146.801 33.3605 148.877C32.5923 146.801 30.9554 145.164 28.8793 144.395C30.9554 143.627 32.5923 141.99 33.3605 139.914C34.1288 141.99 35.7656 143.627 37.8418 144.395Z" fill="url(#paint40_linear_1709_1020)"/>
<path d="M37.8418 181.739C35.7656 182.507 34.1288 184.144 33.3605 186.22C32.5923 184.144 30.9554 182.507 28.8793 181.739C30.9554 180.971 32.5923 179.334 33.3605 177.258C34.1288 179.334 35.7656 180.971 37.8418 181.739Z" fill="url(#paint41_linear_1709_1020)"/>
<path d="M37.8418 107.052C35.7657 107.82 34.1288 109.457 33.3605 111.533C32.5923 109.457 30.9554 107.82 28.8793 107.052C30.9554 106.283 32.5923 104.647 33.3605 102.57C34.1288 104.647 35.7657 106.283 37.8418 107.052Z" fill="url(#paint42_linear_1709_1020)"/>
<path d="M37.8418 69.708C35.7657 70.4762 34.1288 72.1131 33.3605 74.1892C32.5923 72.1131 30.9554 70.4762 28.8793 69.708C30.9554 68.9397 32.5923 67.3028 33.3605 65.2267C34.1288 67.3028 35.7657 68.9397 37.8418 69.708Z" fill="url(#paint43_linear_1709_1020)"/>
<path d="M37.8419 32.3639C35.7657 33.1322 34.1288 34.7691 33.3606 36.8452C32.5924 34.7691 30.9555 33.1322 28.8794 32.3639C30.9555 31.5957 32.5924 29.9588 33.3606 27.8827C34.1288 29.9588 35.7657 31.5957 37.8419 32.3639Z" fill="url(#paint44_linear_1709_1020)"/>
<path d="M112.529 368.458C110.453 369.226 108.816 370.863 108.048 372.939C107.28 370.863 105.643 369.226 103.567 368.458C105.643 367.69 107.28 366.053 108.048 363.977C108.816 366.053 110.453 367.69 112.529 368.458Z" fill="url(#paint45_linear_1709_1020)"/>
<path d="M112.529 405.802C110.453 406.57 108.816 408.207 108.048 410.283C107.28 408.207 105.643 406.57 103.567 405.802C105.643 405.033 107.28 403.397 108.048 401.32C108.816 403.397 110.453 405.033 112.529 405.802Z" fill="url(#paint46_linear_1709_1020)"/>
<path d="M112.529 331.114C110.453 331.882 108.816 333.519 108.048 335.595C107.28 333.519 105.643 331.882 103.567 331.114C105.643 330.346 107.28 328.709 108.048 326.633C108.816 328.709 110.453 330.346 112.529 331.114Z" fill="url(#paint47_linear_1709_1020)"/>
<path d="M112.529 293.77C110.453 294.539 108.816 296.176 108.048 298.252C107.28 296.176 105.643 294.539 103.567 293.77C105.643 293.002 107.28 291.365 108.048 289.289C108.816 291.365 110.453 293.002 112.529 293.77Z" fill="url(#paint48_linear_1709_1020)"/>
<path d="M112.529 256.427C110.453 257.195 108.816 258.832 108.048 260.908C107.28 258.832 105.643 257.195 103.567 256.427C105.643 255.658 107.28 254.022 108.048 251.945C108.816 254.022 110.453 255.658 112.529 256.427Z" fill="url(#paint49_linear_1709_1020)"/>
<path d="M112.529 219.083C110.453 219.851 108.816 221.488 108.048 223.564C107.28 221.488 105.643 219.851 103.567 219.083C105.643 218.315 107.28 216.678 108.048 214.602C108.816 216.678 110.453 218.315 112.529 219.083Z" fill="url(#paint50_linear_1709_1020)"/>
<path d="M112.529 144.395C110.453 145.164 108.816 146.801 108.048 148.877C107.28 146.801 105.643 145.164 103.567 144.395C105.643 143.627 107.28 141.99 108.048 139.914C108.816 141.99 110.453 143.627 112.529 144.395Z" fill="url(#paint51_linear_1709_1020)"/>
<path d="M112.529 181.739C110.453 182.507 108.816 184.144 108.048 186.22C107.28 184.144 105.643 182.507 103.567 181.739C105.643 180.971 107.28 179.334 108.048 177.258C108.816 179.334 110.453 180.971 112.529 181.739Z" fill="url(#paint52_linear_1709_1020)"/>
<path d="M112.529 107.052C110.453 107.82 108.816 109.457 108.048 111.533C107.28 109.457 105.643 107.82 103.567 107.052C105.643 106.283 107.28 104.647 108.048 102.57C108.816 104.647 110.453 106.283 112.529 107.052Z" fill="url(#paint53_linear_1709_1020)"/>
<path d="M112.529 69.708C110.453 70.4762 108.816 72.1131 108.048 74.1892C107.28 72.1131 105.643 70.4762 103.567 69.708C105.643 68.9397 107.28 67.3028 108.048 65.2267C108.816 67.3028 110.453 68.9397 112.529 69.708Z" fill="url(#paint54_linear_1709_1020)"/>
<path d="M112.529 32.3639C110.453 33.1322 108.816 34.7691 108.048 36.8452C107.28 34.7691 105.643 33.1322 103.567 32.3639C105.643 31.5957 107.28 29.9588 108.048 27.8827C108.816 29.9588 110.453 31.5957 112.529 32.3639Z" fill="url(#paint55_linear_1709_1020)"/>
<path d="M149.873 368.458C147.797 369.226 146.16 370.863 145.392 372.939C144.624 370.863 142.987 369.226 140.911 368.458C142.987 367.69 144.624 366.053 145.392 363.977C146.16 366.053 147.797 367.69 149.873 368.458Z" fill="url(#paint56_linear_1709_1020)"/>
<path d="M149.873 405.802C147.797 406.57 146.16 408.207 145.392 410.283C144.624 408.207 142.987 406.57 140.911 405.802C142.987 405.033 144.624 403.397 145.392 401.32C146.16 403.397 147.797 405.033 149.873 405.802Z" fill="url(#paint57_linear_1709_1020)"/>
<path d="M149.873 331.114C147.797 331.882 146.16 333.519 145.392 335.595C144.624 333.519 142.987 331.882 140.911 331.114C142.987 330.346 144.624 328.709 145.392 326.633C146.16 328.709 147.797 330.346 149.873 331.114Z" fill="url(#paint58_linear_1709_1020)"/>
<path d="M149.873 293.77C147.797 294.539 146.16 296.176 145.392 298.252C144.624 296.176 142.987 294.539 140.911 293.77C142.987 293.002 144.624 291.365 145.392 289.289C146.16 291.365 147.797 293.002 149.873 293.77Z" fill="url(#paint59_linear_1709_1020)"/>
<path d="M149.873 256.427C147.797 257.195 146.16 258.832 145.392 260.908C144.624 258.832 142.987 257.195 140.911 256.427C142.987 255.658 144.624 254.022 145.392 251.945C146.16 254.022 147.797 255.658 149.873 256.427Z" fill="url(#paint60_linear_1709_1020)"/>
<path d="M149.873 219.083C147.797 219.851 146.16 221.488 145.392 223.564C144.624 221.488 142.987 219.851 140.911 219.083C142.987 218.315 144.624 216.678 145.392 214.602C146.16 216.678 147.797 218.315 149.873 219.083Z" fill="url(#paint61_linear_1709_1020)"/>
<path d="M149.873 144.395C147.797 145.164 146.16 146.801 145.392 148.877C144.624 146.801 142.987 145.164 140.911 144.395C142.987 143.627 144.624 141.99 145.392 139.914C146.16 141.99 147.797 143.627 149.873 144.395Z" fill="url(#paint62_linear_1709_1020)"/>
<path d="M149.873 181.739C147.797 182.507 146.16 184.144 145.392 186.22C144.624 184.144 142.987 182.507 140.911 181.739C142.987 180.971 144.624 179.334 145.392 177.258C146.16 179.334 147.797 180.971 149.873 181.739Z" fill="url(#paint63_linear_1709_1020)"/>
<path d="M149.873 107.052C147.797 107.82 146.16 109.457 145.392 111.533C144.624 109.457 142.987 107.82 140.911 107.052C142.987 106.283 144.624 104.647 145.392 102.57C146.16 104.647 147.797 106.283 149.873 107.052Z" fill="url(#paint64_linear_1709_1020)"/>
<path d="M149.873 69.708C147.797 70.4762 146.16 72.1131 145.392 74.1892C144.624 72.1131 142.987 70.4762 140.911 69.708C142.987 68.9397 144.624 67.3028 145.392 65.2267C146.16 67.3028 147.797 68.9397 149.873 69.708Z" fill="url(#paint65_linear_1709_1020)"/>
<path d="M149.873 32.3639C147.797 33.1322 146.16 34.7691 145.392 36.8452C144.624 34.7691 142.987 33.1322 140.911 32.3639C142.987 31.5957 144.624 29.9588 145.392 27.8827C146.16 29.9588 147.797 31.5957 149.873 32.3639Z" fill="url(#paint66_linear_1709_1020)"/>
<path d="M187.217 368.458C185.141 369.226 183.504 370.863 182.736 372.939C181.967 370.863 180.33 369.226 178.254 368.458C180.33 367.69 181.967 366.053 182.736 363.977C183.504 366.053 185.141 367.69 187.217 368.458Z" fill="url(#paint67_linear_1709_1020)"/>
<path d="M187.217 405.802C185.141 406.57 183.504 408.207 182.736 410.283C181.967 408.207 180.33 406.57 178.254 405.802C180.33 405.033 181.967 403.397 182.736 401.32C183.504 403.397 185.141 405.033 187.217 405.802Z" fill="url(#paint68_linear_1709_1020)"/>
<path d="M187.217 331.114C185.141 331.882 183.504 333.519 182.736 335.595C181.967 333.519 180.33 331.882 178.254 331.114C180.33 330.346 181.967 328.709 182.736 326.633C183.504 328.709 185.141 330.346 187.217 331.114Z" fill="url(#paint69_linear_1709_1020)"/>
<path d="M187.217 293.77C185.141 294.539 183.504 296.176 182.736 298.252C181.967 296.176 180.33 294.539 178.254 293.77C180.33 293.002 181.967 291.365 182.736 289.289C183.504 291.365 185.141 293.002 187.217 293.77Z" fill="url(#paint70_linear_1709_1020)"/>
<path d="M187.217 256.427C185.141 257.195 183.504 258.832 182.736 260.908C181.967 258.832 180.33 257.195 178.254 256.427C180.33 255.658 181.967 254.022 182.736 251.945C183.504 254.022 185.141 255.658 187.217 256.427Z" fill="url(#paint71_linear_1709_1020)"/>
<path d="M187.217 219.083C185.141 219.851 183.504 221.488 182.736 223.564C181.967 221.488 180.33 219.851 178.254 219.083C180.33 218.315 181.967 216.678 182.736 214.602C183.504 216.678 185.141 218.315 187.217 219.083Z" fill="url(#paint72_linear_1709_1020)"/>
<path d="M187.217 144.395C185.141 145.164 183.504 146.801 182.736 148.877C181.967 146.801 180.33 145.164 178.254 144.395C180.33 143.627 181.967 141.99 182.736 139.914C183.504 141.99 185.141 143.627 187.217 144.395Z" fill="url(#paint73_linear_1709_1020)"/>
<path d="M187.217 181.739C185.141 182.507 183.504 184.144 182.736 186.22C181.967 184.144 180.33 182.507 178.254 181.739C180.33 180.971 181.967 179.334 182.736 177.258C183.504 179.334 185.141 180.971 187.217 181.739Z" fill="url(#paint74_linear_1709_1020)"/>
<path d="M187.217 107.052C185.141 107.82 183.504 109.457 182.736 111.533C181.967 109.457 180.33 107.82 178.254 107.052C180.33 106.283 181.967 104.647 182.736 102.57C183.504 104.647 185.141 106.283 187.217 107.052Z" fill="url(#paint75_linear_1709_1020)"/>
<path d="M187.217 69.708C185.141 70.4762 183.504 72.1131 182.736 74.1892C181.967 72.1131 180.33 70.4762 178.254 69.708C180.33 68.9397 181.967 67.3028 182.736 65.2267C183.504 67.3028 185.141 68.9397 187.217 69.708Z" fill="url(#paint76_linear_1709_1020)"/>
<path d="M187.217 32.3639C185.141 33.1322 183.504 34.7691 182.736 36.8452C181.967 34.7691 180.33 33.1322 178.254 32.3639C180.33 31.5957 181.967 29.9588 182.736 27.8827C183.504 29.9588 185.141 31.5957 187.217 32.3639Z" fill="url(#paint77_linear_1709_1020)"/>
<path d="M224.561 368.458C222.484 369.226 220.848 370.863 220.079 372.939C219.311 370.863 217.674 369.226 215.598 368.458C217.674 367.69 219.311 366.053 220.079 363.977C220.848 366.053 222.484 367.69 224.561 368.458Z" fill="url(#paint78_linear_1709_1020)"/>
<path d="M224.561 405.802C222.484 406.57 220.848 408.207 220.079 410.283C219.311 408.207 217.674 406.57 215.598 405.802C217.674 405.033 219.311 403.397 220.079 401.32C220.848 403.397 222.484 405.033 224.561 405.802Z" fill="url(#paint79_linear_1709_1020)"/>
<path d="M224.561 331.114C222.484 331.882 220.848 333.519 220.079 335.595C219.311 333.519 217.674 331.882 215.598 331.114C217.674 330.346 219.311 328.709 220.079 326.633C220.848 328.709 222.484 330.346 224.561 331.114Z" fill="url(#paint80_linear_1709_1020)"/>
<path d="M224.561 293.77C222.484 294.539 220.848 296.176 220.079 298.252C219.311 296.176 217.674 294.539 215.598 293.77C217.674 293.002 219.311 291.365 220.079 289.289C220.848 291.365 222.484 293.002 224.561 293.77Z" fill="url(#paint81_linear_1709_1020)"/>
<path d="M224.561 256.427C222.484 257.195 220.848 258.832 220.079 260.908C219.311 258.832 217.674 257.195 215.598 256.427C217.674 255.658 219.311 254.022 220.079 251.945C220.848 254.022 222.484 255.658 224.561 256.427Z" fill="url(#paint82_linear_1709_1020)"/>
<path d="M224.561 219.083C222.484 219.851 220.848 221.488 220.079 223.564C219.311 221.488 217.674 219.851 215.598 219.083C217.674 218.315 219.311 216.678 220.079 214.602C220.848 216.678 222.484 218.315 224.561 219.083Z" fill="url(#paint83_linear_1709_1020)"/>
<path d="M224.561 144.395C222.484 145.164 220.848 146.801 220.079 148.877C219.311 146.801 217.674 145.164 215.598 144.395C217.674 143.627 219.311 141.99 220.079 139.914C220.848 141.99 222.484 143.627 224.561 144.395Z" fill="url(#paint84_linear_1709_1020)"/>
<path d="M224.561 181.739C222.484 182.507 220.848 184.144 220.079 186.22C219.311 184.144 217.674 182.507 215.598 181.739C217.674 180.971 219.311 179.334 220.079 177.258C220.848 179.334 222.484 180.971 224.561 181.739Z" fill="url(#paint85_linear_1709_1020)"/>
<path d="M224.561 107.052C222.484 107.82 220.848 109.457 220.079 111.533C219.311 109.457 217.674 107.82 215.598 107.052C217.674 106.283 219.311 104.647 220.079 102.57C220.848 104.647 222.484 106.283 224.561 107.052Z" fill="url(#paint86_linear_1709_1020)"/>
<path d="M224.561 69.708C222.484 70.4762 220.848 72.1131 220.079 74.1892C219.311 72.1131 217.674 70.4762 215.598 69.708C217.674 68.9397 219.311 67.3028 220.079 65.2267C220.848 67.3028 222.484 68.9397 224.561 69.708Z" fill="url(#paint87_linear_1709_1020)"/>
<path d="M224.561 32.3639C222.484 33.1322 220.848 34.7691 220.079 36.8452C219.311 34.7691 217.674 33.1322 215.598 32.3639C217.674 31.5957 219.311 29.9588 220.079 27.8827C220.848 29.9588 222.484 31.5957 224.561 32.3639Z" fill="url(#paint88_linear_1709_1020)"/>
<path d="M261.904 368.458C259.828 369.226 258.191 370.863 257.423 372.939C256.655 370.863 255.018 369.226 252.942 368.458C255.018 367.69 256.655 366.053 257.423 363.977C258.191 366.053 259.828 367.69 261.904 368.458Z" fill="url(#paint89_linear_1709_1020)"/>
<path d="M261.904 405.802C259.828 406.57 258.191 408.207 257.423 410.283C256.655 408.207 255.018 406.57 252.942 405.802C255.018 405.033 256.655 403.397 257.423 401.32C258.191 403.397 259.828 405.033 261.904 405.802Z" fill="url(#paint90_linear_1709_1020)"/>
<path d="M261.904 331.114C259.828 331.882 258.191 333.519 257.423 335.595C256.655 333.519 255.018 331.882 252.942 331.114C255.018 330.346 256.655 328.709 257.423 326.633C258.191 328.709 259.828 330.346 261.904 331.114Z" fill="url(#paint91_linear_1709_1020)"/>
<path d="M261.904 293.77C259.828 294.539 258.191 296.176 257.423 298.252C256.655 296.176 255.018 294.539 252.942 293.77C255.018 293.002 256.655 291.365 257.423 289.289C258.191 291.365 259.828 293.002 261.904 293.77Z" fill="url(#paint92_linear_1709_1020)"/>
<path d="M261.904 256.427C259.828 257.195 258.191 258.832 257.423 260.908C256.655 258.832 255.018 257.195 252.942 256.427C255.018 255.658 256.655 254.022 257.423 251.945C258.191 254.022 259.828 255.658 261.904 256.427Z" fill="url(#paint93_linear_1709_1020)"/>
<path d="M261.904 219.083C259.828 219.851 258.191 221.488 257.423 223.564C256.655 221.488 255.018 219.851 252.942 219.083C255.018 218.315 256.655 216.678 257.423 214.602C258.191 216.678 259.828 218.315 261.904 219.083Z" fill="url(#paint94_linear_1709_1020)"/>
<path d="M261.904 144.395C259.828 145.164 258.191 146.801 257.423 148.877C256.655 146.801 255.018 145.164 252.942 144.395C255.018 143.627 256.655 141.99 257.423 139.914C258.191 141.99 259.828 143.627 261.904 144.395Z" fill="url(#paint95_linear_1709_1020)"/>
<path d="M261.904 181.739C259.828 182.507 258.191 184.144 257.423 186.22C256.655 184.144 255.018 182.507 252.942 181.739C255.018 180.971 256.655 179.334 257.423 177.258C258.191 179.334 259.828 180.971 261.904 181.739Z" fill="url(#paint96_linear_1709_1020)"/>
<path d="M261.904 107.052C259.828 107.82 258.191 109.457 257.423 111.533C256.655 109.457 255.018 107.82 252.942 107.052C255.018 106.283 256.655 104.647 257.423 102.57C258.191 104.647 259.828 106.283 261.904 107.052Z" fill="url(#paint97_linear_1709_1020)"/>
<path d="M261.904 69.708C259.828 70.4762 258.191 72.1131 257.423 74.1892C256.655 72.1131 255.018 70.4762 252.942 69.708C255.018 68.9397 256.655 67.3028 257.423 65.2267C258.191 67.3028 259.828 68.9397 261.904 69.708Z" fill="url(#paint98_linear_1709_1020)"/>
<path d="M261.904 32.3639C259.828 33.1322 258.191 34.7691 257.423 36.8452C256.655 34.7691 255.018 33.1322 252.942 32.3639C255.018 31.5957 256.655 29.9588 257.423 27.8827C258.191 29.9588 259.828 31.5957 261.904 32.3639Z" fill="url(#paint99_linear_1709_1020)"/>
<path d="M299.248 368.458C297.172 369.226 295.535 370.863 294.767 372.939C293.999 370.863 292.362 369.226 290.286 368.458C292.362 367.69 293.999 366.053 294.767 363.977C295.535 366.053 297.172 367.69 299.248 368.458Z" fill="url(#paint100_linear_1709_1020)"/>
<path d="M299.248 405.802C297.172 406.57 295.535 408.207 294.767 410.283C293.999 408.207 292.362 406.57 290.286 405.802C292.362 405.034 293.999 403.397 294.767 401.32C295.535 403.397 297.172 405.034 299.248 405.802Z" fill="url(#paint101_linear_1709_1020)"/>
<path d="M299.248 331.114C297.172 331.882 295.535 333.519 294.767 335.595C293.999 333.519 292.362 331.882 290.286 331.114C292.362 330.346 293.999 328.709 294.767 326.633C295.535 328.709 297.172 330.346 299.248 331.114Z" fill="url(#paint102_linear_1709_1020)"/>
<path d="M299.248 293.77C297.172 294.539 295.535 296.176 294.767 298.252C293.999 296.176 292.362 294.539 290.286 293.77C292.362 293.002 293.999 291.365 294.767 289.289C295.535 291.365 297.172 293.002 299.248 293.77Z" fill="url(#paint103_linear_1709_1020)"/>
<path d="M299.248 256.427C297.172 257.195 295.535 258.832 294.767 260.908C293.999 258.832 292.362 257.195 290.286 256.427C292.362 255.658 293.999 254.022 294.767 251.945C295.535 254.022 297.172 255.658 299.248 256.427Z" fill="url(#paint104_linear_1709_1020)"/>
<path d="M299.248 219.083C297.172 219.851 295.535 221.488 294.767 223.564C293.999 221.488 292.362 219.851 290.286 219.083C292.362 218.315 293.999 216.678 294.767 214.602C295.535 216.678 297.172 218.315 299.248 219.083Z" fill="url(#paint105_linear_1709_1020)"/>
<path d="M299.248 144.395C297.172 145.164 295.535 146.801 294.767 148.877C293.999 146.801 292.362 145.164 290.286 144.395C292.362 143.627 293.999 141.99 294.767 139.914C295.535 141.99 297.172 143.627 299.248 144.395Z" fill="url(#paint106_linear_1709_1020)"/>
<path d="M299.248 181.739C297.172 182.507 295.535 184.144 294.767 186.22C293.999 184.144 292.362 182.507 290.286 181.739C292.362 180.971 293.999 179.334 294.767 177.258C295.535 179.334 297.172 180.971 299.248 181.739Z" fill="url(#paint107_linear_1709_1020)"/>
<path d="M299.248 107.052C297.172 107.82 295.535 109.457 294.767 111.533C293.999 109.457 292.362 107.82 290.286 107.052C292.362 106.283 293.999 104.647 294.767 102.57C295.535 104.647 297.172 106.283 299.248 107.052Z" fill="url(#paint108_linear_1709_1020)"/>
<path d="M299.248 69.708C297.172 70.4762 295.535 72.1131 294.767 74.1892C293.999 72.1131 292.362 70.4762 290.286 69.708C292.362 68.9397 293.999 67.3028 294.767 65.2267C295.535 67.3028 297.172 68.9397 299.248 69.708Z" fill="url(#paint109_linear_1709_1020)"/>
<path d="M299.248 32.3639C297.172 33.1322 295.535 34.7691 294.767 36.8452C293.999 34.7691 292.362 33.1322 290.286 32.3639C292.362 31.5957 293.999 29.9588 294.767 27.8827C295.535 29.9588 297.172 31.5957 299.248 32.3639Z" fill="url(#paint110_linear_1709_1020)"/>
<path d="M336.592 368.458C334.516 369.226 332.879 370.863 332.111 372.939C331.342 370.863 329.705 369.226 327.629 368.458C329.705 367.69 331.342 366.053 332.111 363.977C332.879 366.053 334.516 367.69 336.592 368.458Z" fill="url(#paint111_linear_1709_1020)"/>
<path d="M336.592 405.802C334.516 406.57 332.879 408.207 332.111 410.283C331.342 408.207 329.705 406.57 327.629 405.802C329.705 405.034 331.342 403.397 332.111 401.32C332.879 403.397 334.516 405.034 336.592 405.802Z" fill="url(#paint112_linear_1709_1020)"/>
<path d="M336.592 331.114C334.516 331.882 332.879 333.519 332.111 335.595C331.342 333.519 329.705 331.882 327.629 331.114C329.705 330.346 331.342 328.709 332.111 326.633C332.879 328.709 334.516 330.346 336.592 331.114Z" fill="url(#paint113_linear_1709_1020)"/>
<path d="M336.592 293.77C334.516 294.539 332.879 296.176 332.111 298.252C331.342 296.176 329.705 294.539 327.629 293.77C329.705 293.002 331.342 291.365 332.111 289.289C332.879 291.365 334.516 293.002 336.592 293.77Z" fill="url(#paint114_linear_1709_1020)"/>
<path d="M336.592 256.427C334.516 257.195 332.879 258.832 332.111 260.908C331.342 258.832 329.705 257.195 327.629 256.427C329.705 255.658 331.342 254.022 332.111 251.945C332.879 254.022 334.516 255.658 336.592 256.427Z" fill="url(#paint115_linear_1709_1020)"/>
<path d="M336.592 219.083C334.516 219.851 332.879 221.488 332.111 223.564C331.342 221.488 329.705 219.851 327.629 219.083C329.705 218.315 331.342 216.678 332.111 214.602C332.879 216.678 334.516 218.315 336.592 219.083Z" fill="url(#paint116_linear_1709_1020)"/>
<path d="M336.592 144.395C334.516 145.164 332.879 146.801 332.111 148.877C331.342 146.801 329.705 145.164 327.629 144.395C329.705 143.627 331.342 141.99 332.111 139.914C332.879 141.99 334.516 143.627 336.592 144.395Z" fill="url(#paint117_linear_1709_1020)"/>
<path d="M336.592 181.739C334.516 182.507 332.879 184.144 332.111 186.22C331.342 184.144 329.705 182.507 327.629 181.739C329.705 180.971 331.342 179.334 332.111 177.258C332.879 179.334 334.516 180.971 336.592 181.739Z" fill="url(#paint118_linear_1709_1020)"/>
<path d="M336.592 107.052C334.516 107.82 332.879 109.457 332.111 111.533C331.342 109.457 329.705 107.82 327.629 107.052C329.705 106.283 331.342 104.647 332.111 102.57C332.879 104.647 334.516 106.283 336.592 107.052Z" fill="url(#paint119_linear_1709_1020)"/>
<path d="M336.592 69.708C334.516 70.4762 332.879 72.1131 332.111 74.1892C331.342 72.1131 329.705 70.4762 327.629 69.708C329.705 68.9397 331.342 67.3028 332.111 65.2267C332.879 67.3028 334.516 68.9397 336.592 69.708Z" fill="url(#paint120_linear_1709_1020)"/>
<path d="M336.592 32.3639C334.516 33.1322 332.879 34.7691 332.111 36.8452C331.342 34.7691 329.705 33.1322 327.629 32.3639C329.705 31.5957 331.342 29.9588 332.111 27.8827C332.879 29.9588 334.516 31.5957 336.592 32.3639Z" fill="url(#paint121_linear_1709_1020)"/>
<path d="M373.936 368.458C371.859 369.226 370.222 370.863 369.454 372.939C368.686 370.863 367.049 369.226 364.973 368.458C367.049 367.69 368.686 366.053 369.454 363.977C370.222 366.053 371.859 367.69 373.936 368.458Z" fill="url(#paint122_linear_1709_1020)"/>
<path d="M373.935 405.802C371.859 406.57 370.222 408.207 369.454 410.283C368.686 408.207 367.049 406.57 364.973 405.802C367.049 405.034 368.686 403.397 369.454 401.32C370.222 403.397 371.859 405.034 373.935 405.802Z" fill="url(#paint123_linear_1709_1020)"/>
<path d="M373.936 331.114C371.859 331.882 370.222 333.519 369.454 335.595C368.686 333.519 367.049 331.882 364.973 331.114C367.049 330.346 368.686 328.709 369.454 326.633C370.222 328.709 371.859 330.346 373.936 331.114Z" fill="url(#paint124_linear_1709_1020)"/>
<path d="M373.936 293.77C371.859 294.539 370.222 296.176 369.454 298.252C368.686 296.176 367.049 294.539 364.973 293.77C367.049 293.002 368.686 291.365 369.454 289.289C370.222 291.365 371.859 293.002 373.936 293.77Z" fill="url(#paint125_linear_1709_1020)"/>
<path d="M373.936 256.427C371.859 257.195 370.222 258.832 369.454 260.908C368.686 258.832 367.049 257.195 364.973 256.427C367.049 255.658 368.686 254.022 369.454 251.945C370.222 254.022 371.859 255.658 373.936 256.427Z" fill="url(#paint126_linear_1709_1020)"/>
<path d="M373.936 219.083C371.859 219.851 370.222 221.488 369.454 223.564C368.686 221.488 367.049 219.851 364.973 219.083C367.049 218.315 368.686 216.678 369.454 214.602C370.222 216.678 371.859 218.315 373.936 219.083Z" fill="url(#paint127_linear_1709_1020)"/>
<path d="M373.936 144.395C371.859 145.164 370.222 146.801 369.454 148.877C368.686 146.801 367.049 145.164 364.973 144.395C367.049 143.627 368.686 141.99 369.454 139.914C370.222 141.99 371.859 143.627 373.936 144.395Z" fill="url(#paint128_linear_1709_1020)"/>
<path d="M373.936 181.739C371.859 182.507 370.222 184.144 369.454 186.22C368.686 184.144 367.049 182.507 364.973 181.739C367.049 180.971 368.686 179.334 369.454 177.258C370.222 179.334 371.859 180.971 373.936 181.739Z" fill="url(#paint129_linear_1709_1020)"/>
<path d="M373.936 107.052C371.859 107.82 370.222 109.457 369.454 111.533C368.686 109.457 367.049 107.82 364.973 107.052C367.049 106.283 368.686 104.647 369.454 102.57C370.222 104.647 371.859 106.283 373.936 107.052Z" fill="url(#paint130_linear_1709_1020)"/>
<path d="M373.936 69.708C371.859 70.4762 370.223 72.1131 369.454 74.1892C368.686 72.1131 367.049 70.4762 364.973 69.708C367.049 68.9397 368.686 67.3028 369.454 65.2267C370.223 67.3028 371.859 68.9397 373.936 69.708Z" fill="url(#paint131_linear_1709_1020)"/>
<path d="M373.936 32.3639C371.859 33.1322 370.223 34.7691 369.454 36.8452C368.686 34.7691 367.049 33.1322 364.973 32.3639C367.049 31.5957 368.686 29.9588 369.454 27.8827C370.223 29.9588 371.859 31.5957 373.936 32.3639Z" fill="url(#paint132_linear_1709_1020)"/>
<path d="M411.279 368.458C409.203 369.226 407.566 370.863 406.798 372.939C406.03 370.863 404.393 369.226 402.317 368.458C404.393 367.69 406.03 366.053 406.798 363.977C407.566 366.053 409.203 367.69 411.279 368.458Z" fill="url(#paint133_linear_1709_1020)"/>
<path d="M411.279 405.802C409.203 406.57 407.566 408.207 406.798 410.283C406.03 408.207 404.393 406.57 402.317 405.802C404.393 405.034 406.03 403.397 406.798 401.32C407.566 403.397 409.203 405.034 411.279 405.802Z" fill="url(#paint134_linear_1709_1020)"/>
<path d="M411.279 331.114C409.203 331.882 407.566 333.519 406.798 335.595C406.03 333.519 404.393 331.882 402.317 331.114C404.393 330.346 406.03 328.709 406.798 326.633C407.566 328.709 409.203 330.346 411.279 331.114Z" fill="url(#paint135_linear_1709_1020)"/>
<path d="M411.279 293.77C409.203 294.539 407.566 296.176 406.798 298.252C406.03 296.176 404.393 294.539 402.317 293.77C404.393 293.002 406.03 291.365 406.798 289.289C407.566 291.365 409.203 293.002 411.279 293.77Z" fill="url(#paint136_linear_1709_1020)"/>
<path d="M411.279 256.427C409.203 257.195 407.566 258.832 406.798 260.908C406.03 258.832 404.393 257.195 402.317 256.427C404.393 255.658 406.03 254.022 406.798 251.945C407.566 254.022 409.203 255.658 411.279 256.427Z" fill="url(#paint137_linear_1709_1020)"/>
<path d="M411.279 219.083C409.203 219.851 407.566 221.488 406.798 223.564C406.03 221.488 404.393 219.851 402.317 219.083C404.393 218.315 406.03 216.678 406.798 214.602C407.566 216.678 409.203 218.315 411.279 219.083Z" fill="url(#paint138_linear_1709_1020)"/>
<path d="M411.279 144.395C409.203 145.164 407.566 146.801 406.798 148.877C406.03 146.801 404.393 145.164 402.317 144.395C404.393 143.627 406.03 141.99 406.798 139.914C407.566 141.99 409.203 143.627 411.279 144.395Z" fill="url(#paint139_linear_1709_1020)"/>
<path d="M411.279 181.739C409.203 182.507 407.566 184.144 406.798 186.22C406.03 184.144 404.393 182.507 402.317 181.739C404.393 180.971 406.03 179.334 406.798 177.258C407.566 179.334 409.203 180.971 411.279 181.739Z" fill="url(#paint140_linear_1709_1020)"/>
<path d="M411.279 107.052C409.203 107.82 407.566 109.457 406.798 111.533C406.03 109.457 404.393 107.82 402.317 107.052C404.393 106.283 406.03 104.647 406.798 102.57C407.566 104.647 409.203 106.283 411.279 107.052Z" fill="url(#paint141_linear_1709_1020)"/>
<path d="M411.279 69.708C409.203 70.4762 407.566 72.1131 406.798 74.1892C406.03 72.1131 404.393 70.4762 402.317 69.708C404.393 68.9397 406.03 67.3028 406.798 65.2267C407.566 67.3028 409.203 68.9397 411.279 69.708Z" fill="url(#paint142_linear_1709_1020)"/>
<path d="M411.279 32.3639C409.203 33.1322 407.566 34.7691 406.798 36.8452C406.03 34.7691 404.393 33.1322 402.317 32.3639C404.393 31.5957 406.03 29.9588 406.798 27.8827C407.566 29.9588 409.203 31.5957 411.279 32.3639Z" fill="url(#paint143_linear_1709_1020)"/>
<path d="M448.623 368.458C446.547 369.226 444.91 370.863 444.142 372.939C443.374 370.863 441.737 369.226 439.66 368.458C441.737 367.69 443.374 366.053 444.142 363.977C444.91 366.053 446.547 367.69 448.623 368.458Z" fill="url(#paint144_linear_1709_1020)"/>
<path d="M448.623 405.802C446.547 406.57 444.91 408.207 444.142 410.283C443.374 408.207 441.737 406.57 439.66 405.802C441.737 405.034 443.374 403.397 444.142 401.32C444.91 403.397 446.547 405.034 448.623 405.802Z" fill="url(#paint145_linear_1709_1020)"/>
<path d="M448.623 331.114C446.547 331.882 444.91 333.519 444.142 335.595C443.374 333.519 441.737 331.882 439.661 331.114C441.737 330.346 443.374 328.709 444.142 326.633C444.91 328.709 446.547 330.346 448.623 331.114Z" fill="url(#paint146_linear_1709_1020)"/>
<path d="M448.623 293.77C446.547 294.539 444.91 296.176 444.142 298.252C443.374 296.176 441.737 294.539 439.661 293.77C441.737 293.002 443.374 291.365 444.142 289.289C444.91 291.365 446.547 293.002 448.623 293.77Z" fill="url(#paint147_linear_1709_1020)"/>
<path d="M448.623 256.427C446.547 257.195 444.91 258.832 444.142 260.908C443.374 258.832 441.737 257.195 439.661 256.427C441.737 255.658 443.374 254.022 444.142 251.945C444.91 254.022 446.547 255.658 448.623 256.427Z" fill="url(#paint148_linear_1709_1020)"/>
<path d="M448.623 219.083C446.547 219.851 444.91 221.488 444.142 223.564C443.374 221.488 441.737 219.851 439.661 219.083C441.737 218.315 443.374 216.678 444.142 214.602C444.91 216.678 446.547 218.315 448.623 219.083Z" fill="url(#paint149_linear_1709_1020)"/>
<path d="M448.623 144.395C446.547 145.164 444.91 146.801 444.142 148.877C443.374 146.801 441.737 145.164 439.661 144.395C441.737 143.627 443.374 141.99 444.142 139.914C444.91 141.99 446.547 143.627 448.623 144.395Z" fill="url(#paint150_linear_1709_1020)"/>
<path d="M448.623 181.739C446.547 182.507 444.91 184.144 444.142 186.22C443.374 184.144 441.737 182.507 439.661 181.739C441.737 180.971 443.374 179.334 444.142 177.258C444.91 179.334 446.547 180.971 448.623 181.739Z" fill="url(#paint151_linear_1709_1020)"/>
<path d="M448.623 107.052C446.547 107.82 444.91 109.457 444.142 111.533C443.374 109.457 441.737 107.82 439.661 107.052C441.737 106.283 443.374 104.647 444.142 102.57C444.91 104.647 446.547 106.283 448.623 107.052Z" fill="url(#paint152_linear_1709_1020)"/>
<path d="M448.623 69.708C446.547 70.4762 444.91 72.1131 444.142 74.1892C443.374 72.1131 441.737 70.4762 439.661 69.708C441.737 68.9397 443.374 67.3028 444.142 65.2267C444.91 67.3028 446.547 68.9397 448.623 69.708Z" fill="url(#paint153_linear_1709_1020)"/>
<path d="M448.623 32.3639C446.547 33.1322 444.91 34.7691 444.142 36.8452C443.374 34.7691 441.737 33.1322 439.661 32.3639C441.737 31.5957 443.374 29.9588 444.142 27.8827C444.91 29.9588 446.547 31.5957 448.623 32.3639Z" fill="url(#paint154_linear_1709_1020)"/>
</g>
<defs>
<linearGradient id="paint0_linear_1709_1020" x1="470.372" y1="13.3484" x2="255.527" y2="239" gradientUnits="userSpaceOnUse">
<stop stop-color="white"/>
<stop offset="1" stop-color="white" stop-opacity="0"/>
</linearGradient>
<linearGradient id="paint1_linear_1709_1020" x1="470.372" y1="13.3484" x2="255.527" y2="239" gradientUnits="userSpaceOnUse">
<stop stop-color="white"/>
<stop offset="1" stop-color="white" stop-opacity="0"/>
</linearGradient>
<linearGradient id="paint2_linear_1709_1020" x1="470.372" y1="13.3484" x2="255.527" y2="239" gradientUnits="userSpaceOnUse">
<stop stop-color="white"/>
<stop offset="1" stop-color="white" stop-opacity="0"/>
</linearGradient>
<linearGradient id="paint3_linear_1709_1020" x1="470.372" y1="13.3484" x2="255.527" y2="239" gradientUnits="userSpaceOnUse">
<stop stop-color="white"/>
<stop offset="1" stop-color="white" stop-opacity="0"/>
</linearGradient>
<linearGradient id="paint4_linear_1709_1020" x1="470.372" y1="13.3484" x2="255.527" y2="239" gradientUnits="userSpaceOnUse">
<stop stop-color="white"/>
<stop offset="1" stop-color="white" stop-opacity="0"/>
</linearGradient>
<linearGradient id="paint5_linear_1709_1020" x1="470.372" y1="13.3484" x2="255.527" y2="239" gradientUnits="userSpaceOnUse">
<stop stop-color="white"/>
<stop offset="1" stop-color="white" stop-opacity="0"/>
</linearGradient>
<linearGradient id="paint6_linear_1709_1020" x1="470.372" y1="13.3484" x2="255.527" y2="239" gradientUnits="userSpaceOnUse">
<stop stop-color="white"/>
<stop offset="1" stop-color="white" stop-opacity="0"/>
</linearGradient>
<linearGradient id="paint7_linear_1709_1020" x1="470.372" y1="13.3484" x2="255.527" y2="239" gradientUnits="userSpaceOnUse">
<stop stop-color="white"/>
<stop offset="1" stop-color="white" stop-opacity="0"/>
</linearGradient>
<linearGradient id="paint8_linear_1709_1020" x1="470.372" y1="13.3484" x2="255.527" y2="239" gradientUnits="userSpaceOnUse">
<stop stop-color="white"/>
<stop offset="1" stop-color="white" stop-opacity="0"/>
</linearGradient>
<linearGradient id="paint9_linear_1709_1020" x1="470.372" y1="13.3484" x2="255.527" y2="239" gradientUnits="userSpaceOnUse">
<stop stop-color="white"/>
<stop offset="1" stop-color="white" stop-opacity="0"/>
</linearGradient>
<linearGradient id="paint10_linear_1709_1020" x1="470.372" y1="13.3484" x2="255.527" y2="239" gradientUnits="userSpaceOnUse">
<stop stop-color="white"/>
<stop offset="1" stop-color="white" stop-opacity="0"/>
</linearGradient>
<linearGradient id="paint11_linear_1709_1020" x1="470.372" y1="13.3484" x2="255.527" y2="239" gradientUnits="userSpaceOnUse">
<stop stop-color="white"/>
<stop offset="1" stop-color="white" stop-opacity="0"/>
</linearGradient>
<linearGradient id="paint12_linear_1709_1020" x1="470.372" y1="13.3484" x2="255.527" y2="239" gradientUnits="userSpaceOnUse">
<stop stop-color="white"/>
<stop offset="1" stop-color="white" stop-opacity="0"/>
</linearGradient>
<linearGradient id="paint13_linear_1709_1020" x1="470.372" y1="13.3484" x2="255.527" y2="239" gradientUnits="userSpaceOnUse">
<stop stop-color="white"/>
<stop offset="1" stop-color="white" stop-opacity="0"/>
</linearGradient>
<linearGradient id="paint14_linear_1709_1020" x1="470.372" y1="13.3484" x2="255.527" y2="239" gradientUnits="userSpaceOnUse">
<stop stop-color="white"/>
<stop offset="1" stop-color="white" stop-opacity="0"/>
</linearGradient>
<linearGradient id="paint15_linear_1709_1020" x1="470.372" y1="13.3484" x2="255.527" y2="239" gradientUnits="userSpaceOnUse">
<stop stop-color="white"/>
<stop offset="1" stop-color="white" stop-opacity="0"/>
</linearGradient>
<linearGradient id="paint16_linear_1709_1020" x1="470.372" y1="13.3484" x2="255.527" y2="239" gradientUnits="userSpaceOnUse">
<stop stop-color="white"/>
<stop offset="1" stop-color="white" stop-opacity="0"/>
</linearGradient>
<linearGradient id="paint17_linear_1709_1020" x1="470.372" y1="13.3484" x2="255.527" y2="239" gradientUnits="userSpaceOnUse">
<stop stop-color="white"/>
<stop offset="1" stop-color="white" stop-opacity="0"/>
</linearGradient>
<linearGradient id="paint18_linear_1709_1020" x1="470.372" y1="13.3484" x2="255.527" y2="239" gradientUnits="userSpaceOnUse">
<stop stop-color="white"/>
<stop offset="1" stop-color="white" stop-opacity="0"/>
</linearGradient>
<linearGradient id="paint19_linear_1709_1020" x1="470.372" y1="13.3484" x2="255.527" y2="239" gradientUnits="userSpaceOnUse">
<stop stop-color="white"/>
<stop offset="1" stop-color="white" stop-opacity="0"/>
</linearGradient>
<linearGradient id="paint20_linear_1709_1020" x1="470.372" y1="13.3484" x2="255.527" y2="239" gradientUnits="userSpaceOnUse">
<stop stop-color="white"/>
<stop offset="1" stop-color="white" stop-opacity="0"/>
</linearGradient>
<linearGradient id="paint21_linear_1709_1020" x1="470.372" y1="13.3484" x2="255.527" y2="239" gradientUnits="userSpaceOnUse">
<stop stop-color="white"/>
<stop offset="1" stop-color="white" stop-opacity="0"/>
</linearGradient>
<linearGradient id="paint22_linear_1709_1020" x1="470.372" y1="13.3484" x2="255.527" y2="239" gradientUnits="userSpaceOnUse">
<stop stop-color="white"/>
<stop offset="1" stop-color="white" stop-opacity="0"/>
</linearGradient>
<linearGradient id="paint23_linear_1709_1020" x1="470.372" y1="13.3484" x2="255.527" y2="239" gradientUnits="userSpaceOnUse">
<stop stop-color="white"/>
<stop offset="1" stop-color="white" stop-opacity="0"/>
</linearGradient>
<linearGradient id="paint24_linear_1709_1020" x1="470.372" y1="13.3484" x2="255.527" y2="239" gradientUnits="userSpaceOnUse">
<stop stop-color="white"/>
<stop offset="1" stop-color="white" stop-opacity="0"/>
</linearGradient>
<linearGradient id="paint25_linear_1709_1020" x1="470.372" y1="13.3484" x2="255.527" y2="239" gradientUnits="userSpaceOnUse">
<stop stop-color="white"/>
<stop offset="1" stop-color="white" stop-opacity="0"/>
</linearGradient>
<linearGradient id="paint26_linear_1709_1020" x1="470.372" y1="13.3484" x2="255.527" y2="239" gradientUnits="userSpaceOnUse">
<stop stop-color="white"/>
<stop offset="1" stop-color="white" stop-opacity="0"/>
</linearGradient>
<linearGradient id="paint27_linear_1709_1020" x1="470.372" y1="13.3484" x2="255.527" y2="239" gradientUnits="userSpaceOnUse">
<stop stop-color="white"/>
<stop offset="1" stop-color="white" stop-opacity="0"/>
</linearGradient>
<linearGradient id="paint28_linear_1709_1020" x1="470.372" y1="13.3484" x2="255.527" y2="239" gradientUnits="userSpaceOnUse">
<stop stop-color="white"/>
<stop offset="1" stop-color="white" stop-opacity="0"/>
</linearGradient>
<linearGradient id="paint29_linear_1709_1020" x1="470.372" y1="13.3484" x2="255.527" y2="239" gradientUnits="userSpaceOnUse">
<stop stop-color="white"/>
<stop offset="1" stop-color="white" stop-opacity="0"/>
</linearGradient>
<linearGradient id="paint30_linear_1709_1020" x1="470.372" y1="13.3484" x2="255.527" y2="239" gradientUnits="userSpaceOnUse">
<stop stop-color="white"/>
<stop offset="1" stop-color="white" stop-opacity="0"/>
</linearGradient>
<linearGradient id="paint31_linear_1709_1020" x1="470.372" y1="13.3484" x2="255.527" y2="239" gradientUnits="userSpaceOnUse">
<stop stop-color="white"/>
<stop offset="1" stop-color="white" stop-opacity="0"/>
</linearGradient>
<linearGradient id="paint32_linear_1709_1020" x1="470.372" y1="13.3484" x2="255.527" y2="239" gradientUnits="userSpaceOnUse">
<stop stop-color="white"/>
<stop offset="1" stop-color="white" stop-opacity="0"/>
</linearGradient>
<linearGradient id="paint33_linear_1709_1020" x1="470.372" y1="13.3484" x2="255.527" y2="239" gradientUnits="userSpaceOnUse">
<stop stop-color="white"/>
<stop offset="1" stop-color="white" stop-opacity="0"/>
</linearGradient>
<linearGradient id="paint34_linear_1709_1020" x1="470.372" y1="13.3484" x2="255.527" y2="239" gradientUnits="userSpaceOnUse">
<stop stop-color="white"/>
<stop offset="1" stop-color="white" stop-opacity="0"/>
</linearGradient>
<linearGradient id="paint35_linear_1709_1020" x1="470.372" y1="13.3484" x2="255.527" y2="239" gradientUnits="userSpaceOnUse">
<stop stop-color="white"/>
<stop offset="1" stop-color="white" stop-opacity="0"/>
</linearGradient>
<linearGradient id="paint36_linear_1709_1020" x1="470.372" y1="13.3484" x2="255.527" y2="239" gradientUnits="userSpaceOnUse">
<stop stop-color="white"/>
<stop offset="1" stop-color="white" stop-opacity="0"/>
</linearGradient>
<linearGradient id="paint37_linear_1709_1020" x1="470.372" y1="13.3484" x2="255.527" y2="239" gradientUnits="userSpaceOnUse">
<stop stop-color="white"/>
<stop offset="1" stop-color="white" stop-opacity="0"/>
</linearGradient>
<linearGradient id="paint38_linear_1709_1020" x1="470.372" y1="13.3484" x2="255.527" y2="239" gradientUnits="userSpaceOnUse">
<stop stop-color="white"/>
<stop offset="1" stop-color="white" stop-opacity="0"/>
</linearGradient>
<linearGradient id="paint39_linear_1709_1020" x1="470.372" y1="13.3484" x2="255.527" y2="239" gradientUnits="userSpaceOnUse">
<stop stop-color="white"/>
<stop offset="1" stop-color="white" stop-opacity="0"/>
</linearGradient>
<linearGradient id="paint40_linear_1709_1020" x1="470.372" y1="13.3484" x2="255.527" y2="239" gradientUnits="userSpaceOnUse">
<stop stop-color="white"/>
<stop offset="1" stop-color="white" stop-opacity="0"/>
</linearGradient>
<linearGradient id="paint41_linear_1709_1020" x1="470.372" y1="13.3484" x2="255.527" y2="239" gradientUnits="userSpaceOnUse">
<stop stop-color="white"/>
<stop offset="1" stop-color="white" stop-opacity="0"/>
</linearGradient>
<linearGradient id="paint42_linear_1709_1020" x1="470.372" y1="13.3484" x2="255.527" y2="239" gradientUnits="userSpaceOnUse">
<stop stop-color="white"/>
<stop offset="1" stop-color="white" stop-opacity="0"/>
</linearGradient>
<linearGradient id="paint43_linear_1709_1020" x1="470.372" y1="13.3484" x2="255.527" y2="239" gradientUnits="userSpaceOnUse">
<stop stop-color="white"/>
<stop offset="1" stop-color="white" stop-opacity="0"/>
</linearGradient>
<linearGradient id="paint44_linear_1709_1020" x1="470.372" y1="13.3484" x2="255.527" y2="239" gradientUnits="userSpaceOnUse">
<stop stop-color="white"/>
<stop offset="1" stop-color="white" stop-opacity="0"/>
</linearGradient>
<linearGradient id="paint45_linear_1709_1020" x1="470.372" y1="13.3484" x2="255.527" y2="239" gradientUnits="userSpaceOnUse">
<stop stop-color="white"/>
<stop offset="1" stop-color="white" stop-opacity="0"/>
</linearGradient>
<linearGradient id="paint46_linear_1709_1020" x1="470.372" y1="13.3484" x2="255.527" y2="239" gradientUnits="userSpaceOnUse">
<stop stop-color="white"/>
<stop offset="1" stop-color="white" stop-opacity="0"/>
</linearGradient>
<linearGradient id="paint47_linear_1709_1020" x1="470.372" y1="13.3484" x2="255.527" y2="239" gradientUnits="userSpaceOnUse">
<stop stop-color="white"/>
<stop offset="1" stop-color="white" stop-opacity="0"/>
</linearGradient>
<linearGradient id="paint48_linear_1709_1020" x1="470.372" y1="13.3484" x2="255.527" y2="239" gradientUnits="userSpaceOnUse">
<stop stop-color="white"/>
<stop offset="1" stop-color="white" stop-opacity="0"/>
</linearGradient>
<linearGradient id="paint49_linear_1709_1020" x1="470.372" y1="13.3484" x2="255.527" y2="239" gradientUnits="userSpaceOnUse">
<stop stop-color="white"/>
<stop offset="1" stop-color="white" stop-opacity="0"/>
</linearGradient>
<linearGradient id="paint50_linear_1709_1020" x1="470.372" y1="13.3484" x2="255.527" y2="239" gradientUnits="userSpaceOnUse">
<stop stop-color="white"/>
<stop offset="1" stop-color="white" stop-opacity="0"/>
</linearGradient>
<linearGradient id="paint51_linear_1709_1020" x1="470.372" y1="13.3484" x2="255.527" y2="239" gradientUnits="userSpaceOnUse">
<stop stop-color="white"/>
<stop offset="1" stop-color="white" stop-opacity="0"/>
</linearGradient>
<linearGradient id="paint52_linear_1709_1020" x1="470.372" y1="13.3484" x2="255.527" y2="239" gradientUnits="userSpaceOnUse">
<stop stop-color="white"/>
<stop offset="1" stop-color="white" stop-opacity="0"/>
</linearGradient>
<linearGradient id="paint53_linear_1709_1020" x1="470.372" y1="13.3484" x2="255.527" y2="239" gradientUnits="userSpaceOnUse">
<stop stop-color="white"/>
<stop offset="1" stop-color="white" stop-opacity="0"/>
</linearGradient>
<linearGradient id="paint54_linear_1709_1020" x1="470.372" y1="13.3484" x2="255.527" y2="239" gradientUnits="userSpaceOnUse">
<stop stop-color="white"/>
<stop offset="1" stop-color="white" stop-opacity="0"/>
</linearGradient>
<linearGradient id="paint55_linear_1709_1020" x1="470.372" y1="13.3484" x2="255.527" y2="239" gradientUnits="userSpaceOnUse">
<stop stop-color="white"/>
<stop offset="1" stop-color="white" stop-opacity="0"/>
</linearGradient>
<linearGradient id="paint56_linear_1709_1020" x1="470.372" y1="13.3484" x2="255.527" y2="239" gradientUnits="userSpaceOnUse">
<stop stop-color="white"/>
<stop offset="1" stop-color="white" stop-opacity="0"/>
</linearGradient>
<linearGradient id="paint57_linear_1709_1020" x1="470.372" y1="13.3484" x2="255.527" y2="239" gradientUnits="userSpaceOnUse">
<stop stop-color="white"/>
<stop offset="1" stop-color="white" stop-opacity="0"/>
</linearGradient>
<linearGradient id="paint58_linear_1709_1020" x1="470.372" y1="13.3484" x2="255.527" y2="239" gradientUnits="userSpaceOnUse">
<stop stop-color="white"/>
<stop offset="1" stop-color="white" stop-opacity="0"/>
</linearGradient>
<linearGradient id="paint59_linear_1709_1020" x1="470.372" y1="13.3484" x2="255.527" y2="239" gradientUnits="userSpaceOnUse">
<stop stop-color="white"/>
<stop offset="1" stop-color="white" stop-opacity="0"/>
</linearGradient>
<linearGradient id="paint60_linear_1709_1020" x1="470.372" y1="13.3484" x2="255.527" y2="239" gradientUnits="userSpaceOnUse">
<stop stop-color="white"/>
<stop offset="1" stop-color="white" stop-opacity="0"/>
</linearGradient>
<linearGradient id="paint61_linear_1709_1020" x1="470.372" y1="13.3484" x2="255.527" y2="239" gradientUnits="userSpaceOnUse">
<stop stop-color="white"/>
<stop offset="1" stop-color="white" stop-opacity="0"/>
</linearGradient>
<linearGradient id="paint62_linear_1709_1020" x1="470.372" y1="13.3484" x2="255.527" y2="239" gradientUnits="userSpaceOnUse">
<stop stop-color="white"/>
<stop offset="1" stop-color="white" stop-opacity="0"/>
</linearGradient>
<linearGradient id="paint63_linear_1709_1020" x1="470.372" y1="13.3484" x2="255.527" y2="239" gradientUnits="userSpaceOnUse">
<stop stop-color="white"/>
<stop offset="1" stop-color="white" stop-opacity="0"/>
</linearGradient>
<linearGradient id="paint64_linear_1709_1020" x1="470.372" y1="13.3484" x2="255.527" y2="239" gradientUnits="userSpaceOnUse">
<stop stop-color="white"/>
<stop offset="1" stop-color="white" stop-opacity="0"/>
</linearGradient>
<linearGradient id="paint65_linear_1709_1020" x1="470.372" y1="13.3484" x2="255.527" y2="239" gradientUnits="userSpaceOnUse">
<stop stop-color="white"/>
<stop offset="1" stop-color="white" stop-opacity="0"/>
</linearGradient>
<linearGradient id="paint66_linear_1709_1020" x1="470.372" y1="13.3484" x2="255.527" y2="239" gradientUnits="userSpaceOnUse">
<stop stop-color="white"/>
<stop offset="1" stop-color="white" stop-opacity="0"/>
</linearGradient>
<linearGradient id="paint67_linear_1709_1020" x1="470.372" y1="13.3484" x2="255.527" y2="239" gradientUnits="userSpaceOnUse">
<stop stop-color="white"/>
<stop offset="1" stop-color="white" stop-opacity="0"/>
</linearGradient>
<linearGradient id="paint68_linear_1709_1020" x1="470.372" y1="13.3484" x2="255.527" y2="239" gradientUnits="userSpaceOnUse">
<stop stop-color="white"/>
<stop offset="1" stop-color="white" stop-opacity="0"/>
</linearGradient>
<linearGradient id="paint69_linear_1709_1020" x1="470.372" y1="13.3484" x2="255.527" y2="239" gradientUnits="userSpaceOnUse">
<stop stop-color="white"/>
<stop offset="1" stop-color="white" stop-opacity="0"/>
</linearGradient>
<linearGradient id="paint70_linear_1709_1020" x1="470.372" y1="13.3484" x2="255.527" y2="239" gradientUnits="userSpaceOnUse">
<stop stop-color="white"/>
<stop offset="1" stop-color="white" stop-opacity="0"/>
</linearGradient>
<linearGradient id="paint71_linear_1709_1020" x1="470.372" y1="13.3484" x2="255.527" y2="239" gradientUnits="userSpaceOnUse">
<stop stop-color="white"/>
<stop offset="1" stop-color="white" stop-opacity="0"/>
</linearGradient>
<linearGradient id="paint72_linear_1709_1020" x1="470.372" y1="13.3484" x2="255.527" y2="239" gradientUnits="userSpaceOnUse">
<stop stop-color="white"/>
<stop offset="1" stop-color="white" stop-opacity="0"/>
</linearGradient>
<linearGradient id="paint73_linear_1709_1020" x1="470.372" y1="13.3484" x2="255.527" y2="239" gradientUnits="userSpaceOnUse">
<stop stop-color="white"/>
<stop offset="1" stop-color="white" stop-opacity="0"/>
</linearGradient>
<linearGradient id="paint74_linear_1709_1020" x1="470.372" y1="13.3484" x2="255.527" y2="239" gradientUnits="userSpaceOnUse">
<stop stop-color="white"/>
<stop offset="1" stop-color="white" stop-opacity="0"/>
</linearGradient>
<linearGradient id="paint75_linear_1709_1020" x1="470.372" y1="13.3484" x2="255.527" y2="239" gradientUnits="userSpaceOnUse">
<stop stop-color="white"/>
<stop offset="1" stop-color="white" stop-opacity="0"/>
</linearGradient>
<linearGradient id="paint76_linear_1709_1020" x1="470.372" y1="13.3484" x2="255.527" y2="239" gradientUnits="userSpaceOnUse">
<stop stop-color="white"/>
<stop offset="1" stop-color="white" stop-opacity="0"/>
</linearGradient>
<linearGradient id="paint77_linear_1709_1020" x1="470.372" y1="13.3484" x2="255.527" y2="239" gradientUnits="userSpaceOnUse">
<stop stop-color="white"/>
<stop offset="1" stop-color="white" stop-opacity="0"/>
</linearGradient>
<linearGradient id="paint78_linear_1709_1020" x1="470.372" y1="13.3484" x2="255.527" y2="239" gradientUnits="userSpaceOnUse">
<stop stop-color="white"/>
<stop offset="1" stop-color="white" stop-opacity="0"/>
</linearGradient>
<linearGradient id="paint79_linear_1709_1020" x1="470.372" y1="13.3484" x2="255.527" y2="239" gradientUnits="userSpaceOnUse">
<stop stop-color="white"/>
<stop offset="1" stop-color="white" stop-opacity="0"/>
</linearGradient>
<linearGradient id="paint80_linear_1709_1020" x1="470.372" y1="13.3484" x2="255.527" y2="239" gradientUnits="userSpaceOnUse">
<stop stop-color="white"/>
<stop offset="1" stop-color="white" stop-opacity="0"/>
</linearGradient>
<linearGradient id="paint81_linear_1709_1020" x1="470.372" y1="13.3484" x2="255.527" y2="239" gradientUnits="userSpaceOnUse">
<stop stop-color="white"/>
<stop offset="1" stop-color="white" stop-opacity="0"/>
</linearGradient>
<linearGradient id="paint82_linear_1709_1020" x1="470.372" y1="13.3484" x2="255.527" y2="239" gradientUnits="userSpaceOnUse">
<stop stop-color="white"/>
<stop offset="1" stop-color="white" stop-opacity="0"/>
</linearGradient>
<linearGradient id="paint83_linear_1709_1020" x1="470.372" y1="13.3484" x2="255.527" y2="239" gradientUnits="userSpaceOnUse">
<stop stop-color="white"/>
<stop offset="1" stop-color="white" stop-opacity="0"/>
</linearGradient>
<linearGradient id="paint84_linear_1709_1020" x1="470.372" y1="13.3484" x2="255.527" y2="239" gradientUnits="userSpaceOnUse">
<stop stop-color="white"/>
<stop offset="1" stop-color="white" stop-opacity="0"/>
</linearGradient>
<linearGradient id="paint85_linear_1709_1020" x1="470.372" y1="13.3484" x2="255.527" y2="239" gradientUnits="userSpaceOnUse">
<stop stop-color="white"/>
<stop offset="1" stop-color="white" stop-opacity="0"/>
</linearGradient>
<linearGradient id="paint86_linear_1709_1020" x1="470.372" y1="13.3484" x2="255.527" y2="239" gradientUnits="userSpaceOnUse">
<stop stop-color="white"/>
<stop offset="1" stop-color="white" stop-opacity="0"/>
</linearGradient>
<linearGradient id="paint87_linear_1709_1020" x1="470.372" y1="13.3484" x2="255.527" y2="239" gradientUnits="userSpaceOnUse">
<stop stop-color="white"/>
<stop offset="1" stop-color="white" stop-opacity="0"/>
</linearGradient>
<linearGradient id="paint88_linear_1709_1020" x1="470.372" y1="13.3484" x2="255.527" y2="239" gradientUnits="userSpaceOnUse">
<stop stop-color="white"/>
<stop offset="1" stop-color="white" stop-opacity="0"/>
</linearGradient>
<linearGradient id="paint89_linear_1709_1020" x1="470.372" y1="13.3484" x2="255.527" y2="239" gradientUnits="userSpaceOnUse">
<stop stop-color="white"/>
<stop offset="1" stop-color="white" stop-opacity="0"/>
</linearGradient>
<linearGradient id="paint90_linear_1709_1020" x1="470.372" y1="13.3484" x2="255.527" y2="239" gradientUnits="userSpaceOnUse">
<stop stop-color="white"/>
<stop offset="1" stop-color="white" stop-opacity="0"/>
</linearGradient>
<linearGradient id="paint91_linear_1709_1020" x1="470.372" y1="13.3484" x2="255.527" y2="239" gradientUnits="userSpaceOnUse">
<stop stop-color="white"/>
<stop offset="1" stop-color="white" stop-opacity="0"/>
</linearGradient>
<linearGradient id="paint92_linear_1709_1020" x1="470.372" y1="13.3484" x2="255.527" y2="239" gradientUnits="userSpaceOnUse">
<stop stop-color="white"/>
<stop offset="1" stop-color="white" stop-opacity="0"/>
</linearGradient>
<linearGradient id="paint93_linear_1709_1020" x1="470.372" y1="13.3484" x2="255.527" y2="239" gradientUnits="userSpaceOnUse">
<stop stop-color="white"/>
<stop offset="1" stop-color="white" stop-opacity="0"/>
</linearGradient>
<linearGradient id="paint94_linear_1709_1020" x1="470.372" y1="13.3484" x2="255.527" y2="239" gradientUnits="userSpaceOnUse">
<stop stop-color="white"/>
<stop offset="1" stop-color="white" stop-opacity="0"/>
</linearGradient>
<linearGradient id="paint95_linear_1709_1020" x1="470.372" y1="13.3484" x2="255.527" y2="239" gradientUnits="userSpaceOnUse">
<stop stop-color="white"/>
<stop offset="1" stop-color="white" stop-opacity="0"/>
</linearGradient>
<linearGradient id="paint96_linear_1709_1020" x1="470.372" y1="13.3484" x2="255.527" y2="239" gradientUnits="userSpaceOnUse">
<stop stop-color="white"/>
<stop offset="1" stop-color="white" stop-opacity="0"/>
</linearGradient>
<linearGradient id="paint97_linear_1709_1020" x1="470.372" y1="13.3484" x2="255.527" y2="239" gradientUnits="userSpaceOnUse">
<stop stop-color="white"/>
<stop offset="1" stop-color="white" stop-opacity="0"/>
</linearGradient>
<linearGradient id="paint98_linear_1709_1020" x1="470.372" y1="13.3484" x2="255.527" y2="239" gradientUnits="userSpaceOnUse">
<stop stop-color="white"/>
<stop offset="1" stop-color="white" stop-opacity="0"/>
</linearGradient>
<linearGradient id="paint99_linear_1709_1020" x1="470.372" y1="13.3484" x2="255.527" y2="239" gradientUnits="userSpaceOnUse">
<stop stop-color="white"/>
<stop offset="1" stop-color="white" stop-opacity="0"/>
</linearGradient>
<linearGradient id="paint100_linear_1709_1020" x1="470.372" y1="13.3484" x2="255.527" y2="239" gradientUnits="userSpaceOnUse">
<stop stop-color="white"/>
<stop offset="1" stop-color="white" stop-opacity="0"/>
</linearGradient>
<linearGradient id="paint101_linear_1709_1020" x1="470.372" y1="13.3484" x2="255.527" y2="239" gradientUnits="userSpaceOnUse">
<stop stop-color="white"/>
<stop offset="1" stop-color="white" stop-opacity="0"/>
</linearGradient>
<linearGradient id="paint102_linear_1709_1020" x1="470.372" y1="13.3484" x2="255.527" y2="239" gradientUnits="userSpaceOnUse">
<stop stop-color="white"/>
<stop offset="1" stop-color="white" stop-opacity="0"/>
</linearGradient>
<linearGradient id="paint103_linear_1709_1020" x1="470.372" y1="13.3484" x2="255.527" y2="239" gradientUnits="userSpaceOnUse">
<stop stop-color="white"/>
<stop offset="1" stop-color="white" stop-opacity="0"/>
</linearGradient>
<linearGradient id="paint104_linear_1709_1020" x1="470.372" y1="13.3484" x2="255.527" y2="239" gradientUnits="userSpaceOnUse">
<stop stop-color="white"/>
<stop offset="1" stop-color="white" stop-opacity="0"/>
</linearGradient>
<linearGradient id="paint105_linear_1709_1020" x1="470.372" y1="13.3484" x2="255.527" y2="239" gradientUnits="userSpaceOnUse">
<stop stop-color="white"/>
<stop offset="1" stop-color="white" stop-opacity="0"/>
</linearGradient>
<linearGradient id="paint106_linear_1709_1020" x1="470.372" y1="13.3484" x2="255.527" y2="239" gradientUnits="userSpaceOnUse">
<stop stop-color="white"/>
<stop offset="1" stop-color="white" stop-opacity="0"/>
</linearGradient>
<linearGradient id="paint107_linear_1709_1020" x1="470.372" y1="13.3484" x2="255.527" y2="239" gradientUnits="userSpaceOnUse">
<stop stop-color="white"/>
<stop offset="1" stop-color="white" stop-opacity="0"/>
</linearGradient>
<linearGradient id="paint108_linear_1709_1020" x1="470.372" y1="13.3484" x2="255.527" y2="239" gradientUnits="userSpaceOnUse">
<stop stop-color="white"/>
<stop offset="1" stop-color="white" stop-opacity="0"/>
</linearGradient>
<linearGradient id="paint109_linear_1709_1020" x1="470.372" y1="13.3484" x2="255.527" y2="239" gradientUnits="userSpaceOnUse">
<stop stop-color="white"/>
<stop offset="1" stop-color="white" stop-opacity="0"/>
</linearGradient>
<linearGradient id="paint110_linear_1709_1020" x1="470.372" y1="13.3484" x2="255.527" y2="239" gradientUnits="userSpaceOnUse">
<stop stop-color="white"/>
<stop offset="1" stop-color="white" stop-opacity="0"/>
</linearGradient>
<linearGradient id="paint111_linear_1709_1020" x1="470.372" y1="13.3484" x2="255.527" y2="239" gradientUnits="userSpaceOnUse">
<stop stop-color="white"/>
<stop offset="1" stop-color="white" stop-opacity="0"/>
</linearGradient>
<linearGradient id="paint112_linear_1709_1020" x1="470.372" y1="13.3484" x2="255.527" y2="239" gradientUnits="userSpaceOnUse">
<stop stop-color="white"/>
<stop offset="1" stop-color="white" stop-opacity="0"/>
</linearGradient>
<linearGradient id="paint113_linear_1709_1020" x1="470.372" y1="13.3484" x2="255.527" y2="239" gradientUnits="userSpaceOnUse">
<stop stop-color="white"/>
<stop offset="1" stop-color="white" stop-opacity="0"/>
</linearGradient>
<linearGradient id="paint114_linear_1709_1020" x1="470.372" y1="13.3484" x2="255.527" y2="239" gradientUnits="userSpaceOnUse">
<stop stop-color="white"/>
<stop offset="1" stop-color="white" stop-opacity="0"/>
</linearGradient>
<linearGradient id="paint115_linear_1709_1020" x1="470.372" y1="13.3484" x2="255.527" y2="239" gradientUnits="userSpaceOnUse">
<stop stop-color="white"/>
<stop offset="1" stop-color="white" stop-opacity="0"/>
</linearGradient>
<linearGradient id="paint116_linear_1709_1020" x1="470.372" y1="13.3484" x2="255.527" y2="239" gradientUnits="userSpaceOnUse">
<stop stop-color="white"/>
<stop offset="1" stop-color="white" stop-opacity="0"/>
</linearGradient>
<linearGradient id="paint117_linear_1709_1020" x1="470.372" y1="13.3484" x2="255.527" y2="239" gradientUnits="userSpaceOnUse">
<stop stop-color="white"/>
<stop offset="1" stop-color="white" stop-opacity="0"/>
</linearGradient>
<linearGradient id="paint118_linear_1709_1020" x1="470.372" y1="13.3484" x2="255.527" y2="239" gradientUnits="userSpaceOnUse">
<stop stop-color="white"/>
<stop offset="1" stop-color="white" stop-opacity="0"/>
</linearGradient>
<linearGradient id="paint119_linear_1709_1020" x1="470.372" y1="13.3484" x2="255.527" y2="239" gradientUnits="userSpaceOnUse">
<stop stop-color="white"/>
<stop offset="1" stop-color="white" stop-opacity="0"/>
</linearGradient>
<linearGradient id="paint120_linear_1709_1020" x1="470.372" y1="13.3484" x2="255.527" y2="239" gradientUnits="userSpaceOnUse">
<stop stop-color="white"/>
<stop offset="1" stop-color="white" stop-opacity="0"/>
</linearGradient>
<linearGradient id="paint121_linear_1709_1020" x1="470.372" y1="13.3484" x2="255.527" y2="239" gradientUnits="userSpaceOnUse">
<stop stop-color="white"/>
<stop offset="1" stop-color="white" stop-opacity="0"/>
</linearGradient>
<linearGradient id="paint122_linear_1709_1020" x1="470.372" y1="13.3484" x2="255.527" y2="239" gradientUnits="userSpaceOnUse">
<stop stop-color="white"/>
<stop offset="1" stop-color="white" stop-opacity="0"/>
</linearGradient>
<linearGradient id="paint123_linear_1709_1020" x1="470.372" y1="13.3484" x2="255.527" y2="239" gradientUnits="userSpaceOnUse">
<stop stop-color="white"/>
<stop offset="1" stop-color="white" stop-opacity="0"/>
</linearGradient>
<linearGradient id="paint124_linear_1709_1020" x1="470.372" y1="13.3484" x2="255.527" y2="239" gradientUnits="userSpaceOnUse">
<stop stop-color="white"/>
<stop offset="1" stop-color="white" stop-opacity="0"/>
</linearGradient>
<linearGradient id="paint125_linear_1709_1020" x1="470.372" y1="13.3484" x2="255.527" y2="239" gradientUnits="userSpaceOnUse">
<stop stop-color="white"/>
<stop offset="1" stop-color="white" stop-opacity="0"/>
</linearGradient>
<linearGradient id="paint126_linear_1709_1020" x1="470.372" y1="13.3484" x2="255.527" y2="239" gradientUnits="userSpaceOnUse">
<stop stop-color="white"/>
<stop offset="1" stop-color="white" stop-opacity="0"/>
</linearGradient>
<linearGradient id="paint127_linear_1709_1020" x1="470.372" y1="13.3484" x2="255.527" y2="239" gradientUnits="userSpaceOnUse">
<stop stop-color="white"/>
<stop offset="1" stop-color="white" stop-opacity="0"/>
</linearGradient>
<linearGradient id="paint128_linear_1709_1020" x1="470.372" y1="13.3484" x2="255.527" y2="239" gradientUnits="userSpaceOnUse">
<stop stop-color="white"/>
<stop offset="1" stop-color="white" stop-opacity="0"/>
</linearGradient>
<linearGradient id="paint129_linear_1709_1020" x1="470.372" y1="13.3484" x2="255.527" y2="239" gradientUnits="userSpaceOnUse">
<stop stop-color="white"/>
<stop offset="1" stop-color="white" stop-opacity="0"/>
</linearGradient>
<linearGradient id="paint130_linear_1709_1020" x1="470.372" y1="13.3484" x2="255.527" y2="239" gradientUnits="userSpaceOnUse">
<stop stop-color="white"/>
<stop offset="1" stop-color="white" stop-opacity="0"/>
</linearGradient>
<linearGradient id="paint131_linear_1709_1020" x1="470.372" y1="13.3484" x2="255.527" y2="239" gradientUnits="userSpaceOnUse">
<stop stop-color="white"/>
<stop offset="1" stop-color="white" stop-opacity="0"/>
</linearGradient>
<linearGradient id="paint132_linear_1709_1020" x1="470.372" y1="13.3484" x2="255.527" y2="239" gradientUnits="userSpaceOnUse">
<stop stop-color="white"/>
<stop offset="1" stop-color="white" stop-opacity="0"/>
</linearGradient>
<linearGradient id="paint133_linear_1709_1020" x1="470.372" y1="13.3484" x2="255.527" y2="239" gradientUnits="userSpaceOnUse">
<stop stop-color="white"/>
<stop offset="1" stop-color="white" stop-opacity="0"/>
</linearGradient>
<linearGradient id="paint134_linear_1709_1020" x1="470.372" y1="13.3484" x2="255.527" y2="239" gradientUnits="userSpaceOnUse">
<stop stop-color="white"/>
<stop offset="1" stop-color="white" stop-opacity="0"/>
</linearGradient>
<linearGradient id="paint135_linear_1709_1020" x1="470.372" y1="13.3484" x2="255.527" y2="239" gradientUnits="userSpaceOnUse">
<stop stop-color="white"/>
<stop offset="1" stop-color="white" stop-opacity="0"/>
</linearGradient>
<linearGradient id="paint136_linear_1709_1020" x1="470.372" y1="13.3484" x2="255.527" y2="239" gradientUnits="userSpaceOnUse">
<stop stop-color="white"/>
<stop offset="1" stop-color="white" stop-opacity="0"/>
</linearGradient>
<linearGradient id="paint137_linear_1709_1020" x1="470.372" y1="13.3484" x2="255.527" y2="239" gradientUnits="userSpaceOnUse">
<stop stop-color="white"/>
<stop offset="1" stop-color="white" stop-opacity="0"/>
</linearGradient>
<linearGradient id="paint138_linear_1709_1020" x1="470.372" y1="13.3484" x2="255.527" y2="239" gradientUnits="userSpaceOnUse">
<stop stop-color="white"/>
<stop offset="1" stop-color="white" stop-opacity="0"/>
</linearGradient>
<linearGradient id="paint139_linear_1709_1020" x1="470.372" y1="13.3484" x2="255.527" y2="239" gradientUnits="userSpaceOnUse">
<stop stop-color="white"/>
<stop offset="1" stop-color="white" stop-opacity="0"/>
</linearGradient>
<linearGradient id="paint140_linear_1709_1020" x1="470.372" y1="13.3484" x2="255.527" y2="239" gradientUnits="userSpaceOnUse">
<stop stop-color="white"/>
<stop offset="1" stop-color="white" stop-opacity="0"/>
</linearGradient>
<linearGradient id="paint141_linear_1709_1020" x1="470.372" y1="13.3484" x2="255.527" y2="239" gradientUnits="userSpaceOnUse">
<stop stop-color="white"/>
<stop offset="1" stop-color="white" stop-opacity="0"/>
</linearGradient>
<linearGradient id="paint142_linear_1709_1020" x1="470.372" y1="13.3484" x2="255.527" y2="239" gradientUnits="userSpaceOnUse">
<stop stop-color="white"/>
<stop offset="1" stop-color="white" stop-opacity="0"/>
</linearGradient>
<linearGradient id="paint143_linear_1709_1020" x1="470.372" y1="13.3484" x2="255.527" y2="239" gradientUnits="userSpaceOnUse">
<stop stop-color="white"/>
<stop offset="1" stop-color="white" stop-opacity="0"/>
</linearGradient>
<linearGradient id="paint144_linear_1709_1020" x1="470.372" y1="13.3484" x2="255.527" y2="239" gradientUnits="userSpaceOnUse">
<stop stop-color="white"/>
<stop offset="1" stop-color="white" stop-opacity="0"/>
</linearGradient>
<linearGradient id="paint145_linear_1709_1020" x1="470.372" y1="13.3484" x2="255.527" y2="239" gradientUnits="userSpaceOnUse">
<stop stop-color="white"/>
<stop offset="1" stop-color="white" stop-opacity="0"/>
</linearGradient>
<linearGradient id="paint146_linear_1709_1020" x1="470.372" y1="13.3484" x2="255.527" y2="239" gradientUnits="userSpaceOnUse">
<stop stop-color="white"/>
<stop offset="1" stop-color="white" stop-opacity="0"/>
</linearGradient>
<linearGradient id="paint147_linear_1709_1020" x1="470.372" y1="13.3484" x2="255.527" y2="239" gradientUnits="userSpaceOnUse">
<stop stop-color="white"/>
<stop offset="1" stop-color="white" stop-opacity="0"/>
</linearGradient>
<linearGradient id="paint148_linear_1709_1020" x1="470.372" y1="13.3484" x2="255.527" y2="239" gradientUnits="userSpaceOnUse">
<stop stop-color="white"/>
<stop offset="1" stop-color="white" stop-opacity="0"/>
</linearGradient>
<linearGradient id="paint149_linear_1709_1020" x1="470.372" y1="13.3484" x2="255.527" y2="239" gradientUnits="userSpaceOnUse">
<stop stop-color="white"/>
<stop offset="1" stop-color="white" stop-opacity="0"/>
</linearGradient>
<linearGradient id="paint150_linear_1709_1020" x1="470.372" y1="13.3484" x2="255.527" y2="239" gradientUnits="userSpaceOnUse">
<stop stop-color="white"/>
<stop offset="1" stop-color="white" stop-opacity="0"/>
</linearGradient>
<linearGradient id="paint151_linear_1709_1020" x1="470.372" y1="13.3484" x2="255.527" y2="239" gradientUnits="userSpaceOnUse">
<stop stop-color="white"/>
<stop offset="1" stop-color="white" stop-opacity="0"/>
</linearGradient>
<linearGradient id="paint152_linear_1709_1020" x1="470.372" y1="13.3484" x2="255.527" y2="239" gradientUnits="userSpaceOnUse">
<stop stop-color="white"/>
<stop offset="1" stop-color="white" stop-opacity="0"/>
</linearGradient>
<linearGradient id="paint153_linear_1709_1020" x1="470.372" y1="13.3484" x2="255.527" y2="239" gradientUnits="userSpaceOnUse">
<stop stop-color="white"/>
<stop offset="1" stop-color="white" stop-opacity="0"/>
</linearGradient>
<linearGradient id="paint154_linear_1709_1020" x1="470.372" y1="13.3484" x2="255.527" y2="239" gradientUnits="userSpaceOnUse">
<stop stop-color="white"/>
<stop offset="1" stop-color="white" stop-opacity="0"/>
</linearGradient>
</defs>
</svg>
