<svg width="478" height="478" viewBox="0 0 478 478" fill="none" xmlns="http://www.w3.org/2000/svg">
<g opacity="0.1">
<path fillRule="evenodd" clipRule="evenodd" d="M478 370.949L-4.62791e-06 370.949L-4.73083e-06 369.771L478 369.771L478 370.949Z" fill="url(#paint0_linear_1709_1021)"/>
<path fillRule="evenodd" clipRule="evenodd" d="M478 408.292L-2.99556e-06 408.292L-3.09848e-06 407.115L478 407.115L478 408.292Z" fill="url(#paint1_linear_1709_1021)"/>
<path fillRule="evenodd" clipRule="evenodd" d="M478 445.636L-1.36321e-06 445.636L-1.46613e-06 444.459L478 444.459L478 445.636Z" fill="url(#paint2_linear_1709_1021)"/>
<path fillRule="evenodd" clipRule="evenodd" d="M332.608 -4.50563e-05L332.608 478L331.431 478L331.431 -4.50049e-05L332.608 -4.50563e-05Z" fill="url(#paint3_linear_1709_1021)"/>
<path fillRule="evenodd" clipRule="evenodd" d="M369.952 -4.66887e-05L369.952 478L368.775 478L368.775 -4.66372e-05L369.952 -4.66887e-05Z" fill="url(#paint4_linear_1709_1021)"/>
<path fillRule="evenodd" clipRule="evenodd" d="M407.296 -4.8321e-05L407.296 478L406.119 478L406.119 -4.82696e-05L407.296 -4.8321e-05Z" fill="url(#paint5_linear_1709_1021)"/>
<path fillRule="evenodd" clipRule="evenodd" d="M444.64 -4.99534e-05L444.64 478L443.463 478L443.463 -4.99019e-05L444.64 -4.99534e-05Z" fill="url(#paint6_linear_1709_1021)"/>
<path fillRule="evenodd" clipRule="evenodd" d="M478 333.605L-6.26026e-06 333.605L-6.36317e-06 332.428L478 332.427L478 333.605Z" fill="url(#paint7_linear_1709_1021)"/>
<path fillRule="evenodd" clipRule="evenodd" d="M295.265 -4.3424e-05L295.265 478L294.087 478L294.087 -4.33725e-05L295.265 -4.3424e-05Z" fill="url(#paint8_linear_1709_1021)"/>
<path fillRule="evenodd" clipRule="evenodd" d="M478 296.261L-7.8926e-06 296.261L-7.99552e-06 295.084L478 295.084L478 296.261Z" fill="url(#paint9_linear_1709_1021)"/>
<path fillRule="evenodd" clipRule="evenodd" d="M257.921 -4.17916e-05L257.921 478L256.743 478L256.743 -4.17402e-05L257.921 -4.17916e-05Z" fill="url(#paint10_linear_1709_1021)"/>
<path fillRule="evenodd" clipRule="evenodd" d="M478 258.917L-9.52495e-06 258.917L-9.62787e-06 257.74L478 257.74L478 258.917Z" fill="url(#paint11_linear_1709_1021)"/>
<path fillRule="evenodd" clipRule="evenodd" d="M220.577 -4.01593e-05L220.577 478L219.4 478L219.4 -4.01078e-05L220.577 -4.01593e-05Z" fill="url(#paint12_linear_1709_1021)"/>
<path fillRule="evenodd" clipRule="evenodd" d="M478 221.573L-1.11573e-05 221.574L-1.12602e-05 220.396L478 220.396L478 221.573Z" fill="url(#paint13_linear_1709_1021)"/>
<path fillRule="evenodd" clipRule="evenodd" d="M183.233 -3.8527e-05L183.233 478L182.056 478L182.056 -3.84755e-05L183.233 -3.8527e-05Z" fill="url(#paint14_linear_1709_1021)"/>
<path fillRule="evenodd" clipRule="evenodd" d="M478 184.23L-1.27896e-05 184.23L-1.28926e-05 183.053L478 183.052L478 184.23Z" fill="url(#paint15_linear_1709_1021)"/>
<path fillRule="evenodd" clipRule="evenodd" d="M145.89 -3.68946e-05L145.89 478L144.712 478L144.712 -3.68432e-05L145.89 -3.68946e-05Z" fill="url(#paint16_linear_1709_1021)"/>
<path fillRule="evenodd" clipRule="evenodd" d="M478 146.886L-1.4422e-05 146.886L-1.45249e-05 145.709L478 145.709L478 146.886Z" fill="url(#paint17_linear_1709_1021)"/>
<path fillRule="evenodd" clipRule="evenodd" d="M108.546 -3.52623e-05L108.546 478L107.369 478L107.369 -3.52108e-05L108.546 -3.52623e-05Z" fill="url(#paint18_linear_1709_1021)"/>
<path fillRule="evenodd" clipRule="evenodd" d="M478 109.542L-1.60543e-05 109.542L-1.61573e-05 108.365L478 108.365L478 109.542Z" fill="url(#paint19_linear_1709_1021)"/>
<path fillRule="evenodd" clipRule="evenodd" d="M71.2021 -3.36299e-05L71.2022 478L70.0249 478L70.0248 -3.35785e-05L71.2021 -3.36299e-05Z" fill="url(#paint20_linear_1709_1021)"/>
<path fillRule="evenodd" clipRule="evenodd" d="M478 72.1985L-1.76867e-05 72.1985L-1.77896e-05 71.0212L478 71.0212L478 72.1985Z" fill="url(#paint21_linear_1709_1021)"/>
<path fillRule="evenodd" clipRule="evenodd" d="M33.8583 -3.19976e-05L33.8584 478L32.6812 478L32.6811 -3.19461e-05L33.8583 -3.19976e-05Z" fill="url(#paint22_linear_1709_1021)"/>
<path d="M402.814 109.542C404.891 108.774 406.527 107.137 407.296 105.061C408.064 107.137 409.701 108.774 411.777 109.542C409.701 110.31 408.064 111.947 407.296 114.023C406.527 111.947 404.891 110.31 402.814 109.542Z" fill="url(#paint23_linear_1709_1021)"/>
<path d="M402.814 72.1982C404.891 71.43 406.527 69.7931 407.296 67.717C408.064 69.7931 409.701 71.43 411.777 72.1982C409.701 72.9665 408.064 74.6033 407.296 76.6795C406.527 74.6033 404.891 72.9665 402.814 72.1982Z" fill="url(#paint24_linear_1709_1021)"/>
<path d="M402.814 146.886C404.891 146.118 406.527 144.481 407.296 142.404C408.064 144.481 409.701 146.118 411.777 146.886C409.701 147.654 408.064 149.291 407.296 151.367C406.527 149.291 404.891 147.654 402.814 146.886Z" fill="url(#paint25_linear_1709_1021)"/>
<path d="M402.814 184.23C404.891 183.461 406.527 181.824 407.296 179.748C408.064 181.824 409.701 183.461 411.777 184.23C409.701 184.998 408.064 186.635 407.296 188.711C406.527 186.635 404.891 184.998 402.814 184.23Z" fill="url(#paint26_linear_1709_1021)"/>
<path d="M402.814 221.573C404.891 220.805 406.527 219.168 407.296 217.092C408.064 219.168 409.701 220.805 411.777 221.573C409.701 222.341 408.064 223.978 407.296 226.054C406.527 223.978 404.891 222.341 402.814 221.573Z" fill="url(#paint27_linear_1709_1021)"/>
<path d="M402.814 258.917C404.891 258.149 406.527 256.512 407.296 254.436C408.064 256.512 409.701 258.149 411.777 258.917C409.701 259.685 408.064 261.322 407.296 263.398C406.527 261.322 404.891 259.685 402.814 258.917Z" fill="url(#paint28_linear_1709_1021)"/>
<path d="M402.814 333.605C404.891 332.836 406.527 331.199 407.296 329.123C408.064 331.199 409.701 332.836 411.777 333.605C409.701 334.373 408.064 336.01 407.296 338.086C406.527 336.01 404.891 334.373 402.814 333.605Z" fill="url(#paint29_linear_1709_1021)"/>
<path d="M402.814 296.261C404.891 295.493 406.527 293.856 407.296 291.779C408.064 293.856 409.701 295.493 411.777 296.261C409.701 297.029 408.064 298.666 407.296 300.742C406.527 298.666 404.891 297.029 402.814 296.261Z" fill="url(#paint30_linear_1709_1021)"/>
<path d="M402.814 370.948C404.891 370.18 406.527 368.543 407.296 366.467C408.064 368.543 409.701 370.18 411.777 370.948C409.701 371.716 408.064 373.353 407.296 375.43C406.527 373.353 404.891 371.716 402.814 370.948Z" fill="url(#paint31_linear_1709_1021)"/>
<path d="M402.814 408.292C404.891 407.524 406.527 405.887 407.296 403.811C408.064 405.887 409.701 407.524 411.777 408.292C409.701 409.06 408.064 410.697 407.296 412.773C406.527 410.697 404.891 409.06 402.814 408.292Z" fill="url(#paint32_linear_1709_1021)"/>
<path d="M402.814 445.636C404.891 444.868 406.527 443.231 407.296 441.155C408.064 443.231 409.701 444.868 411.777 445.636C409.701 446.404 408.064 448.041 407.296 450.117C406.527 448.041 404.891 446.404 402.814 445.636Z" fill="url(#paint33_linear_1709_1021)"/>
<path d="M440.158 109.542C442.234 108.774 443.871 107.137 444.639 105.061C445.408 107.137 447.045 108.774 449.121 109.542C447.045 110.31 445.408 111.947 444.639 114.023C443.871 111.947 442.234 110.31 440.158 109.542Z" fill="url(#paint34_linear_1709_1021)"/>
<path d="M440.158 72.1982C442.234 71.43 443.871 69.7931 444.639 67.717C445.408 69.7931 447.045 71.43 449.121 72.1982C447.045 72.9665 445.408 74.6033 444.639 76.6795C443.871 74.6033 442.234 72.9665 440.158 72.1982Z" fill="url(#paint35_linear_1709_1021)"/>
<path d="M440.158 146.886C442.234 146.118 443.871 144.481 444.639 142.404C445.408 144.481 447.045 146.118 449.121 146.886C447.045 147.654 445.408 149.291 444.639 151.367C443.871 149.291 442.234 147.654 440.158 146.886Z" fill="url(#paint36_linear_1709_1021)"/>
<path d="M440.158 184.23C442.234 183.461 443.871 181.824 444.639 179.748C445.408 181.824 447.045 183.461 449.121 184.23C447.045 184.998 445.408 186.635 444.639 188.711C443.871 186.635 442.234 184.998 440.158 184.23Z" fill="url(#paint37_linear_1709_1021)"/>
<path d="M440.158 221.573C442.234 220.805 443.871 219.168 444.639 217.092C445.408 219.168 447.045 220.805 449.121 221.573C447.045 222.341 445.408 223.978 444.639 226.054C443.871 223.978 442.234 222.341 440.158 221.573Z" fill="url(#paint38_linear_1709_1021)"/>
<path d="M440.158 258.917C442.234 258.149 443.871 256.512 444.639 254.436C445.408 256.512 447.045 258.149 449.121 258.917C447.045 259.685 445.408 261.322 444.639 263.398C443.871 261.322 442.234 259.685 440.158 258.917Z" fill="url(#paint39_linear_1709_1021)"/>
<path d="M440.158 333.605C442.234 332.836 443.871 331.199 444.639 329.123C445.408 331.199 447.045 332.836 449.121 333.605C447.045 334.373 445.408 336.01 444.639 338.086C443.871 336.01 442.234 334.373 440.158 333.605Z" fill="url(#paint40_linear_1709_1021)"/>
<path d="M440.158 296.261C442.234 295.493 443.871 293.856 444.639 291.779C445.408 293.856 447.045 295.493 449.121 296.261C447.045 297.029 445.408 298.666 444.639 300.742C443.871 298.666 442.234 297.029 440.158 296.261Z" fill="url(#paint41_linear_1709_1021)"/>
<path d="M440.158 370.948C442.234 370.18 443.871 368.543 444.639 366.467C445.408 368.543 447.045 370.18 449.121 370.948C447.045 371.716 445.408 373.353 444.639 375.43C443.871 373.353 442.234 371.716 440.158 370.948Z" fill="url(#paint42_linear_1709_1021)"/>
<path d="M440.158 408.292C442.234 407.524 443.871 405.887 444.639 403.811C445.408 405.887 447.045 407.524 449.121 408.292C447.045 409.06 445.408 410.697 444.639 412.773C443.871 410.697 442.234 409.06 440.158 408.292Z" fill="url(#paint43_linear_1709_1021)"/>
<path d="M440.158 445.636C442.234 444.868 443.871 443.231 444.639 441.155C445.408 443.231 447.044 444.868 449.121 445.636C447.044 446.404 445.408 448.041 444.639 450.117C443.871 448.041 442.234 446.404 440.158 445.636Z" fill="url(#paint44_linear_1709_1021)"/>
<path d="M365.471 109.542C367.547 108.774 369.184 107.137 369.952 105.061C370.72 107.137 372.357 108.774 374.433 109.542C372.357 110.31 370.72 111.947 369.952 114.023C369.184 111.947 367.547 110.31 365.471 109.542Z" fill="url(#paint45_linear_1709_1021)"/>
<path d="M365.471 72.1982C367.547 71.43 369.184 69.7931 369.952 67.717C370.72 69.7931 372.357 71.43 374.433 72.1982C372.357 72.9665 370.72 74.6033 369.952 76.6795C369.184 74.6033 367.547 72.9665 365.471 72.1982Z" fill="url(#paint46_linear_1709_1021)"/>
<path d="M365.471 146.886C367.547 146.118 369.184 144.481 369.952 142.404C370.72 144.481 372.357 146.118 374.433 146.886C372.357 147.654 370.72 149.291 369.952 151.367C369.184 149.291 367.547 147.654 365.471 146.886Z" fill="url(#paint47_linear_1709_1021)"/>
<path d="M365.471 184.23C367.547 183.461 369.184 181.824 369.952 179.748C370.72 181.824 372.357 183.461 374.433 184.23C372.357 184.998 370.72 186.635 369.952 188.711C369.184 186.635 367.547 184.998 365.471 184.23Z" fill="url(#paint48_linear_1709_1021)"/>
<path d="M365.471 221.573C367.547 220.805 369.184 219.168 369.952 217.092C370.72 219.168 372.357 220.805 374.433 221.573C372.357 222.341 370.72 223.978 369.952 226.054C369.184 223.978 367.547 222.341 365.471 221.573Z" fill="url(#paint49_linear_1709_1021)"/>
<path d="M365.471 258.917C367.547 258.149 369.184 256.512 369.952 254.436C370.72 256.512 372.357 258.149 374.433 258.917C372.357 259.685 370.72 261.322 369.952 263.398C369.184 261.322 367.547 259.685 365.471 258.917Z" fill="url(#paint50_linear_1709_1021)"/>
<path d="M365.471 333.605C367.547 332.836 369.184 331.199 369.952 329.123C370.72 331.199 372.357 332.836 374.433 333.605C372.357 334.373 370.72 336.01 369.952 338.086C369.184 336.01 367.547 334.373 365.471 333.605Z" fill="url(#paint51_linear_1709_1021)"/>
<path d="M365.471 296.261C367.547 295.493 369.184 293.856 369.952 291.779C370.72 293.856 372.357 295.493 374.433 296.261C372.357 297.029 370.72 298.666 369.952 300.742C369.184 298.666 367.547 297.029 365.471 296.261Z" fill="url(#paint52_linear_1709_1021)"/>
<path d="M365.471 370.948C367.547 370.18 369.184 368.543 369.952 366.467C370.72 368.543 372.357 370.18 374.433 370.948C372.357 371.716 370.72 373.353 369.952 375.43C369.184 373.353 367.547 371.716 365.471 370.948Z" fill="url(#paint53_linear_1709_1021)"/>
<path d="M365.471 408.292C367.547 407.524 369.184 405.887 369.952 403.811C370.72 405.887 372.357 407.524 374.433 408.292C372.357 409.06 370.72 410.697 369.952 412.773C369.184 410.697 367.547 409.06 365.471 408.292Z" fill="url(#paint54_linear_1709_1021)"/>
<path d="M365.471 445.636C367.547 444.868 369.184 443.231 369.952 441.155C370.72 443.231 372.357 444.868 374.433 445.636C372.357 446.404 370.72 448.041 369.952 450.117C369.184 448.041 367.547 446.404 365.471 445.636Z" fill="url(#paint55_linear_1709_1021)"/>
<path d="M328.127 109.542C330.203 108.774 331.84 107.137 332.608 105.061C333.376 107.137 335.013 108.774 337.089 109.542C335.013 110.31 333.376 111.947 332.608 114.023C331.84 111.947 330.203 110.31 328.127 109.542Z" fill="url(#paint56_linear_1709_1021)"/>
<path d="M328.127 72.1982C330.203 71.43 331.84 69.7931 332.608 67.717C333.376 69.7931 335.013 71.43 337.089 72.1982C335.013 72.9665 333.376 74.6033 332.608 76.6795C331.84 74.6033 330.203 72.9665 328.127 72.1982Z" fill="url(#paint57_linear_1709_1021)"/>
<path d="M328.127 146.886C330.203 146.118 331.84 144.481 332.608 142.404C333.376 144.481 335.013 146.118 337.089 146.886C335.013 147.654 333.376 149.291 332.608 151.367C331.84 149.291 330.203 147.654 328.127 146.886Z" fill="url(#paint58_linear_1709_1021)"/>
<path d="M328.127 184.23C330.203 183.461 331.84 181.824 332.608 179.748C333.376 181.824 335.013 183.461 337.089 184.23C335.013 184.998 333.376 186.635 332.608 188.711C331.84 186.635 330.203 184.998 328.127 184.23Z" fill="url(#paint59_linear_1709_1021)"/>
<path d="M328.127 221.573C330.203 220.805 331.84 219.168 332.608 217.092C333.376 219.168 335.013 220.805 337.089 221.573C335.013 222.341 333.376 223.978 332.608 226.054C331.84 223.978 330.203 222.341 328.127 221.573Z" fill="url(#paint60_linear_1709_1021)"/>
<path d="M328.127 258.917C330.203 258.149 331.84 256.512 332.608 254.436C333.376 256.512 335.013 258.149 337.089 258.917C335.013 259.685 333.376 261.322 332.608 263.398C331.84 261.322 330.203 259.685 328.127 258.917Z" fill="url(#paint61_linear_1709_1021)"/>
<path d="M328.127 333.605C330.203 332.836 331.84 331.199 332.608 329.123C333.376 331.199 335.013 332.836 337.089 333.605C335.013 334.373 333.376 336.01 332.608 338.086C331.84 336.01 330.203 334.373 328.127 333.605Z" fill="url(#paint62_linear_1709_1021)"/>
<path d="M328.127 296.261C330.203 295.493 331.84 293.856 332.608 291.779C333.376 293.856 335.013 295.493 337.089 296.261C335.013 297.029 333.376 298.666 332.608 300.742C331.84 298.666 330.203 297.029 328.127 296.261Z" fill="url(#paint63_linear_1709_1021)"/>
<path d="M328.127 370.948C330.203 370.18 331.84 368.543 332.608 366.467C333.376 368.543 335.013 370.18 337.089 370.948C335.013 371.716 333.376 373.353 332.608 375.43C331.84 373.353 330.203 371.717 328.127 370.948Z" fill="url(#paint64_linear_1709_1021)"/>
<path d="M328.127 408.292C330.203 407.524 331.84 405.887 332.608 403.811C333.376 405.887 335.013 407.524 337.089 408.292C335.013 409.06 333.376 410.697 332.608 412.773C331.84 410.697 330.203 409.06 328.127 408.292Z" fill="url(#paint65_linear_1709_1021)"/>
<path d="M328.127 445.636C330.203 444.868 331.84 443.231 332.608 441.155C333.376 443.231 335.013 444.868 337.089 445.636C335.013 446.404 333.376 448.041 332.608 450.117C331.84 448.041 330.203 446.404 328.127 445.636Z" fill="url(#paint66_linear_1709_1021)"/>
<path d="M290.783 109.542C292.859 108.774 294.496 107.137 295.264 105.061C296.033 107.137 297.67 108.774 299.746 109.542C297.67 110.31 296.033 111.947 295.264 114.023C294.496 111.947 292.859 110.31 290.783 109.542Z" fill="url(#paint67_linear_1709_1021)"/>
<path d="M290.783 72.1982C292.859 71.43 294.496 69.7931 295.264 67.717C296.033 69.7931 297.67 71.43 299.746 72.1982C297.67 72.9665 296.033 74.6034 295.264 76.6795C294.496 74.6034 292.859 72.9665 290.783 72.1982Z" fill="url(#paint68_linear_1709_1021)"/>
<path d="M290.783 146.886C292.859 146.118 294.496 144.481 295.264 142.404C296.033 144.481 297.67 146.118 299.746 146.886C297.67 147.654 296.033 149.291 295.264 151.367C294.496 149.291 292.859 147.654 290.783 146.886Z" fill="url(#paint69_linear_1709_1021)"/>
<path d="M290.783 184.23C292.859 183.461 294.496 181.824 295.264 179.748C296.033 181.824 297.67 183.461 299.746 184.23C297.67 184.998 296.033 186.635 295.264 188.711C294.496 186.635 292.859 184.998 290.783 184.23Z" fill="url(#paint70_linear_1709_1021)"/>
<path d="M290.783 221.573C292.859 220.805 294.496 219.168 295.264 217.092C296.033 219.168 297.67 220.805 299.746 221.573C297.67 222.341 296.033 223.978 295.264 226.054C294.496 223.978 292.859 222.341 290.783 221.573Z" fill="url(#paint71_linear_1709_1021)"/>
<path d="M290.783 258.917C292.859 258.149 294.496 256.512 295.264 254.436C296.033 256.512 297.67 258.149 299.746 258.917C297.67 259.685 296.033 261.322 295.264 263.398C294.496 261.322 292.859 259.685 290.783 258.917Z" fill="url(#paint72_linear_1709_1021)"/>
<path d="M290.783 333.605C292.859 332.836 294.496 331.199 295.264 329.123C296.033 331.199 297.67 332.836 299.746 333.605C297.67 334.373 296.033 336.01 295.264 338.086C294.496 336.01 292.859 334.373 290.783 333.605Z" fill="url(#paint73_linear_1709_1021)"/>
<path d="M290.783 296.261C292.859 295.493 294.496 293.856 295.264 291.779C296.033 293.856 297.67 295.493 299.746 296.261C297.67 297.029 296.033 298.666 295.264 300.742C294.496 298.666 292.859 297.029 290.783 296.261Z" fill="url(#paint74_linear_1709_1021)"/>
<path d="M290.783 370.948C292.859 370.18 294.496 368.543 295.264 366.467C296.033 368.543 297.67 370.18 299.746 370.948C297.67 371.717 296.033 373.353 295.264 375.43C294.496 373.353 292.859 371.717 290.783 370.948Z" fill="url(#paint75_linear_1709_1021)"/>
<path d="M290.783 408.292C292.859 407.524 294.496 405.887 295.264 403.811C296.033 405.887 297.67 407.524 299.746 408.292C297.67 409.06 296.033 410.697 295.264 412.773C294.496 410.697 292.859 409.06 290.783 408.292Z" fill="url(#paint76_linear_1709_1021)"/>
<path d="M290.783 445.636C292.859 444.868 294.496 443.231 295.264 441.155C296.033 443.231 297.67 444.868 299.746 445.636C297.67 446.404 296.033 448.041 295.264 450.117C294.496 448.041 292.859 446.404 290.783 445.636Z" fill="url(#paint77_linear_1709_1021)"/>
<path d="M253.439 109.542C255.516 108.774 257.152 107.137 257.921 105.061C258.689 107.137 260.326 108.774 262.402 109.542C260.326 110.31 258.689 111.947 257.921 114.023C257.152 111.947 255.516 110.31 253.439 109.542Z" fill="url(#paint78_linear_1709_1021)"/>
<path d="M253.439 72.1982C255.516 71.43 257.152 69.7931 257.921 67.717C258.689 69.7931 260.326 71.43 262.402 72.1982C260.326 72.9665 258.689 74.6034 257.921 76.6795C257.152 74.6034 255.516 72.9665 253.439 72.1982Z" fill="url(#paint79_linear_1709_1021)"/>
<path d="M253.439 146.886C255.516 146.118 257.152 144.481 257.921 142.404C258.689 144.481 260.326 146.118 262.402 146.886C260.326 147.654 258.689 149.291 257.921 151.367C257.152 149.291 255.516 147.654 253.439 146.886Z" fill="url(#paint80_linear_1709_1021)"/>
<path d="M253.439 184.23C255.516 183.461 257.152 181.824 257.921 179.748C258.689 181.824 260.326 183.461 262.402 184.23C260.326 184.998 258.689 186.635 257.921 188.711C257.152 186.635 255.516 184.998 253.439 184.23Z" fill="url(#paint81_linear_1709_1021)"/>
<path d="M253.439 221.573C255.516 220.805 257.152 219.168 257.921 217.092C258.689 219.168 260.326 220.805 262.402 221.573C260.326 222.341 258.689 223.978 257.921 226.054C257.152 223.978 255.516 222.341 253.439 221.573Z" fill="url(#paint82_linear_1709_1021)"/>
<path d="M253.439 258.917C255.516 258.149 257.152 256.512 257.921 254.436C258.689 256.512 260.326 258.149 262.402 258.917C260.326 259.685 258.689 261.322 257.921 263.398C257.152 261.322 255.516 259.685 253.439 258.917Z" fill="url(#paint83_linear_1709_1021)"/>
<path d="M253.439 333.605C255.516 332.836 257.152 331.199 257.921 329.123C258.689 331.199 260.326 332.836 262.402 333.605C260.326 334.373 258.689 336.01 257.921 338.086C257.152 336.01 255.516 334.373 253.439 333.605Z" fill="url(#paint84_linear_1709_1021)"/>
<path d="M253.439 296.261C255.516 295.493 257.152 293.856 257.921 291.779C258.689 293.856 260.326 295.493 262.402 296.261C260.326 297.029 258.689 298.666 257.921 300.742C257.152 298.666 255.516 297.029 253.439 296.261Z" fill="url(#paint85_linear_1709_1021)"/>
<path d="M253.439 370.948C255.516 370.18 257.152 368.543 257.921 366.467C258.689 368.543 260.326 370.18 262.402 370.948C260.326 371.717 258.689 373.353 257.921 375.43C257.152 373.353 255.516 371.717 253.439 370.948Z" fill="url(#paint86_linear_1709_1021)"/>
<path d="M253.439 408.292C255.516 407.524 257.152 405.887 257.921 403.811C258.689 405.887 260.326 407.524 262.402 408.292C260.326 409.06 258.689 410.697 257.921 412.773C257.152 410.697 255.516 409.06 253.439 408.292Z" fill="url(#paint87_linear_1709_1021)"/>
<path d="M253.439 445.636C255.516 444.868 257.152 443.231 257.921 441.155C258.689 443.231 260.326 444.868 262.402 445.636C260.326 446.404 258.689 448.041 257.921 450.117C257.152 448.041 255.516 446.404 253.439 445.636Z" fill="url(#paint88_linear_1709_1021)"/>
<path d="M216.096 109.542C218.172 108.774 219.809 107.137 220.577 105.061C221.345 107.137 222.982 108.774 225.058 109.542C222.982 110.31 221.345 111.947 220.577 114.023C219.809 111.947 218.172 110.31 216.096 109.542Z" fill="url(#paint89_linear_1709_1021)"/>
<path d="M216.096 72.1982C218.172 71.43 219.809 69.7931 220.577 67.717C221.345 69.7931 222.982 71.43 225.058 72.1982C222.982 72.9665 221.345 74.6034 220.577 76.6795C219.809 74.6034 218.172 72.9665 216.096 72.1982Z" fill="url(#paint90_linear_1709_1021)"/>
<path d="M216.096 146.886C218.172 146.118 219.809 144.481 220.577 142.405C221.345 144.481 222.982 146.118 225.058 146.886C222.982 147.654 221.345 149.291 220.577 151.367C219.809 149.291 218.172 147.654 216.096 146.886Z" fill="url(#paint91_linear_1709_1021)"/>
<path d="M216.096 184.23C218.172 183.461 219.809 181.824 220.577 179.748C221.345 181.824 222.982 183.461 225.058 184.23C222.982 184.998 221.345 186.635 220.577 188.711C219.809 186.635 218.172 184.998 216.096 184.23Z" fill="url(#paint92_linear_1709_1021)"/>
<path d="M216.096 221.573C218.172 220.805 219.809 219.168 220.577 217.092C221.345 219.168 222.982 220.805 225.058 221.573C222.982 222.341 221.345 223.978 220.577 226.054C219.809 223.978 218.172 222.341 216.096 221.573Z" fill="url(#paint93_linear_1709_1021)"/>
<path d="M216.096 258.917C218.172 258.149 219.809 256.512 220.577 254.436C221.345 256.512 222.982 258.149 225.058 258.917C222.982 259.685 221.345 261.322 220.577 263.398C219.809 261.322 218.172 259.685 216.096 258.917Z" fill="url(#paint94_linear_1709_1021)"/>
<path d="M216.096 333.605C218.172 332.836 219.809 331.199 220.577 329.123C221.345 331.199 222.982 332.836 225.058 333.605C222.982 334.373 221.345 336.01 220.577 338.086C219.809 336.01 218.172 334.373 216.096 333.605Z" fill="url(#paint95_linear_1709_1021)"/>
<path d="M216.096 296.261C218.172 295.493 219.809 293.856 220.577 291.78C221.345 293.856 222.982 295.493 225.058 296.261C222.982 297.029 221.345 298.666 220.577 300.742C219.809 298.666 218.172 297.029 216.096 296.261Z" fill="url(#paint96_linear_1709_1021)"/>
<path d="M216.096 370.948C218.172 370.18 219.809 368.543 220.577 366.467C221.345 368.543 222.982 370.18 225.058 370.948C222.982 371.717 221.345 373.353 220.577 375.43C219.809 373.353 218.172 371.717 216.096 370.948Z" fill="url(#paint97_linear_1709_1021)"/>
<path d="M216.096 408.292C218.172 407.524 219.809 405.887 220.577 403.811C221.345 405.887 222.982 407.524 225.058 408.292C222.982 409.06 221.345 410.697 220.577 412.773C219.809 410.697 218.172 409.06 216.096 408.292Z" fill="url(#paint98_linear_1709_1021)"/>
<path d="M216.096 445.636C218.172 444.868 219.809 443.231 220.577 441.155C221.345 443.231 222.982 444.868 225.058 445.636C222.982 446.404 221.345 448.041 220.577 450.117C219.809 448.041 218.172 446.404 216.096 445.636Z" fill="url(#paint99_linear_1709_1021)"/>
<path d="M178.752 109.542C180.828 108.774 182.465 107.137 183.233 105.061C184.001 107.137 185.638 108.774 187.714 109.542C185.638 110.31 184.001 111.947 183.233 114.023C182.465 111.947 180.828 110.31 178.752 109.542Z" fill="url(#paint100_linear_1709_1021)"/>
<path d="M178.752 72.1982C180.828 71.43 182.465 69.7931 183.233 67.717C184.001 69.7931 185.638 71.43 187.714 72.1982C185.638 72.9665 184.001 74.6034 183.233 76.6795C182.465 74.6034 180.828 72.9665 178.752 72.1982Z" fill="url(#paint101_linear_1709_1021)"/>
<path d="M178.752 146.886C180.828 146.118 182.465 144.481 183.233 142.405C184.001 144.481 185.638 146.118 187.714 146.886C185.638 147.654 184.001 149.291 183.233 151.367C182.465 149.291 180.828 147.654 178.752 146.886Z" fill="url(#paint102_linear_1709_1021)"/>
<path d="M178.752 184.23C180.828 183.461 182.465 181.824 183.233 179.748C184.001 181.824 185.638 183.461 187.714 184.23C185.638 184.998 184.001 186.635 183.233 188.711C182.465 186.635 180.828 184.998 178.752 184.23Z" fill="url(#paint103_linear_1709_1021)"/>
<path d="M178.752 221.573C180.828 220.805 182.465 219.168 183.233 217.092C184.001 219.168 185.638 220.805 187.714 221.573C185.638 222.341 184.001 223.978 183.233 226.054C182.465 223.978 180.828 222.341 178.752 221.573Z" fill="url(#paint104_linear_1709_1021)"/>
<path d="M178.752 258.917C180.828 258.149 182.465 256.512 183.233 254.436C184.001 256.512 185.638 258.149 187.714 258.917C185.638 259.685 184.001 261.322 183.233 263.398C182.465 261.322 180.828 259.685 178.752 258.917Z" fill="url(#paint105_linear_1709_1021)"/>
<path d="M178.752 333.605C180.828 332.836 182.465 331.199 183.233 329.123C184.001 331.199 185.638 332.836 187.714 333.605C185.638 334.373 184.001 336.01 183.233 338.086C182.465 336.01 180.828 334.373 178.752 333.605Z" fill="url(#paint106_linear_1709_1021)"/>
<path d="M178.752 296.261C180.828 295.493 182.465 293.856 183.233 291.78C184.001 293.856 185.638 295.493 187.714 296.261C185.638 297.029 184.001 298.666 183.233 300.742C182.465 298.666 180.828 297.029 178.752 296.261Z" fill="url(#paint107_linear_1709_1021)"/>
<path d="M178.752 370.948C180.828 370.18 182.465 368.543 183.233 366.467C184.001 368.543 185.638 370.18 187.714 370.948C185.638 371.717 184.001 373.353 183.233 375.43C182.465 373.353 180.828 371.717 178.752 370.948Z" fill="url(#paint108_linear_1709_1021)"/>
<path d="M178.752 408.292C180.828 407.524 182.465 405.887 183.233 403.811C184.001 405.887 185.638 407.524 187.714 408.292C185.638 409.06 184.001 410.697 183.233 412.773C182.465 410.697 180.828 409.06 178.752 408.292Z" fill="url(#paint109_linear_1709_1021)"/>
<path d="M178.752 445.636C180.828 444.868 182.465 443.231 183.233 441.155C184.001 443.231 185.638 444.868 187.714 445.636C185.638 446.404 184.001 448.041 183.233 450.117C182.465 448.041 180.828 446.404 178.752 445.636Z" fill="url(#paint110_linear_1709_1021)"/>
<path d="M141.408 109.542C143.484 108.774 145.121 107.137 145.889 105.061C146.658 107.137 148.295 108.774 150.371 109.542C148.295 110.31 146.658 111.947 145.889 114.023C145.121 111.947 143.484 110.31 141.408 109.542Z" fill="url(#paint111_linear_1709_1021)"/>
<path d="M141.408 72.1982C143.484 71.43 145.121 69.7931 145.889 67.717C146.658 69.7931 148.295 71.43 150.371 72.1982C148.295 72.9665 146.658 74.6034 145.889 76.6795C145.121 74.6034 143.484 72.9665 141.408 72.1982Z" fill="url(#paint112_linear_1709_1021)"/>
<path d="M141.408 146.886C143.484 146.118 145.121 144.481 145.889 142.405C146.658 144.481 148.295 146.118 150.371 146.886C148.295 147.654 146.658 149.291 145.889 151.367C145.121 149.291 143.484 147.654 141.408 146.886Z" fill="url(#paint113_linear_1709_1021)"/>
<path d="M141.408 184.23C143.484 183.461 145.121 181.824 145.889 179.748C146.658 181.824 148.295 183.461 150.371 184.23C148.295 184.998 146.658 186.635 145.889 188.711C145.121 186.635 143.484 184.998 141.408 184.23Z" fill="url(#paint114_linear_1709_1021)"/>
<path d="M141.408 221.573C143.484 220.805 145.121 219.168 145.889 217.092C146.658 219.168 148.295 220.805 150.371 221.573C148.295 222.342 146.658 223.978 145.889 226.054C145.121 223.978 143.484 222.342 141.408 221.573Z" fill="url(#paint115_linear_1709_1021)"/>
<path d="M141.408 258.917C143.484 258.149 145.121 256.512 145.889 254.436C146.658 256.512 148.295 258.149 150.371 258.917C148.295 259.685 146.658 261.322 145.889 263.398C145.121 261.322 143.484 259.685 141.408 258.917Z" fill="url(#paint116_linear_1709_1021)"/>
<path d="M141.408 333.605C143.484 332.836 145.121 331.199 145.889 329.123C146.658 331.199 148.295 332.836 150.371 333.605C148.295 334.373 146.658 336.01 145.889 338.086C145.121 336.01 143.484 334.373 141.408 333.605Z" fill="url(#paint117_linear_1709_1021)"/>
<path d="M141.408 296.261C143.484 295.493 145.121 293.856 145.889 291.78C146.658 293.856 148.295 295.493 150.371 296.261C148.295 297.029 146.658 298.666 145.889 300.742C145.121 298.666 143.484 297.029 141.408 296.261Z" fill="url(#paint118_linear_1709_1021)"/>
<path d="M141.408 370.948C143.484 370.18 145.121 368.543 145.889 366.467C146.658 368.543 148.295 370.18 150.371 370.948C148.295 371.717 146.658 373.353 145.889 375.43C145.121 373.353 143.484 371.717 141.408 370.948Z" fill="url(#paint119_linear_1709_1021)"/>
<path d="M141.408 408.292C143.484 407.524 145.121 405.887 145.889 403.811C146.658 405.887 148.295 407.524 150.371 408.292C148.295 409.06 146.658 410.697 145.889 412.773C145.121 410.697 143.484 409.06 141.408 408.292Z" fill="url(#paint120_linear_1709_1021)"/>
<path d="M141.408 445.636C143.484 444.868 145.121 443.231 145.889 441.155C146.658 443.231 148.295 444.868 150.371 445.636C148.295 446.404 146.658 448.041 145.889 450.117C145.121 448.041 143.484 446.404 141.408 445.636Z" fill="url(#paint121_linear_1709_1021)"/>
<path d="M104.064 109.542C106.141 108.774 107.777 107.137 108.546 105.061C109.314 107.137 110.951 108.774 113.027 109.542C110.951 110.31 109.314 111.947 108.546 114.023C107.777 111.947 106.141 110.31 104.064 109.542Z" fill="url(#paint122_linear_1709_1021)"/>
<path d="M104.064 72.1982C106.141 71.43 107.777 69.7931 108.546 67.717C109.314 69.7931 110.951 71.43 113.027 72.1982C110.951 72.9665 109.314 74.6034 108.546 76.6795C107.777 74.6034 106.141 72.9665 104.064 72.1982Z" fill="url(#paint123_linear_1709_1021)"/>
<path d="M104.064 146.886C106.141 146.118 107.777 144.481 108.546 142.405C109.314 144.481 110.951 146.118 113.027 146.886C110.951 147.654 109.314 149.291 108.546 151.367C107.777 149.291 106.141 147.654 104.064 146.886Z" fill="url(#paint124_linear_1709_1021)"/>
<path d="M104.064 184.23C106.141 183.461 107.777 181.824 108.546 179.748C109.314 181.824 110.951 183.461 113.027 184.23C110.951 184.998 109.314 186.635 108.546 188.711C107.777 186.635 106.141 184.998 104.064 184.23Z" fill="url(#paint125_linear_1709_1021)"/>
<path d="M104.064 221.573C106.141 220.805 107.777 219.168 108.546 217.092C109.314 219.168 110.951 220.805 113.027 221.573C110.951 222.342 109.314 223.978 108.546 226.054C107.777 223.978 106.141 222.342 104.064 221.573Z" fill="url(#paint126_linear_1709_1021)"/>
<path d="M104.064 258.917C106.141 258.149 107.777 256.512 108.546 254.436C109.314 256.512 110.951 258.149 113.027 258.917C110.951 259.685 109.314 261.322 108.546 263.398C107.777 261.322 106.141 259.685 104.064 258.917Z" fill="url(#paint127_linear_1709_1021)"/>
<path d="M104.064 333.605C106.141 332.836 107.777 331.199 108.546 329.123C109.314 331.199 110.951 332.836 113.027 333.605C110.951 334.373 109.314 336.01 108.546 338.086C107.777 336.01 106.141 334.373 104.064 333.605Z" fill="url(#paint128_linear_1709_1021)"/>
<path d="M104.064 296.261C106.141 295.493 107.777 293.856 108.546 291.78C109.314 293.856 110.951 295.493 113.027 296.261C110.951 297.029 109.314 298.666 108.546 300.742C107.777 298.666 106.141 297.029 104.064 296.261Z" fill="url(#paint129_linear_1709_1021)"/>
<path d="M104.064 370.948C106.141 370.18 107.777 368.543 108.546 366.467C109.314 368.543 110.951 370.18 113.027 370.948C110.951 371.717 109.314 373.353 108.546 375.43C107.777 373.353 106.141 371.717 104.064 370.948Z" fill="url(#paint130_linear_1709_1021)"/>
<path d="M104.064 408.292C106.141 407.524 107.777 405.887 108.546 403.811C109.314 405.887 110.951 407.524 113.027 408.292C110.951 409.06 109.314 410.697 108.546 412.773C107.777 410.697 106.141 409.06 104.064 408.292Z" fill="url(#paint131_linear_1709_1021)"/>
<path d="M104.064 445.636C106.141 444.868 107.777 443.231 108.546 441.155C109.314 443.231 110.951 444.868 113.027 445.636C110.951 446.404 109.314 448.041 108.546 450.117C107.777 448.041 106.141 446.404 104.064 445.636Z" fill="url(#paint132_linear_1709_1021)"/>
<path d="M66.7207 109.542C68.7968 108.774 70.4337 107.137 71.202 105.061C71.9702 107.137 73.6071 108.774 75.6832 109.542C73.6071 110.31 71.9702 111.947 71.202 114.023C70.4337 111.947 68.7968 110.31 66.7207 109.542Z" fill="url(#paint133_linear_1709_1021)"/>
<path d="M66.7207 72.1982C68.7968 71.43 70.4337 69.7931 71.202 67.717C71.9702 69.7931 73.6071 71.43 75.6832 72.1982C73.6071 72.9665 71.9702 74.6034 71.202 76.6795C70.4337 74.6034 68.7968 72.9665 66.7207 72.1982Z" fill="url(#paint134_linear_1709_1021)"/>
<path d="M66.7207 146.886C68.7968 146.118 70.4337 144.481 71.202 142.405C71.9702 144.481 73.6071 146.118 75.6832 146.886C73.6071 147.654 71.9702 149.291 71.202 151.367C70.4337 149.291 68.7968 147.654 66.7207 146.886Z" fill="url(#paint135_linear_1709_1021)"/>
<path d="M66.7207 184.23C68.7968 183.461 70.4337 181.824 71.202 179.748C71.9702 181.824 73.6071 183.461 75.6832 184.23C73.6071 184.998 71.9702 186.635 71.202 188.711C70.4337 186.635 68.7968 184.998 66.7207 184.23Z" fill="url(#paint136_linear_1709_1021)"/>
<path d="M66.7207 221.573C68.7968 220.805 70.4337 219.168 71.202 217.092C71.9702 219.168 73.6071 220.805 75.6832 221.573C73.6071 222.342 71.9702 223.978 71.202 226.055C70.4337 223.978 68.7968 222.342 66.7207 221.573Z" fill="url(#paint137_linear_1709_1021)"/>
<path d="M66.7207 258.917C68.7969 258.149 70.4337 256.512 71.202 254.436C71.9702 256.512 73.6071 258.149 75.6832 258.917C73.6071 259.685 71.9702 261.322 71.202 263.398C70.4337 261.322 68.7969 259.685 66.7207 258.917Z" fill="url(#paint138_linear_1709_1021)"/>
<path d="M66.7207 333.605C68.7969 332.836 70.4337 331.199 71.202 329.123C71.9702 331.199 73.6071 332.836 75.6832 333.605C73.6071 334.373 71.9702 336.01 71.202 338.086C70.4337 336.01 68.7969 334.373 66.7207 333.605Z" fill="url(#paint139_linear_1709_1021)"/>
<path d="M66.7207 296.261C68.7969 295.493 70.4337 293.856 71.202 291.78C71.9702 293.856 73.6071 295.493 75.6832 296.261C73.6071 297.029 71.9702 298.666 71.202 300.742C70.4337 298.666 68.7969 297.029 66.7207 296.261Z" fill="url(#paint140_linear_1709_1021)"/>
<path d="M66.7207 370.948C68.7969 370.18 70.4337 368.543 71.202 366.467C71.9702 368.543 73.6071 370.18 75.6832 370.948C73.6071 371.717 71.9702 373.353 71.202 375.43C70.4337 373.353 68.7969 371.717 66.7207 370.948Z" fill="url(#paint141_linear_1709_1021)"/>
<path d="M66.7207 408.292C68.7969 407.524 70.4337 405.887 71.202 403.811C71.9702 405.887 73.6071 407.524 75.6832 408.292C73.6071 409.06 71.9702 410.697 71.202 412.773C70.4337 410.697 68.7969 409.06 66.7207 408.292Z" fill="url(#paint142_linear_1709_1021)"/>
<path d="M66.7207 445.636C68.7968 444.868 70.4337 443.231 71.2019 441.155C71.9702 443.231 73.607 444.868 75.6832 445.636C73.607 446.404 71.9702 448.041 71.2019 450.117C70.4337 448.041 68.7968 446.404 66.7207 445.636Z" fill="url(#paint143_linear_1709_1021)"/>
<path d="M29.377 109.542C31.4531 108.774 33.09 107.137 33.8582 105.061C34.6265 107.137 36.2633 108.774 38.3395 109.542C36.2633 110.31 34.6265 111.947 33.8582 114.023C33.09 111.947 31.4531 110.31 29.377 109.542Z" fill="url(#paint144_linear_1709_1021)"/>
<path d="M29.377 72.1982C31.4531 71.43 33.09 69.7931 33.8582 67.717C34.6265 69.7931 36.2633 71.43 38.3395 72.1982C36.2633 72.9665 34.6265 74.6034 33.8582 76.6795C33.09 74.6034 31.4531 72.9665 29.377 72.1982Z" fill="url(#paint145_linear_1709_1021)"/>
<path d="M29.377 146.886C31.4531 146.118 33.09 144.481 33.8582 142.405C34.6265 144.481 36.2633 146.118 38.3395 146.886C36.2633 147.654 34.6265 149.291 33.8582 151.367C33.09 149.291 31.4531 147.654 29.377 146.886Z" fill="url(#paint146_linear_1709_1021)"/>
<path d="M29.377 184.23C31.4531 183.461 33.09 181.824 33.8582 179.748C34.6265 181.824 36.2634 183.461 38.3395 184.23C36.2634 184.998 34.6265 186.635 33.8582 188.711C33.09 186.635 31.4531 184.998 29.377 184.23Z" fill="url(#paint147_linear_1709_1021)"/>
<path d="M29.377 221.573C31.4531 220.805 33.09 219.168 33.8582 217.092C34.6265 219.168 36.2634 220.805 38.3395 221.573C36.2634 222.342 34.6265 223.978 33.8582 226.055C33.09 223.978 31.4531 222.342 29.377 221.573Z" fill="url(#paint148_linear_1709_1021)"/>
<path d="M29.377 258.917C31.4531 258.149 33.09 256.512 33.8582 254.436C34.6265 256.512 36.2634 258.149 38.3395 258.917C36.2634 259.685 34.6265 261.322 33.8582 263.398C33.09 261.322 31.4531 259.685 29.377 258.917Z" fill="url(#paint149_linear_1709_1021)"/>
<path d="M29.377 333.605C31.4531 332.836 33.09 331.199 33.8582 329.123C34.6265 331.199 36.2634 332.836 38.3395 333.605C36.2634 334.373 34.6265 336.01 33.8582 338.086C33.09 336.01 31.4531 334.373 29.377 333.605Z" fill="url(#paint150_linear_1709_1021)"/>
<path d="M29.377 296.261C31.4531 295.493 33.09 293.856 33.8582 291.78C34.6265 293.856 36.2634 295.493 38.3395 296.261C36.2634 297.029 34.6265 298.666 33.8582 300.742C33.09 298.666 31.4531 297.029 29.377 296.261Z" fill="url(#paint151_linear_1709_1021)"/>
<path d="M29.377 370.948C31.4531 370.18 33.09 368.543 33.8582 366.467C34.6265 368.543 36.2634 370.18 38.3395 370.948C36.2634 371.717 34.6265 373.353 33.8582 375.43C33.09 373.353 31.4531 371.717 29.377 370.948Z" fill="url(#paint152_linear_1709_1021)"/>
<path d="M29.377 408.292C31.4531 407.524 33.09 405.887 33.8582 403.811C34.6265 405.887 36.2634 407.524 38.3395 408.292C36.2634 409.06 34.6265 410.697 33.8582 412.773C33.09 410.697 31.4531 409.06 29.377 408.292Z" fill="url(#paint153_linear_1709_1021)"/>
<path d="M29.3769 445.636C31.453 444.868 33.0899 443.231 33.8582 441.155C34.6264 443.231 36.2633 444.868 38.3394 445.636C36.2633 446.404 34.6264 448.041 33.8582 450.117C33.0899 448.041 31.453 446.404 29.3769 445.636Z" fill="url(#paint154_linear_1709_1021)"/>
</g>
<defs>
<linearGradient id="paint0_linear_1709_1021" x1="7.62766" y1="464.652" x2="222.473" y2="239" gradientUnits="userSpaceOnUse">
<stop stop-color="white"/>
<stop offset="1" stop-color="white" stop-opacity="0"/>
</linearGradient>
<linearGradient id="paint1_linear_1709_1021" x1="7.62766" y1="464.652" x2="222.473" y2="239" gradientUnits="userSpaceOnUse">
<stop stop-color="white"/>
<stop offset="1" stop-color="white" stop-opacity="0"/>
</linearGradient>
<linearGradient id="paint2_linear_1709_1021" x1="7.62766" y1="464.652" x2="222.473" y2="239" gradientUnits="userSpaceOnUse">
<stop stop-color="white"/>
<stop offset="1" stop-color="white" stop-opacity="0"/>
</linearGradient>
<linearGradient id="paint3_linear_1709_1021" x1="7.62766" y1="464.652" x2="222.473" y2="239" gradientUnits="userSpaceOnUse">
<stop stop-color="white"/>
<stop offset="1" stop-color="white" stop-opacity="0"/>
</linearGradient>
<linearGradient id="paint4_linear_1709_1021" x1="7.62766" y1="464.652" x2="222.473" y2="239" gradientUnits="userSpaceOnUse">
<stop stop-color="white"/>
<stop offset="1" stop-color="white" stop-opacity="0"/>
</linearGradient>
<linearGradient id="paint5_linear_1709_1021" x1="7.62766" y1="464.652" x2="222.473" y2="239" gradientUnits="userSpaceOnUse">
<stop stop-color="white"/>
<stop offset="1" stop-color="white" stop-opacity="0"/>
</linearGradient>
<linearGradient id="paint6_linear_1709_1021" x1="7.62766" y1="464.652" x2="222.473" y2="239" gradientUnits="userSpaceOnUse">
<stop stop-color="white"/>
<stop offset="1" stop-color="white" stop-opacity="0"/>
</linearGradient>
<linearGradient id="paint7_linear_1709_1021" x1="7.62766" y1="464.652" x2="222.473" y2="239" gradientUnits="userSpaceOnUse">
<stop stop-color="white"/>
<stop offset="1" stop-color="white" stop-opacity="0"/>
</linearGradient>
<linearGradient id="paint8_linear_1709_1021" x1="7.62766" y1="464.652" x2="222.473" y2="239" gradientUnits="userSpaceOnUse">
<stop stop-color="white"/>
<stop offset="1" stop-color="white" stop-opacity="0"/>
</linearGradient>
<linearGradient id="paint9_linear_1709_1021" x1="7.62766" y1="464.652" x2="222.473" y2="239" gradientUnits="userSpaceOnUse">
<stop stop-color="white"/>
<stop offset="1" stop-color="white" stop-opacity="0"/>
</linearGradient>
<linearGradient id="paint10_linear_1709_1021" x1="7.62766" y1="464.652" x2="222.473" y2="239" gradientUnits="userSpaceOnUse">
<stop stop-color="white"/>
<stop offset="1" stop-color="white" stop-opacity="0"/>
</linearGradient>
<linearGradient id="paint11_linear_1709_1021" x1="7.62766" y1="464.652" x2="222.473" y2="239" gradientUnits="userSpaceOnUse">
<stop stop-color="white"/>
<stop offset="1" stop-color="white" stop-opacity="0"/>
</linearGradient>
<linearGradient id="paint12_linear_1709_1021" x1="7.62766" y1="464.652" x2="222.473" y2="239" gradientUnits="userSpaceOnUse">
<stop stop-color="white"/>
<stop offset="1" stop-color="white" stop-opacity="0"/>
</linearGradient>
<linearGradient id="paint13_linear_1709_1021" x1="7.62766" y1="464.652" x2="222.473" y2="239" gradientUnits="userSpaceOnUse">
<stop stop-color="white"/>
<stop offset="1" stop-color="white" stop-opacity="0"/>
</linearGradient>
<linearGradient id="paint14_linear_1709_1021" x1="7.62766" y1="464.652" x2="222.473" y2="239" gradientUnits="userSpaceOnUse">
<stop stop-color="white"/>
<stop offset="1" stop-color="white" stop-opacity="0"/>
</linearGradient>
<linearGradient id="paint15_linear_1709_1021" x1="7.62766" y1="464.652" x2="222.473" y2="239" gradientUnits="userSpaceOnUse">
<stop stop-color="white"/>
<stop offset="1" stop-color="white" stop-opacity="0"/>
</linearGradient>
<linearGradient id="paint16_linear_1709_1021" x1="7.62766" y1="464.652" x2="222.473" y2="239" gradientUnits="userSpaceOnUse">
<stop stop-color="white"/>
<stop offset="1" stop-color="white" stop-opacity="0"/>
</linearGradient>
<linearGradient id="paint17_linear_1709_1021" x1="7.62766" y1="464.652" x2="222.473" y2="239" gradientUnits="userSpaceOnUse">
<stop stop-color="white"/>
<stop offset="1" stop-color="white" stop-opacity="0"/>
</linearGradient>
<linearGradient id="paint18_linear_1709_1021" x1="7.62766" y1="464.652" x2="222.473" y2="239" gradientUnits="userSpaceOnUse">
<stop stop-color="white"/>
<stop offset="1" stop-color="white" stop-opacity="0"/>
</linearGradient>
<linearGradient id="paint19_linear_1709_1021" x1="7.62766" y1="464.652" x2="222.473" y2="239" gradientUnits="userSpaceOnUse">
<stop stop-color="white"/>
<stop offset="1" stop-color="white" stop-opacity="0"/>
</linearGradient>
<linearGradient id="paint20_linear_1709_1021" x1="7.62766" y1="464.652" x2="222.473" y2="239" gradientUnits="userSpaceOnUse">
<stop stop-color="white"/>
<stop offset="1" stop-color="white" stop-opacity="0"/>
</linearGradient>
<linearGradient id="paint21_linear_1709_1021" x1="7.62766" y1="464.652" x2="222.473" y2="239" gradientUnits="userSpaceOnUse">
<stop stop-color="white"/>
<stop offset="1" stop-color="white" stop-opacity="0"/>
</linearGradient>
<linearGradient id="paint22_linear_1709_1021" x1="7.62766" y1="464.652" x2="222.473" y2="239" gradientUnits="userSpaceOnUse">
<stop stop-color="white"/>
<stop offset="1" stop-color="white" stop-opacity="0"/>
</linearGradient>
<linearGradient id="paint23_linear_1709_1021" x1="7.62766" y1="464.652" x2="222.473" y2="239" gradientUnits="userSpaceOnUse">
<stop stop-color="white"/>
<stop offset="1" stop-color="white" stop-opacity="0"/>
</linearGradient>
<linearGradient id="paint24_linear_1709_1021" x1="7.62766" y1="464.652" x2="222.473" y2="239" gradientUnits="userSpaceOnUse">
<stop stop-color="white"/>
<stop offset="1" stop-color="white" stop-opacity="0"/>
</linearGradient>
<linearGradient id="paint25_linear_1709_1021" x1="7.62766" y1="464.652" x2="222.473" y2="239" gradientUnits="userSpaceOnUse">
<stop stop-color="white"/>
<stop offset="1" stop-color="white" stop-opacity="0"/>
</linearGradient>
<linearGradient id="paint26_linear_1709_1021" x1="7.62766" y1="464.652" x2="222.473" y2="239" gradientUnits="userSpaceOnUse">
<stop stop-color="white"/>
<stop offset="1" stop-color="white" stop-opacity="0"/>
</linearGradient>
<linearGradient id="paint27_linear_1709_1021" x1="7.62766" y1="464.652" x2="222.473" y2="239" gradientUnits="userSpaceOnUse">
<stop stop-color="white"/>
<stop offset="1" stop-color="white" stop-opacity="0"/>
</linearGradient>
<linearGradient id="paint28_linear_1709_1021" x1="7.62766" y1="464.652" x2="222.473" y2="239" gradientUnits="userSpaceOnUse">
<stop stop-color="white"/>
<stop offset="1" stop-color="white" stop-opacity="0"/>
</linearGradient>
<linearGradient id="paint29_linear_1709_1021" x1="7.62766" y1="464.652" x2="222.473" y2="239" gradientUnits="userSpaceOnUse">
<stop stop-color="white"/>
<stop offset="1" stop-color="white" stop-opacity="0"/>
</linearGradient>
<linearGradient id="paint30_linear_1709_1021" x1="7.62766" y1="464.652" x2="222.473" y2="239" gradientUnits="userSpaceOnUse">
<stop stop-color="white"/>
<stop offset="1" stop-color="white" stop-opacity="0"/>
</linearGradient>
<linearGradient id="paint31_linear_1709_1021" x1="7.62766" y1="464.652" x2="222.473" y2="239" gradientUnits="userSpaceOnUse">
<stop stop-color="white"/>
<stop offset="1" stop-color="white" stop-opacity="0"/>
</linearGradient>
<linearGradient id="paint32_linear_1709_1021" x1="7.62766" y1="464.652" x2="222.473" y2="239" gradientUnits="userSpaceOnUse">
<stop stop-color="white"/>
<stop offset="1" stop-color="white" stop-opacity="0"/>
</linearGradient>
<linearGradient id="paint33_linear_1709_1021" x1="7.62766" y1="464.652" x2="222.473" y2="239" gradientUnits="userSpaceOnUse">
<stop stop-color="white"/>
<stop offset="1" stop-color="white" stop-opacity="0"/>
</linearGradient>
<linearGradient id="paint34_linear_1709_1021" x1="7.62766" y1="464.652" x2="222.473" y2="239" gradientUnits="userSpaceOnUse">
<stop stop-color="white"/>
<stop offset="1" stop-color="white" stop-opacity="0"/>
</linearGradient>
<linearGradient id="paint35_linear_1709_1021" x1="7.62766" y1="464.652" x2="222.473" y2="239" gradientUnits="userSpaceOnUse">
<stop stop-color="white"/>
<stop offset="1" stop-color="white" stop-opacity="0"/>
</linearGradient>
<linearGradient id="paint36_linear_1709_1021" x1="7.62766" y1="464.652" x2="222.473" y2="239" gradientUnits="userSpaceOnUse">
<stop stop-color="white"/>
<stop offset="1" stop-color="white" stop-opacity="0"/>
</linearGradient>
<linearGradient id="paint37_linear_1709_1021" x1="7.62766" y1="464.652" x2="222.473" y2="239" gradientUnits="userSpaceOnUse">
<stop stop-color="white"/>
<stop offset="1" stop-color="white" stop-opacity="0"/>
</linearGradient>
<linearGradient id="paint38_linear_1709_1021" x1="7.62766" y1="464.652" x2="222.473" y2="239" gradientUnits="userSpaceOnUse">
<stop stop-color="white"/>
<stop offset="1" stop-color="white" stop-opacity="0"/>
</linearGradient>
<linearGradient id="paint39_linear_1709_1021" x1="7.62766" y1="464.652" x2="222.473" y2="239" gradientUnits="userSpaceOnUse">
<stop stop-color="white"/>
<stop offset="1" stop-color="white" stop-opacity="0"/>
</linearGradient>
<linearGradient id="paint40_linear_1709_1021" x1="7.62766" y1="464.652" x2="222.473" y2="239" gradientUnits="userSpaceOnUse">
<stop stop-color="white"/>
<stop offset="1" stop-color="white" stop-opacity="0"/>
</linearGradient>
<linearGradient id="paint41_linear_1709_1021" x1="7.62766" y1="464.652" x2="222.473" y2="239" gradientUnits="userSpaceOnUse">
<stop stop-color="white"/>
<stop offset="1" stop-color="white" stop-opacity="0"/>
</linearGradient>
<linearGradient id="paint42_linear_1709_1021" x1="7.62766" y1="464.652" x2="222.473" y2="239" gradientUnits="userSpaceOnUse">
<stop stop-color="white"/>
<stop offset="1" stop-color="white" stop-opacity="0"/>
</linearGradient>
<linearGradient id="paint43_linear_1709_1021" x1="7.62766" y1="464.652" x2="222.473" y2="239" gradientUnits="userSpaceOnUse">
<stop stop-color="white"/>
<stop offset="1" stop-color="white" stop-opacity="0"/>
</linearGradient>
<linearGradient id="paint44_linear_1709_1021" x1="7.62766" y1="464.652" x2="222.473" y2="239" gradientUnits="userSpaceOnUse">
<stop stop-color="white"/>
<stop offset="1" stop-color="white" stop-opacity="0"/>
</linearGradient>
<linearGradient id="paint45_linear_1709_1021" x1="7.62766" y1="464.652" x2="222.473" y2="239" gradientUnits="userSpaceOnUse">
<stop stop-color="white"/>
<stop offset="1" stop-color="white" stop-opacity="0"/>
</linearGradient>
<linearGradient id="paint46_linear_1709_1021" x1="7.62766" y1="464.652" x2="222.473" y2="239" gradientUnits="userSpaceOnUse">
<stop stop-color="white"/>
<stop offset="1" stop-color="white" stop-opacity="0"/>
</linearGradient>
<linearGradient id="paint47_linear_1709_1021" x1="7.62766" y1="464.652" x2="222.473" y2="239" gradientUnits="userSpaceOnUse">
<stop stop-color="white"/>
<stop offset="1" stop-color="white" stop-opacity="0"/>
</linearGradient>
<linearGradient id="paint48_linear_1709_1021" x1="7.62766" y1="464.652" x2="222.473" y2="239" gradientUnits="userSpaceOnUse">
<stop stop-color="white"/>
<stop offset="1" stop-color="white" stop-opacity="0"/>
</linearGradient>
<linearGradient id="paint49_linear_1709_1021" x1="7.62766" y1="464.652" x2="222.473" y2="239" gradientUnits="userSpaceOnUse">
<stop stop-color="white"/>
<stop offset="1" stop-color="white" stop-opacity="0"/>
</linearGradient>
<linearGradient id="paint50_linear_1709_1021" x1="7.62766" y1="464.652" x2="222.473" y2="239" gradientUnits="userSpaceOnUse">
<stop stop-color="white"/>
<stop offset="1" stop-color="white" stop-opacity="0"/>
</linearGradient>
<linearGradient id="paint51_linear_1709_1021" x1="7.62766" y1="464.652" x2="222.473" y2="239" gradientUnits="userSpaceOnUse">
<stop stop-color="white"/>
<stop offset="1" stop-color="white" stop-opacity="0"/>
</linearGradient>
<linearGradient id="paint52_linear_1709_1021" x1="7.62766" y1="464.652" x2="222.473" y2="239" gradientUnits="userSpaceOnUse">
<stop stop-color="white"/>
<stop offset="1" stop-color="white" stop-opacity="0"/>
</linearGradient>
<linearGradient id="paint53_linear_1709_1021" x1="7.62766" y1="464.652" x2="222.473" y2="239" gradientUnits="userSpaceOnUse">
<stop stop-color="white"/>
<stop offset="1" stop-color="white" stop-opacity="0"/>
</linearGradient>
<linearGradient id="paint54_linear_1709_1021" x1="7.62766" y1="464.652" x2="222.473" y2="239" gradientUnits="userSpaceOnUse">
<stop stop-color="white"/>
<stop offset="1" stop-color="white" stop-opacity="0"/>
</linearGradient>
<linearGradient id="paint55_linear_1709_1021" x1="7.62766" y1="464.652" x2="222.473" y2="239" gradientUnits="userSpaceOnUse">
<stop stop-color="white"/>
<stop offset="1" stop-color="white" stop-opacity="0"/>
</linearGradient>
<linearGradient id="paint56_linear_1709_1021" x1="7.62766" y1="464.652" x2="222.473" y2="239" gradientUnits="userSpaceOnUse">
<stop stop-color="white"/>
<stop offset="1" stop-color="white" stop-opacity="0"/>
</linearGradient>
<linearGradient id="paint57_linear_1709_1021" x1="7.62766" y1="464.652" x2="222.473" y2="239" gradientUnits="userSpaceOnUse">
<stop stop-color="white"/>
<stop offset="1" stop-color="white" stop-opacity="0"/>
</linearGradient>
<linearGradient id="paint58_linear_1709_1021" x1="7.62766" y1="464.652" x2="222.473" y2="239" gradientUnits="userSpaceOnUse">
<stop stop-color="white"/>
<stop offset="1" stop-color="white" stop-opacity="0"/>
</linearGradient>
<linearGradient id="paint59_linear_1709_1021" x1="7.62766" y1="464.652" x2="222.473" y2="239" gradientUnits="userSpaceOnUse">
<stop stop-color="white"/>
<stop offset="1" stop-color="white" stop-opacity="0"/>
</linearGradient>
<linearGradient id="paint60_linear_1709_1021" x1="7.62766" y1="464.652" x2="222.473" y2="239" gradientUnits="userSpaceOnUse">
<stop stop-color="white"/>
<stop offset="1" stop-color="white" stop-opacity="0"/>
</linearGradient>
<linearGradient id="paint61_linear_1709_1021" x1="7.62766" y1="464.652" x2="222.473" y2="239" gradientUnits="userSpaceOnUse">
<stop stop-color="white"/>
<stop offset="1" stop-color="white" stop-opacity="0"/>
</linearGradient>
<linearGradient id="paint62_linear_1709_1021" x1="7.62766" y1="464.652" x2="222.473" y2="239" gradientUnits="userSpaceOnUse">
<stop stop-color="white"/>
<stop offset="1" stop-color="white" stop-opacity="0"/>
</linearGradient>
<linearGradient id="paint63_linear_1709_1021" x1="7.62766" y1="464.652" x2="222.473" y2="239" gradientUnits="userSpaceOnUse">
<stop stop-color="white"/>
<stop offset="1" stop-color="white" stop-opacity="0"/>
</linearGradient>
<linearGradient id="paint64_linear_1709_1021" x1="7.62766" y1="464.652" x2="222.473" y2="239" gradientUnits="userSpaceOnUse">
<stop stop-color="white"/>
<stop offset="1" stop-color="white" stop-opacity="0"/>
</linearGradient>
<linearGradient id="paint65_linear_1709_1021" x1="7.62766" y1="464.652" x2="222.473" y2="239" gradientUnits="userSpaceOnUse">
<stop stop-color="white"/>
<stop offset="1" stop-color="white" stop-opacity="0"/>
</linearGradient>
<linearGradient id="paint66_linear_1709_1021" x1="7.62766" y1="464.652" x2="222.473" y2="239" gradientUnits="userSpaceOnUse">
<stop stop-color="white"/>
<stop offset="1" stop-color="white" stop-opacity="0"/>
</linearGradient>
<linearGradient id="paint67_linear_1709_1021" x1="7.62766" y1="464.652" x2="222.473" y2="239" gradientUnits="userSpaceOnUse">
<stop stop-color="white"/>
<stop offset="1" stop-color="white" stop-opacity="0"/>
</linearGradient>
<linearGradient id="paint68_linear_1709_1021" x1="7.62766" y1="464.652" x2="222.473" y2="239" gradientUnits="userSpaceOnUse">
<stop stop-color="white"/>
<stop offset="1" stop-color="white" stop-opacity="0"/>
</linearGradient>
<linearGradient id="paint69_linear_1709_1021" x1="7.62766" y1="464.652" x2="222.473" y2="239" gradientUnits="userSpaceOnUse">
<stop stop-color="white"/>
<stop offset="1" stop-color="white" stop-opacity="0"/>
</linearGradient>
<linearGradient id="paint70_linear_1709_1021" x1="7.62766" y1="464.652" x2="222.473" y2="239" gradientUnits="userSpaceOnUse">
<stop stop-color="white"/>
<stop offset="1" stop-color="white" stop-opacity="0"/>
</linearGradient>
<linearGradient id="paint71_linear_1709_1021" x1="7.62766" y1="464.652" x2="222.473" y2="239" gradientUnits="userSpaceOnUse">
<stop stop-color="white"/>
<stop offset="1" stop-color="white" stop-opacity="0"/>
</linearGradient>
<linearGradient id="paint72_linear_1709_1021" x1="7.62766" y1="464.652" x2="222.473" y2="239" gradientUnits="userSpaceOnUse">
<stop stop-color="white"/>
<stop offset="1" stop-color="white" stop-opacity="0"/>
</linearGradient>
<linearGradient id="paint73_linear_1709_1021" x1="7.62766" y1="464.652" x2="222.473" y2="239" gradientUnits="userSpaceOnUse">
<stop stop-color="white"/>
<stop offset="1" stop-color="white" stop-opacity="0"/>
</linearGradient>
<linearGradient id="paint74_linear_1709_1021" x1="7.62766" y1="464.652" x2="222.473" y2="239" gradientUnits="userSpaceOnUse">
<stop stop-color="white"/>
<stop offset="1" stop-color="white" stop-opacity="0"/>
</linearGradient>
<linearGradient id="paint75_linear_1709_1021" x1="7.62766" y1="464.652" x2="222.473" y2="239" gradientUnits="userSpaceOnUse">
<stop stop-color="white"/>
<stop offset="1" stop-color="white" stop-opacity="0"/>
</linearGradient>
<linearGradient id="paint76_linear_1709_1021" x1="7.62766" y1="464.652" x2="222.473" y2="239" gradientUnits="userSpaceOnUse">
<stop stop-color="white"/>
<stop offset="1" stop-color="white" stop-opacity="0"/>
</linearGradient>
<linearGradient id="paint77_linear_1709_1021" x1="7.62766" y1="464.652" x2="222.473" y2="239" gradientUnits="userSpaceOnUse">
<stop stop-color="white"/>
<stop offset="1" stop-color="white" stop-opacity="0"/>
</linearGradient>
<linearGradient id="paint78_linear_1709_1021" x1="7.62766" y1="464.652" x2="222.473" y2="239" gradientUnits="userSpaceOnUse">
<stop stop-color="white"/>
<stop offset="1" stop-color="white" stop-opacity="0"/>
</linearGradient>
<linearGradient id="paint79_linear_1709_1021" x1="7.62766" y1="464.652" x2="222.473" y2="239" gradientUnits="userSpaceOnUse">
<stop stop-color="white"/>
<stop offset="1" stop-color="white" stop-opacity="0"/>
</linearGradient>
<linearGradient id="paint80_linear_1709_1021" x1="7.62766" y1="464.652" x2="222.473" y2="239" gradientUnits="userSpaceOnUse">
<stop stop-color="white"/>
<stop offset="1" stop-color="white" stop-opacity="0"/>
</linearGradient>
<linearGradient id="paint81_linear_1709_1021" x1="7.62766" y1="464.652" x2="222.473" y2="239" gradientUnits="userSpaceOnUse">
<stop stop-color="white"/>
<stop offset="1" stop-color="white" stop-opacity="0"/>
</linearGradient>
<linearGradient id="paint82_linear_1709_1021" x1="7.62766" y1="464.652" x2="222.473" y2="239" gradientUnits="userSpaceOnUse">
<stop stop-color="white"/>
<stop offset="1" stop-color="white" stop-opacity="0"/>
</linearGradient>
<linearGradient id="paint83_linear_1709_1021" x1="7.62766" y1="464.652" x2="222.473" y2="239" gradientUnits="userSpaceOnUse">
<stop stop-color="white"/>
<stop offset="1" stop-color="white" stop-opacity="0"/>
</linearGradient>
<linearGradient id="paint84_linear_1709_1021" x1="7.62766" y1="464.652" x2="222.473" y2="239" gradientUnits="userSpaceOnUse">
<stop stop-color="white"/>
<stop offset="1" stop-color="white" stop-opacity="0"/>
</linearGradient>
<linearGradient id="paint85_linear_1709_1021" x1="7.62766" y1="464.652" x2="222.473" y2="239" gradientUnits="userSpaceOnUse">
<stop stop-color="white"/>
<stop offset="1" stop-color="white" stop-opacity="0"/>
</linearGradient>
<linearGradient id="paint86_linear_1709_1021" x1="7.62766" y1="464.652" x2="222.473" y2="239" gradientUnits="userSpaceOnUse">
<stop stop-color="white"/>
<stop offset="1" stop-color="white" stop-opacity="0"/>
</linearGradient>
<linearGradient id="paint87_linear_1709_1021" x1="7.62766" y1="464.652" x2="222.473" y2="239" gradientUnits="userSpaceOnUse">
<stop stop-color="white"/>
<stop offset="1" stop-color="white" stop-opacity="0"/>
</linearGradient>
<linearGradient id="paint88_linear_1709_1021" x1="7.62766" y1="464.652" x2="222.473" y2="239" gradientUnits="userSpaceOnUse">
<stop stop-color="white"/>
<stop offset="1" stop-color="white" stop-opacity="0"/>
</linearGradient>
<linearGradient id="paint89_linear_1709_1021" x1="7.62766" y1="464.652" x2="222.473" y2="239" gradientUnits="userSpaceOnUse">
<stop stop-color="white"/>
<stop offset="1" stop-color="white" stop-opacity="0"/>
</linearGradient>
<linearGradient id="paint90_linear_1709_1021" x1="7.62766" y1="464.652" x2="222.473" y2="239" gradientUnits="userSpaceOnUse">
<stop stop-color="white"/>
<stop offset="1" stop-color="white" stop-opacity="0"/>
</linearGradient>
<linearGradient id="paint91_linear_1709_1021" x1="7.62766" y1="464.652" x2="222.473" y2="239" gradientUnits="userSpaceOnUse">
<stop stop-color="white"/>
<stop offset="1" stop-color="white" stop-opacity="0"/>
</linearGradient>
<linearGradient id="paint92_linear_1709_1021" x1="7.62766" y1="464.652" x2="222.473" y2="239" gradientUnits="userSpaceOnUse">
<stop stop-color="white"/>
<stop offset="1" stop-color="white" stop-opacity="0"/>
</linearGradient>
<linearGradient id="paint93_linear_1709_1021" x1="7.62766" y1="464.652" x2="222.473" y2="239" gradientUnits="userSpaceOnUse">
<stop stop-color="white"/>
<stop offset="1" stop-color="white" stop-opacity="0"/>
</linearGradient>
<linearGradient id="paint94_linear_1709_1021" x1="7.62766" y1="464.652" x2="222.473" y2="239" gradientUnits="userSpaceOnUse">
<stop stop-color="white"/>
<stop offset="1" stop-color="white" stop-opacity="0"/>
</linearGradient>
<linearGradient id="paint95_linear_1709_1021" x1="7.62766" y1="464.652" x2="222.473" y2="239" gradientUnits="userSpaceOnUse">
<stop stop-color="white"/>
<stop offset="1" stop-color="white" stop-opacity="0"/>
</linearGradient>
<linearGradient id="paint96_linear_1709_1021" x1="7.62766" y1="464.652" x2="222.473" y2="239" gradientUnits="userSpaceOnUse">
<stop stop-color="white"/>
<stop offset="1" stop-color="white" stop-opacity="0"/>
</linearGradient>
<linearGradient id="paint97_linear_1709_1021" x1="7.62766" y1="464.652" x2="222.473" y2="239" gradientUnits="userSpaceOnUse">
<stop stop-color="white"/>
<stop offset="1" stop-color="white" stop-opacity="0"/>
</linearGradient>
<linearGradient id="paint98_linear_1709_1021" x1="7.62766" y1="464.652" x2="222.473" y2="239" gradientUnits="userSpaceOnUse">
<stop stop-color="white"/>
<stop offset="1" stop-color="white" stop-opacity="0"/>
</linearGradient>
<linearGradient id="paint99_linear_1709_1021" x1="7.62766" y1="464.652" x2="222.473" y2="239" gradientUnits="userSpaceOnUse">
<stop stop-color="white"/>
<stop offset="1" stop-color="white" stop-opacity="0"/>
</linearGradient>
<linearGradient id="paint100_linear_1709_1021" x1="7.62766" y1="464.652" x2="222.473" y2="239" gradientUnits="userSpaceOnUse">
<stop stop-color="white"/>
<stop offset="1" stop-color="white" stop-opacity="0"/>
</linearGradient>
<linearGradient id="paint101_linear_1709_1021" x1="7.62766" y1="464.652" x2="222.473" y2="239" gradientUnits="userSpaceOnUse">
<stop stop-color="white"/>
<stop offset="1" stop-color="white" stop-opacity="0"/>
</linearGradient>
<linearGradient id="paint102_linear_1709_1021" x1="7.62766" y1="464.652" x2="222.473" y2="239" gradientUnits="userSpaceOnUse">
<stop stop-color="white"/>
<stop offset="1" stop-color="white" stop-opacity="0"/>
</linearGradient>
<linearGradient id="paint103_linear_1709_1021" x1="7.62766" y1="464.652" x2="222.473" y2="239" gradientUnits="userSpaceOnUse">
<stop stop-color="white"/>
<stop offset="1" stop-color="white" stop-opacity="0"/>
</linearGradient>
<linearGradient id="paint104_linear_1709_1021" x1="7.62766" y1="464.652" x2="222.473" y2="239" gradientUnits="userSpaceOnUse">
<stop stop-color="white"/>
<stop offset="1" stop-color="white" stop-opacity="0"/>
</linearGradient>
<linearGradient id="paint105_linear_1709_1021" x1="7.62766" y1="464.652" x2="222.473" y2="239" gradientUnits="userSpaceOnUse">
<stop stop-color="white"/>
<stop offset="1" stop-color="white" stop-opacity="0"/>
</linearGradient>
<linearGradient id="paint106_linear_1709_1021" x1="7.62766" y1="464.652" x2="222.473" y2="239" gradientUnits="userSpaceOnUse">
<stop stop-color="white"/>
<stop offset="1" stop-color="white" stop-opacity="0"/>
</linearGradient>
<linearGradient id="paint107_linear_1709_1021" x1="7.62766" y1="464.652" x2="222.473" y2="239" gradientUnits="userSpaceOnUse">
<stop stop-color="white"/>
<stop offset="1" stop-color="white" stop-opacity="0"/>
</linearGradient>
<linearGradient id="paint108_linear_1709_1021" x1="7.62766" y1="464.652" x2="222.473" y2="239" gradientUnits="userSpaceOnUse">
<stop stop-color="white"/>
<stop offset="1" stop-color="white" stop-opacity="0"/>
</linearGradient>
<linearGradient id="paint109_linear_1709_1021" x1="7.62766" y1="464.652" x2="222.473" y2="239" gradientUnits="userSpaceOnUse">
<stop stop-color="white"/>
<stop offset="1" stop-color="white" stop-opacity="0"/>
</linearGradient>
<linearGradient id="paint110_linear_1709_1021" x1="7.62766" y1="464.652" x2="222.473" y2="239" gradientUnits="userSpaceOnUse">
<stop stop-color="white"/>
<stop offset="1" stop-color="white" stop-opacity="0"/>
</linearGradient>
<linearGradient id="paint111_linear_1709_1021" x1="7.62766" y1="464.652" x2="222.473" y2="239" gradientUnits="userSpaceOnUse">
<stop stop-color="white"/>
<stop offset="1" stop-color="white" stop-opacity="0"/>
</linearGradient>
<linearGradient id="paint112_linear_1709_1021" x1="7.62766" y1="464.652" x2="222.473" y2="239" gradientUnits="userSpaceOnUse">
<stop stop-color="white"/>
<stop offset="1" stop-color="white" stop-opacity="0"/>
</linearGradient>
<linearGradient id="paint113_linear_1709_1021" x1="7.62766" y1="464.652" x2="222.473" y2="239" gradientUnits="userSpaceOnUse">
<stop stop-color="white"/>
<stop offset="1" stop-color="white" stop-opacity="0"/>
</linearGradient>
<linearGradient id="paint114_linear_1709_1021" x1="7.62766" y1="464.652" x2="222.473" y2="239" gradientUnits="userSpaceOnUse">
<stop stop-color="white"/>
<stop offset="1" stop-color="white" stop-opacity="0"/>
</linearGradient>
<linearGradient id="paint115_linear_1709_1021" x1="7.62766" y1="464.652" x2="222.473" y2="239" gradientUnits="userSpaceOnUse">
<stop stop-color="white"/>
<stop offset="1" stop-color="white" stop-opacity="0"/>
</linearGradient>
<linearGradient id="paint116_linear_1709_1021" x1="7.62766" y1="464.652" x2="222.473" y2="239" gradientUnits="userSpaceOnUse">
<stop stop-color="white"/>
<stop offset="1" stop-color="white" stop-opacity="0"/>
</linearGradient>
<linearGradient id="paint117_linear_1709_1021" x1="7.62766" y1="464.652" x2="222.473" y2="239" gradientUnits="userSpaceOnUse">
<stop stop-color="white"/>
<stop offset="1" stop-color="white" stop-opacity="0"/>
</linearGradient>
<linearGradient id="paint118_linear_1709_1021" x1="7.62766" y1="464.652" x2="222.473" y2="239" gradientUnits="userSpaceOnUse">
<stop stop-color="white"/>
<stop offset="1" stop-color="white" stop-opacity="0"/>
</linearGradient>
<linearGradient id="paint119_linear_1709_1021" x1="7.62766" y1="464.652" x2="222.473" y2="239" gradientUnits="userSpaceOnUse">
<stop stop-color="white"/>
<stop offset="1" stop-color="white" stop-opacity="0"/>
</linearGradient>
<linearGradient id="paint120_linear_1709_1021" x1="7.62766" y1="464.652" x2="222.473" y2="239" gradientUnits="userSpaceOnUse">
<stop stop-color="white"/>
<stop offset="1" stop-color="white" stop-opacity="0"/>
</linearGradient>
<linearGradient id="paint121_linear_1709_1021" x1="7.62766" y1="464.652" x2="222.473" y2="239" gradientUnits="userSpaceOnUse">
<stop stop-color="white"/>
<stop offset="1" stop-color="white" stop-opacity="0"/>
</linearGradient>
<linearGradient id="paint122_linear_1709_1021" x1="7.62766" y1="464.652" x2="222.473" y2="239" gradientUnits="userSpaceOnUse">
<stop stop-color="white"/>
<stop offset="1" stop-color="white" stop-opacity="0"/>
</linearGradient>
<linearGradient id="paint123_linear_1709_1021" x1="7.62766" y1="464.652" x2="222.473" y2="239" gradientUnits="userSpaceOnUse">
<stop stop-color="white"/>
<stop offset="1" stop-color="white" stop-opacity="0"/>
</linearGradient>
<linearGradient id="paint124_linear_1709_1021" x1="7.62766" y1="464.652" x2="222.473" y2="239" gradientUnits="userSpaceOnUse">
<stop stop-color="white"/>
<stop offset="1" stop-color="white" stop-opacity="0"/>
</linearGradient>
<linearGradient id="paint125_linear_1709_1021" x1="7.62766" y1="464.652" x2="222.473" y2="239" gradientUnits="userSpaceOnUse">
<stop stop-color="white"/>
<stop offset="1" stop-color="white" stop-opacity="0"/>
</linearGradient>
<linearGradient id="paint126_linear_1709_1021" x1="7.62766" y1="464.652" x2="222.473" y2="239" gradientUnits="userSpaceOnUse">
<stop stop-color="white"/>
<stop offset="1" stop-color="white" stop-opacity="0"/>
</linearGradient>
<linearGradient id="paint127_linear_1709_1021" x1="7.62766" y1="464.652" x2="222.473" y2="239" gradientUnits="userSpaceOnUse">
<stop stop-color="white"/>
<stop offset="1" stop-color="white" stop-opacity="0"/>
</linearGradient>
<linearGradient id="paint128_linear_1709_1021" x1="7.62766" y1="464.652" x2="222.473" y2="239" gradientUnits="userSpaceOnUse">
<stop stop-color="white"/>
<stop offset="1" stop-color="white" stop-opacity="0"/>
</linearGradient>
<linearGradient id="paint129_linear_1709_1021" x1="7.62766" y1="464.652" x2="222.473" y2="239" gradientUnits="userSpaceOnUse">
<stop stop-color="white"/>
<stop offset="1" stop-color="white" stop-opacity="0"/>
</linearGradient>
<linearGradient id="paint130_linear_1709_1021" x1="7.62766" y1="464.652" x2="222.473" y2="239" gradientUnits="userSpaceOnUse">
<stop stop-color="white"/>
<stop offset="1" stop-color="white" stop-opacity="0"/>
</linearGradient>
<linearGradient id="paint131_linear_1709_1021" x1="7.62766" y1="464.652" x2="222.473" y2="239" gradientUnits="userSpaceOnUse">
<stop stop-color="white"/>
<stop offset="1" stop-color="white" stop-opacity="0"/>
</linearGradient>
<linearGradient id="paint132_linear_1709_1021" x1="7.62766" y1="464.652" x2="222.473" y2="239" gradientUnits="userSpaceOnUse">
<stop stop-color="white"/>
<stop offset="1" stop-color="white" stop-opacity="0"/>
</linearGradient>
<linearGradient id="paint133_linear_1709_1021" x1="7.62766" y1="464.652" x2="222.473" y2="239" gradientUnits="userSpaceOnUse">
<stop stop-color="white"/>
<stop offset="1" stop-color="white" stop-opacity="0"/>
</linearGradient>
<linearGradient id="paint134_linear_1709_1021" x1="7.62766" y1="464.652" x2="222.473" y2="239" gradientUnits="userSpaceOnUse">
<stop stop-color="white"/>
<stop offset="1" stop-color="white" stop-opacity="0"/>
</linearGradient>
<linearGradient id="paint135_linear_1709_1021" x1="7.62766" y1="464.652" x2="222.473" y2="239" gradientUnits="userSpaceOnUse">
<stop stop-color="white"/>
<stop offset="1" stop-color="white" stop-opacity="0"/>
</linearGradient>
<linearGradient id="paint136_linear_1709_1021" x1="7.62766" y1="464.652" x2="222.473" y2="239" gradientUnits="userSpaceOnUse">
<stop stop-color="white"/>
<stop offset="1" stop-color="white" stop-opacity="0"/>
</linearGradient>
<linearGradient id="paint137_linear_1709_1021" x1="7.62766" y1="464.652" x2="222.473" y2="239" gradientUnits="userSpaceOnUse">
<stop stop-color="white"/>
<stop offset="1" stop-color="white" stop-opacity="0"/>
</linearGradient>
<linearGradient id="paint138_linear_1709_1021" x1="7.62766" y1="464.652" x2="222.473" y2="239" gradientUnits="userSpaceOnUse">
<stop stop-color="white"/>
<stop offset="1" stop-color="white" stop-opacity="0"/>
</linearGradient>
<linearGradient id="paint139_linear_1709_1021" x1="7.62766" y1="464.652" x2="222.473" y2="239" gradientUnits="userSpaceOnUse">
<stop stop-color="white"/>
<stop offset="1" stop-color="white" stop-opacity="0"/>
</linearGradient>
<linearGradient id="paint140_linear_1709_1021" x1="7.62766" y1="464.652" x2="222.473" y2="239" gradientUnits="userSpaceOnUse">
<stop stop-color="white"/>
<stop offset="1" stop-color="white" stop-opacity="0"/>
</linearGradient>
<linearGradient id="paint141_linear_1709_1021" x1="7.62766" y1="464.652" x2="222.473" y2="239" gradientUnits="userSpaceOnUse">
<stop stop-color="white"/>
<stop offset="1" stop-color="white" stop-opacity="0"/>
</linearGradient>
<linearGradient id="paint142_linear_1709_1021" x1="7.62766" y1="464.652" x2="222.473" y2="239" gradientUnits="userSpaceOnUse">
<stop stop-color="white"/>
<stop offset="1" stop-color="white" stop-opacity="0"/>
</linearGradient>
<linearGradient id="paint143_linear_1709_1021" x1="7.62766" y1="464.652" x2="222.473" y2="239" gradientUnits="userSpaceOnUse">
<stop stop-color="white"/>
<stop offset="1" stop-color="white" stop-opacity="0"/>
</linearGradient>
<linearGradient id="paint144_linear_1709_1021" x1="7.62766" y1="464.652" x2="222.473" y2="239" gradientUnits="userSpaceOnUse">
<stop stop-color="white"/>
<stop offset="1" stop-color="white" stop-opacity="0"/>
</linearGradient>
<linearGradient id="paint145_linear_1709_1021" x1="7.62766" y1="464.652" x2="222.473" y2="239" gradientUnits="userSpaceOnUse">
<stop stop-color="white"/>
<stop offset="1" stop-color="white" stop-opacity="0"/>
</linearGradient>
<linearGradient id="paint146_linear_1709_1021" x1="7.62766" y1="464.652" x2="222.473" y2="239" gradientUnits="userSpaceOnUse">
<stop stop-color="white"/>
<stop offset="1" stop-color="white" stop-opacity="0"/>
</linearGradient>
<linearGradient id="paint147_linear_1709_1021" x1="7.62766" y1="464.652" x2="222.473" y2="239" gradientUnits="userSpaceOnUse">
<stop stop-color="white"/>
<stop offset="1" stop-color="white" stop-opacity="0"/>
</linearGradient>
<linearGradient id="paint148_linear_1709_1021" x1="7.62766" y1="464.652" x2="222.473" y2="239" gradientUnits="userSpaceOnUse">
<stop stop-color="white"/>
<stop offset="1" stop-color="white" stop-opacity="0"/>
</linearGradient>
<linearGradient id="paint149_linear_1709_1021" x1="7.62766" y1="464.652" x2="222.473" y2="239" gradientUnits="userSpaceOnUse">
<stop stop-color="white"/>
<stop offset="1" stop-color="white" stop-opacity="0"/>
</linearGradient>
<linearGradient id="paint150_linear_1709_1021" x1="7.62766" y1="464.652" x2="222.473" y2="239" gradientUnits="userSpaceOnUse">
<stop stop-color="white"/>
<stop offset="1" stop-color="white" stop-opacity="0"/>
</linearGradient>
<linearGradient id="paint151_linear_1709_1021" x1="7.62766" y1="464.652" x2="222.473" y2="239" gradientUnits="userSpaceOnUse">
<stop stop-color="white"/>
<stop offset="1" stop-color="white" stop-opacity="0"/>
</linearGradient>
<linearGradient id="paint152_linear_1709_1021" x1="7.62766" y1="464.652" x2="222.473" y2="239" gradientUnits="userSpaceOnUse">
<stop stop-color="white"/>
<stop offset="1" stop-color="white" stop-opacity="0"/>
</linearGradient>
<linearGradient id="paint153_linear_1709_1021" x1="7.62766" y1="464.652" x2="222.473" y2="239" gradientUnits="userSpaceOnUse">
<stop stop-color="white"/>
<stop offset="1" stop-color="white" stop-opacity="0"/>
</linearGradient>
<linearGradient id="paint154_linear_1709_1021" x1="7.62766" y1="464.652" x2="222.473" y2="239" gradientUnits="userSpaceOnUse">
<stop stop-color="white"/>
<stop offset="1" stop-color="white" stop-opacity="0"/>
</linearGradient>
</defs>
</svg>
