<svg width="227" height="40" viewBox="0 0 227 40" fill="none" xmlns="http://www.w3.org/2000/svg">
<path d="M178.522 17.5C178.522 13.0817 182.104 9.5 186.522 9.5H218.278C222.696 9.5 226.278 13.0817 226.278 17.5V22.5C226.278 26.9183 222.696 30.5 218.278 30.5H178.522V17.5Z" fill="#0CBE5E"/>
<path d="M189.704 24.3427H186.522V15.5H189.619C192.232 15.5 194.034 17.3024 194.034 19.9395C194.034 22.5403 192.268 24.3427 189.704 24.3427ZM189.474 16.9274H188.071V22.9153H189.558C191.325 22.9153 192.401 21.7782 192.401 19.9395C192.401 18.0645 191.3 16.9274 189.474 16.9274Z" fill="white"/>
<path d="M197.781 24.5C196.003 24.5 194.757 23.2056 194.757 21.3548C194.757 19.4798 195.979 18.1855 197.733 18.1855C199.523 18.1855 200.66 19.3831 200.66 21.246V21.6935L196.16 21.7056C196.269 22.7581 196.825 23.2903 197.805 23.2903C198.616 23.2903 199.148 22.9758 199.317 22.4073H200.684C200.43 23.7137 199.342 24.5 197.781 24.5ZM197.745 19.3952C196.874 19.3952 196.342 19.8669 196.196 20.7621H199.196C199.196 19.9395 198.628 19.3952 197.745 19.3952Z" fill="white"/>
<path d="M203.166 24.3427H201.69V18.3669H203.045L203.166 19.0685C203.468 18.5726 204.073 18.1855 204.932 18.1855C205.839 18.1855 206.468 18.6331 206.783 19.3226C207.085 18.6331 207.787 18.1855 208.694 18.1855C210.146 18.1855 210.944 19.0565 210.944 20.4355V24.3427H209.48V20.8226C209.48 19.9637 209.021 19.5161 208.319 19.5161C207.605 19.5161 207.061 19.9758 207.061 20.9556V24.3427H205.585V20.8105C205.585 19.9758 205.138 19.5282 204.436 19.5282C203.734 19.5282 203.166 19.9879 203.166 20.9556V24.3427Z" fill="white"/>
<path d="M211.891 21.3426C211.891 19.4797 213.234 18.1975 215.084 18.1975C216.935 18.1975 218.278 19.4797 218.278 21.3426C218.278 23.2055 216.935 24.4878 215.084 24.4878C213.234 24.4878 211.891 23.2055 211.891 21.3426ZM213.367 21.3426C213.367 22.4314 214.068 23.1693 215.084 23.1693C216.1 23.1693 216.802 22.4314 216.802 21.3426C216.802 20.2539 216.1 19.516 215.084 19.516C214.068 19.516 213.367 20.2539 213.367 21.3426Z" fill="white"/>
<path d="M59.7448 30.2113C55.6208 30.2113 52.8808 27.9798 52.7961 24.3924H57.2591C57.2591 25.5506 57.9653 26.285 59.7448 26.285C61.5244 26.285 62.2305 25.5506 62.2305 24.3924C62.2305 23.1778 60.8182 22.8953 59.1234 22.5846C56.4964 22.1044 53.135 21.483 53.135 16.9918C53.135 13.4891 55.7902 11.0034 59.7731 11.0034C63.6429 11.0034 66.2698 13.3479 66.4111 16.8505H62.1175C62.0893 15.7771 61.4114 14.9297 59.8295 14.9297C58.1912 14.9297 57.5416 15.8619 57.5416 16.8223C57.5416 18.0369 58.9539 18.3194 60.677 18.6301C63.3322 19.1103 66.6935 19.7317 66.6935 24.2229C66.6935 27.895 63.9253 30.2113 59.7448 30.2113Z" fill="#0E0B3D"/>
<path d="M74.4581 30.2113C71.351 30.2113 67.7071 27.895 67.7071 23.0366C67.7071 18.5453 70.8143 15.5229 75.249 15.5229C79.6273 15.5229 82.6779 18.4323 82.6779 23.0083V29.8441H78.7799V27.5278C78.0455 29.2509 76.4636 30.2113 74.4581 30.2113ZM75.2208 26.2567C77.1416 26.2567 78.4409 24.8726 78.4409 22.8671C78.4409 20.8616 77.1416 19.4775 75.2208 19.4775C73.3 19.4775 72.0006 20.8616 72.0006 22.8671C72.0006 24.8726 73.3 26.2567 75.2208 26.2567Z" fill="#0E0B3D"/>
<path d="M90.9435 30.2113C87.8363 30.2113 84.1925 27.895 84.1925 23.0366C84.1925 18.5453 87.2996 15.5229 91.7344 15.5229C96.1126 15.5229 99.1633 18.4323 99.1633 23.0083V29.8441H95.2652V27.5278C94.5308 29.2509 92.949 30.2113 90.9435 30.2113ZM91.7061 26.2567C93.6269 26.2567 94.9263 24.8726 94.9263 22.8671C94.9263 20.8616 93.6269 19.4775 91.7061 19.4775C89.7853 19.4775 88.486 20.8616 88.486 22.8671C88.486 24.8726 89.7853 26.2567 91.7061 26.2567Z" fill="#0E0B3D"/>
<path d="M107.711 30.2113C103.587 30.2113 100.847 27.9798 100.763 24.3924H105.226C105.226 25.5506 105.932 26.285 107.711 26.285C109.491 26.285 110.197 25.5506 110.197 24.3924C110.197 23.1778 108.785 22.8953 107.09 22.5846C104.463 22.1044 101.101 21.483 101.101 16.9918C101.101 13.4891 103.757 11.0034 107.74 11.0034C111.609 11.0034 114.236 13.3479 114.378 16.8505H110.084C110.056 15.7771 109.378 14.9297 107.796 14.9297C106.158 14.9297 105.508 15.8619 105.508 16.8223C105.508 18.0369 106.92 18.3194 108.643 18.6301C111.299 19.1103 114.66 19.7317 114.66 24.2229C114.66 27.895 111.892 30.2113 107.711 30.2113Z" fill="#0E0B3D"/>
<path d="M118.99 29.8441V11.3706H127.859C131.334 11.3706 133.17 13.3762 133.17 16.1444C133.17 18.0369 132.266 19.4775 130.684 20.2402V20.2966C132.774 20.9463 134.017 22.6411 134.017 24.8726C134.017 27.7256 132.153 29.8441 128.594 29.8441H118.99ZM122.267 18.969H127.464C129.074 18.969 129.893 17.9804 129.893 16.6811C129.893 15.3817 129.243 14.4213 127.436 14.4213H122.267V18.969ZM122.267 26.8217H128.029C129.893 26.8217 130.628 25.7483 130.628 24.4207C130.628 23.0083 129.695 21.935 128.085 21.935H122.267V26.8217Z" fill="#635BFF"/>
<path d="M142.384 30.2113C137.978 30.2113 134.871 27.1041 134.871 22.8671C134.871 18.6301 137.978 15.5229 142.384 15.5229C146.791 15.5229 149.898 18.6301 149.898 22.8671C149.898 27.1041 146.791 30.2113 142.384 30.2113ZM142.384 27.3866C145.04 27.3866 146.791 25.4941 146.791 22.8671C146.791 20.2402 145.04 18.3476 142.384 18.3476C139.729 18.3476 137.95 20.2402 137.95 22.8671C137.95 25.4941 139.729 27.3866 142.384 27.3866Z" fill="#635BFF"/>
<path d="M151.877 29.8441V9.78882H154.928V29.8441H151.877Z" fill="#635BFF"/>
<path d="M164.487 30.2113C160.053 30.2113 156.945 27.1606 156.945 22.7541C156.945 18.0369 160.448 15.5229 163.951 15.5229C166.069 15.5229 167.877 16.4551 168.866 18.1216V9.78882H171.916V22.7541C171.916 27.2736 168.837 30.2113 164.487 30.2113ZM164.459 27.3866C167.086 27.3866 168.866 25.4941 168.866 22.8671C168.866 20.2402 167.086 18.3476 164.459 18.3476C161.804 18.3476 160.024 20.2402 160.024 22.8671C160.024 25.4941 161.804 27.3866 164.459 27.3866Z" fill="#635BFF"/>
<path fill-rule="evenodd" clip-rule="evenodd" d="M20 40C31.05 40 40 31.05 40 20C40 8.95 31.05 0 20 0C8.95 0 0 8.95 0 20C0 21.93 0.27 23.8 0.79 25.57C7.64 29.42 14.12 25.19 16.98 22.11L8.47 31.77L17.74 23.05C14.76 26 10.75 32.61 14.8 39.32C16.46 39.77 18.21 40 20.01 40H20ZM17.73 23.04L18.23 22.57C18.07 22.71 17.9 22.87 17.73 23.04ZM16.97 22.11L17.42 21.6C17.28 21.77 17.13 21.94 16.97 22.11Z" fill="url(#paint0_radial_3129_21497)"/>
<path d="M17.68 15.3701L15.69 17.3101C15.32 17.6701 14.99 18.0001 14.73 18.2901C14.56 18.4801 14.39 18.6901 14.25 18.9201L14.23 18.9001C14.23 18.9001 14.17 18.8501 14.16 18.8301C13.81 18.5001 13.41 18.2401 12.96 18.0601C12.94 18.0601 12.91 18.0401 12.86 18.0201L12.56 17.9101C12.16 17.7501 12.05 17.2501 12.36 16.9501C13.24 16.0901 14.29 15.0701 14.79 14.8601C15.24 14.6801 15.7201 14.6201 16.1901 14.6801C16.62 14.7401 17.0201 14.9601 17.68 15.3701Z" fill="white"/>
<path d="M21.08 25.6101C21.24 25.7701 21.35 25.8801 21.4401 26.0001C21.5701 26.1601 21.68 26.3301 21.7801 26.5001C21.89 26.7001 21.98 26.9101 22.15 27.3401C22.29 27.6901 22.76 27.7801 23.0301 27.5101L23.1 27.4501C23.9801 26.5901 25.03 25.5701 25.24 25.0701C25.43 24.6301 25.49 24.1601 25.42 23.7001C25.36 23.2801 25.14 22.8901 24.72 22.2401L22.73 24.1901C22.36 24.5601 22.0101 24.8901 21.7001 25.1501C21.5101 25.3101 21.3101 25.4601 21.09 25.6001L21.08 25.6101Z" fill="white"/>
<path fill-rule="evenodd" clip-rule="evenodd" d="M21.93 23.3801L26.48 18.8901C27.14 18.2501 27.47 17.9201 27.64 17.5201C27.81 17.1101 27.81 16.6601 27.81 15.7501V15.3201C27.81 13.9201 27.8101 13.2201 27.3701 12.7901C26.9301 12.3601 26.2101 12.3601 24.7801 12.3601H24.34C23.41 12.3601 22.9401 12.3601 22.5301 12.5301C22.1101 12.7001 21.78 13.0201 21.13 13.6701L16.56 18.1401C15.79 18.8901 15.31 19.3601 15.13 19.8101C15.07 19.9501 15.04 20.0901 15.04 20.2401C15.04 20.8501 15.55 21.3501 16.56 22.3401L16.7001 22.4701L18.2901 20.8801C18.5201 20.6501 18.8901 20.6501 19.1201 20.8801C19.3501 21.1001 19.3501 21.4701 19.1201 21.6901L17.5201 23.2801L17.63 23.3801C18.64 24.3701 19.1501 24.8601 19.7801 24.8601C19.9201 24.8601 20.0501 24.8401 20.1901 24.7901C20.6601 24.6201 21.14 24.1501 21.93 23.3801ZM24.06 18.1101C23.47 18.6901 22.51 18.6901 21.91 18.1101C21.32 17.5301 21.32 16.5901 21.91 16.0101C22.5 15.4301 23.46 15.4301 24.06 16.0101C24.65 16.5901 24.65 17.5301 24.06 18.1101Z" fill="white"/>
<defs>
<radialGradient id="paint0_radial_3129_21497" cx="0" cy="0" r="1" gradientUnits="userSpaceOnUse" gradientTransform="translate(20.09 19.98) rotate(90) scale(20)">
<stop stop-color="#9893FF"/>
<stop offset="1" stop-color="#635BFF"/>
</radialGradient>
</defs>
</svg>
