<svg width="227" height="40" viewBox="0 0 227 40" fill="none" xmlns="http://www.w3.org/2000/svg">
<path d="M178.522 17.5C178.522 13.0817 182.104 9.5 186.522 9.5H218.278C222.696 9.5 226.278 13.0817 226.278 17.5V22.5C226.278 26.9183 222.696 30.5 218.278 30.5H178.522V17.5Z" fill="#0CBE5E"/>
<path d="M189.704 24.3427H186.522V15.5H189.619C192.232 15.5 194.034 17.3024 194.034 19.9395C194.034 22.5403 192.268 24.3427 189.704 24.3427ZM189.474 16.9274H188.071V22.9153H189.558C191.325 22.9153 192.401 21.7782 192.401 19.9395C192.401 18.0645 191.3 16.9274 189.474 16.9274Z" fill="white"/>
<path d="M197.781 24.5C196.003 24.5 194.757 23.2056 194.757 21.3548C194.757 19.4798 195.979 18.1855 197.733 18.1855C199.523 18.1855 200.66 19.3831 200.66 21.246V21.6935L196.16 21.7056C196.269 22.7581 196.825 23.2903 197.805 23.2903C198.616 23.2903 199.148 22.9758 199.317 22.4073H200.684C200.43 23.7137 199.342 24.5 197.781 24.5ZM197.745 19.3952C196.874 19.3952 196.342 19.8669 196.196 20.7621H199.196C199.196 19.9395 198.628 19.3952 197.745 19.3952Z" fill="white"/>
<path d="M203.166 24.3427H201.69V18.3669H203.045L203.166 19.0685C203.468 18.5726 204.073 18.1855 204.932 18.1855C205.839 18.1855 206.468 18.6331 206.783 19.3226C207.085 18.6331 207.787 18.1855 208.694 18.1855C210.146 18.1855 210.944 19.0565 210.944 20.4355V24.3427H209.48V20.8226C209.48 19.9637 209.021 19.5161 208.319 19.5161C207.605 19.5161 207.061 19.9758 207.061 20.9556V24.3427H205.585V20.8105C205.585 19.9758 205.138 19.5282 204.436 19.5282C203.734 19.5282 203.166 19.9879 203.166 20.9556V24.3427Z" fill="white"/>
<path d="M211.891 21.3424C211.891 19.4795 213.234 18.1973 215.084 18.1973C216.935 18.1973 218.278 19.4795 218.278 21.3424C218.278 23.2053 216.935 24.4876 215.084 24.4876C213.234 24.4876 211.891 23.2053 211.891 21.3424ZM213.367 21.3424C213.367 22.4312 214.068 23.1691 215.084 23.1691C216.1 23.1691 216.802 22.4312 216.802 21.3424C216.802 20.2537 216.1 19.5158 215.084 19.5158C214.068 19.5158 213.367 20.2537 213.367 21.3424Z" fill="white"/>
<path d="M59.7448 30.2113C55.6208 30.2113 52.8808 27.9798 52.7961 24.3924H57.2591C57.2591 25.5506 57.9653 26.285 59.7448 26.285C61.5244 26.285 62.2305 25.5506 62.2305 24.3924C62.2305 23.1778 60.8182 22.8953 59.1234 22.5846C56.4964 22.1044 53.135 21.483 53.135 16.9918C53.135 13.4891 55.7902 11.0034 59.7731 11.0034C63.6429 11.0034 66.2698 13.3479 66.4111 16.8505H62.1175C62.0893 15.7771 61.4114 14.9297 59.8295 14.9297C58.1912 14.9297 57.5416 15.8619 57.5416 16.8223C57.5416 18.0369 58.9539 18.3194 60.677 18.6301C63.3322 19.1103 66.6935 19.7317 66.6935 24.2229C66.6935 27.895 63.9253 30.2113 59.7448 30.2113Z" fill="white"/>
<path d="M74.4581 30.2113C71.351 30.2113 67.7071 27.895 67.7071 23.0366C67.7071 18.5453 70.8143 15.5229 75.249 15.5229C79.6273 15.5229 82.6779 18.4323 82.6779 23.0083V29.8441H78.7799V27.5278C78.0455 29.2509 76.4636 30.2113 74.4581 30.2113ZM75.2208 26.2567C77.1416 26.2567 78.4409 24.8726 78.4409 22.8671C78.4409 20.8616 77.1416 19.4775 75.2208 19.4775C73.3 19.4775 72.0006 20.8616 72.0006 22.8671C72.0006 24.8726 73.3 26.2567 75.2208 26.2567Z" fill="white"/>
<path d="M90.9435 30.2113C87.8363 30.2113 84.1925 27.895 84.1925 23.0366C84.1925 18.5453 87.2996 15.5229 91.7344 15.5229C96.1126 15.5229 99.1633 18.4323 99.1633 23.0083V29.8441H95.2652V27.5278C94.5308 29.2509 92.949 30.2113 90.9435 30.2113ZM91.7061 26.2567C93.6269 26.2567 94.9263 24.8726 94.9263 22.8671C94.9263 20.8616 93.6269 19.4775 91.7061 19.4775C89.7853 19.4775 88.486 20.8616 88.486 22.8671C88.486 24.8726 89.7853 26.2567 91.7061 26.2567Z" fill="white"/>
<path d="M107.711 30.2113C103.587 30.2113 100.847 27.9798 100.763 24.3924H105.226C105.226 25.5506 105.932 26.285 107.711 26.285C109.491 26.285 110.197 25.5506 110.197 24.3924C110.197 23.1778 108.785 22.8953 107.09 22.5846C104.463 22.1044 101.101 21.483 101.101 16.9918C101.101 13.4891 103.757 11.0034 107.74 11.0034C111.609 11.0034 114.236 13.3479 114.378 16.8505H110.084C110.056 15.7771 109.378 14.9297 107.796 14.9297C106.158 14.9297 105.508 15.8619 105.508 16.8223C105.508 18.0369 106.92 18.3194 108.643 18.6301C111.299 19.1103 114.66 19.7317 114.66 24.2229C114.66 27.895 111.892 30.2113 107.711 30.2113Z" fill="white"/>
<path d="M118.99 29.8438V11.3704H127.859C131.334 11.3704 133.17 13.3759 133.17 16.1441C133.17 18.0367 132.266 19.4772 130.684 20.2399V20.2964C132.774 20.9461 134.017 22.6409 134.017 24.8724C134.017 27.7253 132.153 29.8438 128.594 29.8438H118.99ZM122.267 18.9688H127.464C129.074 18.9688 129.893 17.9802 129.893 16.6808C129.893 15.3815 129.243 14.4211 127.436 14.4211H122.267V18.9688ZM122.267 26.8214H128.029C129.893 26.8214 130.628 25.7481 130.628 24.4204C130.628 23.0081 129.695 21.9347 128.085 21.9347H122.267V26.8214Z" fill="#635BFF"/>
<path d="M142.384 30.2111C137.978 30.2111 134.871 27.1039 134.871 22.8669C134.871 18.6298 137.978 15.5227 142.384 15.5227C146.791 15.5227 149.898 18.6298 149.898 22.8669C149.898 27.1039 146.791 30.2111 142.384 30.2111ZM142.384 27.3864C145.04 27.3864 146.791 25.4938 146.791 22.8669C146.791 20.2399 145.04 18.3474 142.384 18.3474C139.729 18.3474 137.95 20.2399 137.95 22.8669C137.95 25.4938 139.729 27.3864 142.384 27.3864Z" fill="#635BFF"/>
<path d="M151.877 29.8438V9.78857H154.928V29.8438H151.877Z" fill="#635BFF"/>
<path d="M164.487 30.2111C160.053 30.2111 156.945 27.1604 156.945 22.7539C156.945 18.0367 160.448 15.5227 163.951 15.5227C166.069 15.5227 167.877 16.4548 168.866 18.1214V9.78857H171.916V22.7539C171.916 27.2734 168.837 30.2111 164.487 30.2111ZM164.459 27.3864C167.086 27.3864 168.866 25.4938 168.866 22.8669C168.866 20.2399 167.086 18.3474 164.459 18.3474C161.804 18.3474 160.024 20.2399 160.024 22.8669C160.024 25.4938 161.804 27.3864 164.459 27.3864Z" fill="#635BFF"/>
<path fill-rule="evenodd" clip-rule="evenodd" d="M20 40C31.05 40 40 31.05 40 20C40 8.95 31.05 0 20 0C8.95 0 0 8.95 0 20C0 21.93 0.27 23.8 0.79 25.57C7.64 29.42 14.12 25.19 16.98 22.11L8.47 31.77L17.74 23.05C14.76 26 10.75 32.61 14.8 39.32C16.46 39.77 18.21 40 20.01 40H20ZM17.73 23.04L18.23 22.57C18.07 22.71 17.9 22.87 17.73 23.04ZM16.97 22.11L17.42 21.6C17.28 21.77 17.13 21.94 16.97 22.11Z" fill="url(#paint0_radial_3129_21558)"/>
<path d="M17.68 15.3699L15.69 17.3099C15.32 17.6699 14.99 17.9999 14.73 18.2899C14.56 18.4799 14.39 18.6899 14.25 18.9199L14.23 18.8999C14.23 18.8999 14.17 18.8499 14.16 18.8299C13.81 18.4999 13.41 18.2399 12.96 18.0599C12.94 18.0599 12.91 18.0399 12.86 18.0199L12.56 17.9099C12.16 17.7499 12.05 17.2499 12.36 16.9499C13.24 16.0899 14.29 15.0699 14.79 14.8599C15.24 14.6799 15.7201 14.6199 16.1901 14.6799C16.62 14.7399 17.0201 14.9599 17.68 15.3699Z" fill="white"/>
<path d="M21.08 25.6099C21.24 25.7699 21.35 25.8799 21.4401 25.9999C21.5701 26.1599 21.68 26.3299 21.7801 26.4999C21.89 26.6999 21.98 26.9099 22.15 27.3399C22.29 27.6899 22.76 27.7799 23.0301 27.5099L23.1 27.4499C23.9801 26.5899 25.03 25.5699 25.24 25.0699C25.43 24.6299 25.49 24.1599 25.42 23.6999C25.36 23.2799 25.14 22.8899 24.72 22.2399L22.73 24.1899C22.36 24.5599 22.0101 24.8899 21.7001 25.1499C21.5101 25.3099 21.3101 25.4599 21.09 25.5999L21.08 25.6099Z" fill="white"/>
<path fill-rule="evenodd" clip-rule="evenodd" d="M21.93 23.3799L26.48 18.8899C27.14 18.2499 27.47 17.9199 27.64 17.5199C27.81 17.1099 27.81 16.6599 27.81 15.7499V15.3199C27.81 13.9199 27.8101 13.2199 27.3701 12.7899C26.9301 12.3599 26.2101 12.3599 24.7801 12.3599H24.34C23.41 12.3599 22.9401 12.3599 22.5301 12.5299C22.1101 12.6999 21.78 13.0199 21.13 13.6699L16.56 18.1399C15.79 18.8899 15.31 19.3599 15.13 19.8099C15.07 19.9499 15.04 20.0899 15.04 20.2399C15.04 20.8499 15.55 21.3499 16.56 22.3399L16.7001 22.4699L18.2901 20.8799C18.5201 20.6499 18.8901 20.6499 19.1201 20.8799C19.3501 21.0999 19.3501 21.4699 19.1201 21.6899L17.5201 23.2799L17.63 23.3799C18.64 24.3699 19.1501 24.8599 19.7801 24.8599C19.9201 24.8599 20.0501 24.8399 20.1901 24.7899C20.6601 24.6199 21.14 24.1499 21.93 23.3799ZM24.06 18.1099C23.47 18.6899 22.51 18.6899 21.91 18.1099C21.32 17.5299 21.32 16.5899 21.91 16.0099C22.5 15.4299 23.46 15.4299 24.06 16.0099C24.65 16.5899 24.65 17.5299 24.06 18.1099Z" fill="white"/>
<defs>
<radialGradient id="paint0_radial_3129_21558" cx="0" cy="0" r="1" gradientUnits="userSpaceOnUse" gradientTransform="translate(20.09 19.98) rotate(90) scale(20)">
<stop stop-color="#9893FF"/>
<stop offset="1" stop-color="#635BFF"/>
</radialGradient>
</defs>
</svg>
