<svg width="30" height="30" viewBox="0 0 30 30" fill="none" xmlns="http://www.w3.org/2000/svg">
<path d="M10.7985 6.44765L7.1957 10.0396C6.53347 10.6999 5.926 11.3055 5.44626 11.853C5.13818 12.2046 4.83031 12.5894 4.56953 13.0146L4.53442 12.9796C4.46779 12.9131 4.43443 12.8799 4.40097 12.8474C3.77476 12.2398 3.03817 11.7567 2.23059 11.424C2.18744 11.4062 2.14364 11.3889 2.05604 11.3541L1.51962 11.1416C0.792922 10.8536 0.599249 9.91813 1.1522 9.36684C2.73916 7.78469 4.64454 5.88508 5.56408 5.50355C6.37504 5.16707 7.25108 5.05511 8.096 5.17998C8.87015 5.29438 9.60251 5.69204 10.7985 6.44765Z" fill="#635BFF"/>
<path d="M16.9502 25.3603C17.2405 25.655 17.4334 25.8631 17.6076 26.0855C17.8377 26.379 18.0433 26.6907 18.2226 27.0175C18.4243 27.3854 18.581 27.7784 18.8943 28.5643C19.1494 29.2042 19.9967 29.3733 20.4889 28.8826L20.6079 28.7639C22.1949 27.1817 24.1002 25.282 24.4828 24.3653C24.8203 23.5567 24.9326 22.6833 24.8074 21.8409C24.6927 21.0692 24.2939 20.3391 23.5362 19.147L19.9214 22.751C19.2442 23.4262 18.6232 24.0454 18.0616 24.5304C17.725 24.821 17.3568 25.1116 16.9502 25.3603Z" fill="#635BFF"/>
<path fill-rule="evenodd" clip-rule="evenodd" d="M18.466 21.2007L26.7491 12.9425C27.942 11.7532 28.5384 11.1585 28.8526 10.4023C29.1667 9.64614 29.1667 8.80519 29.1667 7.12328V6.31977C29.1667 3.73344 29.1667 2.44027 28.3608 1.6368C27.555 0.833336 26.2579 0.833336 23.6638 0.833336H22.8579C21.1709 0.833336 20.3274 0.833336 19.569 1.14656C18.8105 1.45978 18.2141 2.05443 17.0212 3.24373L8.73812 11.5019C7.34424 12.8916 6.47995 13.7533 6.14528 14.5856C6.03953 14.8486 5.98665 15.1086 5.98665 15.3814C5.98665 16.5177 6.90381 17.4321 8.73812 19.2609L8.98465 19.5067L11.8726 16.5757C12.2844 16.1577 12.9571 16.1528 13.3751 16.5646C13.7931 16.9765 13.7981 17.6492 13.3862 18.0672L10.4895 21.0071L10.6837 21.2007C12.518 23.0295 13.4352 23.9439 14.5749 23.9439C14.8267 23.9439 15.0676 23.8992 15.31 23.81C16.1646 23.4952 17.037 22.6254 18.466 21.2007ZM22.3574 11.5025C21.2829 12.5738 19.5407 12.5738 18.4662 11.5025C17.3917 10.4312 17.3917 8.69434 18.4662 7.62305C19.5407 6.55176 21.2829 6.55176 22.3574 7.62305C23.4319 8.69434 23.4319 10.4312 22.3574 11.5025Z" fill="#635BFF"/>
</svg>
