<svg width="34" height="34" viewBox="0 0 34 34" fill="none" xmlns="http://www.w3.org/2000/svg">
<path d="M8.03167 14.0453L12.3697 8.17604C15.1738 4.38214 16.5758 2.48518 17.8839 2.88605C19.192 3.28692 19.192 5.61353 19.192 10.2667V10.7055C19.192 12.3838 19.192 13.223 19.7283 13.7493L19.7567 13.7766C20.3045 14.2918 21.1779 14.2918 22.9247 14.2918C26.0681 14.2918 27.6398 14.2918 28.171 15.2452C28.1798 15.261 28.1883 15.2769 28.1966 15.2929C28.698 16.261 27.788 17.4922 25.968 19.9547L21.6299 25.8239C18.8258 29.6179 17.4237 31.5148 16.1156 31.1139C14.8075 30.7131 14.8075 28.3864 14.8076 23.7332L14.8076 23.2946C14.8076 21.6163 14.8077 20.7771 14.2714 20.2507L14.243 20.2235C13.6952 19.7082 12.8218 19.7082 11.075 19.7082C7.93159 19.7082 6.35989 19.7082 5.82871 18.7549C5.81991 18.7391 5.81136 18.7232 5.80306 18.7071C5.30163 17.739 6.21164 16.5078 8.03167 14.0453Z" fill="#573CFF"/>
</svg>
