<svg width="34" height="34" viewBox="0 0 34 34" fill="none" xmlns="http://www.w3.org/2000/svg">
<path fill-rule="evenodd" clip-rule="evenodd" d="M21.2502 2.83333H24.0835C26.7548 2.83333 28.0904 2.83333 28.9203 3.6632C29.7502 4.49306 29.7502 5.82871 29.7502 8.5V30.1042H31.1668C31.7536 30.1042 32.2293 30.5799 32.2293 31.1667C32.2293 31.7535 31.7536 32.2292 31.1668 32.2292H2.8335C2.24669 32.2292 1.771 31.7535 1.771 31.1667C1.771 30.5799 2.24669 30.1042 2.8335 30.1042H4.25016V12.75C4.25016 10.0787 4.25016 8.74306 5.08003 7.9132C5.90989 7.08333 7.24554 7.08333 9.91683 7.08333H15.5835C18.2548 7.08333 19.5904 7.08333 20.4203 7.9132C21.2502 8.74306 21.2502 10.0787 21.2502 12.75V30.1042H23.3752V12.75L23.3752 12.6232C23.3753 11.3969 23.3755 10.2725 23.2525 9.35791C23.1171 8.35072 22.7985 7.28616 21.9229 6.4106C21.0473 5.53503 19.9828 5.21643 18.9756 5.08101C18.0738 4.95978 16.9682 4.9582 15.762 4.95832C15.8814 4.40972 16.0807 3.99583 16.4134 3.6632C17.2432 2.83333 18.5789 2.83333 21.2502 2.83333ZM7.43766 11.3333C7.43766 10.7465 7.91336 10.2708 8.50016 10.2708H17.0002C17.587 10.2708 18.0627 10.7465 18.0627 11.3333C18.0627 11.9201 17.587 12.3958 17.0002 12.3958H8.50016C7.91336 12.3958 7.43766 11.9201 7.43766 11.3333ZM7.43766 15.5833C7.43766 14.9965 7.91336 14.5208 8.50016 14.5208H17.0002C17.587 14.5208 18.0627 14.9965 18.0627 15.5833C18.0627 16.1701 17.587 16.6458 17.0002 16.6458H8.50016C7.91336 16.6458 7.43766 16.1701 7.43766 15.5833ZM7.43766 19.8333C7.43766 19.2465 7.91336 18.7708 8.50016 18.7708H17.0002C17.587 18.7708 18.0627 19.2465 18.0627 19.8333C18.0627 20.4201 17.587 20.8958 17.0002 20.8958H8.50016C7.91336 20.8958 7.43766 20.4201 7.43766 19.8333ZM12.7502 25.8542C13.337 25.8542 13.8127 26.3299 13.8127 26.9167V30.1042H11.6877V26.9167C11.6877 26.3299 12.1634 25.8542 12.7502 25.8542Z" fill="#573CFF"/>
</svg>
