<svg width="34" height="34" viewBox="0 0 34 34" fill="none" xmlns="http://www.w3.org/2000/svg">
<path d="M12.7987 8.44765L9.19595 12.0396C8.53372 12.6998 7.92624 13.3055 7.44651 13.853C7.13843 14.2045 6.83055 14.5894 6.56977 15.0146L6.53466 14.9796C6.46803 14.9131 6.43467 14.8799 6.40121 14.8474C5.775 14.2398 5.03841 13.7567 4.23084 13.424C4.18768 13.4062 4.14388 13.3888 4.05628 13.3541L3.51986 13.1416C2.79317 12.8536 2.59949 11.9181 3.15245 11.3668C4.73941 9.78469 6.64478 7.88508 7.56432 7.50355C8.37529 7.16707 9.25133 7.05511 10.0962 7.17997C10.8704 7.29438 11.6027 7.69204 12.7987 8.44765Z" fill="white"/>
<path d="M18.9505 27.3603C19.2408 27.655 19.4336 27.8631 19.6079 28.0855C19.8379 28.379 20.0436 28.6907 20.2228 29.0175C20.4246 29.3854 20.5812 29.7784 20.8946 30.5643C21.1496 31.2042 21.997 31.3733 22.4891 30.8826L22.6082 30.7639C24.1951 29.1817 26.1004 27.282 26.4831 26.3652C26.8206 25.5567 26.9329 24.6833 26.8076 23.8409C26.6929 23.0692 26.2941 22.3391 25.5364 21.147L21.9216 24.751C21.2444 25.4262 20.6234 26.0454 20.0618 26.5304C19.7253 26.821 19.357 27.1116 18.9505 27.3603Z" fill="white"/>
<path fill-rule="evenodd" clip-rule="evenodd" d="M20.4663 23.2007L28.7493 14.9425C29.9422 13.7532 30.5386 13.1585 30.8528 12.4023C31.167 11.6461 31.167 10.8052 31.167 9.12328V8.31976C31.167 5.73343 31.167 4.44027 30.3611 3.6368C29.5552 2.83333 28.2582 2.83333 25.664 2.83333H24.8582C23.1712 2.83333 22.3277 2.83333 21.5692 3.14655C20.8107 3.45978 20.2143 4.05443 19.0214 5.24373L10.7384 13.5019C9.34449 14.8916 8.4802 15.7533 8.14552 16.5856C8.03977 16.8486 7.9869 17.1086 7.9869 17.3814C7.9869 18.5177 8.90405 19.4321 10.7384 21.2609L10.9849 21.5067L13.8728 18.5757C14.2846 18.1577 14.9574 18.1528 15.3754 18.5646C15.7934 18.9765 15.7983 19.6492 15.3865 20.0672L12.4898 23.0071L12.6839 23.2007C14.5183 25.0295 15.4354 25.9439 16.5751 25.9439C16.8269 25.9439 17.0679 25.8992 17.3103 25.81C18.1649 25.4952 19.0373 24.6254 20.4663 23.2007ZM24.3576 13.5025C23.2831 14.5738 21.541 14.5738 20.4664 13.5025C19.3919 12.4312 19.3919 10.6943 20.4664 9.62305C21.541 8.55176 23.2831 8.55176 24.3576 9.62305C25.4321 10.6943 25.4321 12.4312 24.3576 13.5025Z" fill="white"/>
</svg>
