<svg width="376" height="376" viewBox="0 0 376 376" fill="none" xmlns="http://www.w3.org/2000/svg">
<g opacity="0.1">
<path fillRule="evenodd" clipRule="evenodd" d="M376 291.792L-3.64036e-06 291.792L-3.72132e-06 290.866L376 290.866L376 291.792Z" fill="url(#paint0_linear_1688_2250)"/>
<path fillRule="evenodd" clipRule="evenodd" d="M376 321.167L-2.35634e-06 321.167L-2.4373e-06 320.241L376 320.241L376 321.167Z" fill="url(#paint1_linear_1688_2250)"/>
<path fillRule="evenodd" clipRule="evenodd" d="M376 350.542L-1.07232e-06 350.542L-1.15328e-06 349.616L376 349.616L376 350.542Z" fill="url(#paint2_linear_1688_2250)"/>
<path fillRule="evenodd" clipRule="evenodd" d="M261.633 -1.14364e-05L261.633 376L260.707 376L260.707 -1.13959e-05L261.633 -1.14364e-05Z" fill="url(#paint3_linear_1688_2250)"/>
<path fillRule="evenodd" clipRule="evenodd" d="M291.008 -1.27204e-05L291.008 376L290.082 376L290.082 -1.26799e-05L291.008 -1.27204e-05Z" fill="url(#paint4_linear_1688_2250)"/>
<path fillRule="evenodd" clipRule="evenodd" d="M320.383 -1.40044e-05L320.383 376L319.457 376L319.457 -1.39639e-05L320.383 -1.40044e-05Z" fill="url(#paint5_linear_1688_2250)"/>
<path fillRule="evenodd" clipRule="evenodd" d="M349.758 -1.52884e-05L349.759 376L348.833 376L348.832 -1.5248e-05L349.758 -1.52884e-05Z" fill="url(#paint6_linear_1688_2250)"/>
<path fillRule="evenodd" clipRule="evenodd" d="M376 262.417L-4.92438e-06 262.417L-5.00534e-06 261.491L376 261.491L376 262.417Z" fill="url(#paint7_linear_1688_2250)"/>
<path fillRule="evenodd" clipRule="evenodd" d="M232.258 -1.01523e-05L232.258 376L231.332 376L231.332 -1.01119e-05L232.258 -1.01523e-05Z" fill="url(#paint8_linear_1688_2250)"/>
<path fillRule="evenodd" clipRule="evenodd" d="M376 233.042L-6.20841e-06 233.042L-6.28936e-06 232.116L376 232.116L376 233.042Z" fill="url(#paint9_linear_1688_2250)"/>
<path fillRule="evenodd" clipRule="evenodd" d="M202.883 -8.86831e-06L202.883 376L201.957 376L201.957 -8.82783e-06L202.883 -8.86831e-06Z" fill="url(#paint10_linear_1688_2250)"/>
<path fillRule="evenodd" clipRule="evenodd" d="M376 203.667L-7.49243e-06 203.667L-7.57339e-06 202.741L376 202.741L376 203.667Z" fill="url(#paint11_linear_1688_2250)"/>
<path fillRule="evenodd" clipRule="evenodd" d="M173.508 -7.58429e-06L173.508 376L172.582 376L172.582 -7.54381e-06L173.508 -7.58429e-06Z" fill="url(#paint12_linear_1688_2250)"/>
<path fillRule="evenodd" clipRule="evenodd" d="M376 174.292L-8.77645e-06 174.292L-8.85741e-06 173.366L376 173.366L376 174.292Z" fill="url(#paint13_linear_1688_2250)"/>
<path fillRule="evenodd" clipRule="evenodd" d="M144.133 -6.30027e-06L144.133 376L143.207 376L143.207 -6.25979e-06L144.133 -6.30027e-06Z" fill="url(#paint14_linear_1688_2250)"/>
<path fillRule="evenodd" clipRule="evenodd" d="M376 144.917L-1.00605e-05 144.917L-1.01414e-05 143.991L376 143.991L376 144.917Z" fill="url(#paint15_linear_1688_2250)"/>
<path fillRule="evenodd" clipRule="evenodd" d="M114.758 -5.01625e-06L114.758 376L113.832 376L113.832 -4.97577e-06L114.758 -5.01625e-06Z" fill="url(#paint16_linear_1688_2250)"/>
<path fillRule="evenodd" clipRule="evenodd" d="M376 115.542L-1.13445e-05 115.542L-1.14255e-05 114.616L376 114.616L376 115.542Z" fill="url(#paint17_linear_1688_2250)"/>
<path fillRule="evenodd" clipRule="evenodd" d="M85.3834 -3.73223e-06L85.3834 376L84.4574 376L84.4573 -3.69175e-06L85.3834 -3.73223e-06Z" fill="url(#paint18_linear_1688_2250)"/>
<path fillRule="evenodd" clipRule="evenodd" d="M376 86.1671L-1.26285e-05 86.1672L-1.27095e-05 85.2411L376 85.2411L376 86.1671Z" fill="url(#paint19_linear_1688_2250)"/>
<path fillRule="evenodd" clipRule="evenodd" d="M56.0083 -2.4482e-06L56.0084 376L55.0824 376L55.0823 -2.40772e-06L56.0083 -2.4482e-06Z" fill="url(#paint20_linear_1688_2250)"/>
<path fillRule="evenodd" clipRule="evenodd" d="M376 56.7921L-1.39125e-05 56.7922L-1.39935e-05 55.8661L376 55.8661L376 56.7921Z" fill="url(#paint21_linear_1688_2250)"/>
<path fillRule="evenodd" clipRule="evenodd" d="M26.6333 -1.16418e-06L26.6334 376L25.7074 376L25.7073 -1.1237e-06L26.6333 -1.16418e-06Z" fill="url(#paint22_linear_1688_2250)"/>
<path d="M316.858 86.1669C318.491 85.5626 319.779 84.275 320.383 82.642C320.988 84.275 322.275 85.5626 323.908 86.1669C322.275 86.7713 320.988 88.0589 320.383 89.6919C319.779 88.0589 318.491 86.7713 316.858 86.1669Z" fill="url(#paint23_linear_1688_2250)"/>
<path d="M316.858 56.7919C318.491 56.1876 319.779 54.9 320.383 53.267C320.988 54.9 322.275 56.1876 323.908 56.7919C322.275 57.3963 320.988 58.6839 320.383 60.3169C319.779 58.6839 318.491 57.3963 316.858 56.7919Z" fill="url(#paint24_linear_1688_2250)"/>
<path d="M316.858 115.542C318.491 114.938 319.779 113.65 320.383 112.017C320.988 113.65 322.275 114.938 323.908 115.542C322.275 116.146 320.988 117.434 320.383 119.067C319.779 117.434 318.491 116.146 316.858 115.542Z" fill="url(#paint25_linear_1688_2250)"/>
<path d="M316.858 144.917C318.491 144.313 319.779 143.025 320.383 141.392C320.988 143.025 322.275 144.313 323.908 144.917C322.275 145.521 320.988 146.809 320.383 148.442C319.779 146.809 318.491 145.521 316.858 144.917Z" fill="url(#paint26_linear_1688_2250)"/>
<path d="M316.858 174.292C318.491 173.688 319.779 172.4 320.383 170.767C320.988 172.4 322.275 173.688 323.908 174.292C322.275 174.896 320.988 176.184 320.383 177.817C319.779 176.184 318.491 174.896 316.858 174.292Z" fill="url(#paint27_linear_1688_2250)"/>
<path d="M316.858 203.667C318.491 203.063 319.779 201.775 320.383 200.142C320.988 201.775 322.275 203.063 323.908 203.667C322.275 204.271 320.988 205.559 320.383 207.192C319.779 205.559 318.491 204.271 316.858 203.667Z" fill="url(#paint28_linear_1688_2250)"/>
<path d="M316.858 262.417C318.491 261.813 319.779 260.525 320.383 258.892C320.988 260.525 322.275 261.813 323.908 262.417C322.275 263.021 320.988 264.309 320.383 265.942C319.779 264.309 318.491 263.021 316.858 262.417Z" fill="url(#paint29_linear_1688_2250)"/>
<path d="M316.858 233.042C318.491 232.438 319.779 231.15 320.383 229.517C320.988 231.15 322.275 232.438 323.908 233.042C322.275 233.646 320.988 234.934 320.383 236.567C319.779 234.934 318.491 233.646 316.858 233.042Z" fill="url(#paint30_linear_1688_2250)"/>
<path d="M316.858 291.792C318.491 291.188 319.779 289.9 320.383 288.267C320.988 289.9 322.275 291.188 323.908 291.792C322.275 292.396 320.988 293.684 320.383 295.317C319.779 293.684 318.491 292.396 316.858 291.792Z" fill="url(#paint31_linear_1688_2250)"/>
<path d="M316.858 321.167C318.491 320.563 319.779 319.275 320.383 317.642C320.988 319.275 322.275 320.563 323.908 321.167C322.275 321.771 320.988 323.059 320.383 324.692C319.779 323.059 318.491 321.771 316.858 321.167Z" fill="url(#paint32_linear_1688_2250)"/>
<path d="M316.858 350.542C318.491 349.938 319.779 348.65 320.383 347.017C320.988 348.65 322.275 349.938 323.908 350.542C322.275 351.146 320.988 352.434 320.383 354.067C319.779 352.434 318.491 351.146 316.858 350.542Z" fill="url(#paint33_linear_1688_2250)"/>
<path d="M346.233 86.1669C347.866 85.5626 349.154 84.275 349.758 82.642C350.363 84.275 351.65 85.5626 353.283 86.1669C351.65 86.7713 350.363 88.0589 349.758 89.6919C349.154 88.0589 347.866 86.7713 346.233 86.1669Z" fill="url(#paint34_linear_1688_2250)"/>
<path d="M346.233 56.7919C347.866 56.1876 349.154 54.9 349.758 53.267C350.363 54.9 351.65 56.1876 353.283 56.7919C351.65 57.3963 350.363 58.6839 349.758 60.3169C349.154 58.6839 347.866 57.3963 346.233 56.7919Z" fill="url(#paint35_linear_1688_2250)"/>
<path d="M346.233 115.542C347.866 114.938 349.154 113.65 349.758 112.017C350.363 113.65 351.65 114.938 353.283 115.542C351.65 116.146 350.363 117.434 349.758 119.067C349.154 117.434 347.866 116.146 346.233 115.542Z" fill="url(#paint36_linear_1688_2250)"/>
<path d="M346.233 144.917C347.866 144.313 349.154 143.025 349.758 141.392C350.363 143.025 351.65 144.313 353.283 144.917C351.65 145.521 350.363 146.809 349.758 148.442C349.154 146.809 347.866 145.521 346.233 144.917Z" fill="url(#paint37_linear_1688_2250)"/>
<path d="M346.233 174.292C347.866 173.688 349.154 172.4 349.758 170.767C350.363 172.4 351.65 173.688 353.283 174.292C351.65 174.896 350.363 176.184 349.758 177.817C349.154 176.184 347.866 174.896 346.233 174.292Z" fill="url(#paint38_linear_1688_2250)"/>
<path d="M346.233 203.667C347.866 203.063 349.154 201.775 349.758 200.142C350.363 201.775 351.65 203.063 353.283 203.667C351.65 204.271 350.363 205.559 349.758 207.192C349.154 205.559 347.866 204.271 346.233 203.667Z" fill="url(#paint39_linear_1688_2250)"/>
<path d="M346.233 262.417C347.866 261.813 349.154 260.525 349.758 258.892C350.363 260.525 351.65 261.813 353.283 262.417C351.65 263.021 350.363 264.309 349.758 265.942C349.154 264.309 347.866 263.021 346.233 262.417Z" fill="url(#paint40_linear_1688_2250)"/>
<path d="M346.233 233.042C347.866 232.438 349.154 231.15 349.758 229.517C350.363 231.15 351.65 232.438 353.283 233.042C351.65 233.646 350.363 234.934 349.758 236.567C349.154 234.934 347.866 233.646 346.233 233.042Z" fill="url(#paint41_linear_1688_2250)"/>
<path d="M346.233 291.792C347.866 291.188 349.154 289.9 349.758 288.267C350.363 289.9 351.65 291.188 353.283 291.792C351.65 292.396 350.363 293.684 349.758 295.317C349.154 293.684 347.866 292.396 346.233 291.792Z" fill="url(#paint42_linear_1688_2250)"/>
<path d="M346.233 321.167C347.866 320.563 349.154 319.275 349.758 317.642C350.363 319.275 351.65 320.563 353.283 321.167C351.65 321.771 350.363 323.059 349.758 324.692C349.154 323.059 347.866 321.771 346.233 321.167Z" fill="url(#paint43_linear_1688_2250)"/>
<path d="M346.233 350.542C347.866 349.938 349.154 348.65 349.758 347.017C350.363 348.65 351.65 349.938 353.283 350.542C351.65 351.146 350.363 352.434 349.758 354.067C349.154 352.434 347.866 351.146 346.233 350.542Z" fill="url(#paint44_linear_1688_2250)"/>
<path d="M287.483 86.1669C289.116 85.5626 290.404 84.275 291.008 82.642C291.613 84.275 292.9 85.5626 294.533 86.1669C292.9 86.7713 291.613 88.0589 291.008 89.6919C290.404 88.0589 289.116 86.7713 287.483 86.1669Z" fill="url(#paint45_linear_1688_2250)"/>
<path d="M287.483 56.7919C289.116 56.1876 290.404 54.9 291.008 53.267C291.613 54.9 292.9 56.1876 294.533 56.7919C292.9 57.3963 291.613 58.6839 291.008 60.3169C290.404 58.6839 289.116 57.3963 287.483 56.7919Z" fill="url(#paint46_linear_1688_2250)"/>
<path d="M287.483 115.542C289.116 114.938 290.404 113.65 291.008 112.017C291.613 113.65 292.9 114.938 294.533 115.542C292.9 116.146 291.613 117.434 291.008 119.067C290.404 117.434 289.116 116.146 287.483 115.542Z" fill="url(#paint47_linear_1688_2250)"/>
<path d="M287.483 144.917C289.116 144.313 290.404 143.025 291.008 141.392C291.613 143.025 292.9 144.313 294.533 144.917C292.9 145.521 291.613 146.809 291.008 148.442C290.404 146.809 289.116 145.521 287.483 144.917Z" fill="url(#paint48_linear_1688_2250)"/>
<path d="M287.483 174.292C289.116 173.688 290.404 172.4 291.008 170.767C291.613 172.4 292.9 173.688 294.533 174.292C292.9 174.896 291.613 176.184 291.008 177.817C290.404 176.184 289.116 174.896 287.483 174.292Z" fill="url(#paint49_linear_1688_2250)"/>
<path d="M287.483 203.667C289.116 203.063 290.404 201.775 291.008 200.142C291.613 201.775 292.9 203.063 294.533 203.667C292.9 204.271 291.613 205.559 291.008 207.192C290.404 205.559 289.116 204.271 287.483 203.667Z" fill="url(#paint50_linear_1688_2250)"/>
<path d="M287.483 262.417C289.116 261.813 290.404 260.525 291.008 258.892C291.613 260.525 292.9 261.813 294.533 262.417C292.9 263.021 291.613 264.309 291.008 265.942C290.404 264.309 289.116 263.021 287.483 262.417Z" fill="url(#paint51_linear_1688_2250)"/>
<path d="M287.483 233.042C289.116 232.438 290.404 231.15 291.008 229.517C291.613 231.15 292.9 232.438 294.533 233.042C292.9 233.646 291.613 234.934 291.008 236.567C290.404 234.934 289.116 233.646 287.483 233.042Z" fill="url(#paint52_linear_1688_2250)"/>
<path d="M287.483 291.792C289.116 291.188 290.404 289.9 291.008 288.267C291.613 289.9 292.9 291.188 294.533 291.792C292.9 292.396 291.613 293.684 291.008 295.317C290.404 293.684 289.116 292.396 287.483 291.792Z" fill="url(#paint53_linear_1688_2250)"/>
<path d="M287.483 321.167C289.116 320.563 290.404 319.275 291.008 317.642C291.613 319.275 292.9 320.563 294.533 321.167C292.9 321.771 291.613 323.059 291.008 324.692C290.404 323.059 289.116 321.771 287.483 321.167Z" fill="url(#paint54_linear_1688_2250)"/>
<path d="M287.483 350.542C289.116 349.938 290.404 348.65 291.008 347.017C291.613 348.65 292.9 349.938 294.533 350.542C292.9 351.146 291.613 352.434 291.008 354.067C290.404 352.434 289.116 351.146 287.483 350.542Z" fill="url(#paint55_linear_1688_2250)"/>
<path d="M258.108 86.167C259.741 85.5626 261.029 84.275 261.633 82.642C262.238 84.275 263.525 85.5626 265.158 86.167C263.525 86.7713 262.238 88.0589 261.633 89.6919C261.029 88.0589 259.741 86.7713 258.108 86.167Z" fill="url(#paint56_linear_1688_2250)"/>
<path d="M258.108 56.792C259.741 56.1876 261.029 54.9 261.633 53.267C262.238 54.9 263.525 56.1876 265.158 56.792C263.525 57.3963 262.238 58.6839 261.633 60.3169C261.029 58.6839 259.741 57.3963 258.108 56.792Z" fill="url(#paint57_linear_1688_2250)"/>
<path d="M258.108 115.542C259.741 114.938 261.029 113.65 261.633 112.017C262.238 113.65 263.525 114.938 265.158 115.542C263.525 116.146 262.238 117.434 261.633 119.067C261.029 117.434 259.741 116.146 258.108 115.542Z" fill="url(#paint58_linear_1688_2250)"/>
<path d="M258.108 144.917C259.741 144.313 261.029 143.025 261.633 141.392C262.238 143.025 263.525 144.313 265.158 144.917C263.525 145.521 262.238 146.809 261.633 148.442C261.029 146.809 259.741 145.521 258.108 144.917Z" fill="url(#paint59_linear_1688_2250)"/>
<path d="M258.108 174.292C259.741 173.688 261.029 172.4 261.633 170.767C262.238 172.4 263.525 173.688 265.158 174.292C263.525 174.896 262.238 176.184 261.633 177.817C261.029 176.184 259.741 174.896 258.108 174.292Z" fill="url(#paint60_linear_1688_2250)"/>
<path d="M258.108 203.667C259.741 203.063 261.029 201.775 261.633 200.142C262.238 201.775 263.525 203.063 265.158 203.667C263.525 204.271 262.238 205.559 261.633 207.192C261.029 205.559 259.741 204.271 258.108 203.667Z" fill="url(#paint61_linear_1688_2250)"/>
<path d="M258.108 262.417C259.741 261.813 261.029 260.525 261.633 258.892C262.238 260.525 263.525 261.813 265.158 262.417C263.525 263.021 262.238 264.309 261.633 265.942C261.029 264.309 259.741 263.021 258.108 262.417Z" fill="url(#paint62_linear_1688_2250)"/>
<path d="M258.108 233.042C259.741 232.438 261.029 231.15 261.633 229.517C262.238 231.15 263.525 232.438 265.158 233.042C263.525 233.646 262.238 234.934 261.633 236.567C261.029 234.934 259.741 233.646 258.108 233.042Z" fill="url(#paint63_linear_1688_2250)"/>
<path d="M258.108 291.792C259.741 291.188 261.029 289.9 261.633 288.267C262.238 289.9 263.525 291.188 265.158 291.792C263.525 292.396 262.238 293.684 261.633 295.317C261.029 293.684 259.741 292.396 258.108 291.792Z" fill="url(#paint64_linear_1688_2250)"/>
<path d="M258.108 321.167C259.741 320.563 261.029 319.275 261.633 317.642C262.238 319.275 263.525 320.563 265.158 321.167C263.525 321.771 262.238 323.059 261.633 324.692C261.029 323.059 259.741 321.771 258.108 321.167Z" fill="url(#paint65_linear_1688_2250)"/>
<path d="M258.108 350.542C259.741 349.938 261.029 348.65 261.633 347.017C262.238 348.65 263.525 349.938 265.158 350.542C263.525 351.146 262.238 352.434 261.633 354.067C261.029 352.434 259.741 351.146 258.108 350.542Z" fill="url(#paint66_linear_1688_2250)"/>
<path d="M228.733 86.167C230.366 85.5626 231.654 84.275 232.258 82.642C232.863 84.275 234.15 85.5626 235.783 86.167C234.15 86.7713 232.863 88.0589 232.258 89.6919C231.654 88.0589 230.366 86.7713 228.733 86.167Z" fill="url(#paint67_linear_1688_2250)"/>
<path d="M228.733 56.792C230.366 56.1876 231.654 54.9 232.258 53.267C232.863 54.9 234.15 56.1876 235.783 56.792C234.15 57.3963 232.863 58.6839 232.258 60.3169C231.654 58.6839 230.366 57.3963 228.733 56.792Z" fill="url(#paint68_linear_1688_2250)"/>
<path d="M228.733 115.542C230.366 114.938 231.654 113.65 232.258 112.017C232.863 113.65 234.15 114.938 235.783 115.542C234.15 116.146 232.863 117.434 232.258 119.067C231.654 117.434 230.366 116.146 228.733 115.542Z" fill="url(#paint69_linear_1688_2250)"/>
<path d="M228.733 144.917C230.366 144.313 231.654 143.025 232.258 141.392C232.863 143.025 234.15 144.313 235.783 144.917C234.15 145.521 232.863 146.809 232.258 148.442C231.654 146.809 230.366 145.521 228.733 144.917Z" fill="url(#paint70_linear_1688_2250)"/>
<path d="M228.733 174.292C230.366 173.688 231.654 172.4 232.258 170.767C232.863 172.4 234.15 173.688 235.783 174.292C234.15 174.896 232.863 176.184 232.258 177.817C231.654 176.184 230.366 174.896 228.733 174.292Z" fill="url(#paint71_linear_1688_2250)"/>
<path d="M228.733 203.667C230.366 203.063 231.654 201.775 232.258 200.142C232.863 201.775 234.15 203.063 235.783 203.667C234.15 204.271 232.863 205.559 232.258 207.192C231.654 205.559 230.366 204.271 228.733 203.667Z" fill="url(#paint72_linear_1688_2250)"/>
<path d="M228.733 262.417C230.366 261.813 231.654 260.525 232.258 258.892C232.863 260.525 234.15 261.813 235.783 262.417C234.15 263.021 232.863 264.309 232.258 265.942C231.654 264.309 230.366 263.021 228.733 262.417Z" fill="url(#paint73_linear_1688_2250)"/>
<path d="M228.733 233.042C230.366 232.438 231.654 231.15 232.258 229.517C232.863 231.15 234.15 232.438 235.783 233.042C234.15 233.646 232.863 234.934 232.258 236.567C231.654 234.934 230.366 233.646 228.733 233.042Z" fill="url(#paint74_linear_1688_2250)"/>
<path d="M228.733 291.792C230.366 291.188 231.654 289.9 232.258 288.267C232.863 289.9 234.15 291.188 235.783 291.792C234.15 292.396 232.863 293.684 232.258 295.317C231.654 293.684 230.366 292.396 228.733 291.792Z" fill="url(#paint75_linear_1688_2250)"/>
<path d="M228.733 321.167C230.366 320.563 231.654 319.275 232.258 317.642C232.863 319.275 234.15 320.563 235.783 321.167C234.15 321.771 232.863 323.059 232.258 324.692C231.654 323.059 230.366 321.771 228.733 321.167Z" fill="url(#paint76_linear_1688_2250)"/>
<path d="M228.733 350.542C230.366 349.938 231.654 348.65 232.258 347.017C232.863 348.65 234.15 349.938 235.783 350.542C234.15 351.146 232.863 352.434 232.258 354.067C231.654 352.434 230.366 351.146 228.733 350.542Z" fill="url(#paint77_linear_1688_2250)"/>
<path d="M199.358 86.167C200.991 85.5626 202.279 84.275 202.883 82.642C203.488 84.275 204.775 85.5626 206.408 86.167C204.775 86.7713 203.488 88.0589 202.883 89.6919C202.279 88.0589 200.991 86.7713 199.358 86.167Z" fill="url(#paint78_linear_1688_2250)"/>
<path d="M199.358 56.792C200.991 56.1876 202.279 54.9 202.883 53.267C203.488 54.9 204.775 56.1876 206.408 56.792C204.775 57.3963 203.488 58.6839 202.883 60.3169C202.279 58.6839 200.991 57.3963 199.358 56.792Z" fill="url(#paint79_linear_1688_2250)"/>
<path d="M199.358 115.542C200.991 114.938 202.279 113.65 202.883 112.017C203.488 113.65 204.775 114.938 206.408 115.542C204.775 116.146 203.488 117.434 202.883 119.067C202.279 117.434 200.991 116.146 199.358 115.542Z" fill="url(#paint80_linear_1688_2250)"/>
<path d="M199.358 144.917C200.991 144.313 202.279 143.025 202.883 141.392C203.488 143.025 204.775 144.313 206.408 144.917C204.775 145.521 203.488 146.809 202.883 148.442C202.279 146.809 200.991 145.521 199.358 144.917Z" fill="url(#paint81_linear_1688_2250)"/>
<path d="M199.358 174.292C200.991 173.688 202.279 172.4 202.883 170.767C203.488 172.4 204.775 173.688 206.408 174.292C204.775 174.896 203.488 176.184 202.883 177.817C202.279 176.184 200.991 174.896 199.358 174.292Z" fill="url(#paint82_linear_1688_2250)"/>
<path d="M199.358 203.667C200.991 203.063 202.279 201.775 202.883 200.142C203.488 201.775 204.775 203.063 206.408 203.667C204.775 204.271 203.488 205.559 202.883 207.192C202.279 205.559 200.991 204.271 199.358 203.667Z" fill="url(#paint83_linear_1688_2250)"/>
<path d="M199.358 262.417C200.991 261.813 202.279 260.525 202.883 258.892C203.488 260.525 204.775 261.813 206.408 262.417C204.775 263.021 203.488 264.309 202.883 265.942C202.279 264.309 200.991 263.021 199.358 262.417Z" fill="url(#paint84_linear_1688_2250)"/>
<path d="M199.358 233.042C200.991 232.438 202.279 231.15 202.883 229.517C203.488 231.15 204.775 232.438 206.408 233.042C204.775 233.646 203.488 234.934 202.883 236.567C202.279 234.934 200.991 233.646 199.358 233.042Z" fill="url(#paint85_linear_1688_2250)"/>
<path d="M199.358 291.792C200.991 291.188 202.279 289.9 202.883 288.267C203.488 289.9 204.775 291.188 206.408 291.792C204.775 292.396 203.488 293.684 202.883 295.317C202.279 293.684 200.991 292.396 199.358 291.792Z" fill="url(#paint86_linear_1688_2250)"/>
<path d="M199.358 321.167C200.991 320.563 202.279 319.275 202.883 317.642C203.488 319.275 204.775 320.563 206.408 321.167C204.775 321.771 203.488 323.059 202.883 324.692C202.279 323.059 200.991 321.771 199.358 321.167Z" fill="url(#paint87_linear_1688_2250)"/>
<path d="M199.358 350.542C200.991 349.938 202.279 348.65 202.883 347.017C203.488 348.65 204.775 349.938 206.408 350.542C204.775 351.146 203.488 352.434 202.883 354.067C202.279 352.434 200.991 351.146 199.358 350.542Z" fill="url(#paint88_linear_1688_2250)"/>
<path d="M169.983 86.167C171.616 85.5626 172.904 84.275 173.508 82.642C174.113 84.275 175.4 85.5626 177.033 86.167C175.4 86.7713 174.113 88.0589 173.508 89.6919C172.904 88.0589 171.616 86.7713 169.983 86.167Z" fill="url(#paint89_linear_1688_2250)"/>
<path d="M169.983 56.792C171.616 56.1876 172.904 54.9 173.508 53.267C174.113 54.9 175.4 56.1876 177.033 56.792C175.4 57.3963 174.113 58.6839 173.508 60.3169C172.904 58.6839 171.616 57.3963 169.983 56.792Z" fill="url(#paint90_linear_1688_2250)"/>
<path d="M169.983 115.542C171.616 114.938 172.904 113.65 173.508 112.017C174.113 113.65 175.4 114.938 177.033 115.542C175.4 116.146 174.113 117.434 173.508 119.067C172.904 117.434 171.616 116.146 169.983 115.542Z" fill="url(#paint91_linear_1688_2250)"/>
<path d="M169.983 144.917C171.616 144.313 172.904 143.025 173.508 141.392C174.113 143.025 175.4 144.313 177.033 144.917C175.4 145.521 174.113 146.809 173.508 148.442C172.904 146.809 171.616 145.521 169.983 144.917Z" fill="url(#paint92_linear_1688_2250)"/>
<path d="M169.983 174.292C171.616 173.688 172.904 172.4 173.508 170.767C174.113 172.4 175.4 173.688 177.033 174.292C175.4 174.896 174.113 176.184 173.508 177.817C172.904 176.184 171.616 174.896 169.983 174.292Z" fill="url(#paint93_linear_1688_2250)"/>
<path d="M169.983 203.667C171.616 203.063 172.904 201.775 173.508 200.142C174.113 201.775 175.4 203.063 177.033 203.667C175.4 204.271 174.113 205.559 173.508 207.192C172.904 205.559 171.616 204.271 169.983 203.667Z" fill="url(#paint94_linear_1688_2250)"/>
<path d="M169.983 262.417C171.616 261.813 172.904 260.525 173.508 258.892C174.113 260.525 175.4 261.813 177.033 262.417C175.4 263.021 174.113 264.309 173.508 265.942C172.904 264.309 171.616 263.021 169.983 262.417Z" fill="url(#paint95_linear_1688_2250)"/>
<path d="M169.983 233.042C171.616 232.438 172.904 231.15 173.508 229.517C174.113 231.15 175.4 232.438 177.033 233.042C175.4 233.646 174.113 234.934 173.508 236.567C172.904 234.934 171.616 233.646 169.983 233.042Z" fill="url(#paint96_linear_1688_2250)"/>
<path d="M169.983 291.792C171.616 291.188 172.904 289.9 173.508 288.267C174.113 289.9 175.4 291.188 177.033 291.792C175.4 292.396 174.113 293.684 173.508 295.317C172.904 293.684 171.616 292.396 169.983 291.792Z" fill="url(#paint97_linear_1688_2250)"/>
<path d="M169.983 321.167C171.616 320.563 172.904 319.275 173.508 317.642C174.113 319.275 175.4 320.563 177.033 321.167C175.4 321.771 174.113 323.059 173.508 324.692C172.904 323.059 171.616 321.771 169.983 321.167Z" fill="url(#paint98_linear_1688_2250)"/>
<path d="M169.983 350.542C171.616 349.938 172.904 348.65 173.508 347.017C174.113 348.65 175.4 349.938 177.033 350.542C175.4 351.146 174.113 352.434 173.508 354.067C172.904 352.434 171.616 351.146 169.983 350.542Z" fill="url(#paint99_linear_1688_2250)"/>
<path d="M140.608 86.167C142.241 85.5626 143.529 84.275 144.133 82.642C144.738 84.275 146.025 85.5626 147.658 86.167C146.025 86.7713 144.738 88.0589 144.133 89.6919C143.529 88.0589 142.241 86.7713 140.608 86.167Z" fill="url(#paint100_linear_1688_2250)"/>
<path d="M140.608 56.792C142.241 56.1876 143.529 54.9 144.133 53.267C144.738 54.9 146.025 56.1876 147.658 56.792C146.025 57.3963 144.738 58.6839 144.133 60.3169C143.529 58.6839 142.241 57.3963 140.608 56.792Z" fill="url(#paint101_linear_1688_2250)"/>
<path d="M140.608 115.542C142.241 114.938 143.529 113.65 144.133 112.017C144.738 113.65 146.025 114.938 147.658 115.542C146.025 116.146 144.738 117.434 144.133 119.067C143.529 117.434 142.241 116.146 140.608 115.542Z" fill="url(#paint102_linear_1688_2250)"/>
<path d="M140.608 144.917C142.241 144.313 143.529 143.025 144.133 141.392C144.738 143.025 146.025 144.313 147.658 144.917C146.025 145.521 144.738 146.809 144.133 148.442C143.529 146.809 142.241 145.521 140.608 144.917Z" fill="url(#paint103_linear_1688_2250)"/>
<path d="M140.608 174.292C142.241 173.688 143.529 172.4 144.133 170.767C144.738 172.4 146.025 173.688 147.658 174.292C146.025 174.896 144.738 176.184 144.133 177.817C143.529 176.184 142.241 174.896 140.608 174.292Z" fill="url(#paint104_linear_1688_2250)"/>
<path d="M140.608 203.667C142.241 203.063 143.529 201.775 144.133 200.142C144.738 201.775 146.025 203.063 147.658 203.667C146.025 204.271 144.738 205.559 144.133 207.192C143.529 205.559 142.241 204.271 140.608 203.667Z" fill="url(#paint105_linear_1688_2250)"/>
<path d="M140.608 262.417C142.241 261.813 143.529 260.525 144.133 258.892C144.738 260.525 146.025 261.813 147.658 262.417C146.025 263.021 144.738 264.309 144.133 265.942C143.529 264.309 142.241 263.021 140.608 262.417Z" fill="url(#paint106_linear_1688_2250)"/>
<path d="M140.608 233.042C142.241 232.438 143.529 231.15 144.133 229.517C144.738 231.15 146.025 232.438 147.658 233.042C146.025 233.646 144.738 234.934 144.133 236.567C143.529 234.934 142.241 233.646 140.608 233.042Z" fill="url(#paint107_linear_1688_2250)"/>
<path d="M140.608 291.792C142.241 291.188 143.529 289.9 144.133 288.267C144.738 289.9 146.025 291.188 147.658 291.792C146.025 292.396 144.738 293.684 144.133 295.317C143.529 293.684 142.241 292.396 140.608 291.792Z" fill="url(#paint108_linear_1688_2250)"/>
<path d="M140.608 321.167C142.241 320.563 143.529 319.275 144.133 317.642C144.738 319.275 146.025 320.563 147.658 321.167C146.025 321.771 144.738 323.059 144.133 324.692C143.529 323.059 142.241 321.771 140.608 321.167Z" fill="url(#paint109_linear_1688_2250)"/>
<path d="M140.608 350.542C142.241 349.938 143.529 348.65 144.133 347.017C144.738 348.65 146.025 349.938 147.658 350.542C146.025 351.146 144.738 352.434 144.133 354.067C143.529 352.434 142.241 351.146 140.608 350.542Z" fill="url(#paint110_linear_1688_2250)"/>
<path d="M111.233 86.167C112.866 85.5626 114.154 84.275 114.758 82.642C115.363 84.275 116.65 85.5626 118.283 86.167C116.65 86.7713 115.363 88.0589 114.758 89.692C114.154 88.0589 112.866 86.7713 111.233 86.167Z" fill="url(#paint111_linear_1688_2250)"/>
<path d="M111.233 56.792C112.866 56.1876 114.154 54.9 114.758 53.267C115.363 54.9 116.65 56.1876 118.283 56.792C116.65 57.3963 115.363 58.6839 114.758 60.317C114.154 58.6839 112.866 57.3963 111.233 56.792Z" fill="url(#paint112_linear_1688_2250)"/>
<path d="M111.233 115.542C112.866 114.938 114.154 113.65 114.758 112.017C115.363 113.65 116.65 114.938 118.283 115.542C116.65 116.146 115.363 117.434 114.758 119.067C114.154 117.434 112.866 116.146 111.233 115.542Z" fill="url(#paint113_linear_1688_2250)"/>
<path d="M111.233 144.917C112.866 144.313 114.154 143.025 114.758 141.392C115.363 143.025 116.65 144.313 118.283 144.917C116.65 145.521 115.363 146.809 114.758 148.442C114.154 146.809 112.866 145.521 111.233 144.917Z" fill="url(#paint114_linear_1688_2250)"/>
<path d="M111.233 174.292C112.866 173.688 114.154 172.4 114.758 170.767C115.363 172.4 116.65 173.688 118.283 174.292C116.65 174.896 115.363 176.184 114.758 177.817C114.154 176.184 112.866 174.896 111.233 174.292Z" fill="url(#paint115_linear_1688_2250)"/>
<path d="M111.233 203.667C112.866 203.063 114.154 201.775 114.758 200.142C115.363 201.775 116.65 203.063 118.283 203.667C116.65 204.271 115.363 205.559 114.758 207.192C114.154 205.559 112.866 204.271 111.233 203.667Z" fill="url(#paint116_linear_1688_2250)"/>
<path d="M111.233 262.417C112.866 261.813 114.154 260.525 114.758 258.892C115.363 260.525 116.65 261.813 118.283 262.417C116.65 263.021 115.363 264.309 114.758 265.942C114.154 264.309 112.866 263.021 111.233 262.417Z" fill="url(#paint117_linear_1688_2250)"/>
<path d="M111.233 233.042C112.866 232.438 114.154 231.15 114.758 229.517C115.363 231.15 116.65 232.438 118.283 233.042C116.65 233.646 115.363 234.934 114.758 236.567C114.154 234.934 112.866 233.646 111.233 233.042Z" fill="url(#paint118_linear_1688_2250)"/>
<path d="M111.233 291.792C112.866 291.188 114.154 289.9 114.758 288.267C115.363 289.9 116.65 291.188 118.283 291.792C116.65 292.396 115.363 293.684 114.758 295.317C114.154 293.684 112.866 292.396 111.233 291.792Z" fill="url(#paint119_linear_1688_2250)"/>
<path d="M111.233 321.167C112.866 320.563 114.154 319.275 114.758 317.642C115.363 319.275 116.65 320.563 118.283 321.167C116.65 321.771 115.363 323.059 114.758 324.692C114.154 323.059 112.866 321.771 111.233 321.167Z" fill="url(#paint120_linear_1688_2250)"/>
<path d="M111.233 350.542C112.866 349.938 114.154 348.65 114.758 347.017C115.363 348.65 116.65 349.938 118.283 350.542C116.65 351.146 115.363 352.434 114.758 354.067C114.154 352.434 112.866 351.146 111.233 350.542Z" fill="url(#paint121_linear_1688_2250)"/>
<path d="M81.8582 86.167C83.4914 85.5626 84.7789 84.2751 85.3832 82.642C85.9876 84.2751 87.2751 85.5626 88.9083 86.167C87.2751 86.7713 85.9876 88.0589 85.3833 89.692C84.7789 88.0589 83.4914 86.7713 81.8582 86.167Z" fill="url(#paint122_linear_1688_2250)"/>
<path d="M81.8582 56.792C83.4913 56.1876 84.7789 54.9001 85.3832 53.267C85.9876 54.9001 87.2751 56.1876 88.9083 56.792C87.2751 57.3963 85.9876 58.6839 85.3832 60.317C84.7789 58.6839 83.4913 57.3963 81.8582 56.792Z" fill="url(#paint123_linear_1688_2250)"/>
<path d="M81.8582 115.542C83.4914 114.938 84.7789 113.65 85.3833 112.017C85.9876 113.65 87.2752 114.938 88.9083 115.542C87.2752 116.146 85.9876 117.434 85.3833 119.067C84.7789 117.434 83.4914 116.146 81.8582 115.542Z" fill="url(#paint124_linear_1688_2250)"/>
<path d="M81.8583 144.917C83.4914 144.313 84.779 143.025 85.3833 141.392C85.9876 143.025 87.2752 144.313 88.9083 144.917C87.2752 145.521 85.9876 146.809 85.3833 148.442C84.779 146.809 83.4914 145.521 81.8583 144.917Z" fill="url(#paint125_linear_1688_2250)"/>
<path d="M81.8583 174.292C83.4914 173.688 84.779 172.4 85.3833 170.767C85.9876 172.4 87.2752 173.688 88.9083 174.292C87.2752 174.896 85.9876 176.184 85.3833 177.817C84.779 176.184 83.4914 174.896 81.8583 174.292Z" fill="url(#paint126_linear_1688_2250)"/>
<path d="M81.8583 203.667C83.4914 203.063 84.779 201.775 85.3833 200.142C85.9876 201.775 87.2752 203.063 88.9083 203.667C87.2752 204.271 85.9876 205.559 85.3833 207.192C84.779 205.559 83.4914 204.271 81.8583 203.667Z" fill="url(#paint127_linear_1688_2250)"/>
<path d="M81.8583 262.417C83.4914 261.813 84.779 260.525 85.3833 258.892C85.9876 260.525 87.2752 261.813 88.9083 262.417C87.2752 263.021 85.9876 264.309 85.3833 265.942C84.779 264.309 83.4914 263.021 81.8583 262.417Z" fill="url(#paint128_linear_1688_2250)"/>
<path d="M81.8583 233.042C83.4914 232.438 84.779 231.15 85.3833 229.517C85.9876 231.15 87.2752 232.438 88.9083 233.042C87.2752 233.646 85.9876 234.934 85.3833 236.567C84.779 234.934 83.4914 233.646 81.8583 233.042Z" fill="url(#paint129_linear_1688_2250)"/>
<path d="M81.8583 291.792C83.4914 291.188 84.779 289.9 85.3833 288.267C85.9876 289.9 87.2752 291.188 88.9083 291.792C87.2752 292.396 85.9876 293.684 85.3833 295.317C84.779 293.684 83.4914 292.396 81.8583 291.792Z" fill="url(#paint130_linear_1688_2250)"/>
<path d="M81.8583 321.167C83.4914 320.563 84.779 319.275 85.3833 317.642C85.9876 319.275 87.2752 320.563 88.9083 321.167C87.2752 321.771 85.9876 323.059 85.3833 324.692C84.779 323.059 83.4914 321.771 81.8583 321.167Z" fill="url(#paint131_linear_1688_2250)"/>
<path d="M81.8582 350.542C83.4913 349.938 84.7789 348.65 85.3832 347.017C85.9875 348.65 87.2751 349.938 88.9082 350.542C87.2751 351.146 85.9875 352.434 85.3832 354.067C84.7789 352.434 83.4913 351.146 81.8582 350.542Z" fill="url(#paint132_linear_1688_2250)"/>
<path d="M52.4832 86.167C54.1164 85.5627 55.4039 84.2751 56.0082 82.642C56.6125 84.2751 57.9001 85.5627 59.5332 86.167C57.9001 86.7713 56.6125 88.0589 56.0082 89.692C55.4039 88.0589 54.1164 86.7713 52.4832 86.167Z" fill="url(#paint133_linear_1688_2250)"/>
<path d="M52.4832 56.792C54.1163 56.1877 55.4039 54.9001 56.0082 53.267C56.6125 54.9001 57.9001 56.1877 59.5332 56.792C57.9001 57.3963 56.6125 58.6839 56.0082 60.317C55.4039 58.6839 54.1163 57.3963 52.4832 56.792Z" fill="url(#paint134_linear_1688_2250)"/>
<path d="M52.4832 115.542C54.1164 114.938 55.4039 113.65 56.0082 112.017C56.6125 113.65 57.9002 114.938 59.5332 115.542C57.9002 116.146 56.6125 117.434 56.0082 119.067C55.4039 117.434 54.1164 116.146 52.4832 115.542Z" fill="url(#paint135_linear_1688_2250)"/>
<path d="M52.4833 144.917C54.1164 144.313 55.4039 143.025 56.0082 141.392C56.6126 143.025 57.9002 144.313 59.5333 144.917C57.9002 145.521 56.6126 146.809 56.0082 148.442C55.4039 146.809 54.1164 145.521 52.4833 144.917Z" fill="url(#paint136_linear_1688_2250)"/>
<path d="M52.4833 174.292C54.1164 173.688 55.4039 172.4 56.0082 170.767C56.6126 172.4 57.9002 173.688 59.5333 174.292C57.9002 174.896 56.6126 176.184 56.0083 177.817C55.4039 176.184 54.1164 174.896 52.4833 174.292Z" fill="url(#paint137_linear_1688_2250)"/>
<path d="M52.4833 203.667C54.1164 203.063 55.4039 201.775 56.0083 200.142C56.6126 201.775 57.9002 203.063 59.5333 203.667C57.9002 204.271 56.6126 205.559 56.0083 207.192C55.4039 205.559 54.1164 204.271 52.4833 203.667Z" fill="url(#paint138_linear_1688_2250)"/>
<path d="M52.4833 262.417C54.1164 261.813 55.404 260.525 56.0083 258.892C56.6126 260.525 57.9002 261.813 59.5333 262.417C57.9002 263.021 56.6126 264.309 56.0083 265.942C55.404 264.309 54.1164 263.021 52.4833 262.417Z" fill="url(#paint139_linear_1688_2250)"/>
<path d="M52.4833 233.042C54.1164 232.438 55.404 231.15 56.0083 229.517C56.6126 231.15 57.9002 232.438 59.5333 233.042C57.9002 233.646 56.6126 234.934 56.0083 236.567C55.404 234.934 54.1164 233.646 52.4833 233.042Z" fill="url(#paint140_linear_1688_2250)"/>
<path d="M52.4833 291.792C54.1164 291.188 55.404 289.9 56.0083 288.267C56.6126 289.9 57.9002 291.188 59.5333 291.792C57.9002 292.396 56.6126 293.684 56.0083 295.317C55.404 293.684 54.1164 292.396 52.4833 291.792Z" fill="url(#paint141_linear_1688_2250)"/>
<path d="M52.4833 321.167C54.1164 320.563 55.404 319.275 56.0083 317.642C56.6126 319.275 57.9002 320.563 59.5333 321.167C57.9002 321.771 56.6126 323.059 56.0083 324.692C55.404 323.059 54.1164 321.771 52.4833 321.167Z" fill="url(#paint142_linear_1688_2250)"/>
<path d="M52.4832 350.542C54.1163 349.938 55.4039 348.65 56.0082 347.017C56.6125 348.65 57.9001 349.938 59.5332 350.542C57.9001 351.146 56.6125 352.434 56.0082 354.067C55.4039 352.434 54.1163 351.146 52.4832 350.542Z" fill="url(#paint143_linear_1688_2250)"/>
<path d="M23.1082 86.167C24.7413 85.5627 26.0289 84.2751 26.6332 82.642C27.2375 84.2751 28.5251 85.5627 30.1582 86.167C28.5251 86.7713 27.2375 88.0589 26.6332 89.692C26.0289 88.0589 24.7413 86.7713 23.1082 86.167Z" fill="url(#paint144_linear_1688_2250)"/>
<path d="M23.1082 56.792C24.7413 56.1877 26.0289 54.9001 26.6332 53.267C27.2375 54.9001 28.5251 56.1877 30.1582 56.792C28.5251 57.3963 27.2375 58.6839 26.6332 60.317C26.0289 58.6839 24.7413 57.3963 23.1082 56.792Z" fill="url(#paint145_linear_1688_2250)"/>
<path d="M23.1082 115.542C24.7414 114.938 26.0289 113.65 26.6332 112.017C27.2376 113.65 28.5251 114.938 30.1582 115.542C28.5251 116.146 27.2376 117.434 26.6332 119.067C26.0289 117.434 24.7414 116.146 23.1082 115.542Z" fill="url(#paint146_linear_1688_2250)"/>
<path d="M23.1083 144.917C24.7414 144.313 26.0289 143.025 26.6333 141.392C27.2376 143.025 28.5251 144.313 30.1583 144.917C28.5251 145.521 27.2376 146.809 26.6333 148.442C26.0289 146.809 24.7414 145.521 23.1083 144.917Z" fill="url(#paint147_linear_1688_2250)"/>
<path d="M23.1083 174.292C24.7414 173.688 26.029 172.4 26.6333 170.767C27.2376 172.4 28.5252 173.688 30.1583 174.292C28.5252 174.896 27.2376 176.184 26.6333 177.817C26.029 176.184 24.7414 174.896 23.1083 174.292Z" fill="url(#paint148_linear_1688_2250)"/>
<path d="M23.1083 203.667C24.7414 203.063 26.029 201.775 26.6333 200.142C27.2376 201.775 28.5252 203.063 30.1583 203.667C28.5252 204.271 27.2376 205.559 26.6333 207.192C26.029 205.559 24.7414 204.271 23.1083 203.667Z" fill="url(#paint149_linear_1688_2250)"/>
<path d="M23.1083 262.417C24.7414 261.813 26.029 260.525 26.6333 258.892C27.2376 260.525 28.5252 261.813 30.1583 262.417C28.5252 263.021 27.2376 264.309 26.6333 265.942C26.029 264.309 24.7414 263.021 23.1083 262.417Z" fill="url(#paint150_linear_1688_2250)"/>
<path d="M23.1083 233.042C24.7414 232.438 26.029 231.15 26.6333 229.517C27.2376 231.15 28.5252 232.438 30.1583 233.042C28.5252 233.646 27.2376 234.934 26.6333 236.567C26.029 234.934 24.7414 233.646 23.1083 233.042Z" fill="url(#paint151_linear_1688_2250)"/>
<path d="M23.1083 291.792C24.7414 291.188 26.029 289.9 26.6333 288.267C27.2376 289.9 28.5252 291.188 30.1583 291.792C28.5252 292.396 27.2376 293.684 26.6333 295.317C26.029 293.684 24.7414 292.396 23.1083 291.792Z" fill="url(#paint152_linear_1688_2250)"/>
<path d="M23.1083 321.167C24.7414 320.563 26.029 319.275 26.6333 317.642C27.2376 319.275 28.5252 320.563 30.1583 321.167C28.5252 321.771 27.2376 323.059 26.6333 324.692C26.029 323.059 24.7414 321.771 23.1083 321.167Z" fill="url(#paint153_linear_1688_2250)"/>
<path d="M23.1082 350.542C24.7413 349.938 26.0289 348.65 26.6332 347.017C27.2375 348.65 28.5251 349.938 30.1582 350.542C28.5251 351.146 27.2375 352.434 26.6332 354.067C26.0289 352.434 24.7413 351.146 23.1082 350.542Z" fill="url(#paint154_linear_1688_2250)"/>
</g>
<defs>
<linearGradient id="paint0_linear_1688_2250" x1="6" y1="365.5" x2="175" y2="188" gradientUnits="userSpaceOnUse">
<stop stop-color="white"/>
<stop offset="1" stop-color="white" stop-opacity="0"/>
</linearGradient>
<linearGradient id="paint1_linear_1688_2250" x1="6" y1="365.5" x2="175" y2="188" gradientUnits="userSpaceOnUse">
<stop stop-color="white"/>
<stop offset="1" stop-color="white" stop-opacity="0"/>
</linearGradient>
<linearGradient id="paint2_linear_1688_2250" x1="6" y1="365.5" x2="175" y2="188" gradientUnits="userSpaceOnUse">
<stop stop-color="white"/>
<stop offset="1" stop-color="white" stop-opacity="0"/>
</linearGradient>
<linearGradient id="paint3_linear_1688_2250" x1="6" y1="365.5" x2="175" y2="188" gradientUnits="userSpaceOnUse">
<stop stop-color="white"/>
<stop offset="1" stop-color="white" stop-opacity="0"/>
</linearGradient>
<linearGradient id="paint4_linear_1688_2250" x1="6" y1="365.5" x2="175" y2="188" gradientUnits="userSpaceOnUse">
<stop stop-color="white"/>
<stop offset="1" stop-color="white" stop-opacity="0"/>
</linearGradient>
<linearGradient id="paint5_linear_1688_2250" x1="6" y1="365.5" x2="175" y2="188" gradientUnits="userSpaceOnUse">
<stop stop-color="white"/>
<stop offset="1" stop-color="white" stop-opacity="0"/>
</linearGradient>
<linearGradient id="paint6_linear_1688_2250" x1="6" y1="365.5" x2="175" y2="188" gradientUnits="userSpaceOnUse">
<stop stop-color="white"/>
<stop offset="1" stop-color="white" stop-opacity="0"/>
</linearGradient>
<linearGradient id="paint7_linear_1688_2250" x1="6" y1="365.5" x2="175" y2="188" gradientUnits="userSpaceOnUse">
<stop stop-color="white"/>
<stop offset="1" stop-color="white" stop-opacity="0"/>
</linearGradient>
<linearGradient id="paint8_linear_1688_2250" x1="6" y1="365.5" x2="175" y2="188" gradientUnits="userSpaceOnUse">
<stop stop-color="white"/>
<stop offset="1" stop-color="white" stop-opacity="0"/>
</linearGradient>
<linearGradient id="paint9_linear_1688_2250" x1="6" y1="365.5" x2="175" y2="188" gradientUnits="userSpaceOnUse">
<stop stop-color="white"/>
<stop offset="1" stop-color="white" stop-opacity="0"/>
</linearGradient>
<linearGradient id="paint10_linear_1688_2250" x1="6" y1="365.5" x2="175" y2="188" gradientUnits="userSpaceOnUse">
<stop stop-color="white"/>
<stop offset="1" stop-color="white" stop-opacity="0"/>
</linearGradient>
<linearGradient id="paint11_linear_1688_2250" x1="6" y1="365.5" x2="175" y2="188" gradientUnits="userSpaceOnUse">
<stop stop-color="white"/>
<stop offset="1" stop-color="white" stop-opacity="0"/>
</linearGradient>
<linearGradient id="paint12_linear_1688_2250" x1="6" y1="365.5" x2="175" y2="188" gradientUnits="userSpaceOnUse">
<stop stop-color="white"/>
<stop offset="1" stop-color="white" stop-opacity="0"/>
</linearGradient>
<linearGradient id="paint13_linear_1688_2250" x1="6" y1="365.5" x2="175" y2="188" gradientUnits="userSpaceOnUse">
<stop stop-color="white"/>
<stop offset="1" stop-color="white" stop-opacity="0"/>
</linearGradient>
<linearGradient id="paint14_linear_1688_2250" x1="6" y1="365.5" x2="175" y2="188" gradientUnits="userSpaceOnUse">
<stop stop-color="white"/>
<stop offset="1" stop-color="white" stop-opacity="0"/>
</linearGradient>
<linearGradient id="paint15_linear_1688_2250" x1="6" y1="365.5" x2="175" y2="188" gradientUnits="userSpaceOnUse">
<stop stop-color="white"/>
<stop offset="1" stop-color="white" stop-opacity="0"/>
</linearGradient>
<linearGradient id="paint16_linear_1688_2250" x1="6" y1="365.5" x2="175" y2="188" gradientUnits="userSpaceOnUse">
<stop stop-color="white"/>
<stop offset="1" stop-color="white" stop-opacity="0"/>
</linearGradient>
<linearGradient id="paint17_linear_1688_2250" x1="6" y1="365.5" x2="175" y2="188" gradientUnits="userSpaceOnUse">
<stop stop-color="white"/>
<stop offset="1" stop-color="white" stop-opacity="0"/>
</linearGradient>
<linearGradient id="paint18_linear_1688_2250" x1="6" y1="365.5" x2="175" y2="188" gradientUnits="userSpaceOnUse">
<stop stop-color="white"/>
<stop offset="1" stop-color="white" stop-opacity="0"/>
</linearGradient>
<linearGradient id="paint19_linear_1688_2250" x1="6" y1="365.5" x2="175" y2="188" gradientUnits="userSpaceOnUse">
<stop stop-color="white"/>
<stop offset="1" stop-color="white" stop-opacity="0"/>
</linearGradient>
<linearGradient id="paint20_linear_1688_2250" x1="6" y1="365.5" x2="175" y2="188" gradientUnits="userSpaceOnUse">
<stop stop-color="white"/>
<stop offset="1" stop-color="white" stop-opacity="0"/>
</linearGradient>
<linearGradient id="paint21_linear_1688_2250" x1="6" y1="365.5" x2="175" y2="188" gradientUnits="userSpaceOnUse">
<stop stop-color="white"/>
<stop offset="1" stop-color="white" stop-opacity="0"/>
</linearGradient>
<linearGradient id="paint22_linear_1688_2250" x1="6" y1="365.5" x2="175" y2="188" gradientUnits="userSpaceOnUse">
<stop stop-color="white"/>
<stop offset="1" stop-color="white" stop-opacity="0"/>
</linearGradient>
<linearGradient id="paint23_linear_1688_2250" x1="6" y1="365.5" x2="175" y2="188" gradientUnits="userSpaceOnUse">
<stop stop-color="white"/>
<stop offset="1" stop-color="white" stop-opacity="0"/>
</linearGradient>
<linearGradient id="paint24_linear_1688_2250" x1="6" y1="365.5" x2="175" y2="188" gradientUnits="userSpaceOnUse">
<stop stop-color="white"/>
<stop offset="1" stop-color="white" stop-opacity="0"/>
</linearGradient>
<linearGradient id="paint25_linear_1688_2250" x1="6" y1="365.5" x2="175" y2="188" gradientUnits="userSpaceOnUse">
<stop stop-color="white"/>
<stop offset="1" stop-color="white" stop-opacity="0"/>
</linearGradient>
<linearGradient id="paint26_linear_1688_2250" x1="6" y1="365.5" x2="175" y2="188" gradientUnits="userSpaceOnUse">
<stop stop-color="white"/>
<stop offset="1" stop-color="white" stop-opacity="0"/>
</linearGradient>
<linearGradient id="paint27_linear_1688_2250" x1="6" y1="365.5" x2="175" y2="188" gradientUnits="userSpaceOnUse">
<stop stop-color="white"/>
<stop offset="1" stop-color="white" stop-opacity="0"/>
</linearGradient>
<linearGradient id="paint28_linear_1688_2250" x1="6" y1="365.5" x2="175" y2="188" gradientUnits="userSpaceOnUse">
<stop stop-color="white"/>
<stop offset="1" stop-color="white" stop-opacity="0"/>
</linearGradient>
<linearGradient id="paint29_linear_1688_2250" x1="6" y1="365.5" x2="175" y2="188" gradientUnits="userSpaceOnUse">
<stop stop-color="white"/>
<stop offset="1" stop-color="white" stop-opacity="0"/>
</linearGradient>
<linearGradient id="paint30_linear_1688_2250" x1="6" y1="365.5" x2="175" y2="188" gradientUnits="userSpaceOnUse">
<stop stop-color="white"/>
<stop offset="1" stop-color="white" stop-opacity="0"/>
</linearGradient>
<linearGradient id="paint31_linear_1688_2250" x1="6" y1="365.5" x2="175" y2="188" gradientUnits="userSpaceOnUse">
<stop stop-color="white"/>
<stop offset="1" stop-color="white" stop-opacity="0"/>
</linearGradient>
<linearGradient id="paint32_linear_1688_2250" x1="6" y1="365.5" x2="175" y2="188" gradientUnits="userSpaceOnUse">
<stop stop-color="white"/>
<stop offset="1" stop-color="white" stop-opacity="0"/>
</linearGradient>
<linearGradient id="paint33_linear_1688_2250" x1="6" y1="365.5" x2="175" y2="188" gradientUnits="userSpaceOnUse">
<stop stop-color="white"/>
<stop offset="1" stop-color="white" stop-opacity="0"/>
</linearGradient>
<linearGradient id="paint34_linear_1688_2250" x1="6" y1="365.5" x2="175" y2="188" gradientUnits="userSpaceOnUse">
<stop stop-color="white"/>
<stop offset="1" stop-color="white" stop-opacity="0"/>
</linearGradient>
<linearGradient id="paint35_linear_1688_2250" x1="6" y1="365.5" x2="175" y2="188" gradientUnits="userSpaceOnUse">
<stop stop-color="white"/>
<stop offset="1" stop-color="white" stop-opacity="0"/>
</linearGradient>
<linearGradient id="paint36_linear_1688_2250" x1="6" y1="365.5" x2="175" y2="188" gradientUnits="userSpaceOnUse">
<stop stop-color="white"/>
<stop offset="1" stop-color="white" stop-opacity="0"/>
</linearGradient>
<linearGradient id="paint37_linear_1688_2250" x1="6" y1="365.5" x2="175" y2="188" gradientUnits="userSpaceOnUse">
<stop stop-color="white"/>
<stop offset="1" stop-color="white" stop-opacity="0"/>
</linearGradient>
<linearGradient id="paint38_linear_1688_2250" x1="6" y1="365.5" x2="175" y2="188" gradientUnits="userSpaceOnUse">
<stop stop-color="white"/>
<stop offset="1" stop-color="white" stop-opacity="0"/>
</linearGradient>
<linearGradient id="paint39_linear_1688_2250" x1="6" y1="365.5" x2="175" y2="188" gradientUnits="userSpaceOnUse">
<stop stop-color="white"/>
<stop offset="1" stop-color="white" stop-opacity="0"/>
</linearGradient>
<linearGradient id="paint40_linear_1688_2250" x1="6" y1="365.5" x2="175" y2="188" gradientUnits="userSpaceOnUse">
<stop stop-color="white"/>
<stop offset="1" stop-color="white" stop-opacity="0"/>
</linearGradient>
<linearGradient id="paint41_linear_1688_2250" x1="6" y1="365.5" x2="175" y2="188" gradientUnits="userSpaceOnUse">
<stop stop-color="white"/>
<stop offset="1" stop-color="white" stop-opacity="0"/>
</linearGradient>
<linearGradient id="paint42_linear_1688_2250" x1="6" y1="365.5" x2="175" y2="188" gradientUnits="userSpaceOnUse">
<stop stop-color="white"/>
<stop offset="1" stop-color="white" stop-opacity="0"/>
</linearGradient>
<linearGradient id="paint43_linear_1688_2250" x1="6" y1="365.5" x2="175" y2="188" gradientUnits="userSpaceOnUse">
<stop stop-color="white"/>
<stop offset="1" stop-color="white" stop-opacity="0"/>
</linearGradient>
<linearGradient id="paint44_linear_1688_2250" x1="6" y1="365.5" x2="175" y2="188" gradientUnits="userSpaceOnUse">
<stop stop-color="white"/>
<stop offset="1" stop-color="white" stop-opacity="0"/>
</linearGradient>
<linearGradient id="paint45_linear_1688_2250" x1="6" y1="365.5" x2="175" y2="188" gradientUnits="userSpaceOnUse">
<stop stop-color="white"/>
<stop offset="1" stop-color="white" stop-opacity="0"/>
</linearGradient>
<linearGradient id="paint46_linear_1688_2250" x1="6" y1="365.5" x2="175" y2="188" gradientUnits="userSpaceOnUse">
<stop stop-color="white"/>
<stop offset="1" stop-color="white" stop-opacity="0"/>
</linearGradient>
<linearGradient id="paint47_linear_1688_2250" x1="6" y1="365.5" x2="175" y2="188" gradientUnits="userSpaceOnUse">
<stop stop-color="white"/>
<stop offset="1" stop-color="white" stop-opacity="0"/>
</linearGradient>
<linearGradient id="paint48_linear_1688_2250" x1="6" y1="365.5" x2="175" y2="188" gradientUnits="userSpaceOnUse">
<stop stop-color="white"/>
<stop offset="1" stop-color="white" stop-opacity="0"/>
</linearGradient>
<linearGradient id="paint49_linear_1688_2250" x1="6" y1="365.5" x2="175" y2="188" gradientUnits="userSpaceOnUse">
<stop stop-color="white"/>
<stop offset="1" stop-color="white" stop-opacity="0"/>
</linearGradient>
<linearGradient id="paint50_linear_1688_2250" x1="6" y1="365.5" x2="175" y2="188" gradientUnits="userSpaceOnUse">
<stop stop-color="white"/>
<stop offset="1" stop-color="white" stop-opacity="0"/>
</linearGradient>
<linearGradient id="paint51_linear_1688_2250" x1="6" y1="365.5" x2="175" y2="188" gradientUnits="userSpaceOnUse">
<stop stop-color="white"/>
<stop offset="1" stop-color="white" stop-opacity="0"/>
</linearGradient>
<linearGradient id="paint52_linear_1688_2250" x1="6" y1="365.5" x2="175" y2="188" gradientUnits="userSpaceOnUse">
<stop stop-color="white"/>
<stop offset="1" stop-color="white" stop-opacity="0"/>
</linearGradient>
<linearGradient id="paint53_linear_1688_2250" x1="6" y1="365.5" x2="175" y2="188" gradientUnits="userSpaceOnUse">
<stop stop-color="white"/>
<stop offset="1" stop-color="white" stop-opacity="0"/>
</linearGradient>
<linearGradient id="paint54_linear_1688_2250" x1="6" y1="365.5" x2="175" y2="188" gradientUnits="userSpaceOnUse">
<stop stop-color="white"/>
<stop offset="1" stop-color="white" stop-opacity="0"/>
</linearGradient>
<linearGradient id="paint55_linear_1688_2250" x1="6" y1="365.5" x2="175" y2="188" gradientUnits="userSpaceOnUse">
<stop stop-color="white"/>
<stop offset="1" stop-color="white" stop-opacity="0"/>
</linearGradient>
<linearGradient id="paint56_linear_1688_2250" x1="6" y1="365.5" x2="175" y2="188" gradientUnits="userSpaceOnUse">
<stop stop-color="white"/>
<stop offset="1" stop-color="white" stop-opacity="0"/>
</linearGradient>
<linearGradient id="paint57_linear_1688_2250" x1="6" y1="365.5" x2="175" y2="188" gradientUnits="userSpaceOnUse">
<stop stop-color="white"/>
<stop offset="1" stop-color="white" stop-opacity="0"/>
</linearGradient>
<linearGradient id="paint58_linear_1688_2250" x1="6" y1="365.5" x2="175" y2="188" gradientUnits="userSpaceOnUse">
<stop stop-color="white"/>
<stop offset="1" stop-color="white" stop-opacity="0"/>
</linearGradient>
<linearGradient id="paint59_linear_1688_2250" x1="6" y1="365.5" x2="175" y2="188" gradientUnits="userSpaceOnUse">
<stop stop-color="white"/>
<stop offset="1" stop-color="white" stop-opacity="0"/>
</linearGradient>
<linearGradient id="paint60_linear_1688_2250" x1="6" y1="365.5" x2="175" y2="188" gradientUnits="userSpaceOnUse">
<stop stop-color="white"/>
<stop offset="1" stop-color="white" stop-opacity="0"/>
</linearGradient>
<linearGradient id="paint61_linear_1688_2250" x1="6" y1="365.5" x2="175" y2="188" gradientUnits="userSpaceOnUse">
<stop stop-color="white"/>
<stop offset="1" stop-color="white" stop-opacity="0"/>
</linearGradient>
<linearGradient id="paint62_linear_1688_2250" x1="6" y1="365.5" x2="175" y2="188" gradientUnits="userSpaceOnUse">
<stop stop-color="white"/>
<stop offset="1" stop-color="white" stop-opacity="0"/>
</linearGradient>
<linearGradient id="paint63_linear_1688_2250" x1="6" y1="365.5" x2="175" y2="188" gradientUnits="userSpaceOnUse">
<stop stop-color="white"/>
<stop offset="1" stop-color="white" stop-opacity="0"/>
</linearGradient>
<linearGradient id="paint64_linear_1688_2250" x1="6" y1="365.5" x2="175" y2="188" gradientUnits="userSpaceOnUse">
<stop stop-color="white"/>
<stop offset="1" stop-color="white" stop-opacity="0"/>
</linearGradient>
<linearGradient id="paint65_linear_1688_2250" x1="6" y1="365.5" x2="175" y2="188" gradientUnits="userSpaceOnUse">
<stop stop-color="white"/>
<stop offset="1" stop-color="white" stop-opacity="0"/>
</linearGradient>
<linearGradient id="paint66_linear_1688_2250" x1="6" y1="365.5" x2="175" y2="188" gradientUnits="userSpaceOnUse">
<stop stop-color="white"/>
<stop offset="1" stop-color="white" stop-opacity="0"/>
</linearGradient>
<linearGradient id="paint67_linear_1688_2250" x1="6" y1="365.5" x2="175" y2="188" gradientUnits="userSpaceOnUse">
<stop stop-color="white"/>
<stop offset="1" stop-color="white" stop-opacity="0"/>
</linearGradient>
<linearGradient id="paint68_linear_1688_2250" x1="6" y1="365.5" x2="175" y2="188" gradientUnits="userSpaceOnUse">
<stop stop-color="white"/>
<stop offset="1" stop-color="white" stop-opacity="0"/>
</linearGradient>
<linearGradient id="paint69_linear_1688_2250" x1="6" y1="365.5" x2="175" y2="188" gradientUnits="userSpaceOnUse">
<stop stop-color="white"/>
<stop offset="1" stop-color="white" stop-opacity="0"/>
</linearGradient>
<linearGradient id="paint70_linear_1688_2250" x1="6" y1="365.5" x2="175" y2="188" gradientUnits="userSpaceOnUse">
<stop stop-color="white"/>
<stop offset="1" stop-color="white" stop-opacity="0"/>
</linearGradient>
<linearGradient id="paint71_linear_1688_2250" x1="6" y1="365.5" x2="175" y2="188" gradientUnits="userSpaceOnUse">
<stop stop-color="white"/>
<stop offset="1" stop-color="white" stop-opacity="0"/>
</linearGradient>
<linearGradient id="paint72_linear_1688_2250" x1="6" y1="365.5" x2="175" y2="188" gradientUnits="userSpaceOnUse">
<stop stop-color="white"/>
<stop offset="1" stop-color="white" stop-opacity="0"/>
</linearGradient>
<linearGradient id="paint73_linear_1688_2250" x1="6" y1="365.5" x2="175" y2="188" gradientUnits="userSpaceOnUse">
<stop stop-color="white"/>
<stop offset="1" stop-color="white" stop-opacity="0"/>
</linearGradient>
<linearGradient id="paint74_linear_1688_2250" x1="6" y1="365.5" x2="175" y2="188" gradientUnits="userSpaceOnUse">
<stop stop-color="white"/>
<stop offset="1" stop-color="white" stop-opacity="0"/>
</linearGradient>
<linearGradient id="paint75_linear_1688_2250" x1="6" y1="365.5" x2="175" y2="188" gradientUnits="userSpaceOnUse">
<stop stop-color="white"/>
<stop offset="1" stop-color="white" stop-opacity="0"/>
</linearGradient>
<linearGradient id="paint76_linear_1688_2250" x1="6" y1="365.5" x2="175" y2="188" gradientUnits="userSpaceOnUse">
<stop stop-color="white"/>
<stop offset="1" stop-color="white" stop-opacity="0"/>
</linearGradient>
<linearGradient id="paint77_linear_1688_2250" x1="6" y1="365.5" x2="175" y2="188" gradientUnits="userSpaceOnUse">
<stop stop-color="white"/>
<stop offset="1" stop-color="white" stop-opacity="0"/>
</linearGradient>
<linearGradient id="paint78_linear_1688_2250" x1="6" y1="365.5" x2="175" y2="188" gradientUnits="userSpaceOnUse">
<stop stop-color="white"/>
<stop offset="1" stop-color="white" stop-opacity="0"/>
</linearGradient>
<linearGradient id="paint79_linear_1688_2250" x1="6" y1="365.5" x2="175" y2="188" gradientUnits="userSpaceOnUse">
<stop stop-color="white"/>
<stop offset="1" stop-color="white" stop-opacity="0"/>
</linearGradient>
<linearGradient id="paint80_linear_1688_2250" x1="6" y1="365.5" x2="175" y2="188" gradientUnits="userSpaceOnUse">
<stop stop-color="white"/>
<stop offset="1" stop-color="white" stop-opacity="0"/>
</linearGradient>
<linearGradient id="paint81_linear_1688_2250" x1="6" y1="365.5" x2="175" y2="188" gradientUnits="userSpaceOnUse">
<stop stop-color="white"/>
<stop offset="1" stop-color="white" stop-opacity="0"/>
</linearGradient>
<linearGradient id="paint82_linear_1688_2250" x1="6" y1="365.5" x2="175" y2="188" gradientUnits="userSpaceOnUse">
<stop stop-color="white"/>
<stop offset="1" stop-color="white" stop-opacity="0"/>
</linearGradient>
<linearGradient id="paint83_linear_1688_2250" x1="6" y1="365.5" x2="175" y2="188" gradientUnits="userSpaceOnUse">
<stop stop-color="white"/>
<stop offset="1" stop-color="white" stop-opacity="0"/>
</linearGradient>
<linearGradient id="paint84_linear_1688_2250" x1="6" y1="365.5" x2="175" y2="188" gradientUnits="userSpaceOnUse">
<stop stop-color="white"/>
<stop offset="1" stop-color="white" stop-opacity="0"/>
</linearGradient>
<linearGradient id="paint85_linear_1688_2250" x1="6" y1="365.5" x2="175" y2="188" gradientUnits="userSpaceOnUse">
<stop stop-color="white"/>
<stop offset="1" stop-color="white" stop-opacity="0"/>
</linearGradient>
<linearGradient id="paint86_linear_1688_2250" x1="6" y1="365.5" x2="175" y2="188" gradientUnits="userSpaceOnUse">
<stop stop-color="white"/>
<stop offset="1" stop-color="white" stop-opacity="0"/>
</linearGradient>
<linearGradient id="paint87_linear_1688_2250" x1="6" y1="365.5" x2="175" y2="188" gradientUnits="userSpaceOnUse">
<stop stop-color="white"/>
<stop offset="1" stop-color="white" stop-opacity="0"/>
</linearGradient>
<linearGradient id="paint88_linear_1688_2250" x1="6" y1="365.5" x2="175" y2="188" gradientUnits="userSpaceOnUse">
<stop stop-color="white"/>
<stop offset="1" stop-color="white" stop-opacity="0"/>
</linearGradient>
<linearGradient id="paint89_linear_1688_2250" x1="6" y1="365.5" x2="175" y2="188" gradientUnits="userSpaceOnUse">
<stop stop-color="white"/>
<stop offset="1" stop-color="white" stop-opacity="0"/>
</linearGradient>
<linearGradient id="paint90_linear_1688_2250" x1="6" y1="365.5" x2="175" y2="188" gradientUnits="userSpaceOnUse">
<stop stop-color="white"/>
<stop offset="1" stop-color="white" stop-opacity="0"/>
</linearGradient>
<linearGradient id="paint91_linear_1688_2250" x1="6" y1="365.5" x2="175" y2="188" gradientUnits="userSpaceOnUse">
<stop stop-color="white"/>
<stop offset="1" stop-color="white" stop-opacity="0"/>
</linearGradient>
<linearGradient id="paint92_linear_1688_2250" x1="6" y1="365.5" x2="175" y2="188" gradientUnits="userSpaceOnUse">
<stop stop-color="white"/>
<stop offset="1" stop-color="white" stop-opacity="0"/>
</linearGradient>
<linearGradient id="paint93_linear_1688_2250" x1="6" y1="365.5" x2="175" y2="188" gradientUnits="userSpaceOnUse">
<stop stop-color="white"/>
<stop offset="1" stop-color="white" stop-opacity="0"/>
</linearGradient>
<linearGradient id="paint94_linear_1688_2250" x1="6" y1="365.5" x2="175" y2="188" gradientUnits="userSpaceOnUse">
<stop stop-color="white"/>
<stop offset="1" stop-color="white" stop-opacity="0"/>
</linearGradient>
<linearGradient id="paint95_linear_1688_2250" x1="6" y1="365.5" x2="175" y2="188" gradientUnits="userSpaceOnUse">
<stop stop-color="white"/>
<stop offset="1" stop-color="white" stop-opacity="0"/>
</linearGradient>
<linearGradient id="paint96_linear_1688_2250" x1="6" y1="365.5" x2="175" y2="188" gradientUnits="userSpaceOnUse">
<stop stop-color="white"/>
<stop offset="1" stop-color="white" stop-opacity="0"/>
</linearGradient>
<linearGradient id="paint97_linear_1688_2250" x1="6" y1="365.5" x2="175" y2="188" gradientUnits="userSpaceOnUse">
<stop stop-color="white"/>
<stop offset="1" stop-color="white" stop-opacity="0"/>
</linearGradient>
<linearGradient id="paint98_linear_1688_2250" x1="6" y1="365.5" x2="175" y2="188" gradientUnits="userSpaceOnUse">
<stop stop-color="white"/>
<stop offset="1" stop-color="white" stop-opacity="0"/>
</linearGradient>
<linearGradient id="paint99_linear_1688_2250" x1="6" y1="365.5" x2="175" y2="188" gradientUnits="userSpaceOnUse">
<stop stop-color="white"/>
<stop offset="1" stop-color="white" stop-opacity="0"/>
</linearGradient>
<linearGradient id="paint100_linear_1688_2250" x1="6" y1="365.5" x2="175" y2="188" gradientUnits="userSpaceOnUse">
<stop stop-color="white"/>
<stop offset="1" stop-color="white" stop-opacity="0"/>
</linearGradient>
<linearGradient id="paint101_linear_1688_2250" x1="6" y1="365.5" x2="175" y2="188" gradientUnits="userSpaceOnUse">
<stop stop-color="white"/>
<stop offset="1" stop-color="white" stop-opacity="0"/>
</linearGradient>
<linearGradient id="paint102_linear_1688_2250" x1="6" y1="365.5" x2="175" y2="188" gradientUnits="userSpaceOnUse">
<stop stop-color="white"/>
<stop offset="1" stop-color="white" stop-opacity="0"/>
</linearGradient>
<linearGradient id="paint103_linear_1688_2250" x1="6" y1="365.5" x2="175" y2="188" gradientUnits="userSpaceOnUse">
<stop stop-color="white"/>
<stop offset="1" stop-color="white" stop-opacity="0"/>
</linearGradient>
<linearGradient id="paint104_linear_1688_2250" x1="6" y1="365.5" x2="175" y2="188" gradientUnits="userSpaceOnUse">
<stop stop-color="white"/>
<stop offset="1" stop-color="white" stop-opacity="0"/>
</linearGradient>
<linearGradient id="paint105_linear_1688_2250" x1="6" y1="365.5" x2="175" y2="188" gradientUnits="userSpaceOnUse">
<stop stop-color="white"/>
<stop offset="1" stop-color="white" stop-opacity="0"/>
</linearGradient>
<linearGradient id="paint106_linear_1688_2250" x1="6" y1="365.5" x2="175" y2="188" gradientUnits="userSpaceOnUse">
<stop stop-color="white"/>
<stop offset="1" stop-color="white" stop-opacity="0"/>
</linearGradient>
<linearGradient id="paint107_linear_1688_2250" x1="6" y1="365.5" x2="175" y2="188" gradientUnits="userSpaceOnUse">
<stop stop-color="white"/>
<stop offset="1" stop-color="white" stop-opacity="0"/>
</linearGradient>
<linearGradient id="paint108_linear_1688_2250" x1="6" y1="365.5" x2="175" y2="188" gradientUnits="userSpaceOnUse">
<stop stop-color="white"/>
<stop offset="1" stop-color="white" stop-opacity="0"/>
</linearGradient>
<linearGradient id="paint109_linear_1688_2250" x1="6" y1="365.5" x2="175" y2="188" gradientUnits="userSpaceOnUse">
<stop stop-color="white"/>
<stop offset="1" stop-color="white" stop-opacity="0"/>
</linearGradient>
<linearGradient id="paint110_linear_1688_2250" x1="6" y1="365.5" x2="175" y2="188" gradientUnits="userSpaceOnUse">
<stop stop-color="white"/>
<stop offset="1" stop-color="white" stop-opacity="0"/>
</linearGradient>
<linearGradient id="paint111_linear_1688_2250" x1="6" y1="365.5" x2="175" y2="188" gradientUnits="userSpaceOnUse">
<stop stop-color="white"/>
<stop offset="1" stop-color="white" stop-opacity="0"/>
</linearGradient>
<linearGradient id="paint112_linear_1688_2250" x1="6" y1="365.5" x2="175" y2="188" gradientUnits="userSpaceOnUse">
<stop stop-color="white"/>
<stop offset="1" stop-color="white" stop-opacity="0"/>
</linearGradient>
<linearGradient id="paint113_linear_1688_2250" x1="6" y1="365.5" x2="175" y2="188" gradientUnits="userSpaceOnUse">
<stop stop-color="white"/>
<stop offset="1" stop-color="white" stop-opacity="0"/>
</linearGradient>
<linearGradient id="paint114_linear_1688_2250" x1="6" y1="365.5" x2="175" y2="188" gradientUnits="userSpaceOnUse">
<stop stop-color="white"/>
<stop offset="1" stop-color="white" stop-opacity="0"/>
</linearGradient>
<linearGradient id="paint115_linear_1688_2250" x1="6" y1="365.5" x2="175" y2="188" gradientUnits="userSpaceOnUse">
<stop stop-color="white"/>
<stop offset="1" stop-color="white" stop-opacity="0"/>
</linearGradient>
<linearGradient id="paint116_linear_1688_2250" x1="6" y1="365.5" x2="175" y2="188" gradientUnits="userSpaceOnUse">
<stop stop-color="white"/>
<stop offset="1" stop-color="white" stop-opacity="0"/>
</linearGradient>
<linearGradient id="paint117_linear_1688_2250" x1="6" y1="365.5" x2="175" y2="188" gradientUnits="userSpaceOnUse">
<stop stop-color="white"/>
<stop offset="1" stop-color="white" stop-opacity="0"/>
</linearGradient>
<linearGradient id="paint118_linear_1688_2250" x1="6" y1="365.5" x2="175" y2="188" gradientUnits="userSpaceOnUse">
<stop stop-color="white"/>
<stop offset="1" stop-color="white" stop-opacity="0"/>
</linearGradient>
<linearGradient id="paint119_linear_1688_2250" x1="6" y1="365.5" x2="175" y2="188" gradientUnits="userSpaceOnUse">
<stop stop-color="white"/>
<stop offset="1" stop-color="white" stop-opacity="0"/>
</linearGradient>
<linearGradient id="paint120_linear_1688_2250" x1="6" y1="365.5" x2="175" y2="188" gradientUnits="userSpaceOnUse">
<stop stop-color="white"/>
<stop offset="1" stop-color="white" stop-opacity="0"/>
</linearGradient>
<linearGradient id="paint121_linear_1688_2250" x1="6" y1="365.5" x2="175" y2="188" gradientUnits="userSpaceOnUse">
<stop stop-color="white"/>
<stop offset="1" stop-color="white" stop-opacity="0"/>
</linearGradient>
<linearGradient id="paint122_linear_1688_2250" x1="6" y1="365.5" x2="175" y2="188" gradientUnits="userSpaceOnUse">
<stop stop-color="white"/>
<stop offset="1" stop-color="white" stop-opacity="0"/>
</linearGradient>
<linearGradient id="paint123_linear_1688_2250" x1="6" y1="365.5" x2="175" y2="188" gradientUnits="userSpaceOnUse">
<stop stop-color="white"/>
<stop offset="1" stop-color="white" stop-opacity="0"/>
</linearGradient>
<linearGradient id="paint124_linear_1688_2250" x1="6" y1="365.5" x2="175" y2="188" gradientUnits="userSpaceOnUse">
<stop stop-color="white"/>
<stop offset="1" stop-color="white" stop-opacity="0"/>
</linearGradient>
<linearGradient id="paint125_linear_1688_2250" x1="6" y1="365.5" x2="175" y2="188" gradientUnits="userSpaceOnUse">
<stop stop-color="white"/>
<stop offset="1" stop-color="white" stop-opacity="0"/>
</linearGradient>
<linearGradient id="paint126_linear_1688_2250" x1="6" y1="365.5" x2="175" y2="188" gradientUnits="userSpaceOnUse">
<stop stop-color="white"/>
<stop offset="1" stop-color="white" stop-opacity="0"/>
</linearGradient>
<linearGradient id="paint127_linear_1688_2250" x1="6" y1="365.5" x2="175" y2="188" gradientUnits="userSpaceOnUse">
<stop stop-color="white"/>
<stop offset="1" stop-color="white" stop-opacity="0"/>
</linearGradient>
<linearGradient id="paint128_linear_1688_2250" x1="6" y1="365.5" x2="175" y2="188" gradientUnits="userSpaceOnUse">
<stop stop-color="white"/>
<stop offset="1" stop-color="white" stop-opacity="0"/>
</linearGradient>
<linearGradient id="paint129_linear_1688_2250" x1="6" y1="365.5" x2="175" y2="188" gradientUnits="userSpaceOnUse">
<stop stop-color="white"/>
<stop offset="1" stop-color="white" stop-opacity="0"/>
</linearGradient>
<linearGradient id="paint130_linear_1688_2250" x1="6" y1="365.5" x2="175" y2="188" gradientUnits="userSpaceOnUse">
<stop stop-color="white"/>
<stop offset="1" stop-color="white" stop-opacity="0"/>
</linearGradient>
<linearGradient id="paint131_linear_1688_2250" x1="6" y1="365.5" x2="175" y2="188" gradientUnits="userSpaceOnUse">
<stop stop-color="white"/>
<stop offset="1" stop-color="white" stop-opacity="0"/>
</linearGradient>
<linearGradient id="paint132_linear_1688_2250" x1="6" y1="365.5" x2="175" y2="188" gradientUnits="userSpaceOnUse">
<stop stop-color="white"/>
<stop offset="1" stop-color="white" stop-opacity="0"/>
</linearGradient>
<linearGradient id="paint133_linear_1688_2250" x1="6" y1="365.5" x2="175" y2="188" gradientUnits="userSpaceOnUse">
<stop stop-color="white"/>
<stop offset="1" stop-color="white" stop-opacity="0"/>
</linearGradient>
<linearGradient id="paint134_linear_1688_2250" x1="6" y1="365.5" x2="175" y2="188" gradientUnits="userSpaceOnUse">
<stop stop-color="white"/>
<stop offset="1" stop-color="white" stop-opacity="0"/>
</linearGradient>
<linearGradient id="paint135_linear_1688_2250" x1="6" y1="365.5" x2="175" y2="188" gradientUnits="userSpaceOnUse">
<stop stop-color="white"/>
<stop offset="1" stop-color="white" stop-opacity="0"/>
</linearGradient>
<linearGradient id="paint136_linear_1688_2250" x1="6" y1="365.5" x2="175" y2="188" gradientUnits="userSpaceOnUse">
<stop stop-color="white"/>
<stop offset="1" stop-color="white" stop-opacity="0"/>
</linearGradient>
<linearGradient id="paint137_linear_1688_2250" x1="6" y1="365.5" x2="175" y2="188" gradientUnits="userSpaceOnUse">
<stop stop-color="white"/>
<stop offset="1" stop-color="white" stop-opacity="0"/>
</linearGradient>
<linearGradient id="paint138_linear_1688_2250" x1="6" y1="365.5" x2="175" y2="188" gradientUnits="userSpaceOnUse">
<stop stop-color="white"/>
<stop offset="1" stop-color="white" stop-opacity="0"/>
</linearGradient>
<linearGradient id="paint139_linear_1688_2250" x1="6" y1="365.5" x2="175" y2="188" gradientUnits="userSpaceOnUse">
<stop stop-color="white"/>
<stop offset="1" stop-color="white" stop-opacity="0"/>
</linearGradient>
<linearGradient id="paint140_linear_1688_2250" x1="6" y1="365.5" x2="175" y2="188" gradientUnits="userSpaceOnUse">
<stop stop-color="white"/>
<stop offset="1" stop-color="white" stop-opacity="0"/>
</linearGradient>
<linearGradient id="paint141_linear_1688_2250" x1="6" y1="365.5" x2="175" y2="188" gradientUnits="userSpaceOnUse">
<stop stop-color="white"/>
<stop offset="1" stop-color="white" stop-opacity="0"/>
</linearGradient>
<linearGradient id="paint142_linear_1688_2250" x1="6" y1="365.5" x2="175" y2="188" gradientUnits="userSpaceOnUse">
<stop stop-color="white"/>
<stop offset="1" stop-color="white" stop-opacity="0"/>
</linearGradient>
<linearGradient id="paint143_linear_1688_2250" x1="6" y1="365.5" x2="175" y2="188" gradientUnits="userSpaceOnUse">
<stop stop-color="white"/>
<stop offset="1" stop-color="white" stop-opacity="0"/>
</linearGradient>
<linearGradient id="paint144_linear_1688_2250" x1="6" y1="365.5" x2="175" y2="188" gradientUnits="userSpaceOnUse">
<stop stop-color="white"/>
<stop offset="1" stop-color="white" stop-opacity="0"/>
</linearGradient>
<linearGradient id="paint145_linear_1688_2250" x1="6" y1="365.5" x2="175" y2="188" gradientUnits="userSpaceOnUse">
<stop stop-color="white"/>
<stop offset="1" stop-color="white" stop-opacity="0"/>
</linearGradient>
<linearGradient id="paint146_linear_1688_2250" x1="6" y1="365.5" x2="175" y2="188" gradientUnits="userSpaceOnUse">
<stop stop-color="white"/>
<stop offset="1" stop-color="white" stop-opacity="0"/>
</linearGradient>
<linearGradient id="paint147_linear_1688_2250" x1="6" y1="365.5" x2="175" y2="188" gradientUnits="userSpaceOnUse">
<stop stop-color="white"/>
<stop offset="1" stop-color="white" stop-opacity="0"/>
</linearGradient>
<linearGradient id="paint148_linear_1688_2250" x1="6" y1="365.5" x2="175" y2="188" gradientUnits="userSpaceOnUse">
<stop stop-color="white"/>
<stop offset="1" stop-color="white" stop-opacity="0"/>
</linearGradient>
<linearGradient id="paint149_linear_1688_2250" x1="6" y1="365.5" x2="175" y2="188" gradientUnits="userSpaceOnUse">
<stop stop-color="white"/>
<stop offset="1" stop-color="white" stop-opacity="0"/>
</linearGradient>
<linearGradient id="paint150_linear_1688_2250" x1="6" y1="365.5" x2="175" y2="188" gradientUnits="userSpaceOnUse">
<stop stop-color="white"/>
<stop offset="1" stop-color="white" stop-opacity="0"/>
</linearGradient>
<linearGradient id="paint151_linear_1688_2250" x1="6" y1="365.5" x2="175" y2="188" gradientUnits="userSpaceOnUse">
<stop stop-color="white"/>
<stop offset="1" stop-color="white" stop-opacity="0"/>
</linearGradient>
<linearGradient id="paint152_linear_1688_2250" x1="6" y1="365.5" x2="175" y2="188" gradientUnits="userSpaceOnUse">
<stop stop-color="white"/>
<stop offset="1" stop-color="white" stop-opacity="0"/>
</linearGradient>
<linearGradient id="paint153_linear_1688_2250" x1="6" y1="365.5" x2="175" y2="188" gradientUnits="userSpaceOnUse">
<stop stop-color="white"/>
<stop offset="1" stop-color="white" stop-opacity="0"/>
</linearGradient>
<linearGradient id="paint154_linear_1688_2250" x1="6" y1="365.5" x2="175" y2="188" gradientUnits="userSpaceOnUse">
<stop stop-color="white"/>
<stop offset="1" stop-color="white" stop-opacity="0"/>
</linearGradient>
</defs>
</svg>
