<svg width="376" height="376" viewBox="0 0 376 376" fill="none" xmlns="http://www.w3.org/2000/svg">
<g opacity="0.1">
<path fillRule="evenodd" clipRule="evenodd" d="M-3.68084e-06 84.2078L376 84.2078L376 85.1339L-3.72132e-06 85.1339L-3.68084e-06 84.2078Z" fill="url(#paint0_linear_1688_2249)"/>
<path fillRule="evenodd" clipRule="evenodd" d="M-2.39682e-06 54.8328L376 54.8328L376 55.7589L-2.4373e-06 55.7589L-2.39682e-06 54.8328Z" fill="url(#paint1_linear_1688_2249)"/>
<path fillRule="evenodd" clipRule="evenodd" d="M-1.1128e-06 25.4578L376 25.4578L376 26.3839L-1.15328e-06 26.3839L-1.1128e-06 25.4578Z" fill="url(#paint2_linear_1688_2249)"/>
<path fillRule="evenodd" clipRule="evenodd" d="M114.367 376L114.367 -1.13554e-05L115.293 -1.13959e-05L115.293 376L114.367 376Z" fill="url(#paint3_linear_1688_2249)"/>
<path fillRule="evenodd" clipRule="evenodd" d="M84.9917 376L84.9916 -1.26394e-05L85.9177 -1.26799e-05L85.9177 376L84.9917 376Z" fill="url(#paint4_linear_1688_2249)"/>
<path fillRule="evenodd" clipRule="evenodd" d="M55.6167 376L55.6166 -1.39234e-05L56.5427 -1.39639e-05L56.5427 376L55.6167 376Z" fill="url(#paint5_linear_1688_2249)"/>
<path fillRule="evenodd" clipRule="evenodd" d="M26.2415 376L26.2414 -1.52075e-05L27.1675 -1.5248e-05L27.1675 376L26.2415 376Z" fill="url(#paint6_linear_1688_2249)"/>
<path fillRule="evenodd" clipRule="evenodd" d="M-4.96486e-06 113.583L376 113.583L376 114.509L-5.00534e-06 114.509L-4.96486e-06 113.583Z" fill="url(#paint7_linear_1688_2249)"/>
<path fillRule="evenodd" clipRule="evenodd" d="M143.742 376L143.742 -1.00714e-05L144.668 -1.01119e-05L144.668 376L143.742 376Z" fill="url(#paint8_linear_1688_2249)"/>
<path fillRule="evenodd" clipRule="evenodd" d="M-6.24889e-06 142.958L376 142.958L376 143.884L-6.28936e-06 143.884L-6.24889e-06 142.958Z" fill="url(#paint9_linear_1688_2249)"/>
<path fillRule="evenodd" clipRule="evenodd" d="M173.117 376L173.117 -8.78735e-06L174.043 -8.82783e-06L174.043 376L173.117 376Z" fill="url(#paint10_linear_1688_2249)"/>
<path fillRule="evenodd" clipRule="evenodd" d="M-7.53291e-06 172.333L376 172.333L376 173.259L-7.57339e-06 173.259L-7.53291e-06 172.333Z" fill="url(#paint11_linear_1688_2249)"/>
<path fillRule="evenodd" clipRule="evenodd" d="M202.492 376L202.492 -7.50334e-06L203.418 -7.54381e-06L203.418 376L202.492 376Z" fill="url(#paint12_linear_1688_2249)"/>
<path fillRule="evenodd" clipRule="evenodd" d="M-8.81693e-06 201.708L376 201.708L376 202.634L-8.85741e-06 202.634L-8.81693e-06 201.708Z" fill="url(#paint13_linear_1688_2249)"/>
<path fillRule="evenodd" clipRule="evenodd" d="M231.867 376L231.867 -6.21931e-06L232.793 -6.25979e-06L232.793 376L231.867 376Z" fill="url(#paint14_linear_1688_2249)"/>
<path fillRule="evenodd" clipRule="evenodd" d="M-1.0101e-05 231.083L376 231.083L376 232.009L-1.01414e-05 232.009L-1.0101e-05 231.083Z" fill="url(#paint15_linear_1688_2249)"/>
<path fillRule="evenodd" clipRule="evenodd" d="M261.242 376L261.242 -4.93529e-06L262.168 -4.97577e-06L262.168 376L261.242 376Z" fill="url(#paint16_linear_1688_2249)"/>
<path fillRule="evenodd" clipRule="evenodd" d="M-1.1385e-05 260.458L376 260.458L376 261.384L-1.14255e-05 261.384L-1.1385e-05 260.458Z" fill="url(#paint17_linear_1688_2249)"/>
<path fillRule="evenodd" clipRule="evenodd" d="M290.617 376L290.617 -3.65127e-06L291.543 -3.69175e-06L291.543 376L290.617 376Z" fill="url(#paint18_linear_1688_2249)"/>
<path fillRule="evenodd" clipRule="evenodd" d="M-1.2669e-05 289.833L376 289.833L376 290.759L-1.27095e-05 290.759L-1.2669e-05 289.833Z" fill="url(#paint19_linear_1688_2249)"/>
<path fillRule="evenodd" clipRule="evenodd" d="M319.992 376L319.992 -2.36725e-06L320.918 -2.40773e-06L320.918 376L319.992 376Z" fill="url(#paint20_linear_1688_2249)"/>
<path fillRule="evenodd" clipRule="evenodd" d="M-1.3953e-05 319.208L376 319.208L376 320.134L-1.39935e-05 320.134L-1.3953e-05 319.208Z" fill="url(#paint21_linear_1688_2249)"/>
<path fillRule="evenodd" clipRule="evenodd" d="M349.367 376L349.367 -1.08323e-06L350.293 -1.1237e-06L350.293 376L349.367 376Z" fill="url(#paint22_linear_1688_2249)"/>
<path d="M59.1417 289.833C57.5086 290.437 56.221 291.725 55.6167 293.358C55.0124 291.725 53.7248 290.437 52.0917 289.833C53.7248 289.229 55.0124 287.941 55.6167 286.308C56.221 287.941 57.5086 289.229 59.1417 289.833Z" fill="url(#paint23_linear_1688_2249)"/>
<path d="M59.1417 319.208C57.5086 319.812 56.221 321.1 55.6167 322.733C55.0124 321.1 53.7248 319.812 52.0917 319.208C53.7248 318.604 55.0124 317.316 55.6167 315.683C56.221 317.316 57.5086 318.604 59.1417 319.208Z" fill="url(#paint24_linear_1688_2249)"/>
<path d="M59.1417 260.458C57.5086 261.062 56.221 262.35 55.6167 263.983C55.0124 262.35 53.7248 261.062 52.0917 260.458C53.7248 259.854 55.0124 258.566 55.6167 256.933C56.221 258.566 57.5086 259.854 59.1417 260.458Z" fill="url(#paint25_linear_1688_2249)"/>
<path d="M59.1417 231.083C57.5086 231.687 56.221 232.975 55.6167 234.608C55.0124 232.975 53.7248 231.687 52.0917 231.083C53.7248 230.479 55.0124 229.191 55.6167 227.558C56.221 229.191 57.5086 230.479 59.1417 231.083Z" fill="url(#paint26_linear_1688_2249)"/>
<path d="M59.1417 201.708C57.5086 202.312 56.221 203.6 55.6167 205.233C55.0124 203.6 53.7248 202.312 52.0917 201.708C53.7248 201.104 55.0124 199.816 55.6167 198.183C56.221 199.816 57.5086 201.104 59.1417 201.708Z" fill="url(#paint27_linear_1688_2249)"/>
<path d="M59.1417 172.333C57.5086 172.937 56.221 174.225 55.6167 175.858C55.0124 174.225 53.7248 172.937 52.0917 172.333C53.7248 171.729 55.0124 170.441 55.6167 168.808C56.221 170.441 57.5086 171.729 59.1417 172.333Z" fill="url(#paint28_linear_1688_2249)"/>
<path d="M59.1417 113.583C57.5086 114.187 56.221 115.475 55.6167 117.108C55.0124 115.475 53.7248 114.187 52.0917 113.583C53.7248 112.979 55.0124 111.691 55.6167 110.058C56.221 111.691 57.5086 112.979 59.1417 113.583Z" fill="url(#paint29_linear_1688_2249)"/>
<path d="M59.1417 142.958C57.5086 143.562 56.221 144.85 55.6167 146.483C55.0124 144.85 53.7248 143.562 52.0917 142.958C53.7248 142.354 55.0124 141.066 55.6167 139.433C56.221 141.066 57.5086 142.354 59.1417 142.958Z" fill="url(#paint30_linear_1688_2249)"/>
<path d="M59.1417 84.208C57.5086 84.8123 56.221 86.0999 55.6167 87.733C55.0124 86.0999 53.7248 84.8123 52.0917 84.208C53.7248 83.6037 55.0124 82.3161 55.6167 80.683C56.221 82.3161 57.5086 83.6037 59.1417 84.208Z" fill="url(#paint31_linear_1688_2249)"/>
<path d="M59.1417 54.833C57.5086 55.4373 56.221 56.7249 55.6167 58.358C55.0124 56.7249 53.7248 55.4373 52.0917 54.833C53.7248 54.2287 55.0124 52.9411 55.6167 51.308C56.221 52.9411 57.5086 54.2287 59.1417 54.833Z" fill="url(#paint32_linear_1688_2249)"/>
<path d="M59.1418 25.4578C57.5087 26.0621 56.2211 27.3497 55.6168 28.9828C55.0125 27.3497 53.7249 26.0621 52.0918 25.4578C53.7249 24.8535 55.0125 23.5659 55.6168 21.9328C56.2211 23.5659 57.5087 24.8535 59.1418 25.4578Z" fill="url(#paint33_linear_1688_2249)"/>
<path d="M29.7667 289.833C28.1336 290.437 26.846 291.725 26.2417 293.358C25.6374 291.725 24.3498 290.437 22.7167 289.833C24.3498 289.229 25.6374 287.941 26.2417 286.308C26.846 287.941 28.1336 289.229 29.7667 289.833Z" fill="url(#paint34_linear_1688_2249)"/>
<path d="M29.7667 319.208C28.1336 319.812 26.846 321.1 26.2417 322.733C25.6374 321.1 24.3498 319.812 22.7167 319.208C24.3498 318.604 25.6374 317.316 26.2417 315.683C26.846 317.316 28.1336 318.604 29.7667 319.208Z" fill="url(#paint35_linear_1688_2249)"/>
<path d="M29.7667 260.458C28.1336 261.062 26.846 262.35 26.2417 263.983C25.6374 262.35 24.3498 261.062 22.7167 260.458C24.3498 259.854 25.6374 258.566 26.2417 256.933C26.846 258.566 28.1336 259.854 29.7667 260.458Z" fill="url(#paint36_linear_1688_2249)"/>
<path d="M29.7667 231.083C28.1336 231.687 26.846 232.975 26.2417 234.608C25.6374 232.975 24.3498 231.687 22.7167 231.083C24.3498 230.479 25.6374 229.191 26.2417 227.558C26.846 229.191 28.1336 230.479 29.7667 231.083Z" fill="url(#paint37_linear_1688_2249)"/>
<path d="M29.7667 201.708C28.1336 202.312 26.846 203.6 26.2417 205.233C25.6374 203.6 24.3498 202.312 22.7167 201.708C24.3498 201.104 25.6374 199.816 26.2417 198.183C26.846 199.816 28.1336 201.104 29.7667 201.708Z" fill="url(#paint38_linear_1688_2249)"/>
<path d="M29.7667 172.333C28.1336 172.937 26.846 174.225 26.2417 175.858C25.6374 174.225 24.3498 172.937 22.7167 172.333C24.3498 171.729 25.6374 170.441 26.2417 168.808C26.846 170.441 28.1336 171.729 29.7667 172.333Z" fill="url(#paint39_linear_1688_2249)"/>
<path d="M29.7667 113.583C28.1336 114.187 26.846 115.475 26.2417 117.108C25.6374 115.475 24.3498 114.187 22.7167 113.583C24.3498 112.979 25.6374 111.691 26.2417 110.058C26.846 111.691 28.1336 112.979 29.7667 113.583Z" fill="url(#paint40_linear_1688_2249)"/>
<path d="M29.7667 142.958C28.1336 143.562 26.846 144.85 26.2417 146.483C25.6374 144.85 24.3498 143.562 22.7167 142.958C24.3498 142.354 25.6374 141.066 26.2417 139.433C26.846 141.066 28.1336 142.354 29.7667 142.958Z" fill="url(#paint41_linear_1688_2249)"/>
<path d="M29.7667 84.208C28.1336 84.8123 26.846 86.0999 26.2417 87.733C25.6374 86.0999 24.3498 84.8123 22.7167 84.208C24.3498 83.6037 25.6374 82.3161 26.2417 80.683C26.846 82.3161 28.1336 83.6037 29.7667 84.208Z" fill="url(#paint42_linear_1688_2249)"/>
<path d="M29.7667 54.833C28.1336 55.4373 26.846 56.7249 26.2417 58.358C25.6374 56.7249 24.3498 55.4373 22.7167 54.833C24.3498 54.2287 25.6374 52.9411 26.2417 51.308C26.846 52.9411 28.1336 54.2287 29.7667 54.833Z" fill="url(#paint43_linear_1688_2249)"/>
<path d="M29.7668 25.4578C28.1337 26.0621 26.8461 27.3497 26.2418 28.9828C25.6375 27.3497 24.3499 26.0621 22.7168 25.4578C24.3499 24.8535 25.6375 23.5659 26.2418 21.9328C26.8461 23.5659 28.1337 24.8535 29.7668 25.4578Z" fill="url(#paint44_linear_1688_2249)"/>
<path d="M88.5167 289.833C86.8836 290.437 85.596 291.725 84.9917 293.358C84.3874 291.725 83.0998 290.437 81.4667 289.833C83.0998 289.229 84.3874 287.941 84.9917 286.308C85.596 287.941 86.8836 289.229 88.5167 289.833Z" fill="url(#paint45_linear_1688_2249)"/>
<path d="M88.5167 319.208C86.8836 319.812 85.596 321.1 84.9917 322.733C84.3874 321.1 83.0998 319.812 81.4667 319.208C83.0998 318.604 84.3874 317.316 84.9917 315.683C85.596 317.316 86.8836 318.604 88.5167 319.208Z" fill="url(#paint46_linear_1688_2249)"/>
<path d="M88.5167 260.458C86.8836 261.062 85.596 262.35 84.9917 263.983C84.3874 262.35 83.0998 261.062 81.4667 260.458C83.0998 259.854 84.3874 258.566 84.9917 256.933C85.596 258.566 86.8836 259.854 88.5167 260.458Z" fill="url(#paint47_linear_1688_2249)"/>
<path d="M88.5167 231.083C86.8836 231.687 85.596 232.975 84.9917 234.608C84.3874 232.975 83.0998 231.687 81.4667 231.083C83.0998 230.479 84.3874 229.191 84.9917 227.558C85.596 229.191 86.8836 230.479 88.5167 231.083Z" fill="url(#paint48_linear_1688_2249)"/>
<path d="M88.5167 201.708C86.8836 202.312 85.596 203.6 84.9917 205.233C84.3874 203.6 83.0998 202.312 81.4667 201.708C83.0998 201.104 84.3874 199.816 84.9917 198.183C85.596 199.816 86.8836 201.104 88.5167 201.708Z" fill="url(#paint49_linear_1688_2249)"/>
<path d="M88.5167 172.333C86.8836 172.937 85.596 174.225 84.9917 175.858C84.3874 174.225 83.0998 172.937 81.4667 172.333C83.0998 171.729 84.3874 170.441 84.9917 168.808C85.596 170.441 86.8836 171.729 88.5167 172.333Z" fill="url(#paint50_linear_1688_2249)"/>
<path d="M88.5167 113.583C86.8836 114.187 85.596 115.475 84.9917 117.108C84.3874 115.475 83.0998 114.187 81.4667 113.583C83.0998 112.979 84.3874 111.691 84.9917 110.058C85.596 111.691 86.8836 112.979 88.5167 113.583Z" fill="url(#paint51_linear_1688_2249)"/>
<path d="M88.5167 142.958C86.8836 143.562 85.596 144.85 84.9917 146.483C84.3874 144.85 83.0998 143.562 81.4667 142.958C83.0998 142.354 84.3874 141.066 84.9917 139.433C85.596 141.066 86.8836 142.354 88.5167 142.958Z" fill="url(#paint52_linear_1688_2249)"/>
<path d="M88.5167 84.208C86.8836 84.8123 85.596 86.0999 84.9917 87.733C84.3874 86.0999 83.0998 84.8123 81.4667 84.208C83.0998 83.6037 84.3874 82.3161 84.9917 80.683C85.596 82.3161 86.8836 83.6037 88.5167 84.208Z" fill="url(#paint53_linear_1688_2249)"/>
<path d="M88.5167 54.833C86.8836 55.4373 85.596 56.7249 84.9917 58.358C84.3874 56.7249 83.0998 55.4373 81.4667 54.833C83.0998 54.2287 84.3874 52.9411 84.9917 51.308C85.596 52.9411 86.8836 54.2287 88.5167 54.833Z" fill="url(#paint54_linear_1688_2249)"/>
<path d="M88.5168 25.4578C86.8837 26.0621 85.5961 27.3497 84.9918 28.9828C84.3875 27.3497 83.0999 26.0621 81.4668 25.4578C83.0999 24.8535 84.3875 23.5659 84.9918 21.9328C85.5961 23.5659 86.8837 24.8535 88.5168 25.4578Z" fill="url(#paint55_linear_1688_2249)"/>
<path d="M117.892 289.833C116.259 290.437 114.971 291.725 114.367 293.358C113.762 291.725 112.475 290.437 110.842 289.833C112.475 289.229 113.762 287.941 114.367 286.308C114.971 287.941 116.259 289.229 117.892 289.833Z" fill="url(#paint56_linear_1688_2249)"/>
<path d="M117.892 319.208C116.259 319.812 114.971 321.1 114.367 322.733C113.762 321.1 112.475 319.812 110.842 319.208C112.475 318.604 113.762 317.316 114.367 315.683C114.971 317.316 116.259 318.604 117.892 319.208Z" fill="url(#paint57_linear_1688_2249)"/>
<path d="M117.892 260.458C116.259 261.062 114.971 262.35 114.367 263.983C113.762 262.35 112.475 261.062 110.842 260.458C112.475 259.854 113.762 258.566 114.367 256.933C114.971 258.566 116.259 259.854 117.892 260.458Z" fill="url(#paint58_linear_1688_2249)"/>
<path d="M117.892 231.083C116.259 231.687 114.971 232.975 114.367 234.608C113.762 232.975 112.475 231.687 110.842 231.083C112.475 230.479 113.762 229.191 114.367 227.558C114.971 229.191 116.259 230.479 117.892 231.083Z" fill="url(#paint59_linear_1688_2249)"/>
<path d="M117.892 201.708C116.259 202.312 114.971 203.6 114.367 205.233C113.762 203.6 112.475 202.312 110.842 201.708C112.475 201.104 113.762 199.816 114.367 198.183C114.971 199.816 116.259 201.104 117.892 201.708Z" fill="url(#paint60_linear_1688_2249)"/>
<path d="M117.892 172.333C116.259 172.937 114.971 174.225 114.367 175.858C113.762 174.225 112.475 172.937 110.842 172.333C112.475 171.729 113.762 170.441 114.367 168.808C114.971 170.441 116.259 171.729 117.892 172.333Z" fill="url(#paint61_linear_1688_2249)"/>
<path d="M117.892 113.583C116.259 114.187 114.971 115.475 114.367 117.108C113.762 115.475 112.475 114.187 110.842 113.583C112.475 112.979 113.762 111.691 114.367 110.058C114.971 111.691 116.259 112.979 117.892 113.583Z" fill="url(#paint62_linear_1688_2249)"/>
<path d="M117.892 142.958C116.259 143.562 114.971 144.85 114.367 146.483C113.762 144.85 112.475 143.562 110.842 142.958C112.475 142.354 113.762 141.066 114.367 139.433C114.971 141.066 116.259 142.354 117.892 142.958Z" fill="url(#paint63_linear_1688_2249)"/>
<path d="M117.892 84.208C116.259 84.8123 114.971 86.0999 114.367 87.733C113.762 86.0999 112.475 84.8123 110.842 84.208C112.475 83.6037 113.762 82.3161 114.367 80.683C114.971 82.3161 116.259 83.6037 117.892 84.208Z" fill="url(#paint64_linear_1688_2249)"/>
<path d="M117.892 54.833C116.259 55.4373 114.971 56.7249 114.367 58.358C113.762 56.7249 112.475 55.4373 110.842 54.833C112.475 54.2287 113.762 52.9411 114.367 51.308C114.971 52.9411 116.259 54.2287 117.892 54.833Z" fill="url(#paint65_linear_1688_2249)"/>
<path d="M117.892 25.4578C116.259 26.0621 114.971 27.3497 114.367 28.9828C113.762 27.3497 112.475 26.0621 110.842 25.4578C112.475 24.8535 113.762 23.5659 114.367 21.9328C114.971 23.5659 116.259 24.8535 117.892 25.4578Z" fill="url(#paint66_linear_1688_2249)"/>
<path d="M147.267 289.833C145.634 290.437 144.346 291.725 143.742 293.358C143.137 291.725 141.85 290.437 140.217 289.833C141.85 289.229 143.137 287.941 143.742 286.308C144.346 287.941 145.634 289.229 147.267 289.833Z" fill="url(#paint67_linear_1688_2249)"/>
<path d="M147.267 319.208C145.634 319.812 144.346 321.1 143.742 322.733C143.137 321.1 141.85 319.812 140.217 319.208C141.85 318.604 143.137 317.316 143.742 315.683C144.346 317.316 145.634 318.604 147.267 319.208Z" fill="url(#paint68_linear_1688_2249)"/>
<path d="M147.267 260.458C145.634 261.062 144.346 262.35 143.742 263.983C143.137 262.35 141.85 261.062 140.217 260.458C141.85 259.854 143.137 258.566 143.742 256.933C144.346 258.566 145.634 259.854 147.267 260.458Z" fill="url(#paint69_linear_1688_2249)"/>
<path d="M147.267 231.083C145.634 231.687 144.346 232.975 143.742 234.608C143.137 232.975 141.85 231.687 140.217 231.083C141.85 230.479 143.137 229.191 143.742 227.558C144.346 229.191 145.634 230.479 147.267 231.083Z" fill="url(#paint70_linear_1688_2249)"/>
<path d="M147.267 201.708C145.634 202.312 144.346 203.6 143.742 205.233C143.137 203.6 141.85 202.312 140.217 201.708C141.85 201.104 143.137 199.816 143.742 198.183C144.346 199.816 145.634 201.104 147.267 201.708Z" fill="url(#paint71_linear_1688_2249)"/>
<path d="M147.267 172.333C145.634 172.937 144.346 174.225 143.742 175.858C143.137 174.225 141.85 172.937 140.217 172.333C141.85 171.729 143.137 170.441 143.742 168.808C144.346 170.441 145.634 171.729 147.267 172.333Z" fill="url(#paint72_linear_1688_2249)"/>
<path d="M147.267 113.583C145.634 114.187 144.346 115.475 143.742 117.108C143.137 115.475 141.85 114.187 140.217 113.583C141.85 112.979 143.137 111.691 143.742 110.058C144.346 111.691 145.634 112.979 147.267 113.583Z" fill="url(#paint73_linear_1688_2249)"/>
<path d="M147.267 142.958C145.634 143.562 144.346 144.85 143.742 146.483C143.137 144.85 141.85 143.562 140.217 142.958C141.85 142.354 143.137 141.066 143.742 139.433C144.346 141.066 145.634 142.354 147.267 142.958Z" fill="url(#paint74_linear_1688_2249)"/>
<path d="M147.267 84.208C145.634 84.8123 144.346 86.0999 143.742 87.733C143.137 86.0999 141.85 84.8123 140.217 84.208C141.85 83.6037 143.137 82.3161 143.742 80.683C144.346 82.3161 145.634 83.6037 147.267 84.208Z" fill="url(#paint75_linear_1688_2249)"/>
<path d="M147.267 54.833C145.634 55.4373 144.346 56.7249 143.742 58.358C143.137 56.7249 141.85 55.4373 140.217 54.833C141.85 54.2287 143.137 52.9411 143.742 51.308C144.346 52.9411 145.634 54.2287 147.267 54.833Z" fill="url(#paint76_linear_1688_2249)"/>
<path d="M147.267 25.4578C145.634 26.0621 144.346 27.3497 143.742 28.9828C143.137 27.3497 141.85 26.0621 140.217 25.4578C141.85 24.8535 143.137 23.5659 143.742 21.9328C144.346 23.5659 145.634 24.8535 147.267 25.4578Z" fill="url(#paint77_linear_1688_2249)"/>
<path d="M176.642 289.833C175.009 290.437 173.721 291.725 173.117 293.358C172.512 291.725 171.225 290.437 169.592 289.833C171.225 289.229 172.512 287.941 173.117 286.308C173.721 287.941 175.009 289.229 176.642 289.833Z" fill="url(#paint78_linear_1688_2249)"/>
<path d="M176.642 319.208C175.009 319.812 173.721 321.1 173.117 322.733C172.512 321.1 171.225 319.812 169.592 319.208C171.225 318.604 172.512 317.316 173.117 315.683C173.721 317.316 175.009 318.604 176.642 319.208Z" fill="url(#paint79_linear_1688_2249)"/>
<path d="M176.642 260.458C175.009 261.062 173.721 262.35 173.117 263.983C172.512 262.35 171.225 261.062 169.592 260.458C171.225 259.854 172.512 258.566 173.117 256.933C173.721 258.566 175.009 259.854 176.642 260.458Z" fill="url(#paint80_linear_1688_2249)"/>
<path d="M176.642 231.083C175.009 231.687 173.721 232.975 173.117 234.608C172.512 232.975 171.225 231.687 169.592 231.083C171.225 230.479 172.512 229.191 173.117 227.558C173.721 229.191 175.009 230.479 176.642 231.083Z" fill="url(#paint81_linear_1688_2249)"/>
<path d="M176.642 201.708C175.009 202.312 173.721 203.6 173.117 205.233C172.512 203.6 171.225 202.312 169.592 201.708C171.225 201.104 172.512 199.816 173.117 198.183C173.721 199.816 175.009 201.104 176.642 201.708Z" fill="url(#paint82_linear_1688_2249)"/>
<path d="M176.642 172.333C175.009 172.937 173.721 174.225 173.117 175.858C172.512 174.225 171.225 172.937 169.592 172.333C171.225 171.729 172.512 170.441 173.117 168.808C173.721 170.441 175.009 171.729 176.642 172.333Z" fill="url(#paint83_linear_1688_2249)"/>
<path d="M176.642 113.583C175.009 114.187 173.721 115.475 173.117 117.108C172.512 115.475 171.225 114.187 169.592 113.583C171.225 112.979 172.512 111.691 173.117 110.058C173.721 111.691 175.009 112.979 176.642 113.583Z" fill="url(#paint84_linear_1688_2249)"/>
<path d="M176.642 142.958C175.009 143.562 173.721 144.85 173.117 146.483C172.512 144.85 171.225 143.562 169.592 142.958C171.225 142.354 172.512 141.066 173.117 139.433C173.721 141.066 175.009 142.354 176.642 142.958Z" fill="url(#paint85_linear_1688_2249)"/>
<path d="M176.642 84.208C175.009 84.8123 173.721 86.0999 173.117 87.733C172.512 86.0999 171.225 84.8123 169.592 84.208C171.225 83.6037 172.512 82.3161 173.117 80.683C173.721 82.3161 175.009 83.6037 176.642 84.208Z" fill="url(#paint86_linear_1688_2249)"/>
<path d="M176.642 54.833C175.009 55.4373 173.721 56.7249 173.117 58.358C172.512 56.7249 171.225 55.4373 169.592 54.833C171.225 54.2287 172.512 52.9411 173.117 51.308C173.721 52.9411 175.009 54.2287 176.642 54.833Z" fill="url(#paint87_linear_1688_2249)"/>
<path d="M176.642 25.4578C175.009 26.0621 173.721 27.3497 173.117 28.9828C172.512 27.3497 171.225 26.0621 169.592 25.4578C171.225 24.8535 172.512 23.5659 173.117 21.9328C173.721 23.5659 175.009 24.8535 176.642 25.4578Z" fill="url(#paint88_linear_1688_2249)"/>
<path d="M206.017 289.833C204.384 290.437 203.096 291.725 202.492 293.358C201.887 291.725 200.6 290.437 198.967 289.833C200.6 289.229 201.887 287.941 202.492 286.308C203.096 287.941 204.384 289.229 206.017 289.833Z" fill="url(#paint89_linear_1688_2249)"/>
<path d="M206.017 319.208C204.384 319.812 203.096 321.1 202.492 322.733C201.887 321.1 200.6 319.812 198.967 319.208C200.6 318.604 201.887 317.316 202.492 315.683C203.096 317.316 204.384 318.604 206.017 319.208Z" fill="url(#paint90_linear_1688_2249)"/>
<path d="M206.017 260.458C204.384 261.062 203.096 262.35 202.492 263.983C201.887 262.35 200.6 261.062 198.967 260.458C200.6 259.854 201.887 258.566 202.492 256.933C203.096 258.566 204.384 259.854 206.017 260.458Z" fill="url(#paint91_linear_1688_2249)"/>
<path d="M206.017 231.083C204.384 231.687 203.096 232.975 202.492 234.608C201.887 232.975 200.6 231.687 198.967 231.083C200.6 230.479 201.887 229.191 202.492 227.558C203.096 229.191 204.384 230.479 206.017 231.083Z" fill="url(#paint92_linear_1688_2249)"/>
<path d="M206.017 201.708C204.384 202.312 203.096 203.6 202.492 205.233C201.887 203.6 200.6 202.312 198.967 201.708C200.6 201.104 201.887 199.816 202.492 198.183C203.096 199.816 204.384 201.104 206.017 201.708Z" fill="url(#paint93_linear_1688_2249)"/>
<path d="M206.017 172.333C204.384 172.937 203.096 174.225 202.492 175.858C201.887 174.225 200.6 172.937 198.967 172.333C200.6 171.729 201.887 170.441 202.492 168.808C203.096 170.441 204.384 171.729 206.017 172.333Z" fill="url(#paint94_linear_1688_2249)"/>
<path d="M206.017 113.583C204.384 114.187 203.096 115.475 202.492 117.108C201.887 115.475 200.6 114.187 198.967 113.583C200.6 112.979 201.887 111.691 202.492 110.058C203.096 111.691 204.384 112.979 206.017 113.583Z" fill="url(#paint95_linear_1688_2249)"/>
<path d="M206.017 142.958C204.384 143.562 203.096 144.85 202.492 146.483C201.887 144.85 200.6 143.562 198.967 142.958C200.6 142.354 201.887 141.066 202.492 139.433C203.096 141.066 204.384 142.354 206.017 142.958Z" fill="url(#paint96_linear_1688_2249)"/>
<path d="M206.017 84.208C204.384 84.8123 203.096 86.0999 202.492 87.733C201.887 86.0999 200.6 84.8123 198.967 84.208C200.6 83.6037 201.887 82.3161 202.492 80.683C203.096 82.3161 204.384 83.6037 206.017 84.208Z" fill="url(#paint97_linear_1688_2249)"/>
<path d="M206.017 54.833C204.384 55.4373 203.096 56.7249 202.492 58.358C201.887 56.7249 200.6 55.4373 198.967 54.833C200.6 54.2287 201.887 52.9411 202.492 51.308C203.096 52.9411 204.384 54.2287 206.017 54.833Z" fill="url(#paint98_linear_1688_2249)"/>
<path d="M206.017 25.4578C204.384 26.0621 203.096 27.3497 202.492 28.9828C201.887 27.3497 200.6 26.0621 198.967 25.4578C200.6 24.8535 201.887 23.5659 202.492 21.9328C203.096 23.5659 204.384 24.8535 206.017 25.4578Z" fill="url(#paint99_linear_1688_2249)"/>
<path d="M235.392 289.833C233.759 290.437 232.471 291.725 231.867 293.358C231.262 291.725 229.975 290.437 228.342 289.833C229.975 289.229 231.262 287.941 231.867 286.308C232.471 287.941 233.759 289.229 235.392 289.833Z" fill="url(#paint100_linear_1688_2249)"/>
<path d="M235.392 319.208C233.759 319.812 232.471 321.1 231.867 322.733C231.262 321.1 229.975 319.812 228.342 319.208C229.975 318.604 231.262 317.316 231.867 315.683C232.471 317.316 233.759 318.604 235.392 319.208Z" fill="url(#paint101_linear_1688_2249)"/>
<path d="M235.392 260.458C233.759 261.062 232.471 262.35 231.867 263.983C231.262 262.35 229.975 261.062 228.342 260.458C229.975 259.854 231.262 258.566 231.867 256.933C232.471 258.566 233.759 259.854 235.392 260.458Z" fill="url(#paint102_linear_1688_2249)"/>
<path d="M235.392 231.083C233.759 231.687 232.471 232.975 231.867 234.608C231.262 232.975 229.975 231.687 228.342 231.083C229.975 230.479 231.262 229.191 231.867 227.558C232.471 229.191 233.759 230.479 235.392 231.083Z" fill="url(#paint103_linear_1688_2249)"/>
<path d="M235.392 201.708C233.759 202.312 232.471 203.6 231.867 205.233C231.262 203.6 229.975 202.312 228.342 201.708C229.975 201.104 231.262 199.816 231.867 198.183C232.471 199.816 233.759 201.104 235.392 201.708Z" fill="url(#paint104_linear_1688_2249)"/>
<path d="M235.392 172.333C233.759 172.937 232.471 174.225 231.867 175.858C231.262 174.225 229.975 172.937 228.342 172.333C229.975 171.729 231.262 170.441 231.867 168.808C232.471 170.441 233.759 171.729 235.392 172.333Z" fill="url(#paint105_linear_1688_2249)"/>
<path d="M235.392 113.583C233.759 114.187 232.471 115.475 231.867 117.108C231.262 115.475 229.975 114.187 228.342 113.583C229.975 112.979 231.262 111.691 231.867 110.058C232.471 111.691 233.759 112.979 235.392 113.583Z" fill="url(#paint106_linear_1688_2249)"/>
<path d="M235.392 142.958C233.759 143.562 232.471 144.85 231.867 146.483C231.262 144.85 229.975 143.562 228.342 142.958C229.975 142.354 231.262 141.066 231.867 139.433C232.471 141.066 233.759 142.354 235.392 142.958Z" fill="url(#paint107_linear_1688_2249)"/>
<path d="M235.392 84.208C233.759 84.8123 232.471 86.0999 231.867 87.733C231.262 86.0999 229.975 84.8123 228.342 84.208C229.975 83.6037 231.262 82.3161 231.867 80.683C232.471 82.3161 233.759 83.6037 235.392 84.208Z" fill="url(#paint108_linear_1688_2249)"/>
<path d="M235.392 54.833C233.759 55.4373 232.471 56.7249 231.867 58.358C231.262 56.7249 229.975 55.4373 228.342 54.833C229.975 54.2287 231.262 52.9411 231.867 51.308C232.471 52.9411 233.759 54.2287 235.392 54.833Z" fill="url(#paint109_linear_1688_2249)"/>
<path d="M235.392 25.4578C233.759 26.0621 232.471 27.3497 231.867 28.9828C231.262 27.3497 229.975 26.0621 228.342 25.4578C229.975 24.8535 231.262 23.5659 231.867 21.9328C232.471 23.5659 233.759 24.8535 235.392 25.4578Z" fill="url(#paint110_linear_1688_2249)"/>
<path d="M264.767 289.833C263.134 290.437 261.846 291.725 261.242 293.358C260.637 291.725 259.35 290.437 257.717 289.833C259.35 289.229 260.637 287.941 261.242 286.308C261.846 287.941 263.134 289.229 264.767 289.833Z" fill="url(#paint111_linear_1688_2249)"/>
<path d="M264.767 319.208C263.134 319.812 261.846 321.1 261.242 322.733C260.637 321.1 259.35 319.812 257.717 319.208C259.35 318.604 260.637 317.316 261.242 315.683C261.846 317.316 263.134 318.604 264.767 319.208Z" fill="url(#paint112_linear_1688_2249)"/>
<path d="M264.767 260.458C263.134 261.062 261.846 262.35 261.242 263.983C260.637 262.35 259.35 261.062 257.717 260.458C259.35 259.854 260.637 258.566 261.242 256.933C261.846 258.566 263.134 259.854 264.767 260.458Z" fill="url(#paint113_linear_1688_2249)"/>
<path d="M264.767 231.083C263.134 231.687 261.846 232.975 261.242 234.608C260.637 232.975 259.35 231.687 257.717 231.083C259.35 230.479 260.637 229.191 261.242 227.558C261.846 229.191 263.134 230.479 264.767 231.083Z" fill="url(#paint114_linear_1688_2249)"/>
<path d="M264.767 201.708C263.134 202.312 261.846 203.6 261.242 205.233C260.637 203.6 259.35 202.312 257.717 201.708C259.35 201.104 260.637 199.816 261.242 198.183C261.846 199.816 263.134 201.104 264.767 201.708Z" fill="url(#paint115_linear_1688_2249)"/>
<path d="M264.767 172.333C263.134 172.937 261.846 174.225 261.242 175.858C260.637 174.225 259.35 172.937 257.717 172.333C259.35 171.729 260.637 170.441 261.242 168.808C261.846 170.441 263.134 171.729 264.767 172.333Z" fill="url(#paint116_linear_1688_2249)"/>
<path d="M264.767 113.583C263.134 114.187 261.846 115.475 261.242 117.108C260.637 115.475 259.35 114.187 257.717 113.583C259.35 112.979 260.637 111.691 261.242 110.058C261.846 111.691 263.134 112.979 264.767 113.583Z" fill="url(#paint117_linear_1688_2249)"/>
<path d="M264.767 142.958C263.134 143.562 261.846 144.85 261.242 146.483C260.637 144.85 259.35 143.562 257.717 142.958C259.35 142.354 260.637 141.066 261.242 139.433C261.846 141.066 263.134 142.354 264.767 142.958Z" fill="url(#paint118_linear_1688_2249)"/>
<path d="M264.767 84.208C263.134 84.8123 261.846 86.0999 261.242 87.733C260.637 86.0999 259.35 84.8123 257.717 84.208C259.35 83.6037 260.637 82.3161 261.242 80.683C261.846 82.3161 263.134 83.6037 264.767 84.208Z" fill="url(#paint119_linear_1688_2249)"/>
<path d="M264.767 54.833C263.134 55.4373 261.846 56.7249 261.242 58.358C260.637 56.7249 259.35 55.4373 257.717 54.833C259.35 54.2287 260.637 52.9411 261.242 51.308C261.846 52.9411 263.134 54.2287 264.767 54.833Z" fill="url(#paint120_linear_1688_2249)"/>
<path d="M264.767 25.4578C263.134 26.0621 261.846 27.3497 261.242 28.9828C260.637 27.3497 259.35 26.0621 257.717 25.4578C259.35 24.8535 260.637 23.5659 261.242 21.9328C261.846 23.5659 263.134 24.8535 264.767 25.4578Z" fill="url(#paint121_linear_1688_2249)"/>
<path d="M294.142 289.833C292.509 290.437 291.221 291.725 290.617 293.358C290.012 291.725 288.725 290.437 287.092 289.833C288.725 289.229 290.012 287.941 290.617 286.308C291.221 287.941 292.509 289.229 294.142 289.833Z" fill="url(#paint122_linear_1688_2249)"/>
<path d="M294.142 319.208C292.509 319.812 291.221 321.1 290.617 322.733C290.012 321.1 288.725 319.812 287.092 319.208C288.725 318.604 290.012 317.316 290.617 315.683C291.221 317.316 292.509 318.604 294.142 319.208Z" fill="url(#paint123_linear_1688_2249)"/>
<path d="M294.142 260.458C292.509 261.062 291.221 262.35 290.617 263.983C290.012 262.35 288.725 261.062 287.092 260.458C288.725 259.854 290.012 258.566 290.617 256.933C291.221 258.566 292.509 259.854 294.142 260.458Z" fill="url(#paint124_linear_1688_2249)"/>
<path d="M294.142 231.083C292.509 231.687 291.221 232.975 290.617 234.608C290.012 232.975 288.725 231.687 287.092 231.083C288.725 230.479 290.012 229.191 290.617 227.558C291.221 229.191 292.509 230.479 294.142 231.083Z" fill="url(#paint125_linear_1688_2249)"/>
<path d="M294.142 201.708C292.509 202.312 291.221 203.6 290.617 205.233C290.012 203.6 288.725 202.312 287.092 201.708C288.725 201.104 290.012 199.816 290.617 198.183C291.221 199.816 292.509 201.104 294.142 201.708Z" fill="url(#paint126_linear_1688_2249)"/>
<path d="M294.142 172.333C292.509 172.937 291.221 174.225 290.617 175.858C290.012 174.225 288.725 172.937 287.092 172.333C288.725 171.729 290.012 170.441 290.617 168.808C291.221 170.441 292.509 171.729 294.142 172.333Z" fill="url(#paint127_linear_1688_2249)"/>
<path d="M294.142 113.583C292.509 114.187 291.221 115.475 290.617 117.108C290.012 115.475 288.725 114.187 287.092 113.583C288.725 112.979 290.012 111.691 290.617 110.058C291.221 111.691 292.509 112.979 294.142 113.583Z" fill="url(#paint128_linear_1688_2249)"/>
<path d="M294.142 142.958C292.509 143.562 291.221 144.85 290.617 146.483C290.012 144.85 288.725 143.562 287.092 142.958C288.725 142.354 290.012 141.066 290.617 139.433C291.221 141.066 292.509 142.354 294.142 142.958Z" fill="url(#paint129_linear_1688_2249)"/>
<path d="M294.142 84.208C292.509 84.8123 291.221 86.0999 290.617 87.733C290.012 86.0999 288.725 84.8123 287.092 84.208C288.725 83.6037 290.012 82.3161 290.617 80.683C291.221 82.3161 292.509 83.6037 294.142 84.208Z" fill="url(#paint130_linear_1688_2249)"/>
<path d="M294.142 54.833C292.509 55.4373 291.221 56.7249 290.617 58.358C290.012 56.7249 288.725 55.4373 287.092 54.833C288.725 54.2287 290.012 52.9411 290.617 51.308C291.221 52.9411 292.509 54.2287 294.142 54.833Z" fill="url(#paint131_linear_1688_2249)"/>
<path d="M294.142 25.4578C292.509 26.0621 291.221 27.3497 290.617 28.9828C290.012 27.3497 288.725 26.0621 287.092 25.4578C288.725 24.8535 290.012 23.5659 290.617 21.9328C291.221 23.5659 292.509 24.8535 294.142 25.4578Z" fill="url(#paint132_linear_1688_2249)"/>
<path d="M323.517 289.833C321.884 290.437 320.596 291.725 319.992 293.358C319.387 291.725 318.1 290.437 316.467 289.833C318.1 289.229 319.387 287.941 319.992 286.308C320.596 287.941 321.884 289.229 323.517 289.833Z" fill="url(#paint133_linear_1688_2249)"/>
<path d="M323.517 319.208C321.884 319.812 320.596 321.1 319.992 322.733C319.387 321.1 318.1 319.812 316.467 319.208C318.1 318.604 319.387 317.316 319.992 315.683C320.596 317.316 321.884 318.604 323.517 319.208Z" fill="url(#paint134_linear_1688_2249)"/>
<path d="M323.517 260.458C321.884 261.062 320.596 262.35 319.992 263.983C319.387 262.35 318.1 261.062 316.467 260.458C318.1 259.854 319.387 258.566 319.992 256.933C320.596 258.566 321.884 259.854 323.517 260.458Z" fill="url(#paint135_linear_1688_2249)"/>
<path d="M323.517 231.083C321.884 231.687 320.596 232.975 319.992 234.608C319.387 232.975 318.1 231.687 316.467 231.083C318.1 230.479 319.387 229.191 319.992 227.558C320.596 229.191 321.884 230.479 323.517 231.083Z" fill="url(#paint136_linear_1688_2249)"/>
<path d="M323.517 201.708C321.884 202.312 320.596 203.6 319.992 205.233C319.387 203.6 318.1 202.312 316.467 201.708C318.1 201.104 319.387 199.816 319.992 198.183C320.596 199.816 321.884 201.104 323.517 201.708Z" fill="url(#paint137_linear_1688_2249)"/>
<path d="M323.517 172.333C321.884 172.937 320.596 174.225 319.992 175.858C319.387 174.225 318.1 172.937 316.467 172.333C318.1 171.729 319.387 170.441 319.992 168.808C320.596 170.441 321.884 171.729 323.517 172.333Z" fill="url(#paint138_linear_1688_2249)"/>
<path d="M323.517 113.583C321.884 114.187 320.596 115.475 319.992 117.108C319.387 115.475 318.1 114.187 316.467 113.583C318.1 112.979 319.387 111.691 319.992 110.058C320.596 111.691 321.884 112.979 323.517 113.583Z" fill="url(#paint139_linear_1688_2249)"/>
<path d="M323.517 142.958C321.884 143.562 320.596 144.85 319.992 146.483C319.387 144.85 318.1 143.562 316.467 142.958C318.1 142.354 319.387 141.066 319.992 139.433C320.596 141.066 321.884 142.354 323.517 142.958Z" fill="url(#paint140_linear_1688_2249)"/>
<path d="M323.517 84.208C321.884 84.8123 320.596 86.0999 319.992 87.733C319.387 86.0999 318.1 84.8123 316.467 84.208C318.1 83.6037 319.387 82.3161 319.992 80.683C320.596 82.3161 321.884 83.6037 323.517 84.208Z" fill="url(#paint141_linear_1688_2249)"/>
<path d="M323.517 54.833C321.884 55.4373 320.596 56.7249 319.992 58.358C319.387 56.7249 318.1 55.4373 316.467 54.833C318.1 54.2287 319.387 52.9411 319.992 51.308C320.596 52.9411 321.884 54.2287 323.517 54.833Z" fill="url(#paint142_linear_1688_2249)"/>
<path d="M323.517 25.4578C321.884 26.0621 320.596 27.3497 319.992 28.9828C319.387 27.3497 318.1 26.0621 316.467 25.4578C318.1 24.8535 319.387 23.5659 319.992 21.9328C320.596 23.5659 321.884 24.8535 323.517 25.4578Z" fill="url(#paint143_linear_1688_2249)"/>
<path d="M352.892 289.833C351.259 290.437 349.971 291.725 349.367 293.358C348.762 291.725 347.475 290.437 345.842 289.833C347.475 289.229 348.762 287.941 349.367 286.308C349.971 287.941 351.259 289.229 352.892 289.833Z" fill="url(#paint144_linear_1688_2249)"/>
<path d="M352.892 319.208C351.259 319.812 349.971 321.1 349.367 322.733C348.762 321.1 347.475 319.812 345.842 319.208C347.475 318.604 348.762 317.316 349.367 315.683C349.971 317.316 351.259 318.604 352.892 319.208Z" fill="url(#paint145_linear_1688_2249)"/>
<path d="M352.892 260.458C351.259 261.062 349.971 262.35 349.367 263.983C348.762 262.35 347.475 261.062 345.842 260.458C347.475 259.854 348.762 258.566 349.367 256.933C349.971 258.566 351.259 259.854 352.892 260.458Z" fill="url(#paint146_linear_1688_2249)"/>
<path d="M352.892 231.083C351.259 231.687 349.971 232.975 349.367 234.608C348.762 232.975 347.475 231.687 345.842 231.083C347.475 230.479 348.762 229.191 349.367 227.558C349.971 229.191 351.259 230.479 352.892 231.083Z" fill="url(#paint147_linear_1688_2249)"/>
<path d="M352.892 201.708C351.259 202.312 349.971 203.6 349.367 205.233C348.762 203.6 347.475 202.312 345.842 201.708C347.475 201.104 348.762 199.816 349.367 198.183C349.971 199.816 351.259 201.104 352.892 201.708Z" fill="url(#paint148_linear_1688_2249)"/>
<path d="M352.892 172.333C351.259 172.937 349.971 174.225 349.367 175.858C348.762 174.225 347.475 172.937 345.842 172.333C347.475 171.729 348.762 170.441 349.367 168.808C349.971 170.441 351.259 171.729 352.892 172.333Z" fill="url(#paint149_linear_1688_2249)"/>
<path d="M352.892 113.583C351.259 114.187 349.971 115.475 349.367 117.108C348.762 115.475 347.475 114.187 345.842 113.583C347.475 112.979 348.762 111.691 349.367 110.058C349.971 111.691 351.259 112.979 352.892 113.583Z" fill="url(#paint150_linear_1688_2249)"/>
<path d="M352.892 142.958C351.259 143.562 349.971 144.85 349.367 146.483C348.762 144.85 347.475 143.562 345.842 142.958C347.475 142.354 348.762 141.066 349.367 139.433C349.971 141.066 351.259 142.354 352.892 142.958Z" fill="url(#paint151_linear_1688_2249)"/>
<path d="M352.892 84.208C351.259 84.8123 349.971 86.0999 349.367 87.733C348.762 86.0999 347.475 84.8123 345.842 84.208C347.475 83.6037 348.762 82.3161 349.367 80.683C349.971 82.3161 351.259 83.6037 352.892 84.208Z" fill="url(#paint152_linear_1688_2249)"/>
<path d="M352.892 54.833C351.259 55.4373 349.971 56.7249 349.367 58.358C348.762 56.7249 347.475 55.4373 345.842 54.833C347.475 54.2287 348.762 52.9411 349.367 51.308C349.971 52.9411 351.259 54.2287 352.892 54.833Z" fill="url(#paint153_linear_1688_2249)"/>
<path d="M352.892 25.4578C351.259 26.0621 349.971 27.3497 349.367 28.9828C348.762 27.3497 347.475 26.0621 345.842 25.4578C347.475 24.8535 348.762 23.5659 349.367 21.9328C349.971 23.5659 351.259 24.8535 352.892 25.4578Z" fill="url(#paint154_linear_1688_2249)"/>
</g>
<defs>
<linearGradient id="paint0_linear_1688_2249" x1="370" y1="10.5" x2="201" y2="188" gradientUnits="userSpaceOnUse">
<stop stop-color="white"/>
<stop offset="1" stop-color="white" stop-opacity="0"/>
</linearGradient>
<linearGradient id="paint1_linear_1688_2249" x1="370" y1="10.5" x2="201" y2="188" gradientUnits="userSpaceOnUse">
<stop stop-color="white"/>
<stop offset="1" stop-color="white" stop-opacity="0"/>
</linearGradient>
<linearGradient id="paint2_linear_1688_2249" x1="370" y1="10.5" x2="201" y2="188" gradientUnits="userSpaceOnUse">
<stop stop-color="white"/>
<stop offset="1" stop-color="white" stop-opacity="0"/>
</linearGradient>
<linearGradient id="paint3_linear_1688_2249" x1="370" y1="10.5" x2="201" y2="188" gradientUnits="userSpaceOnUse">
<stop stop-color="white"/>
<stop offset="1" stop-color="white" stop-opacity="0"/>
</linearGradient>
<linearGradient id="paint4_linear_1688_2249" x1="370" y1="10.5" x2="201" y2="188" gradientUnits="userSpaceOnUse">
<stop stop-color="white"/>
<stop offset="1" stop-color="white" stop-opacity="0"/>
</linearGradient>
<linearGradient id="paint5_linear_1688_2249" x1="370" y1="10.5" x2="201" y2="188" gradientUnits="userSpaceOnUse">
<stop stop-color="white"/>
<stop offset="1" stop-color="white" stop-opacity="0"/>
</linearGradient>
<linearGradient id="paint6_linear_1688_2249" x1="370" y1="10.5" x2="201" y2="188" gradientUnits="userSpaceOnUse">
<stop stop-color="white"/>
<stop offset="1" stop-color="white" stop-opacity="0"/>
</linearGradient>
<linearGradient id="paint7_linear_1688_2249" x1="370" y1="10.5" x2="201" y2="188" gradientUnits="userSpaceOnUse">
<stop stop-color="white"/>
<stop offset="1" stop-color="white" stop-opacity="0"/>
</linearGradient>
<linearGradient id="paint8_linear_1688_2249" x1="370" y1="10.5" x2="201" y2="188" gradientUnits="userSpaceOnUse">
<stop stop-color="white"/>
<stop offset="1" stop-color="white" stop-opacity="0"/>
</linearGradient>
<linearGradient id="paint9_linear_1688_2249" x1="370" y1="10.5" x2="201" y2="188" gradientUnits="userSpaceOnUse">
<stop stop-color="white"/>
<stop offset="1" stop-color="white" stop-opacity="0"/>
</linearGradient>
<linearGradient id="paint10_linear_1688_2249" x1="370" y1="10.5" x2="201" y2="188" gradientUnits="userSpaceOnUse">
<stop stop-color="white"/>
<stop offset="1" stop-color="white" stop-opacity="0"/>
</linearGradient>
<linearGradient id="paint11_linear_1688_2249" x1="370" y1="10.5" x2="201" y2="188" gradientUnits="userSpaceOnUse">
<stop stop-color="white"/>
<stop offset="1" stop-color="white" stop-opacity="0"/>
</linearGradient>
<linearGradient id="paint12_linear_1688_2249" x1="370" y1="10.5" x2="201" y2="188" gradientUnits="userSpaceOnUse">
<stop stop-color="white"/>
<stop offset="1" stop-color="white" stop-opacity="0"/>
</linearGradient>
<linearGradient id="paint13_linear_1688_2249" x1="370" y1="10.5" x2="201" y2="188" gradientUnits="userSpaceOnUse">
<stop stop-color="white"/>
<stop offset="1" stop-color="white" stop-opacity="0"/>
</linearGradient>
<linearGradient id="paint14_linear_1688_2249" x1="370" y1="10.5" x2="201" y2="188" gradientUnits="userSpaceOnUse">
<stop stop-color="white"/>
<stop offset="1" stop-color="white" stop-opacity="0"/>
</linearGradient>
<linearGradient id="paint15_linear_1688_2249" x1="370" y1="10.5" x2="201" y2="188" gradientUnits="userSpaceOnUse">
<stop stop-color="white"/>
<stop offset="1" stop-color="white" stop-opacity="0"/>
</linearGradient>
<linearGradient id="paint16_linear_1688_2249" x1="370" y1="10.5" x2="201" y2="188" gradientUnits="userSpaceOnUse">
<stop stop-color="white"/>
<stop offset="1" stop-color="white" stop-opacity="0"/>
</linearGradient>
<linearGradient id="paint17_linear_1688_2249" x1="370" y1="10.5" x2="201" y2="188" gradientUnits="userSpaceOnUse">
<stop stop-color="white"/>
<stop offset="1" stop-color="white" stop-opacity="0"/>
</linearGradient>
<linearGradient id="paint18_linear_1688_2249" x1="370" y1="10.5" x2="201" y2="188" gradientUnits="userSpaceOnUse">
<stop stop-color="white"/>
<stop offset="1" stop-color="white" stop-opacity="0"/>
</linearGradient>
<linearGradient id="paint19_linear_1688_2249" x1="370" y1="10.5" x2="201" y2="188" gradientUnits="userSpaceOnUse">
<stop stop-color="white"/>
<stop offset="1" stop-color="white" stop-opacity="0"/>
</linearGradient>
<linearGradient id="paint20_linear_1688_2249" x1="370" y1="10.5" x2="201" y2="188" gradientUnits="userSpaceOnUse">
<stop stop-color="white"/>
<stop offset="1" stop-color="white" stop-opacity="0"/>
</linearGradient>
<linearGradient id="paint21_linear_1688_2249" x1="370" y1="10.5" x2="201" y2="188" gradientUnits="userSpaceOnUse">
<stop stop-color="white"/>
<stop offset="1" stop-color="white" stop-opacity="0"/>
</linearGradient>
<linearGradient id="paint22_linear_1688_2249" x1="370" y1="10.5" x2="201" y2="188" gradientUnits="userSpaceOnUse">
<stop stop-color="white"/>
<stop offset="1" stop-color="white" stop-opacity="0"/>
</linearGradient>
<linearGradient id="paint23_linear_1688_2249" x1="370" y1="10.5" x2="201" y2="188" gradientUnits="userSpaceOnUse">
<stop stop-color="white"/>
<stop offset="1" stop-color="white" stop-opacity="0"/>
</linearGradient>
<linearGradient id="paint24_linear_1688_2249" x1="370" y1="10.5" x2="201" y2="188" gradientUnits="userSpaceOnUse">
<stop stop-color="white"/>
<stop offset="1" stop-color="white" stop-opacity="0"/>
</linearGradient>
<linearGradient id="paint25_linear_1688_2249" x1="370" y1="10.5" x2="201" y2="188" gradientUnits="userSpaceOnUse">
<stop stop-color="white"/>
<stop offset="1" stop-color="white" stop-opacity="0"/>
</linearGradient>
<linearGradient id="paint26_linear_1688_2249" x1="370" y1="10.5" x2="201" y2="188" gradientUnits="userSpaceOnUse">
<stop stop-color="white"/>
<stop offset="1" stop-color="white" stop-opacity="0"/>
</linearGradient>
<linearGradient id="paint27_linear_1688_2249" x1="370" y1="10.5" x2="201" y2="188" gradientUnits="userSpaceOnUse">
<stop stop-color="white"/>
<stop offset="1" stop-color="white" stop-opacity="0"/>
</linearGradient>
<linearGradient id="paint28_linear_1688_2249" x1="370" y1="10.5" x2="201" y2="188" gradientUnits="userSpaceOnUse">
<stop stop-color="white"/>
<stop offset="1" stop-color="white" stop-opacity="0"/>
</linearGradient>
<linearGradient id="paint29_linear_1688_2249" x1="370" y1="10.5" x2="201" y2="188" gradientUnits="userSpaceOnUse">
<stop stop-color="white"/>
<stop offset="1" stop-color="white" stop-opacity="0"/>
</linearGradient>
<linearGradient id="paint30_linear_1688_2249" x1="370" y1="10.5" x2="201" y2="188" gradientUnits="userSpaceOnUse">
<stop stop-color="white"/>
<stop offset="1" stop-color="white" stop-opacity="0"/>
</linearGradient>
<linearGradient id="paint31_linear_1688_2249" x1="370" y1="10.5" x2="201" y2="188" gradientUnits="userSpaceOnUse">
<stop stop-color="white"/>
<stop offset="1" stop-color="white" stop-opacity="0"/>
</linearGradient>
<linearGradient id="paint32_linear_1688_2249" x1="370" y1="10.5" x2="201" y2="188" gradientUnits="userSpaceOnUse">
<stop stop-color="white"/>
<stop offset="1" stop-color="white" stop-opacity="0"/>
</linearGradient>
<linearGradient id="paint33_linear_1688_2249" x1="370" y1="10.5" x2="201" y2="188" gradientUnits="userSpaceOnUse">
<stop stop-color="white"/>
<stop offset="1" stop-color="white" stop-opacity="0"/>
</linearGradient>
<linearGradient id="paint34_linear_1688_2249" x1="370" y1="10.5" x2="201" y2="188" gradientUnits="userSpaceOnUse">
<stop stop-color="white"/>
<stop offset="1" stop-color="white" stop-opacity="0"/>
</linearGradient>
<linearGradient id="paint35_linear_1688_2249" x1="370" y1="10.5" x2="201" y2="188" gradientUnits="userSpaceOnUse">
<stop stop-color="white"/>
<stop offset="1" stop-color="white" stop-opacity="0"/>
</linearGradient>
<linearGradient id="paint36_linear_1688_2249" x1="370" y1="10.5" x2="201" y2="188" gradientUnits="userSpaceOnUse">
<stop stop-color="white"/>
<stop offset="1" stop-color="white" stop-opacity="0"/>
</linearGradient>
<linearGradient id="paint37_linear_1688_2249" x1="370" y1="10.5" x2="201" y2="188" gradientUnits="userSpaceOnUse">
<stop stop-color="white"/>
<stop offset="1" stop-color="white" stop-opacity="0"/>
</linearGradient>
<linearGradient id="paint38_linear_1688_2249" x1="370" y1="10.5" x2="201" y2="188" gradientUnits="userSpaceOnUse">
<stop stop-color="white"/>
<stop offset="1" stop-color="white" stop-opacity="0"/>
</linearGradient>
<linearGradient id="paint39_linear_1688_2249" x1="370" y1="10.5" x2="201" y2="188" gradientUnits="userSpaceOnUse">
<stop stop-color="white"/>
<stop offset="1" stop-color="white" stop-opacity="0"/>
</linearGradient>
<linearGradient id="paint40_linear_1688_2249" x1="370" y1="10.5" x2="201" y2="188" gradientUnits="userSpaceOnUse">
<stop stop-color="white"/>
<stop offset="1" stop-color="white" stop-opacity="0"/>
</linearGradient>
<linearGradient id="paint41_linear_1688_2249" x1="370" y1="10.5" x2="201" y2="188" gradientUnits="userSpaceOnUse">
<stop stop-color="white"/>
<stop offset="1" stop-color="white" stop-opacity="0"/>
</linearGradient>
<linearGradient id="paint42_linear_1688_2249" x1="370" y1="10.5" x2="201" y2="188" gradientUnits="userSpaceOnUse">
<stop stop-color="white"/>
<stop offset="1" stop-color="white" stop-opacity="0"/>
</linearGradient>
<linearGradient id="paint43_linear_1688_2249" x1="370" y1="10.5" x2="201" y2="188" gradientUnits="userSpaceOnUse">
<stop stop-color="white"/>
<stop offset="1" stop-color="white" stop-opacity="0"/>
</linearGradient>
<linearGradient id="paint44_linear_1688_2249" x1="370" y1="10.5" x2="201" y2="188" gradientUnits="userSpaceOnUse">
<stop stop-color="white"/>
<stop offset="1" stop-color="white" stop-opacity="0"/>
</linearGradient>
<linearGradient id="paint45_linear_1688_2249" x1="370" y1="10.5" x2="201" y2="188" gradientUnits="userSpaceOnUse">
<stop stop-color="white"/>
<stop offset="1" stop-color="white" stop-opacity="0"/>
</linearGradient>
<linearGradient id="paint46_linear_1688_2249" x1="370" y1="10.5" x2="201" y2="188" gradientUnits="userSpaceOnUse">
<stop stop-color="white"/>
<stop offset="1" stop-color="white" stop-opacity="0"/>
</linearGradient>
<linearGradient id="paint47_linear_1688_2249" x1="370" y1="10.5" x2="201" y2="188" gradientUnits="userSpaceOnUse">
<stop stop-color="white"/>
<stop offset="1" stop-color="white" stop-opacity="0"/>
</linearGradient>
<linearGradient id="paint48_linear_1688_2249" x1="370" y1="10.5" x2="201" y2="188" gradientUnits="userSpaceOnUse">
<stop stop-color="white"/>
<stop offset="1" stop-color="white" stop-opacity="0"/>
</linearGradient>
<linearGradient id="paint49_linear_1688_2249" x1="370" y1="10.5" x2="201" y2="188" gradientUnits="userSpaceOnUse">
<stop stop-color="white"/>
<stop offset="1" stop-color="white" stop-opacity="0"/>
</linearGradient>
<linearGradient id="paint50_linear_1688_2249" x1="370" y1="10.5" x2="201" y2="188" gradientUnits="userSpaceOnUse">
<stop stop-color="white"/>
<stop offset="1" stop-color="white" stop-opacity="0"/>
</linearGradient>
<linearGradient id="paint51_linear_1688_2249" x1="370" y1="10.5" x2="201" y2="188" gradientUnits="userSpaceOnUse">
<stop stop-color="white"/>
<stop offset="1" stop-color="white" stop-opacity="0"/>
</linearGradient>
<linearGradient id="paint52_linear_1688_2249" x1="370" y1="10.5" x2="201" y2="188" gradientUnits="userSpaceOnUse">
<stop stop-color="white"/>
<stop offset="1" stop-color="white" stop-opacity="0"/>
</linearGradient>
<linearGradient id="paint53_linear_1688_2249" x1="370" y1="10.5" x2="201" y2="188" gradientUnits="userSpaceOnUse">
<stop stop-color="white"/>
<stop offset="1" stop-color="white" stop-opacity="0"/>
</linearGradient>
<linearGradient id="paint54_linear_1688_2249" x1="370" y1="10.5" x2="201" y2="188" gradientUnits="userSpaceOnUse">
<stop stop-color="white"/>
<stop offset="1" stop-color="white" stop-opacity="0"/>
</linearGradient>
<linearGradient id="paint55_linear_1688_2249" x1="370" y1="10.5" x2="201" y2="188" gradientUnits="userSpaceOnUse">
<stop stop-color="white"/>
<stop offset="1" stop-color="white" stop-opacity="0"/>
</linearGradient>
<linearGradient id="paint56_linear_1688_2249" x1="370" y1="10.5" x2="201" y2="188" gradientUnits="userSpaceOnUse">
<stop stop-color="white"/>
<stop offset="1" stop-color="white" stop-opacity="0"/>
</linearGradient>
<linearGradient id="paint57_linear_1688_2249" x1="370" y1="10.5" x2="201" y2="188" gradientUnits="userSpaceOnUse">
<stop stop-color="white"/>
<stop offset="1" stop-color="white" stop-opacity="0"/>
</linearGradient>
<linearGradient id="paint58_linear_1688_2249" x1="370" y1="10.5" x2="201" y2="188" gradientUnits="userSpaceOnUse">
<stop stop-color="white"/>
<stop offset="1" stop-color="white" stop-opacity="0"/>
</linearGradient>
<linearGradient id="paint59_linear_1688_2249" x1="370" y1="10.5" x2="201" y2="188" gradientUnits="userSpaceOnUse">
<stop stop-color="white"/>
<stop offset="1" stop-color="white" stop-opacity="0"/>
</linearGradient>
<linearGradient id="paint60_linear_1688_2249" x1="370" y1="10.5" x2="201" y2="188" gradientUnits="userSpaceOnUse">
<stop stop-color="white"/>
<stop offset="1" stop-color="white" stop-opacity="0"/>
</linearGradient>
<linearGradient id="paint61_linear_1688_2249" x1="370" y1="10.5" x2="201" y2="188" gradientUnits="userSpaceOnUse">
<stop stop-color="white"/>
<stop offset="1" stop-color="white" stop-opacity="0"/>
</linearGradient>
<linearGradient id="paint62_linear_1688_2249" x1="370" y1="10.5" x2="201" y2="188" gradientUnits="userSpaceOnUse">
<stop stop-color="white"/>
<stop offset="1" stop-color="white" stop-opacity="0"/>
</linearGradient>
<linearGradient id="paint63_linear_1688_2249" x1="370" y1="10.5" x2="201" y2="188" gradientUnits="userSpaceOnUse">
<stop stop-color="white"/>
<stop offset="1" stop-color="white" stop-opacity="0"/>
</linearGradient>
<linearGradient id="paint64_linear_1688_2249" x1="370" y1="10.5" x2="201" y2="188" gradientUnits="userSpaceOnUse">
<stop stop-color="white"/>
<stop offset="1" stop-color="white" stop-opacity="0"/>
</linearGradient>
<linearGradient id="paint65_linear_1688_2249" x1="370" y1="10.5" x2="201" y2="188" gradientUnits="userSpaceOnUse">
<stop stop-color="white"/>
<stop offset="1" stop-color="white" stop-opacity="0"/>
</linearGradient>
<linearGradient id="paint66_linear_1688_2249" x1="370" y1="10.5" x2="201" y2="188" gradientUnits="userSpaceOnUse">
<stop stop-color="white"/>
<stop offset="1" stop-color="white" stop-opacity="0"/>
</linearGradient>
<linearGradient id="paint67_linear_1688_2249" x1="370" y1="10.5" x2="201" y2="188" gradientUnits="userSpaceOnUse">
<stop stop-color="white"/>
<stop offset="1" stop-color="white" stop-opacity="0"/>
</linearGradient>
<linearGradient id="paint68_linear_1688_2249" x1="370" y1="10.5" x2="201" y2="188" gradientUnits="userSpaceOnUse">
<stop stop-color="white"/>
<stop offset="1" stop-color="white" stop-opacity="0"/>
</linearGradient>
<linearGradient id="paint69_linear_1688_2249" x1="370" y1="10.5" x2="201" y2="188" gradientUnits="userSpaceOnUse">
<stop stop-color="white"/>
<stop offset="1" stop-color="white" stop-opacity="0"/>
</linearGradient>
<linearGradient id="paint70_linear_1688_2249" x1="370" y1="10.5" x2="201" y2="188" gradientUnits="userSpaceOnUse">
<stop stop-color="white"/>
<stop offset="1" stop-color="white" stop-opacity="0"/>
</linearGradient>
<linearGradient id="paint71_linear_1688_2249" x1="370" y1="10.5" x2="201" y2="188" gradientUnits="userSpaceOnUse">
<stop stop-color="white"/>
<stop offset="1" stop-color="white" stop-opacity="0"/>
</linearGradient>
<linearGradient id="paint72_linear_1688_2249" x1="370" y1="10.5" x2="201" y2="188" gradientUnits="userSpaceOnUse">
<stop stop-color="white"/>
<stop offset="1" stop-color="white" stop-opacity="0"/>
</linearGradient>
<linearGradient id="paint73_linear_1688_2249" x1="370" y1="10.5" x2="201" y2="188" gradientUnits="userSpaceOnUse">
<stop stop-color="white"/>
<stop offset="1" stop-color="white" stop-opacity="0"/>
</linearGradient>
<linearGradient id="paint74_linear_1688_2249" x1="370" y1="10.5" x2="201" y2="188" gradientUnits="userSpaceOnUse">
<stop stop-color="white"/>
<stop offset="1" stop-color="white" stop-opacity="0"/>
</linearGradient>
<linearGradient id="paint75_linear_1688_2249" x1="370" y1="10.5" x2="201" y2="188" gradientUnits="userSpaceOnUse">
<stop stop-color="white"/>
<stop offset="1" stop-color="white" stop-opacity="0"/>
</linearGradient>
<linearGradient id="paint76_linear_1688_2249" x1="370" y1="10.5" x2="201" y2="188" gradientUnits="userSpaceOnUse">
<stop stop-color="white"/>
<stop offset="1" stop-color="white" stop-opacity="0"/>
</linearGradient>
<linearGradient id="paint77_linear_1688_2249" x1="370" y1="10.5" x2="201" y2="188" gradientUnits="userSpaceOnUse">
<stop stop-color="white"/>
<stop offset="1" stop-color="white" stop-opacity="0"/>
</linearGradient>
<linearGradient id="paint78_linear_1688_2249" x1="370" y1="10.5" x2="201" y2="188" gradientUnits="userSpaceOnUse">
<stop stop-color="white"/>
<stop offset="1" stop-color="white" stop-opacity="0"/>
</linearGradient>
<linearGradient id="paint79_linear_1688_2249" x1="370" y1="10.5" x2="201" y2="188" gradientUnits="userSpaceOnUse">
<stop stop-color="white"/>
<stop offset="1" stop-color="white" stop-opacity="0"/>
</linearGradient>
<linearGradient id="paint80_linear_1688_2249" x1="370" y1="10.5" x2="201" y2="188" gradientUnits="userSpaceOnUse">
<stop stop-color="white"/>
<stop offset="1" stop-color="white" stop-opacity="0"/>
</linearGradient>
<linearGradient id="paint81_linear_1688_2249" x1="370" y1="10.5" x2="201" y2="188" gradientUnits="userSpaceOnUse">
<stop stop-color="white"/>
<stop offset="1" stop-color="white" stop-opacity="0"/>
</linearGradient>
<linearGradient id="paint82_linear_1688_2249" x1="370" y1="10.5" x2="201" y2="188" gradientUnits="userSpaceOnUse">
<stop stop-color="white"/>
<stop offset="1" stop-color="white" stop-opacity="0"/>
</linearGradient>
<linearGradient id="paint83_linear_1688_2249" x1="370" y1="10.5" x2="201" y2="188" gradientUnits="userSpaceOnUse">
<stop stop-color="white"/>
<stop offset="1" stop-color="white" stop-opacity="0"/>
</linearGradient>
<linearGradient id="paint84_linear_1688_2249" x1="370" y1="10.5" x2="201" y2="188" gradientUnits="userSpaceOnUse">
<stop stop-color="white"/>
<stop offset="1" stop-color="white" stop-opacity="0"/>
</linearGradient>
<linearGradient id="paint85_linear_1688_2249" x1="370" y1="10.5" x2="201" y2="188" gradientUnits="userSpaceOnUse">
<stop stop-color="white"/>
<stop offset="1" stop-color="white" stop-opacity="0"/>
</linearGradient>
<linearGradient id="paint86_linear_1688_2249" x1="370" y1="10.5" x2="201" y2="188" gradientUnits="userSpaceOnUse">
<stop stop-color="white"/>
<stop offset="1" stop-color="white" stop-opacity="0"/>
</linearGradient>
<linearGradient id="paint87_linear_1688_2249" x1="370" y1="10.5" x2="201" y2="188" gradientUnits="userSpaceOnUse">
<stop stop-color="white"/>
<stop offset="1" stop-color="white" stop-opacity="0"/>
</linearGradient>
<linearGradient id="paint88_linear_1688_2249" x1="370" y1="10.5" x2="201" y2="188" gradientUnits="userSpaceOnUse">
<stop stop-color="white"/>
<stop offset="1" stop-color="white" stop-opacity="0"/>
</linearGradient>
<linearGradient id="paint89_linear_1688_2249" x1="370" y1="10.5" x2="201" y2="188" gradientUnits="userSpaceOnUse">
<stop stop-color="white"/>
<stop offset="1" stop-color="white" stop-opacity="0"/>
</linearGradient>
<linearGradient id="paint90_linear_1688_2249" x1="370" y1="10.5" x2="201" y2="188" gradientUnits="userSpaceOnUse">
<stop stop-color="white"/>
<stop offset="1" stop-color="white" stop-opacity="0"/>
</linearGradient>
<linearGradient id="paint91_linear_1688_2249" x1="370" y1="10.5" x2="201" y2="188" gradientUnits="userSpaceOnUse">
<stop stop-color="white"/>
<stop offset="1" stop-color="white" stop-opacity="0"/>
</linearGradient>
<linearGradient id="paint92_linear_1688_2249" x1="370" y1="10.5" x2="201" y2="188" gradientUnits="userSpaceOnUse">
<stop stop-color="white"/>
<stop offset="1" stop-color="white" stop-opacity="0"/>
</linearGradient>
<linearGradient id="paint93_linear_1688_2249" x1="370" y1="10.5" x2="201" y2="188" gradientUnits="userSpaceOnUse">
<stop stop-color="white"/>
<stop offset="1" stop-color="white" stop-opacity="0"/>
</linearGradient>
<linearGradient id="paint94_linear_1688_2249" x1="370" y1="10.5" x2="201" y2="188" gradientUnits="userSpaceOnUse">
<stop stop-color="white"/>
<stop offset="1" stop-color="white" stop-opacity="0"/>
</linearGradient>
<linearGradient id="paint95_linear_1688_2249" x1="370" y1="10.5" x2="201" y2="188" gradientUnits="userSpaceOnUse">
<stop stop-color="white"/>
<stop offset="1" stop-color="white" stop-opacity="0"/>
</linearGradient>
<linearGradient id="paint96_linear_1688_2249" x1="370" y1="10.5" x2="201" y2="188" gradientUnits="userSpaceOnUse">
<stop stop-color="white"/>
<stop offset="1" stop-color="white" stop-opacity="0"/>
</linearGradient>
<linearGradient id="paint97_linear_1688_2249" x1="370" y1="10.5" x2="201" y2="188" gradientUnits="userSpaceOnUse">
<stop stop-color="white"/>
<stop offset="1" stop-color="white" stop-opacity="0"/>
</linearGradient>
<linearGradient id="paint98_linear_1688_2249" x1="370" y1="10.5" x2="201" y2="188" gradientUnits="userSpaceOnUse">
<stop stop-color="white"/>
<stop offset="1" stop-color="white" stop-opacity="0"/>
</linearGradient>
<linearGradient id="paint99_linear_1688_2249" x1="370" y1="10.5" x2="201" y2="188" gradientUnits="userSpaceOnUse">
<stop stop-color="white"/>
<stop offset="1" stop-color="white" stop-opacity="0"/>
</linearGradient>
<linearGradient id="paint100_linear_1688_2249" x1="370" y1="10.5" x2="201" y2="188" gradientUnits="userSpaceOnUse">
<stop stop-color="white"/>
<stop offset="1" stop-color="white" stop-opacity="0"/>
</linearGradient>
<linearGradient id="paint101_linear_1688_2249" x1="370" y1="10.5" x2="201" y2="188" gradientUnits="userSpaceOnUse">
<stop stop-color="white"/>
<stop offset="1" stop-color="white" stop-opacity="0"/>
</linearGradient>
<linearGradient id="paint102_linear_1688_2249" x1="370" y1="10.5" x2="201" y2="188" gradientUnits="userSpaceOnUse">
<stop stop-color="white"/>
<stop offset="1" stop-color="white" stop-opacity="0"/>
</linearGradient>
<linearGradient id="paint103_linear_1688_2249" x1="370" y1="10.5" x2="201" y2="188" gradientUnits="userSpaceOnUse">
<stop stop-color="white"/>
<stop offset="1" stop-color="white" stop-opacity="0"/>
</linearGradient>
<linearGradient id="paint104_linear_1688_2249" x1="370" y1="10.5" x2="201" y2="188" gradientUnits="userSpaceOnUse">
<stop stop-color="white"/>
<stop offset="1" stop-color="white" stop-opacity="0"/>
</linearGradient>
<linearGradient id="paint105_linear_1688_2249" x1="370" y1="10.5" x2="201" y2="188" gradientUnits="userSpaceOnUse">
<stop stop-color="white"/>
<stop offset="1" stop-color="white" stop-opacity="0"/>
</linearGradient>
<linearGradient id="paint106_linear_1688_2249" x1="370" y1="10.5" x2="201" y2="188" gradientUnits="userSpaceOnUse">
<stop stop-color="white"/>
<stop offset="1" stop-color="white" stop-opacity="0"/>
</linearGradient>
<linearGradient id="paint107_linear_1688_2249" x1="370" y1="10.5" x2="201" y2="188" gradientUnits="userSpaceOnUse">
<stop stop-color="white"/>
<stop offset="1" stop-color="white" stop-opacity="0"/>
</linearGradient>
<linearGradient id="paint108_linear_1688_2249" x1="370" y1="10.5" x2="201" y2="188" gradientUnits="userSpaceOnUse">
<stop stop-color="white"/>
<stop offset="1" stop-color="white" stop-opacity="0"/>
</linearGradient>
<linearGradient id="paint109_linear_1688_2249" x1="370" y1="10.5" x2="201" y2="188" gradientUnits="userSpaceOnUse">
<stop stop-color="white"/>
<stop offset="1" stop-color="white" stop-opacity="0"/>
</linearGradient>
<linearGradient id="paint110_linear_1688_2249" x1="370" y1="10.5" x2="201" y2="188" gradientUnits="userSpaceOnUse">
<stop stop-color="white"/>
<stop offset="1" stop-color="white" stop-opacity="0"/>
</linearGradient>
<linearGradient id="paint111_linear_1688_2249" x1="370" y1="10.5" x2="201" y2="188" gradientUnits="userSpaceOnUse">
<stop stop-color="white"/>
<stop offset="1" stop-color="white" stop-opacity="0"/>
</linearGradient>
<linearGradient id="paint112_linear_1688_2249" x1="370" y1="10.5" x2="201" y2="188" gradientUnits="userSpaceOnUse">
<stop stop-color="white"/>
<stop offset="1" stop-color="white" stop-opacity="0"/>
</linearGradient>
<linearGradient id="paint113_linear_1688_2249" x1="370" y1="10.5" x2="201" y2="188" gradientUnits="userSpaceOnUse">
<stop stop-color="white"/>
<stop offset="1" stop-color="white" stop-opacity="0"/>
</linearGradient>
<linearGradient id="paint114_linear_1688_2249" x1="370" y1="10.5" x2="201" y2="188" gradientUnits="userSpaceOnUse">
<stop stop-color="white"/>
<stop offset="1" stop-color="white" stop-opacity="0"/>
</linearGradient>
<linearGradient id="paint115_linear_1688_2249" x1="370" y1="10.5" x2="201" y2="188" gradientUnits="userSpaceOnUse">
<stop stop-color="white"/>
<stop offset="1" stop-color="white" stop-opacity="0"/>
</linearGradient>
<linearGradient id="paint116_linear_1688_2249" x1="370" y1="10.5" x2="201" y2="188" gradientUnits="userSpaceOnUse">
<stop stop-color="white"/>
<stop offset="1" stop-color="white" stop-opacity="0"/>
</linearGradient>
<linearGradient id="paint117_linear_1688_2249" x1="370" y1="10.5" x2="201" y2="188" gradientUnits="userSpaceOnUse">
<stop stop-color="white"/>
<stop offset="1" stop-color="white" stop-opacity="0"/>
</linearGradient>
<linearGradient id="paint118_linear_1688_2249" x1="370" y1="10.5" x2="201" y2="188" gradientUnits="userSpaceOnUse">
<stop stop-color="white"/>
<stop offset="1" stop-color="white" stop-opacity="0"/>
</linearGradient>
<linearGradient id="paint119_linear_1688_2249" x1="370" y1="10.5" x2="201" y2="188" gradientUnits="userSpaceOnUse">
<stop stop-color="white"/>
<stop offset="1" stop-color="white" stop-opacity="0"/>
</linearGradient>
<linearGradient id="paint120_linear_1688_2249" x1="370" y1="10.5" x2="201" y2="188" gradientUnits="userSpaceOnUse">
<stop stop-color="white"/>
<stop offset="1" stop-color="white" stop-opacity="0"/>
</linearGradient>
<linearGradient id="paint121_linear_1688_2249" x1="370" y1="10.5" x2="201" y2="188" gradientUnits="userSpaceOnUse">
<stop stop-color="white"/>
<stop offset="1" stop-color="white" stop-opacity="0"/>
</linearGradient>
<linearGradient id="paint122_linear_1688_2249" x1="370" y1="10.5" x2="201" y2="188" gradientUnits="userSpaceOnUse">
<stop stop-color="white"/>
<stop offset="1" stop-color="white" stop-opacity="0"/>
</linearGradient>
<linearGradient id="paint123_linear_1688_2249" x1="370" y1="10.5" x2="201" y2="188" gradientUnits="userSpaceOnUse">
<stop stop-color="white"/>
<stop offset="1" stop-color="white" stop-opacity="0"/>
</linearGradient>
<linearGradient id="paint124_linear_1688_2249" x1="370" y1="10.5" x2="201" y2="188" gradientUnits="userSpaceOnUse">
<stop stop-color="white"/>
<stop offset="1" stop-color="white" stop-opacity="0"/>
</linearGradient>
<linearGradient id="paint125_linear_1688_2249" x1="370" y1="10.5" x2="201" y2="188" gradientUnits="userSpaceOnUse">
<stop stop-color="white"/>
<stop offset="1" stop-color="white" stop-opacity="0"/>
</linearGradient>
<linearGradient id="paint126_linear_1688_2249" x1="370" y1="10.5" x2="201" y2="188" gradientUnits="userSpaceOnUse">
<stop stop-color="white"/>
<stop offset="1" stop-color="white" stop-opacity="0"/>
</linearGradient>
<linearGradient id="paint127_linear_1688_2249" x1="370" y1="10.5" x2="201" y2="188" gradientUnits="userSpaceOnUse">
<stop stop-color="white"/>
<stop offset="1" stop-color="white" stop-opacity="0"/>
</linearGradient>
<linearGradient id="paint128_linear_1688_2249" x1="370" y1="10.5" x2="201" y2="188" gradientUnits="userSpaceOnUse">
<stop stop-color="white"/>
<stop offset="1" stop-color="white" stop-opacity="0"/>
</linearGradient>
<linearGradient id="paint129_linear_1688_2249" x1="370" y1="10.5" x2="201" y2="188" gradientUnits="userSpaceOnUse">
<stop stop-color="white"/>
<stop offset="1" stop-color="white" stop-opacity="0"/>
</linearGradient>
<linearGradient id="paint130_linear_1688_2249" x1="370" y1="10.5" x2="201" y2="188" gradientUnits="userSpaceOnUse">
<stop stop-color="white"/>
<stop offset="1" stop-color="white" stop-opacity="0"/>
</linearGradient>
<linearGradient id="paint131_linear_1688_2249" x1="370" y1="10.5" x2="201" y2="188" gradientUnits="userSpaceOnUse">
<stop stop-color="white"/>
<stop offset="1" stop-color="white" stop-opacity="0"/>
</linearGradient>
<linearGradient id="paint132_linear_1688_2249" x1="370" y1="10.5" x2="201" y2="188" gradientUnits="userSpaceOnUse">
<stop stop-color="white"/>
<stop offset="1" stop-color="white" stop-opacity="0"/>
</linearGradient>
<linearGradient id="paint133_linear_1688_2249" x1="370" y1="10.5" x2="201" y2="188" gradientUnits="userSpaceOnUse">
<stop stop-color="white"/>
<stop offset="1" stop-color="white" stop-opacity="0"/>
</linearGradient>
<linearGradient id="paint134_linear_1688_2249" x1="370" y1="10.5" x2="201" y2="188" gradientUnits="userSpaceOnUse">
<stop stop-color="white"/>
<stop offset="1" stop-color="white" stop-opacity="0"/>
</linearGradient>
<linearGradient id="paint135_linear_1688_2249" x1="370" y1="10.5" x2="201" y2="188" gradientUnits="userSpaceOnUse">
<stop stop-color="white"/>
<stop offset="1" stop-color="white" stop-opacity="0"/>
</linearGradient>
<linearGradient id="paint136_linear_1688_2249" x1="370" y1="10.5" x2="201" y2="188" gradientUnits="userSpaceOnUse">
<stop stop-color="white"/>
<stop offset="1" stop-color="white" stop-opacity="0"/>
</linearGradient>
<linearGradient id="paint137_linear_1688_2249" x1="370" y1="10.5" x2="201" y2="188" gradientUnits="userSpaceOnUse">
<stop stop-color="white"/>
<stop offset="1" stop-color="white" stop-opacity="0"/>
</linearGradient>
<linearGradient id="paint138_linear_1688_2249" x1="370" y1="10.5" x2="201" y2="188" gradientUnits="userSpaceOnUse">
<stop stop-color="white"/>
<stop offset="1" stop-color="white" stop-opacity="0"/>
</linearGradient>
<linearGradient id="paint139_linear_1688_2249" x1="370" y1="10.5" x2="201" y2="188" gradientUnits="userSpaceOnUse">
<stop stop-color="white"/>
<stop offset="1" stop-color="white" stop-opacity="0"/>
</linearGradient>
<linearGradient id="paint140_linear_1688_2249" x1="370" y1="10.5" x2="201" y2="188" gradientUnits="userSpaceOnUse">
<stop stop-color="white"/>
<stop offset="1" stop-color="white" stop-opacity="0"/>
</linearGradient>
<linearGradient id="paint141_linear_1688_2249" x1="370" y1="10.5" x2="201" y2="188" gradientUnits="userSpaceOnUse">
<stop stop-color="white"/>
<stop offset="1" stop-color="white" stop-opacity="0"/>
</linearGradient>
<linearGradient id="paint142_linear_1688_2249" x1="370" y1="10.5" x2="201" y2="188" gradientUnits="userSpaceOnUse">
<stop stop-color="white"/>
<stop offset="1" stop-color="white" stop-opacity="0"/>
</linearGradient>
<linearGradient id="paint143_linear_1688_2249" x1="370" y1="10.5" x2="201" y2="188" gradientUnits="userSpaceOnUse">
<stop stop-color="white"/>
<stop offset="1" stop-color="white" stop-opacity="0"/>
</linearGradient>
<linearGradient id="paint144_linear_1688_2249" x1="370" y1="10.5" x2="201" y2="188" gradientUnits="userSpaceOnUse">
<stop stop-color="white"/>
<stop offset="1" stop-color="white" stop-opacity="0"/>
</linearGradient>
<linearGradient id="paint145_linear_1688_2249" x1="370" y1="10.5" x2="201" y2="188" gradientUnits="userSpaceOnUse">
<stop stop-color="white"/>
<stop offset="1" stop-color="white" stop-opacity="0"/>
</linearGradient>
<linearGradient id="paint146_linear_1688_2249" x1="370" y1="10.5" x2="201" y2="188" gradientUnits="userSpaceOnUse">
<stop stop-color="white"/>
<stop offset="1" stop-color="white" stop-opacity="0"/>
</linearGradient>
<linearGradient id="paint147_linear_1688_2249" x1="370" y1="10.5" x2="201" y2="188" gradientUnits="userSpaceOnUse">
<stop stop-color="white"/>
<stop offset="1" stop-color="white" stop-opacity="0"/>
</linearGradient>
<linearGradient id="paint148_linear_1688_2249" x1="370" y1="10.5" x2="201" y2="188" gradientUnits="userSpaceOnUse">
<stop stop-color="white"/>
<stop offset="1" stop-color="white" stop-opacity="0"/>
</linearGradient>
<linearGradient id="paint149_linear_1688_2249" x1="370" y1="10.5" x2="201" y2="188" gradientUnits="userSpaceOnUse">
<stop stop-color="white"/>
<stop offset="1" stop-color="white" stop-opacity="0"/>
</linearGradient>
<linearGradient id="paint150_linear_1688_2249" x1="370" y1="10.5" x2="201" y2="188" gradientUnits="userSpaceOnUse">
<stop stop-color="white"/>
<stop offset="1" stop-color="white" stop-opacity="0"/>
</linearGradient>
<linearGradient id="paint151_linear_1688_2249" x1="370" y1="10.5" x2="201" y2="188" gradientUnits="userSpaceOnUse">
<stop stop-color="white"/>
<stop offset="1" stop-color="white" stop-opacity="0"/>
</linearGradient>
<linearGradient id="paint152_linear_1688_2249" x1="370" y1="10.5" x2="201" y2="188" gradientUnits="userSpaceOnUse">
<stop stop-color="white"/>
<stop offset="1" stop-color="white" stop-opacity="0"/>
</linearGradient>
<linearGradient id="paint153_linear_1688_2249" x1="370" y1="10.5" x2="201" y2="188" gradientUnits="userSpaceOnUse">
<stop stop-color="white"/>
<stop offset="1" stop-color="white" stop-opacity="0"/>
</linearGradient>
<linearGradient id="paint154_linear_1688_2249" x1="370" y1="10.5" x2="201" y2="188" gradientUnits="userSpaceOnUse">
<stop stop-color="white"/>
<stop offset="1" stop-color="white" stop-opacity="0"/>
</linearGradient>
</defs>
</svg>
