<svg width="40" height="40" viewBox="0 0 40 40" fill="none" xmlns="http://www.w3.org/2000/svg">
<path fillRule="evenodd" clipRule="evenodd" d="M22.2347 34.5833C22.2347 33.8929 22.7943 33.3333 23.4847 33.3333H24.9999C25.7269 33.3333 26.391 33.3332 27.0039 33.328C27.6942 33.322 28.2587 33.8768 28.2646 34.5671C28.2706 35.2575 27.7158 35.8219 27.0255 35.8279C26.4008 35.8333 25.7265 35.8333 25.0034 35.8333H23.4847C22.7943 35.8333 22.2347 35.2736 22.2347 34.5833ZM22.2347 4.58325C22.2347 3.8929 22.7943 3.33325 23.4847 3.33325L25.0037 3.33325C25.7266 3.33325 26.4008 3.33325 27.0255 3.33864C27.7158 3.3446 28.2706 3.90905 28.2646 4.59938C28.2587 5.28971 27.6942 5.8445 27.0039 5.83855C26.391 5.83326 25.7269 5.83325 24.9999 5.83325H23.4847C22.7943 5.83325 22.2347 5.27361 22.2347 4.58325ZM30.6185 34.4922C30.4136 33.833 30.7819 33.1325 31.4412 32.9276C31.9765 32.7612 32.3491 32.5373 32.6515 32.2349C32.954 31.9325 33.1778 31.5599 33.3442 31.0246C33.5491 30.3653 34.2496 29.997 34.9088 30.2019C35.5681 30.4068 35.9364 31.1073 35.7316 31.7665C35.4646 32.6255 35.0519 33.37 34.4193 34.0027C33.7866 34.6353 33.0421 35.048 32.1831 35.315C31.5239 35.5198 30.8234 35.1515 30.6185 34.4922ZM30.6185 4.67426C30.8234 4.015 31.5239 3.64666 32.1831 3.85155C33.0421 4.11851 33.7866 4.53119 34.4193 5.16383C35.0519 5.79648 35.4646 6.54096 35.7316 7.39995C35.9364 8.0592 35.5681 8.75973 34.9089 8.96461C34.2496 9.1695 33.5491 8.80116 33.3442 8.14191C33.1778 7.6066 32.954 7.23405 32.6515 6.9316C32.3491 6.62915 31.9765 6.40528 31.4412 6.23891C30.7819 6.03403 30.4136 5.33351 30.6185 4.67426ZM34.9837 27.848C34.2934 27.8421 33.7386 27.2776 33.7446 26.5873C33.7498 25.9744 33.7499 25.3103 33.7499 24.5833V22.3105C33.7499 21.6202 34.3095 21.0605 34.9999 21.0605C35.6902 21.0605 36.2499 21.6202 36.2499 22.3105V24.5871C36.2499 25.31 36.2499 25.9842 36.2445 26.6089C36.2385 27.2992 35.6741 27.854 34.9837 27.848ZM34.9837 11.3185C35.6741 11.3125 36.2385 11.8673 36.2445 12.5576C36.2499 13.1823 36.2499 13.8565 36.2499 14.5794V16.856C36.2499 17.5463 35.6902 18.106 34.9999 18.106C34.3095 18.106 33.7499 17.5463 33.7499 16.856V14.5833C33.7499 13.8562 33.7498 13.1921 33.7446 12.5792C33.7386 11.8889 34.2934 11.3244 34.9837 11.3185Z" fill="#573CFF"/>
<path d="M5 17.9166L5 21.2499C5 27.5353 5 30.678 6.95262 32.6306C8.77368 34.4517 13.0795 34.575 18.75 34.5833C18.75 35.2736 19.3096 35.8333 20 35.8333C20.6904 35.8333 21.25 35.2736 21.25 34.5833L21.25 4.58325C21.25 3.8929 20.6904 3.33325 20 3.33325C19.3096 3.33325 18.75 3.8929 18.75 4.58325C13.0795 4.59152 8.77368 4.71482 6.95262 6.53588C5 8.4885 5 11.6312 5 17.9166Z" fill="#573CFF"/>
</svg>
