<svg width="40" height="40" viewBox="0 0 40 40" fill="none" xmlns="http://www.w3.org/2000/svg">
<path fillRule="evenodd" clipRule="evenodd" d="M4.62331 20.8022C5.11705 21.2966 5.11656 22.0975 4.62223 22.5913L4.36281 22.8504C4.14123 23.0717 4.14123 23.4299 4.36281 23.6512C4.58525 23.8733 4.94652 23.8733 5.16896 23.6512L8.0225 20.8011C8.51683 20.3074 9.31783 20.3079 9.81156 20.8022C10.3053 21.2966 10.3048 22.0975 9.81047 22.5913L6.95694 25.4413C5.74668 26.6501 3.7851 26.6501 2.57484 25.4413C1.36373 24.2317 1.36373 22.2699 2.57484 21.0602L2.83425 20.8011C3.32859 20.3074 4.12958 20.3079 4.62331 20.8022ZM12.8109 22.4827C13.305 22.9767 13.305 23.7777 12.8109 24.2717L9.24024 27.8424C8.7462 28.3364 7.94521 28.3364 7.45118 27.8424C6.95714 27.3483 6.95714 26.5473 7.45118 26.0533L11.0219 22.4827C11.5159 21.9886 12.3169 21.9886 12.8109 22.4827ZM17.4928 27.1588C17.9869 27.6529 17.9869 28.4538 17.4928 28.9479L13.9466 32.4941C13.4525 32.9881 12.6515 32.9881 12.1575 32.4941C11.6635 32.0001 11.6635 31.1991 12.1575 30.7051L15.7038 27.1588C16.1978 26.6648 16.9988 26.6648 17.4928 27.1588ZM12.1618 27.8265C12.6503 28.326 12.6414 29.127 12.1419 29.6155L9.2583 32.4356C8.7588 32.9241 7.95785 32.9152 7.46935 32.4157C6.98084 31.9162 6.98975 31.1152 7.48925 30.6267L10.3729 27.8066C10.8724 27.3181 11.6733 27.327 12.1618 27.8265ZM19.135 30.1966C19.6288 30.691 19.6283 31.492 19.1339 31.9857L16.2804 34.8357C16.0588 35.057 16.0588 35.4152 16.2804 35.6365C16.5028 35.8587 16.8641 35.8587 17.0866 35.6365L17.346 35.3774C17.8403 34.8837 18.6413 34.8842 19.135 35.3785C19.6288 35.8729 19.6283 36.6738 19.1339 37.1676L18.8745 37.4267C17.6643 38.6354 15.7027 38.6354 14.4924 37.4267C13.2813 36.217 13.2813 34.2552 14.4924 33.0456L17.346 30.1956C17.8403 29.7018 18.6413 29.7023 19.135 30.1966Z" fill="#573CFF"/>
<path d="M18.0771 9.01511L14.4309 12.6503C13.7607 13.3185 13.1459 13.9314 12.6604 14.4854C12.3486 14.8413 12.037 15.2307 11.7731 15.661L11.7375 15.6256C11.6701 15.5584 11.6363 15.5247 11.6025 15.4918C10.9687 14.8769 10.2233 14.388 9.40597 14.0513C9.3623 14.0333 9.31797 14.0158 9.22932 13.9806L8.68644 13.7655C7.95099 13.4741 7.75498 12.5273 8.3146 11.9694C9.92067 10.3682 11.849 8.44577 12.7796 8.05965C13.6003 7.71912 14.4869 7.60582 15.342 7.73218C16.1255 7.84797 16.8667 8.25041 18.0771 9.01511Z" fill="#573CFF"/>
<path d="M24.3029 28.1553C24.5967 28.4535 24.7918 28.6642 24.9682 28.8892C25.201 29.1862 25.4091 29.5017 25.5905 29.8324C25.7948 30.2047 25.9533 30.6024 26.2704 31.3979C26.5285 32.0454 27.3861 32.2166 27.8841 31.72L28.0046 31.5998C29.6107 29.9986 31.5389 28.0761 31.9262 27.1483C32.2678 26.33 32.3814 25.4461 32.2547 24.5936C32.1386 23.8126 31.735 23.0737 30.9682 21.8672L27.3098 25.5146C26.6244 26.1979 25.996 26.8245 25.4276 27.3154C25.087 27.6095 24.7143 27.9036 24.3029 28.1553Z" fill="#573CFF"/>
<path fillRule="evenodd" clipRule="evenodd" d="M25.8369 23.9456L34.2197 15.5881C35.427 14.3844 36.0306 13.7826 36.3486 13.0174C36.6665 12.2521 36.6665 11.401 36.6665 9.69887V8.88568C36.6665 6.26824 36.6665 4.95952 35.8509 4.14639C35.0353 3.33325 33.7226 3.33325 31.0973 3.33325H30.2817C28.5744 3.33325 27.7207 3.33325 26.9531 3.65024C26.1855 3.96723 25.5819 4.56904 24.3747 5.77265L15.9919 14.1302C14.5812 15.5366 13.7065 16.4087 13.3678 17.251C13.2608 17.5171 13.2073 17.7803 13.2073 18.0564C13.2073 19.2063 14.1355 20.1317 15.9919 21.9825L16.2414 22.2313L19.1641 19.265C19.5809 18.842 20.2617 18.837 20.6847 19.2538C21.1077 19.6706 21.1128 20.3514 20.696 20.7744L17.7644 23.7497L17.9609 23.9456C19.8173 25.7964 20.7455 26.7218 21.8989 26.7218C22.1538 26.7218 22.3976 26.6766 22.6429 26.5863C23.5078 26.2677 24.3907 25.3875 25.8369 23.9456ZM29.7751 14.1308C28.6877 15.215 26.9246 15.215 25.8371 14.1308C24.7497 13.0466 24.7497 11.2888 25.8371 10.2047C26.9246 9.12047 28.6877 9.12047 29.7751 10.2047C30.8626 11.2888 30.8626 13.0466 29.7751 14.1308Z" fill="#573CFF"/>
</svg>
