<svg width="40" height="40" viewBox="0 0 40 40" fill="none" xmlns="http://www.w3.org/2000/svg">
<path d="M8.3335 36.6666H31.6668C34.4283 36.6666 36.6668 34.428 36.6668 31.6666V29.1666C36.6668 28.2461 35.9206 27.4999 35.0002 27.4999H27.7779C27.0567 27.4999 26.3549 27.7338 25.7779 28.1666L24.2224 29.3333C23.6454 29.766 22.9436 29.9999 22.2224 29.9999H17.7779C17.0567 29.9999 16.3549 29.766 15.7779 29.3333L14.2224 28.1666C13.6454 27.7338 12.9436 27.4999 12.2224 27.4999H5.00016C4.07969 27.4999 3.3335 28.2461 3.3335 29.1666V31.6666C3.3335 34.428 5.57207 36.6666 8.3335 36.6666Z" fill="#573CFF"/>
<path d="M15.8335 3.33325H24.1668C28.8809 3.33325 31.2379 3.33325 32.7024 4.79772C34.1668 6.26218 34.1668 8.61921 34.1668 13.3333V24.9999H27.7779C26.5158 24.9999 25.2877 25.4093 24.2779 26.1666L22.7224 27.3333C22.5781 27.4414 22.4027 27.4999 22.2224 27.4999H17.7779C17.5976 27.4999 17.4222 27.4414 17.2779 27.3333L15.7224 26.1666C14.7127 25.4093 13.4845 24.9999 12.2224 24.9999H5.8335V13.3333C5.8335 8.61921 5.8335 6.26218 7.29796 4.79772C8.76243 3.33325 11.1195 3.33325 15.8335 3.33325Z" fill="#573CFF"/>
</svg>
