<svg width="40" height="40" viewBox="0 0 40 40" fill="none" xmlns="http://www.w3.org/2000/svg">
<path d="M3.3335 24.1666C3.3335 21.8258 3.3335 20.6554 3.89526 19.8147C4.13846 19.4507 4.45096 19.1382 4.81493 18.895C5.65567 18.3333 6.82606 18.3333 9.16683 18.3333C11.5076 18.3333 12.678 18.3333 13.5187 18.895C13.8827 19.1382 14.1952 19.4507 14.4384 19.8147C15.0002 20.6554 15.0002 21.8258 15.0002 24.1666V30.8333C15.0002 33.174 15.0002 34.3444 14.4384 35.1852C14.1952 35.5491 13.8827 35.8616 13.5187 36.1048C12.678 36.6666 11.5076 36.6666 9.16683 36.6666C6.82606 36.6666 5.65567 36.6666 4.81493 36.1048C4.45096 35.8616 4.13846 35.5491 3.89526 35.1852C3.3335 34.3444 3.3335 33.174 3.3335 30.8333V24.1666Z" fill="#573CFF"/>
<path fillRule="evenodd" clipRule="evenodd" d="M36.6668 16.6666V23.3333C36.6668 29.6186 36.6668 32.7613 34.7142 34.714C32.7616 36.6666 29.6189 36.6666 23.3335 36.6666C20.5017 36.6666 18.3078 36.6666 16.5733 36.488C17.1313 35.6133 17.3297 34.6844 17.4171 33.8247C17.5004 33.0064 17.5003 32.019 17.5002 30.9433L17.5002 30.8333V24.1666L17.5002 24.0565C17.5003 22.9809 17.5004 21.9935 17.4171 21.1751C17.3268 20.2872 17.1182 19.3254 16.5171 18.4258C16.0915 17.7888 15.5446 17.2419 14.9077 16.8163C14.008 16.2152 13.0463 16.0066 12.1583 15.9163C11.5272 15.8521 10.7955 15.8375 10.0003 15.8342C10.0041 10.0998 10.0883 7.15032 11.9528 5.28587C13.9054 3.33325 17.0481 3.33325 23.3335 3.33325C29.6189 3.33325 32.7616 3.33325 34.7142 5.28587C36.6668 7.2385 36.6668 10.3812 36.6668 16.6666ZM18.7502 31.6666C18.7502 30.9762 19.3098 30.4166 20.0002 30.4166H28.3335C29.0239 30.4166 29.5835 30.9762 29.5835 31.6666C29.5835 32.3569 29.0239 32.9166 28.3335 32.9166H20.0002C19.3098 32.9166 18.7502 32.3569 18.7502 31.6666Z" fill="#573CFF"/>
</svg>
