<svg width="40" height="40" viewBox="0 0 40 40" fill="none" xmlns="http://www.w3.org/2000/svg">
<path d="M6.74245 9.1527L9.15294 6.7422C11.4256 4.46957 12.5619 3.33325 13.9739 3.33325C15.386 3.33325 16.5223 4.46957 18.7949 6.7422L14.7774 10.7597L6.74245 18.7947L6.74243 18.7947C4.46981 16.522 3.3335 15.3857 3.3335 13.9737C3.3335 12.5617 4.46981 11.4253 6.74244 9.15271L6.74245 9.1527Z" fill="#573CFF"/>
<path d="M33.2579 30.8471L30.8474 33.2576C28.5748 35.5303 27.4384 36.6666 26.0264 36.6666C24.6144 36.6666 23.4781 35.5303 21.2054 33.2577L21.2054 33.2576L29.2404 25.2227L33.2579 21.2052C35.5305 23.4778 36.6668 24.6141 36.6668 26.0261C36.6668 27.4382 35.5305 28.5745 33.2579 30.8471Z" fill="#573CFF"/>
<path d="M19.0003 30.2686L19.0003 30.2685L31.3268 17.9421C29.6491 17.2439 27.6621 16.0969 25.7829 14.2177C23.9034 12.3382 22.7564 10.3509 22.0582 8.67309L9.73154 20.9998L9.73151 20.9998C8.76961 21.9617 8.28862 22.4427 7.87499 22.973C7.38705 23.5986 6.96872 24.2754 6.6274 24.9916C6.33805 25.5988 6.12296 26.244 5.69276 27.5346L3.42424 34.3402C3.21254 34.9753 3.37784 35.6755 3.85121 36.1489C4.32459 36.6222 5.0248 36.7875 5.6599 36.5758L12.4655 34.3073C13.756 33.8771 14.4013 33.662 15.0085 33.3727C15.7246 33.0314 16.4015 32.613 17.0271 32.1251C17.5574 31.7115 18.0384 31.2305 19.0003 30.2686Z" fill="#573CFF"/>
<path d="M34.7472 14.5217C37.3067 11.9622 37.3067 7.81239 34.7472 5.25288C32.1877 2.69338 28.0379 2.69338 25.4784 5.25288L24 6.73128C24.0202 6.79241 24.0412 6.85439 24.063 6.91718C24.6049 8.47908 25.6273 10.5266 27.5507 12.45C29.474 14.3733 31.5216 15.3957 33.0835 15.9376C33.146 15.9593 33.2077 15.9802 33.2685 16.0004L34.7472 14.5217Z" fill="#573CFF"/>
</svg>
