<svg width="40" height="40" viewBox="0 0 40 40" fill="none" xmlns="http://www.w3.org/2000/svg">
<path d="M8.29821 16.1419C4.9884 14.818 3.3335 14.156 3.3335 13.3334C3.3335 12.5108 4.9884 11.8489 8.29821 10.5249L12.979 8.65263C16.2888 7.32871 17.9437 6.66675 20.0002 6.66675C22.0566 6.66675 23.7115 7.32871 27.0213 8.65263L31.7021 10.5249C35.0119 11.8489 36.6668 12.5108 36.6668 13.3334C36.6668 14.156 35.0119 14.818 31.7021 16.1419L27.0213 18.0142C23.7115 19.3381 22.0566 20.0001 20.0002 20.0001C17.9437 20.0001 16.2888 19.3381 12.979 18.0142L8.29821 16.1419Z" fill="#0E172B"/>
<path fillRule="evenodd" clipRule="evenodd" d="M3.3335 13.3334C3.3335 14.156 4.9884 14.818 8.29821 16.1419L12.979 18.0142C16.2888 19.3381 17.9437 20.0001 20.0002 20.0001C22.0566 20.0001 23.7115 19.3381 27.0213 18.0142L31.7021 16.1419C35.0119 14.818 36.6668 14.156 36.6668 13.3334C36.6668 12.5108 35.0119 11.8489 31.7021 10.5249L27.0213 8.65263C23.7115 7.32871 22.0566 6.66675 20.0002 6.66675C17.9437 6.66675 16.2888 7.32871 12.979 8.65263L8.29821 10.5249C4.9884 11.8489 3.3335 12.5108 3.3335 13.3334Z" fill="#573CFF"/>
<path d="M31.7021 22.8085L27.0213 24.6809C23.7115 26.0048 22.0566 26.6667 20.0002 26.6667C17.9437 26.6667 16.2888 26.0048 12.979 24.6809L8.29821 22.8085C4.9884 21.4846 3.3335 20.8227 3.3335 20.0001C3.3335 19.2586 4.67818 18.6476 7.36755 17.5647L12.6025 19.6587C15.6836 20.8918 17.6201 21.6667 20.0002 21.6667C22.3802 21.6667 24.3167 20.8918 27.3978 19.6587L32.6328 17.5647C35.3221 18.6476 36.6668 19.2586 36.6668 20.0001C36.6668 20.8227 35.0119 21.4846 31.7021 22.8085Z" fill="#573CFF"/>
<path d="M31.7021 29.4749L27.0213 31.3472C23.7115 32.6712 22.0566 33.3331 20.0002 33.3331C17.9437 33.3331 16.2888 32.6712 12.979 31.3472L8.29821 29.4749C4.9884 28.151 3.3335 27.489 3.3335 26.6665C3.3335 25.925 4.67818 25.314 7.36755 24.231L12.6025 26.3251C15.6836 27.5581 17.6201 28.3331 20.0002 28.3331C22.3802 28.3331 24.3167 27.5581 27.3978 26.3251L32.6328 24.231C35.3221 25.314 36.6668 25.925 36.6668 26.6665C36.6668 27.489 35.0119 28.151 31.7021 29.4749Z" fill="#573CFF"/>
</svg>
