<svg width="484" height="400" viewBox="0 0 484 400" fill="none" xmlns="http://www.w3.org/2000/svg">
<mask id="mask0_1859_950" style="mask-type:alpha" maskUnits="userSpaceOnUse" x="0" y="0" width="484" height="400">
<rect width="484" height="400" rx="15" fill="#77D1F3"/>
</mask>
<g mask="url(#mask0_1859_950)">
<rect opacity="0.2" width="484" height="400" rx="15" fill="#77D1F3"/>
<rect x="40" y="40" width="404" height="320" rx="15" fill="url(#paint0_linear_1859_950)"/>
<g filter="url(#filter0_d_1859_950)">
<rect x="54" y="54" width="140" height="292" rx="9" fill="white"/>
</g>
<rect x="68" y="68" width="75" height="15" rx="7.5" fill="#F3F4F6"/>
<rect x="68" y="132" width="95" height="7" rx="3.5" fill="#F3F4F6"/>
<rect x="68" y="145" width="73" height="7" rx="3.5" fill="#F3F4F6"/>
<rect x="68" y="159" width="83" height="7" rx="3.5" fill="#F3F4F6"/>
<rect x="68" y="200" width="83" height="7" rx="3.5" fill="#F3F4F6"/>
<rect x="68" y="173" width="52" height="7" rx="3.5" fill="#F3F4F6"/>
<rect x="68" y="214" width="52" height="7" rx="3.5" fill="#F3F4F6"/>
<rect x="68" y="187" width="65" height="7" rx="3.5" fill="#F3F4F6"/>
<rect x="68" y="228" width="65" height="7" rx="3.5" fill="#F3F4F6"/>
<rect x="101" y="313" width="48" height="4" rx="2" fill="#F3F4F6"/>
<rect x="101" y="320" width="36" height="4" rx="2" fill="#F3F4F6"/>
<rect x="68" y="306" width="26" height="26" rx="13" fill="#F3F4F6"/>
<g filter="url(#filter1_d_1859_950)">
<rect x="208" y="54" width="222" height="210" rx="9" fill="white"/>
</g>
<path d="M229.584 228H228.121L231.025 219.959H232.466L235.37 228H233.885L233.236 226.141H230.233L229.584 228ZM231.564 222.357L230.651 224.953H232.829L231.905 222.357C231.839 222.148 231.762 221.906 231.74 221.741C231.707 221.895 231.641 222.137 231.564 222.357ZM237.522 228H236.18V222.566H237.423L237.533 223.27C237.874 222.72 238.534 222.401 239.271 222.401C240.635 222.401 241.339 223.248 241.339 224.656V228H239.997V224.975C239.997 224.062 239.546 223.622 238.853 223.622C238.028 223.622 237.522 224.194 237.522 225.074V228ZM244.275 228.143C243.12 228.143 242.416 227.472 242.416 226.449C242.416 225.448 243.142 224.821 244.429 224.722L246.057 224.601V224.48C246.057 223.743 245.617 223.446 244.935 223.446C244.143 223.446 243.703 223.776 243.703 224.348H242.559C242.559 223.171 243.527 222.401 245.001 222.401C246.464 222.401 247.366 223.193 247.366 224.7V228H246.189L246.09 227.197C245.859 227.758 245.122 228.143 244.275 228.143ZM244.715 227.131C245.54 227.131 246.068 226.636 246.068 225.8V225.514L244.935 225.602C244.099 225.679 243.78 225.954 243.78 226.394C243.78 226.889 244.11 227.131 244.715 227.131ZM250.037 228H248.706V219.816H250.037V228ZM250.972 230.519V229.397H251.775C252.303 229.397 252.633 229.276 252.864 228.638L253.018 228.231L250.829 222.566H252.248L253.645 226.526L255.119 222.566H256.505L253.843 229.21C253.436 230.222 252.864 230.64 251.973 230.64C251.599 230.64 251.269 230.596 250.972 230.519ZM259.115 228H257.773V223.688H256.728V222.566H257.773V220.872H259.115V222.566H260.171V223.688H259.115V228ZM261.677 221.477C261.215 221.477 260.852 221.114 260.852 220.663C260.852 220.212 261.215 219.86 261.677 219.86C262.117 219.86 262.48 220.212 262.48 220.663C262.48 221.114 262.117 221.477 261.677 221.477ZM261.006 228V222.566H262.348V228H261.006ZM263.415 225.272C263.415 223.589 264.526 222.401 266.132 222.401C267.617 222.401 268.629 223.226 268.772 224.535H267.43C267.276 223.919 266.825 223.6 266.187 223.6C265.329 223.6 264.757 224.249 264.757 225.272C264.757 226.295 265.285 226.933 266.143 226.933C266.814 226.933 267.287 226.603 267.43 226.009H268.783C268.618 227.274 267.562 228.143 266.143 228.143C264.493 228.143 263.415 226.999 263.415 225.272ZM269.364 226.35H270.64C270.651 226.823 271.003 227.12 271.619 227.12C272.246 227.12 272.587 226.867 272.587 226.471C272.587 226.196 272.444 225.998 271.96 225.888L270.981 225.657C270.002 225.437 269.529 224.975 269.529 224.106C269.529 223.039 270.431 222.401 271.685 222.401C272.906 222.401 273.731 223.105 273.742 224.161H272.466C272.455 223.699 272.147 223.402 271.63 223.402C271.102 223.402 270.794 223.644 270.794 224.051C270.794 224.359 271.036 224.557 271.498 224.667L272.477 224.898C273.39 225.107 273.852 225.525 273.852 226.361C273.852 227.461 272.917 228.143 271.575 228.143C270.222 228.143 269.364 227.417 269.364 226.35Z" fill="#0E172B"/>
<path d="M228.705 241V235.182H229.409V240.375H232.114V241H228.705ZM234.943 241.091C234.523 241.091 234.16 240.998 233.855 240.812C233.552 240.625 233.318 240.364 233.153 240.028C232.991 239.691 232.909 239.299 232.909 238.852C232.909 238.405 232.991 238.011 233.153 237.67C233.318 237.328 233.547 237.061 233.841 236.869C234.136 236.676 234.481 236.58 234.875 236.58C235.102 236.58 235.327 236.617 235.548 236.693C235.77 236.769 235.972 236.892 236.153 237.062C236.335 237.231 236.48 237.455 236.588 237.733C236.696 238.011 236.75 238.354 236.75 238.761V239.045H233.386V238.466H236.068C236.068 238.22 236.019 238 235.92 237.807C235.824 237.614 235.686 237.461 235.506 237.349C235.328 237.238 235.117 237.182 234.875 237.182C234.608 237.182 234.377 237.248 234.182 237.381C233.989 237.511 233.84 237.682 233.736 237.892C233.632 238.102 233.58 238.328 233.58 238.568V238.955C233.58 239.284 233.636 239.563 233.75 239.793C233.866 240.02 234.026 240.193 234.23 240.312C234.435 240.43 234.672 240.489 234.943 240.489C235.119 240.489 235.278 240.464 235.42 240.415C235.564 240.364 235.688 240.288 235.793 240.188C235.897 240.085 235.977 239.958 236.034 239.807L236.682 239.989C236.614 240.208 236.499 240.402 236.338 240.568C236.177 240.733 235.978 240.862 235.741 240.955C235.505 241.045 235.239 241.091 234.943 241.091ZM239.054 241.102C238.777 241.102 238.527 241.05 238.301 240.946C238.076 240.84 237.897 240.688 237.764 240.489C237.632 240.288 237.565 240.045 237.565 239.761C237.565 239.511 237.615 239.309 237.713 239.153C237.812 238.996 237.943 238.873 238.108 238.784C238.273 238.695 238.455 238.629 238.653 238.585C238.854 238.54 239.056 238.504 239.259 238.477C239.524 238.443 239.739 238.418 239.903 238.401C240.07 238.382 240.191 238.35 240.267 238.307C240.345 238.263 240.384 238.187 240.384 238.08V238.057C240.384 237.777 240.307 237.559 240.153 237.403C240.002 237.248 239.772 237.17 239.463 237.17C239.143 237.17 238.892 237.241 238.71 237.381C238.528 237.521 238.401 237.67 238.327 237.83L237.69 237.602C237.804 237.337 237.955 237.131 238.145 236.983C238.336 236.833 238.545 236.729 238.77 236.67C238.997 236.61 239.221 236.58 239.44 236.58C239.58 236.58 239.741 236.597 239.923 236.631C240.107 236.663 240.284 236.73 240.455 236.832C240.627 236.935 240.77 237.089 240.884 237.295C240.997 237.502 241.054 237.778 241.054 238.125V241H240.384V240.409H240.349C240.304 240.504 240.228 240.605 240.122 240.713C240.016 240.821 239.875 240.913 239.699 240.989C239.523 241.064 239.308 241.102 239.054 241.102ZM239.156 240.5C239.421 240.5 239.645 240.448 239.827 240.344C240.01 240.24 240.149 240.105 240.241 239.94C240.336 239.776 240.384 239.602 240.384 239.42V238.807C240.355 238.841 240.293 238.872 240.196 238.901C240.101 238.927 239.991 238.951 239.866 238.972C239.743 238.991 239.623 239.008 239.506 239.023C239.39 239.036 239.296 239.047 239.224 239.057C239.05 239.08 238.887 239.116 238.736 239.168C238.586 239.217 238.465 239.292 238.372 239.392C238.281 239.491 238.236 239.625 238.236 239.795C238.236 240.028 238.322 240.205 238.494 240.324C238.669 240.441 238.889 240.5 239.156 240.5ZM242.278 241V236.636H242.925V237.295H242.971C243.05 237.08 243.194 236.904 243.403 236.77C243.611 236.635 243.846 236.568 244.107 236.568C244.156 236.568 244.218 236.569 244.292 236.571C244.366 236.573 244.422 236.576 244.46 236.58V237.261C244.437 237.256 244.385 237.247 244.303 237.236C244.224 237.223 244.139 237.216 244.05 237.216C243.838 237.216 243.649 237.26 243.482 237.349C243.317 237.437 243.187 237.558 243.09 237.713C242.996 237.866 242.948 238.042 242.948 238.239V241H242.278ZM245.925 238.375V241H245.254V236.636H245.902V237.318H245.959C246.061 237.097 246.216 236.919 246.425 236.784C246.633 236.648 246.902 236.58 247.232 236.58C247.527 236.58 247.786 236.64 248.007 236.761C248.229 236.881 248.401 237.062 248.524 237.307C248.647 237.549 248.709 237.856 248.709 238.227V241H248.038V238.273C248.038 237.93 247.949 237.663 247.771 237.472C247.593 237.278 247.349 237.182 247.038 237.182C246.824 237.182 246.633 237.228 246.464 237.321C246.298 237.414 246.166 237.549 246.07 237.727C245.973 237.905 245.925 238.121 245.925 238.375ZM253.468 241.102C253.192 241.102 252.941 241.05 252.715 240.946C252.49 240.84 252.311 240.688 252.178 240.489C252.046 240.288 251.979 240.045 251.979 239.761C251.979 239.511 252.029 239.309 252.127 239.153C252.226 238.996 252.357 238.873 252.522 238.784C252.687 238.695 252.869 238.629 253.067 238.585C253.268 238.54 253.47 238.504 253.673 238.477C253.938 238.443 254.153 238.418 254.317 238.401C254.484 238.382 254.605 238.35 254.681 238.307C254.759 238.263 254.798 238.187 254.798 238.08V238.057C254.798 237.777 254.721 237.559 254.567 237.403C254.416 237.248 254.186 237.17 253.877 237.17C253.557 237.17 253.306 237.241 253.124 237.381C252.942 237.521 252.815 237.67 252.741 237.83L252.104 237.602C252.218 237.337 252.37 237.131 252.559 236.983C252.75 236.833 252.959 236.729 253.184 236.67C253.411 236.61 253.635 236.58 253.854 236.58C253.995 236.58 254.156 236.597 254.337 236.631C254.521 236.663 254.698 236.73 254.869 236.832C255.041 236.935 255.184 237.089 255.298 237.295C255.411 237.502 255.468 237.778 255.468 238.125V241H254.798V240.409H254.763C254.718 240.504 254.642 240.605 254.536 240.713C254.43 240.821 254.289 240.913 254.113 240.989C253.937 241.064 253.722 241.102 253.468 241.102ZM253.57 240.5C253.835 240.5 254.059 240.448 254.241 240.344C254.424 240.24 254.563 240.105 254.656 239.94C254.75 239.776 254.798 239.602 254.798 239.42V238.807C254.769 238.841 254.707 238.872 254.61 238.901C254.515 238.927 254.406 238.951 254.281 238.972C254.157 238.991 254.037 239.008 253.92 239.023C253.804 239.036 253.71 239.047 253.638 239.057C253.464 239.08 253.301 239.116 253.15 239.168C253 239.217 252.879 239.292 252.786 239.392C252.695 239.491 252.65 239.625 252.65 239.795C252.65 240.028 252.736 240.205 252.908 240.324C253.083 240.441 253.303 240.5 253.57 240.5ZM257.362 238.375V241H256.692V236.636H257.339V237.318H257.396C257.499 237.097 257.654 236.919 257.862 236.784C258.071 236.648 258.339 236.58 258.669 236.58C258.964 236.58 259.223 236.64 259.445 236.761C259.666 236.881 259.839 237.062 259.962 237.307C260.085 237.549 260.146 237.856 260.146 238.227V241H259.476V238.273C259.476 237.93 259.387 237.663 259.209 237.472C259.031 237.278 258.786 237.182 258.476 237.182C258.262 237.182 258.071 237.228 257.902 237.321C257.735 237.414 257.604 237.549 257.507 237.727C257.411 237.905 257.362 238.121 257.362 238.375ZM263.019 241.091C262.656 241.091 262.335 240.999 262.056 240.815C261.778 240.63 261.56 240.368 261.403 240.031C261.246 239.692 261.167 239.292 261.167 238.83C261.167 238.371 261.246 237.973 261.403 237.636C261.56 237.299 261.779 237.039 262.059 236.855C262.339 236.671 262.663 236.58 263.031 236.58C263.315 236.58 263.539 236.627 263.704 236.722C263.871 236.814 263.997 236.92 264.085 237.04C264.174 237.157 264.243 237.254 264.292 237.33H264.349V235.182H265.019V241H264.371V240.33H264.292C264.243 240.409 264.173 240.509 264.082 240.631C263.991 240.75 263.861 240.857 263.692 240.952C263.524 241.045 263.299 241.091 263.019 241.091ZM263.11 240.489C263.379 240.489 263.606 240.419 263.792 240.278C263.978 240.136 264.119 239.94 264.215 239.69C264.312 239.438 264.36 239.148 264.36 238.818C264.36 238.492 264.313 238.207 264.218 237.963C264.123 237.717 263.983 237.526 263.798 237.389C263.612 237.251 263.383 237.182 263.11 237.182C262.826 237.182 262.589 237.255 262.4 237.401C262.212 237.545 262.071 237.741 261.977 237.989C261.884 238.235 261.837 238.511 261.837 238.818C261.837 239.129 261.885 239.411 261.979 239.665C262.076 239.917 262.218 240.117 262.406 240.267C262.595 240.415 262.83 240.489 263.11 240.489ZM271.681 237.614L271.079 237.784C271.041 237.684 270.985 237.586 270.911 237.491C270.839 237.395 270.741 237.315 270.616 237.253C270.491 237.19 270.331 237.159 270.136 237.159C269.869 237.159 269.646 237.221 269.468 237.344C269.292 237.465 269.204 237.619 269.204 237.807C269.204 237.973 269.264 238.105 269.386 238.202C269.507 238.298 269.696 238.379 269.954 238.443L270.602 238.602C270.992 238.697 271.282 238.842 271.474 239.037C271.665 239.23 271.761 239.479 271.761 239.784C271.761 240.034 271.689 240.258 271.545 240.455C271.403 240.652 271.204 240.807 270.948 240.92C270.692 241.034 270.395 241.091 270.056 241.091C269.611 241.091 269.243 240.994 268.951 240.801C268.659 240.608 268.475 240.326 268.397 239.955L269.033 239.795C269.094 240.03 269.209 240.206 269.377 240.324C269.548 240.441 269.77 240.5 270.045 240.5C270.357 240.5 270.605 240.434 270.789 240.301C270.975 240.167 271.067 240.006 271.067 239.818C271.067 239.667 271.014 239.54 270.908 239.438C270.802 239.333 270.639 239.256 270.42 239.205L269.692 239.034C269.293 238.939 268.999 238.793 268.812 238.594C268.626 238.393 268.533 238.142 268.533 237.841C268.533 237.595 268.603 237.377 268.741 237.188C268.881 236.998 269.071 236.849 269.312 236.741C269.554 236.634 269.829 236.58 270.136 236.58C270.567 236.58 270.906 236.674 271.153 236.864C271.401 237.053 271.577 237.303 271.681 237.614ZM274.668 236.636V237.205H272.406V236.636H274.668ZM273.065 235.591H273.736V239.75C273.736 239.939 273.763 240.081 273.818 240.176C273.875 240.269 273.947 240.331 274.034 240.364C274.123 240.394 274.217 240.409 274.315 240.409C274.389 240.409 274.45 240.405 274.497 240.398C274.545 240.388 274.582 240.381 274.611 240.375L274.747 240.977C274.702 240.994 274.638 241.011 274.557 241.028C274.475 241.047 274.372 241.057 274.247 241.057C274.058 241.057 273.872 241.016 273.69 240.935C273.51 240.853 273.361 240.729 273.241 240.562C273.124 240.396 273.065 240.186 273.065 239.932V235.591ZM276.96 241.102C276.684 241.102 276.433 241.05 276.207 240.946C275.982 240.84 275.803 240.688 275.67 240.489C275.538 240.288 275.472 240.045 275.472 239.761C275.472 239.511 275.521 239.309 275.619 239.153C275.718 238.996 275.849 238.873 276.014 238.784C276.179 238.695 276.361 238.629 276.56 238.585C276.76 238.54 276.962 238.504 277.165 238.477C277.43 238.443 277.645 238.418 277.81 238.401C277.976 238.382 278.098 238.35 278.173 238.307C278.251 238.263 278.29 238.187 278.29 238.08V238.057C278.29 237.777 278.213 237.559 278.06 237.403C277.908 237.248 277.678 237.17 277.369 237.17C277.049 237.17 276.798 237.241 276.616 237.381C276.435 237.521 276.307 237.67 276.233 237.83L275.597 237.602C275.71 237.337 275.862 237.131 276.051 236.983C276.242 236.833 276.451 236.729 276.676 236.67C276.903 236.61 277.127 236.58 277.347 236.58C277.487 236.58 277.648 236.597 277.83 236.631C278.013 236.663 278.19 236.73 278.361 236.832C278.533 236.935 278.676 237.089 278.79 237.295C278.903 237.502 278.96 237.778 278.96 238.125V241H278.29V240.409H278.256C278.21 240.504 278.134 240.605 278.028 240.713C277.922 240.821 277.781 240.913 277.605 240.989C277.429 241.064 277.214 241.102 276.96 241.102ZM277.062 240.5C277.328 240.5 277.551 240.448 277.733 240.344C277.917 240.24 278.055 240.105 278.148 239.94C278.242 239.776 278.29 239.602 278.29 239.42V238.807C278.261 238.841 278.199 238.872 278.102 238.901C278.008 238.927 277.898 238.951 277.773 238.972C277.65 238.991 277.529 239.008 277.412 239.023C277.296 239.036 277.203 239.047 277.131 239.057C276.956 239.08 276.794 239.116 276.642 239.168C276.492 239.217 276.371 239.292 276.278 239.392C276.188 239.491 276.142 239.625 276.142 239.795C276.142 240.028 276.228 240.205 276.401 240.324C276.575 240.441 276.795 240.5 277.062 240.5ZM280.184 241V236.636H280.832V237.295H280.877C280.957 237.08 281.101 236.904 281.309 236.77C281.517 236.635 281.752 236.568 282.013 236.568C282.063 236.568 282.124 236.569 282.198 236.571C282.272 236.573 282.328 236.576 282.366 236.58V237.261C282.343 237.256 282.291 237.247 282.21 237.236C282.13 237.223 282.046 237.216 281.957 237.216C281.745 237.216 281.555 237.26 281.388 237.349C281.224 237.437 281.093 237.558 280.996 237.713C280.902 237.866 280.854 238.042 280.854 238.239V241H280.184ZM285.332 236.636V237.205H283.07V236.636H285.332ZM283.729 235.591H284.4V239.75C284.4 239.939 284.427 240.081 284.482 240.176C284.539 240.269 284.611 240.331 284.698 240.364C284.787 240.394 284.881 240.409 284.979 240.409C285.053 240.409 285.114 240.405 285.161 240.398C285.209 240.388 285.246 240.381 285.275 240.375L285.411 240.977C285.366 240.994 285.302 241.011 285.221 241.028C285.139 241.047 285.036 241.057 284.911 241.057C284.722 241.057 284.536 241.016 284.354 240.935C284.174 240.853 284.025 240.729 283.906 240.562C283.788 240.396 283.729 240.186 283.729 239.932V235.591ZM290.352 242.727C290.028 242.727 289.749 242.686 289.516 242.602C289.283 242.521 289.089 242.413 288.934 242.278C288.781 242.146 288.658 242.004 288.567 241.852L289.102 241.477C289.162 241.557 289.239 241.648 289.332 241.75C289.424 241.854 289.551 241.944 289.712 242.02C289.875 242.098 290.088 242.136 290.352 242.136C290.704 242.136 290.995 242.051 291.224 241.881C291.453 241.71 291.567 241.443 291.567 241.08V240.193H291.511C291.461 240.273 291.391 240.371 291.3 240.489C291.211 240.604 291.083 240.707 290.914 240.798C290.747 240.887 290.522 240.932 290.238 240.932C289.886 240.932 289.569 240.848 289.289 240.682C289.011 240.515 288.79 240.273 288.627 239.955C288.466 239.636 288.386 239.25 288.386 238.795C288.386 238.348 288.464 237.959 288.621 237.628C288.779 237.295 288.997 237.037 289.278 236.855C289.558 236.671 289.882 236.58 290.249 236.58C290.533 236.58 290.759 236.627 290.925 236.722C291.094 236.814 291.223 236.92 291.312 237.04C291.403 237.157 291.473 237.254 291.522 237.33H291.59V236.636H292.238V241.125C292.238 241.5 292.153 241.805 291.982 242.04C291.814 242.277 291.586 242.45 291.3 242.56C291.016 242.671 290.7 242.727 290.352 242.727ZM290.329 240.33C290.598 240.33 290.825 240.268 291.011 240.145C291.196 240.022 291.337 239.845 291.434 239.614C291.531 239.383 291.579 239.106 291.579 238.784C291.579 238.47 291.531 238.192 291.437 237.952C291.342 237.711 291.202 237.523 291.016 237.386C290.831 237.25 290.602 237.182 290.329 237.182C290.045 237.182 289.808 237.254 289.619 237.398C289.431 237.542 289.29 237.735 289.195 237.977C289.103 238.22 289.056 238.489 289.056 238.784C289.056 239.087 289.103 239.355 289.198 239.588C289.295 239.819 289.437 240.001 289.624 240.134C289.814 240.264 290.049 240.33 290.329 240.33ZM293.465 241V236.636H294.113V237.295H294.158C294.238 237.08 294.382 236.904 294.59 236.77C294.799 236.635 295.033 236.568 295.295 236.568C295.344 236.568 295.406 236.569 295.479 236.571C295.553 236.573 295.609 236.576 295.647 236.58V237.261C295.624 237.256 295.572 237.247 295.491 237.236C295.411 237.223 295.327 237.216 295.238 237.216C295.026 237.216 294.836 237.26 294.67 237.349C294.505 237.437 294.374 237.558 294.278 237.713C294.183 237.866 294.136 238.042 294.136 238.239V241H293.465ZM298.082 241.091C297.688 241.091 297.342 240.997 297.045 240.81C296.749 240.622 296.518 240.36 296.352 240.023C296.187 239.686 296.104 239.292 296.104 238.841C296.104 238.386 296.187 237.99 296.352 237.651C296.518 237.312 296.749 237.048 297.045 236.861C297.342 236.673 297.688 236.58 298.082 236.58C298.476 236.58 298.82 236.673 299.116 236.861C299.413 237.048 299.644 237.312 299.809 237.651C299.976 237.99 300.059 238.386 300.059 238.841C300.059 239.292 299.976 239.686 299.809 240.023C299.644 240.36 299.413 240.622 299.116 240.81C298.82 240.997 298.476 241.091 298.082 241.091ZM298.082 240.489C298.381 240.489 298.627 240.412 298.82 240.259C299.013 240.105 299.156 239.903 299.249 239.653C299.342 239.403 299.388 239.133 299.388 238.841C299.388 238.549 299.342 238.277 299.249 238.026C299.156 237.774 299.013 237.57 298.82 237.415C298.627 237.259 298.381 237.182 298.082 237.182C297.782 237.182 297.536 237.259 297.343 237.415C297.15 237.57 297.007 237.774 296.914 238.026C296.821 238.277 296.775 238.549 296.775 238.841C296.775 239.133 296.821 239.403 296.914 239.653C297.007 239.903 297.15 240.105 297.343 240.259C297.536 240.412 297.782 240.489 298.082 240.489ZM301.923 241L300.593 236.636H301.298L302.241 239.977H302.286L303.218 236.636H303.934L304.854 239.966H304.9L305.843 236.636H306.548L305.218 241H304.559L303.604 237.648H303.536L302.582 241H301.923ZM307.434 241V236.636H308.104V241H307.434ZM307.775 235.909C307.644 235.909 307.531 235.865 307.437 235.776C307.344 235.687 307.298 235.58 307.298 235.455C307.298 235.33 307.344 235.223 307.437 235.134C307.531 235.045 307.644 235 307.775 235C307.906 235 308.017 235.045 308.11 235.134C308.205 235.223 308.252 235.33 308.252 235.455C308.252 235.58 308.205 235.687 308.11 235.776C308.017 235.865 307.906 235.909 307.775 235.909ZM310.003 238.375V241H309.332V236.636H309.98V237.318H310.037C310.139 237.097 310.295 236.919 310.503 236.784C310.711 236.648 310.98 236.58 311.31 236.58C311.605 236.58 311.864 236.64 312.085 236.761C312.307 236.881 312.479 237.062 312.602 237.307C312.725 237.549 312.787 237.856 312.787 238.227V241H312.116V238.273C312.116 237.93 312.027 237.663 311.849 237.472C311.671 237.278 311.427 237.182 311.116 237.182C310.902 237.182 310.711 237.228 310.543 237.321C310.376 237.414 310.244 237.549 310.148 237.727C310.051 237.905 310.003 238.121 310.003 238.375ZM315.773 242.727C315.45 242.727 315.171 242.686 314.938 242.602C314.705 242.521 314.511 242.413 314.356 242.278C314.202 242.146 314.08 242.004 313.989 241.852L314.523 241.477C314.584 241.557 314.661 241.648 314.754 241.75C314.846 241.854 314.973 241.944 315.134 242.02C315.297 242.098 315.51 242.136 315.773 242.136C316.126 242.136 316.416 242.051 316.646 241.881C316.875 241.71 316.989 241.443 316.989 241.08V240.193H316.933C316.883 240.273 316.813 240.371 316.722 240.489C316.633 240.604 316.504 240.707 316.336 240.798C316.169 240.887 315.944 240.932 315.66 240.932C315.308 240.932 314.991 240.848 314.711 240.682C314.433 240.515 314.212 240.273 314.049 239.955C313.888 239.636 313.808 239.25 313.808 238.795C313.808 238.348 313.886 237.959 314.043 237.628C314.201 237.295 314.419 237.037 314.7 236.855C314.98 236.671 315.304 236.58 315.671 236.58C315.955 236.58 316.181 236.627 316.347 236.722C316.516 236.814 316.645 236.92 316.734 237.04C316.825 237.157 316.895 237.254 316.944 237.33H317.012V236.636H317.66V241.125C317.66 241.5 317.575 241.805 317.404 242.04C317.236 242.277 317.008 242.45 316.722 242.56C316.438 242.671 316.122 242.727 315.773 242.727ZM315.751 240.33C316.02 240.33 316.247 240.268 316.433 240.145C316.618 240.022 316.759 239.845 316.856 239.614C316.952 239.383 317.001 239.106 317.001 238.784C317.001 238.47 316.953 238.192 316.859 237.952C316.764 237.711 316.624 237.523 316.438 237.386C316.253 237.25 316.023 237.182 315.751 237.182C315.467 237.182 315.23 237.254 315.04 237.398C314.853 237.542 314.712 237.735 314.617 237.977C314.524 238.22 314.478 238.489 314.478 238.784C314.478 239.087 314.525 239.355 314.62 239.588C314.717 239.819 314.859 240.001 315.046 240.134C315.236 240.264 315.47 240.33 315.751 240.33Z" fill="#64748B"/>
<rect x="235.28" y="97" width="107" height="7.28" rx="3.64" transform="rotate(90 235.28 97)" fill="#F3F4F6"/>
<rect x="257.12" y="142" width="62" height="7.28" rx="3.64" transform="rotate(90 257.12 142)" fill="#F3F4F6"/>
<rect x="278.96" y="114" width="90" height="7.28" rx="3.64" transform="rotate(90 278.96 114)" fill="#573CFF"/>
<rect x="300.8" y="167" width="37" height="7.28" rx="3.64" transform="rotate(90 300.8 167)" fill="#F3F4F6"/>
<rect x="322.64" y="124" width="80" height="7.28" rx="3.64" transform="rotate(90 322.64 124)" fill="#F3F4F6"/>
<rect x="344.48" y="83" width="121" height="7.27999" rx="3.64" transform="rotate(90 344.48 83)" fill="#F3F4F6"/>
<rect x="366.32" y="127" width="77" height="7.28" rx="3.64" transform="rotate(90 366.32 127)" fill="#F3F4F6"/>
<rect x="388.16" y="108" width="96" height="7.28" rx="3.64" transform="rotate(90 388.16 108)" fill="#F3F4F6"/>
<rect x="410" y="118" width="86" height="7.28" rx="3.64" transform="rotate(90 410 118)" fill="#F3F4F6"/>
<g filter="url(#filter2_d_1859_950)">
<rect x="208" y="278" width="222" height="68" rx="9" fill="white"/>
</g>
<path d="M232.577 300.704C233.21 299.568 233.527 299 234 299C234.473 299 234.79 299.568 235.423 300.704L235.587 300.998C235.767 301.321 235.857 301.482 235.998 301.589C236.138 301.695 236.313 301.735 236.662 301.814L236.98 301.886C238.21 302.164 238.825 302.303 238.971 302.774C239.118 303.244 238.698 303.735 237.86 304.715L237.643 304.969C237.405 305.247 237.286 305.387 237.232 305.559C237.178 305.731 237.196 305.917 237.233 306.289L237.265 306.627C237.392 307.935 237.455 308.589 237.072 308.88C236.689 309.171 236.114 308.906 234.962 308.376L234.664 308.238C234.337 308.088 234.173 308.012 234 308.012C233.827 308.012 233.663 308.088 233.336 308.238L233.038 308.376C231.886 308.906 231.311 309.171 230.928 308.88C230.545 308.589 230.608 307.935 230.735 306.627L230.767 306.289C230.804 305.917 230.822 305.731 230.768 305.559C230.714 305.387 230.595 305.247 230.357 304.969L230.14 304.715C229.302 303.735 228.882 303.244 229.029 302.774C229.175 302.303 229.79 302.164 231.02 301.886L231.338 301.814C231.687 301.735 231.862 301.695 232.002 301.589C232.143 301.482 232.233 301.321 232.413 300.998L232.577 300.704Z" fill="#F59E0B"/>
<path d="M246.577 300.704C247.21 299.568 247.527 299 248 299C248.473 299 248.79 299.568 249.423 300.704L249.587 300.998C249.767 301.321 249.857 301.482 249.998 301.589C250.138 301.695 250.313 301.735 250.662 301.814L250.98 301.886C252.21 302.164 252.825 302.303 252.971 302.774C253.118 303.244 252.698 303.735 251.86 304.715L251.643 304.969C251.405 305.247 251.286 305.387 251.232 305.559C251.178 305.731 251.196 305.917 251.233 306.289L251.265 306.627C251.392 307.935 251.455 308.589 251.072 308.88C250.689 309.171 250.114 308.906 248.962 308.376L248.664 308.238C248.337 308.088 248.173 308.012 248 308.012C247.827 308.012 247.663 308.088 247.336 308.238L247.038 308.376C245.886 308.906 245.311 309.171 244.928 308.88C244.545 308.589 244.608 307.935 244.735 306.627L244.767 306.289C244.804 305.917 244.822 305.731 244.768 305.559C244.714 305.387 244.595 305.247 244.357 304.969L244.14 304.715C243.302 303.735 242.882 303.244 243.029 302.774C243.175 302.303 243.79 302.164 245.02 301.886L245.338 301.814C245.687 301.735 245.862 301.695 246.002 301.589C246.143 301.482 246.233 301.321 246.413 300.998L246.577 300.704Z" fill="#F59E0B"/>
<path d="M260.577 300.704C261.21 299.568 261.527 299 262 299C262.473 299 262.79 299.568 263.423 300.704L263.587 300.998C263.767 301.321 263.857 301.482 263.998 301.589C264.138 301.695 264.313 301.735 264.662 301.814L264.98 301.886C266.21 302.164 266.825 302.303 266.971 302.774C267.118 303.244 266.698 303.735 265.86 304.715L265.643 304.969C265.405 305.247 265.286 305.387 265.232 305.559C265.178 305.731 265.196 305.917 265.233 306.289L265.265 306.627C265.392 307.935 265.455 308.589 265.072 308.88C264.689 309.171 264.114 308.906 262.962 308.376L262.664 308.238C262.337 308.088 262.173 308.012 262 308.012C261.827 308.012 261.663 308.088 261.336 308.238L261.038 308.376C259.886 308.906 259.311 309.171 258.928 308.88C258.545 308.589 258.608 307.935 258.735 306.627L258.767 306.289C258.804 305.917 258.822 305.731 258.768 305.559C258.714 305.387 258.595 305.247 258.357 304.969L258.14 304.715C257.302 303.735 256.882 303.244 257.029 302.774C257.175 302.303 257.79 302.164 259.02 301.886L259.338 301.814C259.687 301.735 259.862 301.695 260.002 301.589C260.143 301.482 260.233 301.321 260.413 300.998L260.577 300.704Z" fill="#F59E0B"/>
<path d="M274.577 300.704C275.21 299.568 275.527 299 276 299C276.473 299 276.79 299.568 277.423 300.704L277.587 300.998C277.767 301.321 277.857 301.482 277.998 301.589C278.138 301.695 278.313 301.735 278.662 301.814L278.98 301.886C280.21 302.164 280.825 302.303 280.971 302.774C281.118 303.244 280.698 303.735 279.86 304.715L279.643 304.969C279.405 305.247 279.286 305.387 279.232 305.559C279.178 305.731 279.196 305.917 279.233 306.289L279.265 306.627C279.392 307.935 279.455 308.589 279.072 308.88C278.689 309.171 278.114 308.906 276.962 308.376L276.664 308.238C276.337 308.088 276.173 308.012 276 308.012C275.827 308.012 275.663 308.088 275.336 308.238L275.038 308.376C273.886 308.906 273.311 309.171 272.928 308.88C272.545 308.589 272.608 307.935 272.735 306.627L272.767 306.289C272.804 305.917 272.822 305.731 272.768 305.559C272.714 305.387 272.595 305.247 272.357 304.969L272.14 304.715C271.302 303.735 270.882 303.244 271.029 302.774C271.175 302.303 271.79 302.164 273.02 301.886L273.338 301.814C273.687 301.735 273.862 301.695 274.002 301.589C274.143 301.482 274.233 301.321 274.413 300.998L274.577 300.704Z" fill="#F59E0B"/>
<path d="M288.577 300.704C289.21 299.568 289.527 299 290 299C290.473 299 290.79 299.568 291.423 300.704L291.587 300.998C291.767 301.321 291.857 301.482 291.998 301.589C292.138 301.695 292.313 301.735 292.662 301.814L292.98 301.886C294.21 302.164 294.825 302.303 294.971 302.774C295.118 303.244 294.698 303.735 293.86 304.715L293.643 304.969C293.405 305.247 293.286 305.387 293.232 305.559C293.178 305.731 293.196 305.917 293.233 306.289L293.265 306.627C293.392 307.935 293.455 308.589 293.072 308.88C292.689 309.171 292.114 308.906 290.962 308.376L290.664 308.238C290.337 308.088 290.173 308.012 290 308.012C289.827 308.012 289.663 308.088 289.336 308.238L289.038 308.376C287.886 308.906 287.311 309.171 286.928 308.88C286.545 308.589 286.608 307.935 286.735 306.627L286.767 306.289C286.804 305.917 286.822 305.731 286.768 305.559C286.714 305.387 286.595 305.247 286.357 304.969L286.14 304.715C285.302 303.735 284.882 303.244 285.029 302.774C285.175 302.303 285.79 302.164 287.02 301.886L287.338 301.814C287.687 301.735 287.862 301.695 288.002 301.589C288.143 301.482 288.233 301.321 288.413 300.998L288.577 300.704Z" fill="#F59E0B"/>
<path d="M229.638 323H228.756V316.493H231.213C232.608 316.493 233.436 317.231 233.436 318.446C233.436 319.346 232.986 319.994 232.176 320.255L233.499 323H232.518L231.303 320.426H229.638V323ZM229.638 317.285V319.643H231.222C232.041 319.643 232.509 319.202 232.509 318.455C232.509 317.699 232.023 317.285 231.213 317.285H229.638ZM236.083 323.108C234.787 323.108 233.896 322.172 233.896 320.804C233.896 319.427 234.769 318.473 236.047 318.473C237.298 318.473 238.117 319.337 238.117 320.642V320.957L234.715 320.966C234.778 321.893 235.264 322.406 236.101 322.406C236.758 322.406 237.19 322.136 237.334 321.632H238.126C237.91 322.577 237.172 323.108 236.083 323.108ZM236.047 319.184C235.309 319.184 234.841 319.625 234.733 320.399H237.271C237.271 319.67 236.794 319.184 236.047 319.184ZM238.774 320.804C238.774 319.427 239.647 318.473 240.934 318.473C242.041 318.473 242.815 319.103 242.968 320.084H242.122C241.978 319.526 241.528 319.229 240.961 319.229C240.16 319.229 239.611 319.841 239.611 320.795C239.611 321.74 240.124 322.352 240.925 322.352C241.528 322.352 241.978 322.037 242.131 321.515H242.977C242.806 322.469 241.987 323.108 240.925 323.108C239.629 323.108 238.774 322.19 238.774 320.804ZM243.582 320.795C243.582 319.436 244.554 318.482 245.877 318.482C247.191 318.482 248.163 319.436 248.163 320.795C248.163 322.154 247.191 323.108 245.877 323.108C244.554 323.108 243.582 322.154 243.582 320.795ZM244.437 320.795C244.437 321.713 245.022 322.352 245.877 322.352C246.723 322.352 247.317 321.713 247.317 320.795C247.317 319.877 246.723 319.238 245.877 319.238C245.022 319.238 244.437 319.877 244.437 320.795ZM249.945 323H249.099V318.599H249.855L249.936 319.175C250.161 318.761 250.629 318.473 251.25 318.473C251.934 318.473 252.42 318.815 252.645 319.364C252.852 318.815 253.383 318.473 254.067 318.473C255.075 318.473 255.687 319.103 255.687 320.12V323H254.859V320.327C254.859 319.634 254.472 319.238 253.878 319.238C253.239 319.238 252.816 319.688 252.816 320.39V323H251.979V320.318C251.979 319.625 251.601 319.247 251.007 319.247C250.368 319.247 249.945 319.688 249.945 320.39V323ZM257.706 323H256.86V318.599H257.616L257.697 319.175C257.922 318.761 258.39 318.473 259.011 318.473C259.695 318.473 260.181 318.815 260.406 319.364C260.613 318.815 261.144 318.473 261.828 318.473C262.836 318.473 263.448 319.103 263.448 320.12V323H262.62V320.327C262.62 319.634 262.233 319.238 261.639 319.238C261 319.238 260.577 319.688 260.577 320.39V323H259.74V320.318C259.74 319.625 259.362 319.247 258.768 319.247C258.129 319.247 257.706 319.688 257.706 320.39V323ZM266.52 323.108C265.224 323.108 264.333 322.172 264.333 320.804C264.333 319.427 265.206 318.473 266.484 318.473C267.735 318.473 268.554 319.337 268.554 320.642V320.957L265.152 320.966C265.215 321.893 265.701 322.406 266.538 322.406C267.195 322.406 267.627 322.136 267.771 321.632H268.563C268.347 322.577 267.609 323.108 266.52 323.108ZM266.484 319.184C265.746 319.184 265.278 319.625 265.17 320.399H267.708C267.708 319.67 267.231 319.184 266.484 319.184ZM270.345 323H269.499V318.599H270.264L270.354 319.274C270.633 318.77 271.191 318.473 271.812 318.473C272.973 318.473 273.504 319.184 273.504 320.309V323H272.658V320.498C272.658 319.607 272.244 319.247 271.596 319.247C270.804 319.247 270.345 319.814 270.345 320.669V323ZM276.439 323.108C275.161 323.108 274.387 322.154 274.387 320.813C274.387 319.463 275.17 318.473 276.475 318.473C277.15 318.473 277.717 318.77 278.014 319.31V316.376H278.851V323H278.095L278.023 322.199C277.735 322.802 277.141 323.108 276.439 323.108ZM276.61 322.343C277.474 322.343 278.005 321.704 278.005 320.786C278.005 319.886 277.474 319.238 276.61 319.238C275.746 319.238 275.242 319.886 275.242 320.786C275.242 321.695 275.746 322.343 276.61 322.343ZM281.971 323.108C280.675 323.108 279.784 322.172 279.784 320.804C279.784 319.427 280.657 318.473 281.935 318.473C283.186 318.473 284.005 319.337 284.005 320.642V320.957L280.603 320.966C280.666 321.893 281.152 322.406 281.989 322.406C282.646 322.406 283.078 322.136 283.222 321.632H284.014C283.798 322.577 283.06 323.108 281.971 323.108ZM281.935 319.184C281.197 319.184 280.729 319.625 280.621 320.399H283.159C283.159 319.67 282.682 319.184 281.935 319.184ZM286.714 323.108C285.436 323.108 284.662 322.154 284.662 320.813C284.662 319.463 285.445 318.473 286.75 318.473C287.425 318.473 287.992 318.77 288.289 319.31V316.376H289.126V323H288.37L288.298 322.199C288.01 322.802 287.416 323.108 286.714 323.108ZM286.885 322.343C287.749 322.343 288.28 321.704 288.28 320.786C288.28 319.886 287.749 319.238 286.885 319.238C286.021 319.238 285.517 319.886 285.517 320.786C285.517 321.695 286.021 322.343 286.885 322.343ZM293.572 323H292.807V316.376H293.653V319.355C293.941 318.779 294.535 318.473 295.255 318.473C296.515 318.473 297.271 319.463 297.271 320.822C297.271 322.154 296.479 323.108 295.201 323.108C294.508 323.108 293.923 322.802 293.635 322.199L293.572 323ZM293.662 320.786C293.662 321.704 294.184 322.343 295.048 322.343C295.912 322.343 296.425 321.695 296.425 320.786C296.425 319.886 295.912 319.238 295.048 319.238C294.184 319.238 293.662 319.886 293.662 320.786ZM297.631 324.971V324.278H298.198C298.603 324.278 298.927 324.215 299.134 323.657L299.287 323.234L297.514 318.599H298.405L299.683 322.145L300.988 318.599H301.861L299.782 323.99C299.485 324.746 299.044 325.061 298.369 325.061C298.09 325.061 297.856 325.025 297.631 324.971ZM306.069 317.285H304.701V316.493H306.915V323H306.069V317.285ZM310.257 323.108C308.925 323.108 308.061 322.262 308.061 320.966H308.934C308.934 321.803 309.447 322.316 310.275 322.316C311.157 322.316 311.724 321.731 311.724 320.849C311.724 320.012 311.193 319.391 310.284 319.391C309.735 319.391 309.231 319.652 308.934 320.021L308.187 319.832L308.979 316.493H312.237V317.303H309.618L309.186 319.031C309.528 318.77 309.96 318.635 310.446 318.635C311.769 318.635 312.624 319.562 312.624 320.813C312.624 322.163 311.661 323.108 310.257 323.108ZM313.387 319.751C313.387 317.735 314.431 316.367 316.069 316.367C317.698 316.367 318.742 317.735 318.742 319.751C318.742 321.776 317.743 323.117 316.069 323.117C314.386 323.117 313.387 321.776 313.387 319.751ZM314.26 319.751C314.26 321.353 314.926 322.325 316.069 322.325C317.212 322.325 317.869 321.353 317.869 319.751C317.869 318.131 317.212 317.159 316.069 317.159C314.926 317.159 314.26 318.131 314.26 319.751ZM319.628 319.751C319.628 317.735 320.672 316.367 322.31 316.367C323.939 316.367 324.983 317.735 324.983 319.751C324.983 321.776 323.984 323.117 322.31 323.117C320.627 323.117 319.628 321.776 319.628 319.751ZM320.501 319.751C320.501 321.353 321.167 322.325 322.31 322.325C323.453 322.325 324.11 321.353 324.11 319.751C324.11 318.131 323.453 317.159 322.31 317.159C321.167 317.159 320.501 318.131 320.501 319.751ZM326.147 319.607H328.037V317.717H328.757V319.607H330.647V320.327H328.757V322.226H328.037V320.327H326.147V319.607ZM334.441 324.971V318.599H335.206L335.269 319.391C335.566 318.788 336.16 318.473 336.862 318.473C338.122 318.473 338.905 319.418 338.905 320.768C338.905 322.109 338.167 323.117 336.862 323.117C336.16 323.117 335.575 322.82 335.287 322.28V324.971H334.441ZM335.296 320.804C335.296 321.704 335.818 322.352 336.682 322.352C337.546 322.352 338.059 321.704 338.059 320.804C338.059 319.895 337.546 319.247 336.682 319.247C335.818 319.247 335.296 319.886 335.296 320.804ZM341.737 323.108C340.441 323.108 339.55 322.172 339.55 320.804C339.55 319.427 340.423 318.473 341.701 318.473C342.952 318.473 343.771 319.337 343.771 320.642V320.957L340.369 320.966C340.432 321.893 340.918 322.406 341.755 322.406C342.412 322.406 342.844 322.136 342.988 321.632H343.78C343.564 322.577 342.826 323.108 341.737 323.108ZM341.701 319.184C340.963 319.184 340.495 319.625 340.387 320.399H342.925C342.925 319.67 342.448 319.184 341.701 319.184ZM344.428 320.795C344.428 319.436 345.4 318.482 346.723 318.482C348.037 318.482 349.009 319.436 349.009 320.795C349.009 322.154 348.037 323.108 346.723 323.108C345.4 323.108 344.428 322.154 344.428 320.795ZM345.283 320.795C345.283 321.713 345.868 322.352 346.723 322.352C347.569 322.352 348.163 321.713 348.163 320.795C348.163 319.877 347.569 319.238 346.723 319.238C345.868 319.238 345.283 319.877 345.283 320.795ZM349.945 324.971V318.599H350.71L350.773 319.391C351.07 318.788 351.664 318.473 352.366 318.473C353.626 318.473 354.409 319.418 354.409 320.768C354.409 322.109 353.671 323.117 352.366 323.117C351.664 323.117 351.079 322.82 350.791 322.28V324.971H349.945ZM350.8 320.804C350.8 321.704 351.322 322.352 352.186 322.352C353.05 322.352 353.563 321.704 353.563 320.804C353.563 319.895 353.05 319.247 352.186 319.247C351.322 319.247 350.8 319.886 350.8 320.804ZM356.205 323H355.359V316.376H356.205V323ZM359.35 323.108C358.054 323.108 357.163 322.172 357.163 320.804C357.163 319.427 358.036 318.473 359.314 318.473C360.565 318.473 361.384 319.337 361.384 320.642V320.957L357.982 320.966C358.045 321.893 358.531 322.406 359.368 322.406C360.025 322.406 360.457 322.136 360.601 321.632H361.393C361.177 322.577 360.439 323.108 359.35 323.108ZM359.314 319.184C358.576 319.184 358.108 319.625 358 320.399H360.538C360.538 319.67 360.061 319.184 359.314 319.184Z" fill="#0E172B"/>
</g>
<defs>
<filter id="filter0_d_1859_950" x="-46" y="-48" width="340" height="492" filterUnits="userSpaceOnUse" color-interpolation-filters="sRGB">
<feFlood flood-opacity="0" result="BackgroundImageFix"/>
<feColorMatrix in="SourceAlpha" type="matrix" values="0 0 0 0 0 0 0 0 0 0 0 0 0 0 0 0 0 0 127 0" result="hardAlpha"/>
<feOffset dy="-2"/>
<feGaussianBlur stdDeviation="50"/>
<feComposite in2="hardAlpha" operator="out"/>
<feColorMatrix type="matrix" values="0 0 0 0 0.329531 0 0 0 0 0.33976 0 0 0 0 0.4625 0 0 0 0.1 0"/>
<feBlend mode="normal" in2="BackgroundImageFix" result="effect1_dropShadow_1859_950"/>
<feBlend mode="normal" in="SourceGraphic" in2="effect1_dropShadow_1859_950" result="shape"/>
</filter>
<filter id="filter1_d_1859_950" x="108" y="-48" width="422" height="410" filterUnits="userSpaceOnUse" color-interpolation-filters="sRGB">
<feFlood flood-opacity="0" result="BackgroundImageFix"/>
<feColorMatrix in="SourceAlpha" type="matrix" values="0 0 0 0 0 0 0 0 0 0 0 0 0 0 0 0 0 0 127 0" result="hardAlpha"/>
<feOffset dy="-2"/>
<feGaussianBlur stdDeviation="50"/>
<feComposite in2="hardAlpha" operator="out"/>
<feColorMatrix type="matrix" values="0 0 0 0 0.329531 0 0 0 0 0.33976 0 0 0 0 0.4625 0 0 0 0.1 0"/>
<feBlend mode="normal" in2="BackgroundImageFix" result="effect1_dropShadow_1859_950"/>
<feBlend mode="normal" in="SourceGraphic" in2="effect1_dropShadow_1859_950" result="shape"/>
</filter>
<filter id="filter2_d_1859_950" x="108" y="176" width="422" height="268" filterUnits="userSpaceOnUse" color-interpolation-filters="sRGB">
<feFlood flood-opacity="0" result="BackgroundImageFix"/>
<feColorMatrix in="SourceAlpha" type="matrix" values="0 0 0 0 0 0 0 0 0 0 0 0 0 0 0 0 0 0 127 0" result="hardAlpha"/>
<feOffset dy="-2"/>
<feGaussianBlur stdDeviation="50"/>
<feComposite in2="hardAlpha" operator="out"/>
<feColorMatrix type="matrix" values="0 0 0 0 0.329531 0 0 0 0 0.33976 0 0 0 0 0.4625 0 0 0 0.1 0"/>
<feBlend mode="normal" in2="BackgroundImageFix" result="effect1_dropShadow_1859_950"/>
<feBlend mode="normal" in="SourceGraphic" in2="effect1_dropShadow_1859_950" result="shape"/>
</filter>
<linearGradient id="paint0_linear_1859_950" x1="242" y1="40" x2="242" y2="369.915" gradientUnits="userSpaceOnUse">
<stop stop-color="white"/>
<stop offset="1" stop-color="white" stop-opacity="0"/>
</linearGradient>
</defs>
</svg>
