<svg width="484" height="400" viewBox="0 0 484 400" fill="none" xmlns="http://www.w3.org/2000/svg">
<mask id="mask0_1788_946" style="mask-type:alpha" maskUnits="userSpaceOnUse" x="0" y="0" width="484" height="400">
<rect width="484" height="400" rx="15" fill="#573CFF"/>
</mask>
<g mask="url(#mask0_1788_946)">
<rect opacity="0.05" width="484" height="400" rx="15" fill="#573CFF"/>
<rect x="40" y="40" width="404" height="320" rx="15" fill="url(#paint0_linear_1788_946)"/>
<g filter="url(#filter0_d_1788_946)">
<rect x="54" y="54" width="102" height="292" rx="9" fill="white"/>
</g>
<g filter="url(#filter1_d_1788_946)">
<rect x="170" y="54" width="260" height="292" rx="9" fill="white"/>
</g>
<path d="M195 272L195 86" stroke="url(#paint1_linear_1788_946)" stroke-width="0.7" stroke-dasharray="2 2"/>
<path d="M211 272L211 86" stroke="url(#paint2_linear_1788_946)" stroke-width="0.7" stroke-dasharray="2 2"/>
<path d="M227 272L227 86" stroke="url(#paint3_linear_1788_946)" stroke-width="0.7" stroke-dasharray="2 2"/>
<path d="M243 272L243 86" stroke="url(#paint4_linear_1788_946)" stroke-width="0.7" stroke-dasharray="2 2"/>
<path d="M259 272L259 86" stroke="url(#paint5_linear_1788_946)" stroke-width="0.7" stroke-dasharray="2 2"/>
<path d="M275 272L275 86" stroke="url(#paint6_linear_1788_946)" stroke-width="0.7" stroke-dasharray="2 2"/>
<path d="M291 272L291 86" stroke="url(#paint7_linear_1788_946)" stroke-width="0.7" stroke-dasharray="2 2"/>
<path d="M307 272L307 86" stroke="url(#paint8_linear_1788_946)" stroke-width="0.7" stroke-dasharray="2 2"/>
<path d="M323 272L323 86" stroke="url(#paint9_linear_1788_946)" stroke-width="0.7" stroke-dasharray="2 2"/>
<path d="M339 272L339 86" stroke="url(#paint10_linear_1788_946)" stroke-width="0.7" stroke-dasharray="2 2"/>
<path d="M355 272L355 86" stroke="url(#paint11_linear_1788_946)" stroke-width="0.7" stroke-dasharray="2 2"/>
<path d="M371 272L371 86" stroke="url(#paint12_linear_1788_946)" stroke-width="0.7" stroke-dasharray="2 2"/>
<path d="M387 272L387 86" stroke="url(#paint13_linear_1788_946)" stroke-width="0.7" stroke-dasharray="2 2"/>
<path d="M403 272L403 86" stroke="url(#paint14_linear_1788_946)" stroke-width="0.7" stroke-dasharray="2 2"/>
<path d="M394.489 178.821C394.39 177.998 393.643 177.412 392.821 177.511L379.417 179.122C378.595 179.221 378.008 179.968 378.107 180.79C378.206 181.613 378.953 182.2 379.776 182.101L391.69 180.668L393.122 192.583C393.221 193.405 393.968 193.992 394.79 193.893C395.613 193.794 396.2 193.047 396.101 192.224L394.489 178.821ZM332.069 234.659L330.895 235.593L332.069 234.659ZM297.955 213.767L299.148 214.676L297.955 213.767ZM315.312 213.589L314.138 214.523L315.312 213.589ZM249.839 245.415L248.783 244.35L249.839 245.415ZM227.257 267.81L226.201 266.745L227.257 267.81ZM194 272.5H219.511V269.5H194V272.5ZM228.313 268.875L250.895 246.48L248.783 244.35L226.201 266.745L228.313 268.875ZM275.69 245.445L299.148 214.676L296.762 212.857L273.304 243.626L275.69 245.445ZM314.138 214.523L330.895 235.593L333.243 233.725L316.486 212.655L314.138 214.523ZM350.509 235.533L394.18 179.926L391.82 178.074L348.15 233.68L350.509 235.533ZM330.895 235.593C335.919 241.91 345.524 241.88 350.509 235.533L348.15 233.68C344.361 238.504 337.061 238.526 333.243 233.725L330.895 235.593ZM299.148 214.676C302.901 209.753 310.285 209.678 314.138 214.523L316.486 212.655C311.416 206.28 301.701 206.38 296.762 212.857L299.148 214.676ZM260.726 246.48C265.004 250.723 272.037 250.236 275.69 245.445L273.304 243.626C270.749 246.977 265.83 247.318 262.838 244.35L260.726 246.48ZM250.895 246.48C253.616 243.782 258.004 243.782 260.726 246.48L262.838 244.35C258.947 240.492 252.673 240.492 248.783 244.35L250.895 246.48ZM219.511 272.5C222.808 272.5 225.972 271.197 228.313 268.875L226.201 266.745C224.422 268.51 222.017 269.5 219.511 269.5V272.5Z" fill="#573CFF"/>
<path d="M198.812 297.524C197.072 297.524 196.076 298.784 196.076 300.68C196.076 302.636 197.204 303.704 198.824 303.704C200.348 303.704 201.272 302.864 201.272 301.46V301.424H198.62V300.068H202.7V305H201.404L201.308 303.992C200.828 304.664 199.832 305.132 198.644 305.132C196.184 305.132 194.468 303.344 194.468 300.644C194.468 297.98 196.208 296.084 198.848 296.084C200.852 296.084 202.4 297.248 202.652 299.036H201.032C200.756 298.004 199.868 297.524 198.812 297.524ZM207.863 299.048V300.404H207.323C206.267 300.404 205.607 300.968 205.607 302.12V305H204.143V299.084H205.523L205.607 299.948C205.859 299.36 206.423 298.964 207.215 298.964C207.419 298.964 207.623 298.988 207.863 299.048ZM208.306 302.024C208.306 300.176 209.638 298.904 211.474 298.904C213.31 298.904 214.642 300.176 214.642 302.024C214.642 303.872 213.31 305.144 211.474 305.144C209.638 305.144 208.306 303.872 208.306 302.024ZM209.77 302.024C209.77 303.104 210.466 303.836 211.474 303.836C212.482 303.836 213.178 303.104 213.178 302.024C213.178 300.944 212.482 300.212 211.474 300.212C210.466 300.212 209.77 300.944 209.77 302.024ZM216.818 305L214.898 299.072H216.422L217.202 301.616C217.334 302.084 217.454 302.6 217.562 303.152C217.67 302.576 217.778 302.204 217.97 301.616L218.786 299.072H220.274L221.066 301.616C221.138 301.856 221.378 302.744 221.45 303.14C221.546 302.696 221.738 301.988 221.846 301.616L222.638 299.072H224.186L222.134 305H220.766L219.95 302.432C219.71 301.652 219.578 301.088 219.53 300.788C219.47 301.064 219.362 301.484 219.062 302.456L218.246 305H216.818ZM229.615 305L227.695 299.072H229.219L229.999 301.616C230.131 302.084 230.251 302.6 230.359 303.152C230.467 302.576 230.575 302.204 230.767 301.616L231.583 299.072H233.071L233.863 301.616C233.935 301.856 234.175 302.744 234.247 303.14C234.343 302.696 234.535 301.988 234.643 301.616L235.435 299.072H236.983L234.931 305H233.563L232.747 302.432C232.507 301.652 232.375 301.088 232.327 300.788C232.267 301.064 232.159 301.484 231.859 302.456L231.043 305H229.615ZM238.601 297.884C238.097 297.884 237.701 297.488 237.701 296.996C237.701 296.504 238.097 296.12 238.601 296.12C239.081 296.12 239.477 296.504 239.477 296.996C239.477 297.488 239.081 297.884 238.601 297.884ZM237.869 305V299.072H239.333V305H237.869ZM242.862 305H241.398V300.296H240.258V299.072H241.398V297.224H242.862V299.072H244.014V300.296H242.862V305ZM246.388 305H244.924V296.072H246.4V299.84C246.772 299.264 247.468 298.892 248.32 298.892C249.784 298.892 250.552 299.816 250.552 301.352V305H249.088V301.7C249.088 300.704 248.596 300.224 247.852 300.224C246.928 300.224 246.388 300.872 246.388 301.76V305ZM259.245 299.072H260.709V305H259.353L259.245 304.208C258.885 304.772 258.117 305.156 257.325 305.156C255.957 305.156 255.153 304.232 255.153 302.78V299.072H256.617V302.264C256.617 303.392 257.061 303.848 257.877 303.848C258.801 303.848 259.245 303.308 259.245 302.18V299.072ZM261.648 303.2H263.04C263.052 303.716 263.436 304.04 264.108 304.04C264.792 304.04 265.164 303.764 265.164 303.332C265.164 303.032 265.008 302.816 264.48 302.696L263.412 302.444C262.344 302.204 261.828 301.7 261.828 300.752C261.828 299.588 262.812 298.892 264.18 298.892C265.512 298.892 266.412 299.66 266.424 300.812H265.032C265.02 300.308 264.684 299.984 264.12 299.984C263.544 299.984 263.208 300.248 263.208 300.692C263.208 301.028 263.472 301.244 263.976 301.364L265.044 301.616C266.04 301.844 266.544 302.3 266.544 303.212C266.544 304.412 265.524 305.156 264.06 305.156C262.584 305.156 261.648 304.364 261.648 303.2Z" fill="#0E172B"/>
<path d="M194.881 320V312.727H195.761V319.219H199.142V320H194.881ZM202.679 320.114C202.153 320.114 201.7 319.998 201.319 319.766C200.94 319.531 200.648 319.205 200.442 318.786C200.238 318.364 200.136 317.874 200.136 317.315C200.136 316.757 200.238 316.264 200.442 315.838C200.648 315.41 200.934 315.076 201.301 314.837C201.67 314.595 202.101 314.474 202.594 314.474C202.878 314.474 203.158 314.522 203.435 314.616C203.712 314.711 203.964 314.865 204.192 315.078C204.419 315.289 204.6 315.568 204.735 315.916C204.87 316.264 204.938 316.693 204.938 317.202V317.557H200.733V316.832H204.085C204.085 316.525 204.024 316.25 203.901 316.009C203.78 315.767 203.607 315.576 203.382 315.437C203.16 315.297 202.897 315.227 202.594 315.227C202.26 315.227 201.971 315.31 201.727 315.476C201.486 315.639 201.3 315.852 201.17 316.115C201.04 316.378 200.974 316.66 200.974 316.96V317.443C200.974 317.855 201.045 318.204 201.188 318.491C201.332 318.775 201.532 318.991 201.788 319.141C202.043 319.287 202.34 319.361 202.679 319.361C202.899 319.361 203.098 319.33 203.276 319.268C203.455 319.205 203.611 319.11 203.741 318.984C203.871 318.857 203.972 318.698 204.043 318.509L204.852 318.736C204.767 319.01 204.624 319.252 204.423 319.46C204.221 319.666 203.973 319.827 203.677 319.943C203.381 320.057 203.048 320.114 202.679 320.114ZM207.817 320.128C207.472 320.128 207.158 320.063 206.876 319.933C206.595 319.8 206.371 319.609 206.205 319.361C206.04 319.11 205.957 318.807 205.957 318.452C205.957 318.139 206.018 317.886 206.141 317.692C206.264 317.495 206.429 317.341 206.635 317.23C206.841 317.119 207.068 317.036 207.317 316.982C207.568 316.925 207.82 316.88 208.073 316.847C208.405 316.804 208.673 316.772 208.879 316.751C209.088 316.727 209.239 316.688 209.334 316.634C209.431 316.579 209.479 316.484 209.479 316.349V316.321C209.479 315.971 209.384 315.698 209.192 315.504C209.002 315.31 208.715 315.213 208.329 315.213C207.929 315.213 207.615 315.301 207.388 315.476C207.161 315.651 207.001 315.838 206.908 316.037L206.113 315.753C206.255 315.421 206.444 315.163 206.681 314.979C206.92 314.792 207.181 314.661 207.462 314.588C207.746 314.512 208.026 314.474 208.3 314.474C208.476 314.474 208.677 314.496 208.904 314.538C209.134 314.579 209.355 314.663 209.568 314.79C209.784 314.918 209.962 315.111 210.104 315.369C210.246 315.627 210.317 315.973 210.317 316.406V320H209.479V319.261H209.437C209.38 319.38 209.285 319.506 209.153 319.641C209.02 319.776 208.844 319.891 208.624 319.986C208.403 320.08 208.135 320.128 207.817 320.128ZM207.945 319.375C208.277 319.375 208.556 319.31 208.783 319.18C209.013 319.049 209.186 318.881 209.302 318.675C209.42 318.469 209.479 318.253 209.479 318.026V317.259C209.444 317.301 209.366 317.34 209.245 317.376C209.127 317.409 208.989 317.438 208.833 317.464C208.679 317.488 208.529 317.509 208.382 317.528C208.238 317.545 208.121 317.559 208.031 317.571C207.813 317.599 207.609 317.646 207.42 317.71C207.233 317.771 207.081 317.865 206.965 317.99C206.852 318.113 206.795 318.281 206.795 318.494C206.795 318.786 206.902 319.006 207.118 319.155C207.336 319.302 207.612 319.375 207.945 319.375ZM211.847 320V314.545H212.657V315.369H212.714C212.813 315.099 212.993 314.88 213.253 314.712C213.514 314.544 213.807 314.46 214.134 314.46C214.196 314.46 214.273 314.461 214.365 314.464C214.457 314.466 214.527 314.47 214.574 314.474V315.327C214.546 315.32 214.481 315.309 214.379 315.295C214.28 315.278 214.174 315.27 214.063 315.27C213.798 315.27 213.561 315.326 213.353 315.437C213.147 315.546 212.983 315.697 212.863 315.891C212.744 316.083 212.685 316.302 212.685 316.548V320H211.847ZM216.406 316.719V320H215.568V314.545H216.377V315.398H216.449C216.576 315.121 216.77 314.898 217.031 314.73C217.291 314.56 217.627 314.474 218.039 314.474C218.409 314.474 218.732 314.55 219.009 314.702C219.286 314.851 219.501 315.078 219.655 315.384C219.809 315.687 219.886 316.07 219.886 316.534V320H219.048V316.591C219.048 316.162 218.937 315.829 218.714 315.589C218.492 315.348 218.186 315.227 217.798 315.227C217.53 315.227 217.291 315.285 217.081 315.401C216.872 315.517 216.708 315.687 216.587 315.909C216.466 316.132 216.406 316.402 216.406 316.719ZM225.835 320.128C225.489 320.128 225.176 320.063 224.894 319.933C224.612 319.8 224.389 319.609 224.223 319.361C224.057 319.11 223.974 318.807 223.974 318.452C223.974 318.139 224.036 317.886 224.159 317.692C224.282 317.495 224.447 317.341 224.653 317.23C224.858 317.119 225.086 317.036 225.334 316.982C225.585 316.925 225.837 316.88 226.091 316.847C226.422 316.804 226.691 316.772 226.897 316.751C227.105 316.727 227.257 316.688 227.351 316.634C227.448 316.579 227.497 316.484 227.497 316.349V316.321C227.497 315.971 227.401 315.698 227.209 315.504C227.02 315.31 226.732 315.213 226.346 315.213C225.946 315.213 225.633 315.301 225.405 315.476C225.178 315.651 225.018 315.838 224.926 316.037L224.131 315.753C224.273 315.421 224.462 315.163 224.699 314.979C224.938 314.792 225.198 314.661 225.48 314.588C225.764 314.512 226.043 314.474 226.318 314.474C226.493 314.474 226.694 314.496 226.922 314.538C227.151 314.579 227.373 314.663 227.586 314.79C227.801 314.918 227.98 315.111 228.122 315.369C228.264 315.627 228.335 315.973 228.335 316.406V320H227.497V319.261H227.454C227.398 319.38 227.303 319.506 227.17 319.641C227.038 319.776 226.861 319.891 226.641 319.986C226.421 320.08 226.152 320.128 225.835 320.128ZM225.963 319.375C226.294 319.375 226.574 319.31 226.801 319.18C227.031 319.049 227.203 318.881 227.319 318.675C227.438 318.469 227.497 318.253 227.497 318.026V317.259C227.461 317.301 227.383 317.34 227.263 317.376C227.144 317.409 227.007 317.438 226.851 317.464C226.697 317.488 226.546 317.509 226.4 317.528C226.255 317.545 226.138 317.559 226.048 317.571C225.83 317.599 225.627 317.646 225.437 317.71C225.25 317.771 225.099 317.865 224.983 317.99C224.869 318.113 224.812 318.281 224.812 318.494C224.812 318.786 224.92 319.006 225.135 319.155C225.353 319.302 225.629 319.375 225.963 319.375ZM230.703 316.719V320H229.865V314.545H230.674V315.398H230.745C230.873 315.121 231.067 314.898 231.328 314.73C231.588 314.56 231.924 314.474 232.336 314.474C232.706 314.474 233.029 314.55 233.306 314.702C233.583 314.851 233.798 315.078 233.952 315.384C234.106 315.687 234.183 316.07 234.183 316.534V320H233.345V316.591C233.345 316.162 233.234 315.829 233.011 315.589C232.788 315.348 232.483 315.227 232.095 315.227C231.827 315.227 231.588 315.285 231.377 315.401C231.169 315.517 231.005 315.687 230.884 315.909C230.763 316.132 230.703 316.402 230.703 316.719ZM237.774 320.114C237.319 320.114 236.918 319.999 236.57 319.769C236.222 319.537 235.95 319.21 235.753 318.789C235.557 318.365 235.459 317.865 235.459 317.287C235.459 316.714 235.557 316.217 235.753 315.795C235.95 315.374 236.223 315.049 236.574 314.819C236.924 314.589 237.329 314.474 237.788 314.474C238.143 314.474 238.424 314.534 238.63 314.652C238.838 314.768 238.997 314.901 239.106 315.05C239.217 315.196 239.303 315.317 239.365 315.412H239.436V312.727H240.274V320H239.464V319.162H239.365C239.303 319.261 239.216 319.387 239.102 319.538C238.988 319.687 238.826 319.821 238.616 319.94C238.405 320.056 238.124 320.114 237.774 320.114ZM237.888 319.361C238.224 319.361 238.508 319.273 238.74 319.098C238.972 318.92 239.148 318.675 239.269 318.363C239.39 318.048 239.45 317.685 239.45 317.273C239.45 316.866 239.391 316.509 239.273 316.204C239.154 315.896 238.979 315.657 238.747 315.487C238.515 315.314 238.229 315.227 237.888 315.227C237.532 315.227 237.237 315.318 237 315.501C236.765 315.681 236.589 315.926 236.471 316.236C236.355 316.544 236.297 316.889 236.297 317.273C236.297 317.661 236.356 318.014 236.474 318.331C236.595 318.646 236.773 318.897 237.007 319.084C237.244 319.268 237.537 319.361 237.888 319.361ZM248.601 315.767L247.849 315.98C247.801 315.855 247.731 315.733 247.639 315.614C247.549 315.494 247.426 315.394 247.27 315.316C247.113 315.238 246.913 315.199 246.67 315.199C246.336 315.199 246.058 315.276 245.835 315.43C245.615 315.581 245.505 315.774 245.505 316.009C245.505 316.217 245.581 316.381 245.732 316.502C245.884 316.623 246.12 316.723 246.442 316.804L247.252 317.003C247.74 317.121 248.103 317.302 248.342 317.546C248.581 317.788 248.701 318.099 248.701 318.48C248.701 318.793 248.611 319.072 248.431 319.318C248.253 319.564 248.005 319.759 247.685 319.901C247.366 320.043 246.994 320.114 246.57 320.114C246.014 320.114 245.553 319.993 245.189 319.751C244.824 319.51 244.593 319.157 244.496 318.693L245.292 318.494C245.367 318.788 245.511 319.008 245.721 319.155C245.934 319.302 246.213 319.375 246.556 319.375C246.947 319.375 247.257 319.292 247.486 319.126C247.718 318.958 247.834 318.757 247.834 318.523C247.834 318.333 247.768 318.175 247.635 318.047C247.503 317.917 247.299 317.82 247.025 317.756L246.116 317.543C245.616 317.424 245.249 317.241 245.015 316.992C244.783 316.741 244.667 316.428 244.667 316.051C244.667 315.743 244.753 315.471 244.926 315.234C245.101 314.998 245.339 314.812 245.64 314.677C245.943 314.542 246.286 314.474 246.67 314.474C247.209 314.474 247.633 314.593 247.941 314.83C248.251 315.066 248.471 315.379 248.601 315.767ZM252.335 314.545V315.256H249.508V314.545H252.335ZM250.332 313.239H251.17V318.438C251.17 318.674 251.204 318.852 251.273 318.97C251.344 319.086 251.434 319.164 251.543 319.205C251.654 319.242 251.771 319.261 251.894 319.261C251.987 319.261 252.062 319.257 252.121 319.247C252.181 319.235 252.228 319.226 252.263 319.219L252.434 319.972C252.377 319.993 252.298 320.014 252.196 320.036C252.094 320.059 251.965 320.071 251.809 320.071C251.572 320.071 251.34 320.02 251.113 319.918C250.888 319.817 250.701 319.661 250.552 319.453C250.405 319.245 250.332 318.982 250.332 318.665V313.239ZM255.2 320.128C254.855 320.128 254.541 320.063 254.259 319.933C253.978 319.8 253.754 319.609 253.588 319.361C253.422 319.11 253.339 318.807 253.339 318.452C253.339 318.139 253.401 317.886 253.524 317.692C253.647 317.495 253.812 317.341 254.018 317.23C254.224 317.119 254.451 317.036 254.7 316.982C254.951 316.925 255.203 316.88 255.456 316.847C255.787 316.804 256.056 316.772 256.262 316.751C256.47 316.727 256.622 316.688 256.717 316.634C256.814 316.579 256.862 316.484 256.862 316.349V316.321C256.862 315.971 256.766 315.698 256.575 315.504C256.385 315.31 256.098 315.213 255.712 315.213C255.312 315.213 254.998 315.301 254.771 315.476C254.543 315.651 254.384 315.838 254.291 316.037L253.496 315.753C253.638 315.421 253.827 315.163 254.064 314.979C254.303 314.792 254.563 314.661 254.845 314.588C255.129 314.512 255.409 314.474 255.683 314.474C255.858 314.474 256.06 314.496 256.287 314.538C256.517 314.579 256.738 314.663 256.951 314.79C257.166 314.918 257.345 315.111 257.487 315.369C257.629 315.627 257.7 315.973 257.7 316.406V320H256.862V319.261H256.82C256.763 319.38 256.668 319.506 256.536 319.641C256.403 319.776 256.227 319.891 256.006 319.986C255.786 320.08 255.518 320.128 255.2 320.128ZM255.328 319.375C255.66 319.375 255.939 319.31 256.166 319.18C256.396 319.049 256.569 318.881 256.685 318.675C256.803 318.469 256.862 318.253 256.862 318.026V317.259C256.827 317.301 256.749 317.34 256.628 317.376C256.509 317.409 256.372 317.438 256.216 317.464C256.062 317.488 255.912 317.509 255.765 317.528C255.621 317.545 255.503 317.559 255.413 317.571C255.196 317.599 254.992 317.646 254.803 317.71C254.616 317.771 254.464 317.865 254.348 317.99C254.234 318.113 254.178 318.281 254.178 318.494C254.178 318.786 254.285 319.006 254.501 319.155C254.719 319.302 254.994 319.375 255.328 319.375ZM259.23 320V314.545H260.04V315.369H260.096C260.196 315.099 260.376 314.88 260.636 314.712C260.897 314.544 261.19 314.46 261.517 314.46C261.578 314.46 261.655 314.461 261.748 314.464C261.84 314.466 261.91 314.47 261.957 314.474V315.327C261.929 315.32 261.864 315.309 261.762 315.295C261.662 315.278 261.557 315.27 261.446 315.27C261.181 315.27 260.944 315.326 260.736 315.437C260.53 315.546 260.366 315.697 260.246 315.891C260.127 316.083 260.068 316.302 260.068 316.548V320H259.23ZM265.665 314.545V315.256H262.838V314.545H265.665ZM263.662 313.239H264.5V318.438C264.5 318.674 264.534 318.852 264.603 318.97C264.674 319.086 264.764 319.164 264.873 319.205C264.984 319.242 265.101 319.261 265.224 319.261C265.317 319.261 265.392 319.257 265.452 319.247C265.511 319.235 265.558 319.226 265.594 319.219L265.764 319.972C265.707 319.993 265.628 320.014 265.526 320.036C265.424 320.059 265.295 320.071 265.139 320.071C264.902 320.071 264.67 320.02 264.443 319.918C264.218 319.817 264.031 319.661 263.882 319.453C263.735 319.245 263.662 318.982 263.662 318.665V313.239ZM271.939 322.159C271.535 322.159 271.187 322.107 270.895 322.003C270.604 321.901 270.362 321.766 270.167 321.598C269.976 321.432 269.823 321.255 269.709 321.065L270.377 320.597C270.453 320.696 270.549 320.81 270.665 320.938C270.781 321.068 270.939 321.18 271.14 321.275C271.344 321.372 271.61 321.42 271.939 321.42C272.38 321.42 272.743 321.314 273.03 321.101C273.316 320.888 273.459 320.554 273.459 320.099V318.991H273.388C273.327 319.091 273.239 319.214 273.126 319.361C273.014 319.505 272.853 319.634 272.643 319.748C272.434 319.859 272.153 319.915 271.797 319.915C271.357 319.915 270.962 319.811 270.611 319.602C270.263 319.394 269.988 319.091 269.784 318.693C269.583 318.295 269.482 317.812 269.482 317.244C269.482 316.686 269.58 316.199 269.777 315.785C269.973 315.368 270.247 315.046 270.597 314.819C270.948 314.589 271.352 314.474 271.812 314.474C272.167 314.474 272.448 314.534 272.657 314.652C272.867 314.768 273.028 314.901 273.14 315.05C273.253 315.196 273.341 315.317 273.403 315.412H273.488V314.545H274.297V320.156C274.297 320.625 274.191 321.006 273.978 321.3C273.767 321.596 273.483 321.812 273.126 321.95C272.77 322.089 272.375 322.159 271.939 322.159ZM271.911 319.162C272.247 319.162 272.531 319.085 272.763 318.931C272.995 318.777 273.172 318.556 273.292 318.267C273.413 317.978 273.474 317.633 273.474 317.23C273.474 316.837 273.414 316.49 273.296 316.19C273.178 315.889 273.002 315.653 272.77 315.483C272.538 315.312 272.252 315.227 271.911 315.227C271.556 315.227 271.26 315.317 271.023 315.497C270.789 315.677 270.613 315.919 270.494 316.222C270.378 316.525 270.32 316.861 270.32 317.23C270.32 317.609 270.379 317.944 270.498 318.235C270.618 318.524 270.796 318.751 271.03 318.917C271.267 319.08 271.561 319.162 271.911 319.162ZM275.831 320V314.545H276.641V315.369H276.698C276.797 315.099 276.977 314.88 277.238 314.712C277.498 314.544 277.792 314.46 278.118 314.46C278.18 314.46 278.257 314.461 278.349 314.464C278.442 314.466 278.511 314.47 278.559 314.474V315.327C278.53 315.32 278.465 315.309 278.363 315.295C278.264 315.278 278.159 315.27 278.047 315.27C277.782 315.27 277.546 315.326 277.337 315.437C277.131 315.546 276.968 315.697 276.847 315.891C276.729 316.083 276.67 316.302 276.67 316.548V320H275.831ZM281.602 320.114C281.11 320.114 280.678 319.996 280.306 319.762C279.937 319.528 279.648 319.2 279.439 318.778C279.233 318.357 279.131 317.865 279.131 317.301C279.131 316.733 279.233 316.237 279.439 315.813C279.648 315.389 279.937 315.06 280.306 314.826C280.678 314.592 281.11 314.474 281.602 314.474C282.095 314.474 282.525 314.592 282.895 314.826C283.266 315.06 283.555 315.389 283.761 315.813C283.97 316.237 284.074 316.733 284.074 317.301C284.074 317.865 283.97 318.357 283.761 318.778C283.555 319.2 283.266 319.528 282.895 319.762C282.525 319.996 282.095 320.114 281.602 320.114ZM281.602 319.361C281.976 319.361 282.284 319.265 282.525 319.073C282.767 318.881 282.946 318.629 283.062 318.317C283.178 318.004 283.236 317.666 283.236 317.301C283.236 316.937 283.178 316.597 283.062 316.282C282.946 315.967 282.767 315.713 282.525 315.518C282.284 315.324 281.976 315.227 281.602 315.227C281.228 315.227 280.92 315.324 280.679 315.518C280.437 315.713 280.259 315.967 280.143 316.282C280.027 316.597 279.969 316.937 279.969 317.301C279.969 317.666 280.027 318.004 280.143 318.317C280.259 318.629 280.437 318.881 280.679 319.073C280.92 319.265 281.228 319.361 281.602 319.361ZM286.403 320L284.741 314.545H285.622L286.801 318.722H286.858L288.023 314.545H288.917L290.068 318.707H290.125L291.304 314.545H292.184L290.523 320H289.699L288.506 315.81H288.42L287.227 320H286.403ZM293.292 320V314.545H294.131V320H293.292ZM293.719 313.636C293.555 313.636 293.414 313.581 293.296 313.469C293.18 313.358 293.122 313.224 293.122 313.068C293.122 312.912 293.18 312.778 293.296 312.667C293.414 312.556 293.555 312.5 293.719 312.5C293.882 312.5 294.022 312.556 294.138 312.667C294.256 312.778 294.315 312.912 294.315 313.068C294.315 313.224 294.256 313.358 294.138 313.469C294.022 313.581 293.882 313.636 293.719 313.636ZM296.504 316.719V320H295.665V314.545H296.475V315.398H296.546C296.674 315.121 296.868 314.898 297.129 314.73C297.389 314.56 297.725 314.474 298.137 314.474C298.506 314.474 298.83 314.55 299.107 314.702C299.384 314.851 299.599 315.078 299.753 315.384C299.907 315.687 299.984 316.07 299.984 316.534V320H299.146V316.591C299.146 316.162 299.034 315.829 298.812 315.589C298.589 315.348 298.284 315.227 297.896 315.227C297.628 315.227 297.389 315.285 297.178 315.401C296.97 315.517 296.805 315.687 296.685 315.909C296.564 316.132 296.504 316.402 296.504 316.719ZM303.717 322.159C303.312 322.159 302.964 322.107 302.673 322.003C302.382 321.901 302.139 321.766 301.945 321.598C301.753 321.432 301.6 321.255 301.487 321.065L302.154 320.597C302.23 320.696 302.326 320.81 302.442 320.938C302.558 321.068 302.717 321.18 302.918 321.275C303.121 321.372 303.388 321.42 303.717 321.42C304.157 321.42 304.521 321.314 304.807 321.101C305.093 320.888 305.237 320.554 305.237 320.099V318.991H305.166C305.104 319.091 305.017 319.214 304.903 319.361C304.792 319.505 304.631 319.634 304.42 319.748C304.212 319.859 303.93 319.915 303.575 319.915C303.134 319.915 302.739 319.811 302.389 319.602C302.041 319.394 301.765 319.091 301.561 318.693C301.36 318.295 301.259 317.812 301.259 317.244C301.259 316.686 301.358 316.199 301.554 315.785C301.751 315.368 302.024 315.046 302.374 314.819C302.725 314.589 303.13 314.474 303.589 314.474C303.944 314.474 304.226 314.534 304.434 314.652C304.645 314.768 304.806 314.901 304.917 315.05C305.031 315.196 305.118 315.317 305.18 315.412H305.265V314.545H306.075V320.156C306.075 320.625 305.968 321.006 305.755 321.3C305.544 321.596 305.26 321.812 304.903 321.95C304.548 322.089 304.152 322.159 303.717 322.159ZM303.688 319.162C304.025 319.162 304.309 319.085 304.541 318.931C304.773 318.777 304.949 318.556 305.07 318.267C305.191 317.978 305.251 317.633 305.251 317.23C305.251 316.837 305.192 316.49 305.073 316.19C304.955 315.889 304.78 315.653 304.548 315.483C304.316 315.312 304.029 315.227 303.688 315.227C303.333 315.227 303.037 315.317 302.801 315.497C302.566 315.677 302.39 315.919 302.271 316.222C302.155 316.525 302.097 316.861 302.097 317.23C302.097 317.609 302.157 317.944 302.275 318.235C302.396 318.524 302.573 318.751 302.808 318.917C303.044 319.08 303.338 319.162 303.688 319.162Z" fill="#64748B"/>
<circle cx="396" cy="312" r="10" fill="#F3F4F6"/>
<path fillRule="evenodd" clipRule="evenodd" d="M396 308.4C396.332 308.4 396.6 308.669 396.6 309L396.6 315C396.6 315.331 396.332 315.6 396 315.6C395.669 315.6 395.4 315.331 395.4 315L395.4 309C395.4 308.669 395.669 308.4 396 308.4Z" fill="#0E172B"/>
<path fillRule="evenodd" clipRule="evenodd" d="M392.4 312C392.4 311.669 392.669 311.4 393 311.4L399 311.4C399.332 311.4 399.6 311.669 399.6 312C399.6 312.331 399.332 312.6 399 312.6L393 312.6C392.669 312.6 392.4 312.331 392.4 312Z" fill="#0E172B"/>
<rect x="65" y="71" width="79" height="15" rx="7.5" fill="#F3F4F6"/>
<rect x="65" y="135" width="79" height="7" rx="3.5" fill="#F3F4F6"/>
<rect x="65" y="148" width="61" height="7" rx="3.5" fill="#F3F4F6"/>
<rect x="65" y="162" width="69" height="7" rx="3.5" fill="#F3F4F6"/>
<rect x="65" y="176" width="43" height="7" rx="3.5" fill="#F3F4F6"/>
<rect x="65" y="190" width="54" height="7" rx="3.5" fill="#F3F4F6"/>
<rect x="92" y="320" width="48" height="3" rx="1.5" fill="#F3F4F6"/>
<rect x="92" y="326" width="36" height="3" rx="1.5" fill="#F3F4F6"/>
<rect x="65" y="315" width="20" height="20" rx="10" fill="#F3F4F6"/>
</g>
<defs>
<filter id="filter0_d_1788_946" x="-46" y="-48" width="302" height="492" filterUnits="userSpaceOnUse" color-interpolation-filters="sRGB">
<feFlood flood-opacity="0" result="BackgroundImageFix"/>
<feColorMatrix in="SourceAlpha" type="matrix" values="0 0 0 0 0 0 0 0 0 0 0 0 0 0 0 0 0 0 127 0" result="hardAlpha"/>
<feOffset dy="-2"/>
<feGaussianBlur stdDeviation="50"/>
<feComposite in2="hardAlpha" operator="out"/>
<feColorMatrix type="matrix" values="0 0 0 0 0.329531 0 0 0 0 0.33976 0 0 0 0 0.4625 0 0 0 0.1 0"/>
<feBlend mode="normal" in2="BackgroundImageFix" result="effect1_dropShadow_1788_946"/>
<feBlend mode="normal" in="SourceGraphic" in2="effect1_dropShadow_1788_946" result="shape"/>
</filter>
<filter id="filter1_d_1788_946" x="70" y="-48" width="460" height="492" filterUnits="userSpaceOnUse" color-interpolation-filters="sRGB">
<feFlood flood-opacity="0" result="BackgroundImageFix"/>
<feColorMatrix in="SourceAlpha" type="matrix" values="0 0 0 0 0 0 0 0 0 0 0 0 0 0 0 0 0 0 127 0" result="hardAlpha"/>
<feOffset dy="-2"/>
<feGaussianBlur stdDeviation="50"/>
<feComposite in2="hardAlpha" operator="out"/>
<feColorMatrix type="matrix" values="0 0 0 0 0.329531 0 0 0 0 0.33976 0 0 0 0 0.4625 0 0 0 0.1 0"/>
<feBlend mode="normal" in2="BackgroundImageFix" result="effect1_dropShadow_1788_946"/>
<feBlend mode="normal" in="SourceGraphic" in2="effect1_dropShadow_1788_946" result="shape"/>
</filter>
<linearGradient id="paint0_linear_1788_946" x1="242" y1="40" x2="242" y2="369.915" gradientUnits="userSpaceOnUse">
<stop stop-color="white"/>
<stop offset="1" stop-color="white" stop-opacity="0"/>
</linearGradient>
<linearGradient id="paint1_linear_1788_946" x1="195.5" y1="86" x2="195.5" y2="272" gradientUnits="userSpaceOnUse">
<stop stop-color="#E8E8E8" stop-opacity="0"/>
<stop offset="1" stop-color="#E8E8E8"/>
</linearGradient>
<linearGradient id="paint2_linear_1788_946" x1="211.5" y1="86" x2="211.5" y2="272" gradientUnits="userSpaceOnUse">
<stop stop-color="#E8E8E8" stop-opacity="0"/>
<stop offset="1" stop-color="#E8E8E8"/>
</linearGradient>
<linearGradient id="paint3_linear_1788_946" x1="227.5" y1="86" x2="227.5" y2="272" gradientUnits="userSpaceOnUse">
<stop stop-color="#E8E8E8" stop-opacity="0"/>
<stop offset="1" stop-color="#E8E8E8"/>
</linearGradient>
<linearGradient id="paint4_linear_1788_946" x1="243.5" y1="86" x2="243.5" y2="272" gradientUnits="userSpaceOnUse">
<stop stop-color="#E8E8E8" stop-opacity="0"/>
<stop offset="1" stop-color="#E8E8E8"/>
</linearGradient>
<linearGradient id="paint5_linear_1788_946" x1="259.5" y1="86" x2="259.5" y2="272" gradientUnits="userSpaceOnUse">
<stop stop-color="#E8E8E8" stop-opacity="0"/>
<stop offset="1" stop-color="#E8E8E8"/>
</linearGradient>
<linearGradient id="paint6_linear_1788_946" x1="275.5" y1="86" x2="275.5" y2="272" gradientUnits="userSpaceOnUse">
<stop stop-color="#E8E8E8" stop-opacity="0"/>
<stop offset="1" stop-color="#E8E8E8"/>
</linearGradient>
<linearGradient id="paint7_linear_1788_946" x1="291.5" y1="86" x2="291.5" y2="272" gradientUnits="userSpaceOnUse">
<stop stop-color="#E8E8E8" stop-opacity="0"/>
<stop offset="1" stop-color="#E8E8E8"/>
</linearGradient>
<linearGradient id="paint8_linear_1788_946" x1="307.5" y1="86" x2="307.5" y2="272" gradientUnits="userSpaceOnUse">
<stop stop-color="#E8E8E8" stop-opacity="0"/>
<stop offset="1" stop-color="#E8E8E8"/>
</linearGradient>
<linearGradient id="paint9_linear_1788_946" x1="323.5" y1="86" x2="323.5" y2="272" gradientUnits="userSpaceOnUse">
<stop stop-color="#E8E8E8" stop-opacity="0"/>
<stop offset="1" stop-color="#E8E8E8"/>
</linearGradient>
<linearGradient id="paint10_linear_1788_946" x1="339.5" y1="86" x2="339.5" y2="272" gradientUnits="userSpaceOnUse">
<stop stop-color="#E8E8E8" stop-opacity="0"/>
<stop offset="1" stop-color="#E8E8E8"/>
</linearGradient>
<linearGradient id="paint11_linear_1788_946" x1="355.5" y1="86" x2="355.5" y2="272" gradientUnits="userSpaceOnUse">
<stop stop-color="#E8E8E8" stop-opacity="0"/>
<stop offset="1" stop-color="#E8E8E8"/>
</linearGradient>
<linearGradient id="paint12_linear_1788_946" x1="371.5" y1="86" x2="371.5" y2="272" gradientUnits="userSpaceOnUse">
<stop stop-color="#E8E8E8" stop-opacity="0"/>
<stop offset="1" stop-color="#E8E8E8"/>
</linearGradient>
<linearGradient id="paint13_linear_1788_946" x1="387.5" y1="86" x2="387.5" y2="272" gradientUnits="userSpaceOnUse">
<stop stop-color="#E8E8E8" stop-opacity="0"/>
<stop offset="1" stop-color="#E8E8E8"/>
</linearGradient>
<linearGradient id="paint14_linear_1788_946" x1="403.5" y1="86" x2="403.5" y2="272" gradientUnits="userSpaceOnUse">
<stop stop-color="#E8E8E8" stop-opacity="0"/>
<stop offset="1" stop-color="#E8E8E8"/>
</linearGradient>
</defs>
</svg>
