<svg width="364" height="364" viewBox="0 0 364 364" fill="none" xmlns="http://www.w3.org/2000/svg">
<g opacity="0.1">
<path fillRule="evenodd" clipRule="evenodd" d="M363.013 282.701L-3.51462e-06 282.701L-3.59278e-06 281.807L363.013 281.807L363.013 282.701Z" fill="url(#paint0_linear_1730_8284)"/>
<path fillRule="evenodd" clipRule="evenodd" d="M363.013 311.061L-2.27495e-06 311.061L-2.35311e-06 310.167L363.013 310.167L363.013 311.061Z" fill="url(#paint1_linear_1730_8284)"/>
<path fillRule="evenodd" clipRule="evenodd" d="M363.013 339.421L-1.03528e-06 339.422L-1.11344e-06 338.527L363.013 338.527L363.013 339.421Z" fill="url(#paint2_linear_1730_8284)"/>
<path fillRule="evenodd" clipRule="evenodd" d="M252.596 0.987294L252.596 364L251.702 364L251.702 0.987294L252.596 0.987294Z" fill="url(#paint3_linear_1730_8284)"/>
<path fillRule="evenodd" clipRule="evenodd" d="M280.957 0.987292L280.957 364L280.063 364L280.063 0.987292L280.957 0.987292Z" fill="url(#paint4_linear_1730_8284)"/>
<path fillRule="evenodd" clipRule="evenodd" d="M309.317 0.987291L309.317 364L308.423 364L308.423 0.987291L309.317 0.987291Z" fill="url(#paint5_linear_1730_8284)"/>
<path fillRule="evenodd" clipRule="evenodd" d="M337.678 0.98729L337.678 364L336.784 364L336.783 0.98729L337.678 0.98729Z" fill="url(#paint6_linear_1730_8284)"/>
<path fillRule="evenodd" clipRule="evenodd" d="M363.013 254.34L-4.75429e-06 254.34L-4.83245e-06 253.446L363.013 253.446L363.013 254.34Z" fill="url(#paint7_linear_1730_8284)"/>
<path fillRule="evenodd" clipRule="evenodd" d="M224.236 0.987295L224.236 364L223.342 364L223.342 0.987295L224.236 0.987295Z" fill="url(#paint8_linear_1730_8284)"/>
<path fillRule="evenodd" clipRule="evenodd" d="M363.013 225.98L-5.99396e-06 225.98L-6.07212e-06 225.086L363.013 225.086L363.013 225.98Z" fill="url(#paint9_linear_1730_8284)"/>
<path fillRule="evenodd" clipRule="evenodd" d="M195.875 0.987296L195.875 364L194.981 364L194.981 0.987296L195.875 0.987296Z" fill="url(#paint10_linear_1730_8284)"/>
<path fillRule="evenodd" clipRule="evenodd" d="M363.013 197.62L-7.23363e-06 197.62L-7.3118e-06 196.726L363.013 196.726L363.013 197.62Z" fill="url(#paint11_linear_1730_8284)"/>
<path fillRule="evenodd" clipRule="evenodd" d="M167.515 0.987297L167.515 364L166.621 364L166.621 0.987297L167.515 0.987297Z" fill="url(#paint12_linear_1730_8284)"/>
<path fillRule="evenodd" clipRule="evenodd" d="M363.013 169.259L-8.47331e-06 169.259L-8.55147e-06 168.365L363.013 168.365L363.013 169.259Z" fill="url(#paint13_linear_1730_8284)"/>
<path fillRule="evenodd" clipRule="evenodd" d="M139.155 0.987299L139.155 364L138.261 364L138.261 0.987299L139.155 0.987299Z" fill="url(#paint14_linear_1730_8284)"/>
<path fillRule="evenodd" clipRule="evenodd" d="M363.013 140.899L-9.71298e-06 140.899L-9.79114e-06 140.005L363.013 140.005L363.013 140.899Z" fill="url(#paint15_linear_1730_8284)"/>
<path fillRule="evenodd" clipRule="evenodd" d="M110.794 0.9873L110.795 364L109.9 364L109.9 0.9873L110.794 0.9873Z" fill="url(#paint16_linear_1730_8284)"/>
<path fillRule="evenodd" clipRule="evenodd" d="M363.013 112.539L-1.09526e-05 112.539L-1.10308e-05 111.645L363.013 111.644L363.013 112.539Z" fill="url(#paint17_linear_1730_8284)"/>
<path fillRule="evenodd" clipRule="evenodd" d="M82.4341 0.987301L82.4342 364L81.5401 364L81.5401 0.987301L82.4341 0.987301Z" fill="url(#paint18_linear_1730_8284)"/>
<path fillRule="evenodd" clipRule="evenodd" d="M363.013 84.1782L-1.21923e-05 84.1782L-1.22705e-05 83.2841L363.013 83.2841L363.013 84.1782Z" fill="url(#paint19_linear_1730_8284)"/>
<path fillRule="evenodd" clipRule="evenodd" d="M54.0738 0.987302L54.0738 364L53.1798 364L53.1797 0.987302L54.0738 0.987302Z" fill="url(#paint20_linear_1730_8284)"/>
<path fillRule="evenodd" clipRule="evenodd" d="M363.013 55.8178L-1.3432e-05 55.8178L-1.35102e-05 54.9238L363.013 54.9237L363.013 55.8178Z" fill="url(#paint21_linear_1730_8284)"/>
<path fillRule="evenodd" clipRule="evenodd" d="M25.7134 0.987304L25.7135 364L24.8194 364L24.8194 0.987304L25.7134 0.987304Z" fill="url(#paint22_linear_1730_8284)"/>
<path d="M305.914 84.178C307.49 83.5946 308.734 82.3514 309.317 80.7747C309.9 82.3514 311.143 83.5946 312.72 84.178C311.143 84.7614 309.9 86.0045 309.317 87.5812C308.734 86.0045 307.49 84.7614 305.914 84.178Z" fill="url(#paint23_linear_1730_8284)"/>
<path d="M305.914 55.8176C307.49 55.2342 308.734 53.9911 309.317 52.4144C309.9 53.9911 311.143 55.2342 312.72 55.8176C311.143 56.401 309.9 57.6442 309.317 59.2209C308.734 57.6442 307.49 56.401 305.914 55.8176Z" fill="url(#paint24_linear_1730_8284)"/>
<path d="M305.914 112.538C307.49 111.955 308.734 110.712 309.317 109.135C309.9 110.712 311.143 111.955 312.72 112.538C311.143 113.122 309.9 114.365 309.317 115.942C308.734 114.365 307.49 113.122 305.914 112.538Z" fill="url(#paint25_linear_1730_8284)"/>
<path d="M305.914 140.899C307.49 140.315 308.734 139.072 309.317 137.495C309.9 139.072 311.143 140.315 312.72 140.899C311.143 141.482 309.9 142.725 309.317 144.302C308.734 142.725 307.49 141.482 305.914 140.899Z" fill="url(#paint26_linear_1730_8284)"/>
<path d="M305.914 169.259C307.49 168.676 308.734 167.433 309.317 165.856C309.9 167.433 311.143 168.676 312.72 169.259C311.143 169.843 309.9 171.086 309.317 172.662C308.734 171.086 307.49 169.843 305.914 169.259Z" fill="url(#paint27_linear_1730_8284)"/>
<path d="M305.914 197.619C307.49 197.036 308.734 195.793 309.317 194.216C309.9 195.793 311.143 197.036 312.72 197.619C311.143 198.203 309.9 199.446 309.317 201.023C308.734 199.446 307.49 198.203 305.914 197.619Z" fill="url(#paint28_linear_1730_8284)"/>
<path d="M305.914 254.34C307.49 253.757 308.734 252.514 309.317 250.937C309.9 252.514 311.143 253.757 312.72 254.34C311.143 254.924 309.9 256.167 309.317 257.743C308.734 256.167 307.49 254.924 305.914 254.34Z" fill="url(#paint29_linear_1730_8284)"/>
<path d="M305.914 225.98C307.49 225.396 308.734 224.153 309.317 222.577C309.9 224.153 311.143 225.396 312.72 225.98C311.143 226.563 309.9 227.806 309.317 229.383C308.734 227.806 307.49 226.563 305.914 225.98Z" fill="url(#paint30_linear_1730_8284)"/>
<path d="M305.914 282.701C307.49 282.117 308.734 280.874 309.317 279.297C309.9 280.874 311.143 282.117 312.72 282.701C311.143 283.284 309.9 284.527 309.317 286.104C308.734 284.527 307.49 283.284 305.914 282.701Z" fill="url(#paint31_linear_1730_8284)"/>
<path d="M305.914 311.061C307.49 310.477 308.734 309.234 309.317 307.658C309.9 309.234 311.143 310.477 312.72 311.061C311.143 311.644 309.9 312.887 309.317 314.464C308.734 312.887 307.49 311.644 305.914 311.061Z" fill="url(#paint32_linear_1730_8284)"/>
<path d="M305.914 339.421C307.49 338.838 308.733 337.595 309.317 336.018C309.9 337.595 311.143 338.838 312.72 339.421C311.143 340.005 309.9 341.248 309.317 342.825C308.733 341.248 307.49 340.005 305.914 339.421Z" fill="url(#paint33_linear_1730_8284)"/>
<path d="M334.274 84.178C335.851 83.5946 337.094 82.3514 337.677 80.7747C338.261 82.3514 339.504 83.5946 341.081 84.178C339.504 84.7614 338.261 86.0045 337.677 87.5812C337.094 86.0045 335.851 84.7614 334.274 84.178Z" fill="url(#paint34_linear_1730_8284)"/>
<path d="M334.274 55.8176C335.851 55.2342 337.094 53.9911 337.677 52.4144C338.261 53.9911 339.504 55.2342 341.081 55.8176C339.504 56.401 338.261 57.6442 337.677 59.2209C337.094 57.6442 335.851 56.401 334.274 55.8176Z" fill="url(#paint35_linear_1730_8284)"/>
<path d="M334.274 112.538C335.851 111.955 337.094 110.712 337.677 109.135C338.261 110.712 339.504 111.955 341.081 112.538C339.504 113.122 338.261 114.365 337.677 115.942C337.094 114.365 335.851 113.122 334.274 112.538Z" fill="url(#paint36_linear_1730_8284)"/>
<path d="M334.274 140.899C335.851 140.315 337.094 139.072 337.677 137.495C338.261 139.072 339.504 140.315 341.081 140.899C339.504 141.482 338.261 142.725 337.677 144.302C337.094 142.725 335.851 141.482 334.274 140.899Z" fill="url(#paint37_linear_1730_8284)"/>
<path d="M334.274 169.259C335.851 168.676 337.094 167.433 337.677 165.856C338.261 167.433 339.504 168.676 341.081 169.259C339.504 169.843 338.261 171.086 337.677 172.662C337.094 171.086 335.851 169.843 334.274 169.259Z" fill="url(#paint38_linear_1730_8284)"/>
<path d="M334.274 197.619C335.851 197.036 337.094 195.793 337.677 194.216C338.261 195.793 339.504 197.036 341.081 197.619C339.504 198.203 338.261 199.446 337.677 201.023C337.094 199.446 335.851 198.203 334.274 197.619Z" fill="url(#paint39_linear_1730_8284)"/>
<path d="M334.274 254.34C335.851 253.757 337.094 252.514 337.677 250.937C338.261 252.514 339.504 253.757 341.081 254.34C339.504 254.924 338.261 256.167 337.677 257.743C337.094 256.167 335.851 254.924 334.274 254.34Z" fill="url(#paint40_linear_1730_8284)"/>
<path d="M334.274 225.98C335.851 225.396 337.094 224.153 337.677 222.577C338.261 224.153 339.504 225.396 341.081 225.98C339.504 226.563 338.261 227.806 337.677 229.383C337.094 227.806 335.851 226.563 334.274 225.98Z" fill="url(#paint41_linear_1730_8284)"/>
<path d="M334.274 282.701C335.851 282.117 337.094 280.874 337.677 279.297C338.261 280.874 339.504 282.117 341.081 282.701C339.504 283.284 338.261 284.527 337.677 286.104C337.094 284.527 335.851 283.284 334.274 282.701Z" fill="url(#paint42_linear_1730_8284)"/>
<path d="M334.274 311.061C335.851 310.477 337.094 309.234 337.677 307.658C338.261 309.234 339.504 310.477 341.081 311.061C339.504 311.644 338.261 312.887 337.677 314.464C337.094 312.887 335.851 311.644 334.274 311.061Z" fill="url(#paint43_linear_1730_8284)"/>
<path d="M334.274 339.421C335.851 338.838 337.094 337.595 337.677 336.018C338.261 337.595 339.504 338.838 341.08 339.421C339.504 340.005 338.261 341.248 337.677 342.825C337.094 341.248 335.851 340.005 334.274 339.421Z" fill="url(#paint44_linear_1730_8284)"/>
<path d="M277.553 84.178C279.13 83.5946 280.373 82.3514 280.957 80.7747C281.54 82.3514 282.783 83.5946 284.36 84.178C282.783 84.7614 281.54 86.0045 280.957 87.5812C280.373 86.0045 279.13 84.7614 277.553 84.178Z" fill="url(#paint45_linear_1730_8284)"/>
<path d="M277.553 55.8176C279.13 55.2342 280.373 53.9911 280.957 52.4144C281.54 53.9911 282.783 55.2342 284.36 55.8176C282.783 56.401 281.54 57.6442 280.957 59.2209C280.373 57.6442 279.13 56.401 277.553 55.8176Z" fill="url(#paint46_linear_1730_8284)"/>
<path d="M277.553 112.538C279.13 111.955 280.373 110.712 280.957 109.135C281.54 110.712 282.783 111.955 284.36 112.538C282.783 113.122 281.54 114.365 280.957 115.942C280.373 114.365 279.13 113.122 277.553 112.538Z" fill="url(#paint47_linear_1730_8284)"/>
<path d="M277.553 140.899C279.13 140.315 280.373 139.072 280.957 137.495C281.54 139.072 282.783 140.315 284.36 140.899C282.783 141.482 281.54 142.725 280.957 144.302C280.373 142.725 279.13 141.482 277.553 140.899Z" fill="url(#paint48_linear_1730_8284)"/>
<path d="M277.553 169.259C279.13 168.676 280.373 167.433 280.957 165.856C281.54 167.433 282.783 168.676 284.36 169.259C282.783 169.843 281.54 171.086 280.957 172.662C280.373 171.086 279.13 169.843 277.553 169.259Z" fill="url(#paint49_linear_1730_8284)"/>
<path d="M277.553 197.619C279.13 197.036 280.373 195.793 280.957 194.216C281.54 195.793 282.783 197.036 284.36 197.619C282.783 198.203 281.54 199.446 280.957 201.023C280.373 199.446 279.13 198.203 277.553 197.619Z" fill="url(#paint50_linear_1730_8284)"/>
<path d="M277.553 254.34C279.13 253.757 280.373 252.514 280.957 250.937C281.54 252.514 282.783 253.757 284.36 254.34C282.783 254.924 281.54 256.167 280.957 257.743C280.373 256.167 279.13 254.924 277.553 254.34Z" fill="url(#paint51_linear_1730_8284)"/>
<path d="M277.553 225.98C279.13 225.396 280.373 224.153 280.957 222.577C281.54 224.153 282.783 225.396 284.36 225.98C282.783 226.563 281.54 227.806 280.957 229.383C280.373 227.806 279.13 226.563 277.553 225.98Z" fill="url(#paint52_linear_1730_8284)"/>
<path d="M277.553 282.701C279.13 282.117 280.373 280.874 280.957 279.297C281.54 280.874 282.783 282.117 284.36 282.701C282.783 283.284 281.54 284.527 280.957 286.104C280.373 284.527 279.13 283.284 277.553 282.701Z" fill="url(#paint53_linear_1730_8284)"/>
<path d="M277.553 311.061C279.13 310.477 280.373 309.234 280.957 307.658C281.54 309.234 282.783 310.477 284.36 311.061C282.783 311.644 281.54 312.887 280.957 314.464C280.373 312.887 279.13 311.644 277.553 311.061Z" fill="url(#paint54_linear_1730_8284)"/>
<path d="M277.553 339.421C279.13 338.838 280.373 337.595 280.957 336.018C281.54 337.595 282.783 338.838 284.36 339.421C282.783 340.005 281.54 341.248 280.957 342.825C280.373 341.248 279.13 340.005 277.553 339.421Z" fill="url(#paint55_linear_1730_8284)"/>
<path d="M249.193 84.178C250.77 83.5946 252.013 82.3514 252.596 80.7747C253.18 82.3514 254.423 83.5946 255.999 84.178C254.423 84.7614 253.18 86.0045 252.596 87.5812C252.013 86.0045 250.77 84.7614 249.193 84.178Z" fill="url(#paint56_linear_1730_8284)"/>
<path d="M249.193 55.8176C250.77 55.2342 252.013 53.9911 252.596 52.4144C253.18 53.9911 254.423 55.2342 255.999 55.8176C254.423 56.4011 253.18 57.6442 252.596 59.2209C252.013 57.6442 250.77 56.4011 249.193 55.8176Z" fill="url(#paint57_linear_1730_8284)"/>
<path d="M249.193 112.538C250.77 111.955 252.013 110.712 252.596 109.135C253.18 110.712 254.423 111.955 255.999 112.538C254.423 113.122 253.18 114.365 252.596 115.942C252.013 114.365 250.77 113.122 249.193 112.538Z" fill="url(#paint58_linear_1730_8284)"/>
<path d="M249.193 140.899C250.77 140.315 252.013 139.072 252.596 137.495C253.18 139.072 254.423 140.315 255.999 140.899C254.423 141.482 253.18 142.725 252.596 144.302C252.013 142.725 250.77 141.482 249.193 140.899Z" fill="url(#paint59_linear_1730_8284)"/>
<path d="M249.193 169.259C250.77 168.676 252.013 167.433 252.596 165.856C253.18 167.433 254.423 168.676 255.999 169.259C254.423 169.843 253.18 171.086 252.596 172.662C252.013 171.086 250.77 169.843 249.193 169.259Z" fill="url(#paint60_linear_1730_8284)"/>
<path d="M249.193 197.619C250.77 197.036 252.013 195.793 252.596 194.216C253.18 195.793 254.423 197.036 255.999 197.619C254.423 198.203 253.18 199.446 252.596 201.023C252.013 199.446 250.77 198.203 249.193 197.619Z" fill="url(#paint61_linear_1730_8284)"/>
<path d="M249.193 254.34C250.77 253.757 252.013 252.514 252.596 250.937C253.18 252.514 254.423 253.757 255.999 254.34C254.423 254.924 253.18 256.167 252.596 257.743C252.013 256.167 250.77 254.924 249.193 254.34Z" fill="url(#paint62_linear_1730_8284)"/>
<path d="M249.193 225.98C250.77 225.396 252.013 224.153 252.596 222.577C253.18 224.153 254.423 225.396 255.999 225.98C254.423 226.563 253.18 227.806 252.596 229.383C252.013 227.806 250.77 226.563 249.193 225.98Z" fill="url(#paint63_linear_1730_8284)"/>
<path d="M249.193 282.701C250.77 282.117 252.013 280.874 252.596 279.297C253.18 280.874 254.423 282.117 255.999 282.701C254.423 283.284 253.18 284.527 252.596 286.104C252.013 284.527 250.77 283.284 249.193 282.701Z" fill="url(#paint64_linear_1730_8284)"/>
<path d="M249.193 311.061C250.77 310.477 252.013 309.234 252.596 307.658C253.18 309.234 254.423 310.477 255.999 311.061C254.423 311.644 253.18 312.887 252.596 314.464C252.013 312.887 250.77 311.644 249.193 311.061Z" fill="url(#paint65_linear_1730_8284)"/>
<path d="M249.193 339.421C250.77 338.838 252.013 337.595 252.596 336.018C253.18 337.595 254.423 338.838 255.999 339.421C254.423 340.005 253.18 341.248 252.596 342.825C252.013 341.248 250.77 340.005 249.193 339.421Z" fill="url(#paint66_linear_1730_8284)"/>
<path d="M220.833 84.178C222.409 83.5946 223.652 82.3514 224.236 80.7747C224.819 82.3514 226.062 83.5946 227.639 84.178C226.062 84.7614 224.819 86.0045 224.236 87.5812C223.652 86.0045 222.409 84.7614 220.833 84.178Z" fill="url(#paint67_linear_1730_8284)"/>
<path d="M220.833 55.8176C222.409 55.2342 223.652 53.9911 224.236 52.4144C224.819 53.9911 226.062 55.2342 227.639 55.8176C226.062 56.4011 224.819 57.6442 224.236 59.2209C223.652 57.6442 222.409 56.4011 220.833 55.8176Z" fill="url(#paint68_linear_1730_8284)"/>
<path d="M220.833 112.538C222.409 111.955 223.652 110.712 224.236 109.135C224.819 110.712 226.062 111.955 227.639 112.538C226.062 113.122 224.819 114.365 224.236 115.942C223.652 114.365 222.409 113.122 220.833 112.538Z" fill="url(#paint69_linear_1730_8284)"/>
<path d="M220.833 140.899C222.409 140.315 223.652 139.072 224.236 137.495C224.819 139.072 226.062 140.315 227.639 140.899C226.062 141.482 224.819 142.725 224.236 144.302C223.652 142.725 222.409 141.482 220.833 140.899Z" fill="url(#paint70_linear_1730_8284)"/>
<path d="M220.833 169.259C222.409 168.676 223.652 167.433 224.236 165.856C224.819 167.433 226.062 168.676 227.639 169.259C226.062 169.843 224.819 171.086 224.236 172.662C223.652 171.086 222.409 169.843 220.833 169.259Z" fill="url(#paint71_linear_1730_8284)"/>
<path d="M220.833 197.619C222.409 197.036 223.652 195.793 224.236 194.216C224.819 195.793 226.062 197.036 227.639 197.619C226.062 198.203 224.819 199.446 224.236 201.023C223.652 199.446 222.409 198.203 220.833 197.619Z" fill="url(#paint72_linear_1730_8284)"/>
<path d="M220.833 254.34C222.409 253.757 223.652 252.514 224.236 250.937C224.819 252.514 226.062 253.757 227.639 254.34C226.062 254.924 224.819 256.167 224.236 257.743C223.652 256.167 222.409 254.924 220.833 254.34Z" fill="url(#paint73_linear_1730_8284)"/>
<path d="M220.833 225.98C222.409 225.396 223.652 224.153 224.236 222.577C224.819 224.153 226.062 225.396 227.639 225.98C226.062 226.563 224.819 227.806 224.236 229.383C223.652 227.806 222.409 226.563 220.833 225.98Z" fill="url(#paint74_linear_1730_8284)"/>
<path d="M220.833 282.701C222.409 282.117 223.652 280.874 224.236 279.297C224.819 280.874 226.062 282.117 227.639 282.701C226.062 283.284 224.819 284.527 224.236 286.104C223.652 284.527 222.409 283.284 220.833 282.701Z" fill="url(#paint75_linear_1730_8284)"/>
<path d="M220.833 311.061C222.409 310.477 223.652 309.234 224.236 307.658C224.819 309.234 226.062 310.477 227.639 311.061C226.062 311.644 224.819 312.887 224.236 314.464C223.652 312.887 222.409 311.644 220.833 311.061Z" fill="url(#paint76_linear_1730_8284)"/>
<path d="M220.833 339.421C222.409 338.838 223.652 337.595 224.236 336.018C224.819 337.595 226.062 338.838 227.639 339.421C226.062 340.005 224.819 341.248 224.236 342.825C223.652 341.248 222.409 340.005 220.833 339.421Z" fill="url(#paint77_linear_1730_8284)"/>
<path d="M192.472 84.178C194.049 83.5946 195.292 82.3514 195.875 80.7747C196.459 82.3514 197.702 83.5946 199.279 84.178C197.702 84.7614 196.459 86.0045 195.875 87.5812C195.292 86.0045 194.049 84.7614 192.472 84.178Z" fill="url(#paint78_linear_1730_8284)"/>
<path d="M192.472 55.8176C194.049 55.2342 195.292 53.9911 195.875 52.4144C196.459 53.9911 197.702 55.2342 199.279 55.8176C197.702 56.4011 196.459 57.6442 195.875 59.2209C195.292 57.6442 194.049 56.4011 192.472 55.8176Z" fill="url(#paint79_linear_1730_8284)"/>
<path d="M192.472 112.538C194.049 111.955 195.292 110.712 195.875 109.135C196.459 110.712 197.702 111.955 199.279 112.538C197.702 113.122 196.459 114.365 195.875 115.942C195.292 114.365 194.049 113.122 192.472 112.538Z" fill="url(#paint80_linear_1730_8284)"/>
<path d="M192.472 140.899C194.049 140.315 195.292 139.072 195.875 137.495C196.459 139.072 197.702 140.315 199.279 140.899C197.702 141.482 196.459 142.725 195.875 144.302C195.292 142.725 194.049 141.482 192.472 140.899Z" fill="url(#paint81_linear_1730_8284)"/>
<path d="M192.472 169.259C194.049 168.676 195.292 167.433 195.875 165.856C196.459 167.433 197.702 168.676 199.279 169.259C197.702 169.843 196.459 171.086 195.875 172.662C195.292 171.086 194.049 169.843 192.472 169.259Z" fill="url(#paint82_linear_1730_8284)"/>
<path d="M192.472 197.619C194.049 197.036 195.292 195.793 195.875 194.216C196.459 195.793 197.702 197.036 199.279 197.619C197.702 198.203 196.459 199.446 195.875 201.023C195.292 199.446 194.049 198.203 192.472 197.619Z" fill="url(#paint83_linear_1730_8284)"/>
<path d="M192.472 254.34C194.049 253.757 195.292 252.514 195.875 250.937C196.459 252.514 197.702 253.757 199.279 254.34C197.702 254.924 196.459 256.167 195.875 257.743C195.292 256.167 194.049 254.924 192.472 254.34Z" fill="url(#paint84_linear_1730_8284)"/>
<path d="M192.472 225.98C194.049 225.396 195.292 224.153 195.875 222.577C196.459 224.153 197.702 225.396 199.279 225.98C197.702 226.563 196.459 227.806 195.875 229.383C195.292 227.806 194.049 226.563 192.472 225.98Z" fill="url(#paint85_linear_1730_8284)"/>
<path d="M192.472 282.701C194.049 282.117 195.292 280.874 195.875 279.297C196.459 280.874 197.702 282.117 199.279 282.701C197.702 283.284 196.459 284.527 195.875 286.104C195.292 284.527 194.049 283.284 192.472 282.701Z" fill="url(#paint86_linear_1730_8284)"/>
<path d="M192.472 311.061C194.049 310.477 195.292 309.234 195.875 307.658C196.459 309.234 197.702 310.477 199.279 311.061C197.702 311.644 196.459 312.887 195.875 314.464C195.292 312.887 194.049 311.644 192.472 311.061Z" fill="url(#paint87_linear_1730_8284)"/>
<path d="M192.472 339.421C194.049 338.838 195.292 337.595 195.875 336.018C196.459 337.595 197.702 338.838 199.279 339.421C197.702 340.005 196.459 341.248 195.875 342.825C195.292 341.248 194.049 340.005 192.472 339.421Z" fill="url(#paint88_linear_1730_8284)"/>
<path d="M164.112 84.178C165.689 83.5946 166.932 82.3514 167.515 80.7747C168.099 82.3514 169.342 83.5946 170.918 84.178C169.342 84.7614 168.099 86.0045 167.515 87.5812C166.932 86.0045 165.689 84.7614 164.112 84.178Z" fill="url(#paint89_linear_1730_8284)"/>
<path d="M164.112 55.8176C165.689 55.2342 166.932 53.9911 167.515 52.4144C168.099 53.9911 169.342 55.2342 170.918 55.8176C169.342 56.4011 168.099 57.6442 167.515 59.2209C166.932 57.6442 165.689 56.4011 164.112 55.8176Z" fill="url(#paint90_linear_1730_8284)"/>
<path d="M164.112 112.538C165.689 111.955 166.932 110.712 167.515 109.135C168.099 110.712 169.342 111.955 170.918 112.538C169.342 113.122 168.099 114.365 167.515 115.942C166.932 114.365 165.689 113.122 164.112 112.538Z" fill="url(#paint91_linear_1730_8284)"/>
<path d="M164.112 140.899C165.689 140.315 166.932 139.072 167.515 137.495C168.099 139.072 169.342 140.315 170.918 140.899C169.342 141.482 168.099 142.725 167.515 144.302C166.932 142.725 165.689 141.482 164.112 140.899Z" fill="url(#paint92_linear_1730_8284)"/>
<path d="M164.112 169.259C165.689 168.676 166.932 167.433 167.515 165.856C168.099 167.433 169.342 168.676 170.918 169.259C169.342 169.843 168.099 171.086 167.515 172.662C166.932 171.086 165.689 169.843 164.112 169.259Z" fill="url(#paint93_linear_1730_8284)"/>
<path d="M164.112 197.619C165.689 197.036 166.932 195.793 167.515 194.216C168.099 195.793 169.342 197.036 170.918 197.619C169.342 198.203 168.099 199.446 167.515 201.023C166.932 199.446 165.689 198.203 164.112 197.619Z" fill="url(#paint94_linear_1730_8284)"/>
<path d="M164.112 254.34C165.689 253.757 166.932 252.514 167.515 250.937C168.099 252.514 169.342 253.757 170.918 254.34C169.342 254.924 168.099 256.167 167.515 257.743C166.932 256.167 165.689 254.924 164.112 254.34Z" fill="url(#paint95_linear_1730_8284)"/>
<path d="M164.112 225.98C165.689 225.396 166.932 224.153 167.515 222.577C168.099 224.153 169.342 225.396 170.918 225.98C169.342 226.563 168.099 227.806 167.515 229.383C166.932 227.806 165.689 226.563 164.112 225.98Z" fill="url(#paint96_linear_1730_8284)"/>
<path d="M164.112 282.701C165.689 282.117 166.932 280.874 167.515 279.297C168.099 280.874 169.342 282.117 170.918 282.701C169.342 283.284 168.099 284.527 167.515 286.104C166.932 284.527 165.689 283.284 164.112 282.701Z" fill="url(#paint97_linear_1730_8284)"/>
<path d="M164.112 311.061C165.689 310.477 166.932 309.234 167.515 307.658C168.099 309.234 169.342 310.477 170.918 311.061C169.342 311.644 168.099 312.887 167.515 314.464C166.932 312.887 165.689 311.644 164.112 311.061Z" fill="url(#paint98_linear_1730_8284)"/>
<path d="M164.112 339.421C165.689 338.838 166.932 337.595 167.515 336.018C168.098 337.595 169.342 338.838 170.918 339.421C169.342 340.005 168.098 341.248 167.515 342.825C166.932 341.248 165.689 340.005 164.112 339.421Z" fill="url(#paint99_linear_1730_8284)"/>
<path d="M135.751 84.178C137.328 83.5946 138.571 82.3514 139.155 80.7747C139.738 82.3514 140.981 83.5946 142.558 84.178C140.981 84.7614 139.738 86.0045 139.155 87.5812C138.571 86.0045 137.328 84.7614 135.751 84.178Z" fill="url(#paint100_linear_1730_8284)"/>
<path d="M135.751 55.8176C137.328 55.2342 138.571 53.9911 139.155 52.4144C139.738 53.9911 140.981 55.2342 142.558 55.8176C140.981 56.4011 139.738 57.6442 139.155 59.2209C138.571 57.6442 137.328 56.4011 135.751 55.8176Z" fill="url(#paint101_linear_1730_8284)"/>
<path d="M135.751 112.538C137.328 111.955 138.571 110.712 139.155 109.135C139.738 110.712 140.981 111.955 142.558 112.538C140.981 113.122 139.738 114.365 139.155 115.942C138.571 114.365 137.328 113.122 135.751 112.538Z" fill="url(#paint102_linear_1730_8284)"/>
<path d="M135.752 140.899C137.328 140.315 138.571 139.072 139.155 137.495C139.738 139.072 140.981 140.315 142.558 140.899C140.981 141.482 139.738 142.725 139.155 144.302C138.571 142.725 137.328 141.482 135.752 140.899Z" fill="url(#paint103_linear_1730_8284)"/>
<path d="M135.752 169.259C137.328 168.676 138.571 167.433 139.155 165.856C139.738 167.433 140.981 168.676 142.558 169.259C140.981 169.843 139.738 171.086 139.155 172.662C138.571 171.086 137.328 169.843 135.752 169.259Z" fill="url(#paint104_linear_1730_8284)"/>
<path d="M135.752 197.619C137.328 197.036 138.571 195.793 139.155 194.216C139.738 195.793 140.981 197.036 142.558 197.619C140.981 198.203 139.738 199.446 139.155 201.023C138.571 199.446 137.328 198.203 135.752 197.619Z" fill="url(#paint105_linear_1730_8284)"/>
<path d="M135.752 254.34C137.328 253.757 138.571 252.514 139.155 250.937C139.738 252.514 140.981 253.757 142.558 254.34C140.981 254.924 139.738 256.167 139.155 257.743C138.571 256.167 137.328 254.924 135.752 254.34Z" fill="url(#paint106_linear_1730_8284)"/>
<path d="M135.752 225.98C137.328 225.396 138.571 224.153 139.155 222.577C139.738 224.153 140.981 225.396 142.558 225.98C140.981 226.563 139.738 227.806 139.155 229.383C138.571 227.806 137.328 226.563 135.752 225.98Z" fill="url(#paint107_linear_1730_8284)"/>
<path d="M135.752 282.701C137.328 282.117 138.571 280.874 139.155 279.297C139.738 280.874 140.981 282.117 142.558 282.701C140.981 283.284 139.738 284.527 139.155 286.104C138.571 284.527 137.328 283.284 135.752 282.701Z" fill="url(#paint108_linear_1730_8284)"/>
<path d="M135.752 311.061C137.328 310.477 138.571 309.234 139.155 307.658C139.738 309.234 140.981 310.477 142.558 311.061C140.981 311.644 139.738 312.887 139.155 314.464C138.571 312.887 137.328 311.644 135.752 311.061Z" fill="url(#paint109_linear_1730_8284)"/>
<path d="M135.751 339.421C137.328 338.838 138.571 337.595 139.155 336.018C139.738 337.595 140.981 338.838 142.558 339.421C140.981 340.005 139.738 341.248 139.155 342.825C138.571 341.248 137.328 340.005 135.751 339.421Z" fill="url(#paint110_linear_1730_8284)"/>
<path d="M107.391 84.178C108.968 83.5946 110.211 82.3514 110.794 80.7747C111.378 82.3514 112.621 83.5946 114.198 84.178C112.621 84.7614 111.378 86.0045 110.794 87.5812C110.211 86.0045 108.968 84.7614 107.391 84.178Z" fill="url(#paint111_linear_1730_8284)"/>
<path d="M107.391 55.8176C108.968 55.2342 110.211 53.9911 110.794 52.4144C111.378 53.9911 112.621 55.2342 114.198 55.8176C112.621 56.4011 111.378 57.6442 110.794 59.2209C110.211 57.6442 108.968 56.4011 107.391 55.8176Z" fill="url(#paint112_linear_1730_8284)"/>
<path d="M107.391 112.538C108.968 111.955 110.211 110.712 110.794 109.135C111.378 110.712 112.621 111.955 114.198 112.538C112.621 113.122 111.378 114.365 110.794 115.942C110.211 114.365 108.968 113.122 107.391 112.538Z" fill="url(#paint113_linear_1730_8284)"/>
<path d="M107.391 140.899C108.968 140.315 110.211 139.072 110.794 137.495C111.378 139.072 112.621 140.315 114.198 140.899C112.621 141.482 111.378 142.725 110.794 144.302C110.211 142.725 108.968 141.482 107.391 140.899Z" fill="url(#paint114_linear_1730_8284)"/>
<path d="M107.391 169.259C108.968 168.676 110.211 167.433 110.794 165.856C111.378 167.433 112.621 168.676 114.198 169.259C112.621 169.843 111.378 171.086 110.794 172.662C110.211 171.086 108.968 169.843 107.391 169.259Z" fill="url(#paint115_linear_1730_8284)"/>
<path d="M107.391 197.619C108.968 197.036 110.211 195.793 110.794 194.216C111.378 195.793 112.621 197.036 114.198 197.619C112.621 198.203 111.378 199.446 110.794 201.023C110.211 199.446 108.968 198.203 107.391 197.619Z" fill="url(#paint116_linear_1730_8284)"/>
<path d="M107.391 254.34C108.968 253.757 110.211 252.514 110.794 250.937C111.378 252.514 112.621 253.757 114.198 254.34C112.621 254.924 111.378 256.167 110.794 257.743C110.211 256.167 108.968 254.924 107.391 254.34Z" fill="url(#paint117_linear_1730_8284)"/>
<path d="M107.391 225.98C108.968 225.396 110.211 224.153 110.794 222.577C111.378 224.153 112.621 225.396 114.198 225.98C112.621 226.563 111.378 227.806 110.794 229.383C110.211 227.806 108.968 226.563 107.391 225.98Z" fill="url(#paint118_linear_1730_8284)"/>
<path d="M107.391 282.701C108.968 282.117 110.211 280.874 110.794 279.297C111.378 280.874 112.621 282.117 114.198 282.701C112.621 283.284 111.378 284.527 110.794 286.104C110.211 284.527 108.968 283.284 107.391 282.701Z" fill="url(#paint119_linear_1730_8284)"/>
<path d="M107.391 311.061C108.968 310.477 110.211 309.234 110.794 307.658C111.378 309.234 112.621 310.477 114.198 311.061C112.621 311.644 111.378 312.887 110.794 314.464C110.211 312.887 108.968 311.644 107.391 311.061Z" fill="url(#paint120_linear_1730_8284)"/>
<path d="M107.391 339.421C108.968 338.838 110.211 337.595 110.794 336.018C111.378 337.595 112.621 338.838 114.198 339.421C112.621 340.005 111.378 341.248 110.794 342.825C110.211 341.248 108.968 340.005 107.391 339.421Z" fill="url(#paint121_linear_1730_8284)"/>
<path d="M79.0308 84.178C80.6075 83.5946 81.8506 82.3514 82.434 80.7747C83.0175 82.3514 84.2606 83.5946 85.8373 84.178C84.2606 84.7614 83.0175 86.0045 82.434 87.5812C81.8506 86.0045 80.6075 84.7614 79.0308 84.178Z" fill="url(#paint122_linear_1730_8284)"/>
<path d="M79.0308 55.8176C80.6075 55.2342 81.8506 53.9911 82.434 52.4144C83.0175 53.9911 84.2606 55.2342 85.8373 55.8176C84.2606 56.4011 83.0175 57.6442 82.434 59.2209C81.8506 57.6442 80.6075 56.4011 79.0308 55.8176Z" fill="url(#paint123_linear_1730_8284)"/>
<path d="M79.0308 112.538C80.6075 111.955 81.8506 110.712 82.434 109.135C83.0175 110.712 84.2606 111.955 85.8373 112.538C84.2606 113.122 83.0175 114.365 82.434 115.942C81.8506 114.365 80.6075 113.122 79.0308 112.538Z" fill="url(#paint124_linear_1730_8284)"/>
<path d="M79.0308 140.899C80.6075 140.315 81.8506 139.072 82.434 137.495C83.0175 139.072 84.2606 140.315 85.8373 140.899C84.2606 141.482 83.0175 142.725 82.434 144.302C81.8506 142.725 80.6075 141.482 79.0308 140.899Z" fill="url(#paint125_linear_1730_8284)"/>
<path d="M79.0308 169.259C80.6075 168.676 81.8506 167.433 82.434 165.856C83.0175 167.433 84.2606 168.676 85.8373 169.259C84.2606 169.843 83.0175 171.086 82.434 172.662C81.8506 171.086 80.6075 169.843 79.0308 169.259Z" fill="url(#paint126_linear_1730_8284)"/>
<path d="M79.0308 197.619C80.6075 197.036 81.8506 195.793 82.434 194.216C83.0175 195.793 84.2606 197.036 85.8373 197.619C84.2606 198.203 83.0175 199.446 82.434 201.023C81.8506 199.446 80.6075 198.203 79.0308 197.619Z" fill="url(#paint127_linear_1730_8284)"/>
<path d="M79.0308 254.34C80.6075 253.757 81.8506 252.514 82.434 250.937C83.0175 252.514 84.2606 253.757 85.8373 254.34C84.2606 254.924 83.0175 256.167 82.434 257.743C81.8506 256.167 80.6075 254.924 79.0308 254.34Z" fill="url(#paint128_linear_1730_8284)"/>
<path d="M79.0308 225.98C80.6075 225.396 81.8506 224.153 82.434 222.577C83.0175 224.153 84.2606 225.396 85.8373 225.98C84.2606 226.563 83.0175 227.806 82.434 229.383C81.8506 227.806 80.6075 226.563 79.0308 225.98Z" fill="url(#paint129_linear_1730_8284)"/>
<path d="M79.0308 282.701C80.6075 282.117 81.8506 280.874 82.434 279.297C83.0175 280.874 84.2606 282.117 85.8373 282.701C84.2606 283.284 83.0175 284.527 82.434 286.104C81.8506 284.527 80.6075 283.284 79.0308 282.701Z" fill="url(#paint130_linear_1730_8284)"/>
<path d="M79.0308 311.061C80.6075 310.477 81.8506 309.234 82.434 307.658C83.0175 309.234 84.2606 310.477 85.8373 311.061C84.2606 311.644 83.0175 312.887 82.434 314.464C81.8506 312.887 80.6075 311.644 79.0308 311.061Z" fill="url(#paint131_linear_1730_8284)"/>
<path d="M79.0308 339.421C80.6074 338.838 81.8506 337.595 82.434 336.018C83.0174 337.595 84.2606 338.838 85.8372 339.421C84.2606 340.005 83.0174 341.248 82.434 342.825C81.8506 341.248 80.6074 340.005 79.0308 339.421Z" fill="url(#paint132_linear_1730_8284)"/>
<path d="M50.6704 84.178C52.2471 83.5946 53.4902 82.3514 54.0737 80.7747C54.6571 82.3514 55.9002 83.5946 57.4769 84.178C55.9002 84.7614 54.6571 86.0045 54.0737 87.5812C53.4902 86.0045 52.2471 84.7614 50.6704 84.178Z" fill="url(#paint133_linear_1730_8284)"/>
<path d="M50.6704 55.8176C52.2471 55.2342 53.4902 53.9911 54.0737 52.4144C54.6571 53.9911 55.9002 55.2342 57.4769 55.8176C55.9002 56.4011 54.6571 57.6442 54.0737 59.2209C53.4902 57.6442 52.2471 56.4011 50.6704 55.8176Z" fill="url(#paint134_linear_1730_8284)"/>
<path d="M50.6704 112.538C52.2471 111.955 53.4902 110.712 54.0737 109.135C54.6571 110.712 55.9002 111.955 57.4769 112.538C55.9002 113.122 54.6571 114.365 54.0737 115.942C53.4902 114.365 52.2471 113.122 50.6704 112.538Z" fill="url(#paint135_linear_1730_8284)"/>
<path d="M50.6704 140.899C52.2471 140.315 53.4902 139.072 54.0737 137.495C54.6571 139.072 55.9002 140.315 57.4769 140.899C55.9002 141.482 54.6571 142.725 54.0737 144.302C53.4902 142.725 52.2471 141.482 50.6704 140.899Z" fill="url(#paint136_linear_1730_8284)"/>
<path d="M50.6704 169.259C52.2471 168.676 53.4902 167.433 54.0737 165.856C54.6571 167.433 55.9002 168.676 57.4769 169.259C55.9002 169.843 54.6571 171.086 54.0737 172.662C53.4902 171.086 52.2471 169.843 50.6704 169.259Z" fill="url(#paint137_linear_1730_8284)"/>
<path d="M50.6704 197.619C52.2471 197.036 53.4902 195.793 54.0737 194.216C54.6571 195.793 55.9002 197.036 57.4769 197.619C55.9002 198.203 54.6571 199.446 54.0737 201.023C53.4902 199.446 52.2471 198.203 50.6704 197.619Z" fill="url(#paint138_linear_1730_8284)"/>
<path d="M50.6704 254.34C52.2471 253.757 53.4902 252.514 54.0737 250.937C54.6571 252.514 55.9002 253.757 57.4769 254.34C55.9002 254.924 54.6571 256.167 54.0737 257.743C53.4902 256.167 52.2471 254.924 50.6704 254.34Z" fill="url(#paint139_linear_1730_8284)"/>
<path d="M50.6704 225.98C52.2471 225.396 53.4902 224.153 54.0737 222.577C54.6571 224.153 55.9002 225.396 57.4769 225.98C55.9002 226.563 54.6571 227.806 54.0737 229.383C53.4902 227.806 52.2471 226.563 50.6704 225.98Z" fill="url(#paint140_linear_1730_8284)"/>
<path d="M50.6704 282.701C52.2471 282.117 53.4902 280.874 54.0737 279.297C54.6571 280.874 55.9002 282.117 57.4769 282.701C55.9002 283.284 54.6571 284.527 54.0737 286.104C53.4902 284.527 52.2471 283.284 50.6704 282.701Z" fill="url(#paint141_linear_1730_8284)"/>
<path d="M50.6704 311.061C52.2471 310.477 53.4903 309.234 54.0737 307.658C54.6571 309.234 55.9002 310.477 57.4769 311.061C55.9002 311.644 54.6571 312.887 54.0737 314.464C53.4903 312.887 52.2471 311.644 50.6704 311.061Z" fill="url(#paint142_linear_1730_8284)"/>
<path d="M50.6704 339.422C52.2471 338.838 53.4902 337.595 54.0736 336.018C54.6571 337.595 55.9002 338.838 57.4769 339.422C55.9002 340.005 54.6571 341.248 54.0736 342.825C53.4902 341.248 52.2471 340.005 50.6704 339.422Z" fill="url(#paint143_linear_1730_8284)"/>
<path d="M22.3101 84.178C23.8868 83.5946 25.1299 82.3514 25.7133 80.7747C26.2967 82.3514 27.5399 83.5946 29.1166 84.178C27.5399 84.7614 26.2967 86.0045 25.7133 87.5812C25.1299 86.0045 23.8868 84.7614 22.3101 84.178Z" fill="url(#paint144_linear_1730_8284)"/>
<path d="M22.3101 55.8176C23.8868 55.2342 25.1299 53.9911 25.7133 52.4144C26.2967 53.9911 27.5399 55.2342 29.1166 55.8176C27.5399 56.4011 26.2967 57.6442 25.7133 59.2209C25.1299 57.6442 23.8868 56.4011 22.3101 55.8176Z" fill="url(#paint145_linear_1730_8284)"/>
<path d="M22.3101 112.538C23.8868 111.955 25.1299 110.712 25.7133 109.135C26.2967 110.712 27.5399 111.955 29.1166 112.538C27.5399 113.122 26.2967 114.365 25.7133 115.942C25.1299 114.365 23.8868 113.122 22.3101 112.538Z" fill="url(#paint146_linear_1730_8284)"/>
<path d="M22.3101 140.899C23.8868 140.315 25.1299 139.072 25.7133 137.495C26.2967 139.072 27.5399 140.315 29.1166 140.899C27.5399 141.482 26.2967 142.725 25.7133 144.302C25.1299 142.725 23.8868 141.482 22.3101 140.899Z" fill="url(#paint147_linear_1730_8284)"/>
<path d="M22.3101 169.259C23.8868 168.676 25.1299 167.433 25.7133 165.856C26.2967 167.433 27.5399 168.676 29.1166 169.259C27.5399 169.843 26.2967 171.086 25.7133 172.662C25.1299 171.086 23.8868 169.843 22.3101 169.259Z" fill="url(#paint148_linear_1730_8284)"/>
<path d="M22.3101 197.619C23.8868 197.036 25.1299 195.793 25.7133 194.216C26.2967 195.793 27.5399 197.036 29.1166 197.619C27.5399 198.203 26.2967 199.446 25.7133 201.023C25.1299 199.446 23.8868 198.203 22.3101 197.619Z" fill="url(#paint149_linear_1730_8284)"/>
<path d="M22.3101 254.34C23.8868 253.757 25.1299 252.514 25.7133 250.937C26.2967 252.514 27.5399 253.757 29.1166 254.34C27.5399 254.924 26.2967 256.167 25.7133 257.743C25.1299 256.167 23.8868 254.924 22.3101 254.34Z" fill="url(#paint150_linear_1730_8284)"/>
<path d="M22.3101 225.98C23.8868 225.396 25.1299 224.153 25.7133 222.577C26.2967 224.153 27.5399 225.396 29.1166 225.98C27.5399 226.563 26.2967 227.806 25.7133 229.383C25.1299 227.806 23.8868 226.563 22.3101 225.98Z" fill="url(#paint151_linear_1730_8284)"/>
<path d="M22.3101 282.701C23.8868 282.117 25.1299 280.874 25.7133 279.297C26.2967 280.874 27.5399 282.117 29.1166 282.701C27.5399 283.284 26.2967 284.527 25.7133 286.104C25.1299 284.527 23.8868 283.284 22.3101 282.701Z" fill="url(#paint152_linear_1730_8284)"/>
<path d="M22.3101 311.061C23.8868 310.477 25.1299 309.234 25.7133 307.658C26.2968 309.234 27.5399 310.477 29.1166 311.061C27.5399 311.644 26.2968 312.887 25.7133 314.464C25.1299 312.887 23.8868 311.644 22.3101 311.061Z" fill="url(#paint153_linear_1730_8284)"/>
<path d="M22.31 339.422C23.8867 338.838 25.1298 337.595 25.7133 336.018C26.2967 337.595 27.5398 338.838 29.1165 339.422C27.5398 340.005 26.2967 341.248 25.7133 342.825C25.1298 341.248 23.8867 340.005 22.31 339.422Z" fill="url(#paint154_linear_1730_8284)"/>
</g>
<defs>
<linearGradient id="paint0_linear_1730_8284" x1="-4.48042e-06" y1="358.262" x2="232.266" y2="108.527" gradientUnits="userSpaceOnUse">
<stop stop-color="#C0C0C0"/>
<stop offset="1" stop-color="#C0C0C0" stop-opacity="0"/>
</linearGradient>
<linearGradient id="paint1_linear_1730_8284" x1="-4.48042e-06" y1="358.262" x2="232.266" y2="108.527" gradientUnits="userSpaceOnUse">
<stop stop-color="#C0C0C0"/>
<stop offset="1" stop-color="#C0C0C0" stop-opacity="0"/>
</linearGradient>
<linearGradient id="paint2_linear_1730_8284" x1="-4.48042e-06" y1="358.262" x2="232.266" y2="108.527" gradientUnits="userSpaceOnUse">
<stop stop-color="#C0C0C0"/>
<stop offset="1" stop-color="#C0C0C0" stop-opacity="0"/>
</linearGradient>
<linearGradient id="paint3_linear_1730_8284" x1="-4.48042e-06" y1="358.262" x2="232.266" y2="108.527" gradientUnits="userSpaceOnUse">
<stop stop-color="#C0C0C0"/>
<stop offset="1" stop-color="#C0C0C0" stop-opacity="0"/>
</linearGradient>
<linearGradient id="paint4_linear_1730_8284" x1="-4.48042e-06" y1="358.262" x2="232.266" y2="108.527" gradientUnits="userSpaceOnUse">
<stop stop-color="#C0C0C0"/>
<stop offset="1" stop-color="#C0C0C0" stop-opacity="0"/>
</linearGradient>
<linearGradient id="paint5_linear_1730_8284" x1="-4.48042e-06" y1="358.262" x2="232.266" y2="108.527" gradientUnits="userSpaceOnUse">
<stop stop-color="#C0C0C0"/>
<stop offset="1" stop-color="#C0C0C0" stop-opacity="0"/>
</linearGradient>
<linearGradient id="paint6_linear_1730_8284" x1="-4.48042e-06" y1="358.262" x2="232.266" y2="108.527" gradientUnits="userSpaceOnUse">
<stop stop-color="#C0C0C0"/>
<stop offset="1" stop-color="#C0C0C0" stop-opacity="0"/>
</linearGradient>
<linearGradient id="paint7_linear_1730_8284" x1="-4.48042e-06" y1="358.262" x2="232.266" y2="108.527" gradientUnits="userSpaceOnUse">
<stop stop-color="#C0C0C0"/>
<stop offset="1" stop-color="#C0C0C0" stop-opacity="0"/>
</linearGradient>
<linearGradient id="paint8_linear_1730_8284" x1="-4.48042e-06" y1="358.262" x2="232.266" y2="108.527" gradientUnits="userSpaceOnUse">
<stop stop-color="#C0C0C0"/>
<stop offset="1" stop-color="#C0C0C0" stop-opacity="0"/>
</linearGradient>
<linearGradient id="paint9_linear_1730_8284" x1="-4.48042e-06" y1="358.262" x2="232.266" y2="108.527" gradientUnits="userSpaceOnUse">
<stop stop-color="#C0C0C0"/>
<stop offset="1" stop-color="#C0C0C0" stop-opacity="0"/>
</linearGradient>
<linearGradient id="paint10_linear_1730_8284" x1="-4.48042e-06" y1="358.262" x2="232.266" y2="108.527" gradientUnits="userSpaceOnUse">
<stop stop-color="#C0C0C0"/>
<stop offset="1" stop-color="#C0C0C0" stop-opacity="0"/>
</linearGradient>
<linearGradient id="paint11_linear_1730_8284" x1="-4.48042e-06" y1="358.262" x2="232.266" y2="108.527" gradientUnits="userSpaceOnUse">
<stop stop-color="#C0C0C0"/>
<stop offset="1" stop-color="#C0C0C0" stop-opacity="0"/>
</linearGradient>
<linearGradient id="paint12_linear_1730_8284" x1="-4.48042e-06" y1="358.262" x2="232.266" y2="108.527" gradientUnits="userSpaceOnUse">
<stop stop-color="#C0C0C0"/>
<stop offset="1" stop-color="#C0C0C0" stop-opacity="0"/>
</linearGradient>
<linearGradient id="paint13_linear_1730_8284" x1="-4.48042e-06" y1="358.262" x2="232.266" y2="108.527" gradientUnits="userSpaceOnUse">
<stop stop-color="#C0C0C0"/>
<stop offset="1" stop-color="#C0C0C0" stop-opacity="0"/>
</linearGradient>
<linearGradient id="paint14_linear_1730_8284" x1="-4.48042e-06" y1="358.262" x2="232.266" y2="108.527" gradientUnits="userSpaceOnUse">
<stop stop-color="#C0C0C0"/>
<stop offset="1" stop-color="#C0C0C0" stop-opacity="0"/>
</linearGradient>
<linearGradient id="paint15_linear_1730_8284" x1="-4.48042e-06" y1="358.262" x2="232.266" y2="108.527" gradientUnits="userSpaceOnUse">
<stop stop-color="#C0C0C0"/>
<stop offset="1" stop-color="#C0C0C0" stop-opacity="0"/>
</linearGradient>
<linearGradient id="paint16_linear_1730_8284" x1="-4.48042e-06" y1="358.262" x2="232.266" y2="108.527" gradientUnits="userSpaceOnUse">
<stop stop-color="#C0C0C0"/>
<stop offset="1" stop-color="#C0C0C0" stop-opacity="0"/>
</linearGradient>
<linearGradient id="paint17_linear_1730_8284" x1="-4.48042e-06" y1="358.262" x2="232.266" y2="108.527" gradientUnits="userSpaceOnUse">
<stop stop-color="#C0C0C0"/>
<stop offset="1" stop-color="#C0C0C0" stop-opacity="0"/>
</linearGradient>
<linearGradient id="paint18_linear_1730_8284" x1="-4.48042e-06" y1="358.262" x2="232.266" y2="108.527" gradientUnits="userSpaceOnUse">
<stop stop-color="#C0C0C0"/>
<stop offset="1" stop-color="#C0C0C0" stop-opacity="0"/>
</linearGradient>
<linearGradient id="paint19_linear_1730_8284" x1="-4.48042e-06" y1="358.262" x2="232.266" y2="108.527" gradientUnits="userSpaceOnUse">
<stop stop-color="#C0C0C0"/>
<stop offset="1" stop-color="#C0C0C0" stop-opacity="0"/>
</linearGradient>
<linearGradient id="paint20_linear_1730_8284" x1="-4.48042e-06" y1="358.262" x2="232.266" y2="108.527" gradientUnits="userSpaceOnUse">
<stop stop-color="#C0C0C0"/>
<stop offset="1" stop-color="#C0C0C0" stop-opacity="0"/>
</linearGradient>
<linearGradient id="paint21_linear_1730_8284" x1="-4.48042e-06" y1="358.262" x2="232.266" y2="108.527" gradientUnits="userSpaceOnUse">
<stop stop-color="#C0C0C0"/>
<stop offset="1" stop-color="#C0C0C0" stop-opacity="0"/>
</linearGradient>
<linearGradient id="paint22_linear_1730_8284" x1="-4.48042e-06" y1="358.262" x2="232.266" y2="108.527" gradientUnits="userSpaceOnUse">
<stop stop-color="#C0C0C0"/>
<stop offset="1" stop-color="#C0C0C0" stop-opacity="0"/>
</linearGradient>
<linearGradient id="paint23_linear_1730_8284" x1="-4.48042e-06" y1="358.262" x2="232.266" y2="108.527" gradientUnits="userSpaceOnUse">
<stop stop-color="#C0C0C0"/>
<stop offset="1" stop-color="#C0C0C0" stop-opacity="0"/>
</linearGradient>
<linearGradient id="paint24_linear_1730_8284" x1="-4.48042e-06" y1="358.262" x2="232.266" y2="108.527" gradientUnits="userSpaceOnUse">
<stop stop-color="#C0C0C0"/>
<stop offset="1" stop-color="#C0C0C0" stop-opacity="0"/>
</linearGradient>
<linearGradient id="paint25_linear_1730_8284" x1="-4.48042e-06" y1="358.262" x2="232.266" y2="108.527" gradientUnits="userSpaceOnUse">
<stop stop-color="#C0C0C0"/>
<stop offset="1" stop-color="#C0C0C0" stop-opacity="0"/>
</linearGradient>
<linearGradient id="paint26_linear_1730_8284" x1="-4.48042e-06" y1="358.262" x2="232.266" y2="108.527" gradientUnits="userSpaceOnUse">
<stop stop-color="#C0C0C0"/>
<stop offset="1" stop-color="#C0C0C0" stop-opacity="0"/>
</linearGradient>
<linearGradient id="paint27_linear_1730_8284" x1="-4.48042e-06" y1="358.262" x2="232.266" y2="108.527" gradientUnits="userSpaceOnUse">
<stop stop-color="#C0C0C0"/>
<stop offset="1" stop-color="#C0C0C0" stop-opacity="0"/>
</linearGradient>
<linearGradient id="paint28_linear_1730_8284" x1="-4.48042e-06" y1="358.262" x2="232.266" y2="108.527" gradientUnits="userSpaceOnUse">
<stop stop-color="#C0C0C0"/>
<stop offset="1" stop-color="#C0C0C0" stop-opacity="0"/>
</linearGradient>
<linearGradient id="paint29_linear_1730_8284" x1="-4.48042e-06" y1="358.262" x2="232.266" y2="108.527" gradientUnits="userSpaceOnUse">
<stop stop-color="#C0C0C0"/>
<stop offset="1" stop-color="#C0C0C0" stop-opacity="0"/>
</linearGradient>
<linearGradient id="paint30_linear_1730_8284" x1="-4.48042e-06" y1="358.262" x2="232.266" y2="108.527" gradientUnits="userSpaceOnUse">
<stop stop-color="#C0C0C0"/>
<stop offset="1" stop-color="#C0C0C0" stop-opacity="0"/>
</linearGradient>
<linearGradient id="paint31_linear_1730_8284" x1="-4.48042e-06" y1="358.262" x2="232.266" y2="108.527" gradientUnits="userSpaceOnUse">
<stop stop-color="#C0C0C0"/>
<stop offset="1" stop-color="#C0C0C0" stop-opacity="0"/>
</linearGradient>
<linearGradient id="paint32_linear_1730_8284" x1="-4.48042e-06" y1="358.262" x2="232.266" y2="108.527" gradientUnits="userSpaceOnUse">
<stop stop-color="#C0C0C0"/>
<stop offset="1" stop-color="#C0C0C0" stop-opacity="0"/>
</linearGradient>
<linearGradient id="paint33_linear_1730_8284" x1="-4.48042e-06" y1="358.262" x2="232.266" y2="108.527" gradientUnits="userSpaceOnUse">
<stop stop-color="#C0C0C0"/>
<stop offset="1" stop-color="#C0C0C0" stop-opacity="0"/>
</linearGradient>
<linearGradient id="paint34_linear_1730_8284" x1="-4.48042e-06" y1="358.262" x2="232.266" y2="108.527" gradientUnits="userSpaceOnUse">
<stop stop-color="#C0C0C0"/>
<stop offset="1" stop-color="#C0C0C0" stop-opacity="0"/>
</linearGradient>
<linearGradient id="paint35_linear_1730_8284" x1="-4.48042e-06" y1="358.262" x2="232.266" y2="108.527" gradientUnits="userSpaceOnUse">
<stop stop-color="#C0C0C0"/>
<stop offset="1" stop-color="#C0C0C0" stop-opacity="0"/>
</linearGradient>
<linearGradient id="paint36_linear_1730_8284" x1="-4.48042e-06" y1="358.262" x2="232.266" y2="108.527" gradientUnits="userSpaceOnUse">
<stop stop-color="#C0C0C0"/>
<stop offset="1" stop-color="#C0C0C0" stop-opacity="0"/>
</linearGradient>
<linearGradient id="paint37_linear_1730_8284" x1="-4.48042e-06" y1="358.262" x2="232.266" y2="108.527" gradientUnits="userSpaceOnUse">
<stop stop-color="#C0C0C0"/>
<stop offset="1" stop-color="#C0C0C0" stop-opacity="0"/>
</linearGradient>
<linearGradient id="paint38_linear_1730_8284" x1="-4.48042e-06" y1="358.262" x2="232.266" y2="108.527" gradientUnits="userSpaceOnUse">
<stop stop-color="#C0C0C0"/>
<stop offset="1" stop-color="#C0C0C0" stop-opacity="0"/>
</linearGradient>
<linearGradient id="paint39_linear_1730_8284" x1="-4.48042e-06" y1="358.262" x2="232.266" y2="108.527" gradientUnits="userSpaceOnUse">
<stop stop-color="#C0C0C0"/>
<stop offset="1" stop-color="#C0C0C0" stop-opacity="0"/>
</linearGradient>
<linearGradient id="paint40_linear_1730_8284" x1="-4.48042e-06" y1="358.262" x2="232.266" y2="108.527" gradientUnits="userSpaceOnUse">
<stop stop-color="#C0C0C0"/>
<stop offset="1" stop-color="#C0C0C0" stop-opacity="0"/>
</linearGradient>
<linearGradient id="paint41_linear_1730_8284" x1="-4.48042e-06" y1="358.262" x2="232.266" y2="108.527" gradientUnits="userSpaceOnUse">
<stop stop-color="#C0C0C0"/>
<stop offset="1" stop-color="#C0C0C0" stop-opacity="0"/>
</linearGradient>
<linearGradient id="paint42_linear_1730_8284" x1="-4.48042e-06" y1="358.262" x2="232.266" y2="108.527" gradientUnits="userSpaceOnUse">
<stop stop-color="#C0C0C0"/>
<stop offset="1" stop-color="#C0C0C0" stop-opacity="0"/>
</linearGradient>
<linearGradient id="paint43_linear_1730_8284" x1="-4.48042e-06" y1="358.262" x2="232.266" y2="108.527" gradientUnits="userSpaceOnUse">
<stop stop-color="#C0C0C0"/>
<stop offset="1" stop-color="#C0C0C0" stop-opacity="0"/>
</linearGradient>
<linearGradient id="paint44_linear_1730_8284" x1="-4.48042e-06" y1="358.262" x2="232.266" y2="108.527" gradientUnits="userSpaceOnUse">
<stop stop-color="#C0C0C0"/>
<stop offset="1" stop-color="#C0C0C0" stop-opacity="0"/>
</linearGradient>
<linearGradient id="paint45_linear_1730_8284" x1="-4.48042e-06" y1="358.262" x2="232.266" y2="108.527" gradientUnits="userSpaceOnUse">
<stop stop-color="#C0C0C0"/>
<stop offset="1" stop-color="#C0C0C0" stop-opacity="0"/>
</linearGradient>
<linearGradient id="paint46_linear_1730_8284" x1="-4.48042e-06" y1="358.262" x2="232.266" y2="108.527" gradientUnits="userSpaceOnUse">
<stop stop-color="#C0C0C0"/>
<stop offset="1" stop-color="#C0C0C0" stop-opacity="0"/>
</linearGradient>
<linearGradient id="paint47_linear_1730_8284" x1="-4.48042e-06" y1="358.262" x2="232.266" y2="108.527" gradientUnits="userSpaceOnUse">
<stop stop-color="#C0C0C0"/>
<stop offset="1" stop-color="#C0C0C0" stop-opacity="0"/>
</linearGradient>
<linearGradient id="paint48_linear_1730_8284" x1="-4.48042e-06" y1="358.262" x2="232.266" y2="108.527" gradientUnits="userSpaceOnUse">
<stop stop-color="#C0C0C0"/>
<stop offset="1" stop-color="#C0C0C0" stop-opacity="0"/>
</linearGradient>
<linearGradient id="paint49_linear_1730_8284" x1="-4.48042e-06" y1="358.262" x2="232.266" y2="108.527" gradientUnits="userSpaceOnUse">
<stop stop-color="#C0C0C0"/>
<stop offset="1" stop-color="#C0C0C0" stop-opacity="0"/>
</linearGradient>
<linearGradient id="paint50_linear_1730_8284" x1="-4.48042e-06" y1="358.262" x2="232.266" y2="108.527" gradientUnits="userSpaceOnUse">
<stop stop-color="#C0C0C0"/>
<stop offset="1" stop-color="#C0C0C0" stop-opacity="0"/>
</linearGradient>
<linearGradient id="paint51_linear_1730_8284" x1="-4.48042e-06" y1="358.262" x2="232.266" y2="108.527" gradientUnits="userSpaceOnUse">
<stop stop-color="#C0C0C0"/>
<stop offset="1" stop-color="#C0C0C0" stop-opacity="0"/>
</linearGradient>
<linearGradient id="paint52_linear_1730_8284" x1="-4.48042e-06" y1="358.262" x2="232.266" y2="108.527" gradientUnits="userSpaceOnUse">
<stop stop-color="#C0C0C0"/>
<stop offset="1" stop-color="#C0C0C0" stop-opacity="0"/>
</linearGradient>
<linearGradient id="paint53_linear_1730_8284" x1="-4.48042e-06" y1="358.262" x2="232.266" y2="108.527" gradientUnits="userSpaceOnUse">
<stop stop-color="#C0C0C0"/>
<stop offset="1" stop-color="#C0C0C0" stop-opacity="0"/>
</linearGradient>
<linearGradient id="paint54_linear_1730_8284" x1="-4.48042e-06" y1="358.262" x2="232.266" y2="108.527" gradientUnits="userSpaceOnUse">
<stop stop-color="#C0C0C0"/>
<stop offset="1" stop-color="#C0C0C0" stop-opacity="0"/>
</linearGradient>
<linearGradient id="paint55_linear_1730_8284" x1="-4.48042e-06" y1="358.262" x2="232.266" y2="108.527" gradientUnits="userSpaceOnUse">
<stop stop-color="#C0C0C0"/>
<stop offset="1" stop-color="#C0C0C0" stop-opacity="0"/>
</linearGradient>
<linearGradient id="paint56_linear_1730_8284" x1="-4.48042e-06" y1="358.262" x2="232.266" y2="108.527" gradientUnits="userSpaceOnUse">
<stop stop-color="#C0C0C0"/>
<stop offset="1" stop-color="#C0C0C0" stop-opacity="0"/>
</linearGradient>
<linearGradient id="paint57_linear_1730_8284" x1="-4.48042e-06" y1="358.262" x2="232.266" y2="108.527" gradientUnits="userSpaceOnUse">
<stop stop-color="#C0C0C0"/>
<stop offset="1" stop-color="#C0C0C0" stop-opacity="0"/>
</linearGradient>
<linearGradient id="paint58_linear_1730_8284" x1="-4.48042e-06" y1="358.262" x2="232.266" y2="108.527" gradientUnits="userSpaceOnUse">
<stop stop-color="#C0C0C0"/>
<stop offset="1" stop-color="#C0C0C0" stop-opacity="0"/>
</linearGradient>
<linearGradient id="paint59_linear_1730_8284" x1="-4.48042e-06" y1="358.262" x2="232.266" y2="108.527" gradientUnits="userSpaceOnUse">
<stop stop-color="#C0C0C0"/>
<stop offset="1" stop-color="#C0C0C0" stop-opacity="0"/>
</linearGradient>
<linearGradient id="paint60_linear_1730_8284" x1="-4.48042e-06" y1="358.262" x2="232.266" y2="108.527" gradientUnits="userSpaceOnUse">
<stop stop-color="#C0C0C0"/>
<stop offset="1" stop-color="#C0C0C0" stop-opacity="0"/>
</linearGradient>
<linearGradient id="paint61_linear_1730_8284" x1="-4.48042e-06" y1="358.262" x2="232.266" y2="108.527" gradientUnits="userSpaceOnUse">
<stop stop-color="#C0C0C0"/>
<stop offset="1" stop-color="#C0C0C0" stop-opacity="0"/>
</linearGradient>
<linearGradient id="paint62_linear_1730_8284" x1="-4.48042e-06" y1="358.262" x2="232.266" y2="108.527" gradientUnits="userSpaceOnUse">
<stop stop-color="#C0C0C0"/>
<stop offset="1" stop-color="#C0C0C0" stop-opacity="0"/>
</linearGradient>
<linearGradient id="paint63_linear_1730_8284" x1="-4.48042e-06" y1="358.262" x2="232.266" y2="108.527" gradientUnits="userSpaceOnUse">
<stop stop-color="#C0C0C0"/>
<stop offset="1" stop-color="#C0C0C0" stop-opacity="0"/>
</linearGradient>
<linearGradient id="paint64_linear_1730_8284" x1="-4.48042e-06" y1="358.262" x2="232.266" y2="108.527" gradientUnits="userSpaceOnUse">
<stop stop-color="#C0C0C0"/>
<stop offset="1" stop-color="#C0C0C0" stop-opacity="0"/>
</linearGradient>
<linearGradient id="paint65_linear_1730_8284" x1="-4.48042e-06" y1="358.262" x2="232.266" y2="108.527" gradientUnits="userSpaceOnUse">
<stop stop-color="#C0C0C0"/>
<stop offset="1" stop-color="#C0C0C0" stop-opacity="0"/>
</linearGradient>
<linearGradient id="paint66_linear_1730_8284" x1="-4.48042e-06" y1="358.262" x2="232.266" y2="108.527" gradientUnits="userSpaceOnUse">
<stop stop-color="#C0C0C0"/>
<stop offset="1" stop-color="#C0C0C0" stop-opacity="0"/>
</linearGradient>
<linearGradient id="paint67_linear_1730_8284" x1="-4.48042e-06" y1="358.262" x2="232.266" y2="108.527" gradientUnits="userSpaceOnUse">
<stop stop-color="#C0C0C0"/>
<stop offset="1" stop-color="#C0C0C0" stop-opacity="0"/>
</linearGradient>
<linearGradient id="paint68_linear_1730_8284" x1="-4.48042e-06" y1="358.262" x2="232.266" y2="108.527" gradientUnits="userSpaceOnUse">
<stop stop-color="#C0C0C0"/>
<stop offset="1" stop-color="#C0C0C0" stop-opacity="0"/>
</linearGradient>
<linearGradient id="paint69_linear_1730_8284" x1="-4.48042e-06" y1="358.262" x2="232.266" y2="108.527" gradientUnits="userSpaceOnUse">
<stop stop-color="#C0C0C0"/>
<stop offset="1" stop-color="#C0C0C0" stop-opacity="0"/>
</linearGradient>
<linearGradient id="paint70_linear_1730_8284" x1="-4.48042e-06" y1="358.262" x2="232.266" y2="108.527" gradientUnits="userSpaceOnUse">
<stop stop-color="#C0C0C0"/>
<stop offset="1" stop-color="#C0C0C0" stop-opacity="0"/>
</linearGradient>
<linearGradient id="paint71_linear_1730_8284" x1="-4.48042e-06" y1="358.262" x2="232.266" y2="108.527" gradientUnits="userSpaceOnUse">
<stop stop-color="#C0C0C0"/>
<stop offset="1" stop-color="#C0C0C0" stop-opacity="0"/>
</linearGradient>
<linearGradient id="paint72_linear_1730_8284" x1="-4.48042e-06" y1="358.262" x2="232.266" y2="108.527" gradientUnits="userSpaceOnUse">
<stop stop-color="#C0C0C0"/>
<stop offset="1" stop-color="#C0C0C0" stop-opacity="0"/>
</linearGradient>
<linearGradient id="paint73_linear_1730_8284" x1="-4.48042e-06" y1="358.262" x2="232.266" y2="108.527" gradientUnits="userSpaceOnUse">
<stop stop-color="#C0C0C0"/>
<stop offset="1" stop-color="#C0C0C0" stop-opacity="0"/>
</linearGradient>
<linearGradient id="paint74_linear_1730_8284" x1="-4.48042e-06" y1="358.262" x2="232.266" y2="108.527" gradientUnits="userSpaceOnUse">
<stop stop-color="#C0C0C0"/>
<stop offset="1" stop-color="#C0C0C0" stop-opacity="0"/>
</linearGradient>
<linearGradient id="paint75_linear_1730_8284" x1="-4.48042e-06" y1="358.262" x2="232.266" y2="108.527" gradientUnits="userSpaceOnUse">
<stop stop-color="#C0C0C0"/>
<stop offset="1" stop-color="#C0C0C0" stop-opacity="0"/>
</linearGradient>
<linearGradient id="paint76_linear_1730_8284" x1="-4.48042e-06" y1="358.262" x2="232.266" y2="108.527" gradientUnits="userSpaceOnUse">
<stop stop-color="#C0C0C0"/>
<stop offset="1" stop-color="#C0C0C0" stop-opacity="0"/>
</linearGradient>
<linearGradient id="paint77_linear_1730_8284" x1="-4.48042e-06" y1="358.262" x2="232.266" y2="108.527" gradientUnits="userSpaceOnUse">
<stop stop-color="#C0C0C0"/>
<stop offset="1" stop-color="#C0C0C0" stop-opacity="0"/>
</linearGradient>
<linearGradient id="paint78_linear_1730_8284" x1="-4.48042e-06" y1="358.262" x2="232.266" y2="108.527" gradientUnits="userSpaceOnUse">
<stop stop-color="#C0C0C0"/>
<stop offset="1" stop-color="#C0C0C0" stop-opacity="0"/>
</linearGradient>
<linearGradient id="paint79_linear_1730_8284" x1="-4.48042e-06" y1="358.262" x2="232.266" y2="108.527" gradientUnits="userSpaceOnUse">
<stop stop-color="#C0C0C0"/>
<stop offset="1" stop-color="#C0C0C0" stop-opacity="0"/>
</linearGradient>
<linearGradient id="paint80_linear_1730_8284" x1="-4.48042e-06" y1="358.262" x2="232.266" y2="108.527" gradientUnits="userSpaceOnUse">
<stop stop-color="#C0C0C0"/>
<stop offset="1" stop-color="#C0C0C0" stop-opacity="0"/>
</linearGradient>
<linearGradient id="paint81_linear_1730_8284" x1="-4.48042e-06" y1="358.262" x2="232.266" y2="108.527" gradientUnits="userSpaceOnUse">
<stop stop-color="#C0C0C0"/>
<stop offset="1" stop-color="#C0C0C0" stop-opacity="0"/>
</linearGradient>
<linearGradient id="paint82_linear_1730_8284" x1="-4.48042e-06" y1="358.262" x2="232.266" y2="108.527" gradientUnits="userSpaceOnUse">
<stop stop-color="#C0C0C0"/>
<stop offset="1" stop-color="#C0C0C0" stop-opacity="0"/>
</linearGradient>
<linearGradient id="paint83_linear_1730_8284" x1="-4.48042e-06" y1="358.262" x2="232.266" y2="108.527" gradientUnits="userSpaceOnUse">
<stop stop-color="#C0C0C0"/>
<stop offset="1" stop-color="#C0C0C0" stop-opacity="0"/>
</linearGradient>
<linearGradient id="paint84_linear_1730_8284" x1="-4.48042e-06" y1="358.262" x2="232.266" y2="108.527" gradientUnits="userSpaceOnUse">
<stop stop-color="#C0C0C0"/>
<stop offset="1" stop-color="#C0C0C0" stop-opacity="0"/>
</linearGradient>
<linearGradient id="paint85_linear_1730_8284" x1="-4.48042e-06" y1="358.262" x2="232.266" y2="108.527" gradientUnits="userSpaceOnUse">
<stop stop-color="#C0C0C0"/>
<stop offset="1" stop-color="#C0C0C0" stop-opacity="0"/>
</linearGradient>
<linearGradient id="paint86_linear_1730_8284" x1="-4.48042e-06" y1="358.262" x2="232.266" y2="108.527" gradientUnits="userSpaceOnUse">
<stop stop-color="#C0C0C0"/>
<stop offset="1" stop-color="#C0C0C0" stop-opacity="0"/>
</linearGradient>
<linearGradient id="paint87_linear_1730_8284" x1="-4.48042e-06" y1="358.262" x2="232.266" y2="108.527" gradientUnits="userSpaceOnUse">
<stop stop-color="#C0C0C0"/>
<stop offset="1" stop-color="#C0C0C0" stop-opacity="0"/>
</linearGradient>
<linearGradient id="paint88_linear_1730_8284" x1="-4.48042e-06" y1="358.262" x2="232.266" y2="108.527" gradientUnits="userSpaceOnUse">
<stop stop-color="#C0C0C0"/>
<stop offset="1" stop-color="#C0C0C0" stop-opacity="0"/>
</linearGradient>
<linearGradient id="paint89_linear_1730_8284" x1="-4.48042e-06" y1="358.262" x2="232.266" y2="108.527" gradientUnits="userSpaceOnUse">
<stop stop-color="#C0C0C0"/>
<stop offset="1" stop-color="#C0C0C0" stop-opacity="0"/>
</linearGradient>
<linearGradient id="paint90_linear_1730_8284" x1="-4.48042e-06" y1="358.262" x2="232.266" y2="108.527" gradientUnits="userSpaceOnUse">
<stop stop-color="#C0C0C0"/>
<stop offset="1" stop-color="#C0C0C0" stop-opacity="0"/>
</linearGradient>
<linearGradient id="paint91_linear_1730_8284" x1="-4.48042e-06" y1="358.262" x2="232.266" y2="108.527" gradientUnits="userSpaceOnUse">
<stop stop-color="#C0C0C0"/>
<stop offset="1" stop-color="#C0C0C0" stop-opacity="0"/>
</linearGradient>
<linearGradient id="paint92_linear_1730_8284" x1="-4.48042e-06" y1="358.262" x2="232.266" y2="108.527" gradientUnits="userSpaceOnUse">
<stop stop-color="#C0C0C0"/>
<stop offset="1" stop-color="#C0C0C0" stop-opacity="0"/>
</linearGradient>
<linearGradient id="paint93_linear_1730_8284" x1="-4.48042e-06" y1="358.262" x2="232.266" y2="108.527" gradientUnits="userSpaceOnUse">
<stop stop-color="#C0C0C0"/>
<stop offset="1" stop-color="#C0C0C0" stop-opacity="0"/>
</linearGradient>
<linearGradient id="paint94_linear_1730_8284" x1="-4.48042e-06" y1="358.262" x2="232.266" y2="108.527" gradientUnits="userSpaceOnUse">
<stop stop-color="#C0C0C0"/>
<stop offset="1" stop-color="#C0C0C0" stop-opacity="0"/>
</linearGradient>
<linearGradient id="paint95_linear_1730_8284" x1="-4.48042e-06" y1="358.262" x2="232.266" y2="108.527" gradientUnits="userSpaceOnUse">
<stop stop-color="#C0C0C0"/>
<stop offset="1" stop-color="#C0C0C0" stop-opacity="0"/>
</linearGradient>
<linearGradient id="paint96_linear_1730_8284" x1="-4.48042e-06" y1="358.262" x2="232.266" y2="108.527" gradientUnits="userSpaceOnUse">
<stop stop-color="#C0C0C0"/>
<stop offset="1" stop-color="#C0C0C0" stop-opacity="0"/>
</linearGradient>
<linearGradient id="paint97_linear_1730_8284" x1="-4.48042e-06" y1="358.262" x2="232.266" y2="108.527" gradientUnits="userSpaceOnUse">
<stop stop-color="#C0C0C0"/>
<stop offset="1" stop-color="#C0C0C0" stop-opacity="0"/>
</linearGradient>
<linearGradient id="paint98_linear_1730_8284" x1="-4.48042e-06" y1="358.262" x2="232.266" y2="108.527" gradientUnits="userSpaceOnUse">
<stop stop-color="#C0C0C0"/>
<stop offset="1" stop-color="#C0C0C0" stop-opacity="0"/>
</linearGradient>
<linearGradient id="paint99_linear_1730_8284" x1="-4.48042e-06" y1="358.262" x2="232.266" y2="108.527" gradientUnits="userSpaceOnUse">
<stop stop-color="#C0C0C0"/>
<stop offset="1" stop-color="#C0C0C0" stop-opacity="0"/>
</linearGradient>
<linearGradient id="paint100_linear_1730_8284" x1="-4.48042e-06" y1="358.262" x2="232.266" y2="108.527" gradientUnits="userSpaceOnUse">
<stop stop-color="#C0C0C0"/>
<stop offset="1" stop-color="#C0C0C0" stop-opacity="0"/>
</linearGradient>
<linearGradient id="paint101_linear_1730_8284" x1="-4.48042e-06" y1="358.262" x2="232.266" y2="108.527" gradientUnits="userSpaceOnUse">
<stop stop-color="#C0C0C0"/>
<stop offset="1" stop-color="#C0C0C0" stop-opacity="0"/>
</linearGradient>
<linearGradient id="paint102_linear_1730_8284" x1="-4.48042e-06" y1="358.262" x2="232.266" y2="108.527" gradientUnits="userSpaceOnUse">
<stop stop-color="#C0C0C0"/>
<stop offset="1" stop-color="#C0C0C0" stop-opacity="0"/>
</linearGradient>
<linearGradient id="paint103_linear_1730_8284" x1="-4.48042e-06" y1="358.262" x2="232.266" y2="108.527" gradientUnits="userSpaceOnUse">
<stop stop-color="#C0C0C0"/>
<stop offset="1" stop-color="#C0C0C0" stop-opacity="0"/>
</linearGradient>
<linearGradient id="paint104_linear_1730_8284" x1="-4.48042e-06" y1="358.262" x2="232.266" y2="108.527" gradientUnits="userSpaceOnUse">
<stop stop-color="#C0C0C0"/>
<stop offset="1" stop-color="#C0C0C0" stop-opacity="0"/>
</linearGradient>
<linearGradient id="paint105_linear_1730_8284" x1="-4.48042e-06" y1="358.262" x2="232.266" y2="108.527" gradientUnits="userSpaceOnUse">
<stop stop-color="#C0C0C0"/>
<stop offset="1" stop-color="#C0C0C0" stop-opacity="0"/>
</linearGradient>
<linearGradient id="paint106_linear_1730_8284" x1="-4.48042e-06" y1="358.262" x2="232.266" y2="108.527" gradientUnits="userSpaceOnUse">
<stop stop-color="#C0C0C0"/>
<stop offset="1" stop-color="#C0C0C0" stop-opacity="0"/>
</linearGradient>
<linearGradient id="paint107_linear_1730_8284" x1="-4.48042e-06" y1="358.262" x2="232.266" y2="108.527" gradientUnits="userSpaceOnUse">
<stop stop-color="#C0C0C0"/>
<stop offset="1" stop-color="#C0C0C0" stop-opacity="0"/>
</linearGradient>
<linearGradient id="paint108_linear_1730_8284" x1="-4.48042e-06" y1="358.262" x2="232.266" y2="108.527" gradientUnits="userSpaceOnUse">
<stop stop-color="#C0C0C0"/>
<stop offset="1" stop-color="#C0C0C0" stop-opacity="0"/>
</linearGradient>
<linearGradient id="paint109_linear_1730_8284" x1="-4.48042e-06" y1="358.262" x2="232.266" y2="108.527" gradientUnits="userSpaceOnUse">
<stop stop-color="#C0C0C0"/>
<stop offset="1" stop-color="#C0C0C0" stop-opacity="0"/>
</linearGradient>
<linearGradient id="paint110_linear_1730_8284" x1="-4.48042e-06" y1="358.262" x2="232.266" y2="108.527" gradientUnits="userSpaceOnUse">
<stop stop-color="#C0C0C0"/>
<stop offset="1" stop-color="#C0C0C0" stop-opacity="0"/>
</linearGradient>
<linearGradient id="paint111_linear_1730_8284" x1="-4.48042e-06" y1="358.262" x2="232.266" y2="108.527" gradientUnits="userSpaceOnUse">
<stop stop-color="#C0C0C0"/>
<stop offset="1" stop-color="#C0C0C0" stop-opacity="0"/>
</linearGradient>
<linearGradient id="paint112_linear_1730_8284" x1="-4.48042e-06" y1="358.262" x2="232.266" y2="108.527" gradientUnits="userSpaceOnUse">
<stop stop-color="#C0C0C0"/>
<stop offset="1" stop-color="#C0C0C0" stop-opacity="0"/>
</linearGradient>
<linearGradient id="paint113_linear_1730_8284" x1="-4.48042e-06" y1="358.262" x2="232.266" y2="108.527" gradientUnits="userSpaceOnUse">
<stop stop-color="#C0C0C0"/>
<stop offset="1" stop-color="#C0C0C0" stop-opacity="0"/>
</linearGradient>
<linearGradient id="paint114_linear_1730_8284" x1="-4.48042e-06" y1="358.262" x2="232.266" y2="108.527" gradientUnits="userSpaceOnUse">
<stop stop-color="#C0C0C0"/>
<stop offset="1" stop-color="#C0C0C0" stop-opacity="0"/>
</linearGradient>
<linearGradient id="paint115_linear_1730_8284" x1="-4.48042e-06" y1="358.262" x2="232.266" y2="108.527" gradientUnits="userSpaceOnUse">
<stop stop-color="#C0C0C0"/>
<stop offset="1" stop-color="#C0C0C0" stop-opacity="0"/>
</linearGradient>
<linearGradient id="paint116_linear_1730_8284" x1="-4.48042e-06" y1="358.262" x2="232.266" y2="108.527" gradientUnits="userSpaceOnUse">
<stop stop-color="#C0C0C0"/>
<stop offset="1" stop-color="#C0C0C0" stop-opacity="0"/>
</linearGradient>
<linearGradient id="paint117_linear_1730_8284" x1="-4.48042e-06" y1="358.262" x2="232.266" y2="108.527" gradientUnits="userSpaceOnUse">
<stop stop-color="#C0C0C0"/>
<stop offset="1" stop-color="#C0C0C0" stop-opacity="0"/>
</linearGradient>
<linearGradient id="paint118_linear_1730_8284" x1="-4.48042e-06" y1="358.262" x2="232.266" y2="108.527" gradientUnits="userSpaceOnUse">
<stop stop-color="#C0C0C0"/>
<stop offset="1" stop-color="#C0C0C0" stop-opacity="0"/>
</linearGradient>
<linearGradient id="paint119_linear_1730_8284" x1="-4.48042e-06" y1="358.262" x2="232.266" y2="108.527" gradientUnits="userSpaceOnUse">
<stop stop-color="#C0C0C0"/>
<stop offset="1" stop-color="#C0C0C0" stop-opacity="0"/>
</linearGradient>
<linearGradient id="paint120_linear_1730_8284" x1="-4.48042e-06" y1="358.262" x2="232.266" y2="108.527" gradientUnits="userSpaceOnUse">
<stop stop-color="#C0C0C0"/>
<stop offset="1" stop-color="#C0C0C0" stop-opacity="0"/>
</linearGradient>
<linearGradient id="paint121_linear_1730_8284" x1="-4.48042e-06" y1="358.262" x2="232.266" y2="108.527" gradientUnits="userSpaceOnUse">
<stop stop-color="#C0C0C0"/>
<stop offset="1" stop-color="#C0C0C0" stop-opacity="0"/>
</linearGradient>
<linearGradient id="paint122_linear_1730_8284" x1="-4.48042e-06" y1="358.262" x2="232.266" y2="108.527" gradientUnits="userSpaceOnUse">
<stop stop-color="#C0C0C0"/>
<stop offset="1" stop-color="#C0C0C0" stop-opacity="0"/>
</linearGradient>
<linearGradient id="paint123_linear_1730_8284" x1="-4.48042e-06" y1="358.262" x2="232.266" y2="108.527" gradientUnits="userSpaceOnUse">
<stop stop-color="#C0C0C0"/>
<stop offset="1" stop-color="#C0C0C0" stop-opacity="0"/>
</linearGradient>
<linearGradient id="paint124_linear_1730_8284" x1="-4.48042e-06" y1="358.262" x2="232.266" y2="108.527" gradientUnits="userSpaceOnUse">
<stop stop-color="#C0C0C0"/>
<stop offset="1" stop-color="#C0C0C0" stop-opacity="0"/>
</linearGradient>
<linearGradient id="paint125_linear_1730_8284" x1="-4.48042e-06" y1="358.262" x2="232.266" y2="108.527" gradientUnits="userSpaceOnUse">
<stop stop-color="#C0C0C0"/>
<stop offset="1" stop-color="#C0C0C0" stop-opacity="0"/>
</linearGradient>
<linearGradient id="paint126_linear_1730_8284" x1="-4.48042e-06" y1="358.262" x2="232.266" y2="108.527" gradientUnits="userSpaceOnUse">
<stop stop-color="#C0C0C0"/>
<stop offset="1" stop-color="#C0C0C0" stop-opacity="0"/>
</linearGradient>
<linearGradient id="paint127_linear_1730_8284" x1="-4.48042e-06" y1="358.262" x2="232.266" y2="108.527" gradientUnits="userSpaceOnUse">
<stop stop-color="#C0C0C0"/>
<stop offset="1" stop-color="#C0C0C0" stop-opacity="0"/>
</linearGradient>
<linearGradient id="paint128_linear_1730_8284" x1="-4.48042e-06" y1="358.262" x2="232.266" y2="108.527" gradientUnits="userSpaceOnUse">
<stop stop-color="#C0C0C0"/>
<stop offset="1" stop-color="#C0C0C0" stop-opacity="0"/>
</linearGradient>
<linearGradient id="paint129_linear_1730_8284" x1="-4.48042e-06" y1="358.262" x2="232.266" y2="108.527" gradientUnits="userSpaceOnUse">
<stop stop-color="#C0C0C0"/>
<stop offset="1" stop-color="#C0C0C0" stop-opacity="0"/>
</linearGradient>
<linearGradient id="paint130_linear_1730_8284" x1="-4.48042e-06" y1="358.262" x2="232.266" y2="108.527" gradientUnits="userSpaceOnUse">
<stop stop-color="#C0C0C0"/>
<stop offset="1" stop-color="#C0C0C0" stop-opacity="0"/>
</linearGradient>
<linearGradient id="paint131_linear_1730_8284" x1="-4.48042e-06" y1="358.262" x2="232.266" y2="108.527" gradientUnits="userSpaceOnUse">
<stop stop-color="#C0C0C0"/>
<stop offset="1" stop-color="#C0C0C0" stop-opacity="0"/>
</linearGradient>
<linearGradient id="paint132_linear_1730_8284" x1="-4.48042e-06" y1="358.262" x2="232.266" y2="108.527" gradientUnits="userSpaceOnUse">
<stop stop-color="#C0C0C0"/>
<stop offset="1" stop-color="#C0C0C0" stop-opacity="0"/>
</linearGradient>
<linearGradient id="paint133_linear_1730_8284" x1="-4.48042e-06" y1="358.262" x2="232.266" y2="108.527" gradientUnits="userSpaceOnUse">
<stop stop-color="#C0C0C0"/>
<stop offset="1" stop-color="#C0C0C0" stop-opacity="0"/>
</linearGradient>
<linearGradient id="paint134_linear_1730_8284" x1="-4.48042e-06" y1="358.262" x2="232.266" y2="108.527" gradientUnits="userSpaceOnUse">
<stop stop-color="#C0C0C0"/>
<stop offset="1" stop-color="#C0C0C0" stop-opacity="0"/>
</linearGradient>
<linearGradient id="paint135_linear_1730_8284" x1="-4.48042e-06" y1="358.262" x2="232.266" y2="108.527" gradientUnits="userSpaceOnUse">
<stop stop-color="#C0C0C0"/>
<stop offset="1" stop-color="#C0C0C0" stop-opacity="0"/>
</linearGradient>
<linearGradient id="paint136_linear_1730_8284" x1="-4.48042e-06" y1="358.262" x2="232.266" y2="108.527" gradientUnits="userSpaceOnUse">
<stop stop-color="#C0C0C0"/>
<stop offset="1" stop-color="#C0C0C0" stop-opacity="0"/>
</linearGradient>
<linearGradient id="paint137_linear_1730_8284" x1="-4.48042e-06" y1="358.262" x2="232.266" y2="108.527" gradientUnits="userSpaceOnUse">
<stop stop-color="#C0C0C0"/>
<stop offset="1" stop-color="#C0C0C0" stop-opacity="0"/>
</linearGradient>
<linearGradient id="paint138_linear_1730_8284" x1="-4.48042e-06" y1="358.262" x2="232.266" y2="108.527" gradientUnits="userSpaceOnUse">
<stop stop-color="#C0C0C0"/>
<stop offset="1" stop-color="#C0C0C0" stop-opacity="0"/>
</linearGradient>
<linearGradient id="paint139_linear_1730_8284" x1="-4.48042e-06" y1="358.262" x2="232.266" y2="108.527" gradientUnits="userSpaceOnUse">
<stop stop-color="#C0C0C0"/>
<stop offset="1" stop-color="#C0C0C0" stop-opacity="0"/>
</linearGradient>
<linearGradient id="paint140_linear_1730_8284" x1="-4.48042e-06" y1="358.262" x2="232.266" y2="108.527" gradientUnits="userSpaceOnUse">
<stop stop-color="#C0C0C0"/>
<stop offset="1" stop-color="#C0C0C0" stop-opacity="0"/>
</linearGradient>
<linearGradient id="paint141_linear_1730_8284" x1="-4.48042e-06" y1="358.262" x2="232.266" y2="108.527" gradientUnits="userSpaceOnUse">
<stop stop-color="#C0C0C0"/>
<stop offset="1" stop-color="#C0C0C0" stop-opacity="0"/>
</linearGradient>
<linearGradient id="paint142_linear_1730_8284" x1="-4.48042e-06" y1="358.262" x2="232.266" y2="108.527" gradientUnits="userSpaceOnUse">
<stop stop-color="#C0C0C0"/>
<stop offset="1" stop-color="#C0C0C0" stop-opacity="0"/>
</linearGradient>
<linearGradient id="paint143_linear_1730_8284" x1="-4.48042e-06" y1="358.262" x2="232.266" y2="108.527" gradientUnits="userSpaceOnUse">
<stop stop-color="#C0C0C0"/>
<stop offset="1" stop-color="#C0C0C0" stop-opacity="0"/>
</linearGradient>
<linearGradient id="paint144_linear_1730_8284" x1="-4.48042e-06" y1="358.262" x2="232.266" y2="108.527" gradientUnits="userSpaceOnUse">
<stop stop-color="#C0C0C0"/>
<stop offset="1" stop-color="#C0C0C0" stop-opacity="0"/>
</linearGradient>
<linearGradient id="paint145_linear_1730_8284" x1="-4.48042e-06" y1="358.262" x2="232.266" y2="108.527" gradientUnits="userSpaceOnUse">
<stop stop-color="#C0C0C0"/>
<stop offset="1" stop-color="#C0C0C0" stop-opacity="0"/>
</linearGradient>
<linearGradient id="paint146_linear_1730_8284" x1="-4.48042e-06" y1="358.262" x2="232.266" y2="108.527" gradientUnits="userSpaceOnUse">
<stop stop-color="#C0C0C0"/>
<stop offset="1" stop-color="#C0C0C0" stop-opacity="0"/>
</linearGradient>
<linearGradient id="paint147_linear_1730_8284" x1="-4.48042e-06" y1="358.262" x2="232.266" y2="108.527" gradientUnits="userSpaceOnUse">
<stop stop-color="#C0C0C0"/>
<stop offset="1" stop-color="#C0C0C0" stop-opacity="0"/>
</linearGradient>
<linearGradient id="paint148_linear_1730_8284" x1="-4.48042e-06" y1="358.262" x2="232.266" y2="108.527" gradientUnits="userSpaceOnUse">
<stop stop-color="#C0C0C0"/>
<stop offset="1" stop-color="#C0C0C0" stop-opacity="0"/>
</linearGradient>
<linearGradient id="paint149_linear_1730_8284" x1="-4.48042e-06" y1="358.262" x2="232.266" y2="108.527" gradientUnits="userSpaceOnUse">
<stop stop-color="#C0C0C0"/>
<stop offset="1" stop-color="#C0C0C0" stop-opacity="0"/>
</linearGradient>
<linearGradient id="paint150_linear_1730_8284" x1="-4.48042e-06" y1="358.262" x2="232.266" y2="108.527" gradientUnits="userSpaceOnUse">
<stop stop-color="#C0C0C0"/>
<stop offset="1" stop-color="#C0C0C0" stop-opacity="0"/>
</linearGradient>
<linearGradient id="paint151_linear_1730_8284" x1="-4.48042e-06" y1="358.262" x2="232.266" y2="108.527" gradientUnits="userSpaceOnUse">
<stop stop-color="#C0C0C0"/>
<stop offset="1" stop-color="#C0C0C0" stop-opacity="0"/>
</linearGradient>
<linearGradient id="paint152_linear_1730_8284" x1="-4.48042e-06" y1="358.262" x2="232.266" y2="108.527" gradientUnits="userSpaceOnUse">
<stop stop-color="#C0C0C0"/>
<stop offset="1" stop-color="#C0C0C0" stop-opacity="0"/>
</linearGradient>
<linearGradient id="paint153_linear_1730_8284" x1="-4.48042e-06" y1="358.262" x2="232.266" y2="108.527" gradientUnits="userSpaceOnUse">
<stop stop-color="#C0C0C0"/>
<stop offset="1" stop-color="#C0C0C0" stop-opacity="0"/>
</linearGradient>
<linearGradient id="paint154_linear_1730_8284" x1="-4.48042e-06" y1="358.262" x2="232.266" y2="108.527" gradientUnits="userSpaceOnUse">
<stop stop-color="#C0C0C0"/>
<stop offset="1" stop-color="#C0C0C0" stop-opacity="0"/>
</linearGradient>
</defs>
</svg>
