<svg width="368" height="368" viewBox="0 0 368 368" fill="none" xmlns="http://www.w3.org/2000/svg">
<g opacity="0.1">
<path fillRule="evenodd" clipRule="evenodd" d="M0.296902 82.3497L368 82.3497L368 83.2553L0.296902 83.2553L0.296902 82.3497Z" fill="url(#paint0_linear_1730_8283)"/>
<path fillRule="evenodd" clipRule="evenodd" d="M0.296903 53.6229L368 53.6229L368 54.5285L0.296903 54.5285L0.296903 53.6229Z" fill="url(#paint1_linear_1730_8283)"/>
<path fillRule="evenodd" clipRule="evenodd" d="M0.296904 24.8961L368 24.8961L368 25.8017L0.296904 25.8017L0.296904 24.8961Z" fill="url(#paint2_linear_1730_8283)"/>
<path fillRule="evenodd" clipRule="evenodd" d="M112.14 367.703L112.14 -1.11048e-05L113.045 -1.11444e-05L113.046 367.703L112.14 367.703Z" fill="url(#paint3_linear_1730_8283)"/>
<path fillRule="evenodd" clipRule="evenodd" d="M83.4131 367.703L83.4131 -1.23605e-05L84.3187 -1.24001e-05L84.3187 367.703L83.4131 367.703Z" fill="url(#paint4_linear_1730_8283)"/>
<path fillRule="evenodd" clipRule="evenodd" d="M54.6863 367.703L54.6862 -1.36162e-05L55.5919 -1.36558e-05L55.5919 367.703L54.6863 367.703Z" fill="url(#paint5_linear_1730_8283)"/>
<path fillRule="evenodd" clipRule="evenodd" d="M25.9593 367.703L25.9593 -1.48719e-05L26.8649 -1.49115e-05L26.8649 367.703L25.9593 367.703Z" fill="url(#paint6_linear_1730_8283)"/>
<path fillRule="evenodd" clipRule="evenodd" d="M0.296901 111.077L368 111.077L368 111.982L0.296901 111.982L0.296901 111.077Z" fill="url(#paint7_linear_1730_8283)"/>
<path fillRule="evenodd" clipRule="evenodd" d="M140.867 367.703L140.867 -9.84914e-06L141.772 -9.88873e-06L141.772 367.703L140.867 367.703Z" fill="url(#paint8_linear_1730_8283)"/>
<path fillRule="evenodd" clipRule="evenodd" d="M0.296899 139.803L368 139.803L368 140.709L0.296899 140.709L0.296899 139.803Z" fill="url(#paint9_linear_1730_8283)"/>
<path fillRule="evenodd" clipRule="evenodd" d="M169.594 367.703L169.594 -8.59345e-06L170.499 -8.63303e-06L170.499 367.703L169.594 367.703Z" fill="url(#paint10_linear_1730_8283)"/>
<path fillRule="evenodd" clipRule="evenodd" d="M0.296898 168.53L368 168.53L368 169.436L0.296898 169.436L0.296898 168.53Z" fill="url(#paint11_linear_1730_8283)"/>
<path fillRule="evenodd" clipRule="evenodd" d="M198.32 367.703L198.32 -7.33777e-06L199.226 -7.37735e-06L199.226 367.703L198.32 367.703Z" fill="url(#paint12_linear_1730_8283)"/>
<path fillRule="evenodd" clipRule="evenodd" d="M0.296897 197.257L368 197.257L368 198.163L0.296897 198.163L0.296897 197.257Z" fill="url(#paint13_linear_1730_8283)"/>
<path fillRule="evenodd" clipRule="evenodd" d="M227.047 367.703L227.047 -6.08208e-06L227.953 -6.12166e-06L227.953 367.703L227.047 367.703Z" fill="url(#paint14_linear_1730_8283)"/>
<path fillRule="evenodd" clipRule="evenodd" d="M0.296896 225.984L368 225.984L368 226.889L0.296896 226.889L0.296896 225.984Z" fill="url(#paint15_linear_1730_8283)"/>
<path fillRule="evenodd" clipRule="evenodd" d="M255.774 367.703L255.774 -4.82639e-06L256.679 -4.86597e-06L256.68 367.703L255.774 367.703Z" fill="url(#paint16_linear_1730_8283)"/>
<path fillRule="evenodd" clipRule="evenodd" d="M0.296894 254.711L368 254.711L368 255.616L0.296894 255.616L0.296894 254.711Z" fill="url(#paint17_linear_1730_8283)"/>
<path fillRule="evenodd" clipRule="evenodd" d="M284.501 367.703L284.501 -3.5707e-06L285.406 -3.61029e-06L285.406 367.703L284.501 367.703Z" fill="url(#paint18_linear_1730_8283)"/>
<path fillRule="evenodd" clipRule="evenodd" d="M0.296893 283.437L368 283.437L368 284.343L0.296893 284.343L0.296893 283.437Z" fill="url(#paint19_linear_1730_8283)"/>
<path fillRule="evenodd" clipRule="evenodd" d="M313.228 367.703L313.227 -2.31501e-06L314.133 -2.3546e-06L314.133 367.703L313.228 367.703Z" fill="url(#paint20_linear_1730_8283)"/>
<path fillRule="evenodd" clipRule="evenodd" d="M0.296892 312.164L368 312.164L368 313.07L0.296892 313.07L0.296892 312.164Z" fill="url(#paint21_linear_1730_8283)"/>
<path fillRule="evenodd" clipRule="evenodd" d="M341.954 367.703L341.954 -1.05932e-06L342.86 -1.09891e-06L342.86 367.703L341.954 367.703Z" fill="url(#paint22_linear_1730_8283)"/>
<path d="M58.1336 283.438C56.5365 284.029 55.2773 285.288 54.6864 286.885C54.0954 285.288 52.8362 284.029 51.2392 283.438C52.8362 282.847 54.0954 281.587 54.6864 279.99C55.2773 281.587 56.5365 282.847 58.1336 283.438Z" fill="url(#paint23_linear_1730_8283)"/>
<path d="M58.1336 312.164C56.5365 312.755 55.2773 314.015 54.6864 315.612C54.0954 314.015 52.8362 312.755 51.2392 312.164C52.8362 311.573 54.0954 310.314 54.6864 308.717C55.2773 310.314 56.5365 311.573 58.1336 312.164Z" fill="url(#paint24_linear_1730_8283)"/>
<path d="M58.1336 254.711C56.5365 255.302 55.2773 256.561 54.6864 258.158C54.0954 256.561 52.8362 255.302 51.2392 254.711C52.8362 254.12 54.0954 252.861 54.6864 251.264C55.2773 252.861 56.5365 254.12 58.1336 254.711Z" fill="url(#paint25_linear_1730_8283)"/>
<path d="M58.1336 225.984C56.5365 226.575 55.2773 227.834 54.6864 229.431C54.0954 227.834 52.8362 226.575 51.2392 225.984C52.8362 225.393 54.0954 224.134 54.6864 222.537C55.2773 224.134 56.5365 225.393 58.1336 225.984Z" fill="url(#paint26_linear_1730_8283)"/>
<path d="M58.1336 197.257C56.5365 197.848 55.2773 199.107 54.6864 200.704C54.0954 199.107 52.8362 197.848 51.2392 197.257C52.8362 196.666 54.0954 195.407 54.6864 193.81C55.2773 195.407 56.5365 196.666 58.1336 197.257Z" fill="url(#paint27_linear_1730_8283)"/>
<path d="M58.1336 168.53C56.5365 169.121 55.2773 170.38 54.6864 171.978C54.0954 170.38 52.8362 169.121 51.2392 168.53C52.8362 167.939 54.0954 166.68 54.6864 165.083C55.2773 166.68 56.5365 167.939 58.1336 168.53Z" fill="url(#paint28_linear_1730_8283)"/>
<path d="M58.1336 111.077C56.5365 111.668 55.2773 112.927 54.6864 114.524C54.0954 112.927 52.8362 111.668 51.2392 111.077C52.8362 110.486 54.0954 109.227 54.6864 107.629C55.2773 109.227 56.5365 110.486 58.1336 111.077Z" fill="url(#paint29_linear_1730_8283)"/>
<path d="M58.1336 139.803C56.5365 140.394 55.2773 141.654 54.6864 143.251C54.0954 141.654 52.8362 140.394 51.2392 139.803C52.8362 139.213 54.0954 137.953 54.6864 136.356C55.2773 137.953 56.5365 139.213 58.1336 139.803Z" fill="url(#paint30_linear_1730_8283)"/>
<path d="M58.1336 82.3499C56.5365 82.9409 55.2773 84.2 54.6864 85.7971C54.0954 84.2 52.8362 82.9409 51.2392 82.3499C52.8362 81.7589 54.0954 80.4997 54.6864 78.9027C55.2773 80.4997 56.5365 81.7589 58.1336 82.3499Z" fill="url(#paint31_linear_1730_8283)"/>
<path d="M58.1336 53.6231C56.5365 54.214 55.2773 55.4732 54.6864 57.0703C54.0954 55.4732 52.8362 54.214 51.2392 53.6231C52.8362 53.0321 54.0954 51.7729 54.6864 50.1759C55.2773 51.7729 56.5365 53.0321 58.1336 53.6231Z" fill="url(#paint32_linear_1730_8283)"/>
<path d="M58.1337 24.8961C56.5366 25.487 55.2774 26.7462 54.6864 28.3433C54.0955 26.7462 52.8363 25.487 51.2392 24.8961C52.8363 24.3051 54.0955 23.0459 54.6864 21.4488C55.2774 23.0459 56.5366 24.3051 58.1337 24.8961Z" fill="url(#paint33_linear_1730_8283)"/>
<path d="M29.4068 283.438C27.8097 284.029 26.5505 285.288 25.9596 286.885C25.3686 285.288 24.1094 284.029 22.5123 283.438C24.1094 282.847 25.3686 281.587 25.9596 279.99C26.5505 281.587 27.8097 282.847 29.4068 283.438Z" fill="url(#paint34_linear_1730_8283)"/>
<path d="M29.4068 312.164C27.8097 312.755 26.5505 314.015 25.9596 315.612C25.3686 314.015 24.1094 312.755 22.5123 312.164C24.1094 311.573 25.3686 310.314 25.9596 308.717C26.5505 310.314 27.8097 311.573 29.4068 312.164Z" fill="url(#paint35_linear_1730_8283)"/>
<path d="M29.4068 254.711C27.8097 255.302 26.5505 256.561 25.9596 258.158C25.3686 256.561 24.1094 255.302 22.5123 254.711C24.1094 254.12 25.3686 252.861 25.9596 251.264C26.5505 252.861 27.8097 254.12 29.4068 254.711Z" fill="url(#paint36_linear_1730_8283)"/>
<path d="M29.4068 225.984C27.8097 226.575 26.5505 227.834 25.9596 229.431C25.3686 227.834 24.1094 226.575 22.5123 225.984C24.1094 225.393 25.3686 224.134 25.9596 222.537C26.5505 224.134 27.8097 225.393 29.4068 225.984Z" fill="url(#paint37_linear_1730_8283)"/>
<path d="M29.4068 197.257C27.8097 197.848 26.5505 199.107 25.9596 200.704C25.3686 199.107 24.1094 197.848 22.5124 197.257C24.1094 196.666 25.3686 195.407 25.9596 193.81C26.5505 195.407 27.8097 196.666 29.4068 197.257Z" fill="url(#paint38_linear_1730_8283)"/>
<path d="M29.4068 168.53C27.8097 169.121 26.5505 170.38 25.9596 171.978C25.3686 170.38 24.1094 169.121 22.5124 168.53C24.1094 167.939 25.3686 166.68 25.9596 165.083C26.5505 166.68 27.8097 167.939 29.4068 168.53Z" fill="url(#paint39_linear_1730_8283)"/>
<path d="M29.4068 111.077C27.8097 111.668 26.5505 112.927 25.9596 114.524C25.3686 112.927 24.1094 111.668 22.5124 111.077C24.1094 110.486 25.3686 109.227 25.9596 107.629C26.5505 109.227 27.8097 110.486 29.4068 111.077Z" fill="url(#paint40_linear_1730_8283)"/>
<path d="M29.4068 139.803C27.8097 140.394 26.5505 141.654 25.9596 143.251C25.3686 141.654 24.1094 140.394 22.5124 139.803C24.1094 139.213 25.3686 137.953 25.9596 136.356C26.5505 137.953 27.8097 139.213 29.4068 139.803Z" fill="url(#paint41_linear_1730_8283)"/>
<path d="M29.4068 82.3499C27.8097 82.9408 26.5505 84.2 25.9596 85.7971C25.3686 84.2 24.1094 82.9408 22.5124 82.3499C24.1094 81.7589 25.3686 80.4997 25.9596 78.9027C26.5505 80.4997 27.8097 81.7589 29.4068 82.3499Z" fill="url(#paint42_linear_1730_8283)"/>
<path d="M29.4068 53.6231C27.8097 54.214 26.5505 55.4732 25.9596 57.0703C25.3686 55.4732 24.1094 54.214 22.5124 53.6231C24.1094 53.0321 25.3686 51.7729 25.9596 50.1759C26.5505 51.7729 27.8097 53.0321 29.4068 53.6231Z" fill="url(#paint43_linear_1730_8283)"/>
<path d="M29.4069 24.8961C27.8098 25.487 26.5506 26.7462 25.9596 28.3433C25.3687 26.7462 24.1095 25.487 22.5124 24.8961C24.1095 24.3051 25.3687 23.0459 25.9596 21.4488C26.5506 23.0459 27.8098 24.3051 29.4069 24.8961Z" fill="url(#paint44_linear_1730_8283)"/>
<path d="M86.8604 283.438C85.2633 284.029 84.0041 285.288 83.4132 286.885C82.8222 285.288 81.563 284.029 79.966 283.438C81.563 282.847 82.8222 281.587 83.4132 279.99C84.0041 281.587 85.2633 282.847 86.8604 283.438Z" fill="url(#paint45_linear_1730_8283)"/>
<path d="M86.8604 312.164C85.2633 312.755 84.0041 314.015 83.4132 315.612C82.8222 314.015 81.563 312.755 79.966 312.164C81.563 311.573 82.8222 310.314 83.4132 308.717C84.0041 310.314 85.2633 311.573 86.8604 312.164Z" fill="url(#paint46_linear_1730_8283)"/>
<path d="M86.8604 254.711C85.2633 255.302 84.0041 256.561 83.4132 258.158C82.8222 256.561 81.563 255.302 79.966 254.711C81.563 254.12 82.8222 252.861 83.4132 251.264C84.0041 252.861 85.2633 254.12 86.8604 254.711Z" fill="url(#paint47_linear_1730_8283)"/>
<path d="M86.8604 225.984C85.2633 226.575 84.0041 227.834 83.4132 229.431C82.8222 227.834 81.563 226.575 79.966 225.984C81.563 225.393 82.8222 224.134 83.4132 222.537C84.0041 224.134 85.2633 225.393 86.8604 225.984Z" fill="url(#paint48_linear_1730_8283)"/>
<path d="M86.8604 197.257C85.2633 197.848 84.0041 199.107 83.4132 200.704C82.8222 199.107 81.563 197.848 79.966 197.257C81.563 196.666 82.8222 195.407 83.4132 193.81C84.0041 195.407 85.2633 196.666 86.8604 197.257Z" fill="url(#paint49_linear_1730_8283)"/>
<path d="M86.8604 168.53C85.2633 169.121 84.0041 170.38 83.4132 171.978C82.8222 170.38 81.563 169.121 79.966 168.53C81.563 167.939 82.8222 166.68 83.4132 165.083C84.0041 166.68 85.2633 167.939 86.8604 168.53Z" fill="url(#paint50_linear_1730_8283)"/>
<path d="M86.8604 111.077C85.2633 111.668 84.0041 112.927 83.4132 114.524C82.8222 112.927 81.563 111.668 79.966 111.077C81.563 110.486 82.8222 109.227 83.4132 107.629C84.0041 109.227 85.2633 110.486 86.8604 111.077Z" fill="url(#paint51_linear_1730_8283)"/>
<path d="M86.8604 139.804C85.2633 140.394 84.0041 141.654 83.4132 143.251C82.8222 141.654 81.563 140.394 79.966 139.803C81.563 139.213 82.8222 137.953 83.4132 136.356C84.0041 137.953 85.2633 139.213 86.8604 139.804Z" fill="url(#paint52_linear_1730_8283)"/>
<path d="M86.8604 82.3499C85.2633 82.9409 84.0041 84.2 83.4132 85.7971C82.8222 84.2 81.563 82.9409 79.966 82.3499C81.563 81.7589 82.8222 80.4997 83.4132 78.9027C84.0041 80.4997 85.2633 81.7589 86.8604 82.3499Z" fill="url(#paint53_linear_1730_8283)"/>
<path d="M86.8604 53.6231C85.2633 54.214 84.0041 55.4732 83.4132 57.0703C82.8222 55.4732 81.563 54.214 79.966 53.6231C81.563 53.0321 82.8222 51.7729 83.4132 50.1759C84.0041 51.7729 85.2633 53.0321 86.8604 53.6231Z" fill="url(#paint54_linear_1730_8283)"/>
<path d="M86.8604 24.8961C85.2634 25.487 84.0042 26.7462 83.4132 28.3433C82.8223 26.7462 81.5631 25.487 79.966 24.8961C81.5631 24.3051 82.8223 23.0459 83.4132 21.4488C84.0042 23.0459 85.2634 24.3051 86.8604 24.8961Z" fill="url(#paint55_linear_1730_8283)"/>
<path d="M115.587 283.438C113.99 284.029 112.731 285.288 112.14 286.885C111.549 285.288 110.29 284.029 108.693 283.438C110.29 282.847 111.549 281.587 112.14 279.99C112.731 281.587 113.99 282.847 115.587 283.438Z" fill="url(#paint56_linear_1730_8283)"/>
<path d="M115.587 312.164C113.99 312.755 112.731 314.015 112.14 315.612C111.549 314.015 110.29 312.755 108.693 312.164C110.29 311.573 111.549 310.314 112.14 308.717C112.731 310.314 113.99 311.573 115.587 312.164Z" fill="url(#paint57_linear_1730_8283)"/>
<path d="M115.587 254.711C113.99 255.302 112.731 256.561 112.14 258.158C111.549 256.561 110.29 255.302 108.693 254.711C110.29 254.12 111.549 252.861 112.14 251.264C112.731 252.861 113.99 254.12 115.587 254.711Z" fill="url(#paint58_linear_1730_8283)"/>
<path d="M115.587 225.984C113.99 226.575 112.731 227.834 112.14 229.431C111.549 227.834 110.29 226.575 108.693 225.984C110.29 225.393 111.549 224.134 112.14 222.537C112.731 224.134 113.99 225.393 115.587 225.984Z" fill="url(#paint59_linear_1730_8283)"/>
<path d="M115.587 197.257C113.99 197.848 112.731 199.107 112.14 200.704C111.549 199.107 110.29 197.848 108.693 197.257C110.29 196.666 111.549 195.407 112.14 193.81C112.731 195.407 113.99 196.666 115.587 197.257Z" fill="url(#paint60_linear_1730_8283)"/>
<path d="M115.587 168.53C113.99 169.121 112.731 170.38 112.14 171.978C111.549 170.38 110.29 169.121 108.693 168.53C110.29 167.939 111.549 166.68 112.14 165.083C112.731 166.68 113.99 167.939 115.587 168.53Z" fill="url(#paint61_linear_1730_8283)"/>
<path d="M115.587 111.077C113.99 111.668 112.731 112.927 112.14 114.524C111.549 112.927 110.29 111.668 108.693 111.077C110.29 110.486 111.549 109.227 112.14 107.629C112.731 109.227 113.99 110.486 115.587 111.077Z" fill="url(#paint62_linear_1730_8283)"/>
<path d="M115.587 139.804C113.99 140.394 112.731 141.654 112.14 143.251C111.549 141.654 110.29 140.394 108.693 139.804C110.29 139.213 111.549 137.953 112.14 136.356C112.731 137.953 113.99 139.213 115.587 139.804Z" fill="url(#paint63_linear_1730_8283)"/>
<path d="M115.587 82.3499C113.99 82.9409 112.731 84.2 112.14 85.7971C111.549 84.2 110.29 82.9409 108.693 82.3499C110.29 81.7589 111.549 80.4997 112.14 78.9027C112.731 80.4997 113.99 81.7589 115.587 82.3499Z" fill="url(#paint64_linear_1730_8283)"/>
<path d="M115.587 53.6231C113.99 54.2141 112.731 55.4732 112.14 57.0703C111.549 55.4732 110.29 54.2141 108.693 53.6231C110.29 53.0321 111.549 51.7729 112.14 50.1759C112.731 51.7729 113.99 53.0321 115.587 53.6231Z" fill="url(#paint65_linear_1730_8283)"/>
<path d="M115.587 24.8961C113.99 25.487 112.731 26.7462 112.14 28.3433C111.549 26.7462 110.29 25.487 108.693 24.8961C110.29 24.3051 111.549 23.0459 112.14 21.4488C112.731 23.0459 113.99 24.3051 115.587 24.8961Z" fill="url(#paint66_linear_1730_8283)"/>
<path d="M144.314 283.438C142.717 284.029 141.458 285.288 140.867 286.885C140.276 285.288 139.017 284.029 137.42 283.438C139.017 282.847 140.276 281.587 140.867 279.99C141.458 281.587 142.717 282.847 144.314 283.438Z" fill="url(#paint67_linear_1730_8283)"/>
<path d="M144.314 312.164C142.717 312.755 141.458 314.015 140.867 315.612C140.276 314.015 139.017 312.755 137.42 312.164C139.017 311.573 140.276 310.314 140.867 308.717C141.458 310.314 142.717 311.573 144.314 312.164Z" fill="url(#paint68_linear_1730_8283)"/>
<path d="M144.314 254.711C142.717 255.302 141.458 256.561 140.867 258.158C140.276 256.561 139.017 255.302 137.42 254.711C139.017 254.12 140.276 252.861 140.867 251.264C141.458 252.861 142.717 254.12 144.314 254.711Z" fill="url(#paint69_linear_1730_8283)"/>
<path d="M144.314 225.984C142.717 226.575 141.458 227.834 140.867 229.431C140.276 227.834 139.017 226.575 137.42 225.984C139.017 225.393 140.276 224.134 140.867 222.537C141.458 224.134 142.717 225.393 144.314 225.984Z" fill="url(#paint70_linear_1730_8283)"/>
<path d="M144.314 197.257C142.717 197.848 141.458 199.107 140.867 200.704C140.276 199.107 139.017 197.848 137.42 197.257C139.017 196.666 140.276 195.407 140.867 193.81C141.458 195.407 142.717 196.666 144.314 197.257Z" fill="url(#paint71_linear_1730_8283)"/>
<path d="M144.314 168.53C142.717 169.121 141.458 170.38 140.867 171.978C140.276 170.38 139.017 169.121 137.42 168.53C139.017 167.939 140.276 166.68 140.867 165.083C141.458 166.68 142.717 167.939 144.314 168.53Z" fill="url(#paint72_linear_1730_8283)"/>
<path d="M144.314 111.077C142.717 111.668 141.458 112.927 140.867 114.524C140.276 112.927 139.017 111.668 137.42 111.077C139.017 110.486 140.276 109.227 140.867 107.629C141.458 109.227 142.717 110.486 144.314 111.077Z" fill="url(#paint73_linear_1730_8283)"/>
<path d="M144.314 139.804C142.717 140.394 141.458 141.654 140.867 143.251C140.276 141.654 139.017 140.394 137.42 139.804C139.017 139.213 140.276 137.953 140.867 136.356C141.458 137.953 142.717 139.213 144.314 139.804Z" fill="url(#paint74_linear_1730_8283)"/>
<path d="M144.314 82.3499C142.717 82.9409 141.458 84.2 140.867 85.7971C140.276 84.2 139.017 82.9409 137.42 82.3499C139.017 81.7589 140.276 80.4997 140.867 78.9027C141.458 80.4997 142.717 81.7589 144.314 82.3499Z" fill="url(#paint75_linear_1730_8283)"/>
<path d="M144.314 53.6231C142.717 54.2141 141.458 55.4732 140.867 57.0703C140.276 55.4732 139.017 54.2141 137.42 53.6231C139.017 53.0321 140.276 51.7729 140.867 50.1759C141.458 51.7729 142.717 53.0321 144.314 53.6231Z" fill="url(#paint76_linear_1730_8283)"/>
<path d="M144.314 24.8961C142.717 25.487 141.458 26.7462 140.867 28.3433C140.276 26.7462 139.017 25.487 137.42 24.8961C139.017 24.3051 140.276 23.0459 140.867 21.4488C141.458 23.0459 142.717 24.3051 144.314 24.8961Z" fill="url(#paint77_linear_1730_8283)"/>
<path d="M173.041 283.438C171.444 284.029 170.185 285.288 169.594 286.885C169.003 285.288 167.743 284.029 166.146 283.438C167.743 282.847 169.003 281.587 169.594 279.99C170.185 281.587 171.444 282.847 173.041 283.438Z" fill="url(#paint78_linear_1730_8283)"/>
<path d="M173.041 312.164C171.444 312.755 170.185 314.015 169.594 315.612C169.003 314.015 167.743 312.755 166.146 312.164C167.743 311.573 169.003 310.314 169.594 308.717C170.185 310.314 171.444 311.573 173.041 312.164Z" fill="url(#paint79_linear_1730_8283)"/>
<path d="M173.041 254.711C171.444 255.302 170.185 256.561 169.594 258.158C169.003 256.561 167.743 255.302 166.146 254.711C167.743 254.12 169.003 252.861 169.594 251.264C170.185 252.861 171.444 254.12 173.041 254.711Z" fill="url(#paint80_linear_1730_8283)"/>
<path d="M173.041 225.984C171.444 226.575 170.185 227.834 169.594 229.431C169.003 227.834 167.743 226.575 166.146 225.984C167.743 225.393 169.003 224.134 169.594 222.537C170.185 224.134 171.444 225.393 173.041 225.984Z" fill="url(#paint81_linear_1730_8283)"/>
<path d="M173.041 197.257C171.444 197.848 170.185 199.107 169.594 200.704C169.003 199.107 167.743 197.848 166.146 197.257C167.743 196.666 169.003 195.407 169.594 193.81C170.185 195.407 171.444 196.666 173.041 197.257Z" fill="url(#paint82_linear_1730_8283)"/>
<path d="M173.041 168.53C171.444 169.121 170.185 170.38 169.594 171.978C169.003 170.38 167.743 169.121 166.146 168.53C167.743 167.939 169.003 166.68 169.594 165.083C170.185 166.68 171.444 167.939 173.041 168.53Z" fill="url(#paint83_linear_1730_8283)"/>
<path d="M173.041 111.077C171.444 111.668 170.185 112.927 169.594 114.524C169.003 112.927 167.743 111.668 166.146 111.077C167.743 110.486 169.003 109.227 169.594 107.629C170.185 109.227 171.444 110.486 173.041 111.077Z" fill="url(#paint84_linear_1730_8283)"/>
<path d="M173.041 139.804C171.444 140.394 170.185 141.654 169.594 143.251C169.003 141.654 167.743 140.394 166.146 139.804C167.743 139.213 169.003 137.953 169.594 136.356C170.185 137.953 171.444 139.213 173.041 139.804Z" fill="url(#paint85_linear_1730_8283)"/>
<path d="M173.041 82.3499C171.444 82.9409 170.185 84.2 169.594 85.7971C169.003 84.2 167.743 82.9409 166.146 82.3499C167.743 81.7589 169.003 80.4997 169.594 78.9027C170.185 80.4997 171.444 81.7589 173.041 82.3499Z" fill="url(#paint86_linear_1730_8283)"/>
<path d="M173.041 53.6231C171.444 54.2141 170.185 55.4732 169.594 57.0703C169.003 55.4732 167.743 54.2141 166.146 53.6231C167.743 53.0321 169.003 51.7729 169.594 50.1759C170.185 51.7729 171.444 53.0321 173.041 53.6231Z" fill="url(#paint87_linear_1730_8283)"/>
<path d="M173.041 24.8961C171.444 25.487 170.185 26.7462 169.594 28.3433C169.003 26.7462 167.744 25.487 166.146 24.8961C167.744 24.3051 169.003 23.0459 169.594 21.4488C170.185 23.0459 171.444 24.3051 173.041 24.8961Z" fill="url(#paint88_linear_1730_8283)"/>
<path d="M201.768 283.438C200.171 284.029 198.911 285.288 198.32 286.885C197.729 285.288 196.47 284.029 194.873 283.438C196.47 282.847 197.729 281.587 198.32 279.99C198.911 281.587 200.171 282.847 201.768 283.438Z" fill="url(#paint89_linear_1730_8283)"/>
<path d="M201.768 312.164C200.171 312.755 198.911 314.015 198.32 315.612C197.729 314.015 196.47 312.755 194.873 312.164C196.47 311.573 197.729 310.314 198.32 308.717C198.911 310.314 200.171 311.573 201.768 312.164Z" fill="url(#paint90_linear_1730_8283)"/>
<path d="M201.768 254.711C200.171 255.302 198.911 256.561 198.32 258.158C197.729 256.561 196.47 255.302 194.873 254.711C196.47 254.12 197.729 252.861 198.32 251.264C198.911 252.861 200.171 254.12 201.768 254.711Z" fill="url(#paint91_linear_1730_8283)"/>
<path d="M201.768 225.984C200.171 226.575 198.911 227.834 198.32 229.431C197.729 227.834 196.47 226.575 194.873 225.984C196.47 225.393 197.729 224.134 198.32 222.537C198.911 224.134 200.171 225.393 201.768 225.984Z" fill="url(#paint92_linear_1730_8283)"/>
<path d="M201.768 197.257C200.171 197.848 198.911 199.107 198.32 200.704C197.729 199.107 196.47 197.848 194.873 197.257C196.47 196.666 197.729 195.407 198.32 193.81C198.911 195.407 200.171 196.666 201.768 197.257Z" fill="url(#paint93_linear_1730_8283)"/>
<path d="M201.768 168.53C200.171 169.121 198.911 170.38 198.32 171.978C197.729 170.38 196.47 169.121 194.873 168.53C196.47 167.939 197.729 166.68 198.32 165.083C198.911 166.68 200.171 167.939 201.768 168.53Z" fill="url(#paint94_linear_1730_8283)"/>
<path d="M201.768 111.077C200.171 111.668 198.911 112.927 198.32 114.524C197.729 112.927 196.47 111.668 194.873 111.077C196.47 110.486 197.729 109.227 198.32 107.629C198.911 109.227 200.171 110.486 201.768 111.077Z" fill="url(#paint95_linear_1730_8283)"/>
<path d="M201.768 139.804C200.171 140.394 198.911 141.654 198.32 143.251C197.729 141.654 196.47 140.394 194.873 139.804C196.47 139.213 197.729 137.953 198.32 136.356C198.911 137.953 200.171 139.213 201.768 139.804Z" fill="url(#paint96_linear_1730_8283)"/>
<path d="M201.768 82.3499C200.171 82.9409 198.911 84.2 198.32 85.7971C197.729 84.2 196.47 82.9409 194.873 82.3499C196.47 81.7589 197.729 80.4997 198.32 78.9027C198.911 80.4997 200.171 81.7589 201.768 82.3499Z" fill="url(#paint97_linear_1730_8283)"/>
<path d="M201.768 53.6231C200.171 54.2141 198.911 55.4732 198.32 57.0703C197.729 55.4732 196.47 54.2141 194.873 53.6231C196.47 53.0321 197.729 51.7729 198.32 50.1759C198.911 51.7729 200.171 53.0321 201.768 53.6231Z" fill="url(#paint98_linear_1730_8283)"/>
<path d="M201.768 24.8961C200.171 25.487 198.911 26.7462 198.32 28.3433C197.73 26.7462 196.47 25.487 194.873 24.8961C196.47 24.3051 197.73 23.0459 198.32 21.4489C198.911 23.0459 200.171 24.3051 201.768 24.8961Z" fill="url(#paint99_linear_1730_8283)"/>
<path d="M230.494 283.438C228.897 284.029 227.638 285.288 227.047 286.885C226.456 285.288 225.197 284.029 223.6 283.438C225.197 282.847 226.456 281.587 227.047 279.99C227.638 281.587 228.897 282.847 230.494 283.438Z" fill="url(#paint100_linear_1730_8283)"/>
<path d="M230.494 312.164C228.897 312.755 227.638 314.015 227.047 315.612C226.456 314.015 225.197 312.755 223.6 312.164C225.197 311.573 226.456 310.314 227.047 308.717C227.638 310.314 228.897 311.573 230.494 312.164Z" fill="url(#paint101_linear_1730_8283)"/>
<path d="M230.494 254.711C228.897 255.302 227.638 256.561 227.047 258.158C226.456 256.561 225.197 255.302 223.6 254.711C225.197 254.12 226.456 252.861 227.047 251.264C227.638 252.861 228.897 254.12 230.494 254.711Z" fill="url(#paint102_linear_1730_8283)"/>
<path d="M230.494 225.984C228.897 226.575 227.638 227.834 227.047 229.431C226.456 227.834 225.197 226.575 223.6 225.984C225.197 225.393 226.456 224.134 227.047 222.537C227.638 224.134 228.897 225.393 230.494 225.984Z" fill="url(#paint103_linear_1730_8283)"/>
<path d="M230.494 197.257C228.897 197.848 227.638 199.107 227.047 200.704C226.456 199.107 225.197 197.848 223.6 197.257C225.197 196.666 226.456 195.407 227.047 193.81C227.638 195.407 228.897 196.666 230.494 197.257Z" fill="url(#paint104_linear_1730_8283)"/>
<path d="M230.494 168.53C228.897 169.121 227.638 170.38 227.047 171.978C226.456 170.38 225.197 169.121 223.6 168.53C225.197 167.939 226.456 166.68 227.047 165.083C227.638 166.68 228.897 167.939 230.494 168.53Z" fill="url(#paint105_linear_1730_8283)"/>
<path d="M230.494 111.077C228.897 111.668 227.638 112.927 227.047 114.524C226.456 112.927 225.197 111.668 223.6 111.077C225.197 110.486 226.456 109.227 227.047 107.629C227.638 109.227 228.897 110.486 230.494 111.077Z" fill="url(#paint106_linear_1730_8283)"/>
<path d="M230.494 139.804C228.897 140.394 227.638 141.654 227.047 143.251C226.456 141.654 225.197 140.394 223.6 139.804C225.197 139.213 226.456 137.953 227.047 136.356C227.638 137.953 228.897 139.213 230.494 139.804Z" fill="url(#paint107_linear_1730_8283)"/>
<path d="M230.494 82.3499C228.897 82.9409 227.638 84.2 227.047 85.7971C226.456 84.2 225.197 82.9409 223.6 82.3499C225.197 81.7589 226.456 80.4997 227.047 78.9027C227.638 80.4997 228.897 81.7589 230.494 82.3499Z" fill="url(#paint108_linear_1730_8283)"/>
<path d="M230.494 53.6231C228.897 54.2141 227.638 55.4732 227.047 57.0703C226.456 55.4732 225.197 54.2141 223.6 53.6231C225.197 53.0321 226.456 51.7729 227.047 50.1759C227.638 51.7729 228.897 53.0321 230.494 53.6231Z" fill="url(#paint109_linear_1730_8283)"/>
<path d="M230.494 24.8961C228.897 25.487 227.638 26.7462 227.047 28.3433C226.456 26.7462 225.197 25.487 223.6 24.8961C225.197 24.3051 226.456 23.0459 227.047 21.4489C227.638 23.0459 228.897 24.3051 230.494 24.8961Z" fill="url(#paint110_linear_1730_8283)"/>
<path d="M259.221 283.438C257.624 284.029 256.365 285.288 255.774 286.885C255.183 285.288 253.924 284.029 252.327 283.438C253.924 282.847 255.183 281.587 255.774 279.99C256.365 281.587 257.624 282.847 259.221 283.438Z" fill="url(#paint111_linear_1730_8283)"/>
<path d="M259.221 312.164C257.624 312.755 256.365 314.015 255.774 315.612C255.183 314.015 253.924 312.755 252.327 312.164C253.924 311.573 255.183 310.314 255.774 308.717C256.365 310.314 257.624 311.573 259.221 312.164Z" fill="url(#paint112_linear_1730_8283)"/>
<path d="M259.221 254.711C257.624 255.302 256.365 256.561 255.774 258.158C255.183 256.561 253.924 255.302 252.327 254.711C253.924 254.12 255.183 252.861 255.774 251.264C256.365 252.861 257.624 254.12 259.221 254.711Z" fill="url(#paint113_linear_1730_8283)"/>
<path d="M259.221 225.984C257.624 226.575 256.365 227.834 255.774 229.431C255.183 227.834 253.924 226.575 252.327 225.984C253.924 225.393 255.183 224.134 255.774 222.537C256.365 224.134 257.624 225.393 259.221 225.984Z" fill="url(#paint114_linear_1730_8283)"/>
<path d="M259.221 197.257C257.624 197.848 256.365 199.107 255.774 200.704C255.183 199.107 253.924 197.848 252.327 197.257C253.924 196.666 255.183 195.407 255.774 193.81C256.365 195.407 257.624 196.666 259.221 197.257Z" fill="url(#paint115_linear_1730_8283)"/>
<path d="M259.221 168.53C257.624 169.121 256.365 170.38 255.774 171.978C255.183 170.38 253.924 169.121 252.327 168.53C253.924 167.939 255.183 166.68 255.774 165.083C256.365 166.68 257.624 167.939 259.221 168.53Z" fill="url(#paint116_linear_1730_8283)"/>
<path d="M259.221 111.077C257.624 111.668 256.365 112.927 255.774 114.524C255.183 112.927 253.924 111.668 252.327 111.077C253.924 110.486 255.183 109.227 255.774 107.629C256.365 109.227 257.624 110.486 259.221 111.077Z" fill="url(#paint117_linear_1730_8283)"/>
<path d="M259.221 139.804C257.624 140.394 256.365 141.654 255.774 143.251C255.183 141.654 253.924 140.394 252.327 139.804C253.924 139.213 255.183 137.953 255.774 136.356C256.365 137.953 257.624 139.213 259.221 139.804Z" fill="url(#paint118_linear_1730_8283)"/>
<path d="M259.221 82.3499C257.624 82.9409 256.365 84.2 255.774 85.7971C255.183 84.2 253.924 82.9409 252.327 82.3499C253.924 81.7589 255.183 80.4997 255.774 78.9027C256.365 80.4997 257.624 81.7589 259.221 82.3499Z" fill="url(#paint119_linear_1730_8283)"/>
<path d="M259.221 53.6231C257.624 54.2141 256.365 55.4732 255.774 57.0703C255.183 55.4732 253.924 54.2141 252.327 53.6231C253.924 53.0321 255.183 51.7729 255.774 50.1759C256.365 51.7729 257.624 53.0321 259.221 53.6231Z" fill="url(#paint120_linear_1730_8283)"/>
<path d="M259.221 24.8961C257.624 25.487 256.365 26.7462 255.774 28.3433C255.183 26.7462 253.924 25.487 252.327 24.8961C253.924 24.3051 255.183 23.0459 255.774 21.4489C256.365 23.0459 257.624 24.3051 259.221 24.8961Z" fill="url(#paint121_linear_1730_8283)"/>
<path d="M287.948 283.438C286.351 284.029 285.092 285.288 284.501 286.885C283.91 285.288 282.651 284.029 281.054 283.438C282.651 282.847 283.91 281.587 284.501 279.99C285.092 281.587 286.351 282.847 287.948 283.438Z" fill="url(#paint122_linear_1730_8283)"/>
<path d="M287.948 312.164C286.351 312.755 285.092 314.015 284.501 315.612C283.91 314.015 282.651 312.755 281.054 312.164C282.651 311.573 283.91 310.314 284.501 308.717C285.092 310.314 286.351 311.573 287.948 312.164Z" fill="url(#paint123_linear_1730_8283)"/>
<path d="M287.948 254.711C286.351 255.302 285.092 256.561 284.501 258.158C283.91 256.561 282.651 255.302 281.054 254.711C282.651 254.12 283.91 252.861 284.501 251.264C285.092 252.861 286.351 254.12 287.948 254.711Z" fill="url(#paint124_linear_1730_8283)"/>
<path d="M287.948 225.984C286.351 226.575 285.092 227.834 284.501 229.431C283.91 227.834 282.651 226.575 281.054 225.984C282.651 225.393 283.91 224.134 284.501 222.537C285.092 224.134 286.351 225.393 287.948 225.984Z" fill="url(#paint125_linear_1730_8283)"/>
<path d="M287.948 197.257C286.351 197.848 285.092 199.107 284.501 200.704C283.91 199.107 282.651 197.848 281.054 197.257C282.651 196.666 283.91 195.407 284.501 193.81C285.092 195.407 286.351 196.666 287.948 197.257Z" fill="url(#paint126_linear_1730_8283)"/>
<path d="M287.948 168.53C286.351 169.121 285.092 170.38 284.501 171.978C283.91 170.38 282.651 169.121 281.054 168.53C282.651 167.939 283.91 166.68 284.501 165.083C285.092 166.68 286.351 167.939 287.948 168.53Z" fill="url(#paint127_linear_1730_8283)"/>
<path d="M287.948 111.077C286.351 111.668 285.092 112.927 284.501 114.524C283.91 112.927 282.651 111.668 281.054 111.077C282.651 110.486 283.91 109.227 284.501 107.629C285.092 109.227 286.351 110.486 287.948 111.077Z" fill="url(#paint128_linear_1730_8283)"/>
<path d="M287.948 139.804C286.351 140.394 285.092 141.654 284.501 143.251C283.91 141.654 282.651 140.394 281.054 139.804C282.651 139.213 283.91 137.953 284.501 136.356C285.092 137.953 286.351 139.213 287.948 139.804Z" fill="url(#paint129_linear_1730_8283)"/>
<path d="M287.948 82.3499C286.351 82.9409 285.092 84.2 284.501 85.7971C283.91 84.2 282.651 82.9409 281.054 82.3499C282.651 81.7589 283.91 80.4997 284.501 78.9027C285.092 80.4997 286.351 81.7589 287.948 82.3499Z" fill="url(#paint130_linear_1730_8283)"/>
<path d="M287.948 53.6231C286.351 54.2141 285.092 55.4732 284.501 57.0703C283.91 55.4732 282.651 54.2141 281.054 53.6231C282.651 53.0321 283.91 51.7729 284.501 50.1759C285.092 51.7729 286.351 53.0321 287.948 53.6231Z" fill="url(#paint131_linear_1730_8283)"/>
<path d="M287.948 24.8961C286.351 25.487 285.092 26.7462 284.501 28.3433C283.91 26.7462 282.651 25.487 281.054 24.8961C282.651 24.3051 283.91 23.0459 284.501 21.4489C285.092 23.0459 286.351 24.3051 287.948 24.8961Z" fill="url(#paint132_linear_1730_8283)"/>
<path d="M316.675 283.438C315.078 284.029 313.819 285.288 313.228 286.885C312.637 285.288 311.377 284.029 309.78 283.438C311.377 282.847 312.637 281.587 313.228 279.99C313.819 281.587 315.078 282.847 316.675 283.438Z" fill="url(#paint133_linear_1730_8283)"/>
<path d="M316.675 312.164C315.078 312.755 313.819 314.015 313.228 315.612C312.637 314.015 311.377 312.755 309.78 312.164C311.377 311.573 312.637 310.314 313.228 308.717C313.819 310.314 315.078 311.573 316.675 312.164Z" fill="url(#paint134_linear_1730_8283)"/>
<path d="M316.675 254.711C315.078 255.302 313.819 256.561 313.228 258.158C312.637 256.561 311.377 255.302 309.78 254.711C311.377 254.12 312.637 252.861 313.228 251.264C313.819 252.861 315.078 254.12 316.675 254.711Z" fill="url(#paint135_linear_1730_8283)"/>
<path d="M316.675 225.984C315.078 226.575 313.819 227.834 313.228 229.431C312.637 227.834 311.377 226.575 309.78 225.984C311.377 225.393 312.637 224.134 313.228 222.537C313.819 224.134 315.078 225.393 316.675 225.984Z" fill="url(#paint136_linear_1730_8283)"/>
<path d="M316.675 197.257C315.078 197.848 313.819 199.107 313.228 200.704C312.637 199.107 311.377 197.848 309.78 197.257C311.377 196.666 312.637 195.407 313.228 193.81C313.819 195.407 315.078 196.666 316.675 197.257Z" fill="url(#paint137_linear_1730_8283)"/>
<path d="M316.675 168.53C315.078 169.121 313.819 170.38 313.228 171.978C312.637 170.38 311.377 169.121 309.78 168.53C311.377 167.939 312.637 166.68 313.228 165.083C313.819 166.68 315.078 167.939 316.675 168.53Z" fill="url(#paint138_linear_1730_8283)"/>
<path d="M316.675 111.077C315.078 111.668 313.819 112.927 313.228 114.524C312.637 112.927 311.377 111.668 309.78 111.077C311.377 110.486 312.637 109.227 313.228 107.629C313.819 109.227 315.078 110.486 316.675 111.077Z" fill="url(#paint139_linear_1730_8283)"/>
<path d="M316.675 139.804C315.078 140.394 313.819 141.654 313.228 143.251C312.637 141.654 311.377 140.394 309.78 139.804C311.377 139.213 312.637 137.953 313.228 136.356C313.819 137.953 315.078 139.213 316.675 139.804Z" fill="url(#paint140_linear_1730_8283)"/>
<path d="M316.675 82.3499C315.078 82.9409 313.819 84.2 313.228 85.7971C312.637 84.2 311.377 82.9409 309.78 82.3499C311.377 81.7589 312.637 80.4997 313.228 78.9027C313.819 80.4997 315.078 81.7589 316.675 82.3499Z" fill="url(#paint141_linear_1730_8283)"/>
<path d="M316.675 53.6231C315.078 54.2141 313.819 55.4732 313.228 57.0703C312.637 55.4732 311.377 54.2141 309.78 53.6231C311.377 53.0321 312.637 51.7729 313.228 50.1759C313.819 51.7729 315.078 53.0321 316.675 53.6231Z" fill="url(#paint142_linear_1730_8283)"/>
<path d="M316.675 24.8961C315.078 25.487 313.819 26.7462 313.228 28.3433C312.637 26.7462 311.378 25.487 309.78 24.8961C311.378 24.3051 312.637 23.0459 313.228 21.4489C313.819 23.0459 315.078 24.3051 316.675 24.8961Z" fill="url(#paint143_linear_1730_8283)"/>
<path d="M345.402 283.438C343.805 284.029 342.545 285.288 341.954 286.885C341.363 285.288 340.104 284.029 338.507 283.438C340.104 282.847 341.363 281.587 341.954 279.99C342.545 281.587 343.805 282.847 345.402 283.438Z" fill="url(#paint144_linear_1730_8283)"/>
<path d="M345.402 312.164C343.805 312.755 342.545 314.015 341.954 315.612C341.363 314.015 340.104 312.755 338.507 312.164C340.104 311.573 341.363 310.314 341.954 308.717C342.545 310.314 343.805 311.573 345.402 312.164Z" fill="url(#paint145_linear_1730_8283)"/>
<path d="M345.402 254.711C343.805 255.302 342.545 256.561 341.954 258.158C341.363 256.561 340.104 255.302 338.507 254.711C340.104 254.12 341.363 252.861 341.954 251.264C342.545 252.861 343.805 254.12 345.402 254.711Z" fill="url(#paint146_linear_1730_8283)"/>
<path d="M345.402 225.984C343.805 226.575 342.545 227.834 341.954 229.431C341.363 227.834 340.104 226.575 338.507 225.984C340.104 225.393 341.363 224.134 341.954 222.537C342.545 224.134 343.805 225.393 345.402 225.984Z" fill="url(#paint147_linear_1730_8283)"/>
<path d="M345.402 197.257C343.805 197.848 342.545 199.107 341.954 200.704C341.363 199.107 340.104 197.848 338.507 197.257C340.104 196.666 341.363 195.407 341.954 193.81C342.545 195.407 343.805 196.666 345.402 197.257Z" fill="url(#paint148_linear_1730_8283)"/>
<path d="M345.402 168.53C343.805 169.121 342.545 170.38 341.954 171.978C341.363 170.38 340.104 169.121 338.507 168.53C340.104 167.939 341.363 166.68 341.954 165.083C342.545 166.68 343.805 167.939 345.402 168.53Z" fill="url(#paint149_linear_1730_8283)"/>
<path d="M345.402 111.077C343.805 111.668 342.545 112.927 341.954 114.524C341.363 112.927 340.104 111.668 338.507 111.077C340.104 110.486 341.363 109.227 341.954 107.629C342.545 109.227 343.805 110.486 345.402 111.077Z" fill="url(#paint150_linear_1730_8283)"/>
<path d="M345.402 139.804C343.805 140.394 342.545 141.654 341.954 143.251C341.363 141.654 340.104 140.394 338.507 139.804C340.104 139.213 341.363 137.953 341.954 136.356C342.545 137.953 343.805 139.213 345.402 139.804Z" fill="url(#paint151_linear_1730_8283)"/>
<path d="M345.402 82.3499C343.805 82.9409 342.545 84.2 341.954 85.7971C341.363 84.2 340.104 82.9409 338.507 82.3499C340.104 81.7589 341.363 80.4997 341.954 78.9027C342.545 80.4997 343.805 81.7589 345.402 82.3499Z" fill="url(#paint152_linear_1730_8283)"/>
<path d="M345.402 53.6231C343.805 54.2141 342.545 55.4732 341.954 57.0703C341.363 55.4732 340.104 54.2141 338.507 53.6231C340.104 53.0321 341.363 51.7729 341.954 50.1759C342.545 51.7729 343.805 53.0321 345.402 53.6231Z" fill="url(#paint153_linear_1730_8283)"/>
<path d="M345.402 24.8961C343.805 25.487 342.545 26.7462 341.954 28.3433C341.364 26.7462 340.104 25.487 338.507 24.8961C340.104 24.3051 341.364 23.0459 341.954 21.4489C342.545 23.0459 343.805 24.3051 345.402 24.8961Z" fill="url(#paint154_linear_1730_8283)"/>
</g>
<defs>
<linearGradient id="paint0_linear_1730_8283" x1="368" y1="5.81179" x2="132.733" y2="258.774" gradientUnits="userSpaceOnUse">
<stop stop-color="#C0C0C0"/>
<stop offset="1" stop-color="#C0C0C0" stop-opacity="0"/>
</linearGradient>
<linearGradient id="paint1_linear_1730_8283" x1="368" y1="5.81179" x2="132.733" y2="258.774" gradientUnits="userSpaceOnUse">
<stop stop-color="#C0C0C0"/>
<stop offset="1" stop-color="#C0C0C0" stop-opacity="0"/>
</linearGradient>
<linearGradient id="paint2_linear_1730_8283" x1="368" y1="5.81179" x2="132.733" y2="258.774" gradientUnits="userSpaceOnUse">
<stop stop-color="#C0C0C0"/>
<stop offset="1" stop-color="#C0C0C0" stop-opacity="0"/>
</linearGradient>
<linearGradient id="paint3_linear_1730_8283" x1="368" y1="5.81179" x2="132.733" y2="258.774" gradientUnits="userSpaceOnUse">
<stop stop-color="#C0C0C0"/>
<stop offset="1" stop-color="#C0C0C0" stop-opacity="0"/>
</linearGradient>
<linearGradient id="paint4_linear_1730_8283" x1="368" y1="5.81179" x2="132.733" y2="258.774" gradientUnits="userSpaceOnUse">
<stop stop-color="#C0C0C0"/>
<stop offset="1" stop-color="#C0C0C0" stop-opacity="0"/>
</linearGradient>
<linearGradient id="paint5_linear_1730_8283" x1="368" y1="5.81179" x2="132.733" y2="258.774" gradientUnits="userSpaceOnUse">
<stop stop-color="#C0C0C0"/>
<stop offset="1" stop-color="#C0C0C0" stop-opacity="0"/>
</linearGradient>
<linearGradient id="paint6_linear_1730_8283" x1="368" y1="5.81179" x2="132.733" y2="258.774" gradientUnits="userSpaceOnUse">
<stop stop-color="#C0C0C0"/>
<stop offset="1" stop-color="#C0C0C0" stop-opacity="0"/>
</linearGradient>
<linearGradient id="paint7_linear_1730_8283" x1="368" y1="5.81179" x2="132.733" y2="258.774" gradientUnits="userSpaceOnUse">
<stop stop-color="#C0C0C0"/>
<stop offset="1" stop-color="#C0C0C0" stop-opacity="0"/>
</linearGradient>
<linearGradient id="paint8_linear_1730_8283" x1="368" y1="5.81179" x2="132.733" y2="258.774" gradientUnits="userSpaceOnUse">
<stop stop-color="#C0C0C0"/>
<stop offset="1" stop-color="#C0C0C0" stop-opacity="0"/>
</linearGradient>
<linearGradient id="paint9_linear_1730_8283" x1="368" y1="5.81179" x2="132.733" y2="258.774" gradientUnits="userSpaceOnUse">
<stop stop-color="#C0C0C0"/>
<stop offset="1" stop-color="#C0C0C0" stop-opacity="0"/>
</linearGradient>
<linearGradient id="paint10_linear_1730_8283" x1="368" y1="5.81179" x2="132.733" y2="258.774" gradientUnits="userSpaceOnUse">
<stop stop-color="#C0C0C0"/>
<stop offset="1" stop-color="#C0C0C0" stop-opacity="0"/>
</linearGradient>
<linearGradient id="paint11_linear_1730_8283" x1="368" y1="5.81179" x2="132.733" y2="258.774" gradientUnits="userSpaceOnUse">
<stop stop-color="#C0C0C0"/>
<stop offset="1" stop-color="#C0C0C0" stop-opacity="0"/>
</linearGradient>
<linearGradient id="paint12_linear_1730_8283" x1="368" y1="5.81179" x2="132.733" y2="258.774" gradientUnits="userSpaceOnUse">
<stop stop-color="#C0C0C0"/>
<stop offset="1" stop-color="#C0C0C0" stop-opacity="0"/>
</linearGradient>
<linearGradient id="paint13_linear_1730_8283" x1="368" y1="5.81179" x2="132.733" y2="258.774" gradientUnits="userSpaceOnUse">
<stop stop-color="#C0C0C0"/>
<stop offset="1" stop-color="#C0C0C0" stop-opacity="0"/>
</linearGradient>
<linearGradient id="paint14_linear_1730_8283" x1="368" y1="5.81179" x2="132.733" y2="258.774" gradientUnits="userSpaceOnUse">
<stop stop-color="#C0C0C0"/>
<stop offset="1" stop-color="#C0C0C0" stop-opacity="0"/>
</linearGradient>
<linearGradient id="paint15_linear_1730_8283" x1="368" y1="5.81179" x2="132.733" y2="258.774" gradientUnits="userSpaceOnUse">
<stop stop-color="#C0C0C0"/>
<stop offset="1" stop-color="#C0C0C0" stop-opacity="0"/>
</linearGradient>
<linearGradient id="paint16_linear_1730_8283" x1="368" y1="5.81179" x2="132.733" y2="258.774" gradientUnits="userSpaceOnUse">
<stop stop-color="#C0C0C0"/>
<stop offset="1" stop-color="#C0C0C0" stop-opacity="0"/>
</linearGradient>
<linearGradient id="paint17_linear_1730_8283" x1="368" y1="5.81179" x2="132.733" y2="258.774" gradientUnits="userSpaceOnUse">
<stop stop-color="#C0C0C0"/>
<stop offset="1" stop-color="#C0C0C0" stop-opacity="0"/>
</linearGradient>
<linearGradient id="paint18_linear_1730_8283" x1="368" y1="5.81179" x2="132.733" y2="258.774" gradientUnits="userSpaceOnUse">
<stop stop-color="#C0C0C0"/>
<stop offset="1" stop-color="#C0C0C0" stop-opacity="0"/>
</linearGradient>
<linearGradient id="paint19_linear_1730_8283" x1="368" y1="5.81179" x2="132.733" y2="258.774" gradientUnits="userSpaceOnUse">
<stop stop-color="#C0C0C0"/>
<stop offset="1" stop-color="#C0C0C0" stop-opacity="0"/>
</linearGradient>
<linearGradient id="paint20_linear_1730_8283" x1="368" y1="5.81179" x2="132.733" y2="258.774" gradientUnits="userSpaceOnUse">
<stop stop-color="#C0C0C0"/>
<stop offset="1" stop-color="#C0C0C0" stop-opacity="0"/>
</linearGradient>
<linearGradient id="paint21_linear_1730_8283" x1="368" y1="5.81179" x2="132.733" y2="258.774" gradientUnits="userSpaceOnUse">
<stop stop-color="#C0C0C0"/>
<stop offset="1" stop-color="#C0C0C0" stop-opacity="0"/>
</linearGradient>
<linearGradient id="paint22_linear_1730_8283" x1="368" y1="5.81179" x2="132.733" y2="258.774" gradientUnits="userSpaceOnUse">
<stop stop-color="#C0C0C0"/>
<stop offset="1" stop-color="#C0C0C0" stop-opacity="0"/>
</linearGradient>
<linearGradient id="paint23_linear_1730_8283" x1="368" y1="5.81179" x2="132.733" y2="258.774" gradientUnits="userSpaceOnUse">
<stop stop-color="#C0C0C0"/>
<stop offset="1" stop-color="#C0C0C0" stop-opacity="0"/>
</linearGradient>
<linearGradient id="paint24_linear_1730_8283" x1="368" y1="5.81179" x2="132.733" y2="258.774" gradientUnits="userSpaceOnUse">
<stop stop-color="#C0C0C0"/>
<stop offset="1" stop-color="#C0C0C0" stop-opacity="0"/>
</linearGradient>
<linearGradient id="paint25_linear_1730_8283" x1="368" y1="5.81179" x2="132.733" y2="258.774" gradientUnits="userSpaceOnUse">
<stop stop-color="#C0C0C0"/>
<stop offset="1" stop-color="#C0C0C0" stop-opacity="0"/>
</linearGradient>
<linearGradient id="paint26_linear_1730_8283" x1="368" y1="5.81179" x2="132.733" y2="258.774" gradientUnits="userSpaceOnUse">
<stop stop-color="#C0C0C0"/>
<stop offset="1" stop-color="#C0C0C0" stop-opacity="0"/>
</linearGradient>
<linearGradient id="paint27_linear_1730_8283" x1="368" y1="5.81179" x2="132.733" y2="258.774" gradientUnits="userSpaceOnUse">
<stop stop-color="#C0C0C0"/>
<stop offset="1" stop-color="#C0C0C0" stop-opacity="0"/>
</linearGradient>
<linearGradient id="paint28_linear_1730_8283" x1="368" y1="5.81179" x2="132.733" y2="258.774" gradientUnits="userSpaceOnUse">
<stop stop-color="#C0C0C0"/>
<stop offset="1" stop-color="#C0C0C0" stop-opacity="0"/>
</linearGradient>
<linearGradient id="paint29_linear_1730_8283" x1="368" y1="5.81179" x2="132.733" y2="258.774" gradientUnits="userSpaceOnUse">
<stop stop-color="#C0C0C0"/>
<stop offset="1" stop-color="#C0C0C0" stop-opacity="0"/>
</linearGradient>
<linearGradient id="paint30_linear_1730_8283" x1="368" y1="5.81179" x2="132.733" y2="258.774" gradientUnits="userSpaceOnUse">
<stop stop-color="#C0C0C0"/>
<stop offset="1" stop-color="#C0C0C0" stop-opacity="0"/>
</linearGradient>
<linearGradient id="paint31_linear_1730_8283" x1="368" y1="5.81179" x2="132.733" y2="258.774" gradientUnits="userSpaceOnUse">
<stop stop-color="#C0C0C0"/>
<stop offset="1" stop-color="#C0C0C0" stop-opacity="0"/>
</linearGradient>
<linearGradient id="paint32_linear_1730_8283" x1="368" y1="5.81179" x2="132.733" y2="258.774" gradientUnits="userSpaceOnUse">
<stop stop-color="#C0C0C0"/>
<stop offset="1" stop-color="#C0C0C0" stop-opacity="0"/>
</linearGradient>
<linearGradient id="paint33_linear_1730_8283" x1="368" y1="5.81179" x2="132.733" y2="258.774" gradientUnits="userSpaceOnUse">
<stop stop-color="#C0C0C0"/>
<stop offset="1" stop-color="#C0C0C0" stop-opacity="0"/>
</linearGradient>
<linearGradient id="paint34_linear_1730_8283" x1="368" y1="5.81179" x2="132.733" y2="258.774" gradientUnits="userSpaceOnUse">
<stop stop-color="#C0C0C0"/>
<stop offset="1" stop-color="#C0C0C0" stop-opacity="0"/>
</linearGradient>
<linearGradient id="paint35_linear_1730_8283" x1="368" y1="5.81179" x2="132.733" y2="258.774" gradientUnits="userSpaceOnUse">
<stop stop-color="#C0C0C0"/>
<stop offset="1" stop-color="#C0C0C0" stop-opacity="0"/>
</linearGradient>
<linearGradient id="paint36_linear_1730_8283" x1="368" y1="5.81179" x2="132.733" y2="258.774" gradientUnits="userSpaceOnUse">
<stop stop-color="#C0C0C0"/>
<stop offset="1" stop-color="#C0C0C0" stop-opacity="0"/>
</linearGradient>
<linearGradient id="paint37_linear_1730_8283" x1="368" y1="5.81179" x2="132.733" y2="258.774" gradientUnits="userSpaceOnUse">
<stop stop-color="#C0C0C0"/>
<stop offset="1" stop-color="#C0C0C0" stop-opacity="0"/>
</linearGradient>
<linearGradient id="paint38_linear_1730_8283" x1="368" y1="5.81179" x2="132.733" y2="258.774" gradientUnits="userSpaceOnUse">
<stop stop-color="#C0C0C0"/>
<stop offset="1" stop-color="#C0C0C0" stop-opacity="0"/>
</linearGradient>
<linearGradient id="paint39_linear_1730_8283" x1="368" y1="5.81179" x2="132.733" y2="258.774" gradientUnits="userSpaceOnUse">
<stop stop-color="#C0C0C0"/>
<stop offset="1" stop-color="#C0C0C0" stop-opacity="0"/>
</linearGradient>
<linearGradient id="paint40_linear_1730_8283" x1="368" y1="5.81179" x2="132.733" y2="258.774" gradientUnits="userSpaceOnUse">
<stop stop-color="#C0C0C0"/>
<stop offset="1" stop-color="#C0C0C0" stop-opacity="0"/>
</linearGradient>
<linearGradient id="paint41_linear_1730_8283" x1="368" y1="5.81179" x2="132.733" y2="258.774" gradientUnits="userSpaceOnUse">
<stop stop-color="#C0C0C0"/>
<stop offset="1" stop-color="#C0C0C0" stop-opacity="0"/>
</linearGradient>
<linearGradient id="paint42_linear_1730_8283" x1="368" y1="5.81179" x2="132.733" y2="258.774" gradientUnits="userSpaceOnUse">
<stop stop-color="#C0C0C0"/>
<stop offset="1" stop-color="#C0C0C0" stop-opacity="0"/>
</linearGradient>
<linearGradient id="paint43_linear_1730_8283" x1="368" y1="5.81179" x2="132.733" y2="258.774" gradientUnits="userSpaceOnUse">
<stop stop-color="#C0C0C0"/>
<stop offset="1" stop-color="#C0C0C0" stop-opacity="0"/>
</linearGradient>
<linearGradient id="paint44_linear_1730_8283" x1="368" y1="5.81179" x2="132.733" y2="258.774" gradientUnits="userSpaceOnUse">
<stop stop-color="#C0C0C0"/>
<stop offset="1" stop-color="#C0C0C0" stop-opacity="0"/>
</linearGradient>
<linearGradient id="paint45_linear_1730_8283" x1="368" y1="5.81179" x2="132.733" y2="258.774" gradientUnits="userSpaceOnUse">
<stop stop-color="#C0C0C0"/>
<stop offset="1" stop-color="#C0C0C0" stop-opacity="0"/>
</linearGradient>
<linearGradient id="paint46_linear_1730_8283" x1="368" y1="5.81179" x2="132.733" y2="258.774" gradientUnits="userSpaceOnUse">
<stop stop-color="#C0C0C0"/>
<stop offset="1" stop-color="#C0C0C0" stop-opacity="0"/>
</linearGradient>
<linearGradient id="paint47_linear_1730_8283" x1="368" y1="5.81179" x2="132.733" y2="258.774" gradientUnits="userSpaceOnUse">
<stop stop-color="#C0C0C0"/>
<stop offset="1" stop-color="#C0C0C0" stop-opacity="0"/>
</linearGradient>
<linearGradient id="paint48_linear_1730_8283" x1="368" y1="5.81179" x2="132.733" y2="258.774" gradientUnits="userSpaceOnUse">
<stop stop-color="#C0C0C0"/>
<stop offset="1" stop-color="#C0C0C0" stop-opacity="0"/>
</linearGradient>
<linearGradient id="paint49_linear_1730_8283" x1="368" y1="5.81179" x2="132.733" y2="258.774" gradientUnits="userSpaceOnUse">
<stop stop-color="#C0C0C0"/>
<stop offset="1" stop-color="#C0C0C0" stop-opacity="0"/>
</linearGradient>
<linearGradient id="paint50_linear_1730_8283" x1="368" y1="5.81179" x2="132.733" y2="258.774" gradientUnits="userSpaceOnUse">
<stop stop-color="#C0C0C0"/>
<stop offset="1" stop-color="#C0C0C0" stop-opacity="0"/>
</linearGradient>
<linearGradient id="paint51_linear_1730_8283" x1="368" y1="5.81179" x2="132.733" y2="258.774" gradientUnits="userSpaceOnUse">
<stop stop-color="#C0C0C0"/>
<stop offset="1" stop-color="#C0C0C0" stop-opacity="0"/>
</linearGradient>
<linearGradient id="paint52_linear_1730_8283" x1="368" y1="5.81179" x2="132.733" y2="258.774" gradientUnits="userSpaceOnUse">
<stop stop-color="#C0C0C0"/>
<stop offset="1" stop-color="#C0C0C0" stop-opacity="0"/>
</linearGradient>
<linearGradient id="paint53_linear_1730_8283" x1="368" y1="5.81179" x2="132.733" y2="258.774" gradientUnits="userSpaceOnUse">
<stop stop-color="#C0C0C0"/>
<stop offset="1" stop-color="#C0C0C0" stop-opacity="0"/>
</linearGradient>
<linearGradient id="paint54_linear_1730_8283" x1="368" y1="5.81179" x2="132.733" y2="258.774" gradientUnits="userSpaceOnUse">
<stop stop-color="#C0C0C0"/>
<stop offset="1" stop-color="#C0C0C0" stop-opacity="0"/>
</linearGradient>
<linearGradient id="paint55_linear_1730_8283" x1="368" y1="5.81179" x2="132.733" y2="258.774" gradientUnits="userSpaceOnUse">
<stop stop-color="#C0C0C0"/>
<stop offset="1" stop-color="#C0C0C0" stop-opacity="0"/>
</linearGradient>
<linearGradient id="paint56_linear_1730_8283" x1="368" y1="5.81179" x2="132.733" y2="258.774" gradientUnits="userSpaceOnUse">
<stop stop-color="#C0C0C0"/>
<stop offset="1" stop-color="#C0C0C0" stop-opacity="0"/>
</linearGradient>
<linearGradient id="paint57_linear_1730_8283" x1="368" y1="5.81179" x2="132.733" y2="258.774" gradientUnits="userSpaceOnUse">
<stop stop-color="#C0C0C0"/>
<stop offset="1" stop-color="#C0C0C0" stop-opacity="0"/>
</linearGradient>
<linearGradient id="paint58_linear_1730_8283" x1="368" y1="5.81179" x2="132.733" y2="258.774" gradientUnits="userSpaceOnUse">
<stop stop-color="#C0C0C0"/>
<stop offset="1" stop-color="#C0C0C0" stop-opacity="0"/>
</linearGradient>
<linearGradient id="paint59_linear_1730_8283" x1="368" y1="5.81179" x2="132.733" y2="258.774" gradientUnits="userSpaceOnUse">
<stop stop-color="#C0C0C0"/>
<stop offset="1" stop-color="#C0C0C0" stop-opacity="0"/>
</linearGradient>
<linearGradient id="paint60_linear_1730_8283" x1="368" y1="5.81179" x2="132.733" y2="258.774" gradientUnits="userSpaceOnUse">
<stop stop-color="#C0C0C0"/>
<stop offset="1" stop-color="#C0C0C0" stop-opacity="0"/>
</linearGradient>
<linearGradient id="paint61_linear_1730_8283" x1="368" y1="5.81179" x2="132.733" y2="258.774" gradientUnits="userSpaceOnUse">
<stop stop-color="#C0C0C0"/>
<stop offset="1" stop-color="#C0C0C0" stop-opacity="0"/>
</linearGradient>
<linearGradient id="paint62_linear_1730_8283" x1="368" y1="5.81179" x2="132.733" y2="258.774" gradientUnits="userSpaceOnUse">
<stop stop-color="#C0C0C0"/>
<stop offset="1" stop-color="#C0C0C0" stop-opacity="0"/>
</linearGradient>
<linearGradient id="paint63_linear_1730_8283" x1="368" y1="5.81179" x2="132.733" y2="258.774" gradientUnits="userSpaceOnUse">
<stop stop-color="#C0C0C0"/>
<stop offset="1" stop-color="#C0C0C0" stop-opacity="0"/>
</linearGradient>
<linearGradient id="paint64_linear_1730_8283" x1="368" y1="5.81179" x2="132.733" y2="258.774" gradientUnits="userSpaceOnUse">
<stop stop-color="#C0C0C0"/>
<stop offset="1" stop-color="#C0C0C0" stop-opacity="0"/>
</linearGradient>
<linearGradient id="paint65_linear_1730_8283" x1="368" y1="5.81179" x2="132.733" y2="258.774" gradientUnits="userSpaceOnUse">
<stop stop-color="#C0C0C0"/>
<stop offset="1" stop-color="#C0C0C0" stop-opacity="0"/>
</linearGradient>
<linearGradient id="paint66_linear_1730_8283" x1="368" y1="5.81179" x2="132.733" y2="258.774" gradientUnits="userSpaceOnUse">
<stop stop-color="#C0C0C0"/>
<stop offset="1" stop-color="#C0C0C0" stop-opacity="0"/>
</linearGradient>
<linearGradient id="paint67_linear_1730_8283" x1="368" y1="5.81179" x2="132.733" y2="258.774" gradientUnits="userSpaceOnUse">
<stop stop-color="#C0C0C0"/>
<stop offset="1" stop-color="#C0C0C0" stop-opacity="0"/>
</linearGradient>
<linearGradient id="paint68_linear_1730_8283" x1="368" y1="5.81179" x2="132.733" y2="258.774" gradientUnits="userSpaceOnUse">
<stop stop-color="#C0C0C0"/>
<stop offset="1" stop-color="#C0C0C0" stop-opacity="0"/>
</linearGradient>
<linearGradient id="paint69_linear_1730_8283" x1="368" y1="5.81179" x2="132.733" y2="258.774" gradientUnits="userSpaceOnUse">
<stop stop-color="#C0C0C0"/>
<stop offset="1" stop-color="#C0C0C0" stop-opacity="0"/>
</linearGradient>
<linearGradient id="paint70_linear_1730_8283" x1="368" y1="5.81179" x2="132.733" y2="258.774" gradientUnits="userSpaceOnUse">
<stop stop-color="#C0C0C0"/>
<stop offset="1" stop-color="#C0C0C0" stop-opacity="0"/>
</linearGradient>
<linearGradient id="paint71_linear_1730_8283" x1="368" y1="5.81179" x2="132.733" y2="258.774" gradientUnits="userSpaceOnUse">
<stop stop-color="#C0C0C0"/>
<stop offset="1" stop-color="#C0C0C0" stop-opacity="0"/>
</linearGradient>
<linearGradient id="paint72_linear_1730_8283" x1="368" y1="5.81179" x2="132.733" y2="258.774" gradientUnits="userSpaceOnUse">
<stop stop-color="#C0C0C0"/>
<stop offset="1" stop-color="#C0C0C0" stop-opacity="0"/>
</linearGradient>
<linearGradient id="paint73_linear_1730_8283" x1="368" y1="5.81179" x2="132.733" y2="258.774" gradientUnits="userSpaceOnUse">
<stop stop-color="#C0C0C0"/>
<stop offset="1" stop-color="#C0C0C0" stop-opacity="0"/>
</linearGradient>
<linearGradient id="paint74_linear_1730_8283" x1="368" y1="5.81179" x2="132.733" y2="258.774" gradientUnits="userSpaceOnUse">
<stop stop-color="#C0C0C0"/>
<stop offset="1" stop-color="#C0C0C0" stop-opacity="0"/>
</linearGradient>
<linearGradient id="paint75_linear_1730_8283" x1="368" y1="5.81179" x2="132.733" y2="258.774" gradientUnits="userSpaceOnUse">
<stop stop-color="#C0C0C0"/>
<stop offset="1" stop-color="#C0C0C0" stop-opacity="0"/>
</linearGradient>
<linearGradient id="paint76_linear_1730_8283" x1="368" y1="5.81179" x2="132.733" y2="258.774" gradientUnits="userSpaceOnUse">
<stop stop-color="#C0C0C0"/>
<stop offset="1" stop-color="#C0C0C0" stop-opacity="0"/>
</linearGradient>
<linearGradient id="paint77_linear_1730_8283" x1="368" y1="5.81179" x2="132.733" y2="258.774" gradientUnits="userSpaceOnUse">
<stop stop-color="#C0C0C0"/>
<stop offset="1" stop-color="#C0C0C0" stop-opacity="0"/>
</linearGradient>
<linearGradient id="paint78_linear_1730_8283" x1="368" y1="5.81179" x2="132.733" y2="258.774" gradientUnits="userSpaceOnUse">
<stop stop-color="#C0C0C0"/>
<stop offset="1" stop-color="#C0C0C0" stop-opacity="0"/>
</linearGradient>
<linearGradient id="paint79_linear_1730_8283" x1="368" y1="5.81179" x2="132.733" y2="258.774" gradientUnits="userSpaceOnUse">
<stop stop-color="#C0C0C0"/>
<stop offset="1" stop-color="#C0C0C0" stop-opacity="0"/>
</linearGradient>
<linearGradient id="paint80_linear_1730_8283" x1="368" y1="5.81179" x2="132.733" y2="258.774" gradientUnits="userSpaceOnUse">
<stop stop-color="#C0C0C0"/>
<stop offset="1" stop-color="#C0C0C0" stop-opacity="0"/>
</linearGradient>
<linearGradient id="paint81_linear_1730_8283" x1="368" y1="5.81179" x2="132.733" y2="258.774" gradientUnits="userSpaceOnUse">
<stop stop-color="#C0C0C0"/>
<stop offset="1" stop-color="#C0C0C0" stop-opacity="0"/>
</linearGradient>
<linearGradient id="paint82_linear_1730_8283" x1="368" y1="5.81179" x2="132.733" y2="258.774" gradientUnits="userSpaceOnUse">
<stop stop-color="#C0C0C0"/>
<stop offset="1" stop-color="#C0C0C0" stop-opacity="0"/>
</linearGradient>
<linearGradient id="paint83_linear_1730_8283" x1="368" y1="5.81179" x2="132.733" y2="258.774" gradientUnits="userSpaceOnUse">
<stop stop-color="#C0C0C0"/>
<stop offset="1" stop-color="#C0C0C0" stop-opacity="0"/>
</linearGradient>
<linearGradient id="paint84_linear_1730_8283" x1="368" y1="5.81179" x2="132.733" y2="258.774" gradientUnits="userSpaceOnUse">
<stop stop-color="#C0C0C0"/>
<stop offset="1" stop-color="#C0C0C0" stop-opacity="0"/>
</linearGradient>
<linearGradient id="paint85_linear_1730_8283" x1="368" y1="5.81179" x2="132.733" y2="258.774" gradientUnits="userSpaceOnUse">
<stop stop-color="#C0C0C0"/>
<stop offset="1" stop-color="#C0C0C0" stop-opacity="0"/>
</linearGradient>
<linearGradient id="paint86_linear_1730_8283" x1="368" y1="5.81179" x2="132.733" y2="258.774" gradientUnits="userSpaceOnUse">
<stop stop-color="#C0C0C0"/>
<stop offset="1" stop-color="#C0C0C0" stop-opacity="0"/>
</linearGradient>
<linearGradient id="paint87_linear_1730_8283" x1="368" y1="5.81179" x2="132.733" y2="258.774" gradientUnits="userSpaceOnUse">
<stop stop-color="#C0C0C0"/>
<stop offset="1" stop-color="#C0C0C0" stop-opacity="0"/>
</linearGradient>
<linearGradient id="paint88_linear_1730_8283" x1="368" y1="5.81179" x2="132.733" y2="258.774" gradientUnits="userSpaceOnUse">
<stop stop-color="#C0C0C0"/>
<stop offset="1" stop-color="#C0C0C0" stop-opacity="0"/>
</linearGradient>
<linearGradient id="paint89_linear_1730_8283" x1="368" y1="5.81179" x2="132.733" y2="258.774" gradientUnits="userSpaceOnUse">
<stop stop-color="#C0C0C0"/>
<stop offset="1" stop-color="#C0C0C0" stop-opacity="0"/>
</linearGradient>
<linearGradient id="paint90_linear_1730_8283" x1="368" y1="5.81179" x2="132.733" y2="258.774" gradientUnits="userSpaceOnUse">
<stop stop-color="#C0C0C0"/>
<stop offset="1" stop-color="#C0C0C0" stop-opacity="0"/>
</linearGradient>
<linearGradient id="paint91_linear_1730_8283" x1="368" y1="5.81179" x2="132.733" y2="258.774" gradientUnits="userSpaceOnUse">
<stop stop-color="#C0C0C0"/>
<stop offset="1" stop-color="#C0C0C0" stop-opacity="0"/>
</linearGradient>
<linearGradient id="paint92_linear_1730_8283" x1="368" y1="5.81179" x2="132.733" y2="258.774" gradientUnits="userSpaceOnUse">
<stop stop-color="#C0C0C0"/>
<stop offset="1" stop-color="#C0C0C0" stop-opacity="0"/>
</linearGradient>
<linearGradient id="paint93_linear_1730_8283" x1="368" y1="5.81179" x2="132.733" y2="258.774" gradientUnits="userSpaceOnUse">
<stop stop-color="#C0C0C0"/>
<stop offset="1" stop-color="#C0C0C0" stop-opacity="0"/>
</linearGradient>
<linearGradient id="paint94_linear_1730_8283" x1="368" y1="5.81179" x2="132.733" y2="258.774" gradientUnits="userSpaceOnUse">
<stop stop-color="#C0C0C0"/>
<stop offset="1" stop-color="#C0C0C0" stop-opacity="0"/>
</linearGradient>
<linearGradient id="paint95_linear_1730_8283" x1="368" y1="5.81179" x2="132.733" y2="258.774" gradientUnits="userSpaceOnUse">
<stop stop-color="#C0C0C0"/>
<stop offset="1" stop-color="#C0C0C0" stop-opacity="0"/>
</linearGradient>
<linearGradient id="paint96_linear_1730_8283" x1="368" y1="5.81179" x2="132.733" y2="258.774" gradientUnits="userSpaceOnUse">
<stop stop-color="#C0C0C0"/>
<stop offset="1" stop-color="#C0C0C0" stop-opacity="0"/>
</linearGradient>
<linearGradient id="paint97_linear_1730_8283" x1="368" y1="5.81179" x2="132.733" y2="258.774" gradientUnits="userSpaceOnUse">
<stop stop-color="#C0C0C0"/>
<stop offset="1" stop-color="#C0C0C0" stop-opacity="0"/>
</linearGradient>
<linearGradient id="paint98_linear_1730_8283" x1="368" y1="5.81179" x2="132.733" y2="258.774" gradientUnits="userSpaceOnUse">
<stop stop-color="#C0C0C0"/>
<stop offset="1" stop-color="#C0C0C0" stop-opacity="0"/>
</linearGradient>
<linearGradient id="paint99_linear_1730_8283" x1="368" y1="5.81179" x2="132.733" y2="258.774" gradientUnits="userSpaceOnUse">
<stop stop-color="#C0C0C0"/>
<stop offset="1" stop-color="#C0C0C0" stop-opacity="0"/>
</linearGradient>
<linearGradient id="paint100_linear_1730_8283" x1="368" y1="5.81179" x2="132.733" y2="258.774" gradientUnits="userSpaceOnUse">
<stop stop-color="#C0C0C0"/>
<stop offset="1" stop-color="#C0C0C0" stop-opacity="0"/>
</linearGradient>
<linearGradient id="paint101_linear_1730_8283" x1="368" y1="5.81179" x2="132.733" y2="258.774" gradientUnits="userSpaceOnUse">
<stop stop-color="#C0C0C0"/>
<stop offset="1" stop-color="#C0C0C0" stop-opacity="0"/>
</linearGradient>
<linearGradient id="paint102_linear_1730_8283" x1="368" y1="5.81179" x2="132.733" y2="258.774" gradientUnits="userSpaceOnUse">
<stop stop-color="#C0C0C0"/>
<stop offset="1" stop-color="#C0C0C0" stop-opacity="0"/>
</linearGradient>
<linearGradient id="paint103_linear_1730_8283" x1="368" y1="5.81179" x2="132.733" y2="258.774" gradientUnits="userSpaceOnUse">
<stop stop-color="#C0C0C0"/>
<stop offset="1" stop-color="#C0C0C0" stop-opacity="0"/>
</linearGradient>
<linearGradient id="paint104_linear_1730_8283" x1="368" y1="5.81179" x2="132.733" y2="258.774" gradientUnits="userSpaceOnUse">
<stop stop-color="#C0C0C0"/>
<stop offset="1" stop-color="#C0C0C0" stop-opacity="0"/>
</linearGradient>
<linearGradient id="paint105_linear_1730_8283" x1="368" y1="5.81179" x2="132.733" y2="258.774" gradientUnits="userSpaceOnUse">
<stop stop-color="#C0C0C0"/>
<stop offset="1" stop-color="#C0C0C0" stop-opacity="0"/>
</linearGradient>
<linearGradient id="paint106_linear_1730_8283" x1="368" y1="5.81179" x2="132.733" y2="258.774" gradientUnits="userSpaceOnUse">
<stop stop-color="#C0C0C0"/>
<stop offset="1" stop-color="#C0C0C0" stop-opacity="0"/>
</linearGradient>
<linearGradient id="paint107_linear_1730_8283" x1="368" y1="5.81179" x2="132.733" y2="258.774" gradientUnits="userSpaceOnUse">
<stop stop-color="#C0C0C0"/>
<stop offset="1" stop-color="#C0C0C0" stop-opacity="0"/>
</linearGradient>
<linearGradient id="paint108_linear_1730_8283" x1="368" y1="5.81179" x2="132.733" y2="258.774" gradientUnits="userSpaceOnUse">
<stop stop-color="#C0C0C0"/>
<stop offset="1" stop-color="#C0C0C0" stop-opacity="0"/>
</linearGradient>
<linearGradient id="paint109_linear_1730_8283" x1="368" y1="5.81179" x2="132.733" y2="258.774" gradientUnits="userSpaceOnUse">
<stop stop-color="#C0C0C0"/>
<stop offset="1" stop-color="#C0C0C0" stop-opacity="0"/>
</linearGradient>
<linearGradient id="paint110_linear_1730_8283" x1="368" y1="5.81179" x2="132.733" y2="258.774" gradientUnits="userSpaceOnUse">
<stop stop-color="#C0C0C0"/>
<stop offset="1" stop-color="#C0C0C0" stop-opacity="0"/>
</linearGradient>
<linearGradient id="paint111_linear_1730_8283" x1="368" y1="5.81179" x2="132.733" y2="258.774" gradientUnits="userSpaceOnUse">
<stop stop-color="#C0C0C0"/>
<stop offset="1" stop-color="#C0C0C0" stop-opacity="0"/>
</linearGradient>
<linearGradient id="paint112_linear_1730_8283" x1="368" y1="5.81179" x2="132.733" y2="258.774" gradientUnits="userSpaceOnUse">
<stop stop-color="#C0C0C0"/>
<stop offset="1" stop-color="#C0C0C0" stop-opacity="0"/>
</linearGradient>
<linearGradient id="paint113_linear_1730_8283" x1="368" y1="5.81179" x2="132.733" y2="258.774" gradientUnits="userSpaceOnUse">
<stop stop-color="#C0C0C0"/>
<stop offset="1" stop-color="#C0C0C0" stop-opacity="0"/>
</linearGradient>
<linearGradient id="paint114_linear_1730_8283" x1="368" y1="5.81179" x2="132.733" y2="258.774" gradientUnits="userSpaceOnUse">
<stop stop-color="#C0C0C0"/>
<stop offset="1" stop-color="#C0C0C0" stop-opacity="0"/>
</linearGradient>
<linearGradient id="paint115_linear_1730_8283" x1="368" y1="5.81179" x2="132.733" y2="258.774" gradientUnits="userSpaceOnUse">
<stop stop-color="#C0C0C0"/>
<stop offset="1" stop-color="#C0C0C0" stop-opacity="0"/>
</linearGradient>
<linearGradient id="paint116_linear_1730_8283" x1="368" y1="5.81179" x2="132.733" y2="258.774" gradientUnits="userSpaceOnUse">
<stop stop-color="#C0C0C0"/>
<stop offset="1" stop-color="#C0C0C0" stop-opacity="0"/>
</linearGradient>
<linearGradient id="paint117_linear_1730_8283" x1="368" y1="5.81179" x2="132.733" y2="258.774" gradientUnits="userSpaceOnUse">
<stop stop-color="#C0C0C0"/>
<stop offset="1" stop-color="#C0C0C0" stop-opacity="0"/>
</linearGradient>
<linearGradient id="paint118_linear_1730_8283" x1="368" y1="5.81179" x2="132.733" y2="258.774" gradientUnits="userSpaceOnUse">
<stop stop-color="#C0C0C0"/>
<stop offset="1" stop-color="#C0C0C0" stop-opacity="0"/>
</linearGradient>
<linearGradient id="paint119_linear_1730_8283" x1="368" y1="5.81179" x2="132.733" y2="258.774" gradientUnits="userSpaceOnUse">
<stop stop-color="#C0C0C0"/>
<stop offset="1" stop-color="#C0C0C0" stop-opacity="0"/>
</linearGradient>
<linearGradient id="paint120_linear_1730_8283" x1="368" y1="5.81179" x2="132.733" y2="258.774" gradientUnits="userSpaceOnUse">
<stop stop-color="#C0C0C0"/>
<stop offset="1" stop-color="#C0C0C0" stop-opacity="0"/>
</linearGradient>
<linearGradient id="paint121_linear_1730_8283" x1="368" y1="5.81179" x2="132.733" y2="258.774" gradientUnits="userSpaceOnUse">
<stop stop-color="#C0C0C0"/>
<stop offset="1" stop-color="#C0C0C0" stop-opacity="0"/>
</linearGradient>
<linearGradient id="paint122_linear_1730_8283" x1="368" y1="5.81179" x2="132.733" y2="258.774" gradientUnits="userSpaceOnUse">
<stop stop-color="#C0C0C0"/>
<stop offset="1" stop-color="#C0C0C0" stop-opacity="0"/>
</linearGradient>
<linearGradient id="paint123_linear_1730_8283" x1="368" y1="5.81179" x2="132.733" y2="258.774" gradientUnits="userSpaceOnUse">
<stop stop-color="#C0C0C0"/>
<stop offset="1" stop-color="#C0C0C0" stop-opacity="0"/>
</linearGradient>
<linearGradient id="paint124_linear_1730_8283" x1="368" y1="5.81179" x2="132.733" y2="258.774" gradientUnits="userSpaceOnUse">
<stop stop-color="#C0C0C0"/>
<stop offset="1" stop-color="#C0C0C0" stop-opacity="0"/>
</linearGradient>
<linearGradient id="paint125_linear_1730_8283" x1="368" y1="5.81179" x2="132.733" y2="258.774" gradientUnits="userSpaceOnUse">
<stop stop-color="#C0C0C0"/>
<stop offset="1" stop-color="#C0C0C0" stop-opacity="0"/>
</linearGradient>
<linearGradient id="paint126_linear_1730_8283" x1="368" y1="5.81179" x2="132.733" y2="258.774" gradientUnits="userSpaceOnUse">
<stop stop-color="#C0C0C0"/>
<stop offset="1" stop-color="#C0C0C0" stop-opacity="0"/>
</linearGradient>
<linearGradient id="paint127_linear_1730_8283" x1="368" y1="5.81179" x2="132.733" y2="258.774" gradientUnits="userSpaceOnUse">
<stop stop-color="#C0C0C0"/>
<stop offset="1" stop-color="#C0C0C0" stop-opacity="0"/>
</linearGradient>
<linearGradient id="paint128_linear_1730_8283" x1="368" y1="5.81179" x2="132.733" y2="258.774" gradientUnits="userSpaceOnUse">
<stop stop-color="#C0C0C0"/>
<stop offset="1" stop-color="#C0C0C0" stop-opacity="0"/>
</linearGradient>
<linearGradient id="paint129_linear_1730_8283" x1="368" y1="5.81179" x2="132.733" y2="258.774" gradientUnits="userSpaceOnUse">
<stop stop-color="#C0C0C0"/>
<stop offset="1" stop-color="#C0C0C0" stop-opacity="0"/>
</linearGradient>
<linearGradient id="paint130_linear_1730_8283" x1="368" y1="5.81179" x2="132.733" y2="258.774" gradientUnits="userSpaceOnUse">
<stop stop-color="#C0C0C0"/>
<stop offset="1" stop-color="#C0C0C0" stop-opacity="0"/>
</linearGradient>
<linearGradient id="paint131_linear_1730_8283" x1="368" y1="5.81179" x2="132.733" y2="258.774" gradientUnits="userSpaceOnUse">
<stop stop-color="#C0C0C0"/>
<stop offset="1" stop-color="#C0C0C0" stop-opacity="0"/>
</linearGradient>
<linearGradient id="paint132_linear_1730_8283" x1="368" y1="5.81179" x2="132.733" y2="258.774" gradientUnits="userSpaceOnUse">
<stop stop-color="#C0C0C0"/>
<stop offset="1" stop-color="#C0C0C0" stop-opacity="0"/>
</linearGradient>
<linearGradient id="paint133_linear_1730_8283" x1="368" y1="5.81179" x2="132.733" y2="258.774" gradientUnits="userSpaceOnUse">
<stop stop-color="#C0C0C0"/>
<stop offset="1" stop-color="#C0C0C0" stop-opacity="0"/>
</linearGradient>
<linearGradient id="paint134_linear_1730_8283" x1="368" y1="5.81179" x2="132.733" y2="258.774" gradientUnits="userSpaceOnUse">
<stop stop-color="#C0C0C0"/>
<stop offset="1" stop-color="#C0C0C0" stop-opacity="0"/>
</linearGradient>
<linearGradient id="paint135_linear_1730_8283" x1="368" y1="5.81179" x2="132.733" y2="258.774" gradientUnits="userSpaceOnUse">
<stop stop-color="#C0C0C0"/>
<stop offset="1" stop-color="#C0C0C0" stop-opacity="0"/>
</linearGradient>
<linearGradient id="paint136_linear_1730_8283" x1="368" y1="5.81179" x2="132.733" y2="258.774" gradientUnits="userSpaceOnUse">
<stop stop-color="#C0C0C0"/>
<stop offset="1" stop-color="#C0C0C0" stop-opacity="0"/>
</linearGradient>
<linearGradient id="paint137_linear_1730_8283" x1="368" y1="5.81179" x2="132.733" y2="258.774" gradientUnits="userSpaceOnUse">
<stop stop-color="#C0C0C0"/>
<stop offset="1" stop-color="#C0C0C0" stop-opacity="0"/>
</linearGradient>
<linearGradient id="paint138_linear_1730_8283" x1="368" y1="5.81179" x2="132.733" y2="258.774" gradientUnits="userSpaceOnUse">
<stop stop-color="#C0C0C0"/>
<stop offset="1" stop-color="#C0C0C0" stop-opacity="0"/>
</linearGradient>
<linearGradient id="paint139_linear_1730_8283" x1="368" y1="5.81179" x2="132.733" y2="258.774" gradientUnits="userSpaceOnUse">
<stop stop-color="#C0C0C0"/>
<stop offset="1" stop-color="#C0C0C0" stop-opacity="0"/>
</linearGradient>
<linearGradient id="paint140_linear_1730_8283" x1="368" y1="5.81179" x2="132.733" y2="258.774" gradientUnits="userSpaceOnUse">
<stop stop-color="#C0C0C0"/>
<stop offset="1" stop-color="#C0C0C0" stop-opacity="0"/>
</linearGradient>
<linearGradient id="paint141_linear_1730_8283" x1="368" y1="5.81179" x2="132.733" y2="258.774" gradientUnits="userSpaceOnUse">
<stop stop-color="#C0C0C0"/>
<stop offset="1" stop-color="#C0C0C0" stop-opacity="0"/>
</linearGradient>
<linearGradient id="paint142_linear_1730_8283" x1="368" y1="5.81179" x2="132.733" y2="258.774" gradientUnits="userSpaceOnUse">
<stop stop-color="#C0C0C0"/>
<stop offset="1" stop-color="#C0C0C0" stop-opacity="0"/>
</linearGradient>
<linearGradient id="paint143_linear_1730_8283" x1="368" y1="5.81179" x2="132.733" y2="258.774" gradientUnits="userSpaceOnUse">
<stop stop-color="#C0C0C0"/>
<stop offset="1" stop-color="#C0C0C0" stop-opacity="0"/>
</linearGradient>
<linearGradient id="paint144_linear_1730_8283" x1="368" y1="5.81179" x2="132.733" y2="258.774" gradientUnits="userSpaceOnUse">
<stop stop-color="#C0C0C0"/>
<stop offset="1" stop-color="#C0C0C0" stop-opacity="0"/>
</linearGradient>
<linearGradient id="paint145_linear_1730_8283" x1="368" y1="5.81179" x2="132.733" y2="258.774" gradientUnits="userSpaceOnUse">
<stop stop-color="#C0C0C0"/>
<stop offset="1" stop-color="#C0C0C0" stop-opacity="0"/>
</linearGradient>
<linearGradient id="paint146_linear_1730_8283" x1="368" y1="5.81179" x2="132.733" y2="258.774" gradientUnits="userSpaceOnUse">
<stop stop-color="#C0C0C0"/>
<stop offset="1" stop-color="#C0C0C0" stop-opacity="0"/>
</linearGradient>
<linearGradient id="paint147_linear_1730_8283" x1="368" y1="5.81179" x2="132.733" y2="258.774" gradientUnits="userSpaceOnUse">
<stop stop-color="#C0C0C0"/>
<stop offset="1" stop-color="#C0C0C0" stop-opacity="0"/>
</linearGradient>
<linearGradient id="paint148_linear_1730_8283" x1="368" y1="5.81179" x2="132.733" y2="258.774" gradientUnits="userSpaceOnUse">
<stop stop-color="#C0C0C0"/>
<stop offset="1" stop-color="#C0C0C0" stop-opacity="0"/>
</linearGradient>
<linearGradient id="paint149_linear_1730_8283" x1="368" y1="5.81179" x2="132.733" y2="258.774" gradientUnits="userSpaceOnUse">
<stop stop-color="#C0C0C0"/>
<stop offset="1" stop-color="#C0C0C0" stop-opacity="0"/>
</linearGradient>
<linearGradient id="paint150_linear_1730_8283" x1="368" y1="5.81179" x2="132.733" y2="258.774" gradientUnits="userSpaceOnUse">
<stop stop-color="#C0C0C0"/>
<stop offset="1" stop-color="#C0C0C0" stop-opacity="0"/>
</linearGradient>
<linearGradient id="paint151_linear_1730_8283" x1="368" y1="5.81179" x2="132.733" y2="258.774" gradientUnits="userSpaceOnUse">
<stop stop-color="#C0C0C0"/>
<stop offset="1" stop-color="#C0C0C0" stop-opacity="0"/>
</linearGradient>
<linearGradient id="paint152_linear_1730_8283" x1="368" y1="5.81179" x2="132.733" y2="258.774" gradientUnits="userSpaceOnUse">
<stop stop-color="#C0C0C0"/>
<stop offset="1" stop-color="#C0C0C0" stop-opacity="0"/>
</linearGradient>
<linearGradient id="paint153_linear_1730_8283" x1="368" y1="5.81179" x2="132.733" y2="258.774" gradientUnits="userSpaceOnUse">
<stop stop-color="#C0C0C0"/>
<stop offset="1" stop-color="#C0C0C0" stop-opacity="0"/>
</linearGradient>
<linearGradient id="paint154_linear_1730_8283" x1="368" y1="5.81179" x2="132.733" y2="258.774" gradientUnits="userSpaceOnUse">
<stop stop-color="#C0C0C0"/>
<stop offset="1" stop-color="#C0C0C0" stop-opacity="0"/>
</linearGradient>
</defs>
</svg>
